<?xml version="1.0" encoding="UTF-8"?>
<svg id="Layer_1" xmlns="http://www.w3.org/2000/svg" version="1.1" viewBox="0 0 1302.8 344.3">
  <!-- Generator: Adobe Illustrator 29.0.0, SVG Export Plug-In . SVG Version: 2.1.0 Build 186)  -->
  <defs>
    <style>
      .st0 {
        fill: #fff;
      }
    </style>
  </defs>
  <path class="st0" d="M134.2,89.2c-14.4,8.2-26,19.6-34.4,33.6-8.5,14.1-12.8,29.7-12.8,46.3s4.3,32.2,12.7,46.3c8.5,14.1,20,25.4,34.4,33.6,14.4,8.2,30.4,12.4,47.7,12.4h69.8v-112.5h-81v39.1h38.2v31.8h-25.6c-9.1,0-17.6-2.3-25.2-6.9-7.6-4.6-13.8-10.8-18.3-18.4-4.5-7.7-6.7-16.2-6.7-25.3s2.3-17.7,6.7-25.3c4.5-7.7,10.6-13.9,18.3-18.4,7.6-4.6,16.1-6.9,25.2-6.9h68.5v-41.8h-69.8c-17.3,0-33.3,4.2-47.7,12.4h0Z"/>
  <path class="st0" d="M354.6,75c-42.7,0-77.4,34.8-77.4,77.6v108.8h42v-54.6h70.8v54.6h42v-108.8c0-42.8-34.7-77.6-77.4-77.6ZM390,167.8h-70.8v-15.3c0-19.6,15.9-35.5,35.4-35.5s35.4,15.9,35.4,35.5v15.3Z"/>
  <path class="st0" d="M663.4,74.8c-32.1,0-58.2,26.2-58.2,58.4v74.2c0,8.7-7,15.7-15.7,15.7s-15.7-7-15.7-15.7v-74.1c0-32.2-26.1-58.4-58.2-58.4s-58.2,26.2-58.2,58.4v128.2h42.6v-128.2c0-8.7,7-15.7,15.7-15.7s15.7,7,15.7,15.7v74.1c0,32.2,26.1,58.4,58.2,58.4s58.2-26.2,58.2-58.4v-74.2c0-8.7,7-15.7,15.7-15.7s15.7,7,15.7,15.7v128.3h42.6v-128.3c0-32.2-26.1-58.4-58.2-58.4h-.2Z"/>
  <path class="st0" d="M1120.1,75.1c-42.7,0-77.4,34.8-77.4,77.6v108.8h42v-54.6h70.8v54.6h42v-108.8c0-42.8-34.7-77.6-77.4-77.6h0ZM1155.5,168h-70.8v-15.3c0-19.6,15.9-35.5,35.4-35.5s35.4,15.9,35.4,35.5v15.3Z"/>
  <path class="st0" d="M959,74.8c-32.1,0-58.2,26.2-58.2,58.4v74.2c0,8.7-7,15.7-15.7,15.7s-15.7-7-15.7-15.7v-74.2c0-32.2-26.1-58.4-58.2-58.4s-58.2,26.2-58.2,58.4v128.3h42.6v-128.3c0-8.7,7-15.7,15.7-15.7s15.7,7,15.7,15.7v74.2c0,32.2,26.1,58.4,58.2,58.4s58.2-26.2,58.2-58.4v-74.2c0-8.7,7-15.7,15.7-15.7s15.7,7,15.7,15.7v128.3h42.6v-128.3c0-32.2-26.1-58.4-58.2-58.4h-.2Z"/>
</svg>