<?xml version="1.0" encoding="UTF-8"?>
<svg id="Layer_1" data-name="Layer 1" xmlns="http://www.w3.org/2000/svg" xmlns:xlink="http://www.w3.org/1999/xlink" viewBox="0 0 331 188.25">
  <defs>
    <style>
      .cls-1 {
        fill: #fff;
      }

      .cls-2 {
        fill: none;
      }

      .cls-3 {
        clip-path: url(#clippath);
      }
    </style>
    <clipPath id="clippath">
      <rect class="cls-2" x="46.33" y="22.72" width="240.35" height="142.05"/>
    </clipPath>
  </defs>
  <g class="cls-3">
    <g>
      <path class="cls-1" d="M204.09,163.39v-47.88h13.01v7.01c2.86-5.02,8.15-8.05,14.75-8.05,10.15,0,16.31,7.01,16.31,18.35v30.56h-13.01v-27.71c0-6.93-2.69-10.22-7.9-10.22-6.07,0-10.15,4.68-10.15,11.86v26.06h-13.01ZM180.02,164.6c-15.79,0-26.29-10.39-26.29-25.02s10.15-25.28,24.29-25.28c12.67,0,21.69,8.66,22.73,21.56l-32.71,11.78c2.52,4.07,7.29,6.41,13.79,6.41,5.12,0,10.07-1.3,13.71-3.81v10.48c-3.56,2.34-9.46,3.9-15.53,3.9h0ZM166.05,138.46l21.69-7.88c-1.39-3.9-4.95-6.23-9.72-6.23-7.64,0-12.75,5.89-11.97,14.11ZM128.17,164.78c-19.17,0-32.97-13.42-32.97-31.6s14.32-31.78,33.84-31.78c7.72,0,15.01,1.99,19,5.11v12.12c-4.16-3.81-10.58-6.06-17.18-6.06-13.45,0-22.12,8.31-22.12,20.61s8.33,20.52,20.22,20.52c3.04,0,6.42-.61,9.2-1.73v-13.77h-13.01v-10.39h24.81v29.96c-5.64,4.42-13.36,7.01-21.78,7.01h0ZM155.48,108.32l9.11-19.57-18.83-41.73h14.14l11.63,26.75,11.54-26.75h13.19l-27.33,61.3h-13.45ZM127.33,96.11c-15.79,0-26.29-10.39-26.29-25.02s10.15-25.28,24.29-25.28c12.67,0,21.69,8.66,22.73,21.56l-32.71,11.78c2.52,4.07,7.29,6.41,13.79,6.41,5.12,0,10.06-1.3,13.71-3.81v10.48c-3.56,2.34-9.46,3.9-15.53,3.9h0ZM113.36,69.97l21.69-7.88c-1.39-3.9-4.95-6.23-9.72-6.23-7.64,0-12.75,5.89-11.97,14.11ZM46.33,94.9v-60.61h13.19v22.77h24.47v-22.77h13.19v60.61h-13.19v-26.23h-24.47v26.23h-13.19Z"/>
      <path class="cls-1" d="M237.98,56.84c2.73.02,6.05,1.33,8.53,3.73,0,0,.02.02.03.03,0,0,.02.02.02.02,0,0,.01.01.02.02,2.05,2.01,3.5,4.78,3.52,8.18.02,2.5.04,5.97.07,9.73,0,1.19.02,2.41.03,3.63.07,8.07.14,16.39.15,18.62,0,.12,0,.22,0,.3,0-.04,0-.09,0-.14,0-.46-.01-1.27-.03-2.35,0,1.21.01,2.09.01,2.51,0,1.51-.63,4.06-3.6,4.96-.65.2-1.34.29-2.04.29-2.41,0-4.99-1.06-6.88-2.5,0,0-26.51-20.31-30.55-23.37-2.07-1.57-4.31-5.07-4.25-8.06,0-.26.03-.52.07-.77.38-2.33,1.73-3.53,3.55-4.17.18-.06.37-.13.58-.2,3.32-1.16,9.8-3.44,15.85-5.58,5.38-1.91,10.42-3.7,12.6-4.49.65-.24,1.4-.36,2.2-.36.04,0,.09,0,.14,0Z"/>
      <path class="cls-1" d="M264.17,54.24s0,0,0,0c.01,0,.03,0,.04,0,0,0,0,0,0,0,.01,0,.03,0,.04,0,0,0,0,0,0,0,.01,0,.03,0,.04,0,0,0,0,0,0,0,.01,0,.03,0,.04,0,0,0,0,0,.01,0,.01,0,.02,0,.04,0,0,0,0,0,.01,0,.03,0,.06,0,.09,0,0,0,.01,0,.02,0,0,0,.02,0,.03,0,0,0,.01,0,.02,0,.01,0,.03,0,.04,0,0,0,.01,0,.02,0,.01,0,.02,0,.04,0,0,0,0,0,.01,0,.01,0,.03,0,.04,0,0,0,0,0,0,0,.01,0,.02,0,.04,0,.01,0,.02,0,.03,0,0,0,.02,0,.03,0,0,0,.01,0,.02,0,0,0,.02,0,.03,0,.02,0,.04,0,.06,0h.02s.02,0,.04,0c0,0,0,0,0,0,.15.02.3.05.47.09.02,0,17.68,3.79,18.76,4.01.89.18,1.85.71,2.25,2.17.08.3.14.64.17,1.03.02.35.03.73.01,1.14,0,.02,0,.04,0,.06-.1,2.23-.86,5.28-2.96,8.35-2.52,3.66-17.84,25.8-19.76,28.57-1.73,2.5-4.24,4.18-5.92,4.18-.19,0-.37-.02-.53-.06-2.07-.54-2.52-2.44-2.51-3.76v-.05s0-.04,0-.06c0-.15,0-.41,0-.76v-.2c0-5.83-.16-30.75-.16-30.75,0-.02,0-.04,0-.06,0-.02,0-.03,0-.03h0c0-.64.07-1.39.2-2.2v-.03c.37-2.23,1.24-4.91,2.8-7.12.87-1.24,1.95-2.43,3.07-3.27,0,0,0,0,0,0,.43-.32.87-.59,1.32-.79.77-.35,1.29-.52,1.92-.52h0s.01,0,.02,0h0s.02,0,.03,0Z"/>
      <path class="cls-1" d="M235.32,23.29s.06,0,.1,0c0,0,0,0,0,0,.01,0,.03,0,.04,0,0,0,0,0,0,0,.02,0,.03,0,.05,0,0,0,0,0,0,0,.01,0,.03,0,.04,0,0,0,0,0,0,0,.01,0,.03,0,.04,0,0,0,0,0,0,0,.01,0,.03,0,.05,0,0,0,0,0,0,0,.01,0,.03,0,.04,0,0,0,0,0,0,0,.03,0,.06,0,.09.01,0,0,0,0,0,0,.04,0,.09.02.13.03,0,0,0,0,0,0,0,0,.01,0,.02,0,0,0,0,0,0,0,.01,0,.03,0,.04.01,0,0,0,0,0,0,.03,0,.06.02.08.03,0,0,0,0,0,0,.02,0,.04.01.06.02,0,0,0,0,0,0,.02,0,.04.01.06.02,0,0,0,0,0,0,.21.09.4.2.57.36,0,0,0,0,0,0,.02.02.03.03.05.05,0,0,0,0,0,0,.02.02.04.04.05.05,0,0,0,0,0,0,0,0,.01.01.02.02,0,0,0,0,0,0,0,0,.01.02.02.02,0,0,0,0,0,0,.03.04.06.08.09.12,0,0,0,0,0,.01,0,0,0,.01.01.02,0,0,0,0,0,.01,0,0,0,.01.01.02,0,0,0,0,0,.01.01.02.03.04.04.06,0,0,0,0,0,0,0,0,.01.02.02.03,0,0,0,0,0,0,0,0,.01.02.02.03,0,0,0,0,0,0,0,0,.01.02.02.03,0,0,0,0,0,0,.02.04.04.07.06.11,0,0,0,0,0,0,0,.01.01.02.02.03,0,0,0,0,0,0,.01.03.02.05.04.08.12.25.39.85.76,1.66,1.49,3.27,4.6,10.08,5.73,12.57.17.37.29.64.36.8h0s.02.04.03.06c.2.46.32.9.34,1.38h0c.03.94-.31,2.03-1.15,3.7-.12.25-.26.5-.42.75-.03.05-.06.1-.09.15-.01.02-.03.05-.04.07-.02.03-.04.06-.06.09-.07.11-.14.21-.22.32-.69,1-1.57,2.01-2.53,2.94-.07.07-.15.14-.23.22-.07.07-.14.13-.21.2-1.71,1.57-3.61,2.87-5.14,3.42-1.97.72-11.43,4.16-19.09,6.94-4.93,1.79-9.11,3.31-10.07,3.66-.53.19-1.01.28-1.44.28,0,0,0,0,0,0,0,0,0,0,0,0-.01,0-.02,0-.03,0h0s-.09,0-.14,0h0s-.02,0-.03,0c0,0,0,0,0,0-.04,0-.09,0-.13-.01,0,0-.01,0-.02,0,0,0-.01,0-.02,0,0,0,0,0-.01,0-.03,0-.05,0-.08-.01,0,0-.01,0-.02,0,0,0-.01,0-.02,0,0,0-.01,0-.02,0,0,0-.01,0-.02,0,0,0-.01,0-.02,0,0,0,0,0-.01,0-.01,0-.02,0-.04,0,0,0-.01,0-.02,0,0,0-.01,0-.02,0s-.01,0-.02,0c0,0-.01,0-.02,0,0,0,0,0-.01,0-.01,0-.02,0-.03,0,0,0,0,0-.01,0,0,0-.02,0-.02,0,0,0,0,0-.01,0,0,0-.02,0-.03,0,0,0,0,0,0,0,0,0-.02,0-.03,0,0,0,0,0,0,0-.02,0-.05-.02-.07-.02,0,0,0,0,0,0,0,0-.02,0-.03,0,0,0,0,0,0,0-.01,0-.02,0-.03-.01,0,0,0,0,0,0-.01,0-.02,0-.03-.01,0,0,0,0,0,0,0,0-.02,0-.03-.01,0,0,0,0,0,0,0,0-.02,0-.03-.01,0,0,0,0,0,0-.03-.02-.07-.03-.1-.05,0,0,0,0,0,0-.03-.02-.06-.03-.09-.05,0,0,0,0,0,0,0,0-.02-.01-.03-.02,0,0,0,0,0,0-.53-.31-.87-.8-1-1.33,0,0,0,0,0,0,0-.04-.02-.08-.03-.12,0,0,0,0,0,0,0-.02,0-.04,0-.06,0,0,0,0,0,0,0,0,0-.02,0-.03,0,0,0,0,0,0,0,0,0-.02,0-.02,0,0,0,0,0,0,0-.02,0-.04,0-.06h0s0-.02,0-.03c0,0,0,0,0-.01,0-.02,0-.04,0-.06h0s0-.02,0-.03h0s0-.02,0-.03h0v-.1s0-.02,0-.03h0s0-.03,0-.04c0,0,0-.01,0-.02,0,0,0-.02,0-.03,0,0,0,0,0-.01,0-.03,0-.06,0-.09,0,0,0,0,0-.01,0-.01,0-.02,0-.03,0,0,0-.01,0-.02,0,0,0-.02,0-.03,0,0,0-.01,0-.02,0-.03,0-.06,0-.09,0,0,0-.01,0-.02,0-.01,0-.02,0-.03,0,0,0,0,0-.01,0-.01,0-.03,0-.04,0,0,0,0,0,0,.02-.17.05-.34.09-.52,0-.02,0-.04.01-.05,0-.01,0-.03.01-.04,0-.03.01-.06.02-.09,0-.01,0-.03.01-.04.03-.12.07-.24.1-.36,0-.02,0-.03.01-.05.18-.57.42-1.16.72-1.75.38-.77.88-1.53,1.45-2.22.02-.02,21.18-25.43,22.61-27.16,1.43-1.72,4.3-3.94,6.49-4.86.71-.3,1.31-.48,1.82-.53,0,0,.02,0,.03,0,0,0,0,0,.01,0,0,0,0,0,.01,0,0,0,0,0,0,0,0,0,.01,0,.02,0,0,0,.01,0,.02,0,.01,0,.03,0,.04,0,0,0,0,0,0,0,.01,0,.03,0,.04,0,0,0,0,0,.01,0,0,0,0,0,0,0,0,0,0,0,0,0,.01,0,.02,0,.03,0,0,0,0,0,.01,0,0,0,.02,0,.02,0,0,0,0,0,.01,0,0,0,0,0,0,0,0,0,.01,0,.02,0h0s.03,0,.04,0c0,0,0,0,0,0,0,0,0,0,0,0,0,0,.02,0,.02,0,0,0,0,0,.01,0,0,0,0,0,0,0,0,0,.01,0,.02,0,0,0,.02,0,.02,0,0,0,0,0,.01,0Z"/>
      <path class="cls-1" d="M243.58,22.72c.16,0,.36.02.6.07,1.17.23,3.69,1.23,8.01,4.43,1.71,1.27,5.7,4.24,10.09,7.52,6.66,4.95,14.21,10.57,16.01,11.9.89.66,1.71,1.34,2.43,1.99,1.81,1.61,3.05,3.09,3.36,3.84.22.65.12.89-.12,1.17-.18.21-.3.43-.8.43-.07,0-.14,0-.22-.01,0,0-2.35-.45-5.27-1.13-2.92-.68-10.49-2.19-14.07-3.02s-7.59-3.83-9.01-4.96c-.94-.75-2.39-1.92-3.88-3.71-.55-.73-.92-1.33-1.54-2.6-1.62-3.54-6.24-13.84-6.25-13.86-.42-.9-.48-1.14-.24-1.48.19-.27.29-.57.9-.57Z"/>
    </g>
  </g>
</svg>