<?xml version="1.0" encoding="UTF-8"?>
<svg xmlns="http://www.w3.org/2000/svg" xmlns:xlink="http://www.w3.org/1999/xlink" width="300px" height="52px" viewBox="0 0 277 48" version="1.1">
<g id="surface1">
<path style=" stroke:none;fill-rule:nonzero;fill:rgb(100%,100%,100%);fill-opacity:1;" d="M 11.769531 3.601562 C 8.179688 5.648438 5.285156 8.5 3.191406 12 C 1.070312 15.523438 0 19.425781 0 23.574219 C 0 27.726562 1.070312 31.625 3.167969 35.148438 C 5.285156 38.675781 8.152344 41.5 11.742188 43.550781 C 15.332031 45.601562 19.324219 46.648438 23.636719 46.648438 L 41.039062 46.648438 L 41.039062 18.523438 L 20.84375 18.523438 L 20.84375 28.300781 L 30.367188 28.300781 L 30.367188 36.25 L 23.984375 36.25 C 21.714844 36.25 19.597656 35.675781 17.703125 34.523438 C 15.808594 33.375 14.261719 31.824219 13.140625 29.925781 C 12.015625 28 11.46875 25.875 11.46875 23.601562 C 11.46875 21.324219 12.042969 19.175781 13.140625 17.273438 C 14.261719 15.351562 15.78125 13.800781 17.703125 12.675781 C 19.597656 11.523438 21.714844 10.949219 23.984375 10.949219 L 41.0625 10.949219 L 41.0625 0.5 L 23.660156 0.5 C 19.347656 0.5 15.359375 1.550781 11.769531 3.601562 Z M 11.769531 3.601562 "/>
<path style=" stroke:none;fill-rule:nonzero;fill:rgb(100%,100%,100%);fill-opacity:1;" d="M 66.71875 0.0507812 C 56.074219 0.0507812 47.421875 8.75 47.421875 19.449219 L 47.421875 46.648438 L 57.894531 46.648438 L 57.894531 33 L 75.546875 33 L 75.546875 46.648438 L 86.015625 46.648438 L 86.015625 19.449219 C 86.015625 8.75 77.367188 0.0507812 66.71875 0.0507812 Z M 75.546875 23.25 L 57.894531 23.25 L 57.894531 19.425781 C 57.894531 14.523438 61.859375 10.550781 66.71875 10.550781 C 71.582031 10.550781 75.546875 14.523438 75.546875 19.425781 Z M 75.546875 23.25 "/>
<path style=" stroke:none;fill-rule:nonzero;fill:rgb(100%,100%,100%);fill-opacity:1;" d="M 143.710938 0 C 135.707031 0 129.199219 6.550781 129.199219 14.601562 L 129.199219 33.148438 C 129.199219 35.324219 127.453125 37.074219 125.285156 37.074219 C 123.117188 37.074219 121.371094 35.324219 121.371094 33.148438 L 121.371094 14.625 C 121.371094 6.574219 114.863281 0.0234375 106.859375 0.0234375 C 98.855469 0.0234375 92.351562 6.574219 92.351562 14.625 L 92.351562 46.675781 L 102.972656 46.675781 L 102.972656 14.625 C 102.972656 12.449219 104.714844 10.699219 106.886719 10.699219 C 109.054688 10.699219 110.800781 12.449219 110.800781 14.625 L 110.800781 33.148438 C 110.800781 41.199219 117.308594 47.75 125.3125 47.75 C 133.3125 47.75 139.820312 41.199219 139.820312 33.148438 L 139.820312 14.601562 C 139.820312 12.425781 141.566406 10.675781 143.734375 10.675781 C 145.90625 10.675781 147.648438 12.425781 147.648438 14.601562 L 147.648438 46.675781 L 158.269531 46.675781 L 158.269531 14.601562 C 158.269531 6.550781 151.765625 0 143.761719 0 Z M 143.710938 0 "/>
<path style=" stroke:none;fill-rule:nonzero;fill:rgb(100%,100%,100%);fill-opacity:1;" d="M 257.578125 0.0742188 C 246.929688 0.0742188 238.28125 8.773438 238.28125 19.476562 L 238.28125 46.675781 L 248.75 46.675781 L 248.75 33.023438 L 266.402344 33.023438 L 266.402344 46.675781 L 276.875 46.675781 L 276.875 19.476562 C 276.875 8.773438 268.222656 0.0742188 257.578125 0.0742188 Z M 266.402344 23.300781 L 248.75 23.300781 L 248.75 19.476562 C 248.75 14.574219 252.714844 10.601562 257.578125 10.601562 C 262.4375 10.601562 266.402344 14.574219 266.402344 19.476562 Z M 266.402344 23.300781 "/>
<path style=" stroke:none;fill-rule:nonzero;fill:rgb(100%,100%,100%);fill-opacity:1;" d="M 217.410156 0 C 209.40625 0 202.902344 6.550781 202.902344 14.601562 L 202.902344 33.148438 C 202.902344 35.324219 201.15625 37.074219 198.984375 37.074219 C 196.816406 37.074219 195.070312 35.324219 195.070312 33.148438 L 195.070312 14.601562 C 195.070312 6.550781 188.5625 0 180.5625 0 C 172.558594 0 166.050781 6.550781 166.050781 14.601562 L 166.050781 46.675781 L 176.671875 46.675781 L 176.671875 14.601562 C 176.671875 12.425781 178.417969 10.675781 180.585938 10.675781 C 182.753906 10.675781 184.5 12.425781 184.5 14.601562 L 184.5 33.148438 C 184.5 41.199219 191.007812 47.75 199.011719 47.75 C 207.015625 47.75 213.523438 41.199219 213.523438 33.148438 L 213.523438 14.601562 C 213.523438 12.425781 215.265625 10.675781 217.4375 10.675781 C 219.605469 10.675781 221.351562 12.425781 221.351562 14.601562 L 221.351562 46.675781 L 231.972656 46.675781 L 231.972656 14.601562 C 231.972656 6.550781 225.464844 0 217.460938 0 Z M 217.410156 0 "/>
</g>
</svg>
