<svg width="353" height="38" viewBox="0 0 353 38" fill="none" xmlns="http://www.w3.org/2000/svg">
<path d="M316.547 36.2063V0H324.031L334.599 27.5587H334.904L345.524 0H353.007V36.2063H347.547V15.7272L347.849 9.30583H347.547L336.975 36.2091H332.576L322.008 9.30583H321.705L322.008 15.7272V36.2091H316.547V36.2063Z" fill="white"/>
<path d="M291.238 36.2063V0H296.801V30.9488H312.376V36.2091H291.238V36.2063Z" fill="white"/>
<path d="M264.921 36.2063V0H270.382V21.3407L281.303 10.4189H288.078V10.7212L278.117 20.5807L288.431 35.904V36.2063H281.959L274.272 24.372L270.379 28.2141V36.2035H264.918L264.921 36.2063Z" fill="white"/>
<path d="M248.215 37.0205C245.551 37.0205 243.209 36.4131 241.186 35.2012C239.163 33.9864 237.578 32.3535 236.431 30.2968C235.284 28.2062 234.711 25.8812 234.711 23.3188C234.711 20.7565 235.284 18.4484 236.431 16.3917C237.578 14.3012 239.163 12.6485 241.186 11.4365C243.209 10.2218 245.551 9.61719 248.215 9.61719C250.879 9.61719 253.17 10.2415 255.193 11.4874C257.216 12.7022 258.8 14.3351 259.947 16.3917C261.094 18.4484 261.668 20.7565 261.668 23.3188C261.668 25.8812 261.094 28.2062 259.947 30.2968C258.8 32.3535 257.216 33.9892 255.193 35.2012C253.17 36.4131 250.845 37.0205 248.215 37.0205ZM248.215 32.0145C249.63 32.0145 250.947 31.6783 252.159 31.0031C253.373 30.294 254.351 29.2996 255.091 28.0198C255.865 26.7061 256.255 25.1382 256.255 23.316C256.255 21.4938 255.868 19.9457 255.091 18.6631C254.348 17.3494 253.371 16.355 252.159 15.6798C250.944 14.9707 249.63 14.6176 248.215 14.6176C246.799 14.6176 245.466 14.9707 244.22 15.6798C243.005 16.355 242.011 17.3494 241.237 18.6631C240.494 19.9429 240.124 21.4938 240.124 23.316C240.124 25.1382 240.494 26.7033 241.237 28.0198C242.011 29.2996 243.022 30.2968 244.271 31.0031C245.517 31.6783 246.833 32.0145 248.215 32.0145Z" fill="white"/>
<path d="M219.117 37.0205C216.453 37.0205 214.111 36.4131 212.088 35.2012C210.066 33.9864 208.481 32.3535 207.334 30.2968C206.187 28.2062 205.613 25.8812 205.613 23.3188C205.613 20.7565 206.187 18.4484 207.334 16.3917C208.481 14.3012 210.066 12.6485 212.088 11.4365C214.111 10.2218 216.453 9.61719 219.117 9.61719C221.781 9.61719 224.072 10.2415 226.095 11.4874C228.118 12.7022 229.703 14.3351 230.85 16.3917C231.997 18.4484 232.57 20.7565 232.57 23.3188C232.57 25.8812 231.997 28.2062 230.85 30.2968C229.703 32.3535 228.118 33.9892 226.095 35.2012C224.072 36.4159 221.747 37.0205 219.117 37.0205ZM219.117 32.0145C220.533 32.0145 221.849 31.6783 223.061 31.0031C224.276 30.294 225.253 29.2996 225.993 28.0198C226.768 26.7061 227.157 25.1382 227.157 23.316C227.157 21.4938 226.77 19.9457 225.993 18.6631C225.25 17.3494 224.273 16.355 223.061 15.6798C221.846 14.9707 220.533 14.6176 219.117 14.6176C217.702 14.6176 216.368 14.9707 215.123 15.6798C213.908 16.355 212.913 17.3494 212.139 18.6631C211.396 19.9429 211.026 21.4938 211.026 23.316C211.026 25.1382 211.396 26.7033 212.139 28.0198C212.913 29.2996 213.925 30.2968 215.173 31.0031C216.419 31.6783 217.736 32.0145 219.117 32.0145Z" fill="white"/>
<path d="M191.073 37.0171C189.759 37.0171 188.561 36.8137 187.482 36.4097C186.403 36.0057 185.459 35.4831 184.651 34.8418C183.877 34.1666 183.253 33.4773 182.781 32.7682H182.479V36.2063H177.32V0H182.781V10.3172L182.479 13.9079H182.781C183.253 13.1649 183.877 12.4756 184.651 11.8343C185.459 11.1591 186.406 10.6195 187.482 10.2155C188.561 9.81152 189.759 9.60811 191.073 9.60811C193.432 9.60811 195.539 10.1986 197.395 11.3766C199.249 12.5575 200.715 14.1735 201.794 16.2301C202.907 18.2868 203.464 20.6457 203.464 23.3098C203.464 25.9738 202.907 28.3328 201.794 30.3894C200.715 32.4461 199.249 34.0649 197.395 35.2429C195.542 36.4238 193.435 37.0114 191.073 37.0114V37.0171ZM190.265 32.011C191.612 32.011 192.878 31.6579 194.056 30.9488C195.271 30.2397 196.231 29.2283 196.938 27.9147C197.678 26.601 198.051 25.067 198.051 23.3126C198.051 21.5582 197.681 19.9931 196.938 18.7105C196.229 17.3969 195.268 16.3855 194.056 15.6764C192.875 14.9673 191.612 14.6142 190.265 14.6142C188.917 14.6142 187.652 14.9673 186.474 15.6764C185.296 16.3855 184.332 17.3969 183.592 18.7105C182.849 19.9903 182.479 21.5243 182.479 23.3126C182.479 25.1009 182.849 26.649 183.592 27.9655C184.332 29.2481 185.296 30.2425 186.474 30.9488C187.654 31.6579 188.917 32.011 190.265 32.011Z" fill="white"/>
<path d="M161.534 37.0155C159.005 37.0155 156.748 36.4251 154.756 35.247C152.767 34.0661 151.199 32.4502 150.052 30.3935C148.939 28.3369 148.383 25.9949 148.383 23.3647C148.383 20.9041 148.922 18.627 150.002 16.5365C151.081 14.4459 152.581 12.7763 154.502 11.5304C156.457 10.2507 158.7 9.60938 161.228 9.60938C163.893 9.60938 166.15 10.1829 168.006 11.3299C169.893 12.4768 171.325 14.0448 172.303 16.0336C173.28 18.0225 173.769 20.2656 173.769 22.7601C173.769 23.1302 173.752 23.4692 173.718 23.7715C173.718 24.0738 173.701 24.3111 173.667 24.4806H153.742C153.878 25.896 154.231 27.1277 154.804 28.173C155.544 29.4867 156.525 30.4811 157.737 31.1563C158.951 31.8315 160.265 32.1677 161.68 32.1677C163.401 32.1677 164.833 31.7806 165.977 31.0037C167.158 30.1958 168.085 29.2013 168.76 28.0204L173.261 30.1958C172.147 32.2185 170.63 33.8712 168.709 35.151C166.788 36.3996 164.393 37.0212 161.528 37.0212L161.534 37.0155ZM154.05 20.3786H168.362C168.328 19.7373 168.158 19.0649 167.856 18.3558C167.554 17.6128 167.116 16.9405 166.542 16.3331C165.969 15.7257 165.246 15.2369 164.367 14.8669C163.491 14.4629 162.463 14.2595 161.282 14.2595C159.799 14.2595 158.482 14.6465 157.338 15.4234C156.191 16.1664 155.299 17.2088 154.657 18.5592C154.389 19.1327 154.186 19.7401 154.05 20.3786Z" fill="white"/>
<path d="M130.734 10.4198H135.235V3.13672H140.696V10.4198H147.018V15.1744H140.696V27.5624C140.696 28.8422 140.95 29.8196 141.453 30.4948C141.992 31.17 142.885 31.5062 144.134 31.5062C144.741 31.5062 145.281 31.4215 145.753 31.2548C146.224 31.0514 146.696 30.8169 147.168 30.5457V35.8568C146.594 36.0913 145.987 36.2778 145.349 36.4134C144.707 36.549 143.95 36.6168 143.074 36.6168C140.681 36.6168 138.775 35.9246 137.359 34.5432C135.944 33.1278 135.235 31.1898 135.235 28.7292V15.1772H130.734V10.4226V10.4198Z" fill="white"/>
<path d="M116.273 37.0205C113.609 37.0205 111.267 36.4131 109.245 35.2012C107.222 33.9892 105.637 32.3535 104.49 30.2968C103.343 28.2062 102.77 25.8812 102.77 23.3188C102.77 20.7565 103.343 18.4484 104.49 16.3917C105.637 14.3012 107.222 12.6485 109.245 11.4365C111.267 10.2218 113.609 9.61719 116.273 9.61719C118.937 9.61719 121.229 10.2415 123.251 11.4874C125.274 12.7022 126.859 14.3351 128.006 16.3917C129.153 18.4484 129.726 20.7565 129.726 23.3188C129.726 25.8812 129.153 28.2062 128.006 30.2968C126.859 32.3535 125.274 33.9892 123.251 35.2012C121.229 36.4131 118.904 37.0205 116.273 37.0205ZM116.273 32.0145C117.689 32.0145 119.005 31.6783 120.217 31.0031C121.432 30.294 122.41 29.2996 123.15 28.0198C123.924 26.7061 124.314 25.1382 124.314 23.316C124.314 21.4938 123.927 19.9457 123.15 18.6631C122.41 17.3494 121.429 16.355 120.217 15.6798C119.002 14.9707 117.689 14.6176 116.273 14.6176C114.858 14.6176 113.525 14.9707 112.279 15.6798C111.064 16.355 110.07 17.3494 109.295 18.6631C108.555 19.9429 108.182 21.4938 108.182 23.316C108.182 25.1382 108.552 26.7033 109.295 28.0198C110.07 29.2996 111.081 30.2968 112.33 31.0031C113.578 31.6783 114.892 32.0145 116.273 32.0145Z" fill="white"/>
<path d="M70.4414 36.2063V0H77.0154L93.4009 26.5982H93.7032L93.4009 19.6202V0H98.9126V36.2063H93.1466L75.9531 8.24077H75.6509L75.9531 15.2187V36.2063H70.4414Z" fill="white"/>
<path d="M24.6833 0C11.0505 0 0 10.9589 0 24.4837V36.2064H4.55088V35.0381C4.55088 29.5529 9.03105 25.106 14.5605 25.106C20.09 25.106 24.5702 29.5529 24.5702 35.0381V36.2064H29.1211V35.0381C29.1211 27.0607 22.6017 20.5968 14.5605 20.5968C11.4295 20.5968 8.53042 21.5756 6.15457 23.2474C8.64073 18.3479 13.7573 14.9844 19.6658 14.9844C28.0124 14.9844 34.7807 21.7001 34.7807 29.9773V36.2064H39.3316V29.9773C39.3316 19.205 30.5268 10.4696 19.6658 10.4696C14.7812 10.4696 10.3151 12.2348 6.87581 15.1598C10.2529 8.826 16.959 4.51201 24.6862 4.51201C35.8074 4.51201 44.8215 13.454 44.8215 24.4837V36.2064H49.3724V24.4837C49.3695 10.9589 38.319 0 24.6833 0Z" fill="white"/>
</svg>
