<svg width="232" height="85" viewBox="0 0 232 85" fill="none" xmlns="http://www.w3.org/2000/svg">
<path d="M201.918 64.253V21.0117H208.754V49.5495L223.211 32.9424H231.498L218.492 47.1745L231.619 64.253H223.453L212.821 49.5784L208.754 49.5495V64.253H201.918Z" fill="white"/>
<path d="M181.202 64.9809C171.04 64.9809 165.535 57.774 165.535 48.5686C165.535 39.3026 171.04 32.1562 181.202 32.1562C191.425 32.1562 196.869 39.3026 196.869 48.5686C196.869 57.774 191.425 64.9809 181.202 64.9809ZM172.673 48.5686C172.673 55.7149 176.544 59.2879 181.202 59.2879C185.92 59.2879 189.731 55.7149 189.731 48.5686C189.731 41.4222 185.92 37.7884 181.202 37.7884C176.544 37.7884 172.673 41.4222 172.673 48.5686Z" fill="white"/>
<path d="M146.5 64.2521V37.9076L152.247 32.9414H164.466V38.7554H153.336V64.2521H146.5Z" fill="white"/>
<path d="M120.367 65.0549C107.338 65.0549 99.5703 55.5949 99.5703 42.6952C99.5703 29.6743 107.616 19.9844 120.621 19.9844C130.783 19.9844 138.224 25.1927 139.978 34.8826H132.175C131.026 29.3715 126.428 26.2828 120.621 26.2828C111.245 26.2828 107.132 34.3982 107.132 42.6952C107.132 50.9921 111.245 59.0469 120.621 59.0469C129.574 59.0469 133.506 52.5668 133.808 47.1767H120.319V40.906H140.704L140.671 44.1844C140.671 56.3676 135.706 65.0549 120.367 65.0549Z" fill="white"/>
<path d="M34.1567 54.5184L63.5693 32.7805C65.0113 31.7149 67.0723 32.1305 67.7595 33.7859C71.3755 42.5158 69.7599 53.0069 62.5652 60.21C55.3707 67.4129 45.3601 68.9927 36.2103 65.3949L26.2148 70.0283C40.5512 79.8389 57.9602 77.4128 68.8389 66.5137C77.468 57.8744 80.1405 46.0984 77.6416 35.479L77.6641 35.5016C74.0404 19.9012 78.5552 13.6655 87.8032 0.914562C88.0219 0.612229 88.2409 0.309893 88.4598 0L76.2901 12.1841V12.1463L34.1493 54.5261" fill="white"/>
<path d="M28.0991 59.804C17.8091 49.9629 19.5833 34.7328 28.3632 25.9501C34.8557 19.4499 45.4929 16.7969 54.7786 20.697L64.7515 16.0864C62.9549 14.7864 60.6521 13.3881 58.0098 12.4055C46.0667 7.485 31.768 9.93389 22.0595 19.6464C12.7208 28.9961 9.78408 43.3721 14.8271 55.6394C18.5943 64.8077 12.4188 71.2926 6.19809 77.8383C3.99364 80.1586 1.78166 82.4791 0 84.9355L28.0914 59.8115" fill="white"/>
</svg>
