<svg width="172" height="55" viewBox="0 0 172 55" fill="none" xmlns="http://www.w3.org/2000/svg">
<path d="M9.34186 35.6428C5.92344 35.8721 3.23688 34.7599 1.35018 31.9743C-2.00139 27.0289 1.24185 20.0447 7.17164 19.4281C8.82553 19.2563 10.4886 19.2414 12.0884 18.6455C16.211 17.1092 19.1672 13.1134 19.2871 8.7189C19.3551 6.22026 20.0247 3.98553 21.9287 2.26714C24.2776 0.14536 27.0137 -0.550758 30.031 0.449623C33.0806 1.46153 34.9812 3.63286 35.5194 6.8138C35.9677 9.46228 35.5494 12.0992 34.8832 14.6705C32.6899 23.1392 27.6049 29.2671 19.7665 33.1153C16.71 34.6159 13.1602 35.4411 9.34071 35.6428H9.34186Z" fill="white"/>
<path d="M111.577 43.3892C110.681 43.3892 109.785 43.388 108.889 43.3892C107.545 43.3915 106.2 43.3846 104.856 43.4042C104.091 43.4157 103.577 43.1299 103.209 42.4188C102.25 40.5632 101.173 38.7665 100.257 36.8913C99.8197 35.9981 99.3137 35.5786 98.2926 35.6535C97.0698 35.7446 95.8354 35.6973 94.6068 35.6939C94.1377 35.6927 93.936 35.8391 93.9429 36.36C93.9683 38.3573 93.9579 40.3546 93.9383 42.3519C93.9291 43.2705 93.8865 43.2958 92.9921 43.2993C91.1296 43.3062 89.2671 43.2912 87.4046 43.32C86.9217 43.3281 86.75 43.1402 86.7442 42.6977C86.7315 41.6028 86.6981 40.5091 86.6992 39.4142C86.705 31.9436 86.7223 24.473 86.7154 17.0024C86.7154 16.4342 86.8445 16.1334 87.4599 16.1461C87.997 16.1565 88.5341 16.1011 89.0712 16.1057C93.0843 16.1369 97.0974 16.1426 101.111 16.2245C103.512 16.2729 105.76 16.8848 107.728 18.3624C109.568 19.7419 110.589 21.5779 110.909 23.8195C111.198 25.8422 111.071 27.836 110.345 29.7688C109.685 31.5241 108.534 32.8656 106.93 33.8233C106 34.3788 105.993 34.3858 106.594 35.2985C108.138 37.6358 109.69 39.9674 111.23 42.307C111.407 42.5778 111.532 42.8832 111.682 43.1725C111.647 43.2451 111.611 43.3177 111.577 43.3903V43.3892ZM93.9072 25.9217H93.9579C93.9579 27.1318 93.9706 28.342 93.951 29.551C93.9441 29.9901 94.0939 30.1825 94.5469 30.1779C96.3333 30.1583 98.122 30.2229 99.9038 30.1307C102.337 30.0039 103.881 28.8975 104.192 26.3689C104.498 23.8864 103.244 22.0158 100.761 21.7646C98.726 21.5583 96.6618 21.6367 94.6103 21.5733C94.0847 21.5571 93.8922 21.7773 93.9014 22.2924C93.921 23.5014 93.9084 24.7116 93.9084 25.9217H93.9072Z" fill="white"/>
<path d="M63.8131 27.6586C64.1174 27.3993 64.3191 27.261 64.4793 27.0846C66.2622 25.1265 68.0348 23.158 69.8201 21.2022C71.2435 19.6428 72.668 18.0846 74.1248 16.5576C74.3473 16.3248 74.7483 16.1484 75.0711 16.1427C77.3173 16.1046 79.5648 16.1162 81.8111 16.1196C82.0162 16.1196 82.2202 16.1726 82.5314 16.2164C82.4127 16.4216 82.3562 16.5772 82.2537 16.6878C79.1211 20.0624 75.9919 23.4392 72.8386 26.7942C72.4479 27.2102 72.426 27.4892 72.7568 27.9571C76.1199 32.717 79.4622 37.4918 82.8 42.269C82.9867 42.5364 83.0777 42.8717 83.2126 43.1749C82.9014 43.2198 82.5902 43.3028 82.2779 43.3051C80.0512 43.3212 77.8245 43.3051 75.5989 43.3374C75.0572 43.3454 74.7541 43.093 74.4764 42.6908C72.3649 39.6263 70.2442 36.5686 68.1293 33.5064C67.5727 32.6997 67.4367 32.6835 66.759 33.4027C65.9695 34.2406 65.1858 35.0831 64.3997 35.9244C63.9687 36.3854 63.7278 36.8821 63.737 37.5644C63.7624 39.2724 63.6748 40.9805 63.6667 42.6896C63.6644 43.1841 63.4604 43.3166 63.0109 43.3132C61.0528 43.3016 59.0946 43.297 57.1365 43.3166C56.619 43.3212 56.491 43.108 56.4922 42.6251C56.5037 37.7477 56.4887 32.8702 56.4991 27.9928C56.5072 24.4027 56.5418 20.8115 56.5671 17.2214C56.5683 17.0105 56.5948 16.7984 56.5867 16.5887C56.574 16.2533 56.7135 16.0943 57.0592 16.0977C59.0566 16.115 61.0528 16.1311 63.0501 16.1334C63.5238 16.1334 63.6875 16.3524 63.6898 16.8007C63.6944 18.2979 63.7244 19.795 63.729 21.2921C63.7347 23.1926 63.7232 25.0942 63.7243 26.9947C63.7243 27.1584 63.7658 27.322 63.8131 27.6586Z" fill="white"/>
<path d="M115.859 29.628C115.859 25.3833 115.859 21.1386 115.859 16.8939C115.859 16.1943 115.924 16.1194 116.604 16.1194C123.422 16.1171 130.241 16.1159 137.06 16.1194C137.935 16.1194 138.001 16.1954 138 17.0737C137.997 18.361 137.975 19.6472 137.996 20.9346C138.003 21.3944 137.83 21.5373 137.391 21.5385C135.068 21.5419 132.744 21.5615 130.419 21.58C128.23 21.5973 126.041 21.6295 123.852 21.6284C123.308 21.6284 123.096 21.8174 123.107 22.3694C123.131 23.6361 123.132 24.905 123.102 26.1716C123.09 26.6672 123.274 26.8769 123.754 26.8815C125.424 26.8988 127.094 26.9299 128.764 26.9415C131.145 26.9576 133.528 26.9714 135.909 26.9588C136.406 26.9564 136.605 27.1166 136.597 27.6145C136.577 28.978 136.576 30.3414 136.581 31.7048C136.582 32.1912 136.379 32.3698 135.884 32.371C132.119 32.3813 128.355 32.3906 124.592 32.4493C122.826 32.477 123.133 32.1854 123.092 33.9453C123.067 34.9814 123.133 36.0187 123.124 37.0559C123.119 37.6068 123.326 37.8627 123.893 37.8558C124.641 37.8454 125.39 37.8846 126.139 37.8857C129.942 37.8915 133.746 37.888 137.548 37.8961C138.41 37.8973 138.443 37.9272 138.449 38.7616C138.458 40.0674 138.435 41.3732 138.442 42.679C138.444 43.1066 138.275 43.3221 137.839 43.3337C137.129 43.351 136.421 43.404 135.711 43.4028C129.795 43.3982 123.879 43.3855 117.964 43.3717C117.542 43.3717 117.116 43.2922 116.698 43.3302C116.077 43.3855 115.9 43.1055 115.9 42.5361C115.902 40.2703 115.876 38.0033 115.869 35.7374C115.862 33.7021 115.867 31.6656 115.867 29.6291H115.859V29.628Z" fill="white"/>
<path d="M167.711 43.3121C166.636 43.3121 165.561 43.304 164.485 43.3155C164.044 43.3201 163.779 43.1496 163.625 42.722C163.174 41.4807 162.678 40.2545 162.232 39.012C162.056 38.5211 161.77 38.3413 161.248 38.3447C157.638 38.3678 154.027 38.3759 150.418 38.3597C149.813 38.3574 149.466 38.5695 149.245 39.1273C148.775 40.3201 148.251 41.4911 147.778 42.6828C147.6 43.1323 147.354 43.3317 146.841 43.3236C144.865 43.2913 142.887 43.3075 140.909 43.2982C140.281 43.2948 140.189 43.1576 140.447 42.5745C141.691 39.7785 142.946 36.9882 144.19 34.1922C146.595 28.7893 149.001 23.3874 151.39 17.9787C152.217 16.107 152.196 16.0955 154.212 16.0978C155.825 16.1001 157.438 16.1174 159.051 16.1058C159.548 16.1024 159.817 16.3237 160.009 16.7639C161.764 20.7804 163.545 24.7866 165.293 28.8065C166.928 32.5649 168.527 36.3382 170.152 40.1012C170.502 40.9091 170.903 41.6951 171.257 42.5019C171.572 43.2199 171.522 43.3005 170.764 43.3121C169.747 43.3259 168.729 43.3155 167.711 43.3155V43.3132V43.3121ZM159.738 32.8576C158.424 29.596 157.169 26.4819 155.915 23.3667C155.821 23.3632 155.726 23.3586 155.632 23.3552C154.352 26.5084 153.072 29.6617 151.752 32.9129C154.453 33.1285 157.04 33.0639 159.738 32.8576Z" fill="white"/>
<path d="M14.8945 37.929C20.6399 36.5621 25.5416 33.8468 29.8199 29.6562C30.811 31.2894 31.8426 32.7888 32.6735 34.3931C34.7735 38.4476 35.7992 42.7811 35.6471 47.3565C35.5122 51.4192 31.9129 54.8294 27.8398 54.9677C23.8071 55.106 20.0948 52.2397 19.4666 48.1783C19.311 47.1768 19.3306 46.1487 19.1854 45.1449C18.7717 42.3062 17.4048 39.9966 15.1896 38.1825C15.1181 38.1238 15.0501 38.0615 14.8945 37.9278V37.929Z" fill="white"/>
<path d="M0.0249742 19.8325V15.0392C0.0249742 12.7918 0.0215166 10.5444 0.0249742 8.29818C0.0318894 4.39346 2.47296 1.25056 6.25558 0.267466C10.9902 -0.962266 15.9657 2.61168 16.2976 7.48335C16.5834 11.6704 14.0087 15.2225 9.95752 16.1353C9.03088 16.3439 8.05469 16.3312 7.10039 16.4245C4.56942 16.6723 2.38537 17.6866 0.520564 19.4049C0.39609 19.519 0.263549 19.6251 0.0238217 19.8302L0.0249742 19.8325Z" fill="white"/>
<path d="M0.0382988 35.4414C1.26229 36.2009 2.43903 37.0192 3.69529 37.6877C5.10484 38.4368 6.6746 38.635 8.25933 38.6765C12.2632 38.7802 15.4512 41.4886 16.2084 45.4302C16.946 49.2727 14.5856 53.2869 10.8548 54.5339C5.95542 56.1717 0.890022 53.1071 0.0924679 48.0142C0.0359937 47.6557 0.0267734 47.2881 0.0267734 46.925C0.0221633 43.1828 0.0233158 39.4406 0.0244684 35.6984C0.0244684 35.5855 0.0359937 35.4725 0.0382988 35.4426V35.4414Z" fill="white"/>
</svg>
