<svg width="272" height="66" viewBox="0 0 272 66" fill="none" xmlns="http://www.w3.org/2000/svg">
<path d="M26.3308 0V17.5834L43.5559 0.344635V18.8224H50.9277V45.1896H43.5559V63.7716L26.3308 46.5292V65.1519H24.5209V46.6088L7.37537 63.7716V45.1896H0V18.8224H7.3736V0.344635L24.5209 17.5057V0H26.3308ZM9.18519 37.3001V59.3991L24.5209 44.0514V21.9506L9.18519 37.3001ZM26.3714 44.0108L41.746 59.3991V45.1896H41.7425L41.7443 44.2847V37.3019L26.3714 21.9135V44.0108ZM43.5559 20.6357H27.6528L43.5559 36.5525V43.3798H49.1179V20.6321H43.5559V20.6357ZM1.80982 43.3798H7.3736L7.37537 36.5525L23.2767 20.6357H7.3736V20.6321H1.80982V43.3798ZM27.6528 18.8224H41.746V4.71354L27.6528 18.8224ZM9.18342 18.8224H23.2767L9.18342 4.71354V18.8224Z" fill="white"/>
<path d="M100.369 23.5806C101.443 21.5736 102.943 20.028 104.878 18.9404C106.809 17.8563 109.075 17.3134 111.674 17.3134C114.272 17.3134 116.424 17.8473 118.225 18.9168C120.028 19.9864 121.376 21.4035 122.268 23.168C123.16 24.9343 123.608 26.869 123.608 28.9719V31.8857H103.39C103.553 34.4121 104.405 36.421 105.947 37.9104C107.489 39.4017 109.56 40.1455 112.16 40.1455C114.271 40.1455 115.889 39.7166 117.007 38.8587C118.129 38.0009 118.947 36.8119 119.468 35.2881H124.098C123.481 37.6516 122.223 39.7021 120.323 41.4341C118.424 43.1678 115.702 44.0329 112.162 44.0329C109.498 44.0329 107.151 43.49 105.12 42.4059C103.091 41.3218 101.522 39.7745 100.418 37.7656C99.3143 35.7568 98.7623 33.3932 98.7623 30.6713C98.7623 27.9494 99.298 25.5877 100.371 23.5788L100.369 23.5806ZM118.737 28.2426C118.737 26.0401 118.169 24.3172 117.032 23.0685C115.896 21.8215 114.11 21.199 111.672 21.199C109.399 21.199 107.538 21.8052 106.094 23.0196C104.648 24.234 103.763 25.9768 103.439 28.2426H118.737ZM129.681 18.0409V22.0731C129.681 22.3011 129.795 22.4133 130.023 22.4133C130.154 22.4133 130.25 22.3807 130.317 22.3156C130.383 22.2504 130.447 22.1219 130.51 21.9283C131.354 19.2734 133.449 17.945 136.796 17.945H138.939V22.3156H136.16C133.983 22.3156 132.36 22.8332 131.287 23.8702C130.213 24.9072 129.678 26.6066 129.678 28.9719V43.3036H125.292V18.0391H129.681V18.0409ZM164.687 37.9828C163.534 40.0061 162.039 41.5209 160.204 42.5235C158.369 43.5262 156.394 44.0293 154.284 44.0293C150.127 44.0293 147.202 42.3788 145.514 39.0741C145.383 38.8171 145.22 38.6868 145.027 38.6868C144.833 38.6868 144.734 38.7845 144.734 38.9782V52.5316H140.348V18.0427H144.734V22.3663C144.734 22.5599 144.831 22.6576 145.027 22.6576C145.222 22.6576 145.383 22.5273 145.514 22.2703C147.202 18.9657 150.127 17.3152 154.284 17.3152C156.394 17.3152 158.369 17.8183 160.204 18.8209C162.039 19.8235 163.532 21.3383 164.687 23.3634C165.84 25.3868 166.417 27.8264 166.417 30.6731C166.417 33.5199 165.84 35.9577 164.687 37.9828ZM159.619 23.7001C158.01 22.0315 155.891 21.1972 153.261 21.1972C150.632 21.1972 148.511 22.0315 146.904 23.7001C145.295 25.3687 144.705 27.6924 144.705 30.6713C144.705 33.6502 145.295 35.9758 146.904 37.6426C148.512 39.3112 150.632 40.1455 153.261 40.1455C155.891 40.1455 158.012 39.313 159.619 37.6426C161.228 35.974 162.032 33.6502 162.032 30.6713C162.032 27.6924 161.228 25.3687 159.619 23.7001ZM172.78 8.32422V43.3017H168.395V8.32784H172.78V8.32422ZM176.391 23.5788C177.462 21.5718 178.964 20.0262 180.899 18.9385C182.83 17.8545 185.096 17.3116 187.693 17.3116C190.29 17.3116 192.446 17.8454 194.247 18.915C196.049 19.9846 197.398 21.4017 198.29 23.1662C199.184 24.9325 199.629 26.8672 199.629 28.9701V31.8839H179.412C179.574 34.4103 180.427 36.4192 181.969 37.9086C183.511 39.3999 185.581 40.1437 188.182 40.1437C190.292 40.1437 191.908 39.7148 193.029 38.8569C194.151 37.9991 194.969 36.8101 195.49 35.2862H200.119C199.502 37.6498 198.243 39.7003 196.344 41.4322C194.446 43.166 191.724 44.0311 188.184 44.0311C185.52 44.0311 183.172 43.4882 181.142 42.4041C179.113 41.32 177.544 39.7727 176.44 37.7638C175.336 35.755 174.784 33.3914 174.784 30.6695C174.784 27.9476 175.32 25.5859 176.393 23.577H176.391V23.5788ZM194.759 28.2408C194.759 26.0383 194.191 24.3154 193.054 23.0666C191.917 21.8197 190.131 21.1972 187.693 21.1972C185.422 21.1972 183.56 21.8034 182.115 23.0178C180.669 24.2321 179.786 25.975 179.46 28.2408H194.759ZM197.678 42.3299L207.714 29.9402L199.481 19.0109V18.0391H204.304L211.176 27.4626L218.581 18.0391H223.501V19.0598L214.05 30.6713L222.771 42.3299V43.3017H218.046L210.591 33.1489L202.603 43.3017H197.682V42.3299H197.678ZM229.867 9.81728V15.2846H224.746V9.81728H229.867ZM229.601 43.3036H225.214V18.0409H229.601V43.3036ZM230.984 18.0409H235.755V11.2398H240.142V18.0409H245.162L246.395 21.7437H240.142V33.8294C240.142 35.4799 240.1 36.7033 240.019 37.4978C239.937 38.2923 239.898 38.7701 239.898 38.9311C239.898 39.1592 239.961 39.3365 240.091 39.465C240.221 39.5953 240.399 39.6587 240.629 39.6587C240.79 39.6587 241.269 39.6188 242.066 39.5374C242.86 39.456 244.087 39.4162 245.745 39.4162H247.45V43.3017H244.04C241.246 43.3017 239.166 42.6231 237.804 41.2603C236.441 39.8994 235.757 37.829 235.757 35.0419V21.7419H230.988V18.0391H230.984V18.0409ZM246.483 18.0409H250.954L258.213 39.2352C258.312 39.4958 258.466 39.8378 258.964 39.8378C259.462 39.8378 259.616 39.494 259.713 39.2352L266.972 18.0409H271.142V19.0127L262.061 46.2662C261.281 48.599 260.186 50.2259 258.774 51.1489C257.36 52.0719 255.719 52.5334 252.988 52.5334H248.311V48.6478H251.869C253.006 48.6478 253.931 48.6876 254.646 48.7691C255.359 48.8505 255.815 48.8903 256.01 48.8903C256.562 48.8903 256.935 48.6478 257.132 48.1628L258.497 44.4709C258.66 44.0836 258.674 43.7922 258.546 43.5949C258.481 43.4646 258.401 43.3832 258.303 43.3524C258.206 43.3198 258.059 43.3036 257.865 43.3036H254.894L246.487 18.0427H246.483V18.0409ZM95.9752 38.0244C94.8223 40.0478 93.3274 41.5625 91.4923 42.5652C89.6571 43.5678 87.6826 44.0709 85.5723 44.0709C81.4152 44.0709 78.4905 42.4204 76.8019 39.1157C76.6716 38.8587 76.5088 38.7284 76.3151 38.7284C76.1215 38.7284 76.0219 38.8262 76.0219 39.0198V52.5732H71.6367V18.0843H76.0219V22.4079C76.0219 22.6015 76.1196 22.6993 76.3151 22.6993C76.5106 22.6993 76.6716 22.569 76.8019 22.312C78.4887 19.0073 81.4152 17.3568 85.5723 17.3568C87.6826 17.3568 89.6571 17.8599 91.4923 18.8625C93.3274 19.8652 94.8205 21.3799 95.9752 23.4033C97.128 25.4266 97.7054 27.8662 97.7054 30.7148C97.7054 33.5633 97.128 36.0011 95.9752 38.0244ZM90.9077 23.7417C89.2988 22.0731 87.1795 21.2388 84.5498 21.2388C81.9201 21.2388 79.799 22.0731 78.1919 23.7417C76.583 25.4103 75.993 27.7341 75.993 30.7129C75.993 33.6918 76.583 36.0174 78.1919 37.6842C79.8008 39.3528 81.9201 40.1871 84.5498 40.1871C87.1795 40.1871 89.3006 39.3546 90.9077 37.6842C92.5166 36.0156 93.3202 33.6918 93.3202 30.7129C93.3202 27.7341 92.5166 25.4103 90.9077 23.7417Z" fill="white"/>
</svg>
