<svg width="241" height="47" viewBox="0 0 241 47" fill="none" xmlns="http://www.w3.org/2000/svg">
<path d="M65.4766 10.6185H72.111L72.7327 14.0703C73.3919 12.7871 74.4068 11.7208 75.656 10.9992C76.9053 10.2775 78.336 9.93101 79.777 10.001C81.1102 10.0119 82.4293 10.2746 83.6648 10.7755L82.107 18.7578C80.9295 18.0655 79.5851 17.7084 78.2193 17.7252C75.5272 17.7252 73.3476 19.5323 73.3476 23.5471V36.3724H65.4766V10.6185Z" fill="white"/>
<path d="M86.3906 26.7843V10.457H94.3782V25.29C94.3037 25.8814 94.3597 26.4821 94.5423 27.0496C94.7249 27.6171 95.0297 28.1377 95.4352 28.5748C95.8407 29.0118 96.3371 29.3547 96.8894 29.5792C97.4417 29.8037 98.0365 29.9045 98.6319 29.8744C101.209 29.8744 103.412 27.9183 103.412 23.5922V10.457H111.4V36.2111H104.728L103.835 32.8152C102.881 34.1073 101.627 35.1479 100.181 35.8472C98.7348 36.5465 97.1405 36.8835 95.5352 36.8291C90.3254 36.8291 86.3906 33.5279 86.3906 26.7843Z" fill="white"/>
<path d="M115.503 10.6195H122.093L122.976 14.0154C123.9 12.7277 125.127 11.6877 126.548 10.9875C127.97 10.2874 129.543 9.94868 131.126 10.0014C136.211 10.0014 140.05 13.2478 140.05 19.9925V36.3735H132.16V21.6424C132.16 18.6069 130.599 16.9562 128.006 16.9562C125.618 16.9562 123.387 18.912 123.387 23.3402V36.3735H115.496V10.6195H115.503Z" fill="white"/>
<path d="M141.863 10.457H149.756L154.418 28.0293L158.566 16.4718L156.519 10.4572H164.358L169.432 28.0293L173.938 10.457H181.877L173.473 36.3743H165.377L161.898 26.0608L158.31 36.3743H150.262L141.863 10.457Z" fill="white"/>
<path d="M182.336 23.4168C182.336 14.5602 188.726 10.0035 194.608 10.0035C195.989 9.9373 197.369 10.1628 198.656 10.6652C199.944 11.1677 201.112 11.9358 202.083 12.9196L202.803 10.6177H210.073V36.2161H203.164L202.083 33.7116C201.093 34.7858 199.875 35.6239 198.518 36.1637C197.161 36.7035 195.7 36.9314 194.242 36.8304C187.904 36.8304 182.336 31.6055 182.336 23.4168ZM202.395 23.4168C202.477 22.5682 202.381 21.7118 202.113 20.9025C201.844 20.0933 201.409 19.3492 200.836 18.7179C200.263 18.0867 199.564 17.5822 198.785 17.2371C198.005 16.8919 197.162 16.7136 196.309 16.7136C195.457 16.7136 194.613 16.8919 193.834 17.2371C193.054 17.5822 192.355 18.0867 191.782 18.7179C191.209 19.3492 190.774 20.0933 190.506 20.9025C190.237 21.7118 190.141 22.5682 190.223 23.4168C190.14 24.2661 190.236 25.1233 190.504 25.9334C190.772 26.7435 191.206 27.4886 191.779 28.1207C192.353 28.7528 193.052 29.258 193.832 29.6037C194.612 29.9493 195.456 30.1279 196.309 30.1279C197.163 30.1279 198.006 29.9493 198.787 29.6037C199.567 29.258 200.266 28.7528 200.839 28.1207C201.412 27.4886 201.847 26.7435 202.115 25.9334C202.383 25.1233 202.478 24.2661 202.395 23.4168Z" fill="white"/>
<path d="M218.316 46.8323L222.688 35.0384L212.332 10.457H220.814L226.592 26.5133L231.795 10.457H240.07L226.386 46.8323H218.316Z" fill="white"/>
<path d="M35.9045 46.8045C30.2304 47.3233 25.486 40.6743 21.849 37.3019C20.01 50.5522 -0.0136965 49.2962 7.03042e-06 35.8548C0.00677208 30.2093 7.03042e-06 16.413 7.03042e-06 10.9451C-0.00141529 9.50579 0.281403 8.08035 0.832234 6.7506C1.38306 5.42085 2.19106 4.21294 3.20987 3.19621C4.22868 2.17947 5.43823 1.37391 6.76913 0.825759C8.10004 0.277604 9.52608 -0.00235932 10.9655 0.00193466C16.6602 0.0088729 30.374 -0.00483013 35.9045 0.00193466C49.3586 0.00193466 50.6369 20.0174 37.3403 21.8194L43.6502 28.1204C50.5817 34.6392 45.3798 47.0913 35.9045 46.8045ZM32.8488 38.9199C36.7592 42.9476 43.0007 36.708 38.9741 32.8033L28.0359 21.881H21.9174V27.9974L31.3721 37.4386L32.8488 38.9199ZM6.62437 35.8615C6.53556 41.4593 15.375 41.4798 15.2861 35.8615V10.9451C15.2797 10.2751 15.1188 9.61563 14.8161 9.01791C14.5133 8.42019 14.0768 7.90034 13.5404 7.49878C13.004 7.09721 12.3823 6.82475 11.7235 6.70257C11.0647 6.58038 10.3865 6.61177 9.74185 6.7943C9.62563 6.82899 9.51634 6.86264 9.41365 6.90358C8.58347 7.22406 7.87125 7.7909 7.37264 8.52796C6.87403 9.26503 6.61292 10.137 6.62437 11.0268V35.8615ZM35.9049 15.2661C41.5251 15.3549 41.5176 6.52822 35.9049 6.61685H21.0495C22.177 8.9932 21.8905 12.6925 21.9109 15.2661H35.9049Z" fill="white"/>
</svg>
