<svg width="210" height="52" viewBox="0 0 210 52" fill="none" xmlns="http://www.w3.org/2000/svg">
<path fill-rule="evenodd" clip-rule="evenodd" d="M186.813 0C193.646 0 200.485 1.54398 203.981 4.63174L203.969 4.62562C207.47 7.71971 209.225 12.1002 209.225 17.7674V33.7888C209.225 39.3765 207.458 43.6957 203.944 46.7408C200.418 49.7857 193.579 51.3113 186.74 51.3113C179.907 51.3113 172.658 51.2623 168.735 46.8082C164.572 42.0787 166.109 38.4742 167.788 34.534C168.787 32.191 169.836 29.7291 169.767 26.8411C169.705 24.2221 168.538 22.3681 167.37 20.5119C165.692 17.8435 164.01 15.1704 165.599 10.2133C168.6 0.851599 178.764 0 186.813 0ZM196.158 40.9694C197.728 39.4255 198.517 36.7786 198.517 33.0107V18.5517C198.517 14.7042 197.735 11.99 196.158 10.397C194.581 8.80401 190.223 8.01998 186.44 8.01998C182.657 8.01998 178.299 8.81013 176.723 10.397C175.152 11.9838 174.363 14.7042 174.363 18.5519V33.0107C174.363 36.7725 175.146 39.4255 176.723 40.9694C178.299 42.5132 182.657 43.2852 186.44 43.2852C190.223 43.2852 194.581 42.5132 196.158 40.9694ZM21.1882 51.0294C17.1004 51.0294 13.2197 50.3983 9.54011 49.1362C5.86047 47.8741 2.68044 45.9196 0 43.2668L3.65514 36.1232C6.29926 38.3593 9.13806 40.038 12.172 41.1532C15.2059 42.2742 18.6661 42.8257 22.5468 42.8257C25.6415 42.8257 27.9991 42.2681 29.6075 41.1532C31.2159 40.0319 32.0261 38.4206 32.0261 36.3069C32.0261 34.4077 31.0879 33.0229 29.2054 32.1775C27.3291 31.3259 23.3509 30.3824 17.2833 29.3469C11.4591 28.4341 7.34702 26.9577 4.95292 24.9052C2.55881 22.8528 1.35859 19.7832 1.35859 15.6782C1.35859 11.2488 3.01554 7.57275 6.31742 4.65645C9.62541 1.74627 14.4565 0.281896 20.8166 0.281896C24.6607 0.281896 28.3222 0.913046 31.8251 2.18126C35.3157 3.44335 38.0755 5.18941 40.098 7.43169L36.8753 14.2631C34.3959 12.3821 31.8006 10.9485 29.0958 9.96221C26.3909 8.9818 23.5703 8.48558 20.64 8.48558C17.9108 8.48558 15.7663 8.97568 14.1944 9.94996C12.6227 10.924 11.8369 12.4311 11.8369 14.4713C11.8369 16.3829 12.7995 17.7552 14.7185 18.5884C16.6375 19.4216 20.6947 20.3837 26.8905 21.4619C32.6353 22.4545 36.6804 24.0044 39.038 26.1183C41.3956 28.2259 42.5715 31.332 42.5715 35.4308C42.5715 40.3567 40.6768 44.1858 36.8998 46.9184C33.1165 49.6508 27.8834 51.0172 21.1882 51.0172V51.0294ZM74.6913 51.3111C67.3059 51.3111 60.3126 49.7855 57.0546 46.7345C53.7966 43.6773 52.1676 38.9596 52.1676 32.5573V0.845687H62.7497V31.6813C62.7497 35.6635 63.4539 38.494 64.8687 40.1544C66.2832 41.8208 70.6679 42.6479 74.6975 42.6479C78.7272 42.6479 83.1119 41.8147 84.5264 40.1544C85.4228 39.1024 85.6504 37.5364 85.9397 35.5454C86.1072 34.3938 86.2953 33.1 86.6454 31.6813C86.9953 30.2671 88.243 28.4467 89.5216 26.5812C91.1293 24.2352 92.7863 21.8179 92.7692 20.0467C92.7521 18.274 91.0966 15.9722 89.4977 13.7493C88.2284 11.9845 86.9949 10.2694 86.6454 8.90832C86.1433 6.95997 86.6454 0.845687 86.6454 0.845687H97.2276C97.2276 0.845687 97.3378 6.89261 97.2276 8.90832C97.1594 10.124 96.9142 11.8681 96.661 13.6708C96.3451 15.92 96.0164 18.2601 96.0026 19.777C95.9887 21.6042 96.3377 24.4531 96.6693 27.1597L96.6695 27.1599C96.9205 29.2092 97.1615 31.1768 97.2276 32.5573C97.5337 38.9474 95.5985 43.6835 92.3405 46.7345C89.0765 49.7855 82.089 51.3111 74.7036 51.3111H74.6913ZM138.593 50.461C138.593 50.461 136.084 47.5947 134.047 40.9272C133.307 38.5021 133.063 36.4549 132.838 34.5674C132.547 32.1234 132.288 29.9468 131.024 27.5635C129.996 25.6236 128.418 24.5355 126.622 23.2979C125.145 22.2803 123.522 21.1616 121.937 19.3851C118.813 15.8839 117.453 11.8272 117.453 11.8272V50.461H108.292V0.850543H122.841C122.841 0.850543 127.303 7.86964 129.289 12.1532C130.369 14.4808 130.734 16.5702 131.102 18.6758C131.502 20.9612 131.905 23.2654 133.227 25.9137C135.451 30.371 136.847 31.4876 138.494 32.8048C139.331 33.4746 140.234 34.1966 141.343 35.4361C143.199 37.5111 143.982 39.6062 143.982 39.6062V0.850332H153.083V50.461H138.593Z" fill="white"/>
</svg>
