<svg width="228" height="204" viewBox="0 0 228 204" fill="none" xmlns="http://www.w3.org/2000/svg">
<path d="M57.3751 51.3789C48.6123 54.2998 46.6849 59.5469 46.6172 62.7344C51.3985 62.7344 56.7774 62.1368 60.961 59.7462C64.3079 57.8336 69.3283 53.7696 72.3166 50.1836C67.5353 50.1836 62.754 49.5859 57.3751 51.3789Z" fill="#AAC191"/>
<path d="M33.3464 57.8555C29.5498 66.2759 32.0985 71.2509 34.3949 73.4625C37.6377 69.949 40.8466 65.5909 41.9273 60.8951C42.7918 57.1385 43.2101 50.6929 42.6016 46.0649C39.3589 49.5784 35.677 52.6867 33.3464 57.8555Z" fill="#AAC191"/>
<path d="M20.2222 72.2684C17.7569 81.1701 21.0359 85.6972 23.6434 87.5319C26.3111 83.5641 28.8164 78.7668 29.1667 73.961C29.447 70.1164 28.8754 63.6826 27.5668 59.2019C24.8991 63.1698 21.7354 66.8042 20.2222 72.2684Z" fill="#AAC191"/>
<path d="M10.2401 90.5268C9.78631 99.7523 13.978 103.451 16.9242 104.669C18.6572 100.213 20.0498 94.983 19.3381 90.2174C18.7688 86.4049 16.8007 80.2528 14.5416 76.168C12.8086 80.6241 10.5187 84.8637 10.2401 90.5268Z" fill="#AAC191"/>
<path d="M4.47198 111.123C5.7056 120.277 10.5006 123.15 13.6194 123.812C14.5121 119.115 14.9291 113.719 13.3616 109.162C12.1075 105.517 9.05215 99.8265 6.0871 96.2213C5.19447 100.919 3.71474 105.504 4.47198 111.123Z" fill="#AAC191"/>
<path d="M3.8067 131.98C8.17174 140.12 13.6698 141.129 16.8226 140.655C16.0115 135.943 14.51 130.744 11.4444 127.026C8.99181 124.052 4.13499 119.794 0.0940458 117.458C0.905116 122.17 1.12725 126.983 3.8067 131.98Z" fill="#AAC191"/>
<path d="M10.0693 152.118C15.8959 159.285 21.4856 159.236 24.4917 158.174C22.8036 153.701 20.3453 148.879 16.6315 145.809C13.6605 143.353 8.08567 140.091 3.67555 138.561C5.36365 143.034 6.49263 147.719 10.0693 152.118Z" fill="#AAC191"/>
<path d="M19.9409 170.463C27.7126 175.454 33.008 173.664 35.5327 171.717C32.5334 167.993 28.6937 164.179 24.2075 162.421C20.6186 161.014 14.3043 159.654 9.637 159.576C12.6364 163.3 15.1703 167.398 19.9409 170.463Z" fill="#AAC191"/>
<path d="M34.364 184.46C43.1707 187.246 47.8135 184.133 49.7413 181.593C45.8726 178.784 41.1691 176.106 36.3792 175.582C32.5473 175.163 26.097 175.502 21.5718 176.647C25.4406 179.457 28.9581 182.75 34.364 184.46Z" fill="#AAC191"/>
<path d="M51.4403 195.743C60.665 196.214 64.371 192.029 65.5948 189.085C61.1419 187.344 55.9147 185.942 51.1477 186.644C47.3342 187.207 41.1785 189.163 37.0895 191.415C41.5424 193.156 45.7778 195.454 51.4403 195.743Z" fill="#AAC191"/>
<path d="M48.4677 66.1747C39.2309 66.1663 35.7391 70.5314 34.6642 73.533C39.1987 75.0491 44.4896 76.1879 49.2153 75.2473C52.996 74.4947 59.0459 72.2323 63.0171 69.779C58.4826 68.2628 54.1376 66.1799 48.4677 66.1747Z" fill="#AAC191"/>
<path d="M36.437 78.1792C27.3075 79.5824 24.5238 84.4298 23.9201 87.5604C28.6331 88.3657 34.0359 88.6827 38.5624 87.0309C42.1836 85.7094 47.8168 82.549 51.3664 79.5176C46.6534 78.7123 42.0411 77.3178 36.437 78.1792Z" fill="#AAC191"/>
<path d="M27.3562 92.7391C18.7563 96.1096 17.103 101.449 17.2004 104.636C21.9752 104.389 27.316 103.513 31.3703 100.91C34.6138 98.8264 39.4171 94.508 42.2158 90.7721C37.4409 91.0195 32.6351 90.6702 27.3562 92.7391Z" fill="#AAC191"/>
<path d="M21.5861 109.771C14.0888 115.166 13.8093 120.749 14.6927 123.812C19.2576 122.39 24.2153 120.219 27.4985 116.692C30.1251 113.871 33.7094 108.498 35.4958 104.185C30.9309 105.607 26.1883 106.459 21.5861 109.771Z" fill="#AAC191"/>
<path d="M20.7407 125.556C14.2995 132.176 14.9982 137.722 16.4025 140.585C20.6493 138.388 25.1524 135.386 27.77 131.34C29.864 128.104 32.456 122.188 33.4627 117.63C29.2159 119.826 24.6946 121.492 20.7407 125.556Z" fill="#AAC191"/>
<path d="M23.7524 141.542C20.0151 149.989 22.5986 154.946 24.9106 157.141C28.1286 153.605 31.3068 149.224 32.3543 144.521C33.1924 140.758 33.5655 134.31 32.9245 129.686C29.7065 133.223 26.0465 136.357 23.7524 141.542Z" fill="#AAC191"/>
<path d="M30.3905 156.727C29.0259 165.862 32.831 169.957 35.6422 171.461C37.8077 167.198 39.7111 162.132 39.4745 157.319C39.2852 153.469 37.9356 147.153 36.0919 142.864C33.9264 147.127 31.2282 151.119 30.3905 156.727Z" fill="#AAC191"/>
<path d="M40.8578 168.469C41.9297 177.644 46.6733 180.601 49.78 181.318C50.7553 176.637 51.2675 171.249 49.7806 166.666C48.591 162.999 45.6365 157.255 42.7356 153.598C41.7602 158.279 40.1998 162.838 40.8578 168.469Z" fill="#AAC191"/>
<path d="M53.6847 178.631C57.0392 187.237 62.3759 188.9 65.5628 188.809C65.3243 184.033 64.459 178.691 61.8625 174.632C59.7854 171.385 55.4759 166.573 51.7452 163.768C51.9838 168.543 51.6255 173.348 53.6847 178.631Z" fill="#AAC191"/>
<path d="M47.7927 61.7252C23.6001 77.5175 6.09626 109.83 18.5276 145.212C30.9589 180.593 76.0002 198 99.5002 198" stroke="#E7A572" stroke-width="2" stroke-linecap="round"/>
<path d="M170.125 51.3789C178.888 54.2998 180.815 59.5469 180.883 62.7344C176.102 62.7344 170.723 62.1368 166.539 59.7462C163.192 57.8336 158.172 53.7696 155.183 50.1836C159.965 50.1836 164.746 49.5859 170.125 51.3789Z" fill="#AAC191"/>
<path d="M194.154 57.8555C197.95 66.2759 195.402 71.2509 193.105 73.4625C189.862 69.949 186.653 65.5909 185.573 60.8951C184.708 57.1385 184.29 50.6929 184.898 46.0649C188.141 49.5784 191.823 52.6867 194.154 57.8555Z" fill="#AAC191"/>
<path d="M207.278 72.2684C209.743 81.1701 206.464 85.6972 203.857 87.5319C201.189 83.5641 198.684 78.7668 198.333 73.961C198.053 70.1164 198.625 63.6826 199.933 59.2019C202.601 63.1698 205.765 66.8042 207.278 72.2684Z" fill="#AAC191"/>
<path d="M217.26 90.5268C217.714 99.7523 213.522 103.451 210.576 104.669C208.843 100.213 207.45 94.983 208.162 90.2174C208.731 86.4049 210.699 80.2528 212.958 76.168C214.691 80.6241 216.981 84.8637 217.26 90.5268Z" fill="#AAC191"/>
<path d="M223.028 111.123C221.794 120.277 216.999 123.15 213.881 123.812C212.988 119.115 212.571 113.719 214.138 109.162C215.392 105.517 218.448 99.8265 221.413 96.2213C222.306 100.919 223.785 105.504 223.028 111.123Z" fill="#AAC191"/>
<path d="M223.693 131.98C219.328 140.12 213.83 141.129 210.677 140.655C211.489 135.943 212.99 130.744 216.056 127.026C218.508 124.052 223.365 119.794 227.406 117.458C226.595 122.17 226.373 126.983 223.693 131.98Z" fill="#AAC191"/>
<path d="M217.431 152.118C211.604 159.285 206.014 159.236 203.008 158.174C204.696 153.701 207.155 148.879 210.868 145.809C213.839 143.353 219.414 140.091 223.824 138.561C222.136 143.034 221.007 147.719 217.431 152.118Z" fill="#AAC191"/>
<path d="M207.559 170.463C199.787 175.454 194.492 173.664 191.967 171.717C194.967 167.993 198.806 164.179 203.292 162.421C206.881 161.014 213.196 159.654 217.863 159.576C214.864 163.3 212.33 167.398 207.559 170.463Z" fill="#AAC191"/>
<path d="M193.136 184.46C184.329 187.246 179.686 184.133 177.759 181.593C181.627 178.784 186.331 176.106 191.121 175.582C194.953 175.163 201.403 175.502 205.928 176.647C202.059 179.457 198.542 182.75 193.136 184.46Z" fill="#AAC191"/>
<path d="M176.06 195.743C166.835 196.214 163.129 192.029 161.905 189.085C166.358 187.344 171.585 185.942 176.352 186.644C180.166 187.207 186.321 189.163 190.41 191.415C185.958 193.156 181.722 195.454 176.06 195.743Z" fill="#AAC191"/>
<path d="M179.032 66.1747C188.269 66.1663 191.761 70.5314 192.836 73.533C188.301 75.0491 183.01 76.1879 178.285 75.2473C174.504 74.4947 168.454 72.2323 164.483 69.779C169.017 68.2628 173.362 66.1799 179.032 66.1747Z" fill="#AAC191"/>
<path d="M191.063 78.1792C200.193 79.5824 202.976 84.4298 203.58 87.5604C198.867 88.3657 193.464 88.6827 188.938 87.0309C185.316 85.7094 179.683 82.549 176.134 79.5176C180.847 78.7123 185.459 77.3178 191.063 78.1792Z" fill="#AAC191"/>
<path d="M200.144 92.7391C208.744 96.1096 210.397 101.449 210.3 104.636C205.525 104.389 200.184 103.513 196.13 100.91C192.886 98.8264 188.083 94.508 185.284 90.7721C190.059 91.0195 194.865 90.6702 200.144 92.7391Z" fill="#AAC191"/>
<path d="M205.914 109.771C213.411 115.166 213.691 120.749 212.807 123.812C208.242 122.39 203.285 120.219 200.001 116.692C197.375 113.871 193.791 108.498 192.004 104.185C196.569 105.607 201.312 106.459 205.914 109.771Z" fill="#AAC191"/>
<path d="M206.759 125.556C213.201 132.176 212.502 137.722 211.097 140.585C206.851 138.388 202.348 135.386 199.73 131.34C197.636 128.104 195.044 122.188 194.037 117.63C198.284 119.826 202.805 121.492 206.759 125.556Z" fill="#AAC191"/>
<path d="M203.748 141.542C207.485 149.989 204.901 154.946 202.589 157.141C199.371 153.605 196.193 149.224 195.146 144.521C194.308 140.758 193.935 134.31 194.576 129.686C197.794 133.223 201.454 136.357 203.748 141.542Z" fill="#AAC191"/>
<path d="M197.109 156.727C198.474 165.862 194.669 169.957 191.858 171.461C189.692 167.198 187.789 162.132 188.026 157.319C188.215 153.469 189.564 147.153 191.408 142.864C193.574 147.127 196.272 151.119 197.109 156.727Z" fill="#AAC191"/>
<path d="M186.642 168.469C185.57 177.644 180.827 180.601 177.72 181.318C176.745 176.637 176.232 171.249 177.719 166.666C178.909 162.999 181.863 157.255 184.764 153.598C185.74 158.279 187.3 162.838 186.642 168.469Z" fill="#AAC191"/>
<path d="M173.815 178.631C170.461 187.237 165.124 188.9 161.937 188.809C162.176 184.033 163.041 178.691 165.637 174.632C167.715 171.385 172.024 166.573 175.755 163.768C175.516 168.543 175.874 173.348 173.815 178.631Z" fill="#AAC191"/>
<path d="M179.707 61.7252C203.9 77.5175 221.404 109.83 208.972 145.212C196.541 180.593 151.5 198 128 198" stroke="#E7A572" stroke-width="2" stroke-linecap="round"/>
<path d="M114 0L120.735 20.7295H142.532L124.898 33.541L131.634 54.2705L114 41.459L96.3664 54.2705L103.102 33.541L85.4683 20.7295H107.265L114 0Z" fill="#E7A572"/>
<path d="M114 188L115.796 193.528H121.608L116.906 196.944L118.702 202.472L114 199.056L109.298 202.472L111.094 196.944L106.392 193.528H112.204L114 188Z" fill="#E7A572"/>
</svg>
