<svg width="39" height="42" viewBox="0 0 39 42" fill="none" xmlns="http://www.w3.org/2000/svg">
<path d="M23.7799 29.3238C22.4041 29.5302 21.1552 29.7181 19.7828 29.9245C19.7828 30.3815 19.7828 30.8502 19.7828 31.319C19.7828 32.5323 19.8082 33.7457 19.7743 34.9574C19.7523 35.7375 19.7963 36.3518 20.6323 36.8189C21.5343 37.3215 21.7864 38.545 21.4378 39.5248C21.074 40.5486 20.0891 41.2391 19.0399 41.2035C17.9754 41.168 17.0244 40.4302 16.7232 39.4047C16.4304 38.4096 16.7621 37.2352 17.6776 36.7342C18.3545 36.3619 18.4425 35.9016 18.4307 35.2417C18.4002 33.4715 18.4205 31.7014 18.4205 29.9195C17.1242 29.7384 15.9295 29.5725 14.6061 29.3881C14.6061 29.7841 14.6061 30.1631 14.6061 30.5422C14.6061 32.0653 14.596 33.5883 14.6095 35.1114C14.6163 35.7781 14.332 36.1166 13.6568 36.1098C13.4588 36.1081 13.2608 36.1216 13.0645 36.1098C12.2353 36.054 11.5939 36.1284 11.0456 37.0033C10.2976 38.1947 8.49364 38.1862 7.4715 37.1878C6.45106 36.1893 6.49337 34.5157 7.56288 33.5714C8.63748 32.622 10.4076 32.7066 11.1268 33.9301C11.6785 34.8694 12.3317 34.8118 13.2422 34.6764C13.2422 32.8539 13.2472 31.0584 13.232 29.2629C13.232 29.1275 13.1288 28.9176 13.0171 28.8686C11.7682 28.3084 10.5091 27.7737 9.15193 27.1881C9.15193 28.3456 9.1587 29.4389 9.15024 30.5304C9.14178 31.5102 8.98947 31.6591 8.02149 31.6727C7.51381 31.6794 7.00443 31.698 6.49844 31.6693C5.58462 31.6151 4.87048 31.671 4.25787 32.6339C3.50312 33.8218 1.68731 33.7508 0.688868 32.7202C-0.277421 31.7234 -0.219884 30.0887 0.815788 29.1613C1.87684 28.2086 3.64696 28.2966 4.38479 29.5015C4.8434 30.2495 5.36293 30.3628 6.09568 30.3188C6.62367 30.2867 7.15505 30.3121 7.78288 30.3121C7.78288 28.9566 7.80657 27.6924 7.75919 26.4334C7.75073 26.2269 7.43766 26.0137 7.23628 25.836C5.588 24.384 3.91096 22.9642 2.29145 21.4818C1.535 20.7896 1.535 20.4072 2.28637 19.7167C3.88219 18.2495 5.50846 16.8145 7.17705 15.4302C7.62042 15.063 7.82011 14.7347 7.7998 14.1728C7.76257 13.1101 7.78965 12.044 7.78965 10.8966C6.86736 10.8966 6.05168 10.8644 5.24278 10.9186C5.03463 10.9321 4.78586 11.1792 4.65387 11.384C3.96342 12.4501 2.87021 12.9155 1.75838 12.577C0.693944 12.2487 -0.0134261 11.2723 0.00518888 10.152C0.0254962 9.03849 0.771789 8.08574 1.84808 7.79805C2.93282 7.50867 3.98034 7.99604 4.66571 9.01987C4.82986 9.26356 5.20216 9.48355 5.49323 9.50555C6.33429 9.56986 7.18382 9.52248 8.02995 9.53094C8.99455 9.54109 9.14347 9.6917 9.15024 10.68C9.1587 11.7681 9.15193 12.8579 9.15193 14.0256C10.5684 13.3893 11.8697 12.8055 13.21 12.203V6.55592C12.3825 6.40361 11.6819 6.253 11.159 7.24298C10.6631 8.18219 9.40239 8.46988 8.39548 8.11281C7.39704 7.75743 6.7269 6.83684 6.71675 5.79947C6.7049 4.73842 7.40889 3.76705 8.43441 3.4269C9.45146 3.09014 10.6581 3.41844 11.1877 4.34919C11.538 4.96518 11.9357 5.11918 12.5889 5.10903C14.6011 5.07518 14.6011 5.09887 14.6011 7.14652C14.6011 8.69157 14.6011 10.2349 14.6011 11.7969C15.9735 11.6091 17.2512 11.4347 18.5931 11.2503C18.5931 9.22802 18.6134 7.22775 18.5644 5.23087C18.5593 5.0041 18.1802 4.74688 17.9281 4.57088C17.021 3.94136 16.5946 2.86168 16.8839 1.83278C17.1852 0.773418 18.1802 0.00681772 19.2667 4.86233e-05C20.3311 -0.00672047 21.2923 0.693881 21.6325 1.72617C21.9997 2.83461 21.5478 3.96843 20.5122 4.65211C20.2871 4.79934 19.996 5.07179 19.9926 5.29348C19.952 7.26329 19.9689 9.2331 19.9689 11.2689C21.2331 11.4686 22.4447 11.6598 23.7799 11.8697C23.7799 11.0235 23.7799 10.1926 23.7799 9.36171C23.7799 8.2905 23.8019 7.2176 23.7732 6.14639C23.7529 5.38317 24.0947 5.05149 24.8393 5.08703C25.0356 5.09718 25.2353 5.07349 25.4316 5.09041C26.2168 5.16149 26.7922 5.02949 27.2965 4.2375C28.0546 3.04445 29.8315 2.99707 30.8723 3.97182C31.9367 4.96857 31.9046 6.69469 30.8029 7.64744C29.7198 8.58496 27.9565 8.48003 27.2407 7.25144C26.6873 6.30208 26.0256 6.39515 25.1439 6.54069C25.1439 8.36835 25.1338 10.1672 25.1592 11.9661C25.1608 12.1303 25.3521 12.3706 25.5145 12.4433C26.694 12.9663 27.8871 13.4553 29.2308 14.0188C29.2308 12.9527 29.2308 11.9323 29.2308 10.9135C29.2325 9.61047 29.312 9.53263 30.6269 9.52925C31.0212 9.52925 31.4172 9.51571 31.8115 9.53263C32.7372 9.57155 33.5004 9.56648 34.1333 8.56126C34.8643 7.39867 36.6412 7.45452 37.6431 8.43265C38.6398 9.40571 38.6297 11.0354 37.6227 11.9932C36.6158 12.951 34.822 12.9815 34.1147 11.8155C33.5224 10.8391 32.7998 10.8712 31.9384 10.8915C31.5221 10.9 31.1058 10.8915 30.5981 10.8915C30.5981 12.203 30.5643 13.4096 30.6252 14.6128C30.6387 14.8667 30.9789 15.1358 31.2158 15.3405C32.8759 16.7756 34.5817 18.1598 36.2063 19.6338C37.0389 20.3886 37.0406 20.7863 36.2148 21.5376C34.5919 23.0133 32.9081 24.4263 31.209 25.8123C30.7995 26.1457 30.5575 26.4215 30.5812 26.9766C30.6269 28.041 30.5947 29.1089 30.5947 30.2968C31.5373 30.2968 32.4004 30.3239 33.2601 30.2731C33.4344 30.263 33.6256 29.9804 33.7491 29.7875C34.4024 28.7636 35.4854 28.3016 36.5803 28.6046C37.638 28.8973 38.3792 29.8822 38.3809 30.9941C38.3809 32.1126 37.6634 33.0688 36.5837 33.3835C35.4989 33.7 34.3465 33.2634 33.7796 32.2006C33.5258 31.7251 33.2228 31.6557 32.7727 31.6659C31.9266 31.6845 31.0804 31.6507 30.2343 31.676C29.5066 31.6963 29.2172 31.3579 29.2274 30.6539C29.246 29.5285 29.2325 28.4032 29.2325 27.1323C28.2763 27.5638 27.4319 27.9666 26.5688 28.3287C25.1473 28.9261 25.1422 28.9142 25.1422 30.4542C25.1422 31.8351 25.1422 33.216 25.1422 34.6528C25.9731 34.7797 26.6805 34.9895 27.2068 33.9843C27.706 33.0316 28.9397 32.7303 29.9567 33.0772C30.9907 33.4292 31.6829 34.3921 31.6659 35.4532C31.649 36.4939 30.9755 37.4162 29.9787 37.7615C28.9685 38.1135 27.7416 37.8055 27.2153 36.8764C26.8227 36.1826 26.3437 36.0252 25.6516 36.1098C25.457 36.1335 25.2573 36.1149 25.0593 36.1132C23.9339 36.1047 23.7833 35.9609 23.7816 34.8507C23.7783 33.0214 23.7816 31.1921 23.7816 29.3272L23.7799 29.3238ZM27.7382 20.6001C27.6789 20.0975 27.662 19.5864 27.5554 19.0957C26.6602 14.9733 22.68 12.2606 18.2767 12.7581C14.3404 13.2015 11.1624 16.2391 10.8848 19.8234C10.5379 24.3214 13.8277 28.0478 18.5051 28.4556C23.4516 28.8855 27.6942 25.264 27.7365 20.6035L27.7382 20.6001ZM11.8342 14.3675C8.53425 15.7788 5.81477 17.9703 3.32881 20.595C5.84353 23.2367 8.5664 25.4265 11.995 26.9614C8.61379 21.6172 8.61209 19.1024 11.8342 14.3675ZM26.848 26.6483C30.0684 25.1997 32.8336 23.1571 35.24 20.6136C33.1281 18.1683 28.4202 14.8345 26.8345 14.623C29.7503 18.1514 29.9077 22.8491 26.8463 26.6483H26.848ZM20.2076 38.7345C20.2211 38.1101 19.732 37.5922 19.1076 37.6159C18.4594 37.6396 18.0651 37.9865 18.0076 38.6448C17.9551 39.2591 18.4493 39.7956 19.0602 39.8227C19.6643 39.8497 20.1957 39.3454 20.2076 38.7345ZM10.3061 5.75717C10.2993 5.12764 9.80007 4.64703 9.16547 4.68257C8.49702 4.7198 8.1518 5.12595 8.09934 5.75717C8.05026 6.35962 8.59179 6.88422 9.2027 6.88591C9.81869 6.88591 10.3128 6.38162 10.3044 5.75717H10.3061ZM30.2918 5.74532C30.2732 5.12933 29.7503 4.64026 29.1275 4.68257C28.4642 4.72996 28.1156 5.12256 28.0851 5.76901C28.0563 6.39008 28.5759 6.89268 29.1918 6.88591C29.7994 6.87745 30.3104 6.34946 30.2918 5.74532ZM8.09257 35.3804C8.07057 35.988 8.57148 36.521 9.18747 36.5143C9.85084 36.5075 10.2248 36.1403 10.2959 35.4972C10.3636 34.8795 9.87792 34.3448 9.26193 34.3126C8.6544 34.2804 8.11287 34.7746 8.09087 35.3804H8.09257ZM30.2918 35.4532C30.3121 34.8491 29.8044 34.3041 29.1952 34.3177C28.5386 34.3312 28.1562 34.6934 28.0885 35.3432C28.0225 35.966 28.5031 36.4906 29.1241 36.5193C29.7418 36.5481 30.2698 36.0658 30.2918 35.4532ZM20.3819 2.51477C20.4005 1.90047 19.9029 1.37079 19.2971 1.36233C18.693 1.35387 18.1616 1.8717 18.1802 2.48261C18.2005 3.14429 18.5745 3.51321 19.221 3.57244C19.8437 3.62829 20.3616 3.13753 20.3802 2.51477H20.3819ZM3.57927 10.1588C3.55727 9.54786 3.02251 9.06048 2.4116 9.09264C1.78715 9.12479 1.32347 9.64263 1.3827 10.2772C1.44531 10.9355 1.83284 11.2841 2.48945 11.2943C3.1122 11.3044 3.60127 10.7765 3.57927 10.1588ZM37.0101 10.1791C37.0034 9.54955 36.5025 9.05202 35.8763 9.09433C35.2214 9.14002 34.8576 9.52925 34.8085 10.1706C34.7628 10.7815 35.2874 11.2943 35.9068 11.296C36.538 11.2977 37.0152 10.8137 37.0085 10.1774L37.0101 10.1791ZM3.58096 31.0161C3.59112 30.4001 3.0902 29.8839 2.46914 29.9042C1.81085 29.9245 1.43347 30.285 1.3827 30.9416C1.33362 31.5745 1.81085 32.0839 2.4336 32.1059C3.04282 32.1262 3.57081 31.6253 3.58096 31.0161ZM35.922 29.8992C35.3009 29.8941 34.795 30.3967 34.8034 31.011C34.8119 31.6185 35.3416 32.1414 35.9474 32.1008C36.6006 32.0568 36.9712 31.6862 37.0051 31.0296C37.0389 30.395 36.5532 29.9059 35.922 29.9008V29.8992Z" fill="#E7A572"/>
<path d="M19.1122 25.1741C16.435 25.1792 14.2655 23.1096 14.2774 20.5627C14.2892 18.0564 16.4418 16.0223 19.0885 16.0189C21.7708 16.0155 23.9437 18.0818 23.9301 20.6236C23.9149 23.1231 21.7488 25.1707 19.1139 25.1741H19.1122ZM19.0411 23.8169C20.9856 23.8389 22.5678 22.392 22.5662 20.5914C22.5662 18.8535 21.0617 17.4184 19.2002 17.3829C17.2456 17.344 15.6549 18.7638 15.6363 20.561C15.6177 22.3362 17.1424 23.7949 19.0411 23.8152V23.8169Z" fill="#E7A572"/>
</svg>
