<svg width="41" height="41" viewBox="0 0 41 41" fill="none" xmlns="http://www.w3.org/2000/svg">
<path d="M19.4106 9.79727C17.9335 9.8891 16.5458 10.296 15.2372 10.99C15.1094 11.0574 14.985 11.1341 14.8548 11.1957C14.4702 11.3771 14.1052 11.2806 13.9077 10.9516C13.7066 10.618 13.7938 10.1774 14.1773 9.9821C14.9095 9.60894 15.6451 9.21719 16.4215 8.9568C23.34 6.63302 30.6769 10.9934 31.8252 18.2066C32.6085 23.1273 30.8141 27.0646 26.7824 29.9766C26.5291 30.1591 26.385 30.33 26.4419 30.6404C26.4466 30.6683 26.4419 30.6985 26.4419 30.7275C26.4419 31.9214 26.4175 31.947 25.21 32.0074C25.1693 32.0097 25.1298 32.026 25.0728 32.0411C25.0659 32.0993 25.0519 32.1539 25.0519 32.2085C25.0496 32.584 25.0519 32.9595 25.0519 33.4012C25.2948 33.4012 25.5203 33.3919 25.7446 33.4035C26.1607 33.4233 26.4338 33.6965 26.4407 34.0836C26.4477 34.4916 26.1676 34.7718 25.7283 34.788C25.5261 34.795 25.3227 34.7892 25.0508 34.7892C25.0508 35.36 25.0508 35.918 25.0508 36.476C25.0508 37.4362 24.9183 37.5675 23.9467 37.5733C23.8456 37.5733 23.7456 37.5733 23.6143 37.5733C23.3726 38.5242 22.8763 39.2996 22.043 39.8274C21.3991 40.2354 20.6925 40.3923 19.9313 40.3598C18.4809 40.2982 17.3547 39.3345 16.7283 37.5745C16.5226 37.5745 16.3064 37.578 16.0914 37.5745C15.5649 37.5663 15.3174 37.3269 15.3127 36.8061C15.3058 36.1551 15.3116 35.5041 15.3116 34.7904C15.0652 34.7904 14.8397 34.7985 14.6143 34.7892C14.1994 34.7718 13.9262 34.4998 13.9204 34.1103C13.9146 33.7197 14.1819 33.4314 14.591 33.4059C14.8072 33.3931 15.0257 33.4035 15.2767 33.4035V32.0063C15.0768 32.0063 14.8665 32.0121 14.6561 32.0063C14.1866 31.9923 13.8705 31.7342 13.9355 31.2809C14.0518 30.466 13.6601 30.0521 13.0465 29.579C9.66216 26.9704 8.13853 23.4737 8.38026 19.2261C8.48138 17.4545 9.03574 15.7944 9.93179 14.2565C10.2165 13.7671 10.7395 13.6497 11.0847 13.9961C11.3752 14.2867 11.3532 14.6099 11.1579 14.9482C10.5663 15.9723 10.1642 17.0685 9.95155 18.231C9.87949 18.6251 9.84579 19.0261 9.79117 19.4562H12.527C12.527 19.2214 12.5246 18.9947 12.527 18.7669C12.5398 17.6067 13.4474 16.7 14.598 16.6965C15.7753 16.693 16.6865 17.5963 16.6981 18.7808C16.7004 18.9959 16.6981 19.2109 16.6981 19.4806H19.485C19.485 18.3879 19.485 17.3336 19.485 16.2792C19.485 15.4945 19.6745 15.3039 20.452 15.3039C20.7995 15.3039 21.1481 15.3132 21.4956 15.3004C21.9558 15.2841 22.2778 14.9749 22.2627 14.5832C22.2476 14.2019 21.9407 13.924 21.4944 13.9112C21.0749 13.8996 20.653 13.9147 20.2335 13.9066C19.743 13.8973 19.4908 13.6439 19.4862 13.1487C19.4757 12.0618 19.4757 10.9748 19.4699 9.88794C19.4699 9.87631 19.4536 9.86469 19.4095 9.80192L19.4106 9.79727ZM19.4653 20.8651C19.3037 20.8651 19.1631 20.8651 19.0225 20.8651C18.0369 20.8651 17.0502 20.8698 16.0647 20.8628C15.5708 20.8593 15.3209 20.6047 15.3116 20.1107C15.3034 19.6899 15.3197 19.2691 15.3058 18.8494C15.2918 18.4042 15.0083 18.0973 14.6294 18.0857C14.2354 18.0741 13.9321 18.3926 13.917 18.8576C13.9053 19.2202 13.9146 19.5829 13.9135 19.9456C13.9123 20.6594 13.7031 20.864 12.9756 20.8651C11.9354 20.8651 10.8941 20.8651 9.84114 20.8651C9.83068 20.9593 9.82022 21.0139 9.82138 21.0686C9.82138 21.1697 9.82138 21.272 9.83649 21.372C10.27 24.5106 11.746 27.032 14.3842 28.8013C15.0478 29.2466 15.451 29.6894 15.3174 30.5032C15.3139 30.5253 15.3406 30.552 15.3569 30.5846H19.4525V27.8249C19.1887 27.8249 18.9574 27.8283 18.7261 27.8249C17.6011 27.8039 16.7051 26.8844 16.7016 25.751C16.6981 24.592 17.5953 23.6702 18.7447 23.6527C18.9841 23.6493 19.2247 23.6527 19.4641 23.6527V20.8651H19.4653ZM23.6364 20.8965H20.9029C20.8901 20.9558 20.8785 20.9837 20.8785 21.0116C20.8762 22.0555 20.8762 23.0994 20.8738 24.1445C20.8727 24.828 20.6553 25.0407 19.9592 25.0419C19.5966 25.0419 19.234 25.0338 18.8714 25.0442C18.4042 25.0593 18.0869 25.3569 18.0962 25.7522C18.1055 26.1323 18.4123 26.4183 18.8551 26.4334C19.2607 26.4473 19.6675 26.4334 20.0731 26.438C20.624 26.4438 20.8704 26.6845 20.8727 27.2308C20.8773 28.2166 20.8738 29.2035 20.8738 30.1893C20.8738 30.3265 20.8738 30.4637 20.8738 30.588H25.0368C25.0426 30.495 25.0624 30.423 25.0508 30.3555C24.9334 29.6557 25.2646 29.2617 25.848 28.8908C27.9283 27.5668 29.3253 25.6859 30.0877 23.3447C30.3457 22.5542 30.5386 21.7428 30.5328 20.893H27.8261C27.8586 21.5731 27.8737 22.2299 27.4449 22.7867C27.0114 23.3493 26.45 23.6551 25.7295 23.6504C24.4116 23.6423 23.7933 22.839 23.6364 20.8977V20.8965ZM30.5282 19.476C30.3492 14.253 25.7202 9.92862 20.9064 9.82981V12.5151C21.169 12.5151 21.3991 12.5116 21.6293 12.5151C22.7531 12.5349 23.6538 13.4532 23.6573 14.5832C23.6619 15.7421 22.767 16.6675 21.6211 16.6872C21.3806 16.6919 21.14 16.6872 20.9064 16.6872V19.4748C21.9954 19.4748 23.053 19.4748 24.1094 19.4748C24.8509 19.4748 25.0484 19.6771 25.0496 20.4339C25.0496 20.7814 25.0415 21.1302 25.0519 21.4778C25.067 21.9439 25.3657 22.2624 25.7597 22.2543C26.1386 22.2462 26.4256 21.9381 26.4407 21.4964C26.4547 21.1197 26.4431 20.7431 26.4442 20.3664C26.4466 19.6992 26.6627 19.4783 27.3217 19.4772C28.3781 19.476 29.4334 19.4772 30.527 19.4772L30.5282 19.476ZM16.7318 32.0202V33.3768H23.6364V32.0202H16.7318ZM16.7178 36.1516H23.6259V34.8101H16.7178V36.1516ZM22.0779 37.5722C20.9331 37.5722 19.7976 37.5722 18.6622 37.5722C18.5378 37.5722 18.4123 37.5838 18.2845 37.5896C18.446 38.3917 19.3793 38.9625 20.1812 38.9648C21.0505 38.966 21.8768 38.3719 22.0779 37.5722Z" fill="#E7A572"/>
<path d="M7.62714 12.4164C7.61552 13.0359 7.07855 13.3997 6.63107 13.1533C5.37814 12.464 4.14265 11.7422 2.9118 11.0146C2.58288 10.8205 2.51547 10.4172 2.69446 10.0987C2.87577 9.77788 3.25119 9.62678 3.58825 9.81508C4.83653 10.5125 6.07551 11.2261 7.3017 11.9607C7.47488 12.0642 7.55856 12.3164 7.62714 12.4164Z" fill="#E7A572"/>
<path d="M33.5149 13.2245C33.1069 13.207 32.8779 13.0397 32.7757 12.7119C32.6699 12.3725 32.8012 12.1052 33.0837 11.932C33.6508 11.5844 34.2308 11.2613 34.8073 10.9277C35.407 10.5802 36.0056 10.2292 36.6088 9.8886C37.0563 9.63638 37.448 9.71542 37.6642 10.0862C37.8792 10.457 37.756 10.8429 37.3132 11.1021C36.1776 11.7646 35.0374 12.419 33.8949 13.0699C33.7613 13.1466 33.6067 13.1873 33.5149 13.2245Z" fill="#E7A572"/>
<path d="M7.62686 27.9853C7.53969 28.0934 7.42114 28.3479 7.22239 28.4677C6.04617 29.1744 4.85601 29.8578 3.66119 30.5319C3.27997 30.747 2.8848 30.618 2.69186 30.2658C2.5059 29.9252 2.59539 29.544 2.95918 29.3301C4.154 28.6257 5.3523 27.9283 6.56222 27.2507C7.05619 26.9741 7.62686 27.3135 7.62686 27.9853Z" fill="#E7A572"/>
<path d="M10.5923 2.61218C10.6783 2.6796 10.92 2.78653 11.0316 2.9725C11.7383 4.14877 12.4217 5.33899 13.1005 6.5327C13.3213 6.92092 13.2155 7.31146 12.8761 7.51835C12.5193 7.73571 12.1265 7.63342 11.8824 7.21963C11.1932 6.04917 10.5109 4.87523 9.8461 3.69198C9.55089 3.16777 9.87516 2.60405 10.5923 2.61334V2.61218Z" fill="#E7A572"/>
<path d="M33.5214 27.1435C33.6109 27.1807 33.7759 27.2318 33.9224 27.3144C35.0382 27.9525 36.1528 28.5929 37.2639 29.2392C37.7451 29.5193 37.8811 29.8889 37.6649 30.2725C37.4464 30.6595 37.0524 30.7339 36.577 30.4619C35.4368 29.8087 34.299 29.1497 33.1623 28.4895C32.8473 28.307 32.6602 28.0478 32.7717 27.6642C32.867 27.3364 33.0937 27.1633 33.5214 27.1423V27.1435Z" fill="#E7A572"/>
<path d="M27.9864 7.63219C27.296 7.63568 26.9729 7.05103 27.2623 6.53147C27.7481 5.66089 28.256 4.80309 28.7546 3.94065C28.936 3.62799 29.1103 3.31183 29.3009 3.00498C29.5415 2.61793 29.9065 2.50751 30.2598 2.69696C30.6282 2.89572 30.7445 3.29556 30.5132 3.70354C29.8425 4.88446 29.1673 6.06305 28.4676 7.22654C28.3479 7.42646 28.0945 7.54618 27.9875 7.63335L27.9864 7.63219Z" fill="#E7A572"/>
<path d="M20.8699 2.78404C20.8699 3.44889 20.8733 4.11373 20.8687 4.77858C20.8652 5.26444 20.6118 5.55269 20.1946 5.56315C19.7564 5.57361 19.4844 5.27955 19.4821 4.77393C19.4786 3.44424 19.4786 2.11454 19.4821 0.78484C19.4833 0.297826 19.7378 0.0107319 20.1551 0.000271001C20.5932 -0.0101899 20.864 0.282716 20.8675 0.789489C20.8722 1.45434 20.8687 2.11919 20.8687 2.78404H20.8699Z" fill="#E7A572"/>
<path d="M2.75231 20.878C2.08749 20.878 1.42268 20.8826 0.757856 20.8757C0.282487 20.871 -0.00459346 20.5979 5.56192e-05 20.176C0.00354243 19.7575 0.292948 19.4925 0.771804 19.4902C2.11539 19.4855 3.46014 19.4855 4.80372 19.4902C5.27793 19.4925 5.56617 19.768 5.56268 20.1887C5.5592 20.6072 5.26979 20.871 4.79094 20.8745C4.11217 20.8803 3.43224 20.8757 2.75348 20.8757L2.75231 20.878Z" fill="#E7A572"/>
<path d="M37.5562 20.8757C36.9042 20.8757 36.251 20.8792 35.5989 20.8757C35.0852 20.8722 34.7911 20.6095 34.797 20.1713C34.8028 19.7517 35.091 19.4913 35.5768 19.4902C36.9111 19.4855 38.2443 19.4855 39.5785 19.4902C40.0632 19.4913 40.3526 19.7529 40.3584 20.1725C40.3642 20.6083 40.0679 20.8733 39.5565 20.8768C38.8893 20.8815 38.2222 20.8768 37.555 20.8768L37.5562 20.8757Z" fill="#E7A572"/>
<path d="M13.0113 12.3054C13.0113 12.6692 12.6929 12.997 12.3256 13.0098C11.9479 13.0237 11.5957 12.6832 11.5957 12.3043C11.5957 11.9265 11.949 11.586 12.3256 11.5999C12.6917 11.6138 13.0102 11.9416 13.0102 12.3054H13.0113Z" fill="#E7A572"/>
</svg>
