<svg width="44" height="41" viewBox="0 0 44 41" fill="none" xmlns="http://www.w3.org/2000/svg">
<path d="M0.00113374 15.5985C0.399076 14.747 1.08726 14.4375 1.99311 14.5214C2.13256 14.5339 2.27541 14.5191 2.41713 14.5146C2.44321 14.5146 2.46928 14.4987 2.52937 14.4794C2.61667 13.7901 2.36611 13.0101 2.97947 12.4148C3.57581 11.8355 4.32635 12.0192 5.09502 11.9591C5.09502 11.6371 5.09389 11.3185 5.09502 10.9999C5.10069 10.0952 5.6823 9.43871 6.58249 9.43871C9.70707 9.43871 12.8351 9.40583 15.9562 9.51921C17.8382 9.58723 19.5411 10.3537 21.0909 11.4285C21.7179 11.8638 21.7315 11.8684 22.3505 11.4364C24.3516 10.0396 26.5748 9.40583 29.0078 9.4251C31.5395 9.44551 34.0711 9.45231 36.6028 9.4183C37.6379 9.4047 38.4678 10.0543 38.3623 11.1972C38.3408 11.433 38.3589 11.6734 38.3589 11.9511C39.089 12.0362 39.8611 11.8208 40.4643 12.4024C41.0822 12.9987 40.8384 13.7742 40.9291 14.5203C41.2567 14.5203 41.5651 14.5157 41.8724 14.5203C42.8463 14.5395 43.4505 15.1518 43.4505 16.1257C43.4517 20.468 43.4494 24.8103 43.4551 29.1515C43.4551 29.5177 43.3542 29.8034 42.988 29.9112C42.6853 30.0007 42.4109 29.8975 42.2714 29.6084C42.1966 29.4531 42.1853 29.2558 42.1853 29.0767C42.1807 24.918 42.1819 20.7605 42.1819 16.6019C42.1819 15.7538 42.2635 15.8286 41.4075 15.8264C41.2556 15.8264 41.1037 15.8264 40.9064 15.8264C40.9064 16.0327 40.9064 16.1982 40.9064 16.3638C40.9064 22.3603 40.886 28.3579 40.9223 34.3544C40.9302 35.6367 40.1446 36.2115 39.0437 36.2058C34.2491 36.1786 29.4545 36.1945 24.6599 36.1945H24.0806C24.0806 36.7308 24.0806 37.2478 24.0806 37.7636C24.0783 38.5403 23.8788 38.7387 23.0954 38.7398C22.1476 38.7409 21.1998 38.7443 20.2531 38.7387C19.6103 38.7353 19.3835 38.5062 19.3779 37.8668C19.3733 37.3317 19.3779 36.7954 19.3779 36.1945H18.8167C13.9937 36.1945 9.17081 36.1922 4.34789 36.1968C3.75608 36.1968 3.19601 36.1004 2.85475 35.5732C2.68809 35.3147 2.56678 34.9746 2.56452 34.6718C2.54411 31.2921 2.55091 27.9112 2.55205 24.5314C2.55205 24.0416 2.79467 23.748 3.18694 23.7491C3.57808 23.7491 3.8207 24.0428 3.8207 24.5337C3.82183 27.8148 3.8275 31.0959 3.8139 34.3782C3.81276 34.7648 3.9216 34.8952 4.31614 34.8941C9.20936 34.8839 14.1037 34.8873 18.9969 34.8861C19.1035 34.8861 19.2101 34.8714 19.3166 34.8635L19.3529 34.7376C18.7362 34.4972 18.1364 34.1787 17.497 34.0347C16.6217 33.8374 15.7193 33.6832 14.8248 33.6673C12.1525 33.6208 9.47919 33.6492 6.80583 33.6515C6.19021 33.6515 5.63468 33.4939 5.32857 32.9236C5.18232 32.6515 5.10636 32.3091 5.10522 31.9996C5.09275 25.9464 5.09615 19.892 5.09615 13.8389V13.2833C4.80025 13.2833 4.53495 13.3015 4.27306 13.2788C3.91593 13.2482 3.81163 13.3956 3.8139 13.7436C3.82637 15.7663 3.8207 17.7889 3.81957 19.8116C3.81957 20.3206 3.8241 20.8297 3.81843 21.3387C3.81276 21.8002 3.57014 22.0609 3.16767 22.0519C2.78786 22.0439 2.55318 21.7866 2.55205 21.3467C2.54751 19.6778 2.54978 18.0089 2.54978 16.34C2.54978 16.1869 2.54978 16.035 2.54978 15.8309C2.19492 15.8309 1.8718 15.8071 1.55662 15.8445C1.45345 15.857 1.34575 16.0123 1.28339 16.1268C1.24144 16.2028 1.27432 16.3207 1.27432 16.4193C1.27432 23.2219 1.27432 30.0257 1.27432 36.8283C1.27432 37.2311 1.47802 37.4329 1.88541 37.4337C7.10401 37.4337 12.3226 37.4337 17.5423 37.4337C18.3405 37.4337 18.4743 37.5493 18.5808 38.3237C18.6693 38.9654 19.2101 39.5187 19.862 39.5323C21.1057 39.5595 22.3505 39.5606 23.5942 39.5323C24.2631 39.5164 24.7971 38.953 24.8799 38.2795C24.9649 37.5856 25.1327 37.4337 25.8311 37.4337C31.078 37.4337 36.325 37.4337 41.5731 37.4337C41.9797 37.4337 42.183 37.2315 42.183 36.8271C42.183 35.3283 42.1864 33.8283 42.1807 32.3295C42.1796 31.9859 42.3293 31.7059 42.6501 31.6742C42.8735 31.6515 43.1342 31.8068 43.3428 31.9383C43.4279 31.9916 43.446 32.1934 43.4471 32.3283C43.4539 33.9836 43.4585 35.6378 43.4471 37.2931C43.4415 38.0482 42.8893 38.6162 42.0889 38.7228C41.9075 38.7466 41.7216 38.7421 41.5379 38.7421C36.5597 38.7421 31.5814 38.7455 26.602 38.7375C26.2733 38.7375 26.0953 38.7965 25.9513 39.1514C25.5171 40.2182 24.6645 40.8033 23.5251 40.8418C22.2406 40.8849 20.9504 40.886 19.6692 40.7999C18.591 40.7273 17.8462 40.072 17.4596 39.0709C17.3349 38.7477 17.1512 38.7409 16.8848 38.7409C11.9349 38.7455 6.98496 38.7319 2.03393 38.7545C1.12127 38.7591 0.403611 38.538 0 37.6616V15.5985H0.00113374ZM32.4283 21.4895C32.6596 21.7322 32.8421 21.9079 33.0065 22.0995C33.2219 22.3489 33.4203 22.4498 33.7933 22.3376C34.613 22.0904 35.4758 22.4929 35.8998 23.2242C36.3171 23.943 36.2196 24.8568 35.6618 25.4691C35.0824 26.104 34.1822 26.2808 33.4158 25.9101C32.6539 25.5416 32.1664 24.7026 32.3705 23.8818C32.4816 23.4362 32.3025 23.2446 32.0565 22.9521C31.5383 22.3364 30.9352 22.1018 30.1348 22.1845C29.4693 22.2537 28.7913 22.1981 28.1179 22.1981V24.7672C28.7505 24.7672 29.357 24.7809 29.9624 24.7616C30.3094 24.7502 30.5486 24.8784 30.7549 25.1493C31.2186 25.7559 31.705 26.3455 32.1744 26.9464C32.4998 27.3636 32.7719 27.8681 33.4464 27.5971C33.4578 27.5926 33.4748 27.5971 33.4884 27.5994C34.3704 27.6663 35.0677 28.257 35.2695 29.1062C35.4486 29.8647 35.1017 30.6991 34.426 31.1277C33.7151 31.5801 32.8206 31.5268 32.1744 30.9939C31.5213 30.4565 31.3025 29.5824 31.646 28.7694C31.7379 28.5529 31.7129 28.4214 31.569 28.2456C31.0304 27.5903 30.5112 26.9191 29.9806 26.2582C29.9137 26.1743 29.8196 26.0552 29.7346 26.0518C29.1904 26.0325 28.6462 26.0427 28.1076 26.0427C28.0328 27.3817 27.4852 27.9044 26.2132 27.9044C25.2087 27.9044 24.2053 27.9044 23.2008 27.9044C22.9367 27.9044 22.6736 27.9044 22.4185 27.9044V34.2807C22.5603 34.2002 22.6589 34.1492 22.7519 34.0902C24.0783 33.241 25.5091 32.6231 27.0793 32.4916C28.5691 32.3658 30.0713 32.3839 31.5678 32.3522C32.0689 32.342 32.3512 32.5857 32.3626 32.9803C32.3739 33.3918 32.0814 33.6481 31.5633 33.6549C30.8989 33.6639 30.2334 33.6605 29.569 33.656C28.4795 33.6481 27.3923 33.6378 26.3277 33.927C25.559 34.1356 24.8096 34.3861 24.1362 34.8362C24.2779 34.8805 24.4128 34.8941 24.5466 34.8941C29.3831 34.8941 34.2208 34.8941 39.0573 34.8941C39.6344 34.8941 39.6355 34.8929 39.6355 34.2977C39.6355 27.4951 39.6355 20.6914 39.6355 13.8887C39.6355 13.7754 39.6684 13.6461 39.6242 13.5532C39.5743 13.4488 39.4598 13.3128 39.3623 13.3026C39.0437 13.2708 38.7206 13.2913 38.3589 13.2913V13.8321C38.3589 19.8852 38.3589 25.9384 38.3589 31.9928C38.3589 33.0233 37.7705 33.6333 36.7456 33.6537C36.1096 33.6662 35.4724 33.6639 34.8364 33.6537C34.3602 33.6458 34.0507 33.3725 34.053 32.995C34.0552 32.6152 34.3648 32.3556 34.8432 32.3499C35.4089 32.3431 35.9758 32.3238 36.5404 32.3556C36.9655 32.3794 37.0982 32.241 37.0982 31.8068C37.0857 24.9611 37.0869 18.1154 37.0971 11.2709C37.0971 10.8707 36.9939 10.7323 36.5755 10.7346C34.0722 10.7516 31.5678 10.7879 29.0657 10.7301C26.6599 10.6745 24.5398 11.4001 22.6249 12.8105C22.5229 12.8854 22.3981 13.0169 22.3947 13.1257C22.3732 13.798 22.3845 14.4715 22.3845 15.1642C22.5194 15.171 22.6022 15.1778 22.685 15.179C22.8267 15.1812 22.9684 15.1778 23.109 15.179C23.5727 15.1869 23.8448 15.4205 23.8471 15.8093C23.8493 16.1994 23.5761 16.4465 23.1169 16.4465C21.1646 16.4499 19.2135 16.4465 17.2612 16.4488C16.6886 16.4488 16.6353 16.5032 16.6353 17.0848C16.6353 20.0553 16.6353 23.0246 16.6353 25.9951C16.6353 26.5915 16.6818 26.6357 17.2986 26.6357C20.2542 26.6357 23.2099 26.6357 26.1667 26.6357C26.7766 26.6357 26.822 26.5915 26.822 25.9883C26.822 23.0893 26.822 20.1891 26.822 17.29C26.822 16.544 26.822 16.5474 26.1055 16.4431C25.7892 16.3966 25.5941 16.2073 25.5556 15.8887C25.5137 15.5452 25.6814 15.2697 26 15.2085C27.1655 14.9828 27.9943 15.6552 28.0906 16.6336C28.1008 16.7413 28.1099 16.849 28.1235 16.9873C28.6416 16.9873 29.1348 17.0021 29.6257 16.9771C29.755 16.9703 29.9114 16.8683 29.9987 16.7628C30.5373 16.1075 31.0678 15.4454 31.5769 14.7674C31.6619 14.654 31.6528 14.45 31.6449 14.2901C31.6245 13.8751 31.4817 13.4409 31.5644 13.0532C31.7832 12.035 32.8093 11.4262 33.7933 11.6462C34.8114 11.874 35.4804 12.8763 35.2853 13.8808C35.0892 14.8921 34.121 15.5815 33.0825 15.4057C32.8251 15.3626 32.7016 15.4239 32.5587 15.6087C31.9873 16.3456 31.391 17.0644 30.8286 17.8093C30.5656 18.1585 30.2572 18.3206 29.8196 18.3036C29.2595 18.281 28.6972 18.298 28.1213 18.298V20.8932C28.7414 20.8932 29.3412 20.8331 29.9239 20.9068C30.8796 21.0269 31.6109 20.7367 32.2016 19.9771C32.3784 19.7492 32.4873 19.6018 32.3943 19.2911C32.1619 18.5111 32.5496 17.6472 33.265 17.2141C33.9827 16.7799 34.9226 16.8774 35.5461 17.4499C36.1549 18.0089 36.3329 18.9136 35.9826 19.6653C35.6323 20.4147 34.7786 20.9601 34.0133 20.7344C33.4396 20.5655 33.1528 20.7775 32.8353 21.1403C32.7254 21.2662 32.5825 21.3648 32.4329 21.4941L32.4283 21.4895ZM21.0694 15.1756C21.0694 14.459 21.0762 13.7844 21.0615 13.1098C21.0592 13.0203 20.9685 12.9092 20.888 12.8491C19.0786 11.5169 17.0888 10.7165 14.8021 10.7346C12.1718 10.7561 9.54154 10.7482 6.91127 10.7301C6.48725 10.7267 6.35574 10.8412 6.35574 11.2765C6.36821 18.1211 6.36821 24.9657 6.35574 31.8102C6.35574 32.2535 6.50539 32.3556 6.91921 32.3533C9.52114 32.3374 12.1231 32.3408 14.725 32.3465C16.8519 32.351 18.8246 32.9009 20.6272 34.0392C20.7531 34.1186 20.8835 34.1923 21.0433 34.2875V27.9021C20.8619 27.9021 20.7089 27.9021 20.5558 27.9021C19.3541 27.9021 18.1523 27.9067 16.9494 27.8998C16.1932 27.8964 15.5753 27.418 15.4018 26.6969C15.3531 26.4962 15.3588 26.282 15.3361 26.0348C14.8066 26.0348 14.2862 26.0235 13.767 26.0439C13.6672 26.0484 13.5504 26.1595 13.4779 26.2491C12.936 26.9191 12.394 27.5903 11.8759 28.2797C11.792 28.3919 11.7682 28.6164 11.8181 28.7513C12.1389 29.6141 11.9145 30.5109 11.2161 31.037C10.5098 31.5687 9.54495 31.5574 8.8579 31.0086C8.18899 30.4746 7.95885 29.5393 8.3035 28.7513C8.65836 27.9373 9.47012 27.4906 10.3726 27.6391C10.6197 27.6799 10.7569 27.6062 10.9032 27.4169C11.4904 26.6561 12.1049 25.9158 12.6899 25.1539C12.9099 24.8682 13.1616 24.7457 13.521 24.7582C14.123 24.7786 14.7273 24.7638 15.3383 24.7638V22.1879C14.7261 22.1879 14.1287 22.2457 13.547 22.1743C12.5788 22.0553 11.8294 22.3444 11.2285 23.1131C11.0664 23.3206 10.9837 23.4566 11.0574 23.7333C11.4133 25.0632 10.1934 26.3409 8.8613 26.0586C7.76498 25.8262 7.08247 24.7888 7.33982 23.748C7.61419 22.6414 8.68897 22.0417 9.80571 22.3614C9.92135 22.3943 10.1027 22.4022 10.1776 22.3364C10.4599 22.087 10.7104 21.8013 10.9825 21.519C10.7422 21.273 10.4962 21.0417 10.2751 20.7889C10.1198 20.612 9.97577 20.6086 9.75809 20.6732C8.91912 20.9226 8.07449 20.6052 7.60739 19.8966C7.14029 19.1891 7.19811 18.264 7.7491 17.6109C8.28423 16.9771 9.18102 16.7594 9.94402 17.0803C10.724 17.408 11.2739 18.2039 11.08 19.0474C10.9428 19.6449 11.1934 19.9227 11.5517 20.2424C11.7206 20.3932 11.8702 20.5644 12.0392 20.714C12.1197 20.7843 12.2251 20.8739 12.3192 20.875C13.3192 20.8864 14.3191 20.8818 15.3338 20.8818V18.29C14.7284 18.29 14.1502 18.2787 13.5731 18.2946C13.1842 18.3059 12.9031 18.1596 12.6673 17.8524C12.0902 17.1018 11.4893 16.3694 10.9111 15.6189C10.758 15.4205 10.6265 15.3524 10.3533 15.3989C9.46672 15.5508 8.63682 15.0667 8.29443 14.2572C7.95431 13.4534 8.18786 12.5566 8.87717 12.009C9.55061 11.475 10.5166 11.4636 11.2002 11.9817C11.9099 12.5192 12.1593 13.4103 11.8079 14.2538C11.7195 14.4647 11.7285 14.603 11.8748 14.781C12.4042 15.4261 12.9133 16.086 13.4359 16.7356C13.5108 16.8286 13.6196 16.9567 13.7171 16.9613C14.2602 16.9828 14.8055 16.9715 15.3429 16.9715C15.4177 15.7152 15.9902 15.171 17.1739 15.171C17.6262 15.171 18.0786 15.171 18.531 15.171C19.362 15.171 20.1919 15.171 21.066 15.171L21.0694 15.1756ZM22.7439 37.4133V35.6503H20.7179V37.4133H22.7439ZM10.69 13.5384C10.7025 13.2153 10.4168 12.9058 10.088 12.8876C9.76489 12.8684 9.45311 13.1473 9.42704 13.4783C9.40096 13.8139 9.7082 14.1472 10.0483 14.1529C10.3703 14.1586 10.6776 13.8638 10.69 13.5384ZM33.3886 14.1529C33.7106 14.1563 34.0167 13.8615 34.028 13.5361C34.0382 13.2142 33.7503 12.9046 33.4226 12.8876C33.0859 12.8695 32.7594 13.1847 32.7616 13.5237C32.7639 13.8423 33.07 14.1495 33.3886 14.1529ZM9.84085 18.841C9.83405 18.5111 9.54154 18.2265 9.20936 18.2265C8.85903 18.2265 8.55633 18.5395 8.57673 18.8819C8.59601 19.2107 8.90325 19.493 9.22863 19.4805C9.55742 19.468 9.84765 19.1653 9.84085 18.841ZM34.2423 19.4816C34.5677 19.4816 34.8704 19.1868 34.8772 18.8626C34.884 18.5361 34.5983 18.239 34.265 18.2277C33.9158 18.2152 33.6029 18.5168 33.6097 18.8615C33.6154 19.1868 33.9169 19.4828 34.2423 19.4828V19.4816ZM9.84085 24.1652C9.82951 23.8364 9.53814 23.5632 9.20142 23.5666C8.84883 23.57 8.55292 23.8806 8.57787 24.2219C8.60281 24.5541 8.89872 24.8137 9.2377 24.8001C9.57329 24.7854 9.85332 24.4917 9.84085 24.1652ZM34.2638 23.5677C33.926 23.5587 33.6324 23.8217 33.6131 24.1539C33.5927 24.4951 33.8942 24.8047 34.2457 24.8035C34.5802 24.8035 34.8715 24.5212 34.8772 24.1936C34.8829 23.8659 34.6006 23.5779 34.2638 23.5689V23.5677ZM9.4259 29.4837C9.4055 29.808 9.68099 30.1084 10.0143 30.1277C10.359 30.147 10.6537 29.9032 10.6878 29.571C10.7206 29.249 10.4531 28.9361 10.122 28.9078C9.76036 28.8772 9.44744 29.1368 9.4259 29.4849V29.4837ZM34.028 29.5053C34.0212 29.1765 33.7344 28.9032 33.3954 28.9032C33.0564 28.9032 32.7707 29.1753 32.7639 29.5053C32.7571 29.8499 33.0587 30.1379 33.4169 30.1277C33.7537 30.1186 34.0348 29.8329 34.028 29.5053Z" fill="#E7A572"/>
<path d="M0 4.47669C0.229045 4.17166 0.530658 4.05941 0.912778 4.07415C1.47632 4.09569 2.04099 4.07415 2.60453 4.08208C3.17601 4.09002 3.39145 4.3134 3.39372 4.88377C3.39599 5.51763 3.39939 6.15262 3.39258 6.78648C3.38805 7.22871 3.17261 7.48385 2.73153 7.49972C2.04213 7.52467 1.34819 7.53827 0.661055 7.48725C0.43201 7.47024 0.219974 7.24005 0 7.10738V4.47669ZM2.09542 6.1787V5.42238H1.29376V6.1787H2.09542Z" fill="#E7A572"/>
<path d="M15.614 6.01656C15.614 6.62426 15.6174 7.23196 15.614 7.83966C15.6106 8.33852 15.3974 8.60155 14.9167 8.60835C13.6594 8.62536 12.4009 8.62536 11.1425 8.60835C10.6595 8.60155 10.4441 8.34079 10.443 7.84193C10.4396 6.61179 10.4396 5.38165 10.443 4.15265C10.4441 3.65946 10.6686 3.41343 11.1606 3.40889C12.4043 3.39756 13.6481 3.39756 14.8929 3.40889C15.3861 3.41343 15.6106 3.65946 15.614 4.15038C15.6185 4.77282 15.6151 5.39412 15.6151 6.01656H15.614ZM14.3192 7.28638V4.74221H11.7411V7.28638H14.3192Z" fill="#E7A572"/>
<path d="M27.8386 5.99382C27.8386 5.37139 27.8341 4.75008 27.8398 4.12764C27.8443 3.66053 28.0676 3.4111 28.537 3.40657C29.7955 3.39296 31.0528 3.39296 32.3112 3.40657C32.7806 3.4111 33.0073 3.66053 33.0096 4.12764C33.0141 5.37139 33.0141 6.61513 33.0096 7.86001C33.0085 8.33279 32.7931 8.59809 32.3328 8.60489C31.0607 8.62417 29.7887 8.62417 28.5166 8.60489C28.0552 8.59809 27.8432 8.33392 27.8398 7.86114C27.8352 7.2387 27.8386 6.6174 27.8386 5.99496V5.99382ZM29.1311 4.72967V7.27725H31.7126V4.72967H29.1311Z" fill="#E7A572"/>
<path d="M8.65777 2.12823C8.65777 2.59421 8.66117 3.06132 8.65777 3.5273C8.65323 4.00121 8.44349 4.26425 7.98319 4.27445C7.02292 4.29599 6.06037 4.29599 5.1001 4.27445C4.63753 4.26425 4.42212 4.00348 4.41985 3.5341C4.41532 2.60101 4.41419 1.66792 4.41985 0.735961C4.42212 0.266581 4.64547 0.0194197 5.1137 0.0114833C6.06037 -0.00438942 7.00818 -0.00325565 7.95485 0.0114833C8.44009 0.0194197 8.65323 0.268849 8.65777 0.771108C8.66117 1.22348 8.65777 1.67585 8.65777 2.12823ZM5.70551 2.95588H7.36417V1.34366H5.70551V2.95475V2.95588Z" fill="#E7A572"/>
<path d="M39.0361 2.14501C39.0361 2.61099 39.0406 3.0781 39.035 3.54408C39.0293 4.01119 38.8116 4.26969 38.3468 4.27876C37.3865 4.29804 36.424 4.29804 35.4637 4.27649C35.0204 4.26629 34.8005 4.00666 34.7982 3.56562C34.7925 2.61892 34.7925 1.6711 34.7982 0.724399C34.8005 0.278828 35.0227 0.0237308 35.4637 0.0169282C36.4387 -7.83652e-05 37.4149 -0.00121213 38.3887 0.0191957C38.8082 0.0282658 39.0259 0.283364 39.0338 0.703991C39.0418 1.18471 39.0361 1.66543 39.0361 2.14614V2.14501ZM36.0907 2.94999H37.7357V1.3389H36.0907V2.94999Z" fill="#E7A572"/>
<path d="M19.6094 6.54551C19.6094 6.07953 19.6049 5.61242 19.6106 5.14644C19.6162 4.69406 19.8271 4.43783 20.2659 4.42876C21.2409 4.40949 22.2159 4.40949 23.1909 4.42876C23.6297 4.43783 23.844 4.6952 23.8474 5.14644C23.853 6.07953 23.8519 7.01262 23.8474 7.94458C23.8451 8.41736 23.6308 8.67926 23.1705 8.68946C22.2102 8.711 21.2477 8.711 20.2874 8.68946C19.826 8.67926 19.6151 8.41849 19.6094 7.94571C19.6049 7.47973 19.6094 7.01262 19.6094 6.54664V6.54551ZM22.5447 7.37316V5.753H20.9064V7.37316H22.5447Z" fill="#E7A572"/>
<path d="M19.6942 1.74087C19.6942 2.0663 19.6988 2.3906 19.6931 2.71604C19.684 3.15827 19.4708 3.41226 19.0275 3.42814C18.3506 3.45309 17.6702 3.45195 16.9933 3.43041C16.5284 3.41567 16.3084 3.1628 16.305 2.69563C16.2994 2.04589 16.2994 1.39502 16.305 0.745283C16.3084 0.272438 16.5273 0.0252439 16.9922 0.0127707C17.6555 -0.00537198 18.3211 -0.00310414 18.9844 0.0127707C19.4731 0.02411 19.6885 0.266769 19.6954 0.765694C19.6988 1.09113 19.6954 1.41543 19.6954 1.74087H19.6942ZM17.5977 1.33946V2.09918H18.3914V1.33946H17.5977Z" fill="#E7A572"/>
<path d="M27.1602 1.73873C27.1602 2.06417 27.1647 2.38847 27.1591 2.7139C27.15 3.15613 26.9368 3.41126 26.4935 3.42714C25.8165 3.45208 25.1362 3.45095 24.4593 3.42941C23.9933 3.41466 23.7744 3.1618 23.7699 2.69576C23.7642 2.04602 23.7642 1.39515 23.7699 0.745415C23.7744 0.256696 24.0001 0.02084 24.4978 0.0106348C25.1475 -0.00297229 25.7984 -0.00410621 26.4481 0.0106348C26.9368 0.021974 27.1534 0.264633 27.1591 0.762424C27.1625 1.08786 27.1591 1.41216 27.1591 1.7376L27.1602 1.73873ZM25.8721 1.34979H25.0602V2.10158H25.8721V1.34979Z" fill="#E7A572"/>
<path d="M43.4512 5.82074C43.4512 6.13143 43.4546 6.44212 43.4512 6.75395C43.4444 7.24381 43.2256 7.4944 42.7369 7.50801C42.0735 7.52615 41.4079 7.52842 40.7446 7.50574C40.282 7.48987 40.0654 7.23587 40.0609 6.76643C40.0552 6.11669 40.0552 5.46582 40.0609 4.81608C40.0654 4.34551 40.2854 4.10058 40.7526 4.08924C41.4159 4.07223 42.0815 4.07336 42.7448 4.08924C43.2301 4.10058 43.4444 4.34664 43.4501 4.8467C43.4535 5.17213 43.4501 5.49643 43.4501 5.82187L43.4512 5.82074ZM42.154 6.18132V5.425H41.3501V6.18132H42.154Z" fill="#E7A572"/>
<path d="M23.2217 24.253C23.0347 24.4367 22.8771 24.6782 22.6549 24.7881C22.3646 24.931 22.0948 24.7609 21.9429 24.4934C21.8182 24.2745 21.7331 24.0296 21.6606 23.7881C21.5914 23.558 21.4645 23.49 21.2298 23.4968C20.6504 23.5138 20.07 23.5115 19.4906 23.4968C19.2707 23.4911 19.1528 23.5614 19.0927 23.7734C19.0394 23.9627 18.9612 24.1453 18.8841 24.3278C18.7083 24.7416 18.4011 24.9106 18.0587 24.7904C17.671 24.6532 17.5202 24.2995 17.688 23.855C18.256 22.3505 18.833 20.8506 19.4067 19.3483C19.4872 19.1374 19.5178 18.8789 19.6618 18.7281C19.8602 18.5207 20.1414 18.2792 20.3942 18.2701C20.6266 18.2622 21.0008 18.4901 21.0869 18.7043C21.7887 20.4583 22.4383 22.2338 23.1027 24.0024C23.122 24.0546 23.131 24.1113 23.1458 24.1657L23.2229 24.2519L23.2217 24.253ZM20.4316 20.541L20.3341 20.5297C20.1266 21.0796 19.9192 21.6283 19.7072 22.1918H21.054C20.8386 21.6181 20.6357 21.0796 20.4328 20.541H20.4316Z" fill="#E7A572"/>
<path d="M25.3587 21.5285C25.3587 22.3482 25.3621 23.1668 25.3576 23.9865C25.3542 24.5046 25.1104 24.8187 24.7193 24.8289C24.3146 24.8402 24.0515 24.5148 24.0504 23.9752C24.047 22.3369 24.047 20.6974 24.0504 19.0591C24.0515 18.5818 24.2635 18.2938 24.6241 18.2428C25.0277 18.185 25.3497 18.5183 25.3553 19.0285C25.3644 19.8618 25.3576 20.6952 25.3576 21.5285H25.3587Z" fill="#E7A572"/>
</svg>
