<svg width="37" height="41" viewBox="0 0 37 41" fill="none" xmlns="http://www.w3.org/2000/svg">
<path d="M9.43666 0C9.75982 0.204525 9.86365 0.498067 9.84034 0.873206C9.81597 1.26742 9.84352 1.66481 9.83081 2.06009C9.81809 2.46278 9.55956 2.70652 9.18237 2.69804C8.82636 2.68956 8.57843 2.44583 8.56995 2.06327C8.5583 1.58851 8.52651 1.10846 8.58479 0.641128C8.61233 0.414349 8.82954 0.213003 8.96092 0H9.43666Z" fill="#E7A572"/>
<path d="M10.6079 37.4717C9.80798 37.5533 9.04941 37.6614 8.28765 37.6984C7.77805 37.7228 7.25362 37.6984 6.75355 37.6041C5.26077 37.3212 4.56789 36.2371 4.88149 34.7524C4.88679 34.727 4.89632 34.7015 4.9048 34.6772C5.06477 34.2278 5.08279 33.8516 4.67171 33.4617C4.32421 33.1321 4.28183 32.6276 4.49796 32.1677C4.5859 31.9823 4.56577 31.8615 4.44393 31.7142C4.36129 31.6145 4.25958 31.4884 4.25747 31.3719C4.24581 30.8028 3.88983 30.6301 3.41308 30.4531C2.65874 30.1733 2.34196 29.4251 2.60047 28.624C2.74032 28.1927 2.97234 27.7826 3.21072 27.3926C3.49995 26.921 3.84957 26.4865 4.15576 26.0245C4.8158 25.0305 5.15377 23.9485 5.12199 22.7393C5.07325 20.8943 5.4822 19.1521 6.40605 17.5403C6.45797 17.4502 6.46856 17.322 6.45797 17.215C6.40287 16.6681 6.28209 16.1224 6.28315 15.5756C6.28315 14.7649 6.04901 14.0771 5.49386 13.4879C5.18661 13.1615 4.88679 12.8234 4.61556 12.4663C2.1894 9.27123 4.0371 4.46324 7.99312 3.66208C11.2086 3.01035 14.2281 5.03867 14.8012 8.26342C15.029 9.54676 14.8447 10.7866 14.1338 12.0117C15.9497 11.5666 17.7116 11.467 19.5222 11.6503C19.4713 11.5242 19.4364 11.4288 19.3961 11.3356C19.1959 10.8704 19.2827 10.4528 19.6239 10.0936C19.9788 9.71949 20.3443 9.356 20.7162 8.99994C21.1103 8.62267 21.5648 8.50186 22.0161 8.80495C22.6984 9.26487 23.2727 9.16737 24.0016 8.86111C24.6616 8.58346 25.0441 8.26025 25.2094 7.56506C25.363 6.91439 25.7592 6.68125 26.4373 6.67807C26.8865 6.67595 27.3357 6.67277 27.7849 6.67913C28.3401 6.68761 28.7808 6.9324 28.8857 7.46439C29.0446 8.27296 29.5235 8.61313 30.2513 8.91728C30.9146 9.19387 31.4125 9.23096 32.0185 8.84839C32.5768 8.49551 33.007 8.60148 33.4816 9.06352C33.8228 9.39521 34.1618 9.72903 34.4881 10.0756C34.8716 10.4825 34.9808 10.952 34.6778 11.4172C34.2614 12.0573 34.2921 12.5945 34.6036 13.3003C34.9045 13.9807 35.2128 14.4321 35.9724 14.5921C36.5657 14.7172 36.7956 15.123 36.7988 15.7345C36.802 16.223 36.8041 16.7126 36.7977 17.2022C36.7914 17.7183 36.5562 18.1369 36.0508 18.2418C35.2414 18.4103 34.8685 18.8734 34.5686 19.6311C34.3091 20.286 34.2667 20.7746 34.6375 21.3701C34.9935 21.9413 34.8854 22.3832 34.4097 22.8697C34.0961 23.1908 33.7804 23.5108 33.4562 23.8224C33.0133 24.2484 32.5652 24.3596 32.0556 24.0343C31.4284 23.6337 30.9082 23.6719 30.2153 23.9591C29.4875 24.2611 29.1696 24.6807 28.8645 25.3833C28.3803 26.495 27.6599 27.5049 27.0147 28.5424C26.7011 29.0468 26.3451 29.5248 25.9881 29.9995C24.4646 32.0268 24.1563 34.2427 24.9477 36.6302C25.1172 37.1432 25.2994 37.6518 25.488 38.1584C25.9828 39.4873 25.2136 40.6201 23.8056 40.6212C20.1579 40.6233 16.5112 40.6222 12.8635 40.6212C11.8676 40.6212 11.2594 40.1379 11.0232 39.1693C10.8865 38.6077 10.7456 38.046 10.6047 37.4748L10.6079 37.4717ZM19.5953 12.9803C17.7063 12.6253 15.1349 12.9262 13.033 13.6998C12.6261 13.8493 12.356 14.0866 12.2956 14.4862C12.2066 15.069 12.1589 15.6603 12.143 16.2506C12.1102 17.4449 11.359 18.4718 10.1851 18.7229C9.24964 18.9222 8.29719 18.937 7.41042 18.3965C7.3352 18.5428 7.26633 18.6689 7.20489 18.7982C6.60735 20.0656 6.37109 21.4019 6.41453 22.7976C6.45267 24.0152 6.16344 25.1587 5.53729 26.2015C5.14317 26.8564 4.68761 27.4742 4.2723 28.1164C4.1155 28.358 3.98095 28.6155 3.85805 28.8762C3.73621 29.1337 3.81885 29.3202 4.11232 29.3647C4.45135 29.4156 4.79143 29.458 5.13258 29.4834C5.44406 29.5067 5.70575 29.5894 5.82759 29.9084C5.94307 30.2093 5.83288 30.4531 5.61252 30.6555C5.38579 30.8632 5.45572 31.0169 5.68456 31.1493C5.77567 31.2013 5.87738 31.2352 5.96955 31.285C6.4622 31.5488 6.48233 32.1296 6.00981 32.4337C5.90387 32.5026 5.79474 32.5672 5.5998 32.687C5.82653 32.8322 5.97909 32.9413 6.14225 33.0314C6.49928 33.2275 6.62112 33.5051 6.49505 33.8908C6.40923 34.1537 6.29269 34.4069 6.21747 34.6729C5.8795 35.8725 6.26514 36.4437 7.5206 36.4109C8.6235 36.3812 9.72322 36.2148 10.8208 36.0845C11.3643 36.0198 11.608 36.1512 11.7383 36.6832C11.9047 37.3615 12.0646 38.0418 12.2288 38.72C12.3687 39.2986 12.4407 39.3537 13.0372 39.3537C16.5652 39.3537 20.0932 39.3537 23.6212 39.3537C24.3554 39.3537 24.4985 39.1429 24.2272 38.4615C23.7272 37.2057 23.3511 35.917 23.2568 34.5627C23.1339 32.794 23.6562 31.2002 24.6277 29.742C25.2645 28.7861 25.9245 27.8461 26.5655 26.8935C26.7074 26.6826 26.8155 26.4473 26.9617 26.1803C26.7212 26.1803 26.5506 26.1824 26.3801 26.1803C25.756 26.1728 25.3545 25.9355 25.2168 25.3198C25.0557 24.6034 24.6584 24.2802 23.9867 23.9951C23.2674 23.6899 22.7059 23.6136 22.0384 24.0523C21.5712 24.3586 21.1103 24.241 20.7035 23.851C20.3602 23.5214 20.0265 23.1823 19.6938 22.8421C19.2425 22.3811 19.1281 21.9456 19.4671 21.4125C19.8697 20.7809 19.8241 20.2606 19.5317 19.5718C19.2329 18.866 18.9003 18.4146 18.1279 18.2662C17.5865 18.1623 17.3312 17.7257 17.3132 17.1832C17.2962 16.6819 17.2952 16.1785 17.3132 15.6762C17.3333 15.1347 17.5982 14.7553 18.13 14.5836C18.4055 14.4946 18.6841 14.4099 18.9522 14.3018C19.0475 14.2636 19.1577 14.1788 19.1948 14.0877C19.3389 13.7359 19.4565 13.3734 19.5953 12.9803ZM20.6283 10.9265C20.7808 11.2264 20.9334 11.5327 21.0912 11.8347C21.2904 12.2162 21.2629 12.5829 21.0828 12.9718C20.8285 13.5207 20.5954 14.0803 20.3867 14.6472C20.2447 15.0351 20.0148 15.3096 19.626 15.4452C19.4268 15.5141 19.2287 15.5978 19.0232 15.6328C18.6757 15.6911 18.5973 15.8829 18.6047 16.2124C18.6248 17.0878 18.6057 17.1005 19.4342 17.3548C19.8803 17.4915 20.2045 17.7215 20.375 18.174C20.5975 18.7643 20.837 19.3492 21.0976 19.9236C21.2692 20.3019 21.2851 20.657 21.0944 21.0236C20.9366 21.3267 20.784 21.6319 20.5912 22.0113C20.6982 22.0918 20.8274 22.166 20.9302 22.2677C21.5457 22.876 21.5521 22.893 22.3117 22.4818C22.815 22.2105 23.278 22.2052 23.7674 22.5051C24.0238 22.662 24.3035 22.823 24.5928 22.8781C25.5961 23.07 26.1777 23.6401 26.3303 24.6489C26.3621 24.8609 26.4924 24.9054 26.6947 24.9096C27.697 24.9287 27.7033 24.9361 28.0063 23.9951C28.1451 23.5627 28.4015 23.2734 28.837 23.1123C29.4154 22.8983 29.9854 22.6556 30.549 22.4034C30.9251 22.2349 31.2843 22.2179 31.6519 22.4034C31.8172 22.486 31.9931 22.5539 32.1435 22.6588C32.4539 22.876 32.6754 22.8336 32.9392 22.5454C33.4965 21.9382 33.5314 21.9456 33.132 21.2144C32.8512 20.7004 32.8502 20.2362 33.1373 19.7201C33.3725 19.2973 33.56 18.8374 33.6967 18.3732C33.8535 17.8391 34.1406 17.4905 34.6884 17.3601C34.8674 17.3177 35.0359 17.2298 35.2149 17.1916C35.466 17.1397 35.5433 17.0115 35.5423 16.7529C35.537 15.7886 35.5508 15.779 34.6205 15.4823C34.183 15.3435 33.9044 15.0838 33.7454 14.6493C33.5325 14.0697 33.2867 13.5017 33.0345 12.9379C32.8735 12.5755 32.8597 12.23 33.0239 11.8697C33.1744 11.539 33.4827 11.165 33.4159 10.8831C33.3397 10.5641 32.9233 10.3267 32.6531 10.0554C32.6351 10.0374 32.6086 10.0289 32.562 10.0035C32.294 10.137 32.0079 10.2684 31.7335 10.421C31.3013 10.6616 30.8965 10.6319 30.4548 10.4126C29.9494 10.1614 29.4218 9.94945 28.8878 9.76506C28.4513 9.61458 28.161 9.35388 28.0243 8.91728C27.9618 8.71593 27.8803 8.51882 27.84 8.31217C27.7817 8.02181 27.6196 7.9508 27.3378 7.95398C26.4246 7.96564 26.415 7.9508 26.1406 8.81448C25.9944 9.27335 25.7423 9.59126 25.2708 9.7587C24.7019 9.96111 24.1457 10.2017 23.5947 10.4528C23.2208 10.6234 22.8669 10.6499 22.4929 10.4719C22.1666 10.3172 21.7968 10.0194 21.5087 10.0798C21.2046 10.1434 20.9747 10.5577 20.713 10.8195C20.6855 10.847 20.6643 10.881 20.6293 10.9276L20.6283 10.9265ZM9.83976 14.1301C10.2095 14.1301 10.5369 14.1375 10.8632 14.1248C10.9405 14.1216 11.0645 14.0697 11.0846 14.0114C11.376 13.1689 12.0117 12.5733 12.5806 11.9375C13.533 10.8725 13.7619 9.63683 13.4907 8.2825C13.0192 5.93414 10.6725 4.42615 8.28553 4.91892C5.97485 5.3958 4.42486 7.74204 4.87089 10.0469C5.03935 10.918 5.54259 11.5719 6.07868 12.2342C6.52259 12.7832 6.89552 13.3904 7.30447 13.9679C7.35109 14.0347 7.43161 14.1195 7.49941 14.1227C7.84904 14.1386 8.19972 14.1301 8.57159 14.1301C8.57159 12.8743 8.58324 11.6726 8.55994 10.4719C8.55676 10.2769 8.44128 10.0533 8.31202 9.89859C8.03974 9.57643 7.71449 9.3009 7.42737 8.99146C7.14026 8.68308 7.15827 8.29734 7.44856 8.04618C7.72508 7.80668 8.05245 7.82894 8.36923 8.12778C8.65317 8.39483 8.92439 8.6746 9.24329 8.9904C9.53464 8.67778 9.77832 8.39801 10.0411 8.13944C10.378 7.80986 10.7382 7.80138 11.0158 8.09387C11.27 8.36304 11.2478 8.72441 10.9416 9.04232C10.6397 9.35706 10.3186 9.65379 10.0231 9.97383C9.93406 10.0703 9.85036 10.2176 9.84824 10.3426C9.83553 11.5836 9.84082 12.8256 9.84082 14.1311L9.83976 14.1301ZM10.8441 15.4378H7.57146C7.44009 16.8493 7.90307 17.4905 8.96783 17.5509C10.6269 17.6441 10.9978 16.773 10.8441 15.4378Z" fill="#E7A572"/>
<path d="M23.3085 3.10955C23.6317 3.10955 23.8944 3.10107 24.1561 3.11167C24.5238 3.12757 24.7961 3.3925 24.8088 3.72737C24.8215 4.08025 24.5492 4.35896 24.1551 4.37697C23.8934 4.38863 23.6317 4.37909 23.3096 4.37909C23.3096 4.65674 23.3159 4.90259 23.3085 5.14739C23.2937 5.61154 23.0489 5.88283 22.6569 5.88283C22.2638 5.88283 22.0286 5.61896 22.0106 5.14315C22.001 4.90683 22.0095 4.66945 22.0095 4.37591C21.7086 4.37591 21.4363 4.38333 21.164 4.37379C20.7857 4.36108 20.5293 4.11204 20.5198 3.7634C20.5102 3.40203 20.7751 3.12651 21.165 3.10955C21.4267 3.09895 21.6885 3.10743 22.0106 3.10743C22.0106 2.82025 21.9989 2.56168 22.0127 2.30311C22.036 1.8665 22.2924 1.59946 22.6622 1.60158C23.0288 1.60369 23.2884 1.8824 23.3074 2.30947C23.318 2.55744 23.3096 2.80647 23.3096 3.10637L23.3085 3.10955Z" fill="#E7A572"/>
<path d="M4.26946 4.79792C3.74817 4.78415 2.46824 3.53262 2.51698 3.1543C2.54347 2.95084 2.6918 2.67319 2.85921 2.60007C3.04675 2.51848 3.38262 2.54815 3.5405 2.67213C3.941 2.98687 4.31078 3.35671 4.62441 3.75834C4.74837 3.91624 4.7685 4.24581 4.69328 4.44292C4.62547 4.62095 4.3627 4.7248 4.2684 4.79792H4.26946Z" fill="#E7A572"/>
<path d="M15.9118 3.0203C15.8991 3.5385 14.6478 4.825 14.2727 4.77731C14.0682 4.75082 13.7927 4.60351 13.7175 4.43502C13.6349 4.24851 13.6614 3.91152 13.7853 3.75362C14.0989 3.35305 14.4687 2.98321 14.8692 2.66953C15.0271 2.54555 15.3556 2.52541 15.5537 2.59959C15.7317 2.66635 15.8377 2.92704 15.9118 3.0203Z" fill="#E7A572"/>
<path d="M1.37108 8.56736C1.60841 8.56736 1.84575 8.55676 2.08203 8.56948C2.45181 8.58961 2.69444 8.85136 2.69233 9.20637C2.69021 9.56243 2.44863 9.81888 2.07037 9.82948C1.58405 9.84325 1.09666 9.84325 0.609267 9.82948C0.236309 9.81676 -0.00314736 9.55183 3.12618e-05 9.19471C0.00320989 8.8397 0.246904 8.58643 0.620922 8.56842C0.870974 8.55676 1.12103 8.5663 1.37108 8.5663V8.56736Z" fill="#E7A572"/>
<path d="M17.0244 9.82766C16.7744 9.82766 16.5222 9.84568 16.2743 9.82237C15.9257 9.78951 15.7318 9.57651 15.7085 9.2268C15.6862 8.88981 15.9193 8.58886 16.2552 8.57296C16.7808 8.54859 17.3084 8.54965 17.8339 8.57084C18.1783 8.58462 18.404 8.8665 18.3997 9.20879C18.3955 9.55108 18.1656 9.80435 17.8138 9.82554C17.551 9.84144 17.2872 9.82872 17.0244 9.82766Z" fill="#E7A572"/>
<path d="M12.8333 23.3114C12.8333 23.6229 12.8418 23.8741 12.8312 24.1231C12.8132 24.5449 12.5462 24.8225 12.1764 24.8162C11.8183 24.8109 11.5767 24.5544 11.5502 24.1422C11.5417 24.0108 11.547 23.8783 11.546 23.7469C11.546 23.6176 11.546 23.4883 11.546 23.3114C11.2482 23.3114 10.9886 23.3177 10.7301 23.3103C10.319 23.2987 10.0626 23.0613 10.0531 22.6936C10.0425 22.3025 10.2936 22.0556 10.729 22.0397C10.978 22.0312 11.2281 22.0387 11.5481 22.0387C11.5481 21.7568 11.5396 21.4982 11.5502 21.2407C11.5671 20.7924 11.8002 20.5392 12.1817 20.5381C12.5779 20.536 12.8216 20.8062 12.8344 21.2672C12.8407 21.5035 12.8354 21.7398 12.8354 22.0397C13.13 22.0397 13.4012 22.0312 13.6725 22.0418C14.0708 22.0577 14.341 22.3237 14.3378 22.6766C14.3347 23.0263 14.0539 23.2955 13.6629 23.3093C13.4023 23.3188 13.1416 23.3114 12.8344 23.3114H12.8333Z" fill="#E7A572"/>
<path d="M31.5626 16.4101C31.5668 18.9014 29.5547 20.9308 27.0765 20.934C24.5759 20.9372 22.5268 18.8961 22.5342 16.4111C22.5416 13.9399 24.5855 11.901 27.0563 11.9031C29.5388 11.9041 31.5583 13.925 31.5626 16.4111V16.4101ZM23.8374 16.4026C23.8258 18.184 25.2466 19.6327 27.0298 19.6581C28.777 19.6835 30.2731 18.2169 30.2932 16.4588C30.3134 14.6785 28.8522 13.1959 27.0669 13.1864C25.2954 13.1769 23.8491 14.6181 23.8374 16.4026Z" fill="#E7A572"/>
</svg>
