<svg width="28" height="28" viewBox="0 0 28 28" fill="none" xmlns="http://www.w3.org/2000/svg">
<rect width="28" height="28" rx="14" fill="#EFF5E9"/>
<g clip-path="url(#clip0_249_1361)">
<g clip-path="url(#clip1_249_1361)">
<path d="M15.9701 8.23787L15.9641 8.24388L15.1453 7.42504C15.0553 7.33502 14.9371 7.2898 14.819 7.2898C14.7008 7.2898 14.5826 7.33502 14.4926 7.42504C14.3124 7.6053 14.3124 7.89746 14.4926 8.07769L14.8192 8.40427L13.5538 9.56003C13.1958 9.88705 12.7867 10.1541 12.3413 10.3454C12.2563 10.3818 12.177 10.4282 12.104 10.4832V3.6748H15.5517C15.1531 4.25176 14.9196 4.95151 14.9196 5.70569C14.9196 6.69486 15.3211 7.59029 15.9701 8.23787Z" fill="white" stroke="black" stroke-width="0.293103" stroke-miterlimit="10" stroke-linecap="round" stroke-linejoin="round"/>
<path d="M19.6045 9.10833V13.4835H12.104V12.3289C12.2859 12.4665 12.5088 12.5512 12.7502 12.5604C13.245 12.5791 13.675 12.2855 13.8571 11.8616C14.0484 11.4162 14.3154 11.007 14.6424 10.6491L15.7982 9.38391L16.1247 9.71022C16.305 9.89048 16.5972 9.89048 16.7774 9.71022C16.9577 9.52999 16.9577 9.23759 16.7774 9.05756L15.9641 8.24429L15.9701 8.23828C16.6172 8.88402 17.5104 9.28328 18.4967 9.28328C18.8833 9.28328 19.2556 9.22188 19.6045 9.10833Z" fill="white" stroke="black" stroke-width="0.293103" stroke-miterlimit="10" stroke-linecap="round" stroke-linejoin="round"/>
<path d="M18.4966 9.28321C20.1195 9.28321 21.4899 8.20251 21.9276 6.72151C22.0227 6.3996 22.0737 6.05878 22.0737 5.70606C22.0737 5.34663 22.0207 4.99953 21.9221 4.67226C21.4786 3.20069 20.1128 2.12891 18.4966 2.12891C16.521 2.12891 14.9194 3.73046 14.9194 5.70606C14.9194 7.68166 16.521 9.28321 18.4966 9.28321Z" fill="#AAC191"/>
<path d="M21.9221 4.67226C21.4786 3.20069 20.1128 2.12891 18.4966 2.12891C16.521 2.12891 14.9194 3.73046 14.9194 5.70606C14.9194 7.68166 16.521 9.28321 18.4966 9.28321C20.1195 9.28321 21.4899 8.20251 21.9276 6.72151" stroke="black" stroke-width="0.293103" stroke-miterlimit="10" stroke-linecap="round" stroke-linejoin="round"/>
<path d="M22.074 5.92837C22.2015 5.92837 22.3048 5.82504 22.3048 5.69758C22.3048 5.57012 22.2015 5.4668 22.074 5.4668C21.9466 5.4668 21.8433 5.57012 21.8433 5.69758C21.8433 5.82504 21.9466 5.92837 22.074 5.92837Z" fill="black"/>
<path d="M18.728 8.34981C20.1882 8.22207 21.2684 6.93479 21.1406 5.47461" stroke="black" stroke-width="0.293103" stroke-miterlimit="10" stroke-linecap="round" stroke-linejoin="round"/>
<path d="M18.2656 3.0625C16.8054 3.19024 15.7253 4.47753 15.853 5.93771" stroke="black" stroke-width="0.293103" stroke-miterlimit="10" stroke-linecap="round" stroke-linejoin="round"/>
<path d="M15.7984 9.38347L14.8192 8.4043L13.554 9.56018C13.196 9.88722 12.7869 10.154 12.3414 10.3454C11.9175 10.5275 11.6246 10.9563 11.6434 11.4511C11.6662 12.0492 12.1523 12.5374 12.7504 12.5601C13.2452 12.5789 13.6751 12.2851 13.8572 11.8612C14.0486 11.4158 14.3155 11.0066 14.6425 10.6487L15.7984 9.38347Z" fill="#E9A772" stroke="black" stroke-width="0.293103" stroke-miterlimit="10" stroke-linecap="round" stroke-linejoin="round"/>
<path d="M16.7775 9.70976C16.5972 9.89005 16.3049 9.89017 16.1246 9.70991L14.4926 8.07791C14.3124 7.89765 14.3124 7.60546 14.4926 7.42523C14.6728 7.245 14.965 7.24497 15.1453 7.4252L16.7774 9.05714C16.9576 9.23737 16.9576 9.52953 16.7775 9.70976Z" fill="#E9A772" stroke="black" stroke-width="0.293103" stroke-miterlimit="10" stroke-linecap="round" stroke-linejoin="round"/>
<path d="M18.4969 7.63344C18.6244 7.63344 18.7277 7.53012 18.7277 7.40266C18.7277 7.2752 18.6244 7.17188 18.4969 7.17188C18.3694 7.17188 18.2661 7.2752 18.2661 7.40266C18.2661 7.53012 18.3694 7.63344 18.4969 7.63344Z" fill="black"/>
<path d="M17.7583 4.97526C17.7583 4.94047 17.7607 4.90623 17.7655 4.87273C17.8162 4.51047 18.1324 4.23277 18.5121 4.24039C18.8962 4.2481 19.2144 4.55428 19.2343 4.93616C19.2473 5.18588 19.1347 5.41049 18.9537 5.55261C18.6682 5.77681 18.4968 6.11584 18.4968 6.47885" stroke="black" stroke-width="0.293103" stroke-miterlimit="10" stroke-linecap="round" stroke-linejoin="round"/>
<path d="M13.085 5.52148H14.9197" stroke="black" stroke-width="0.293103" stroke-miterlimit="10" stroke-linecap="round" stroke-linejoin="round"/>
<path d="M14.0078 4.59863H15.0943" stroke="black" stroke-width="0.293103" stroke-miterlimit="10" stroke-linecap="round" stroke-linejoin="round"/>
<path d="M13.0273 9.21387H13.9333" stroke="black" stroke-width="0.293103" stroke-miterlimit="10" stroke-linecap="round" stroke-linejoin="round"/>
<path d="M13.0273 8.29102H14.7055" stroke="black" stroke-width="0.293103" stroke-miterlimit="10" stroke-linecap="round" stroke-linejoin="round"/>
<path d="M13.0273 7.36816H14.5632" stroke="black" stroke-width="0.293103" stroke-miterlimit="10" stroke-linecap="round" stroke-linejoin="round"/>
<path d="M12.75 12.5605H18.6811" stroke="black" stroke-width="0.293103" stroke-miterlimit="10" stroke-linecap="round" stroke-linejoin="round" stroke-dasharray="6.27 2.52 56 2.52 56 6.27 2.52 56"/>
<path d="M14.584 10.7139H18.6813" stroke="black" stroke-width="0.293103" stroke-miterlimit="10" stroke-linecap="round" stroke-linejoin="round" stroke-dasharray="1.79 2.52 56 2.52 56 1.79 2.52 56"/>
<path d="M13.9614 11.6377H18.6814" stroke="black" stroke-width="0.293103" stroke-miterlimit="10" stroke-linecap="round" stroke-linejoin="round" stroke-dasharray="3.3 2.52 56 2.52 56 3.3 2.52 56"/>
<path d="M11.6423 20.3652H9.92188V21.3975H11.6423V20.3652Z" fill="#E9A772"/>
<path d="M11.6424 20.3652H11.2983V21.3975H11.6424V20.3652Z" fill="#FED2A4"/>
<path d="M10.9544 21.3975L9.6084 22.6755C9.42395 22.8506 9.14078 22.7835 9.0362 22.5399L8.5459 21.3975H10.9544Z" fill="#AAC191"/>
<path d="M10.9541 21.3975L12.1079 22.6755C12.2659 22.8506 12.5087 22.7835 12.5983 22.5399L13.0186 21.3975H10.9541Z" fill="#AAC191"/>
<path d="M17.3184 25.8705H11.6426L12.606 21.9986C12.694 21.6449 13.0047 21.3975 13.3608 21.3975H18.2531C18.6543 21.3975 18.948 21.7849 18.8488 22.1834L18.0829 25.2617C17.9937 25.6199 17.679 25.8705 17.3184 25.8705Z" fill="#E9A772"/>
<path d="M18.8474 22.1834L18.0361 25.2617C17.9417 25.62 17.6082 25.8705 17.2264 25.8705H16.1152C16.4973 25.8705 16.8305 25.62 16.9249 25.2617L17.7362 22.1834C17.8413 21.7849 17.53 21.3975 17.1052 21.3975H18.2164C18.6412 21.3975 18.9522 21.7849 18.8474 22.1834Z" fill="#E9A772"/>
<path d="M11.7223 25.8701H9.40733C9.12143 25.8701 8.88965 25.639 8.88965 25.354C8.88965 25.069 9.12143 24.8379 9.40733 24.8379H11.9863L11.7223 25.8701Z" fill="#E9A772"/>
<path d="M15.5991 24.1504C15.8841 24.1504 16.1152 23.9193 16.1152 23.6343C16.1152 23.3492 15.8841 23.1182 15.5991 23.1182C15.3141 23.1182 15.083 23.3492 15.083 23.6343C15.083 23.9193 15.3141 24.1504 15.5991 24.1504Z" fill="#E9A772"/>
<path d="M12.5658 20.3653H9.34308C8.90281 20.3653 8.5459 19.9926 8.5459 19.5329V16.0365C8.5459 15.5768 8.90281 15.2041 9.34308 15.2041H12.5658C13.0061 15.2041 13.363 15.5768 13.363 16.0365V19.5329C13.363 19.9926 13.0061 20.3653 12.5658 20.3653Z" fill="#AAC191"/>
<path d="M13.3628 16.0366V19.5328C13.3628 19.9927 12.978 20.3653 12.5031 20.3653H11.2983C11.773 20.3653 12.1578 19.9927 12.1461 19.5328V16.0366C12.1578 15.5767 11.773 15.2041 11.2983 15.2041H12.5031C12.978 15.2041 13.3628 15.5767 13.3628 16.0366Z" fill="#AAC191"/>
<path d="M15.7713 20.709C15.9614 20.709 16.1154 20.4779 16.1154 20.1929C16.1154 19.9078 15.9614 19.6768 15.7713 19.6768C15.5813 19.6768 15.4272 19.9078 15.4272 20.1929C15.4272 20.4779 15.5813 20.709 15.7713 20.709Z" fill="#E9A772"/>
<path d="M6.30909 18.3008C6.59413 18.3008 6.8252 18.0697 6.8252 17.7847C6.8252 17.4996 6.59413 17.2686 6.30909 17.2686C6.02404 17.2686 5.79297 17.4996 5.79297 17.7847C5.79297 18.0697 6.02404 18.3008 6.30909 18.3008Z" fill="#E9A772"/>
<path d="M6.48128 15.5485C6.67131 15.5485 6.82536 15.3945 6.82536 15.2044C6.82536 15.0144 6.67131 14.8604 6.48128 14.8604C6.29126 14.8604 6.13721 15.0144 6.13721 15.2044C6.13721 15.3945 6.29126 15.5485 6.48128 15.5485Z" fill="#E9A772"/>
<path d="M6.48128 20.709C6.67131 20.709 6.82536 20.4779 6.82536 20.1929C6.82536 19.9078 6.67131 19.6768 6.48128 19.6768C6.29126 19.6768 6.13721 19.9078 6.13721 20.1929C6.13721 20.4779 6.29126 20.709 6.48128 20.709Z" fill="#E9A772"/>
<path d="M7.57446 21.3975H7.37726C6.50229 21.3975 5.79297 22.123 5.79297 23.018V25.1745C5.79297 25.5587 6.09775 25.8705 6.47368 25.8705H11.5547H15.7712" stroke="black" stroke-width="0.293103" stroke-miterlimit="10" stroke-linecap="round" stroke-linejoin="round"/>
<path d="M14.0511 21.3975H13.1702H8.5459" stroke="black" stroke-width="0.293103" stroke-miterlimit="10" stroke-linecap="round" stroke-linejoin="round"/>
<path d="M11.6423 20.3652H9.92188V21.3975H11.6423V20.3652Z" stroke="black" stroke-width="0.293103" stroke-miterlimit="10" stroke-linecap="round" stroke-linejoin="round"/>
<path d="M10.9544 21.3975L9.6084 22.6755C9.42395 22.8506 9.14078 22.7835 9.0362 22.5399L8.5459 21.3975H10.9544Z" stroke="black" stroke-width="0.293103" stroke-miterlimit="10" stroke-linecap="round" stroke-linejoin="round"/>
<path d="M13.0044 21.436L13.0186 21.3975H10.9541L12.1079 22.6756C12.1904 22.7672 12.2964 22.7925 12.3914 22.7607" stroke="black" stroke-width="0.293103" stroke-miterlimit="10" stroke-linecap="round" stroke-linejoin="round"/>
<path d="M17.3184 25.8705H11.6426L12.606 21.9986C12.694 21.6449 13.0047 21.3975 13.3608 21.3975H18.2531C18.6543 21.3975 18.948 21.7849 18.8488 22.1834L18.0829 25.2617C17.9937 25.6198 17.679 25.8705 17.3184 25.8705Z" stroke="black" stroke-width="0.293103" stroke-miterlimit="10" stroke-linecap="round" stroke-linejoin="round"/>
<path d="M11.7223 25.8701H9.40733C9.12143 25.8701 8.88965 25.639 8.88965 25.354C8.88965 25.069 9.12143 24.8379 9.40733 24.8379H11.9863L11.7223 25.8701Z" stroke="black" stroke-width="0.293103" stroke-miterlimit="10" stroke-linecap="round" stroke-linejoin="round"/>
<path d="M15.5991 24.1504C15.8841 24.1504 16.1152 23.9193 16.1152 23.6343C16.1152 23.3492 15.8841 23.1182 15.5991 23.1182C15.3141 23.1182 15.083 23.3492 15.083 23.6343C15.083 23.9193 15.3141 24.1504 15.5991 24.1504Z" stroke="black" stroke-width="0.293103" stroke-miterlimit="10" stroke-linecap="round" stroke-linejoin="round"/>
<path d="M12.5658 20.3653H9.34308C8.90281 20.3653 8.5459 19.9926 8.5459 19.5329V16.0365C8.5459 15.5768 8.90281 15.2041 9.34308 15.2041H12.5658C13.0061 15.2041 13.363 15.5768 13.363 16.0365V19.5329C13.363 19.9926 13.0061 20.3653 12.5658 20.3653Z" stroke="black" stroke-width="0.293103" stroke-miterlimit="10" stroke-linecap="round" stroke-linejoin="round"/>
<path d="M9.39355 18.8532L10.2358 16.6419C10.253 16.5999 10.3126 16.5998 10.3298 16.6418L11.1644 18.8532" stroke="black" stroke-width="0.293103" stroke-miterlimit="10" stroke-linecap="round" stroke-linejoin="round"/>
<path d="M9.65576 18.3027H10.9055" stroke="black" stroke-width="0.293103" stroke-miterlimit="10" stroke-linecap="round" stroke-linejoin="round"/>
<path d="M11.9785 16.6104V18.8532" stroke="black" stroke-width="0.293103" stroke-miterlimit="10" stroke-linecap="round" stroke-linejoin="round"/>
<path d="M13.3628 18.9893H14.8156C14.9344 18.9893 15.0472 19.0289 15.124 19.0977L15.7713 19.6774" stroke="black" stroke-width="0.293103" stroke-miterlimit="10" stroke-linecap="round" stroke-linejoin="round"/>
<path d="M15.7713 20.709C15.9614 20.709 16.1154 20.4779 16.1154 20.1929C16.1154 19.9078 15.9614 19.6768 15.7713 19.6768C15.5813 19.6768 15.4272 19.9078 15.4272 20.1929C15.4272 20.4779 15.5813 20.709 15.7713 20.709Z" stroke="black" stroke-width="0.293103" stroke-miterlimit="10" stroke-linecap="round" stroke-linejoin="round"/>
<path d="M8.54559 16.5801H7.79124C7.67112 16.5801 7.55712 16.5206 7.47952 16.4175L6.8252 15.5479" stroke="black" stroke-width="0.293103" stroke-miterlimit="10" stroke-linecap="round" stroke-linejoin="round"/>
<path d="M8.54559 17.6123H6.8252" stroke="black" stroke-width="0.293103" stroke-miterlimit="10" stroke-linecap="round" stroke-linejoin="round"/>
<path d="M6.30909 18.3008C6.59413 18.3008 6.8252 18.0697 6.8252 17.7847C6.8252 17.4996 6.59413 17.2686 6.30909 17.2686C6.02404 17.2686 5.79297 17.4996 5.79297 17.7847C5.79297 18.0697 6.02404 18.3008 6.30909 18.3008Z" stroke="black" stroke-width="0.293103" stroke-miterlimit="10" stroke-linecap="round" stroke-linejoin="round"/>
<path d="M6.48128 15.5485C6.67131 15.5485 6.82536 15.3945 6.82536 15.2044C6.82536 15.0144 6.67131 14.8604 6.48128 14.8604C6.29126 14.8604 6.13721 15.0144 6.13721 15.2044C6.13721 15.3945 6.29126 15.5485 6.48128 15.5485Z" stroke="black" stroke-width="0.293103" stroke-miterlimit="10" stroke-linecap="round" stroke-linejoin="round"/>
<path d="M8.54559 18.9893H7.79124C7.67112 18.9893 7.55712 19.0289 7.47952 19.0977L6.8252 19.6774" stroke="black" stroke-width="0.293103" stroke-miterlimit="10" stroke-linecap="round" stroke-linejoin="round"/>
<path d="M6.48128 20.709C6.67131 20.709 6.82536 20.4779 6.82536 20.1929C6.82536 19.9078 6.67131 19.6768 6.48128 19.6768C6.29126 19.6768 6.13721 19.9078 6.13721 20.1929C6.13721 20.4779 6.29126 20.709 6.48128 20.709Z" stroke="black" stroke-width="0.293103" stroke-miterlimit="10" stroke-linecap="round" stroke-linejoin="round"/>
<path d="M13.3628 17.6123H14.7391" stroke="black" stroke-width="0.293103" stroke-miterlimit="10" stroke-linecap="round" stroke-linejoin="round"/>
<path d="M19.556 12.1074H20.9323V24.4942H18.1797H20.718" stroke="black" stroke-width="0.293103" stroke-miterlimit="10"/>
<path d="M11.6423 11.0752H8.88965V15.5482" stroke="black" stroke-width="0.293103" stroke-miterlimit="10"/>
</g>
</g>
<defs>
<clipPath id="clip0_249_1361">
<rect width="17.0123" height="24.3276" fill="white" transform="translate(5.49365 1.83594)"/>
</clipPath>
<clipPath id="clip1_249_1361">
<rect width="17" height="24.3276" fill="white" transform="translate(5.5 1.83594)"/>
</clipPath>
</defs>
</svg>
