<svg width="28" height="28" viewBox="0 0 28 28" fill="none" xmlns="http://www.w3.org/2000/svg">
<rect width="28" height="28" rx="14" fill="#FFE7D4"/>
<g clip-path="url(#clip0_249_1314)">
<g clip-path="url(#clip1_249_1314)">
<mask id="mask0_249_1314" style="mask-type:luminance" maskUnits="userSpaceOnUse" x="5" y="5" width="18" height="18">
<path d="M22.5 5.5H5.5V22.5H22.5V5.5Z" fill="white"/>
</mask>
<g mask="url(#mask0_249_1314)">
<path d="M22.1457 15.417C22.145 15.0106 22.028 14.6129 21.8082 14.271C21.5886 13.9291 21.2755 13.6573 20.9061 13.4878V13.292C20.9061 9.48399 17.8078 6.38574 13.9998 6.38574C10.1918 6.38574 7.09359 9.48399 7.09359 13.292V13.4878C6.72419 13.6573 6.41111 13.9291 6.19142 14.271C5.97173 14.6129 5.85463 15.0106 5.854 15.417C5.854 16.5886 6.80706 17.542 7.979 17.542H8.68734C8.78127 17.542 8.87135 17.5047 8.93777 17.4383C9.00419 17.3719 9.0415 17.2818 9.0415 17.1878V13.6462C9.0415 13.5522 9.00419 13.4621 8.93777 13.3957C8.87135 13.3293 8.78127 13.292 8.68734 13.292H7.979C7.91988 13.2926 7.86081 13.2956 7.80192 13.3008V13.292C7.80192 9.87428 10.5821 7.09407 13.9998 7.09407C17.4176 7.09407 20.1978 9.87428 20.1978 13.292V13.3008C20.1389 13.2954 20.0798 13.2925 20.0207 13.292H19.3123C19.2184 13.292 19.1283 13.3293 19.0619 13.3957C18.9955 13.4621 18.9582 13.5522 18.9582 13.6462V17.1878C18.9582 17.2818 18.9955 17.3719 19.0619 17.4383C19.1283 17.5047 19.2184 17.542 19.3123 17.542H20.0207C20.0805 17.542 20.1393 17.5377 20.1978 17.5331V18.0732C20.1978 19.2448 19.2447 20.1982 18.0728 20.1982H15.4165C15.4165 19.8076 15.0988 19.4899 14.7082 19.4899H12.9373C12.5467 19.4899 12.229 19.8076 12.229 20.1982V20.9066C12.229 21.2972 12.5467 21.6149 12.9373 21.6149H14.7082C15.0988 21.6149 15.4165 21.2972 15.4165 20.9066H18.0728C19.635 20.9066 20.9061 19.6355 20.9061 18.0732V17.3461C21.2755 17.1767 21.5886 16.9049 21.8082 16.563C22.028 16.2211 22.145 15.8234 22.1457 15.417ZM8.33317 14.0003V16.8337H7.979C7.19771 16.8337 6.56234 16.1983 6.56234 15.417C6.56234 14.6357 7.19771 14.0003 7.979 14.0003H8.33317ZM12.9373 20.9066V20.1982H14.7082V20.5549L14.7089 20.9066H12.9373ZM20.0207 16.8337H19.6665V14.0003H20.0207C20.8019 14.0003 21.4373 14.6357 21.4373 15.417C21.4373 16.1983 20.8019 16.8337 20.0207 16.8337ZM13.9998 17.7191C16.1479 17.7191 17.8957 15.9713 17.8957 13.8232C17.8957 11.6752 16.1479 9.92741 13.9998 9.92741C11.8518 9.92741 10.104 11.6752 10.104 13.8232C10.104 14.5181 10.2903 15.1974 10.6441 15.797L10.2875 17.6521C10.2753 17.7154 10.2806 17.7807 10.3028 17.8411C10.325 17.9015 10.3633 17.9547 10.4135 17.9951C10.4636 18.0354 10.5239 18.0613 10.5877 18.0699C10.6514 18.0786 10.7164 18.0697 10.7755 18.0442L12.3657 17.3578C12.8773 17.5968 13.4352 17.7201 13.9998 17.7191ZM11.1095 17.1287L11.3656 15.7956C11.3827 15.7065 11.3649 15.6142 11.3159 15.5378C10.9873 15.0263 10.8125 14.4312 10.8123 13.8232C10.8123 12.0655 12.2424 10.6357 13.9998 10.6357C15.7572 10.6357 17.1873 12.0655 17.1873 13.8232C17.1873 15.581 15.7572 17.0107 13.9998 17.0107C13.4909 17.0114 12.9894 16.8888 12.5382 16.6534C12.4916 16.6292 12.4402 16.6157 12.3878 16.6139C12.3354 16.6121 12.2832 16.6219 12.235 16.6428L11.1095 17.1287ZM13.9998 14.8857H12.229C12.1351 14.8857 12.045 14.8484 11.9786 14.782C11.9122 14.7156 11.8748 14.6255 11.8748 14.5316C11.8748 14.4377 11.9122 14.3476 11.9786 14.2812C12.045 14.2147 12.1351 14.1774 12.229 14.1774H13.9998C14.0937 14.1774 14.1838 14.2147 14.2502 14.2812C14.3167 14.3476 14.354 14.4377 14.354 14.5316C14.354 14.6255 14.3167 14.7156 14.2502 14.782C14.1838 14.8484 14.0937 14.8857 13.9998 14.8857ZM11.8748 13.1149C11.8748 13.021 11.9122 12.9309 11.9786 12.8645C12.045 12.7981 12.1351 12.7607 12.229 12.7607H15.7707C15.8646 12.7607 15.9547 12.7981 16.0211 12.8645C16.0875 12.9309 16.1248 13.021 16.1248 13.1149C16.1248 13.2088 16.0875 13.2989 16.0211 13.3653C15.9547 13.4317 15.8646 13.4691 15.7707 13.4691H12.229C12.1351 13.4691 12.045 13.4317 11.9786 13.3653C11.9122 13.2989 11.8748 13.2088 11.8748 13.1149Z" fill="#AAC191"/>
</g>
</g>
</g>
<defs>
<clipPath id="clip0_249_1314">
<rect width="17" height="17" fill="white" transform="translate(5.5 5.5)"/>
</clipPath>
<clipPath id="clip1_249_1314">
<rect width="17" height="17" fill="white" transform="translate(5.5 5.5)"/>
</clipPath>
</defs>
</svg>
