<svg width="40" height="59" viewBox="0 0 40 59" fill="none" xmlns="http://www.w3.org/2000/svg">
<path d="M28.8698 22.1432H37.2689V44.2863H31.9912H35.4083" stroke="black" stroke-width="1.5" stroke-miterlimit="10"/>
<path d="M8.38359 27.2971H1V49.5395H5.63479" stroke="black" stroke-width="1.5" stroke-miterlimit="10"/>
<path d="M37.7042 0H17.6837C16.7293 0 15.9581 0.771192 15.9581 1.72564V11.4152H8.23855C7.93313 11.4152 7.68115 11.6671 7.68115 11.9726V32.8787C7.68115 33.1842 7.93313 33.4361 8.23855 33.4361H29.1447C29.4501 33.4361 29.7021 33.1842 29.7021 32.8787V18.2643L31.4812 16.3706H37.7042C38.6586 16.3706 39.4298 15.5995 39.4298 14.645V1.72564C39.4298 0.771192 38.6586 0 37.7042 0ZM38.3227 14.645C38.3227 14.981 38.0478 15.2559 37.7118 15.2559H31.2445C31.0918 15.2559 30.9391 15.3169 30.8398 15.4315L28.7553 17.6458C28.7553 17.6458 28.7553 17.6458 28.7477 17.6534L27.7016 18.7606L26.0294 16.9815V18.6079L27.2969 19.9594C27.5107 20.1808 27.8619 20.1884 28.0834 19.9823C28.0834 19.9823 28.0987 19.967 28.1063 19.9594L28.5873 19.4478V32.3137H8.79594V12.5223H15.9581V14.6374C15.9581 14.7901 15.981 14.9428 16.0268 15.0879H17.2791C17.1569 14.9733 17.0729 14.8206 17.0729 14.6374V1.72564C17.0729 1.38967 17.3478 1.11479 17.6837 1.11479H37.7042C38.0402 1.11479 38.315 1.38967 38.315 1.72564V14.645H38.3227Z" fill="black"/>
<path d="M21.1655 8.02495C21.8375 8.02495 22.4407 7.59736 22.6774 6.96361H23.6089C23.7693 6.96361 23.9296 6.88725 24.0289 6.76508L25.5254 4.98599H28.1368C28.4422 5.82591 29.3738 6.26113 30.2137 5.94808C31.0536 5.64265 31.4888 4.71111 31.1758 3.8712C30.8703 3.03129 29.9388 2.59606 29.0989 2.90912C28.6484 3.06947 28.2971 3.42834 28.1368 3.8712H25.2582C25.0978 3.8712 24.9375 3.93992 24.8382 4.06973L23.3417 5.85645H22.6774C22.372 5.01654 21.4404 4.58895 20.6005 4.89437C19.7606 5.19979 19.333 6.13133 19.6384 6.97124C19.8751 7.60499 20.4783 8.03259 21.1579 8.03259L21.1655 8.02495ZM29.6486 3.92465C29.9235 3.92465 30.1526 4.14608 30.1526 4.4286C30.1526 4.70348 29.9312 4.93255 29.6486 4.93255C29.3738 4.93255 29.1447 4.71111 29.1447 4.4286C29.1447 4.15372 29.3661 3.92465 29.641 3.92465H29.6486ZM21.1655 5.90226C21.4404 5.90226 21.6695 6.12369 21.6695 6.40621C21.6695 6.68873 21.448 6.91016 21.1655 6.91016C20.8907 6.91016 20.6616 6.68873 20.6616 6.40621C20.6616 6.13133 20.883 5.90226 21.1655 5.90226Z" fill="#E9A772"/>
<path d="M30.8321 6.11605L29.3356 7.89513H28.6713C28.3658 7.05522 27.4343 6.62763 26.5944 6.93305C25.7545 7.23847 25.3269 8.17001 25.6323 9.00993C25.9377 9.84984 26.8693 10.2774 27.7092 9.97201C28.1521 9.81166 28.5033 9.46042 28.6713 9.00993H29.5952C29.7555 9.00993 29.9159 8.94121 30.0151 8.8114L31.5117 7.02468H34.1231C34.4285 7.86459 35.36 8.29218 36.1999 7.98676C37.0398 7.68134 37.4674 6.7498 37.162 5.90989C36.8566 5.06997 35.9251 4.64238 35.0851 4.94781C34.6423 5.10815 34.291 5.45939 34.1231 5.90989H31.2445C31.0841 5.90989 30.9238 5.98624 30.8245 6.10841L30.8321 6.11605ZM27.1518 8.95648C26.8769 8.95648 26.6555 8.72741 26.6555 8.45253C26.6555 8.17765 26.8845 7.95622 27.1594 7.95622C27.4343 7.95622 27.6557 8.18529 27.6557 8.46017C27.6557 8.73505 27.4343 8.96411 27.1518 8.96411V8.95648ZM35.6425 5.97097C35.9174 5.97097 36.1465 6.1924 36.1465 6.47492C36.1465 6.7498 35.9251 6.97887 35.6425 6.97887C35.3677 6.97887 35.1386 6.75743 35.1386 6.47492C35.1386 6.20004 35.36 5.97097 35.6425 5.97097Z" fill="#E9A772"/>
<path d="M19.7454 12.2628C20.4249 12.2628 21.0281 11.8428 21.2648 11.2014H23.8762L25.3728 12.9805C25.4797 13.1103 25.6324 13.179 25.8004 13.179H26.7243C27.0297 14.019 27.9612 14.4542 28.8011 14.1411C29.6411 13.8357 30.0763 12.9042 29.7632 12.0643C29.4502 11.2243 28.5263 10.7891 27.6863 11.1022C27.2358 11.2625 26.8846 11.6214 26.7243 12.0643H26.06L24.5634 10.2852C24.4565 10.1554 24.3038 10.0866 24.1358 10.0866H21.2648C20.9594 9.24673 20.0279 8.81914 19.188 9.12456C18.3481 9.42999 17.9205 10.3615 18.2259 11.2014C18.4626 11.8352 19.0658 12.2628 19.7454 12.2628ZM28.2361 12.1177C28.511 12.1177 28.7401 12.3391 28.7401 12.6217C28.7401 12.8965 28.5186 13.1256 28.2361 13.1256C27.9612 13.1256 27.7322 12.9042 27.7322 12.6217C27.7322 12.3468 27.9536 12.1177 28.2361 12.1177ZM19.7454 10.1401C20.0202 10.1401 20.2493 10.3692 20.2493 10.644C20.2493 10.9189 20.0202 11.148 19.7454 11.148C19.4705 11.148 19.2414 10.9189 19.2414 10.644C19.2414 10.3692 19.4705 10.1401 19.7454 10.1401Z" fill="#E9A772"/>
<path d="M15.3779 44.0343C15.0037 44.0343 14.6983 44.3397 14.6983 44.7139C14.6983 45.088 15.0037 45.3935 15.3779 45.3935H23.5174C23.8915 45.3935 24.1969 45.088 24.1969 44.7139C24.1969 44.3397 23.8915 44.0343 23.5174 44.0343H22.8378V41.3237H23.5174C23.7923 41.3237 24.0366 41.1557 24.1435 40.9037C24.2504 40.6518 24.1893 40.3616 23.9984 40.1631L19.9287 36.0475C19.7989 35.9177 19.6309 35.849 19.4476 35.849C19.2644 35.849 19.0964 35.9177 18.9666 36.0475L14.8968 40.1631C14.7059 40.354 14.6449 40.6518 14.7518 40.9037C14.8586 41.1557 15.103 41.3237 15.3779 41.3237H16.0574V44.0343H15.3779ZM21.4863 44.0343H20.1272V41.3237H21.4863V44.0343ZM17.4166 41.3237H18.7757V44.0343H17.4166V41.3237Z" fill="#E9A772"/>
<path d="M28.992 41.3236C27.8696 41.3236 26.9152 42.2322 26.9152 43.3547V47.4244C26.9152 47.6077 26.8464 47.7757 26.7166 47.9055C26.6174 47.6993 26.4876 47.5084 26.3196 47.3404C25.5255 46.5463 24.2351 46.5463 23.441 47.3404L19.7683 51.0131C19.6537 51.1277 19.5468 51.2498 19.4552 51.3796C19.3559 51.2498 19.2567 51.1277 19.1422 51.0131L15.4694 47.3404C14.6753 46.5463 13.3849 46.5463 12.5908 47.3404C12.4229 47.5084 12.293 47.6993 12.1938 47.9055C12.064 47.7757 11.9953 47.6077 11.9953 47.4244V43.3547C11.9953 42.2322 11.0408 41.3236 9.91839 41.3236C8.79596 41.3236 7.88733 42.2399 7.88733 43.3547V49.3868C7.88733 49.9976 8.05531 50.6008 8.36837 51.1353C8.42182 51.2269 8.1393 50.8833 13.0948 56.6711C13.2628 56.9689 13.362 57.3583 13.362 57.7172V58.3204C13.362 58.6945 13.6675 58.9999 14.0416 58.9999H24.8917C25.2659 58.9999 25.5713 58.6945 25.5713 58.3204V57.7172C25.5713 57.3583 25.6706 56.9689 25.8385 56.6711C30.7864 50.8833 30.5039 51.2269 30.565 51.1353C30.878 50.6085 31.046 50.0052 31.046 49.3868V43.3547C31.046 42.2322 30.1297 41.3236 29.0149 41.3236H28.992ZM14.2172 55.9304C14.1638 55.8388 14.4386 56.1824 9.4908 50.3947C9.31518 50.0892 9.23119 49.7456 9.23119 49.3944V43.3623C9.23119 42.9882 9.53661 42.6827 9.91075 42.6827C10.2849 42.6827 10.6361 42.9958 10.6361 43.3623V47.4321C10.6361 47.9742 10.8499 48.4858 11.2317 48.8675L14.9044 52.5403C15.1717 52.8075 15.5992 52.8075 15.8665 52.5403C16.1337 52.273 16.1337 51.8454 15.8665 51.5782L13.5529 49.2646C13.2857 48.9973 13.2857 48.5698 13.5529 48.3025C13.8202 48.0353 14.2478 48.0353 14.515 48.3025L18.1877 51.9752C18.5695 52.357 18.7833 52.8686 18.7833 53.4107V57.6408H14.7135C14.6983 57.0376 14.5226 56.4191 14.2325 55.9228L14.2172 55.9304ZM29.6716 49.3868C29.6716 49.738 29.58 50.0816 29.412 50.387C24.4641 56.1748 24.739 55.8312 24.6856 55.9228C24.3878 56.4115 24.2198 57.0376 24.2045 57.6408H20.1348V53.4107C20.1348 52.8686 20.3486 52.357 20.7303 51.9752L24.4031 48.3025C24.6703 48.0353 25.0979 48.0353 25.3651 48.3025C25.6324 48.5698 25.6324 48.9973 25.3651 49.2646L23.0516 51.5782C22.7843 51.8454 22.7843 52.273 23.0516 52.5403C23.3188 52.8075 23.7464 52.8075 24.0136 52.5403L27.6863 48.8675C28.0681 48.4858 28.2819 47.9742 28.2819 47.4321V43.3623C28.2819 43.0034 28.6179 42.6827 29.0073 42.6827C29.3967 42.6827 29.6869 42.9882 29.6869 43.3623V49.3944L29.6716 49.3868Z" fill="#E9A772"/>
<path d="M24.1511 15.2559H17.6838C17.5234 15.2559 17.386 15.1948 17.2791 15.0956H11.9113C11.6059 15.0956 11.3539 15.3476 11.3539 15.653V29.2061C11.3539 29.5115 11.6059 29.7635 11.9113 29.7635H25.4644C25.7698 29.7635 26.0218 29.5115 26.0218 29.2061V16.9892L24.5558 15.4315C24.4489 15.317 24.3038 15.2483 24.1511 15.2559ZM20.3944 26.1748C20.3944 26.1748 20.3944 26.1748 20.3868 26.1748C20.1042 26.297 19.7759 26.1671 19.6537 25.8846L18.9894 24.327H15.8207L15.1564 25.8846C15.0648 26.0908 14.8662 26.2206 14.6448 26.2206C14.5685 26.2206 14.4921 26.2053 14.431 26.1748C14.1485 26.0526 14.0187 25.7243 14.1332 25.4418L14.9426 23.5558L16.8973 18.9744C16.9813 18.7683 17.1875 18.6308 17.4089 18.6308C17.6303 18.6308 17.8365 18.7683 17.9205 18.9744L19.8752 23.5558L20.6769 25.4418C20.7991 25.7243 20.6769 26.045 20.3868 26.1671L20.3944 26.1748ZM23.2883 25.6632C23.2883 25.9686 23.0363 26.2206 22.7309 26.2206C22.4254 26.2206 22.1735 25.9686 22.1735 25.6632V19.1959C22.1735 18.8905 22.4254 18.6385 22.7309 18.6385C23.0363 18.6385 23.2883 18.8905 23.2883 19.1959V25.6632Z" fill="#AAC191"/>
<path d="M18.516 23.2197L17.4089 20.616L16.2941 23.2197H18.516Z" fill="#E9A772"/>
</svg>
