<svg width="58" height="83" viewBox="0 0 58 83" fill="none" xmlns="http://www.w3.org/2000/svg">
<path d="M35.7215 21.8435L35.701 21.864L32.9074 19.0703C32.6003 18.7632 32.1971 18.6089 31.794 18.6089C31.3909 18.6089 30.9877 18.7632 30.6806 19.0703C30.0657 19.6853 30.0657 20.6821 30.6806 21.297L31.7948 22.4112L27.4776 26.3544C26.2563 27.4701 24.8603 28.3811 23.3407 29.0338C23.0509 29.1582 22.7801 29.3165 22.5312 29.5039V6.27539H34.2939C32.9341 8.24384 32.1373 10.6312 32.1373 13.2043C32.1373 16.5791 33.5073 19.6341 35.7215 21.8435Z" fill="white" stroke="black" stroke-miterlimit="10" stroke-linecap="round" stroke-linejoin="round"/>
<path d="M48.1211 24.8119V39.7391H22.5312V35.7998C23.1517 36.2691 23.9123 36.5581 24.7359 36.5896C26.4241 36.6533 27.891 35.6518 28.5122 34.2054C29.1649 32.6857 30.0759 31.2897 31.1917 30.0685L35.1349 25.7521L36.249 26.8654C36.8639 27.4804 37.8608 27.4804 38.4757 26.8654V26.8646C39.0907 26.2497 39.0907 25.2529 38.4757 24.6387L35.701 21.864L35.7215 21.8435C37.9293 24.0466 40.9764 25.4088 44.3417 25.4088C45.6606 25.4088 46.9306 25.1993 48.1211 24.8119Z" fill="white" stroke="black" stroke-miterlimit="10" stroke-linecap="round" stroke-linejoin="round"/>
<path d="M44.3417 25.4088C49.8786 25.4088 54.5543 21.7217 56.0474 16.6689C56.372 15.5706 56.5461 14.4078 56.5461 13.2044C56.5461 11.9781 56.3653 10.7939 56.0287 9.67733C54.5156 4.65667 49.8557 1 44.3417 1C37.6014 1 32.1373 6.46411 32.1373 13.2044C32.1373 19.9447 37.6014 25.4088 44.3417 25.4088Z" fill="#AAC191"/>
<path d="M56.0287 9.67733C54.5156 4.65667 49.8557 1 44.3417 1C37.6014 1 32.1373 6.46411 32.1373 13.2044C32.1373 19.9447 37.6014 25.4088 44.3417 25.4088C49.8786 25.4088 54.5543 21.7217 56.0474 16.6689" stroke="black" stroke-miterlimit="10" stroke-linecap="round" stroke-linejoin="round"/>
<circle cx="56.546" cy="13.1748" r="0.787381" fill="black"/>
<path d="M45.131 22.2247C50.1128 21.7889 53.7981 17.397 53.3623 12.4152" stroke="black" stroke-miterlimit="10" stroke-linecap="round" stroke-linejoin="round"/>
<path d="M43.5525 4.18396C38.5707 4.61978 34.8854 9.01171 35.3213 13.9935" stroke="black" stroke-miterlimit="10" stroke-linecap="round" stroke-linejoin="round"/>
<path d="M35.135 25.7518L31.7944 22.4111L27.4777 26.3547C26.2564 27.4705 24.8606 28.3808 23.3407 29.0338C21.8944 29.6551 20.8952 31.118 20.9593 32.8061C21.0369 34.8466 22.6954 36.5122 24.7359 36.5897C26.4241 36.6537 27.891 35.6516 28.5123 34.2054C29.1653 32.6855 30.0756 31.2896 31.1913 30.0684L35.135 25.7518Z" fill="#E9A772" stroke="black" stroke-miterlimit="10" stroke-linecap="round" stroke-linejoin="round"/>
<path d="M38.4761 26.8649L38.4758 26.8652C37.8609 27.4803 36.8638 27.4804 36.2488 26.8654L30.6807 21.2974C30.0657 20.6824 30.0657 19.6855 30.6807 19.0706C31.2956 18.4557 32.2925 18.4556 32.9074 19.0705L38.4758 24.6383C39.0907 25.2532 39.0908 26.25 38.4761 26.8649Z" fill="#E9A772" stroke="black" stroke-miterlimit="10" stroke-linecap="round" stroke-linejoin="round"/>
<circle cx="44.3417" cy="18.9916" r="0.787381" fill="black"/>
<path d="M41.8221 10.7122C41.8221 10.5935 41.8304 10.4767 41.8465 10.3624C42.0198 9.12646 43.0983 8.17901 44.3938 8.20499C45.7043 8.23129 46.79 9.27591 46.8579 10.5788C46.9023 11.4308 46.5182 12.1971 45.9005 12.682C44.9265 13.4469 44.3418 14.6036 44.3418 15.8421" stroke="black" stroke-miterlimit="10" stroke-linecap="round" stroke-linejoin="round"/>
<path d="M25.8777 12.5745H32.1374" stroke="black" stroke-miterlimit="10" stroke-linecap="round" stroke-linejoin="round"/>
<path d="M29.0272 9.42493H32.7341" stroke="black" stroke-miterlimit="10" stroke-linecap="round" stroke-linejoin="round"/>
<path d="M25.6808 25.1726H28.7717" stroke="black" stroke-miterlimit="10" stroke-linecap="round" stroke-linejoin="round"/>
<path d="M25.6808 22.0231H31.4064" stroke="black" stroke-miterlimit="10" stroke-linecap="round" stroke-linejoin="round"/>
<path d="M25.6808 18.8735H30.9208" stroke="black" stroke-miterlimit="10" stroke-linecap="round" stroke-linejoin="round"/>
<path d="M24.736 36.5896H44.9716" stroke="black" stroke-miterlimit="10" stroke-linecap="round" stroke-linejoin="round" stroke-dasharray="21.4 8.6 191.06 8.6 191.06 21.4 8.6 191.06"/>
<path d="M30.9924 30.2905H44.9716" stroke="black" stroke-miterlimit="10" stroke-linecap="round" stroke-linejoin="round" stroke-dasharray="6.11 8.6 191.06 8.6 191.06 6.11 8.6 191.06"/>
<path d="M28.8682 33.4401H44.9716" stroke="black" stroke-miterlimit="10" stroke-linecap="round" stroke-linejoin="round" stroke-dasharray="11.27 8.6 191.06 8.6 191.06 11.27 8.6 191.06"/>
<path d="M20.9565 63.2174H15.0869V66.7391H20.9565V63.2174Z" fill="#E9A772"/>
<path d="M20.9565 63.2174H19.7826V66.7391H20.9565V63.2174Z" fill="#FED2A4"/>
<path d="M18.6087 66.7391L14.0164 71.0994C13.3871 71.6968 12.421 71.4679 12.0642 70.6368L10.3914 66.7391H18.6087Z" fill="#AAC191"/>
<path d="M18.6086 66.7391L22.545 71.0994C23.0843 71.6968 23.9125 71.4679 24.2182 70.6368L25.6521 66.7391H18.6086Z" fill="#AAC191"/>
<path d="M40.3212 82H20.9565L24.2435 68.7899C24.5438 67.5833 25.6039 66.7391 26.8186 66.7391H43.5101C44.8788 66.7391 45.8809 68.061 45.5426 69.4204L42.9293 79.923C42.6252 81.1449 41.5515 82 40.3212 82Z" fill="#E9A772"/>
<path d="M45.5388 69.4206L42.7709 79.9231C42.449 81.1453 41.3112 82 40.0086 82H36.2174C37.5209 82 38.6578 81.1453 38.9797 79.9231L41.7476 69.4206C42.1064 68.0611 41.0442 66.7391 39.595 66.7391H43.3862C44.8355 66.7391 45.8966 68.0611 45.5388 69.4206Z" fill="#E9A772"/>
<path d="M21.2295 82H13.3314C12.356 82 11.5652 81.2116 11.5652 80.2391C11.5652 79.2667 12.356 78.4783 13.3314 78.4783H22.1304L21.2295 82Z" fill="#E9A772"/>
<path d="M34.4565 76.1304C35.429 76.1304 36.2174 75.342 36.2174 74.3695C36.2174 73.397 35.429 72.6086 34.4565 72.6086C33.484 72.6086 32.6957 73.397 32.6957 74.3695C32.6957 75.342 33.484 76.1304 34.4565 76.1304Z" fill="#E9A772"/>
<path d="M24.1063 63.2173H13.1112C11.6091 63.2173 10.3914 61.9458 10.3914 60.3774V48.4485C10.3914 46.8801 11.6091 45.6086 13.1112 45.6086H24.1063C25.6084 45.6086 26.8261 46.8801 26.8261 48.4485V60.3774C26.8261 61.9458 25.6084 63.2173 24.1063 63.2173Z" fill="#AAC191"/>
<path d="M26.8261 48.4488V60.3772C26.8261 61.9462 25.5132 63.2173 23.8928 63.2173H19.7826C21.4021 63.2173 22.7149 61.9462 22.6748 60.3772V48.4488C22.7149 46.8798 21.4021 45.6086 19.7826 45.6086H23.8928C25.5132 45.6086 26.8261 46.8798 26.8261 48.4488Z" fill="#AAC191"/>
<path d="M35.0434 64.3912C35.6918 64.3912 36.2173 63.6029 36.2173 62.6304C36.2173 61.6579 35.6918 60.8695 35.0434 60.8695C34.3951 60.8695 33.8695 61.6579 33.8695 62.6304C33.8695 63.6029 34.3951 64.3912 35.0434 64.3912Z" fill="#E9A772"/>
<path d="M2.76087 56.174C3.73337 56.174 4.52174 55.3856 4.52174 54.4131C4.52174 53.4406 3.73337 52.6522 2.76087 52.6522C1.78837 52.6522 1 53.4406 1 54.4131C1 55.3856 1.78837 56.174 2.76087 56.174Z" fill="#E9A772"/>
<path d="M3.34786 46.7826C3.9962 46.7826 4.52178 46.2571 4.52178 45.6087C4.52178 44.9604 3.9962 44.4348 3.34786 44.4348C2.69953 44.4348 2.17395 44.9604 2.17395 45.6087C2.17395 46.2571 2.69953 46.7826 3.34786 46.7826Z" fill="#E9A772"/>
<path d="M3.34786 64.3912C3.9962 64.3912 4.52178 63.6029 4.52178 62.6304C4.52178 61.6579 3.9962 60.8695 3.34786 60.8695C2.69953 60.8695 2.17395 61.6579 2.17395 62.6304C2.17395 63.6029 2.69953 64.3912 3.34786 64.3912Z" fill="#E9A772"/>
<path d="M7.07803 66.7391H6.40522C3.42003 66.7391 1 69.2145 1 72.268V79.6254C1 80.9364 2.03984 82 3.32241 82H20.6576H35.0435" stroke="black" stroke-miterlimit="10" stroke-linecap="round" stroke-linejoin="round"/>
<path d="M29.174 66.7391H26.1686H10.3914" stroke="black" stroke-miterlimit="10" stroke-linecap="round" stroke-linejoin="round"/>
<path d="M20.9565 63.2174H15.0869V66.7391H20.9565V63.2174Z" stroke="black" stroke-miterlimit="10" stroke-linecap="round" stroke-linejoin="round"/>
<path d="M18.6087 66.7391L14.0164 71.0994C13.3871 71.6968 12.421 71.4679 12.0642 70.6368L10.3914 66.7391H18.6087Z" stroke="black" stroke-miterlimit="10" stroke-linecap="round" stroke-linejoin="round"/>
<path d="M25.6036 66.8706L25.6521 66.7391H18.6086L22.5452 71.0999C22.8266 71.4123 23.1881 71.4985 23.5124 71.3902" stroke="black" stroke-miterlimit="10" stroke-linecap="round" stroke-linejoin="round"/>
<path d="M40.3212 82H20.9565L24.2435 68.7899C24.5438 67.5833 25.6039 66.7391 26.8186 66.7391H43.5101C44.8788 66.7391 45.8809 68.061 45.5426 69.4204L42.9293 79.923C42.6252 81.1449 41.5515 82 40.3212 82Z" stroke="black" stroke-miterlimit="10" stroke-linecap="round" stroke-linejoin="round"/>
<path d="M21.2295 82H13.3314C12.356 82 11.5652 81.2116 11.5652 80.2391C11.5652 79.2667 12.356 78.4783 13.3314 78.4783H22.1304L21.2295 82Z" stroke="black" stroke-miterlimit="10" stroke-linecap="round" stroke-linejoin="round"/>
<path d="M34.4565 76.1304C35.429 76.1304 36.2174 75.342 36.2174 74.3695C36.2174 73.397 35.429 72.6086 34.4565 72.6086C33.484 72.6086 32.6957 73.397 32.6957 74.3695C32.6957 75.342 33.484 76.1304 34.4565 76.1304Z" stroke="black" stroke-miterlimit="10" stroke-linecap="round" stroke-linejoin="round"/>
<path d="M24.1063 63.2173H13.1112C11.6091 63.2173 10.3914 61.9458 10.3914 60.3774V48.4485C10.3914 46.8801 11.6091 45.6086 13.1112 45.6086H24.1063C25.6084 45.6086 26.8261 46.8801 26.8261 48.4485V60.3774C26.8261 61.9458 25.6084 63.2173 24.1063 63.2173Z" stroke="black" stroke-miterlimit="10" stroke-linecap="round" stroke-linejoin="round"/>
<path d="M13.2832 58.0593L16.1566 50.5149C16.2153 50.3714 16.4186 50.3711 16.4776 50.5145L19.3248 58.0593" stroke="black" stroke-miterlimit="10" stroke-linecap="round" stroke-linejoin="round"/>
<path d="M14.1792 56.1804H18.4431" stroke="black" stroke-miterlimit="10" stroke-linecap="round" stroke-linejoin="round"/>
<path d="M22.1027 50.4072V58.0594" stroke="black" stroke-miterlimit="10" stroke-linecap="round" stroke-linejoin="round"/>
<path d="M26.826 58.5217H31.7826C32.1881 58.5217 32.5729 58.657 32.8348 58.8916L35.0434 60.8696" stroke="black" stroke-miterlimit="10" stroke-linecap="round" stroke-linejoin="round"/>
<path d="M35.0434 64.3912C35.6918 64.3912 36.2173 63.6029 36.2173 62.6304C36.2173 61.6579 35.6918 60.8695 35.0434 60.8695C34.3951 60.8695 33.8695 61.6579 33.8695 62.6304C33.8695 63.6029 34.3951 64.3912 35.0434 64.3912Z" stroke="black" stroke-miterlimit="10" stroke-linecap="round" stroke-linejoin="round"/>
<path d="M10.3913 50.3043H7.81766C7.40783 50.3043 7.01888 50.1014 6.75413 49.7495L4.52173 46.7826" stroke="black" stroke-miterlimit="10" stroke-linecap="round" stroke-linejoin="round"/>
<path d="M10.3913 53.826H4.52173" stroke="black" stroke-miterlimit="10" stroke-linecap="round" stroke-linejoin="round"/>
<path d="M2.76087 56.174C3.73337 56.174 4.52174 55.3856 4.52174 54.4131C4.52174 53.4406 3.73337 52.6522 2.76087 52.6522C1.78837 52.6522 1 53.4406 1 54.4131C1 55.3856 1.78837 56.174 2.76087 56.174Z" stroke="black" stroke-miterlimit="10" stroke-linecap="round" stroke-linejoin="round"/>
<path d="M3.34786 46.7826C3.9962 46.7826 4.52178 46.2571 4.52178 45.6087C4.52178 44.9604 3.9962 44.4348 3.34786 44.4348C2.69953 44.4348 2.17395 44.9604 2.17395 45.6087C2.17395 46.2571 2.69953 46.7826 3.34786 46.7826Z" stroke="black" stroke-miterlimit="10" stroke-linecap="round" stroke-linejoin="round"/>
<path d="M10.3913 58.5217H7.81766C7.40783 58.5217 7.01888 58.657 6.75413 58.8916L4.52173 60.8696" stroke="black" stroke-miterlimit="10" stroke-linecap="round" stroke-linejoin="round"/>
<path d="M3.34786 64.3912C3.9962 64.3912 4.52178 63.6029 4.52178 62.6304C4.52178 61.6579 3.9962 60.8695 3.34786 60.8695C2.69953 60.8695 2.17395 61.6579 2.17395 62.6304C2.17395 63.6029 2.69953 64.3912 3.34786 64.3912Z" stroke="black" stroke-miterlimit="10" stroke-linecap="round" stroke-linejoin="round"/>
<path d="M26.826 53.826H31.5217" stroke="black" stroke-miterlimit="10" stroke-linecap="round" stroke-linejoin="round"/>
<path d="M47.9565 35.0435H52.6522V77.3043H43.2609H51.921" stroke="black" stroke-miterlimit="10"/>
<path d="M20.9565 31.5217H11.5652V46.7826" stroke="black" stroke-miterlimit="10"/>
</svg>
