<svg width="58" height="56" viewBox="0 0 58 56" fill="none" xmlns="http://www.w3.org/2000/svg">
<path d="M56.3502 44.8779V48.1307C56.3502 48.9791 55.6626 49.6667 54.8143 49.6667H2.39531C1.54708 49.6667 0.859375 48.9791 0.859375 48.1307V44.8779H56.3502Z" fill="#AAC191"/>
<path d="M54.8145 50.5258H2.39564C1.07418 50.5258 0 49.4516 0 48.1302V44.8774C0 44.403 0.384914 44.0181 0.859344 44.0181H56.3497C56.8241 44.0181 57.209 44.403 57.209 44.8774V48.1302C57.209 49.4516 56.1348 50.5258 54.8145 50.5258ZM1.71869 45.7368V48.1302C1.71869 48.5039 2.02192 48.8071 2.39564 48.8071H54.8145C55.1871 48.8071 55.4903 48.5039 55.4903 48.1302V45.7368H1.71869Z" fill="black"/>
<path d="M53.9444 45.7365H29.0312C28.5568 45.7365 28.1719 45.3516 28.1719 44.8771V41.4118C28.1719 38.3134 30.6928 35.7925 33.7912 35.7925H52.7896C53.9007 35.7925 54.8037 36.6955 54.8037 37.8066V44.8771C54.8037 45.3516 54.4188 45.7365 53.9444 45.7365ZM29.8906 44.0178H53.085V37.8066C53.085 37.6432 52.953 37.5112 52.7896 37.5112H33.7912C31.6406 37.5112 29.8906 39.2612 29.8906 41.4118V44.0178Z" fill="black"/>
<path d="M29.0316 45.7365H4.11618C3.64175 45.7365 3.25684 45.3516 3.25684 44.8771V37.8066C3.25684 36.6955 4.16094 35.7925 5.27204 35.7925H24.2716C27.3699 35.7925 29.8909 38.3134 29.8909 41.4118V44.8771C29.8909 45.3516 29.506 45.7365 29.0316 45.7365ZM4.97552 44.0178H28.1722V41.4118C28.1722 39.2612 26.4222 37.5112 24.2716 37.5112H5.27204C5.10868 37.5112 4.97552 37.6432 4.97552 37.8066V44.0178Z" fill="black"/>
<path d="M32.8422 53.5304L34.7651 49.667H22.4434L24.3662 53.5304C24.5567 53.913 24.9471 54.1548 25.3744 54.1548H31.834C32.2613 54.1548 32.6519 53.913 32.8422 53.5304Z" fill="#AAC191"/>
<path d="M31.8347 55.0139H25.375C24.6164 55.0139 23.935 54.592 23.597 53.9128L21.6736 50.0491C21.5416 49.7828 21.5561 49.4673 21.7128 49.2144C21.8694 48.9615 22.1458 48.8071 22.4434 48.8071H34.7652C35.0628 48.8071 35.3392 48.9615 35.4958 49.2144C35.6525 49.4673 35.667 49.7828 35.535 50.0491L33.6127 53.9128C33.2747 54.592 32.5933 55.0139 31.8347 55.0139ZM23.8309 50.5258L25.1367 53.1475C25.1815 53.2381 25.2732 53.2952 25.375 53.2952H31.8347C31.9354 53.2952 32.0282 53.237 32.073 53.1475L33.3777 50.5258H23.8309Z" fill="black"/>
<path d="M53.9454 41.4633H42.8847C42.4103 41.4633 42.0254 41.0784 42.0254 40.604C42.0254 40.1295 42.4103 39.7446 42.8847 39.7446H53.9454C54.4199 39.7446 54.8048 40.1295 54.8048 40.604C54.8048 41.0784 54.4199 41.4633 53.9454 41.4633Z" fill="black"/>
<path d="M15.1858 41.6244H4.11618C3.64175 41.6244 3.25684 41.2395 3.25684 40.7651C3.25684 40.2907 3.64175 39.9058 4.11618 39.9058H15.1858C15.6603 39.9058 16.0452 40.2907 16.0452 40.7651C16.0452 41.2395 15.6603 41.6244 15.1858 41.6244Z" fill="black"/>
<path d="M29.0254 33.6431C19.7538 33.6431 12.21 26.0992 12.21 16.8266C12.21 7.54835 19.7538 0 29.0254 0C38.3047 0 45.8531 7.54835 45.8531 16.8266C45.8531 26.0992 38.3047 33.6431 29.0254 33.6431ZM29.0254 1.71869C20.7005 1.71869 13.9286 8.49609 13.9286 16.8266C13.9286 25.1515 20.7005 31.9244 29.0254 31.9244C37.357 31.9244 44.1344 25.1515 44.1344 16.8266C44.1344 8.49609 37.357 1.71869 29.0254 1.71869Z" fill="black"/>
<path d="M39.197 16.8249C39.197 22.4381 34.6406 26.9869 29.0273 26.9869C23.4141 26.9869 18.8652 22.4381 18.8652 16.8249C18.8652 11.2116 23.4141 6.65527 29.0273 6.65527C34.6406 6.65527 39.197 11.2116 39.197 16.8249Z" fill="#E9A772"/>
<path d="M29.0274 27.8457C22.9504 27.8457 18.0059 22.9022 18.0059 16.8253C18.0059 10.7438 22.9504 5.7959 29.0274 5.7959C35.1088 5.7959 40.0568 10.7438 40.0568 16.8253C40.0568 22.9022 35.1088 27.8457 29.0274 27.8457ZM29.0274 7.51459C23.8982 7.51459 19.7245 11.6916 19.7245 16.8253C19.7245 21.9545 23.8982 26.127 29.0274 26.127C34.1611 26.127 38.3381 21.9545 38.3381 16.8253C38.3381 11.6916 34.1611 7.51459 29.0274 7.51459Z" fill="black"/>
<path d="M29.1151 41.4664H28.954C28.5344 41.4664 28.1752 41.1632 28.1059 40.7481C27.9145 39.5967 27.1894 38.5695 26.1656 38.0011C25.8926 37.85 25.7236 37.5625 25.7236 37.2503V32.5977C25.7236 32.3471 25.8333 32.1088 26.0235 31.9454C26.2137 31.782 26.4666 31.7126 26.7139 31.7485C26.997 31.7921 27.2924 31.8245 27.5867 31.8581L28.239 31.8995C28.7604 31.9219 29.2841 31.9219 29.81 31.8995L30.506 31.8548C30.7566 31.8245 31.0531 31.7921 31.3485 31.7473C31.5958 31.7149 31.8465 31.7831 32.0367 31.9465C32.2258 32.1099 32.3343 32.3482 32.3343 32.5977V37.2615C32.3343 37.5736 32.1654 37.8612 31.8923 38.0123C30.8607 38.5852 30.1569 39.5821 29.9633 40.7481C29.8939 41.1632 29.5347 41.4664 29.1151 41.4664ZM27.4423 36.7714C28.0902 37.2122 28.6295 37.7773 29.0346 38.4285C29.4374 37.7818 29.9734 37.2212 30.6156 36.7826V33.5678L29.8883 33.616C29.3087 33.6428 28.7358 33.6428 28.1607 33.616L27.458 33.5712C27.4524 33.5712 27.4479 33.5701 27.4423 33.5701V36.7714Z" fill="black"/>
<path d="M28.086 20.99C27.6116 20.99 27.2267 20.6051 27.2267 20.1307V15.5654C27.2267 15.2443 27.1036 14.9478 26.8809 14.7285C26.6482 14.4968 26.3461 14.3715 26.0249 14.3715C25.3625 14.3715 24.8232 14.9075 24.8232 15.5654V20.1307C24.8232 20.6051 24.4383 20.99 23.9638 20.99C23.4894 20.99 23.1045 20.6051 23.1045 20.1307V15.5654C23.1045 13.9598 24.4148 12.6528 26.0249 12.6528C26.8037 12.6528 27.5377 12.9561 28.0894 13.5066C28.6399 14.047 28.9453 14.7799 28.9453 15.5654V20.1307C28.9453 20.6051 28.5604 20.99 28.086 20.99Z" fill="black"/>
<path d="M32.8652 20.7562C32.3908 20.7562 32.0059 20.3713 32.0059 19.8968V13.9419C32.0059 13.4674 32.3908 13.0825 32.8652 13.0825C33.3396 13.0825 33.7245 13.4674 33.7245 13.9419V19.8968C33.7245 20.3713 33.3396 20.7562 32.8652 20.7562Z" fill="black"/>
<path d="M34.0981 14.8012H31.6308C31.1564 14.8012 30.7715 14.4163 30.7715 13.9419C30.7715 13.4674 31.1564 13.0825 31.6308 13.0825H34.0981C34.5725 13.0825 34.9574 13.4674 34.9574 13.9419C34.9574 14.4163 34.5725 14.8012 34.0981 14.8012Z" fill="black"/>
<path d="M34.0981 20.7563H31.6308C31.1564 20.7563 30.7715 20.3714 30.7715 19.8969C30.7715 19.4225 31.1564 19.0376 31.6308 19.0376H34.0981C34.5725 19.0376 34.9574 19.4225 34.9574 19.8969C34.9574 20.3714 34.5725 20.7563 34.0981 20.7563Z" fill="black"/>
<path d="M28.086 18.061H23.9638C23.4894 18.061 23.1045 17.6761 23.1045 17.2016C23.1045 16.7272 23.4894 16.3423 23.9638 16.3423H28.086C28.5604 16.3423 28.9453 16.7272 28.9453 17.2016C28.9453 17.6761 28.5604 18.061 28.086 18.061Z" fill="black"/>
<path d="M51.2203 17.7978H45.8125C45.338 17.7978 44.9531 17.4129 44.9531 16.9384C44.9531 16.464 45.338 16.0791 45.8125 16.0791H51.2203C51.6947 16.0791 52.0796 16.464 52.0796 16.9384C52.0796 17.4129 51.6947 17.7978 51.2203 17.7978Z" fill="black"/>
<path d="M55.5536 16.9383C55.5536 18.3377 54.4134 19.4779 53.014 19.4779C51.6148 19.4779 50.4746 18.3377 50.4746 16.9383C50.4746 15.5391 51.6148 14.3989 53.014 14.3989C54.4134 14.3989 55.5536 15.5391 55.5536 16.9383Z" fill="#E9A772"/>
<path d="M53.0146 20.3376C51.1403 20.3376 49.6152 18.8125 49.6152 16.9383C49.6152 15.064 51.1403 13.54 53.0146 13.54C54.8888 13.54 56.4128 15.064 56.4128 16.9383C56.4128 18.8125 54.8888 20.3376 53.0146 20.3376ZM53.0146 15.2587C52.0881 15.2587 51.3339 16.0118 51.3339 16.9383C51.3339 17.8647 52.0881 18.6189 53.0146 18.6189C53.941 18.6189 54.6941 17.8647 54.6941 16.9383C54.6941 16.0118 53.941 15.2587 53.0146 15.2587Z" fill="black"/>
<path d="M52.6462 10.7854H43.7148C43.2404 10.7854 42.8555 10.4005 42.8555 9.9261C42.8555 9.45167 43.2404 9.06675 43.7148 9.06675H52.6462C52.7715 9.06675 52.8733 8.96493 52.8733 8.83961L52.8744 5.48727C52.8744 5.01284 53.2593 4.62793 53.7338 4.62793C54.2082 4.62793 54.5931 5.01284 54.5931 5.48727L54.592 8.83961C54.592 9.91267 53.7192 10.7854 52.6462 10.7854Z" fill="black"/>
<path d="M53.7332 5.48691C54.9558 5.48691 55.9469 4.49582 55.9469 3.27324C55.9469 2.05066 54.9558 1.05957 53.7332 1.05957C52.5106 1.05957 51.5195 2.05066 51.5195 3.27324C51.5195 4.49582 52.5106 5.48691 53.7332 5.48691Z" fill="#9FD25A"/>
<path d="M53.7339 6.34652C52.0387 6.34652 50.6602 4.96799 50.6602 3.27392C50.6602 1.57873 52.0387 0.200195 53.7339 0.200195C55.4291 0.200195 56.8076 1.57873 56.8076 3.27392C56.8076 4.96799 55.4291 6.34652 53.7339 6.34652ZM53.7339 1.91888C52.9864 1.91888 52.3788 2.52647 52.3788 3.27392C52.3788 4.02025 52.9864 4.62783 53.7339 4.62783C54.4813 4.62783 55.0889 4.02025 55.0889 3.27392C55.0889 2.52647 54.4813 1.91888 53.7339 1.91888Z" fill="black"/>
<path d="M53.7338 29.0138C53.2594 29.0138 52.8745 28.6289 52.8745 28.1545L52.8733 24.8021C52.8733 24.6779 52.7715 24.5761 52.6462 24.5761H43.4306C42.9562 24.5761 42.5713 24.1912 42.5713 23.7168C42.5713 23.2423 42.9562 22.8574 43.4306 22.8574H52.6462C53.7193 22.8574 54.592 23.7302 54.592 24.8021L54.5932 28.1545C54.5932 28.6289 54.2082 29.0138 53.7338 29.0138Z" fill="black"/>
<path d="M53.7332 32.5821C54.9558 32.5821 55.9469 31.591 55.9469 30.3685C55.9469 29.1459 54.9558 28.1548 53.7332 28.1548C52.5106 28.1548 51.5195 29.1459 51.5195 30.3685C51.5195 31.591 52.5106 32.5821 53.7332 32.5821Z" fill="#9FD25A"/>
<path d="M53.7339 33.4412C52.0387 33.4412 50.6602 32.0627 50.6602 30.3686C50.6602 28.6735 52.0387 27.2949 53.7339 27.2949C55.4291 27.2949 56.8076 28.6735 56.8076 30.3686C56.8076 32.0627 55.4291 33.4412 53.7339 33.4412ZM53.7339 29.0136C52.9864 29.0136 52.3788 29.6212 52.3788 30.3686C52.3788 31.115 52.9864 31.7226 53.7339 31.7226C54.4813 31.7226 55.0889 31.115 55.0889 30.3686C55.0889 29.6212 54.4813 29.0136 53.7339 29.0136Z" fill="black"/>
<path d="M12.2486 17.7978H6.84079C6.36636 17.7978 5.98145 17.4129 5.98145 16.9384C5.98145 16.464 6.36636 16.0791 6.84079 16.0791H12.2486C12.723 16.0791 13.108 16.464 13.108 16.9384C13.108 17.4129 12.723 17.7978 12.2486 17.7978Z" fill="black"/>
<path d="M2.50684 16.9383C2.50684 18.3377 3.64701 19.4779 5.04625 19.4779C6.4455 19.4779 7.58567 18.3377 7.58567 16.9383C7.58567 15.5391 6.4455 14.3989 5.04625 14.3989C3.64701 14.3989 2.50684 15.5391 2.50684 16.9383Z" fill="#E9A772"/>
<path d="M5.04665 20.3376C3.17243 20.3376 1.64844 18.8125 1.64844 16.9383C1.64844 15.064 3.17243 13.54 5.04665 13.54C6.92087 13.54 8.44598 15.064 8.44598 16.9383C8.44598 18.8125 6.92087 20.3376 5.04665 20.3376ZM5.04665 15.2587C4.12017 15.2587 3.36713 16.0118 3.36713 16.9383C3.36713 17.8647 4.12017 18.6189 5.04665 18.6189C5.97313 18.6189 6.72729 17.8647 6.72729 16.9383C6.72729 16.0118 5.97313 15.2587 5.04665 15.2587Z" fill="black"/>
<path d="M14.6325 10.7854H5.41472C4.34166 10.7854 3.46889 9.91267 3.46889 8.83961L3.46777 5.48727C3.46777 5.01284 3.85269 4.62793 4.32712 4.62793C4.80155 4.62793 5.18646 5.01284 5.18646 5.48727L5.18758 8.83961C5.18758 8.96493 5.2894 9.06675 5.41472 9.06675H14.6325C15.107 9.06675 15.4919 9.45167 15.4919 9.9261C15.4919 10.4005 15.107 10.7854 14.6325 10.7854Z" fill="black"/>
<path d="M2.11328 3.2737C2.11328 4.49374 3.10748 5.48783 4.32752 5.48783C5.54756 5.48783 6.54165 4.49374 6.54165 3.2737C6.54165 2.05366 5.54756 1.05957 4.32752 1.05957C3.10748 1.05957 2.11328 2.05366 2.11328 3.2737Z" fill="#9FD25A"/>
<path d="M4.32763 6.34652C2.63244 6.34652 1.25391 4.96799 1.25391 3.27392C1.25391 1.57873 2.63244 0.200195 4.32763 0.200195C6.02282 0.200195 7.40135 1.57873 7.40135 3.27392C7.40135 4.96799 6.02282 6.34652 4.32763 6.34652ZM4.32763 1.91888C3.58018 1.91888 2.97259 2.52647 2.97259 3.27392C2.97259 4.02025 3.58018 4.62783 4.32763 4.62783C5.07508 4.62783 5.68266 4.02025 5.68266 3.27392C5.68266 2.52647 5.07508 1.91888 4.32763 1.91888Z" fill="black"/>
<path d="M4.32712 29.0138C3.85269 29.0138 3.46777 28.6289 3.46777 28.1545L3.46889 24.8021C3.46889 23.7302 4.34166 22.8574 5.41472 22.8574H14.5307C15.0051 22.8574 15.3901 23.2423 15.3901 23.7168C15.3901 24.1912 15.0051 24.5761 14.5307 24.5761H5.41472C5.2894 24.5761 5.18758 24.6779 5.18758 24.8021L5.18646 28.1545C5.18646 28.6289 4.80155 29.0138 4.32712 29.0138Z" fill="black"/>
<path d="M2.11328 30.3679C2.11328 29.1479 3.10748 28.1538 4.32752 28.1538C5.54756 28.1538 6.54165 29.1479 6.54165 30.3679C6.54165 31.588 5.54756 32.5821 4.32752 32.5821C3.10748 32.5821 2.11328 31.588 2.11328 30.3679Z" fill="#9FD25A"/>
<path d="M4.32763 33.4412C2.63244 33.4412 1.25391 32.0627 1.25391 30.3686C1.25391 28.6735 2.63244 27.2949 4.32763 27.2949C6.02282 27.2949 7.40135 28.6735 7.40135 30.3686C7.40135 32.0627 6.02282 33.4412 4.32763 33.4412ZM4.32763 29.0136C3.58018 29.0136 2.97259 29.6212 2.97259 30.3686C2.97259 31.115 3.58018 31.7226 4.32763 31.7226C5.07508 31.7226 5.68266 31.115 5.68266 30.3686C5.68266 29.6212 5.07508 29.0136 4.32763 29.0136Z" fill="black"/>
</svg>
