<svg width="165" height="155" viewBox="0 0 165 155" fill="none" xmlns="http://www.w3.org/2000/svg">
<path d="M0.0042803 58.8871C1.50666 55.6726 4.1048 54.5041 7.52476 54.8208C8.05124 54.8679 8.59056 54.8123 9.12559 54.7952C9.22404 54.7952 9.32249 54.7352 9.54934 54.6625C9.87893 52.0601 8.93298 49.1153 11.2486 46.8682C13.5001 44.681 16.3336 45.3743 19.2357 45.1475C19.2357 43.9319 19.2314 42.7292 19.2357 41.5264C19.2571 38.1108 21.4528 35.6325 24.8514 35.6325C36.6479 35.6325 48.4572 35.5084 60.2409 35.9364C67.3462 36.1932 73.7752 39.0867 79.6264 43.1443C81.9934 44.788 82.0447 44.8051 84.3818 43.1743C91.9365 37.901 100.33 35.5084 109.516 35.5812C119.074 35.6582 128.632 35.6839 138.189 35.5555C142.097 35.5041 145.23 37.9567 144.832 42.2712C144.751 43.1615 144.82 44.0689 144.82 45.1175C147.576 45.4386 150.491 44.6253 152.768 46.8211C155.101 49.0725 154.181 52.0002 154.523 54.8166C155.76 54.8166 156.924 54.7994 158.084 54.8166C161.761 54.8893 164.042 57.2007 164.042 60.8774C164.047 77.2707 164.038 93.664 164.06 110.053C164.06 111.436 163.679 112.514 162.296 112.921C161.153 113.259 160.117 112.869 159.591 111.778C159.308 111.192 159.266 110.447 159.266 109.771C159.248 94.0706 159.253 78.375 159.253 62.6751C159.253 59.4735 159.561 59.756 156.329 59.7474C155.756 59.7474 155.182 59.7474 154.437 59.7474C154.437 60.5264 154.437 61.1513 154.437 61.7762C154.437 84.4144 154.36 107.057 154.497 129.695C154.527 134.536 151.561 136.706 147.405 136.685C129.303 136.582 111.202 136.642 93.1007 136.642H90.9135C90.9135 138.666 90.9135 140.618 90.9135 142.566C90.9049 145.498 90.1516 146.247 87.1939 146.251C83.6156 146.255 80.0373 146.268 76.4632 146.247C74.0363 146.234 73.1802 145.369 73.1588 142.955C73.1417 140.935 73.1588 138.91 73.1588 136.642H71.0401C52.8317 136.642 34.6233 136.633 16.4149 136.65C14.1806 136.65 12.0662 136.287 10.7778 134.296C10.1486 133.32 9.69059 132.036 9.68203 130.894C9.60499 118.134 9.63067 105.37 9.63495 92.6111C9.63495 90.762 10.5509 89.6534 12.0319 89.6577C13.5086 89.6577 14.4246 90.7663 14.4246 92.6197C14.4289 105.007 14.4503 117.394 14.3989 129.785C14.3946 131.245 14.8055 131.737 16.2951 131.732C34.7689 131.694 53.2469 131.707 71.7207 131.703C72.123 131.703 72.5254 131.647 72.9277 131.617L73.0647 131.142C70.7362 130.234 68.4719 129.032 66.0578 128.488C62.7534 127.743 59.3463 127.161 55.9692 127.101C45.8805 126.926 35.7876 127.033 25.6946 127.041C23.3704 127.041 21.2731 126.446 20.1174 124.293C19.5652 123.266 19.2785 121.974 19.2742 120.805C19.2271 97.9528 19.2399 75.0963 19.2399 52.2441V50.1468C18.1228 50.1468 17.1212 50.2153 16.1324 50.1297C14.7841 50.0141 14.3904 50.5706 14.3989 51.8846C14.446 59.5205 14.4246 67.1565 14.4203 74.7924C14.4203 76.7143 14.4374 78.6361 14.416 80.5579C14.3946 82.3 13.4787 83.2844 11.9592 83.2502C10.5253 83.2202 9.63923 82.2486 9.63495 80.5879C9.61783 74.2874 9.62639 67.9869 9.62639 61.6863C9.62639 61.1085 9.62639 60.535 9.62639 59.7645C8.28666 59.7645 7.06677 59.6746 5.87685 59.8159C5.48734 59.863 5.08071 60.4494 4.8453 60.8817C4.68693 61.1684 4.81105 61.6136 4.81105 61.986C4.81105 87.6674 4.81105 113.353 4.81105 139.035C4.81105 140.555 5.58008 141.317 7.11813 141.32C26.8203 141.32 46.5225 141.32 66.229 141.32C69.2424 141.32 69.7474 141.757 70.1498 144.68C70.4837 147.103 72.5254 149.192 74.9865 149.243C79.682 149.346 84.3818 149.35 89.0773 149.243C91.6026 149.183 93.6187 147.056 93.9311 144.513C94.2521 141.894 94.8856 141.32 97.5223 141.32C117.332 141.32 137.141 141.32 156.954 141.32C158.489 141.32 159.257 140.557 159.257 139.03C159.257 133.372 159.27 127.709 159.248 122.051C159.244 120.754 159.809 119.696 161.02 119.577C161.864 119.491 162.848 120.077 163.636 120.574C163.957 120.775 164.025 121.537 164.03 122.046C164.055 128.295 164.072 134.54 164.03 140.789C164.008 143.64 161.924 145.785 158.902 146.187C158.217 146.277 157.515 146.26 156.822 146.26C138.027 146.26 119.232 146.272 100.433 146.243C99.1916 146.243 98.5196 146.465 97.976 147.805C96.3366 151.833 93.1179 154.041 88.8162 154.187C83.9666 154.349 79.0956 154.354 74.2589 154.028C70.1883 153.754 67.3762 151.28 65.9166 147.501C65.4457 146.281 64.7523 146.255 63.7465 146.255C45.0587 146.272 26.3709 146.221 7.67885 146.307C4.23321 146.324 1.52379 145.489 0 142.181V58.8871H0.0042803ZM122.429 81.1272C123.303 82.0432 123.992 82.7066 124.612 83.43C125.426 84.3716 126.175 84.7526 127.583 84.3288C130.677 83.3957 133.935 84.9152 135.536 87.676C137.111 90.3896 136.743 93.8395 134.637 96.1509C132.45 98.5478 129.051 99.2155 126.157 97.8159C123.281 96.4248 121.441 93.2574 122.211 90.1585C122.631 88.4764 121.954 87.753 121.025 86.6487C119.069 84.3245 116.792 83.4385 113.77 83.751C111.258 84.0121 108.698 83.8023 106.156 83.8023V93.5014C108.544 93.5014 110.834 93.5527 113.12 93.48C114.429 93.4372 115.333 93.9208 116.112 94.9438C117.862 97.2337 119.699 99.4595 121.471 101.728C122.699 103.303 123.726 105.208 126.273 104.185C126.316 104.168 126.38 104.185 126.431 104.193C129.761 104.446 132.394 106.676 133.156 109.882C133.832 112.745 132.522 115.896 129.971 117.514C127.287 119.221 123.91 119.02 121.471 117.008C119.005 114.98 118.179 111.68 119.476 108.611C119.823 107.793 119.728 107.297 119.185 106.633C117.152 104.159 115.191 101.625 113.188 99.1299C112.936 98.8132 112.58 98.3637 112.259 98.3509C110.205 98.2781 108.15 98.3167 106.117 98.3167C105.835 103.372 103.767 105.345 98.9647 105.345C95.1724 105.345 91.3843 105.345 87.592 105.345C86.5947 105.345 85.6017 105.345 84.6386 105.345V129.417C85.1736 129.113 85.546 128.92 85.897 128.698C90.9049 125.492 96.3067 123.159 102.235 122.663C107.859 122.188 113.531 122.256 119.181 122.136C121.072 122.098 122.138 123.018 122.181 124.507C122.224 126.061 121.12 127.029 119.163 127.054C116.655 127.088 114.143 127.076 111.634 127.058C107.521 127.029 103.416 126.99 99.3971 128.081C96.495 128.869 93.6657 129.815 91.1232 131.514C91.6583 131.681 92.1676 131.732 92.6727 131.732C110.932 131.732 129.196 131.732 147.456 131.732C149.635 131.732 149.639 131.728 149.639 129.481C149.639 103.8 149.639 78.1139 149.639 52.4325C149.639 52.0044 149.763 51.5165 149.596 51.1655C149.408 50.7717 148.976 50.2581 148.608 50.2196C147.405 50.0997 146.185 50.1768 144.82 50.1768V52.2185C144.82 75.0707 144.82 97.9229 144.82 120.779C144.82 124.67 142.598 126.973 138.729 127.05C136.327 127.097 133.922 127.088 131.521 127.05C129.723 127.02 128.554 125.988 128.563 124.563C128.572 123.129 129.74 122.149 131.546 122.128C133.682 122.102 135.822 122.029 137.954 122.149C139.559 122.239 140.06 121.717 140.06 120.077C140.013 94.2333 140.017 68.3892 140.056 42.5494C140.056 41.0385 139.666 40.5163 138.087 40.5248C128.636 40.589 119.181 40.726 109.734 40.5077C100.651 40.298 92.647 43.0373 85.4176 48.362C85.0324 48.6445 84.5616 49.141 84.5487 49.5519C84.4674 52.09 84.5102 54.6325 84.5102 57.2477C85.0195 57.2734 85.332 57.2991 85.6445 57.3034C86.1795 57.3119 86.7145 57.2991 87.2453 57.3034C88.9959 57.3333 90.0232 58.2151 90.0318 59.6832C90.0403 61.1556 89.0088 62.0887 87.2753 62.0887C79.9046 62.1015 72.5382 62.0887 65.1675 62.0973C63.006 62.0973 62.8048 62.3027 62.8048 64.4985C62.8048 75.7127 62.8048 86.9226 62.8048 98.1369C62.8048 100.388 62.9803 100.555 65.3088 100.555C76.4675 100.555 87.6262 100.555 98.7893 100.555C101.092 100.555 101.263 100.388 101.263 98.1112C101.263 87.1666 101.263 76.2178 101.263 65.2732C101.263 62.4568 101.263 62.4696 98.5581 62.0758C97.3639 61.9004 96.6277 61.1856 96.4822 59.9828C96.3238 58.6859 96.9573 57.6458 98.1601 57.4147C102.56 56.5629 105.689 59.1011 106.053 62.7949C106.091 63.2015 106.126 63.6082 106.177 64.1304C108.133 64.1304 109.995 64.186 111.848 64.0918C112.336 64.0662 112.927 63.6809 113.257 63.2829C115.29 60.8089 117.293 58.3092 119.215 55.7497C119.536 55.3216 119.502 54.5512 119.472 53.9477C119.395 52.3811 118.855 50.7418 119.168 49.2779C119.994 45.4343 123.868 43.1358 127.583 43.9662C131.427 44.8265 133.952 48.6102 133.216 52.4025C132.475 56.2205 128.82 58.8229 124.899 58.1594C123.927 57.9968 123.461 58.2279 122.922 58.9256C120.764 61.7077 118.513 64.4214 116.39 67.2335C115.397 68.5519 114.233 69.1639 112.58 69.0997C110.466 69.0141 108.343 69.0783 106.168 69.0783V78.8758C108.51 78.8758 110.774 78.6489 112.974 78.9272C116.582 79.3809 119.343 78.2851 121.573 75.4174C122.241 74.557 122.652 74.0006 122.301 72.8278C121.423 69.883 122.887 66.6215 125.588 64.9864C128.298 63.3471 131.846 63.7152 134.2 65.8767C136.499 67.9869 137.171 71.4025 135.848 74.2403C134.525 77.0695 131.302 79.1283 128.413 78.2766C126.247 77.6388 125.164 78.4392 123.966 79.8089C123.551 80.284 123.011 80.6564 122.446 81.1443L122.429 81.1272ZM79.545 57.2905C79.545 54.5854 79.5707 52.0387 79.5151 49.4919C79.5065 49.1538 79.1641 48.7343 78.8602 48.5075C72.0288 43.4782 64.5169 40.4564 55.8836 40.5248C45.9533 40.6062 36.023 40.5762 26.0927 40.5077C24.4919 40.4949 23.9953 40.9272 23.9953 42.5708C24.0424 68.4106 24.0424 94.2504 23.9953 120.09C23.9953 121.764 24.5603 122.149 26.1227 122.14C35.9459 122.081 45.7692 122.093 55.5925 122.115C63.6223 122.132 71.07 124.208 77.8757 128.505C78.3508 128.805 78.8431 129.083 79.4466 129.443V105.336C78.7617 105.336 78.1839 105.336 77.6061 105.336C73.069 105.336 68.5318 105.353 63.9904 105.328C61.1355 105.315 58.8027 103.509 58.1478 100.786C57.9638 100.029 57.9852 99.2198 57.8996 98.2867C55.9007 98.2867 53.936 98.2439 51.9756 98.3209C51.599 98.3381 51.1581 98.7575 50.8842 99.0957C48.8382 101.625 46.7922 104.159 44.8361 106.762C44.5194 107.185 44.4295 108.033 44.6178 108.542C45.8291 111.799 44.9816 115.185 42.345 117.171C39.6784 119.179 36.0358 119.136 33.442 117.064C30.9166 115.048 30.0477 111.517 31.3489 108.542C32.6886 105.469 35.7533 103.783 39.1604 104.343C40.0935 104.497 40.6115 104.219 41.1636 103.504C43.3808 100.632 45.7007 97.8373 47.9094 94.9609C48.7397 93.8823 49.69 93.4201 51.0468 93.4671C53.3197 93.5442 55.6011 93.4885 57.9081 93.4885V83.7638C55.5968 83.7638 53.3411 83.9821 51.1453 83.7125C47.4899 83.263 44.6606 84.3545 42.3921 87.2565C41.78 88.0398 41.4675 88.5534 41.7457 89.5978C43.0898 94.6185 38.4842 99.4424 33.4548 98.3766C29.3158 97.4991 26.739 93.5827 27.7106 89.6534C28.7465 85.4759 32.8042 83.2117 37.0203 84.4187C37.4569 84.5428 38.1417 84.5728 38.4242 84.3245C39.49 83.3829 40.436 82.3043 41.4632 81.2385C40.5558 80.3097 39.627 79.4365 38.7923 78.482C38.2059 77.8143 37.6623 77.8015 36.8405 78.0454C33.6731 78.9871 30.4843 77.7886 28.7208 75.1135C26.9573 72.4426 27.1756 68.9499 29.2558 66.4845C31.2761 64.0918 34.6618 63.27 37.5425 64.4813C40.4873 65.7183 42.5633 68.7231 41.8313 71.9076C41.3134 74.1632 42.2594 75.2119 43.6119 76.4189C44.2497 76.9882 44.8147 77.6345 45.4525 78.1995C45.7564 78.4649 46.1544 78.803 46.5097 78.8073C50.2849 78.8501 54.0602 78.833 57.891 78.833V69.0484C55.6053 69.0484 53.4224 69.0056 51.2437 69.0655C49.7756 69.1083 48.7141 68.5561 47.8238 67.3962C45.6451 64.5627 43.3765 61.7976 41.1936 58.9641C40.6157 58.2151 40.1192 57.9583 39.0877 58.1337C35.7405 58.7073 32.6073 56.8796 31.3147 53.8235C30.0306 50.7889 30.9123 47.4032 33.5147 45.3358C36.0572 43.3198 39.704 43.277 42.2851 45.2331C44.9645 47.2619 45.9062 50.6262 44.5793 53.8107C44.2454 54.6068 44.2797 55.129 44.8318 55.801C46.8307 58.2365 48.7526 60.7276 50.7258 63.1802C51.0083 63.5311 51.4192 64.0148 51.7873 64.0319C53.8376 64.1132 55.8964 64.0704 57.9253 64.0704C58.2078 59.3279 60.3693 57.2734 64.8379 57.2734C66.5458 57.2734 68.2536 57.2734 69.9615 57.2734C73.0989 57.2734 76.2321 57.2734 79.5322 57.2734L79.545 57.2905ZM85.867 141.243V134.587H78.2181V141.243H85.867ZM40.3589 51.1099C40.406 49.89 39.3274 48.7215 38.0861 48.653C36.8662 48.5803 35.6891 49.6332 35.5907 50.883C35.4922 52.15 36.6522 53.4084 37.9363 53.4298C39.1519 53.4512 40.3118 52.3383 40.3589 51.1099ZM126.055 53.4298C127.27 53.4426 128.426 52.3297 128.469 51.1013C128.507 49.8857 127.42 48.7172 126.183 48.653C124.912 48.5845 123.679 49.7744 123.688 51.0542C123.696 52.257 124.852 53.4169 126.055 53.4298ZM37.153 71.1286C37.1273 69.883 36.023 68.8087 34.7689 68.8087C33.4462 68.8087 32.3034 69.99 32.3804 71.2826C32.4532 72.5239 33.6132 73.5897 34.8416 73.5426C36.0829 73.4955 37.1787 72.3527 37.153 71.1286ZM129.278 73.5469C130.506 73.5469 131.649 72.434 131.675 71.2099C131.7 69.9772 130.622 68.8558 129.363 68.813C128.045 68.7659 126.864 69.9044 126.889 71.2056C126.911 72.434 128.049 73.5512 129.278 73.5512V73.5469ZM37.153 91.2286C37.1102 89.9873 36.0101 88.9558 34.7389 88.9686C33.4077 88.9814 32.2906 90.1542 32.3847 91.4426C32.4789 92.6967 33.5961 93.6769 34.8759 93.6255C36.1428 93.5699 37.2001 92.4613 37.153 91.2286ZM129.359 88.9729C128.084 88.9386 126.975 89.9317 126.902 91.1858C126.825 92.4741 127.964 93.6426 129.291 93.6384C130.553 93.6384 131.653 92.5726 131.675 91.3356C131.696 90.0986 130.63 89.0114 129.359 88.9772V88.9729ZM35.5864 111.307C35.5093 112.531 36.5495 113.666 37.8079 113.738C39.1091 113.811 40.222 112.891 40.3504 111.637C40.4745 110.421 39.4643 109.24 38.2145 109.133C36.8491 109.017 35.6677 109.997 35.5864 111.311V111.307ZM128.469 111.389C128.443 110.147 127.36 109.116 126.08 109.116C124.801 109.116 123.722 110.143 123.696 111.389C123.671 112.69 124.809 113.777 126.162 113.738C127.433 113.704 128.495 112.625 128.469 111.389Z" fill="white"/>
<path d="M0 16.9005C0.864732 15.7489 2.00344 15.3251 3.44608 15.3808C5.57367 15.4621 7.70553 15.3808 9.83311 15.4107C11.9907 15.4407 12.804 16.284 12.8126 18.4373C12.8211 20.8303 12.834 23.2275 12.8083 25.6205C12.7912 27.29 11.9778 28.2532 10.3126 28.3131C7.70981 28.4073 5.08993 28.4587 2.49574 28.266C1.631 28.2018 0.830485 27.3328 0 26.832V16.9005ZM7.91101 23.326V20.4707H4.88445V23.326H7.91101Z" fill="white"/>
<path d="M58.952 22.7133C58.952 25.0075 58.9648 27.3017 58.952 29.596C58.9391 31.4793 58.1345 32.4723 56.3196 32.498C51.5728 32.5622 46.8216 32.5622 42.0705 32.498C40.2471 32.4723 39.4338 31.4878 39.4296 29.6045C39.4167 24.9605 39.4167 20.3164 39.4296 15.6766C39.4338 13.8147 40.2813 12.8859 42.139 12.8688C46.8345 12.826 51.53 12.826 56.2297 12.8688C58.0916 12.8859 58.9391 13.8147 58.952 15.668C58.9691 18.0179 58.9563 20.3635 58.9563 22.7133H58.952ZM54.0639 27.5072V17.9023H44.3305V27.5072H54.0639Z" fill="white"/>
<path d="M105.098 22.6281C105.098 20.2782 105.081 17.9326 105.103 15.5828C105.12 13.8193 105.963 12.8777 107.735 12.8605C112.486 12.8092 117.233 12.8092 121.984 12.8605C123.756 12.8777 124.612 13.8193 124.621 15.5828C124.638 20.2782 124.638 24.9736 124.621 29.6733C124.616 31.4582 123.803 32.4598 122.065 32.4854C117.263 32.5582 112.46 32.5582 107.658 32.4854C105.916 32.4598 105.115 31.4625 105.103 29.6776C105.085 27.3278 105.098 24.9822 105.098 22.6323V22.6281ZM109.978 17.8556V27.4733H119.724V17.8556H109.978Z" fill="white"/>
<path d="M32.6861 8.03456C32.6861 9.79374 32.699 11.5572 32.6861 13.3164C32.669 15.1055 31.8771 16.0985 30.1393 16.1371C26.5139 16.2184 22.88 16.2184 19.2545 16.1371C17.5082 16.0985 16.6949 15.1141 16.6864 13.3421C16.6692 9.81942 16.665 6.29679 16.6864 2.77843C16.6949 1.00641 17.5381 0.073314 19.3059 0.0433523C22.88 -0.0165711 26.4583 -0.0122908 30.0323 0.0433523C31.8643 0.073314 32.669 1.01497 32.6861 2.91111C32.699 4.61893 32.6861 6.32675 32.6861 8.03456ZM21.5402 11.1591H27.8023V5.07264H21.5402V11.1549V11.1591Z" fill="white"/>
<path d="M147.379 8.09736C147.379 9.85654 147.396 11.62 147.375 13.3792C147.353 15.1426 146.532 16.1185 144.777 16.1528C141.151 16.2255 137.517 16.2255 133.892 16.1442C132.218 16.1057 131.388 15.1255 131.379 13.4605C131.358 9.8865 131.358 6.30822 131.379 2.73422C131.388 1.05208 132.227 0.0890298 133.892 0.0633483C137.573 -0.000855268 141.258 -0.0051355 144.935 0.0719088C146.519 0.106151 147.341 1.0692 147.371 2.65717C147.4 4.472 147.379 6.28682 147.379 8.10164V8.09736ZM136.259 11.1363H142.47V5.05411H136.259V11.1363Z" fill="white"/>
<path d="M74.0369 24.7098C74.0369 22.9507 74.0198 21.1872 74.0412 19.428C74.0626 17.7202 74.8587 16.7529 76.5152 16.7186C80.1963 16.6459 83.8773 16.6459 87.5584 16.7186C89.2148 16.7529 90.0238 17.7245 90.0367 19.428C90.0581 22.9507 90.0538 26.4733 90.0367 29.9917C90.0281 31.7765 89.2191 32.7653 87.4813 32.8038C83.8559 32.8851 80.2219 32.8851 76.5965 32.8038C74.8544 32.7653 74.0583 31.7808 74.0369 29.9959C74.0198 28.2368 74.0369 26.4733 74.0369 24.7141V24.7098ZM85.1186 27.8344V21.718H78.9336V27.8344H85.1186Z" fill="white"/>
<path d="M74.3525 6.57218C74.3525 7.80077 74.3697 9.02509 74.3483 10.2537C74.314 11.9232 73.5092 12.8821 71.8354 12.942C69.2797 13.0362 66.7112 13.0319 64.1555 12.9506C62.4004 12.8949 61.5699 11.9403 61.5571 10.1766C61.5357 7.72372 61.5357 5.26653 61.5571 2.81362C61.5699 1.02852 62.3961 0.0953016 64.1513 0.0482126C66.6556 -0.0202805 69.1684 -0.0117189 71.6727 0.0482126C73.5178 0.0910208 74.3311 1.00712 74.3568 2.89068C74.3697 4.11927 74.3568 5.34358 74.3568 6.57218H74.3525ZM66.4372 5.05677V7.92492H69.4338V5.05677H66.4372Z" fill="white"/>
<path d="M102.54 6.56411C102.54 7.79271 102.558 9.01702 102.536 10.2456C102.502 11.9151 101.697 12.8783 100.023 12.9383C97.4676 13.0324 94.8991 13.0281 92.3434 12.9468C90.584 12.8912 89.7578 11.9365 89.7407 10.1771C89.7193 7.72422 89.7193 5.26703 89.7407 2.81412C89.7578 0.969086 90.6097 0.0786761 92.489 0.0401487C94.9419 -0.0112211 97.3991 -0.0155019 99.852 0.0401487C101.697 0.0829569 102.515 0.999052 102.536 2.87833C102.549 4.10693 102.536 5.33124 102.536 6.55983L102.54 6.56411ZM97.6774 5.09579H94.6123V7.93398H97.6774V5.09579Z" fill="white"/>
<path d="M164.044 21.9742C164.044 23.1472 164.057 24.3201 164.044 25.4974C164.019 27.3467 163.192 28.2927 161.347 28.3441C158.843 28.4126 156.33 28.4212 153.826 28.3355C152.079 28.2756 151.262 27.3167 151.245 25.5444C151.223 23.0915 151.223 20.6343 151.245 18.1814C151.262 16.4049 152.092 15.4802 153.856 15.4374C156.36 15.3732 158.873 15.3775 161.377 15.4374C163.21 15.4802 164.019 16.4092 164.04 18.297C164.053 19.5256 164.04 20.7499 164.04 21.9785L164.044 21.9742ZM159.147 23.3355V20.4802H156.112V23.3355H159.147Z" fill="white"/>
<path d="M87.6698 91.56C86.9635 92.2534 86.3686 93.1651 85.5296 93.5803C84.4339 94.1196 83.4152 93.4776 82.8416 92.4674C82.3708 91.6413 82.0498 90.7168 81.7758 89.8051C81.5147 88.9362 81.0353 88.6794 80.1493 88.7051C77.9621 88.7693 75.7706 88.7607 73.5833 88.7051C72.7529 88.6837 72.3078 88.9491 72.0809 89.7495C71.8798 90.4643 71.5844 91.1534 71.2934 91.8425C70.6299 93.4048 69.47 94.0425 68.1773 93.5888C66.7134 93.0709 66.1442 91.7355 66.7777 90.0576C68.9221 84.3778 71.1008 78.715 73.2666 73.0437C73.5705 72.2476 73.6861 71.2717 74.2296 70.7024C74.9787 69.9191 76.0402 69.0074 76.9947 68.9732C77.8722 68.9432 79.2847 69.8035 79.61 70.6125C82.2595 77.234 84.7121 83.9369 87.2204 90.6141C87.2931 90.811 87.3274 91.025 87.383 91.2304L87.6741 91.5557L87.6698 91.56ZM77.136 77.5465L76.7679 77.5037C75.9846 79.5796 75.2013 81.6512 74.4009 83.7785H79.4859C78.6726 81.6127 77.9064 79.5796 77.1403 77.5465H77.136Z" fill="white"/>
<path d="M95.7382 81.2744C95.7382 84.369 95.751 87.4593 95.7339 90.5539C95.721 92.51 94.8008 93.6956 93.3241 93.7342C91.796 93.777 90.803 92.5485 90.7987 90.5111C90.7859 84.3262 90.7859 78.137 90.7987 71.952C90.803 70.15 91.6034 69.0629 92.9645 68.8702C94.4883 68.6519 95.7039 69.9103 95.7253 71.8365C95.7596 74.9824 95.7339 78.1284 95.7339 81.2744H95.7382Z" fill="white"/>
</svg>
