<svg width="25" height="27" viewBox="0 0 25 27" fill="none" xmlns="http://www.w3.org/2000/svg">
<path d="M20.1177 8.78363H18.1194C18.3098 8.55936 18.4142 8.27469 18.4139 7.98053C18.4139 7.29456 17.8569 6.73814 17.1709 6.73814C16.4855 6.73814 15.9285 7.29461 15.9285 7.98053C15.9282 8.27469 16.0325 8.55938 16.2229 8.78363H12.8908V5.45149C12.6665 5.64183 12.3818 5.74618 12.0877 5.74586C11.4022 5.74586 10.8452 5.18888 10.8452 4.50296C10.8452 3.81751 11.4022 3.26057 12.0877 3.26057C12.3818 3.26026 12.6665 3.3646 12.8908 3.55495V1.55664C14.0854 1.55664 15.2128 1.84692 16.206 2.36131H16.2065C18.5289 3.5642 20.1177 5.98996 20.1177 8.78363Z" fill="#F0C635"/>
<path d="M13.6942 11.8209C14.3802 11.8209 14.9366 12.3779 14.9366 13.0639C14.9366 13.7499 14.3801 14.3063 13.6942 14.3063C13.4 14.3068 13.1153 14.2024 12.8911 14.0119V16.0107C10.4329 16.0107 8.25997 14.7806 6.9538 12.9031C6.14093 11.7341 5.66406 10.3139 5.66406 8.78369H7.66287C7.47218 9.0076 7.3676 9.29218 7.36794 9.58629C7.36794 10.2723 7.92493 10.8292 8.61089 10.8292C9.29685 10.8292 9.85333 10.2723 9.85333 9.58629C9.85386 9.29224 9.74946 9.00765 9.55891 8.78369H12.8911V12.1159C13.1151 11.9251 13.3999 11.8205 13.6942 11.8209Z" fill="#0093EC"/>
<path d="M13.6943 14.3064C14.3802 14.3064 14.9367 13.75 14.9367 13.064C14.9367 12.378 14.3802 11.821 13.6943 11.821C13.4 11.8207 13.1152 11.9253 12.8912 12.116V8.78378H16.2233C16.033 8.55951 15.9286 8.27484 15.9289 7.98067C15.9289 7.29471 16.4859 6.73828 17.1713 6.73828C17.8573 6.73828 18.4143 7.29476 18.4143 7.98067C18.4146 8.27484 18.3102 8.55952 18.1198 8.78378H20.1181C20.1181 12.7721 16.8799 16.0108 12.8911 16.0108V14.012C13.1153 14.2025 13.4 14.307 13.6943 14.3064Z" fill="#8B33F0"/>
<path d="M10.7721 2.5879L9.39713 4.03797C9.36534 3.74555 9.23055 3.47399 9.01687 3.27184C8.51952 2.80018 7.7323 2.82067 7.26013 3.31863C6.78843 3.81648 6.80947 4.60371 7.30687 5.07536C7.52012 5.27812 7.79869 5.39817 8.09253 5.41395L5.79979 7.83206L3.38173 5.53933C3.36554 5.83306 3.24553 6.11149 3.04309 6.32494C2.57088 6.8229 1.78371 6.84338 1.28631 6.37172C0.788399 5.90002 0.767358 5.11284 1.23901 4.61494C1.44131 4.40119 1.71307 4.26641 2.00565 4.23473L0.555176 2.85972C3.29948 -0.0347112 7.87776 -0.156457 10.7721 2.5879Z" fill="#EE3329"/>
<path d="M24.1863 16.7364C24.3004 17.0601 23.0436 17.1557 23.0436 17.1557V18.5076L22.5298 19.098C22.9614 19.5872 22.5298 19.8096 22.5298 19.8096C22.0488 19.8487 22.5298 21.0531 22.5298 21.0531C23.2933 23.6032 19.362 22.0972 19.362 22.0972C18.8621 21.7401 18.0528 22.3588 18.0528 22.3588C17.6243 22.3115 15.9343 26.5038 15.9343 26.5038C15.1728 24.0791 9.81719 21.0531 9.81719 21.0531C10.555 20.5059 9.38863 17.3638 9.38863 17.3638C7.51677 15.2787 7.05847 13.6889 6.95361 12.9033C8.25979 14.7808 10.4327 16.0109 12.8909 16.0109C16.8798 16.0109 20.1179 12.7723 20.1179 8.78389C20.1179 5.99022 18.5292 3.56446 16.2066 2.36157C18.3904 2.52752 20.0968 3.1359 20.0968 3.1359C20.8033 2.42935 23.2723 4.33621 23.2723 4.33621C24.8482 5.01595 22.7769 8.81525 22.7769 8.81525C23.3103 9.63378 23.2723 11.6146 23.2723 11.8807C23.2723 12.1473 22.796 12.8904 22.7769 13.4422C22.7579 13.9946 24.1863 16.7364 24.1863 16.7364Z" fill="#F0A583"/>
<path d="M23.2723 4.33621C23.2723 4.33621 20.8034 2.42935 20.0969 3.1359C20.0969 3.1359 18.3905 2.52758 16.2067 2.36157C18.5292 3.56441 20.118 5.99017 20.118 8.78389C20.118 9.0422 20.1042 9.29727 20.0777 9.54866C21.3321 8.93497 22.3838 8.60742 22.777 8.81525C22.777 8.81525 24.8482 5.016 23.2723 4.33621ZM13.5974 15.9764C13.3649 15.999 13.1293 16.0109 12.8909 16.0109C10.4327 16.0109 8.25979 14.7808 6.95361 12.9033C7.05847 13.6889 7.51677 15.2787 9.38863 17.3638C12.3815 17.4968 13.3239 17.2989 13.5974 15.9764Z" fill="#1F2C40"/>
<path d="M6.93105 4.33914L6.9307 4.33884C6.56131 2.93252 7.74964 2.34104 8.50757 2.53374C9.14109 2.69479 9.59782 3.10732 9.69074 3.72849L10.772 2.58817C9.38969 1.27754 7.62334 0.62107 5.85608 0.607666C2.93115 0.726377 1.31402 2.85482 1.31402 2.85482L2.63708 4.16514C1.77642 4.19084 1.31396 4.8588 1.31396 5.51391C1.31396 6.16907 2.38014 6.55443 2.89398 6.09198C3.40782 5.62953 3.31789 5.17998 3.31789 5.17998L5.86134 7.25228L8.09236 5.41426C7.79854 5.39846 7.51998 5.27841 7.30671 5.07568C7.10074 4.88051 6.96811 4.62047 6.93105 4.33914Z" fill="#FD4755"/>
<path d="M20.1172 8.78363C20.1172 5.98996 18.5284 3.5642 16.2059 2.36131H16.2054C15.2122 1.84692 14.0848 1.55664 12.8902 1.55664L13.2611 3.9474C13.1047 3.70825 12.835 3.55004 12.5279 3.55004C12.0441 3.55004 11.6519 3.94229 11.6519 4.42608C11.6519 4.90988 12.0441 5.30218 12.5279 5.30218C12.9308 5.30218 13.2693 5.02975 13.3716 4.65941L13.8639 7.83207H15.9371C16.0107 7.21611 16.5351 6.73814 17.1704 6.73814C17.1809 6.73814 17.1914 6.73864 17.2019 6.73894C17.3881 6.665 17.6044 6.62767 17.8546 6.65271C19.0536 6.77263 19.1392 7.94735 19.0364 8.36549L20.1172 8.78363Z" fill="#FFD15B"/>
<path d="M18.1199 8.78378C18.3103 8.55951 18.4146 8.27484 18.4143 7.98067C18.4143 7.29471 17.8573 6.73828 17.1713 6.73828C16.8374 6.73828 16.5342 6.8706 16.3108 7.08541C16.3744 7.07119 16.4394 7.06394 16.5046 7.06381C17.0006 7.06381 17.4027 7.46592 17.4027 7.96196C17.4027 8.45799 17.0006 8.8601 16.5046 8.8601C16.3759 8.8601 16.2538 8.83259 16.1431 8.78378H12.8911L13.9847 9.65011V11.243C13.9847 11.243 15.4604 11.6369 14.9367 13.3154C14.9279 13.3156 14.9197 13.316 14.911 13.3162C14.7943 13.8814 14.2937 14.3065 13.6942 14.3065C13.4 14.307 13.1153 14.2026 12.8911 14.0121L13.4538 14.8398V15.4773C13.4538 15.4773 17.8938 15.2622 19.793 10.9319C20.0043 10.2531 20.1182 9.53165 20.1182 8.78383L18.1199 8.78378Z" fill="#9257FF"/>
<path d="M14.9238 12.8864C14.8376 12.2845 14.3199 11.821 13.6942 11.821C13.5989 11.821 13.5065 11.8329 13.4174 11.8532C13.1126 12.0284 12.9069 12.3564 12.9069 12.7331C12.9069 13.2935 13.3613 13.7478 13.9218 13.7478C14.4299 13.7478 14.8497 13.3739 14.9238 12.8864ZM8.43533 13.7478C10.131 15.148 12.2377 15.1309 12.2377 15.1309L12.856 16.0102C12.8677 16.0103 12.8793 16.0108 12.8911 16.0108V8.78369H9.55891C10.2551 9.11054 10.4198 10.0429 10.1267 10.4721C9.58283 11.2686 8.53866 11.3441 7.98451 10.6595C7.61589 10.4437 7.36794 10.0438 7.36794 9.58629C7.3676 9.29218 7.47218 9.0076 7.66287 8.78369H5.66406L6.15732 9.58154C6.15737 9.58154 6.73969 12.3476 8.43533 13.7478Z" fill="#01D0FB"/>
<path d="M23.2717 4.33621C23.2717 4.33621 20.8027 2.42935 20.0962 3.1359C20.0962 3.1359 18.3898 2.52758 16.2061 2.36157C16.6072 2.56977 16.988 2.81509 17.3434 3.09432C18.3025 3.33184 19.3388 3.59739 19.9272 3.77543C21.2289 4.16934 23.3699 4.95723 23.2329 6.4645C22.7704 5.3341 21.0919 4.56336 19.4476 4.44344C21.0062 4.87159 22.7704 6.259 22.5991 7.25218C22.3251 6.80662 21.3317 6.43021 20.561 6.31039C21.9483 6.9612 22.7764 8.8152 22.7764 8.8152C22.7764 8.8152 24.8476 5.016 23.2717 4.33621Z" fill="#37454F"/>
</svg>
