<svg width="158" height="129" viewBox="0 0 158 129" fill="none" xmlns="http://www.w3.org/2000/svg">
<path d="M95.4848 40.4297C95.4848 36.862 92.5927 33.9699 89.0251 33.9699H55.2429C51.6752 33.9699 48.7831 36.862 48.7831 40.4297V71.7683C48.7831 75.3359 51.6752 78.2281 55.2428 78.2281H89.0251C92.5927 78.2281 95.4848 75.336 95.4848 71.7683V40.4297Z" fill="#E7A572"/>
<path d="M56.5252 73.6711V76.8516H88.2062V73.6711H56.5252ZM53.6477 70.7936V41.4043C53.6477 39.8151 54.9361 38.5268 56.5253 38.5268H88.2062C89.7954 38.5268 91.0837 39.8151 91.0837 41.4043V70.7936C91.0837 72.3828 89.7954 73.6711 88.2062 73.6711V76.8516C91.5519 76.8516 94.2641 74.1393 94.2641 70.7936V41.4043C94.2641 38.0586 91.5519 35.3464 88.2062 35.3464H56.5253C53.1796 35.3464 50.4672 38.0586 50.4672 41.4043V70.7936L50.4693 70.9501C50.551 74.1715 53.1474 76.768 56.3689 76.8496L56.5252 76.8516V73.6711C54.936 73.6711 53.6477 72.3828 53.6477 70.7936Z" fill="white"/>
<path d="M69.2117 48.177C75.1812 48.177 80.0187 53.0147 80.0187 58.9843V69.7914H69.2117C63.2423 69.7914 58.4048 64.9538 58.4047 58.9843C58.4047 53.0147 63.2423 48.177 69.2117 48.177ZM86.1 69.7914H82.0088V48.177H86.1V69.7914ZM69.2117 52.508C65.6408 52.508 62.7356 55.4133 62.7356 58.9843C62.7356 62.5552 65.6409 65.4604 69.2117 65.4604H75.6879V58.9843C75.6879 55.4133 72.7826 52.508 69.2117 52.508ZM86.1 46.1312H82.0088V42.0402H86.1V46.1312Z" fill="white"/>
<path d="M57.598 17.5433L57.3539 18.1549V36.5574H59.1303V18.5092L72.1489 4.79631L70.8604 3.57312L57.598 17.5433Z" fill="white"/>
<path d="M82.3419 3.65155C82.3419 5.66825 83.9767 7.3031 85.9934 7.3031C88.0101 7.3031 89.645 5.66825 89.645 3.65155C89.645 1.63486 88.0101 0 85.9934 0C83.9767 0 82.3419 1.63486 82.3419 3.65155Z" fill="white"/>
<path d="M84.6387 3.65159L84.6404 3.58188C84.6755 2.88915 85.231 2.33373 85.9237 2.2986L85.9934 2.29687C86.7416 2.29687 87.3481 2.90338 87.3481 3.65159L87.3464 3.72129C87.3101 4.43709 86.7182 5.0063 85.9934 5.0063V7.30317L86.0877 7.30191C88.0608 7.25191 89.645 5.63675 89.645 3.65159C89.645 1.63489 88.0101 0 85.9934 0C83.9767 1.94767e-05 82.3418 1.6349 82.3418 3.65159L82.3431 3.74574C82.393 5.71889 84.0082 7.30315 85.9934 7.30317V5.0063C85.2686 5.00629 84.6767 4.43708 84.6404 3.72129L84.6387 3.65159Z" fill="white"/>
<path d="M68.5938 3.65155C68.5938 5.66825 70.2287 7.3031 72.2454 7.3031C74.2621 7.3031 75.8969 5.66825 75.8969 3.65155C75.8969 1.63486 74.2621 0 72.2454 0C70.2287 0 68.5938 1.63486 68.5938 3.65155Z" fill="white"/>
<path d="M70.8906 3.65159L70.8924 3.58188C70.9274 2.88915 71.4829 2.33373 72.1756 2.2986L72.2453 2.29687C72.9935 2.29687 73.6001 2.90338 73.6001 3.65159L73.5983 3.72129C73.562 4.43709 72.9702 5.0063 72.2453 5.0063V7.30317L72.3396 7.30191C74.3128 7.25191 75.8969 5.63675 75.8969 3.65159C75.8969 1.63489 74.262 0 72.2453 0C70.2287 1.94767e-05 68.5938 1.6349 68.5938 3.65159L68.595 3.74574C68.645 5.71889 70.2602 7.30315 72.2453 7.30317V5.0063C71.5205 5.00629 70.9287 4.43708 70.8924 3.72129L70.8906 3.65159Z" fill="white"/>
<path d="M50.4669 6.36475C50.4669 8.38144 52.1017 10.0163 54.1184 10.0163C56.1351 10.0163 57.77 8.38144 57.77 6.36475C57.77 4.34805 56.1351 2.7132 54.1184 2.7132C52.1017 2.7132 50.4669 4.34805 50.4669 6.36475Z" fill="white"/>
<path d="M52.7637 6.36478L52.7654 6.29508C52.8005 5.60234 53.356 5.04693 54.0487 5.0118L54.1184 5.01007C54.8666 5.01007 55.4731 5.61657 55.4731 6.36478L55.4714 6.43449C55.4351 7.15029 54.8432 7.7195 54.1184 7.7195V10.0164L54.2127 10.0151C56.1858 9.96511 57.77 8.34994 57.77 6.36478C57.77 4.34809 56.1351 2.7132 54.1184 2.7132C52.1017 2.71322 50.4668 4.3481 50.4668 6.36478L50.4681 6.45894C50.518 8.43209 52.1332 10.0164 54.1184 10.0164V7.7195C53.3936 7.71948 52.8017 7.15028 52.7654 6.43449L52.7637 6.36478Z" fill="white"/>
<path d="M32.8868 14.2756C32.8868 16.2923 34.5216 17.9271 36.5383 17.9271C38.555 17.9271 40.1899 16.2923 40.1899 14.2756C40.1899 12.2589 38.555 10.624 36.5383 10.624C34.5216 10.624 32.8868 12.2589 32.8868 14.2756Z" fill="white"/>
<path d="M35.1836 14.2756L35.1853 14.2059C35.2204 13.5132 35.7759 12.9578 36.4686 12.9226L36.5383 12.9209C37.2865 12.9209 37.893 13.5274 37.893 14.2756L37.8913 14.3453C37.855 15.0611 37.2631 15.6303 36.5383 15.6303V17.9272L36.6326 17.9259C38.6057 17.8759 40.1899 16.2608 40.1899 14.2756C40.1899 12.2589 38.555 10.624 36.5383 10.624C34.5216 10.624 32.8867 12.2589 32.8867 14.2756L32.888 14.3698C32.9379 16.3429 34.5531 17.9272 36.5383 17.9272V15.6303C35.8135 15.6303 35.2216 15.0611 35.1853 14.3453L35.1836 14.2756Z" fill="white"/>
<path d="M32.8868 33.8698C32.8868 35.8865 34.5216 37.5214 36.5383 37.5214C38.555 37.5214 40.1899 35.8865 40.1899 33.8698C40.1899 31.8531 38.555 30.2183 36.5383 30.2183C34.5216 30.2183 32.8868 31.8531 32.8868 33.8698Z" fill="white"/>
<path d="M35.1836 33.8698L35.1853 33.8001C35.2204 33.1074 35.7759 32.552 36.4686 32.5169L36.5383 32.5151C37.2865 32.5151 37.893 33.1216 37.893 33.8698L37.8913 33.9396C37.855 34.6554 37.2631 35.2246 36.5383 35.2246V37.5214L36.6326 37.5202C38.6057 37.4702 40.1899 35.855 40.1899 33.8698C40.1899 31.8532 38.555 30.2183 36.5383 30.2183C34.5216 30.2183 32.8867 31.8532 32.8867 33.8698L32.888 33.964C32.9379 35.9372 34.5531 37.5214 36.5383 37.5214V35.2246C35.8135 35.2245 35.2216 34.6553 35.1853 33.9396L35.1836 33.8698Z" fill="white"/>
<path d="M20.0606 21.5779C20.0606 23.5946 21.6955 25.2294 23.7122 25.2294C25.7289 25.2294 27.3637 23.5946 27.3637 21.5779C27.3637 19.5612 25.7289 17.9263 23.7122 17.9263C21.6955 17.9263 20.0606 19.5612 20.0606 21.5779Z" fill="white"/>
<path d="M22.3574 21.5779L22.3592 21.5082C22.3942 20.8155 22.9497 20.2601 23.6424 20.2249L23.7121 20.2232C24.4603 20.2232 25.0669 20.8297 25.0669 21.5779L25.0651 21.6476C25.0288 22.3634 24.437 22.9326 23.7121 22.9326V25.2295L23.8064 25.2282C25.7796 25.1782 27.3637 23.5631 27.3637 21.5779C27.3637 19.5612 25.7288 17.9263 23.7121 17.9263C21.6955 17.9264 20.0605 19.5612 20.0605 21.5779L20.0618 21.6721C20.1118 23.6452 21.7269 25.2295 23.7121 25.2295V22.9326C22.9873 22.9326 22.3955 22.3634 22.3592 21.6476L22.3574 21.5779Z" fill="white"/>
<path d="M22.8125 21.4024V37.5575L23.0796 38.1924L37.9419 52.7316L39.184 51.4617L24.5889 37.1837V21.4024H22.8125Z" fill="white"/>
<path d="M10.6271 41.5797L29.3665 60.4809L29.9974 60.7438H50.9985V58.9674H30.3675L11.8886 40.329L10.6271 41.5797Z" fill="white"/>
<path d="M35.2052 52.4445C35.2052 54.4612 36.84 56.0961 38.8567 56.0961C40.8734 56.0961 42.5083 54.4612 42.5083 52.4445C42.5083 50.4278 40.8734 48.793 38.8567 48.793C36.84 48.793 35.2052 50.4278 35.2052 52.4445Z" fill="white"/>
<path d="M37.502 52.4446L37.5037 52.3748C37.5388 51.6821 38.0942 51.1267 38.787 51.0916L38.8567 51.0898C39.6049 51.0898 40.2114 51.6963 40.2114 52.4446L40.2097 52.5143C40.1734 53.2301 39.5815 53.7993 38.8567 53.7993V56.0961L38.951 56.0949C40.9241 56.0449 42.5082 54.4297 42.5083 52.4446C42.5083 50.4279 40.8734 48.793 38.8567 48.793C36.84 48.793 35.2051 50.4279 35.2051 52.4446L35.2063 52.5387C35.2563 54.5119 36.8715 56.0961 38.8567 56.0961V53.7993C38.1319 53.7993 37.54 53.2301 37.5037 52.5143L37.502 52.4446Z" fill="white"/>
<path d="M7.31648 40.6589C7.31648 42.6756 8.95134 44.3104 10.968 44.3104C12.9847 44.3104 14.6196 42.6756 14.6196 40.6589C14.6196 38.6422 12.9847 37.0073 10.968 37.0073C8.95134 37.0073 7.31648 38.6422 7.31648 40.6589Z" fill="white"/>
<path d="M9.61328 40.6589L9.61501 40.5892C9.6501 39.8965 10.2056 39.3411 10.8983 39.3059L10.968 39.3042C11.7162 39.3042 12.3227 39.9107 12.3227 40.6589L12.321 40.7286C12.2847 41.4444 11.6928 42.0136 10.968 42.0136V44.3105L11.0623 44.3092C13.0354 44.2592 14.6196 42.6441 14.6196 40.6589C14.6196 38.6422 12.9847 37.0073 10.968 37.0073C8.95132 37.0073 7.31641 38.6422 7.31641 40.6589L7.31767 40.7531C7.36763 42.7262 8.98281 44.3105 10.968 44.3105V42.0136C10.2432 42.0136 9.65131 41.4444 9.61501 40.7286L9.61328 40.6589Z" fill="white"/>
<path d="M12.1485 59.7485C12.1485 61.7652 13.7834 63.4001 15.8001 63.4001C17.8168 63.4001 19.4516 61.7652 19.4516 59.7485C19.4516 57.7318 17.8168 56.097 15.8001 56.097C13.7834 56.097 12.1485 57.7318 12.1485 59.7485Z" fill="white"/>
<path d="M14.4453 59.7486L14.447 59.6789C14.4821 58.9861 15.0376 58.4307 15.7303 58.3956L15.8 58.3939C16.5482 58.3939 17.1547 59.0004 17.1547 59.7486L17.153 59.8183C17.1167 60.5341 16.5248 61.1033 15.8 61.1033V63.4002L15.8943 63.3989C17.8675 63.3489 19.4516 61.7337 19.4516 59.7486C19.4516 57.7319 17.8167 56.097 15.8 56.097C13.7833 56.097 12.1484 57.7319 12.1484 59.7486L12.1497 59.8427C12.1997 61.8159 13.8148 63.4001 15.8 63.4002V61.1033C15.0752 61.1033 14.4833 60.5341 14.447 59.8183L14.4453 59.7486Z" fill="white"/>
<path d="M7.48634e-05 57.7686C7.48634e-05 59.7853 1.63493 61.4202 3.65163 61.4202C5.66832 61.4202 7.30318 59.7853 7.30318 57.7686C7.30318 55.7519 5.66832 54.1171 3.65163 54.1171C1.63493 54.1171 7.48634e-05 55.7519 7.48634e-05 57.7686Z" fill="white"/>
<path d="M2.29687 57.7687L2.29861 57.6989C2.3337 57.0062 2.88916 56.4508 3.58188 56.4157L3.65159 56.4139C4.3998 56.4139 5.00631 57.0204 5.00631 57.7687L5.00457 57.8384C4.96827 58.5542 4.37641 59.1234 3.65159 59.1234V61.4202L3.7459 61.419C5.71901 61.369 7.30316 59.7538 7.30318 57.7687C7.30318 55.752 5.66829 54.1171 3.65159 54.1171C1.63491 54.1171 2.86102e-06 55.752 2.86102e-06 57.7687L0.0012641 57.8628C0.0512223 59.836 1.6664 61.4202 3.65159 61.4202V59.1234C2.92679 59.1234 2.3349 58.5541 2.29861 57.8384L2.29687 57.7687Z" fill="white"/>
<path d="M9.78523 74.5716C9.78523 76.5883 11.4201 78.2231 13.4368 78.2231C15.4535 78.2231 17.0883 76.5883 17.0883 74.5716C17.0883 72.5549 15.4535 70.92 13.4368 70.92C11.4201 70.92 9.78523 72.5549 9.78523 74.5716Z" fill="white"/>
<path d="M12.082 74.5716L12.0838 74.5019C12.1189 73.8092 12.6743 73.2538 13.367 73.2186L13.4367 73.2169C14.185 73.2169 14.7915 73.8234 14.7915 74.5716L14.7897 74.6413C14.7534 75.3571 14.1616 75.9263 13.4367 75.9263V78.2232L13.5311 78.222C15.5042 78.172 17.0883 76.5568 17.0883 74.5716C17.0883 72.5549 15.4534 70.92 13.4367 70.92C11.4201 70.9201 9.78516 72.5549 9.78516 74.5716L9.78642 74.6658C9.83638 76.6389 11.4516 78.2232 13.4367 78.2232V75.9263C12.7119 75.9263 12.1201 75.3571 12.0838 74.6413L12.082 74.5716Z" fill="white"/>
<path d="M24.6466 107.598C24.6466 109.615 26.2814 111.25 28.2981 111.25C30.3148 111.25 31.9497 109.615 31.9497 107.598C31.9497 105.582 30.3148 103.947 28.2981 103.947C26.2814 103.947 24.6466 105.582 24.6466 107.598Z" fill="white"/>
<path d="M26.9434 107.598L26.9451 107.529C26.9802 106.836 27.5356 106.281 28.2284 106.245L28.2981 106.244C29.0463 106.244 29.6528 106.85 29.6528 107.598L29.6511 107.668C29.6148 108.384 29.0229 108.953 28.2981 108.953V111.25L28.3924 111.249C30.3655 111.199 31.9496 109.584 31.9497 107.598C31.9497 105.582 30.3148 103.947 28.2981 103.947C26.2814 103.947 24.6465 105.582 24.6465 107.598L24.6477 107.693C24.6977 109.666 26.3129 111.25 28.2981 111.25V108.953C27.5733 108.953 26.9814 108.384 26.9451 107.668L26.9434 107.598Z" fill="white"/>
<path d="M18.5841 125.029C18.5841 127.046 20.2189 128.68 22.2356 128.68C24.2523 128.68 25.8872 127.046 25.8872 125.029C25.8872 123.012 24.2523 121.377 22.2356 121.377C20.2189 121.377 18.5841 123.012 18.5841 125.029Z" fill="white"/>
<path d="M20.8809 125.029L20.8826 124.959C20.9177 124.267 21.4731 123.711 22.1659 123.676L22.2356 123.674C22.9838 123.674 23.5903 124.281 23.5903 125.029L23.5886 125.099C23.5523 125.814 22.9604 126.384 22.2356 126.384V128.681L22.3299 128.679C24.303 128.629 25.8871 127.014 25.8872 125.029C25.8872 123.012 24.2523 121.377 22.2356 121.377C20.2189 121.377 18.584 123.012 18.584 125.029L18.5852 125.123C18.6352 127.096 20.2504 128.681 22.2356 128.681V126.384C21.5108 126.384 20.9189 125.814 20.8826 125.099L20.8809 125.029Z" fill="white"/>
<path d="M32.4766 117.725C32.4766 119.742 34.1115 121.376 36.1282 121.376C38.1449 121.376 39.7797 119.742 39.7797 117.725C39.7797 115.708 38.1449 114.073 36.1282 114.073C34.1115 114.073 32.4766 115.708 32.4766 117.725Z" fill="white"/>
<path d="M34.7734 117.725L34.7752 117.655C34.8103 116.963 35.3657 116.407 36.0584 116.372L36.1282 116.37C36.8764 116.37 37.4829 116.977 37.4829 117.725L37.4811 117.795C37.4448 118.51 36.853 119.08 36.1282 119.08V121.377L36.2225 121.375C38.1956 121.325 39.7797 119.71 39.7797 117.725C39.7797 115.708 38.1448 114.073 36.1282 114.073C34.1115 114.073 32.4766 115.708 32.4766 117.725L32.4778 117.819C32.5278 119.792 34.143 121.377 36.1282 121.377V119.08C35.4033 119.08 34.8115 118.51 34.7752 117.795L34.7734 117.725Z" fill="white"/>
<path d="M41.7579 110.426C41.7579 112.443 43.3927 114.078 45.4094 114.078C47.4261 114.078 49.061 112.443 49.061 110.426C49.061 108.409 47.4261 106.774 45.4094 106.774C43.3927 106.774 41.7579 108.409 41.7579 110.426Z" fill="white"/>
<path d="M44.0547 110.426L44.0564 110.356C44.0915 109.664 44.647 109.108 45.3397 109.073L45.4094 109.071C46.1576 109.071 46.7641 109.678 46.7641 110.426L46.7624 110.496C46.7261 111.212 46.1342 111.781 45.4094 111.781V114.078L45.5037 114.076C47.4768 114.026 49.061 112.411 49.061 110.426C49.061 108.409 47.4261 106.774 45.4094 106.774C43.3927 106.774 41.7578 108.409 41.7578 110.426L41.7591 110.52C41.809 112.493 43.4242 114.078 45.4094 114.078V111.781C44.6846 111.781 44.0927 111.212 44.0564 110.496L44.0547 110.426Z" fill="white"/>
<path d="M50.4669 93.956C50.4669 95.9727 52.1017 97.6075 54.1184 97.6075C56.1351 97.6075 57.77 95.9727 57.77 93.956C57.77 91.9393 56.1351 90.3044 54.1184 90.3044C52.1017 90.3044 50.4669 91.9393 50.4669 93.956Z" fill="white"/>
<path d="M52.7637 93.956L52.7654 93.8863C52.8005 93.1936 53.356 92.6382 54.0487 92.603L54.1184 92.6013C54.8666 92.6013 55.4731 93.2078 55.4731 93.956L55.4714 94.0257C55.4351 94.7415 54.8432 95.3107 54.1184 95.3107V97.6076L54.2127 97.6064C56.1858 97.5564 57.77 95.9412 57.77 93.956C57.77 91.9393 56.1351 90.3044 54.1184 90.3044C52.1017 90.3045 50.4668 91.9393 50.4668 93.956L50.4681 94.0502C50.518 96.0233 52.1332 97.6076 54.1184 97.6076V95.3107C53.3936 95.3107 52.8017 94.7415 52.7654 94.0257L52.7637 93.956Z" fill="white"/>
<path d="M59.2852 103.117C59.2852 105.133 60.9201 106.768 62.9368 106.768C64.9535 106.768 66.5883 105.133 66.5883 103.117C66.5883 101.1 64.9535 99.4652 62.9368 99.4652C60.9201 99.4652 59.2852 101.1 59.2852 103.117Z" fill="white"/>
<path d="M61.582 103.117L61.5838 103.047C61.6189 102.354 62.1743 101.799 62.867 101.764L62.9367 101.762C63.685 101.762 64.2915 102.369 64.2915 103.117L64.2897 103.187C64.2534 103.902 63.6616 104.472 62.9367 104.472V106.768L63.0311 106.767C65.0042 106.717 66.5883 105.102 66.5883 103.117C66.5883 101.1 64.9534 99.4652 62.9367 99.4652C60.9201 99.4652 59.2852 101.1 59.2852 103.117L59.2864 103.211C59.3364 105.184 60.9516 106.768 62.9367 106.768V104.472C62.2119 104.471 61.6201 103.902 61.5838 103.187L61.582 103.117Z" fill="white"/>
<path d="M74.9864 103.947C74.9864 105.964 76.6213 107.599 78.638 107.599C80.6546 107.599 82.2895 105.964 82.2895 103.947C82.2895 101.931 80.6546 100.296 78.638 100.296C76.6213 100.296 74.9864 101.931 74.9864 103.947Z" fill="white"/>
<path d="M77.2832 103.947L77.2849 103.878C77.32 103.185 77.8755 102.629 78.5682 102.594L78.6379 102.593C79.3861 102.593 79.9926 103.199 79.9926 103.947L79.9909 104.017C79.9546 104.733 79.3627 105.302 78.6379 105.302V107.599L78.7322 107.598C80.7053 107.548 82.2895 105.932 82.2895 103.947C82.2895 101.931 80.6546 100.296 78.6379 100.296C76.6212 100.296 74.9863 101.931 74.9863 103.947L74.9876 104.041C75.0376 106.015 76.6527 107.599 78.6379 107.599V105.302C77.9131 105.302 77.3212 104.733 77.2849 104.017L77.2832 103.947Z" fill="white"/>
<path d="M94.2637 102.363C94.2637 104.379 95.8986 106.014 97.9153 106.014C99.932 106.014 101.567 104.379 101.567 102.363C101.567 100.346 99.932 98.7111 97.9153 98.7111C95.8986 98.7111 94.2637 100.346 94.2637 102.363Z" fill="white"/>
<path d="M96.5605 102.363L96.5623 102.293C96.5974 101.6 97.1528 101.045 97.8456 101.01L97.9153 101.008C98.6635 101.008 99.27 101.614 99.27 102.363L99.2682 102.432C99.2319 103.148 98.6401 103.717 97.9153 103.717V106.014L98.0096 106.013C99.9827 105.963 101.567 104.348 101.567 102.363C101.567 100.346 99.932 98.7111 97.9153 98.7111C95.8986 98.7111 94.2637 100.346 94.2637 102.363L94.2649 102.457C94.3149 104.43 95.9301 106.014 97.9153 106.014V103.717C97.1905 103.717 96.5986 103.148 96.5623 102.432L96.5605 102.363Z" fill="white"/>
<path d="M94.2637 89.1658C94.2637 91.1825 95.8986 92.8174 97.9153 92.8174C99.932 92.8174 101.567 91.1825 101.567 89.1658C101.567 87.1491 99.932 85.5143 97.9153 85.5143C95.8986 85.5143 94.2637 87.1491 94.2637 89.1658Z" fill="white"/>
<path d="M96.5605 89.1659L96.5623 89.0962C96.5974 88.4034 97.1528 87.848 97.8456 87.8129L97.9153 87.8112C98.6635 87.8112 99.27 88.4177 99.27 89.1659L99.2682 89.2356C99.2319 89.9514 98.6401 90.5206 97.9153 90.5206V92.8175L98.0096 92.8162C99.9827 92.7662 101.567 91.151 101.567 89.1659C101.567 87.1492 99.932 85.5143 97.9153 85.5143C95.8986 85.5143 94.2637 87.1492 94.2637 89.1659L94.2649 89.26C94.3149 91.2332 95.9301 92.8174 97.9153 92.8175V90.5206C97.1905 90.5206 96.5986 89.9514 96.5623 89.2356L96.5605 89.1659Z" fill="white"/>
<path d="M137.875 76.633C137.875 78.6497 139.51 80.2845 141.527 80.2845C143.543 80.2845 145.178 78.6497 145.178 76.633C145.178 74.6163 143.543 72.9814 141.527 72.9814C139.51 72.9814 137.875 74.6163 137.875 76.633Z" fill="white"/>
<path d="M140.172 76.633L140.174 76.5633C140.209 75.8706 140.764 75.3152 141.457 75.28L141.527 75.2783C142.275 75.2783 142.881 75.8848 142.881 76.633L142.88 76.7027C142.843 77.4185 142.251 77.9878 141.527 77.9878V80.2846L141.621 80.2834C143.594 80.2334 145.178 78.6182 145.178 76.633C145.178 74.6163 143.543 72.9814 141.527 72.9814C139.51 72.9815 137.875 74.6163 137.875 76.633L137.876 76.7272C137.926 78.7003 139.541 80.2846 141.527 80.2846V77.9878C140.802 77.9877 140.21 77.4185 140.174 76.7027L140.172 76.633Z" fill="white"/>
<path d="M150.043 63.4014C150.043 65.4181 151.678 67.053 153.695 67.053C155.711 67.053 157.346 65.4181 157.346 63.4014C157.346 61.3847 155.711 59.7499 153.695 59.7499C151.678 59.7499 150.043 61.3847 150.043 63.4014Z" fill="white"/>
<path d="M152.34 63.4015L152.342 63.3318C152.377 62.639 152.932 62.0836 153.625 62.0485L153.695 62.0467C154.443 62.0467 155.049 62.6533 155.049 63.4015L155.048 63.4712C155.011 64.187 154.419 64.7562 153.695 64.7562V67.0531L153.789 67.0518C155.762 67.0018 157.346 65.3866 157.346 63.4015C157.346 61.3848 155.711 59.7499 153.695 59.7499C151.678 59.7499 150.043 61.3848 150.043 63.4015L150.044 63.4956C150.094 65.4688 151.709 67.053 153.695 67.0531V64.7562C152.97 64.7562 152.378 64.187 152.342 63.4712L152.34 63.4015Z" fill="white"/>
<path d="M147.803 48.7986C147.803 50.8153 149.438 52.4501 151.454 52.4501C153.471 52.4501 155.106 50.8153 155.106 48.7986C155.106 46.7819 153.471 45.147 151.454 45.147C149.438 45.147 147.803 46.7819 147.803 48.7986Z" fill="white"/>
<path d="M150.1 48.7986L150.101 48.7289C150.136 48.0362 150.692 47.4808 151.385 47.4456L151.454 47.4439C152.203 47.4439 152.809 48.0504 152.809 48.7986L152.807 48.8683C152.771 49.5841 152.179 50.1533 151.454 50.1533V52.4502L151.549 52.4489C153.522 52.3989 155.106 50.7838 155.106 48.7986C155.106 46.7819 153.471 45.147 151.454 45.147C149.438 45.1471 147.803 46.7819 147.803 48.7986L147.804 48.8928C147.854 50.8659 149.469 52.4502 151.454 52.4502V50.1533C150.73 50.1533 150.138 49.5841 150.101 48.8683L150.1 48.7986Z" fill="white"/>
<path d="M145.907 53.3665H124.321L123.693 53.6267L115.015 62.3043L116.271 63.5605L124.689 55.1429H146.274L146.903 54.8828L152.243 49.543L150.987 48.2867L145.907 53.3665Z" fill="white"/>
<path d="M140.076 42.9903L117.835 44.2515L117.273 44.4944L103.159 57.9093L104.383 59.1968L118.261 46.0067L140.566 44.7419L141.202 44.4181L149.323 34.5083L147.949 33.3823L140.076 42.9903Z" fill="white"/>
<path d="M130.25 63.1653L129.622 63.4255L121.056 71.9913H91.5581V73.7677H121.424L122.052 73.5075L130.618 64.9417H152.797V63.1653H130.25Z" fill="white"/>
<path d="M130.39 75.6478L129.762 75.908L117.535 88.1354H98.3658V89.9118H117.903L118.531 89.6517L130.758 77.4243H140.864V75.6478H130.39Z" fill="white"/>
<path d="M112.662 63.1518C112.662 65.1685 114.297 66.8033 116.314 66.8033C118.33 66.8033 119.965 65.1685 119.965 63.1518C119.965 61.1351 118.33 59.5002 116.314 59.5002C114.297 59.5002 112.662 61.1351 112.662 63.1518Z" fill="white"/>
<path d="M114.959 63.1518L114.961 63.0821C114.996 62.3894 115.551 61.834 116.244 61.7988L116.314 61.7971C117.062 61.7971 117.668 62.4036 117.668 63.1518L117.667 63.2215C117.63 63.9373 117.039 64.5065 116.314 64.5065V66.8034L116.408 66.8022C118.381 66.7522 119.965 65.137 119.965 63.1518C119.965 61.1351 118.33 59.5002 116.314 59.5002C114.297 59.5003 112.662 61.1351 112.662 63.1518L112.663 63.246C112.713 65.2191 114.329 66.8034 116.314 66.8034V64.5065C115.589 64.5065 114.997 63.9373 114.961 63.2215L114.959 63.1518Z" fill="white"/>
<path d="M99.2423 59.5024C99.2423 61.5191 100.877 63.1539 102.894 63.1539C104.911 63.1539 106.545 61.5191 106.545 59.5024C106.545 57.4857 104.911 55.8508 102.894 55.8508C100.877 55.8508 99.2423 57.4857 99.2423 59.5024Z" fill="white"/>
<path d="M101.539 59.5024L101.541 59.4327C101.576 58.74 102.131 58.1846 102.824 58.1494L102.894 58.1477C103.642 58.1477 104.248 58.7542 104.248 59.5024L104.247 59.5721C104.21 60.2879 103.619 60.8571 102.894 60.8571V63.154L102.988 63.1527C104.961 63.1027 106.545 61.4876 106.545 59.5024C106.545 57.4857 104.91 55.8508 102.894 55.8508C100.877 55.8508 99.2422 57.4857 99.2422 59.5024L99.2435 59.5966C99.2934 61.5697 100.909 63.154 102.894 63.154V60.8571C102.169 60.8571 101.577 60.2879 101.541 59.5721L101.539 59.5024Z" fill="white"/>
<path d="M145.178 33.3532C145.178 35.3698 146.813 37.0047 148.829 37.0047C150.846 37.0047 152.481 35.3698 152.481 33.3532C152.481 31.3365 150.846 29.7016 148.829 29.7016C146.813 29.7016 145.178 31.3365 145.178 33.3532Z" fill="white"/>
<path d="M147.475 33.3532L147.476 33.2835C147.511 32.5907 148.067 32.0353 148.76 32.0002L148.829 31.9985C149.578 31.9985 150.184 32.605 150.184 33.3532L150.182 33.4229C150.146 34.1387 149.554 34.7079 148.829 34.7079V37.0048L148.924 37.0035C150.897 36.9535 152.481 35.3383 152.481 33.3532C152.481 31.3365 150.846 29.7016 148.829 29.7016C146.813 29.7016 145.178 31.3365 145.178 33.3532L145.179 33.4473C145.229 35.4205 146.844 37.0048 148.829 37.0048V34.7079C148.105 34.7079 147.513 34.1387 147.476 33.4229L147.475 33.3532Z" fill="white"/>
<path d="M123.525 33.8698C123.525 35.8865 125.16 37.5214 127.177 37.5214C129.194 37.5214 130.829 35.8865 130.829 33.8698C130.829 31.8531 129.194 30.2183 127.177 30.2183C125.16 30.2183 123.525 31.8531 123.525 33.8698Z" fill="white"/>
<path d="M125.822 33.8698L125.824 33.8001C125.859 33.1074 126.415 32.552 127.107 32.5169L127.177 32.5151C127.925 32.5151 128.532 33.1216 128.532 33.8698L128.53 33.9396C128.494 34.6554 127.902 35.2246 127.177 35.2246V37.5214L127.271 37.5202C129.244 37.4702 130.829 35.855 130.829 33.8698C130.829 31.8532 129.194 30.2183 127.177 30.2183C125.16 30.2183 123.525 31.8532 123.525 33.8698L123.527 33.964C123.577 35.9372 125.192 37.5214 127.177 37.5214V35.2246C126.452 35.2245 125.86 34.6553 125.824 33.9396L125.822 33.8698Z" fill="white"/>
<path d="M95.504 30.2186C95.504 32.2353 97.1388 33.8701 99.1555 33.8701C101.172 33.8701 102.807 32.2353 102.807 30.2186C102.807 28.2019 101.172 26.567 99.1555 26.567C97.1388 26.567 95.504 28.2019 95.504 30.2186Z" fill="white"/>
<path d="M97.8008 30.2186L97.8025 30.1489C97.8376 29.4562 98.3931 28.9008 99.0858 28.8656L99.1555 28.8639C99.9037 28.8639 100.51 29.4704 100.51 30.2186L100.508 30.2883C100.472 31.0041 99.8803 31.5733 99.1555 31.5733V33.8702L99.2498 33.8689C101.223 33.8189 102.807 32.2038 102.807 30.2186C102.807 28.2019 101.172 26.567 99.1555 26.567C97.1388 26.567 95.5039 28.2019 95.5039 30.2186L95.5052 30.3128C95.5551 32.2859 97.1703 33.8702 99.1555 33.8702V31.5733C98.4307 31.5733 97.8388 31.0041 97.8025 30.2883L97.8008 30.2186Z" fill="white"/>
<path d="M134.231 22.4933C134.231 24.51 135.865 26.1448 137.882 26.1448C139.899 26.1448 141.534 24.51 141.534 22.4933C141.534 20.4766 139.899 18.8417 137.882 18.8417C135.865 18.8417 134.231 20.4766 134.231 22.4933Z" fill="white"/>
<path d="M136.527 22.4933L136.529 22.4236C136.564 21.7309 137.12 21.1755 137.812 21.1403L137.882 21.1386C138.63 21.1386 139.237 21.7451 139.237 22.4933L139.235 22.563C139.199 23.2788 138.607 23.848 137.882 23.848V26.1449L137.976 26.1436C139.949 26.0936 141.534 24.4785 141.534 22.4933C141.534 20.4766 139.899 18.8417 137.882 18.8417C135.865 18.8418 134.23 20.4766 134.23 22.4933L134.232 22.5875C134.282 24.5606 135.897 26.1449 137.882 26.1449V23.848C137.157 23.848 136.565 23.2788 136.529 22.563L136.527 22.4933Z" fill="white"/>
<path d="M116.307 11.9143C116.307 13.931 117.942 15.5659 119.958 15.5659C121.975 15.5659 123.61 13.931 123.61 11.9143C123.61 9.89761 121.975 8.26276 119.958 8.26276C117.942 8.26276 116.307 9.89761 116.307 11.9143Z" fill="white"/>
<path d="M118.604 11.9143L118.605 11.8446C118.64 11.1519 119.196 10.5965 119.889 10.5614L119.958 10.5596C120.706 10.5596 121.313 11.1661 121.313 11.9143L121.311 11.9841C121.275 12.6998 120.683 13.2691 119.958 13.2691V15.5659L120.053 15.5647C122.026 15.5147 123.61 13.8995 123.61 11.9143C123.61 9.89765 121.975 8.26276 119.958 8.26276C117.942 8.26278 116.307 9.89766 116.307 11.9143L116.308 12.0085C116.358 13.9816 117.973 15.5659 119.958 15.5659V13.2691C119.233 13.269 118.642 12.6998 118.605 11.9841L118.604 11.9143Z" fill="white"/>
<path d="M66.5802 26.5743C66.5802 28.591 68.215 30.2259 70.2317 30.2259C72.2484 30.2259 73.8833 28.591 73.8833 26.5743C73.8833 24.5576 72.2484 22.9228 70.2317 22.9228C68.215 22.9228 66.5802 24.5576 66.5802 26.5743Z" fill="white"/>
<path d="M68.877 26.5744L68.8787 26.5047C68.9138 25.8119 69.4692 25.2565 70.162 25.2214L70.2317 25.2197C70.9799 25.2197 71.5864 25.8262 71.5864 26.5744L71.5847 26.6441C71.5484 27.3599 70.9565 27.9291 70.2317 27.9291V30.226L70.326 30.2247C72.2991 30.1747 73.8832 28.5595 73.8833 26.5744C73.8833 24.5577 72.2484 22.9228 70.2317 22.9228C68.215 22.9228 66.5801 24.5577 66.5801 26.5744L66.5813 26.6685C66.6313 28.6417 68.2465 30.2259 70.2317 30.226V27.9291C69.5069 27.9291 68.915 27.3599 68.8787 26.6441L68.877 26.5744Z" fill="white"/>
<path d="M85.4135 4.97217V10.4313L70.3293 25.5155L71.5854 26.7716L86.9297 11.4272L87.1899 10.7992V4.97217H85.4135Z" fill="white"/>
<path d="M103.121 10.4993L102.494 10.7585L77.458 35.7196L78.7123 36.9776L103.488 12.2757H119.735V10.4993H103.121Z" fill="white"/>
<path d="M107.253 21.7717L106.625 22.0319L98.6145 30.0421L99.8707 31.2981L107.621 23.5482H136.92V21.7717H107.253Z" fill="white"/>
<path d="M111.714 32.6072L111.086 32.8675L91.6981 52.2547L92.9543 53.5109L112.082 34.3837H126.696V32.6072H111.714Z" fill="white"/>
<path d="M79.3426 75.7293V84.793L79.6027 85.421L96.9241 102.742L98.1801 101.486L81.119 84.4251V75.7293H79.3426Z" fill="white"/>
<path d="M63.9675 75.7293V89.6269L64.2275 90.2549L77.1546 103.182L78.4106 101.926L65.7439 89.259V75.7293H63.9675Z" fill="white"/>
<path d="M54.023 95.6901L61.0726 102.74L62.3286 101.484L55.2791 94.4341L54.023 95.6901Z" fill="white"/>
<path d="M44.5325 78.5209L44.2725 79.1491V108.354H46.0489V79.5167L53.6997 71.8658L52.4437 70.6098L44.5325 78.5209Z" fill="white"/>
<path d="M46.6396 12.7579L46.3897 13.3756V45.5597L46.6497 46.1877L50.5967 50.1347L51.8529 48.8785L48.1661 45.1918V13.7349L53.2211 8.51173L51.9447 7.27625L46.6396 12.7579Z" fill="white"/>
<path d="M35.6693 13.9736V34.6519H37.4458V13.9736H35.6693Z" fill="white"/>
<path d="M16.5987 61.2795L35.0834 80.0828V117.198H36.8598V79.7194L36.605 79.0968L17.8655 60.0342L16.5987 61.2795Z" fill="white"/>
<path d="M12.4125 75.503L27.4994 90.5899V107.185H29.2758V90.2219L29.0156 89.594L13.6687 74.247L12.4125 75.503Z" fill="white"/>
<path d="M2.61201 58.7235V81.5017L2.88043 82.1379L21.5131 100.293V123.342H23.2895V99.918L23.0211 99.2819L4.38844 81.1268V58.7235H2.61201Z" fill="white"/>
</svg>
