<svg width="29" height="17" viewBox="0 0 29 17" fill="none" xmlns="http://www.w3.org/2000/svg">
<path d="M19.8845 6.71259C19.5029 6.71259 19.1607 6.49294 18.9853 6.15425C18.9149 6.01847 18.8383 5.88602 18.7558 5.75731C18.5498 5.43612 18.531 5.02994 18.7217 4.69953C18.8548 4.46901 18.8909 4.19506 18.822 3.93795C18.7531 3.68084 18.5849 3.46162 18.3544 3.32852L17.0251 2.56105C16.7945 2.42796 16.5206 2.3919 16.2635 2.46079C16.0064 2.52968 15.7871 2.69788 15.654 2.92839L15.6537 2.92871C15.5615 3.08828 15.427 3.21931 15.2651 3.30737C15.1032 3.39544 14.9201 3.43712 14.736 3.42784C14.5724 3.41988 14.4085 3.41988 14.2448 3.42784C14.061 3.43684 13.8783 3.39498 13.7167 3.30687C13.5552 3.21875 13.421 3.0878 13.329 2.92839C13.1959 2.69788 12.9767 2.52936 12.7196 2.46047C12.4625 2.39158 12.1886 2.42764 11.958 2.56073L10.6287 3.3282C10.3982 3.4613 10.23 3.68052 10.1611 3.93763C10.0922 4.19474 10.1283 4.46869 10.2614 4.69921L10.2617 4.69953C10.3537 4.85889 10.4001 5.04054 10.3956 5.22452C10.3911 5.40849 10.336 5.58767 10.2362 5.74235C10.1474 5.8805 10.0653 6.02247 9.99081 6.16762C9.90674 6.33164 9.77905 6.4693 9.6218 6.56544C9.46455 6.66159 9.28383 6.7125 9.09952 6.71259H9.09888C8.83269 6.71259 8.5774 6.81833 8.38918 7.00655C8.20096 7.19478 8.09521 7.45006 8.09521 7.71625V9.25119C8.09521 9.51738 8.20096 9.77266 8.38918 9.96089C8.5774 10.1491 8.83269 10.2549 9.09888 10.2549C9.48054 10.2549 9.82274 10.4745 9.99813 10.8132C10.0685 10.9491 10.1451 11.0816 10.2276 11.2105C10.4336 11.5316 10.4524 11.9378 10.2617 12.2682C10.1286 12.4988 10.0925 12.7727 10.1614 13.0298C10.2303 13.2869 10.3985 13.5061 10.629 13.6392L11.9584 14.4067C12.1889 14.5398 12.4628 14.5759 12.7199 14.507C12.977 14.4381 13.1963 14.2699 13.3294 14.0394L13.3297 14.039C13.4219 13.8795 13.5564 13.7484 13.7183 13.6604C13.8802 13.5723 14.0633 13.5306 14.2474 13.5399C14.4107 13.5479 14.5746 13.5479 14.7386 13.5399C14.9224 13.5309 15.1051 13.5728 15.2667 13.6609C15.4283 13.749 15.5624 13.88 15.6544 14.0394L15.6547 14.0397C15.7878 14.2702 16.007 14.4384 16.2641 14.5073C16.5212 14.5762 16.7952 14.5401 17.0257 14.407L18.355 13.6396C18.5855 13.5065 18.7537 13.2872 18.8226 13.0301C18.8915 12.773 18.8554 12.4991 18.7223 12.2685L18.722 12.2682C18.6301 12.1088 18.5838 11.9272 18.5883 11.7432C18.5928 11.5593 18.6479 11.3801 18.7475 11.2254C18.8363 11.0873 18.9184 10.9453 18.9929 10.8001C19.077 10.6361 19.2047 10.4985 19.3619 10.4023C19.5192 10.3062 19.6999 10.2553 19.8842 10.2552H19.8848C20.0166 10.2552 20.1472 10.2292 20.2689 10.1788C20.3907 10.1283 20.5013 10.0544 20.5945 9.96121C20.6877 9.86801 20.7617 9.75736 20.8121 9.63559C20.8625 9.51382 20.8885 9.38331 20.8885 9.25151V7.71657C20.8884 7.45032 20.7826 7.195 20.5944 7.00674C20.4061 6.81847 20.1508 6.71267 19.8845 6.71259Z" fill="#F7BF50"/>
<path d="M12.4582 14.8594C12.2268 14.8595 11.9995 14.7984 11.7993 14.6824L10.47 13.9149C10.1644 13.7382 9.94542 13.4533 9.85407 13.1124C9.76271 12.7715 9.8095 12.4153 9.98617 12.1094C10.1148 11.8869 10.1049 11.6084 9.95975 11.3827C9.87204 11.2456 9.79067 11.1045 9.71591 10.9599C9.59241 10.7215 9.35621 10.5735 9.09933 10.5735C8.74885 10.5731 8.41284 10.4337 8.16501 10.1858C7.91718 9.938 7.77776 9.60199 7.77734 9.25151V7.71657C7.77776 7.36609 7.91718 7.03008 8.16501 6.78225C8.41284 6.53442 8.74885 6.39501 9.09933 6.39458C9.35685 6.39458 9.58986 6.25198 9.70796 6.02247C9.7869 5.86904 9.87444 5.71688 9.96866 5.57045C10.1081 5.35399 10.1148 5.08119 9.98649 4.85901C9.89917 4.70883 9.84251 4.54282 9.81978 4.3706C9.79705 4.19837 9.8087 4.02335 9.85407 3.85566C9.89857 3.68777 9.97592 3.53038 10.0816 3.39258C10.1874 3.25478 10.3194 3.13931 10.47 3.05286L11.7993 2.28507C12.1049 2.10872 12.4611 2.06161 12.8023 2.15297C13.1436 2.24432 13.4285 2.46333 13.6052 2.76892C13.6673 2.87824 13.7587 2.96805 13.8691 3.02823C13.9795 3.08841 14.1045 3.11656 14.23 3.10952C14.4039 3.10124 14.5781 3.10124 14.7521 3.10952C15.0134 3.12543 15.2499 2.99174 15.3785 2.76923C15.5541 2.46579 15.8428 2.24439 16.1815 2.15362C16.5201 2.06285 16.8809 2.11013 17.1847 2.28507L18.5143 3.05254C18.8175 3.22822 19.0387 3.51693 19.1295 3.85542C19.2202 4.1939 19.1731 4.55456 18.9985 4.85837C18.8699 5.08088 18.88 5.35941 19.0246 5.58541C19.1121 5.72242 19.1934 5.86326 19.2684 6.00751C19.3919 6.24625 19.6281 6.39427 19.885 6.39427C20.2355 6.39469 20.5715 6.5341 20.8193 6.78193C21.0671 7.02976 21.2065 7.36577 21.207 7.71625V9.25119C21.2065 9.60167 21.0671 9.93768 20.8193 10.1855C20.5715 10.4333 20.2355 10.5728 19.885 10.5732C19.7591 10.5729 19.6356 10.6076 19.5282 10.6733C19.4209 10.739 19.3338 10.8331 19.2767 10.9453C19.1987 11.0978 19.1108 11.2496 19.0156 11.3976C18.9474 11.5031 18.9097 11.6253 18.9066 11.7509C18.9035 11.8764 18.9352 12.0004 18.9981 12.1091C19.1748 12.4147 19.2216 12.7709 19.1302 13.1121C19.0858 13.28 19.0084 13.4373 18.9027 13.5751C18.797 13.7128 18.665 13.8282 18.5143 13.9146L17.1847 14.6821C16.881 14.8571 16.5202 14.9045 16.1816 14.8137C15.8431 14.723 15.5543 14.5016 15.3788 14.1982C15.3166 14.089 15.2252 13.9992 15.1148 13.939C15.0045 13.8788 14.8795 13.8505 14.754 13.8573C14.5808 13.8662 14.4048 13.8656 14.2319 13.8573C14.1061 13.85 13.9806 13.878 13.8699 13.9383C13.7591 13.9985 13.6674 14.0886 13.6052 14.1982C13.489 14.3995 13.3218 14.5666 13.1204 14.6827C12.9191 14.7988 12.6907 14.8597 12.4582 14.8594ZM14.7877 13.2203C15.0194 13.2199 15.2471 13.2807 15.4477 13.3966C15.6483 13.5125 15.8148 13.6793 15.9302 13.8802C16.0215 14.0387 16.1695 14.1521 16.3465 14.1998C16.4334 14.2232 16.5241 14.2292 16.6133 14.2174C16.7025 14.2056 16.7885 14.1763 16.8663 14.131L18.196 13.3636C18.3545 13.2722 18.4678 13.1245 18.5152 12.9475C18.5627 12.7705 18.5382 12.5859 18.4468 12.4274C18.3252 12.2175 18.2639 11.978 18.2697 11.7355C18.2756 11.4929 18.3483 11.2567 18.4799 11.0529C18.5639 10.9227 18.6413 10.7887 18.7101 10.6547C18.8204 10.4382 18.9885 10.2565 19.1958 10.1298C19.4031 10.003 19.6414 9.93613 19.8843 9.93653C20.0661 9.93637 20.2403 9.86412 20.3689 9.73563C20.4974 9.60715 20.5697 9.43293 20.57 9.25119V7.71625C20.5697 7.53456 20.4975 7.36039 20.369 7.23192C20.2405 7.10345 20.0663 7.03116 19.8847 7.03091C19.3887 7.03091 18.9361 6.7511 18.7027 6.30036C18.6371 6.17321 18.5655 6.04924 18.4882 5.92888C18.2144 5.50169 18.1985 4.96946 18.4465 4.54005C18.5372 4.38265 18.5617 4.19569 18.5147 4.02023C18.4676 3.84476 18.3529 3.69513 18.1957 3.60419L16.866 2.83672C16.7883 2.79139 16.7022 2.762 16.613 2.75025C16.5238 2.7385 16.4331 2.74463 16.3462 2.76828C16.2591 2.7913 16.1775 2.83137 16.106 2.88618C16.0346 2.94098 15.9747 3.00943 15.9298 3.08755C15.8086 3.29811 15.6316 3.47105 15.4182 3.58728C15.2048 3.70351 14.9635 3.75849 14.7209 3.74616C14.5675 3.73884 14.4139 3.73884 14.2606 3.74616C14.0183 3.75812 13.7775 3.70303 13.5645 3.58695C13.3515 3.47086 13.1747 3.29828 13.0535 3.08819C13.0086 3.01012 12.9487 2.94168 12.8773 2.88679C12.8059 2.83189 12.7244 2.79163 12.6374 2.7683C12.5504 2.74497 12.4596 2.73903 12.3703 2.75082C12.281 2.76262 12.195 2.79192 12.117 2.83704L10.7877 3.60482C10.7096 3.64958 10.6411 3.70941 10.5863 3.78083C10.5315 3.85225 10.4914 3.93384 10.4684 4.02087C10.4448 4.10773 10.4387 4.19841 10.4505 4.28764C10.4622 4.37688 10.4916 4.46289 10.5369 4.54069C10.6587 4.75056 10.7201 4.99006 10.7142 5.23266C10.7083 5.47526 10.6353 5.71149 10.5034 5.91519C10.4204 6.04411 10.343 6.17844 10.2733 6.31373C10.163 6.5301 9.99488 6.7117 9.78767 6.8384C9.58045 6.9651 9.34221 7.03195 9.09933 7.03154C8.91756 7.03171 8.74327 7.10395 8.61468 7.23242C8.48609 7.36089 8.41369 7.53512 8.41335 7.71689V9.25183C8.41335 9.62999 8.72085 9.93717 9.09869 9.93717C9.59463 9.93717 10.0473 10.217 10.2806 10.6674C10.3462 10.7947 10.4178 10.9189 10.4952 11.0395C10.7689 11.4664 10.7852 11.9986 10.5369 12.428C10.4917 12.5059 10.4624 12.592 10.4507 12.6813C10.439 12.7706 10.4452 12.8613 10.4687 12.9482C10.5159 13.1251 10.6295 13.2729 10.788 13.3642L12.1173 14.1317C12.2748 14.2225 12.4619 14.247 12.6375 14.1999C12.8131 14.1528 12.9629 14.0379 13.0538 13.8805C13.1749 13.6699 13.3519 13.497 13.5652 13.3809C13.7786 13.2647 14.0199 13.2099 14.2625 13.2226C14.4146 13.2299 14.569 13.2299 14.7225 13.2226C14.7444 13.221 14.7661 13.2203 14.7877 13.2203Z" fill="black"/>
<path d="M14.2068 10.9418C14.1224 10.9418 14.0414 10.9082 13.9817 10.8485C13.922 10.7888 13.8885 10.7079 13.8885 10.6235V7.26677C13.8883 7.10655 13.8246 6.95294 13.7114 6.83962C13.5981 6.72631 13.4445 6.66253 13.2843 6.66228H12.4736C12.3133 6.66244 12.1596 6.72619 12.0463 6.83951C11.933 6.95284 11.8692 7.1065 11.8691 7.26677V10.6235C11.8691 10.7079 11.8355 10.7888 11.7758 10.8485C11.7161 10.9082 11.6352 10.9418 11.5507 10.9418C11.4663 10.9418 11.3854 10.9082 11.3257 10.8485C11.266 10.7888 11.2324 10.7079 11.2324 10.6235V7.26677C11.2328 6.9377 11.3636 6.62221 11.5963 6.38953C11.829 6.15684 12.1445 6.02597 12.4736 6.02563H13.2843C13.6133 6.02606 13.9287 6.15696 14.1613 6.38964C14.394 6.62231 14.5248 6.93776 14.5251 7.26677V10.6235C14.5251 10.7079 14.4916 10.7888 14.4319 10.8485C14.3722 10.9082 14.2912 10.9418 14.2068 10.9418Z" fill="black"/>
<path d="M14.2071 8.80202H11.5507C11.4663 8.80202 11.3854 8.76849 11.3257 8.70879C11.266 8.64909 11.2324 8.56813 11.2324 8.4837C11.2324 8.39928 11.266 8.31831 11.3257 8.25862C11.3854 8.19892 11.4663 8.16538 11.5507 8.16538H14.2071C14.2915 8.16538 14.3725 8.19892 14.4322 8.25862C14.4919 8.31831 14.5254 8.39928 14.5254 8.4837C14.5254 8.56813 14.4919 8.64909 14.4322 8.70879C14.3725 8.76849 14.2915 8.80202 14.2071 8.80202ZM16.556 10.9418C16.4716 10.9418 16.3906 10.9082 16.3309 10.8485C16.2712 10.7888 16.2377 10.7079 16.2377 10.6235V6.34396C16.2377 6.25953 16.2712 6.17857 16.3309 6.11887C16.3906 6.05917 16.4716 6.02563 16.556 6.02563C16.6404 6.02563 16.7214 6.05917 16.7811 6.11887C16.8408 6.17857 16.8743 6.25953 16.8743 6.34396V10.6235C16.8743 10.7079 16.8408 10.7888 16.7811 10.8485C16.7214 10.9082 16.6404 10.9418 16.556 10.9418Z" fill="black"/>
<path d="M17.4332 6.66251H15.6786C15.5942 6.66251 15.5132 6.62897 15.4535 6.56928C15.3938 6.50958 15.3603 6.42862 15.3603 6.34419C15.3603 6.25977 15.3938 6.1788 15.4535 6.1191C15.5132 6.05941 15.5942 6.02587 15.6786 6.02587H17.4332C17.5176 6.02587 17.5986 6.05941 17.6583 6.1191C17.7179 6.1788 17.7515 6.25977 17.7515 6.34419C17.7515 6.42862 17.7179 6.50958 17.6583 6.56928C17.5986 6.62897 17.5176 6.66251 17.4332 6.66251ZM17.4332 10.942H15.6786C15.5942 10.942 15.5132 10.9085 15.4535 10.8488C15.3938 10.7891 15.3603 10.7081 15.3603 10.6237C15.3603 10.5393 15.3938 10.4583 15.4535 10.3986C15.5132 10.3389 15.5942 10.3054 15.6786 10.3054H17.4332C17.5176 10.3054 17.5986 10.3389 17.6583 10.3986C17.7179 10.4583 17.7515 10.5393 17.7515 10.6237C17.7515 10.7081 17.7179 10.7891 17.6583 10.8488C17.5986 10.9085 17.5176 10.942 17.4332 10.942ZM8.09556 8.80226H4.16971C4.08529 8.80226 4.00432 8.76872 3.94463 8.70903C3.88493 8.64933 3.85139 8.56836 3.85139 8.48394C3.85139 8.39952 3.88493 8.31855 3.94463 8.25885C4.00432 8.19916 4.08529 8.16562 4.16971 8.16562H8.09556C8.17998 8.16562 8.26095 8.19916 8.32064 8.25885C8.38034 8.31855 8.41388 8.39952 8.41388 8.48394C8.41388 8.56836 8.38034 8.64933 8.32064 8.70903C8.26095 8.76872 8.17998 8.80226 8.09556 8.80226ZM5.50475 14.8599H4.16939C4.08497 14.8599 4.004 14.8264 3.94431 14.7667C3.88461 14.707 3.85107 14.626 3.85107 14.5416C3.85107 14.4572 3.88461 14.3762 3.94431 14.3165C4.004 14.2568 4.08497 14.2233 4.16939 14.2233H5.35036L7.05051 12.0711C7.08032 12.0334 7.11829 12.0029 7.16157 11.9819C7.20485 11.961 7.25231 11.9501 7.30039 11.9501H10.2614C10.3458 11.9501 10.4268 11.9837 10.4865 12.0434C10.5462 12.1031 10.5797 12.184 10.5797 12.2685C10.5797 12.3529 10.5462 12.4338 10.4865 12.4935C10.4268 12.5532 10.3458 12.5868 10.2614 12.5868H7.45478L5.75463 14.7389C5.7249 14.7767 5.68694 14.8073 5.64365 14.8283C5.60035 14.8492 5.55285 14.86 5.50475 14.8599ZM10.2614 5.01743H7.30039C7.20299 5.01743 7.11099 4.97287 7.05051 4.89647L5.35036 2.74431H4.16939C4.08497 2.74431 4.004 2.71077 3.94431 2.65107C3.88461 2.59138 3.85107 2.51041 3.85107 2.42599C3.85107 2.34156 3.88461 2.2606 3.94431 2.2009C4.004 2.1412 4.08497 2.10767 4.16939 2.10767H5.50475C5.60215 2.10767 5.69415 2.15223 5.75463 2.22863L7.45478 4.38079H10.2614C10.3458 4.38079 10.4268 4.41433 10.4865 4.47403C10.5462 4.53372 10.5797 4.61469 10.5797 4.69911C10.5797 4.78354 10.5462 4.8645 10.4865 4.9242C10.4268 4.9839 10.3458 5.01743 10.2614 5.01743Z" fill="black"/>
<path d="M2.19265 16.2559C3.13988 16.2559 3.90776 15.488 3.90776 14.5408C3.90776 13.5936 3.13988 12.8257 2.19265 12.8257C1.24542 12.8257 0.477539 13.5936 0.477539 14.5408C0.477539 15.488 1.24542 16.2559 2.19265 16.2559Z" fill="#F7BF50"/>
<path d="M2.19261 16.5747C1.07149 16.5747 0.15918 15.6627 0.15918 14.5412C0.15918 13.4198 1.07149 12.5078 2.19261 12.5078C3.31373 12.5078 4.22604 13.4198 4.22604 14.5412C4.22604 15.6627 3.31373 16.5747 2.19261 16.5747ZM2.19261 13.1448C1.42227 13.1448 0.79582 13.7712 0.79582 14.5412C0.79582 15.3113 1.42227 15.938 2.19261 15.938C2.96294 15.938 3.5894 15.3113 3.5894 14.5412C3.5894 13.7712 2.96263 13.1448 2.19261 13.1448Z" fill="black"/>
<path d="M2.19265 10.1983C3.13988 10.1983 3.90776 9.43041 3.90776 8.48318C3.90776 7.53595 3.13988 6.76807 2.19265 6.76807C1.24542 6.76807 0.477539 7.53595 0.477539 8.48318C0.477539 9.43041 1.24542 10.1983 2.19265 10.1983Z" fill="#7EC6C5"/>
<path d="M2.19261 10.5171C1.07149 10.5171 0.15918 9.60475 0.15918 8.48363C0.15918 7.3625 1.07149 6.4502 2.19261 6.4502C3.31373 6.4502 4.22604 7.3625 4.22604 8.48363C4.22537 9.02272 4.01091 9.53954 3.62972 9.92073C3.24852 10.3019 2.7317 10.5164 2.19261 10.5171ZM2.19261 7.08684C1.42227 7.08684 0.79582 7.71361 0.79582 8.48363C0.79582 9.25364 1.42227 9.88041 2.19261 9.88041C2.96294 9.88041 3.5894 9.25364 3.5894 8.48363C3.58889 8.11333 3.44157 7.75834 3.17973 7.4965C2.91789 7.23466 2.56291 7.08734 2.19261 7.08684Z" fill="black"/>
<path d="M2.19265 4.14067C3.13988 4.14067 3.90776 3.37279 3.90776 2.42556C3.90776 1.47833 3.13988 0.710449 2.19265 0.710449C1.24542 0.710449 0.477539 1.47833 0.477539 2.42556C0.477539 3.37279 1.24542 4.14067 2.19265 4.14067Z" fill="#F17B7B"/>
<path d="M2.19261 4.45919C1.65349 4.4586 1.13662 4.24418 0.755409 3.86297C0.374195 3.48175 0.159769 2.96488 0.15918 2.42576C0.15918 1.30464 1.07149 0.392334 2.19261 0.392334C3.31373 0.392334 4.22604 1.30464 4.22604 2.42576C4.22537 2.96486 4.01091 3.48168 3.62972 3.86287C3.24852 4.24407 2.7317 4.45852 2.19261 4.45919ZM2.19261 1.02929C1.42227 1.02929 0.79582 1.65575 0.79582 2.42576C0.79582 3.19578 1.42227 3.82255 2.19261 3.82255C2.96294 3.82255 3.5894 3.19578 3.5894 2.42576C3.5894 1.65575 2.96263 1.02929 2.19261 1.02929ZM24.7975 8.80204H20.8716C20.7872 8.80204 20.7063 8.7685 20.6466 8.70881C20.5869 8.64911 20.5533 8.56814 20.5533 8.48372C20.5533 8.39929 20.5869 8.31833 20.6466 8.25863C20.7063 8.19893 20.7872 8.1654 20.8716 8.1654H24.7975C24.8819 8.1654 24.9629 8.19893 25.0226 8.25863C25.0823 8.31833 25.1158 8.39929 25.1158 8.48372C25.1158 8.56814 25.0823 8.64911 25.0226 8.70881C24.9629 8.7685 24.8819 8.80204 24.7975 8.80204ZM24.7975 14.8597H23.4625C23.4144 14.8597 23.367 14.8488 23.3238 14.8279C23.2806 14.8069 23.2426 14.7764 23.2129 14.7387L21.5124 12.5865H18.7058C18.6214 12.5865 18.5404 12.553 18.4807 12.4933C18.421 12.4336 18.3875 12.3527 18.3875 12.2682C18.3875 12.1838 18.421 12.1028 18.4807 12.0431C18.5404 11.9834 18.6214 11.9499 18.7058 11.9499H21.6668C21.7642 11.9499 21.8562 11.9945 21.9164 12.0709L23.6168 14.223H24.7978C24.8822 14.2231 24.9632 14.2567 25.0228 14.3164C25.0825 14.3761 25.116 14.4571 25.116 14.5415C25.1159 14.6259 25.0823 14.7069 25.0226 14.7666C24.9629 14.8262 24.8819 14.8597 24.7975 14.8597ZM21.6665 5.01721H18.7055C18.6211 5.01721 18.5401 4.98367 18.4804 4.92398C18.4207 4.86428 18.3872 4.78331 18.3872 4.69889C18.3872 4.61447 18.4207 4.5335 18.4804 4.4738C18.5401 4.41411 18.6211 4.38057 18.7055 4.38057H21.5121L23.2123 2.22841C23.2727 2.15201 23.3647 2.10744 23.4621 2.10744H24.7972C24.8816 2.10744 24.9626 2.14098 25.0223 2.20068C25.082 2.26037 25.1155 2.34134 25.1155 2.42576C25.1155 2.51019 25.082 2.59115 25.0223 2.65085C24.9626 2.71055 24.8816 2.74408 24.7972 2.74408H23.6162L21.9161 4.89625C21.8863 4.93397 21.8484 4.96445 21.8052 4.9854C21.7619 5.00635 21.7145 5.01723 21.6665 5.01721Z" fill="black"/>
<path d="M26.7732 16.2559C27.7204 16.2559 28.4883 15.488 28.4883 14.5408C28.4883 13.5936 27.7204 12.8257 26.7732 12.8257C25.826 12.8257 25.0581 13.5936 25.0581 14.5408C25.0581 15.488 25.826 16.2559 26.7732 16.2559Z" fill="#F17B7B"/>
<path d="M26.7746 16.5747C25.6535 16.5747 24.7412 15.6627 24.7412 14.5412C24.7412 13.4198 25.6532 12.5078 26.7746 12.5078C27.8961 12.5078 28.8081 13.4201 28.8081 14.5412C28.8081 15.6624 27.8961 16.5747 26.7746 16.5747ZM26.7746 13.1448C26.0046 13.1448 25.3779 13.7715 25.3779 14.5416C25.3779 15.3116 26.0046 15.9384 26.7746 15.9384C27.5447 15.9384 28.1714 15.3113 28.1714 14.5412C28.1714 13.7712 27.5447 13.1448 26.7746 13.1448Z" fill="black"/>
<path d="M26.7732 10.1983C27.7204 10.1983 28.4883 9.43041 28.4883 8.48318C28.4883 7.53595 27.7204 6.76807 26.7732 6.76807C25.826 6.76807 25.0581 7.53595 25.0581 8.48318C25.0581 9.43041 25.826 10.1983 26.7732 10.1983Z" fill="#F7BF50"/>
<path d="M26.7746 10.5171C26.2355 10.5165 25.7187 10.302 25.3374 9.92083C24.9562 9.53961 24.7418 9.02274 24.7412 8.48363C24.7412 7.3625 25.6532 6.4502 26.7746 6.4502C27.8961 6.4502 28.8081 7.3625 28.8081 8.48363C28.8081 9.60475 27.8961 10.5171 26.7746 10.5171ZM26.7746 7.08684C26.4043 7.08726 26.0493 7.23455 25.7874 7.49641C25.5256 7.75827 25.3783 8.1133 25.3779 8.48363C25.3779 9.25364 26.0046 9.88041 26.7746 9.88041C27.5447 9.88041 28.1714 9.25364 28.1714 8.48363C28.1714 7.71361 27.5447 7.08684 26.7746 7.08684Z" fill="black"/>
<path d="M26.7732 4.14067C27.7204 4.14067 28.4883 3.37279 28.4883 2.42556C28.4883 1.47833 27.7204 0.710449 26.7732 0.710449C25.826 0.710449 25.0581 1.47833 25.0581 2.42556C25.0581 3.37279 25.826 4.14067 26.7732 4.14067Z" fill="#7EC6C5"/>
<path d="M26.7746 4.45919C25.6535 4.45919 24.7412 3.54689 24.7412 2.42576C24.7412 1.30464 25.6532 0.392334 26.7746 0.392334C27.8961 0.392334 28.8081 1.30464 28.8081 2.42576C28.8076 2.96491 28.5932 3.48183 28.2119 3.86306C27.8307 4.24429 27.3138 4.45869 26.7746 4.45919ZM26.7746 1.02929C26.0046 1.02929 25.3779 1.65575 25.3779 2.42608C25.3779 3.19642 26.0046 3.82287 26.7746 3.82287C27.5447 3.82287 28.1714 3.1961 28.1714 2.42576C28.1714 1.65543 27.5447 1.02929 26.7746 1.02929Z" fill="black"/>
</svg>
