<svg width="19" height="16" viewBox="0 0 19 16" fill="none" xmlns="http://www.w3.org/2000/svg">
<path d="M18.4906 8.63065L11.7406 15.3807C11.5999 15.5214 11.409 15.6004 11.21 15.6004C11.0109 15.6004 10.8201 15.5214 10.6793 15.3807C10.5386 15.2399 10.4595 15.0491 10.4595 14.85C10.4595 14.651 10.5386 14.4601 10.6793 14.3194L16.1496 8.85003H1.45996C1.26105 8.85003 1.07028 8.77101 0.929631 8.63036C0.788979 8.4897 0.709961 8.29894 0.709961 8.10003C0.709961 7.90111 0.788979 7.71035 0.929631 7.5697C1.07028 7.42904 1.26105 7.35003 1.45996 7.35003H16.1496L10.6793 1.88065C10.5386 1.73992 10.4595 1.54905 10.4595 1.35003C10.4595 1.151 10.5386 0.960132 10.6793 0.819401C10.8201 0.678671 11.0109 0.599609 11.21 0.599609C11.409 0.599609 11.5999 0.678671 11.7406 0.819401L18.4906 7.5694C18.5603 7.63906 18.6156 7.72177 18.6534 7.81282C18.6911 7.90387 18.7106 8.00146 18.7106 8.10003C18.7106 8.19859 18.6911 8.29618 18.6534 8.38723C18.6156 8.47828 18.5603 8.561 18.4906 8.63065Z" fill="#0C2231"/>
</svg>
