<svg width="11" height="12" viewBox="0 0 11 12" fill="none" xmlns="http://www.w3.org/2000/svg">
<path d="M10.9842 1.125V9.04688C10.9842 9.20849 10.92 9.36349 10.8057 9.47777C10.6915 9.59205 10.5365 9.65625 10.3749 9.65625C10.2132 9.65625 10.0582 9.59205 9.94396 9.47777C9.82968 9.36349 9.76548 9.20849 9.76548 9.04688V2.59588L1.05598 11.3061C0.94164 11.4205 0.786557 11.4847 0.624851 11.4847C0.463144 11.4847 0.308061 11.4205 0.193718 11.3061C0.0793742 11.1918 0.0151367 11.0367 0.0151367 10.875C0.0151367 10.7133 0.0793742 10.5582 0.193718 10.4439L8.90397 1.73438H2.45298C2.29136 1.73438 2.13636 1.67017 2.02208 1.55589C1.9078 1.44161 1.8436 1.28662 1.8436 1.125C1.8436 0.963384 1.9078 0.808387 2.02208 0.694107C2.13636 0.579827 2.29136 0.515625 2.45298 0.515625H10.3749C10.5365 0.515625 10.6915 0.579827 10.8057 0.694107C10.92 0.808387 10.9842 0.963384 10.9842 1.125Z" fill="#011813"/>
</svg>
