<svg width="25" height="24" viewBox="0 0 25 24" fill="none" xmlns="http://www.w3.org/2000/svg">
<path d="M19.1801 6V15.75C19.1801 15.9489 19.1011 16.1397 18.9604 16.2803C18.8198 16.421 18.629 16.5 18.4301 16.5C18.2312 16.5 18.0404 16.421 17.8998 16.2803C17.7591 16.1397 17.6801 15.9489 17.6801 15.75V7.81031L6.96073 18.5306C6.82 18.6714 6.62913 18.7504 6.4301 18.7504C6.23108 18.7504 6.04021 18.6714 5.89948 18.5306C5.75875 18.3899 5.67969 18.199 5.67969 18C5.67969 17.801 5.75875 17.6101 5.89948 17.4694L16.6198 6.75H8.6801C8.48119 6.75 8.29043 6.67098 8.14977 6.53033C8.00912 6.38968 7.9301 6.19891 7.9301 6C7.9301 5.80109 8.00912 5.61032 8.14977 5.46967C8.29043 5.32902 8.48119 5.25 8.6801 5.25H18.4301C18.629 5.25 18.8198 5.32902 18.9604 5.46967C19.1011 5.61032 19.1801 5.80109 19.1801 6Z" fill="white"/>
</svg>
