<svg width="55" height="55" viewBox="0 0 55 55" fill="none" xmlns="http://www.w3.org/2000/svg">
<path d="M36.0795 20.4062C36.0493 20.4062 36.0209 20.3982 35.9908 20.3973C35.6412 22.1389 34.2696 23.5035 32.5306 23.8584V27.5039C33.511 27.5039 34.3051 28.298 34.3051 29.2784C34.3051 30.2587 33.511 31.0528 32.5306 31.0528C32.5306 32.4182 32.0125 33.6594 31.167 34.6016H31.1741H39.6284C40.6087 34.6016 41.4028 35.3957 41.4028 36.3761H43.1772C44.2543 36.3761 45.2081 36.8667 45.8593 37.6244L45.9728 37.4061C47.0464 35.33 47.6142 32.9967 47.6142 30.6597C47.6142 25.3471 44.7316 20.4346 40.0933 17.8359C39.3862 19.3495 37.861 20.4062 36.0795 20.4062Z" fill="#AAC191"/>
<path d="M8.55578 37.6252C9.20611 36.8666 10.1599 36.376 11.2378 36.376H13.0123C13.0123 35.3956 13.8063 34.6016 14.7867 34.6016H23.241H23.2481C22.4026 33.6593 21.8844 32.4181 21.8844 31.0527C20.904 31.0527 20.11 30.2586 20.11 29.2783C20.11 28.2979 20.904 27.5038 21.8844 27.5038V23.8583C20.1499 23.5052 18.7809 22.1468 18.4261 20.4132L18.4748 20.3928C18.4269 20.3937 18.3826 20.4061 18.3356 20.4061C16.554 20.4061 15.0289 19.3494 14.3227 17.835C9.68343 20.4336 6.80176 25.3461 6.80176 30.6588C6.80176 32.9957 7.36958 35.3282 8.44222 37.4052L8.55578 37.6252Z" fill="#E9A772"/>
<path d="M21.9389 47.3436C22.5431 49.7666 24.7106 51.4585 27.2081 51.4585C29.7056 51.4585 31.8731 49.7666 32.4772 47.3463L32.7833 46.1353H21.6328L21.9389 47.3436ZM30.3453 47.9097C29.6985 48.9903 28.5203 49.6841 27.2081 49.6841C25.8959 49.6841 24.7185 48.9903 24.0718 47.9097H30.3453Z" fill="black"/>
<path d="M24.547 38.1504H22.7725C22.7725 39.6178 21.5783 40.812 20.1109 40.812C18.6434 40.812 17.4492 39.6178 17.4492 38.1504H15.6748C15.6748 40.5964 17.6648 42.5865 20.1109 42.5865C22.5569 42.5865 24.547 40.5964 24.547 38.1504Z" fill="black"/>
<path d="M34.3062 40.812C32.8387 40.812 31.6445 39.6178 31.6445 38.1504H29.8701C29.8701 40.5964 31.8601 42.5865 34.3062 42.5865C36.7522 42.5865 38.7423 40.5964 38.7423 38.1504H36.9678C36.9678 39.6178 35.7736 40.812 34.3062 40.812Z" fill="black"/>
<path d="M43.1776 44.3608C45.6236 44.3608 47.6137 42.3707 47.6137 39.9247C47.6137 37.4786 45.6236 35.4886 43.1776 35.4886H42.1271C41.7598 34.4586 40.7839 33.7142 39.6287 33.7142H32.8105C33.0944 33.118 33.2887 32.473 33.3703 31.7916C34.4252 31.4376 35.1927 30.451 35.1927 29.2781C35.1927 28.123 34.4483 27.147 33.4182 26.7797V24.5262C34.9221 23.9894 36.1402 22.7997 36.6743 21.2603C39.3306 20.964 41.4032 18.7043 41.4032 15.9699C41.4032 14.6053 40.8833 13.3632 40.036 12.421C40.901 11.4522 41.4032 10.1879 41.4032 8.87215C41.4032 6.13243 39.3226 3.87181 36.6592 3.58169C35.9264 1.47366 33.9248 0 31.6438 0C29.7939 0 28.1624 0.947546 27.2077 2.38395C26.2531 0.947546 24.6215 0 22.7716 0C20.4871 0 18.4731 1.47012 17.7411 3.58169C15.0848 3.87802 13.0123 6.13776 13.0123 8.87215C13.0123 10.2367 13.5322 11.4788 14.3795 12.421C13.5144 13.3899 13.0123 14.6541 13.0123 15.9699C13.0123 18.7096 15.0928 20.9702 17.7562 21.2603C18.2903 22.797 19.4934 23.9974 20.9972 24.5333V26.7806C19.9671 27.1479 19.2228 28.1238 19.2228 29.279C19.2228 30.4519 19.9902 31.4385 21.0451 31.7925C21.1267 32.4739 21.3202 33.1198 21.6049 33.7151H14.7867C13.6315 33.7151 12.6556 34.4594 12.2883 35.4895H11.2378C8.79178 35.4895 6.80176 37.4795 6.80176 39.9256C6.80176 42.3716 8.79178 44.3617 11.2378 44.3617H12.1703C12.6263 50.3069 17.5992 55.0082 23.6589 55.0082H30.7566C36.8163 55.0082 41.7891 50.3069 42.2451 44.3617L43.1776 44.3608ZM45.8392 39.9247C45.8392 41.3921 44.645 42.5863 43.1776 42.5863H42.2904V37.263H43.1776C44.645 37.263 45.8392 38.4572 45.8392 39.9247ZM27.2077 35.4886C25.066 35.4886 23.2738 33.9617 22.8612 31.9398H31.5542C31.1416 33.9617 29.3495 35.4886 27.2077 35.4886ZM31.6438 26.6165H29.8694V24.5288C30.4256 24.7267 31.0201 24.842 31.6438 24.842V26.6165ZM27.2077 22.4581C27.4588 22.8351 27.7587 23.1767 28.0949 23.4784V26.6165H26.3205V23.4784C26.6568 23.1767 26.9566 22.836 27.2077 22.4581ZM31.6438 1.77443C32.9959 1.77443 34.1963 2.55341 34.7916 3.71122C33.8565 3.94279 32.9986 4.42011 32.3021 5.12101L33.5619 6.37109C34.2327 5.69504 35.127 5.32329 36.0799 5.32329C38.0371 5.32329 39.6287 6.91496 39.6287 8.87215C39.6287 9.79841 39.2641 10.6501 38.6395 11.3049C37.8791 10.8861 37.007 10.6466 36.0799 10.6466C33.554 10.6466 31.3599 12.4423 30.8622 14.9168L32.602 15.2672C32.9338 13.6179 34.3968 12.421 36.0799 12.421C38.0371 12.421 39.6287 14.0127 39.6287 15.9699C39.6287 17.912 38.0601 19.4957 36.1233 19.5187L35.269 19.4895L35.1217 20.2223C34.7899 21.8707 33.3268 23.0676 31.6438 23.0676C29.6866 23.0676 28.0949 21.4759 28.0949 19.5187V5.32329C28.0949 3.3661 29.6866 1.77443 31.6438 1.77443ZM19.6238 21.1308C20.5589 20.8992 21.4169 20.4219 22.1133 19.721L20.8535 18.4709C20.1827 19.147 19.2884 19.5187 18.3356 19.5187C16.3784 19.5187 14.7867 17.9271 14.7867 15.9699C14.7867 15.0436 15.1513 14.1919 15.7759 13.5371C16.5363 13.9559 17.4084 14.1954 18.3356 14.1954C20.8615 14.1954 23.0555 12.3997 23.5533 9.92528L21.8134 9.57483C21.4816 11.2242 20.0186 12.421 18.3356 12.421C16.3784 12.421 14.7867 10.8294 14.7867 8.87215C14.7867 6.93004 16.3553 5.34636 18.2921 5.32329L19.1465 5.35257L19.2938 4.61973C19.6256 2.97128 21.0886 1.77443 22.7716 1.77443C24.7288 1.77443 26.3205 3.3661 26.3205 5.32329V19.5187C26.3205 21.4759 24.7288 23.0676 22.7716 23.0676C21.4195 23.0676 20.22 22.2886 19.6238 21.1308ZM24.5461 24.5288V26.6165H22.7716V24.842C23.3953 24.842 23.9898 24.7267 24.5461 24.5288ZM21.8844 28.3909H32.531C33.0207 28.3909 33.4182 28.7893 33.4182 29.2781C33.4182 29.767 33.0207 30.1653 32.531 30.1653H21.8844C21.3947 30.1653 20.9972 29.767 20.9972 29.2781C20.9972 28.7893 21.3947 28.3909 21.8844 28.3909ZM8.57619 39.9247C8.57619 38.4572 9.77038 37.263 11.2378 37.263H12.1251V42.5863H11.2378C9.77038 42.5863 8.57619 41.3921 8.57619 39.9247ZM40.5159 43.4736C40.5159 48.8545 36.1375 53.2329 30.7566 53.2329H23.6589C18.2779 53.2329 13.8995 48.8545 13.8995 43.4736V36.3758C13.8995 35.887 14.297 35.4886 14.7867 35.4886H22.8701C23.9907 36.5843 25.5211 37.263 27.2077 37.263C28.8943 37.263 30.4256 36.5843 31.5453 35.4886H39.6287C40.1185 35.4886 40.5159 35.887 40.5159 36.3758V43.4736Z" fill="black"/>
<path d="M48.8559 18.8091L49.9206 20.2287L54.4161 16.8573L49.9206 13.4858L48.8559 14.9054L50.2755 15.97H43.1777V17.7445H50.2755L48.8559 18.8091Z" fill="black"/>
<path d="M48.8564 30.8751L50.276 31.9398H47.5513C47.499 32.536 47.4094 33.1286 47.2852 33.7142H50.2768L48.8573 34.7789L49.9211 36.1984L54.4166 32.827L49.9211 29.4556L48.8564 30.8751Z" fill="black"/>
<path d="M48.8559 46.8448L50.2755 47.9095H43.1777V49.6839H50.2755L48.8559 50.7486L49.9206 52.1681L54.4161 48.7967L49.9206 45.4253L48.8559 46.8448Z" fill="black"/>
<path d="M5.56018 18.8091L4.14063 17.7445H11.2384V15.97H4.14063L5.56018 14.9054L4.49552 13.4858L0 16.8573L4.49552 20.2287L5.56018 18.8091Z" fill="black"/>
<path d="M5.56018 34.7789L4.14063 33.7142H7.13232C7.00723 33.1286 6.91851 32.536 6.86616 31.9398H4.14063L5.56018 30.8751L4.49641 29.4556L0 32.827L4.49552 36.1984L5.56018 34.7789Z" fill="black"/>
<path d="M5.56018 46.8448L4.49552 45.4253L0 48.7967L4.49552 52.1681L5.56018 50.7486L4.14063 49.6839H11.2384V47.9095H4.14063L5.56018 46.8448Z" fill="black"/>
</svg>
