<svg width="31" height="31" viewBox="0 0 31 31" fill="none" xmlns="http://www.w3.org/2000/svg">
<path d="M29.0007 17.1793C29.0007 15.959 28.4581 14.8661 27.6017 14.1267C27.5168 14.0534 27.4999 13.9272 27.5672 13.8374C28.0116 13.246 28.2514 12.5261 28.2504 11.7863C28.2504 10.0624 26.9759 8.63688 25.3179 8.3988C25.186 8.37987 25.1041 8.24634 25.1462 8.11998C25.2683 7.75366 25.3268 7.35831 25.3082 6.94681C25.2343 5.317 23.934 3.98292 22.3065 3.86917C21.8422 3.83671 21.3975 3.90324 20.9902 4.04864C20.8711 4.09115 20.7431 4.01982 20.7123 3.89725C20.4466 2.84119 19.4923 2.05877 18.3546 2.05567C17.0095 2.05198 15.9092 3.19344 15.9092 4.53854V25.261C15.9092 27.0953 17.4098 28.6396 19.244 28.6336C20.5877 28.6291 21.7431 27.827 22.2628 26.6762C22.2846 26.6277 22.3235 26.5889 22.3721 26.5673C22.4207 26.5458 22.4756 26.5429 22.5262 26.5593C22.8507 26.6625 23.1892 26.715 23.5297 26.7148C25.3599 26.7148 26.8436 25.2311 26.8436 23.4009C26.8436 22.6228 26.1258 21.6837 25.5602 21.0602C25.4547 20.9439 25.5073 20.7578 25.6578 20.7127C27.3253 20.2114 29.0007 18.9605 29.0007 17.1793Z" fill="#FE99A0"/>
<path d="M25.5596 21.1168C26.1254 21.7403 26.843 22.6794 26.843 23.4574C26.843 25.288 25.3596 26.7714 23.5291 26.7714C23.3007 26.7714 23.0772 26.7479 22.8622 26.7035C24.3713 26.3938 25.5061 25.0585 25.5061 23.4574C25.5061 22.6794 24.7885 21.7403 24.2227 21.1168C24.1173 21.0007 24.1697 20.8146 24.3205 20.7692C25.9879 20.2681 27.6634 19.0173 27.6634 17.236C27.6634 16.0156 27.1206 14.9231 26.2644 14.1835C26.1794 14.1103 26.1628 13.9841 26.2297 13.8942C26.6585 13.3226 26.9131 12.6129 26.9131 11.8434C26.9131 10.1193 25.6387 8.69362 23.9804 8.45565C23.8489 8.43694 23.7665 8.30324 23.8088 8.17704C23.9312 7.81072 23.9895 7.415 23.9708 7.00376C23.904 5.52353 22.8248 4.28715 21.4082 3.98768C21.6954 3.92672 21.9964 3.90426 22.3061 3.92618C23.9334 4.03955 25.2339 5.37379 25.3077 7.00376C25.3264 7.415 25.2681 7.81072 25.1457 8.17704C25.1034 8.30324 25.1858 8.43694 25.3173 8.45565C26.9757 8.69362 28.25 10.1193 28.25 11.8434C28.25 12.6129 27.9955 13.3226 27.5666 13.8942C27.4997 13.9841 27.5163 14.1103 27.6013 14.1835C28.4575 14.9231 29.0003 16.0156 29.0003 17.236C29.0003 19.0173 27.3249 20.2681 25.6575 20.7692C25.5067 20.8146 25.4542 21.0007 25.5596 21.1168Z" fill="#FD8087"/>
<path d="M2.81738 17.1793C2.81738 15.8846 3.42819 14.7332 4.3766 13.9953C3.87232 13.3991 3.56771 12.6285 3.56771 11.7864C3.56771 9.97101 4.9811 8.48644 6.76743 8.37115C6.59481 7.96853 6.50603 7.53497 6.50652 7.09691C6.50652 5.30982 7.9552 3.86114 9.74228 3.86114C10.1955 3.86078 10.6438 3.95604 11.0577 4.14072C11.229 2.96156 12.2438 2.05566 13.4704 2.05566C14.8172 2.05566 15.9089 3.14744 15.9089 4.4942V25.3098C15.9089 27.1455 14.4209 28.6335 12.5853 28.6335C11.1667 28.6335 9.95635 27.7444 9.47929 26.4934C9.09938 26.6399 8.69566 26.7149 8.28847 26.7147C6.45823 26.7147 4.97452 25.231 4.97452 23.4008C4.97452 22.5067 5.92234 21.3999 6.49791 20.8038C4.72698 20.3782 2.81738 19.0809 2.81738 17.1793Z" fill="#99E6FC"/>
<path d="M15.9085 4.4942V25.31C15.9085 27.1458 14.4202 28.6335 12.5844 28.6335C12.356 28.6335 12.1325 28.6105 11.917 28.5662C13.432 28.256 14.5716 26.9164 14.5716 25.31V4.4942C14.5716 3.37975 13.8234 2.43909 12.8015 2.14871C13.0138 2.08828 13.2384 2.05566 13.47 2.05566C14.8164 2.05566 15.9085 3.14766 15.9085 4.4942Z" fill="#62DBFB"/>
<path d="M9.45578 28.4594C10.4006 28.4594 11.1664 27.6935 11.1664 26.7488C11.1664 25.804 10.4006 25.0381 9.45578 25.0381C8.51101 25.0381 7.74512 25.804 7.74512 26.7488C7.74512 27.6935 8.51101 28.4594 9.45578 28.4594Z" fill="#6FD7A3"/>
<path d="M11.1658 26.7488C11.1658 27.6937 10.4 28.4595 9.45506 28.4595C9.26395 28.4597 9.07415 28.4279 8.89355 28.3654C9.56255 28.1327 10.0428 27.4969 10.0428 26.7488C10.0428 26.0012 9.56255 25.3653 8.89355 25.1327C9.07415 25.0702 9.26395 25.0384 9.45506 25.0386C10.4 25.0386 11.1658 25.8044 11.1658 26.7488Z" fill="#3EC3A4"/>
<path d="M15.9083 20.8751C18.9626 20.8751 21.4386 18.3991 21.4386 15.3448C21.4386 12.2905 18.9626 9.81445 15.9083 9.81445C12.8539 9.81445 10.3779 12.2905 10.3779 15.3448C10.3779 18.3991 12.8539 20.8751 15.9083 20.8751Z" fill="#F2FBFF"/>
<path d="M21.4387 15.3445C21.4387 18.3991 18.9627 20.875 15.9087 20.875C15.6825 20.875 15.4595 20.8617 15.2402 20.8349C17.9793 20.505 20.1018 18.1728 20.1018 15.3445C20.1018 12.5166 17.9793 10.1845 15.2402 9.85456C15.4595 9.82782 15.6825 9.81445 15.9087 9.81445C18.9628 9.81445 21.4387 12.2904 21.4387 15.3445Z" fill="#DFF6FD"/>
<path d="M5.5925 22.7031C6.53727 22.7031 7.30316 21.9372 7.30316 20.9924C7.30316 20.0476 6.53727 19.2817 5.5925 19.2817C4.64773 19.2817 3.88184 20.0476 3.88184 20.9924C3.88184 21.9372 4.64773 22.7031 5.5925 22.7031Z" fill="#6FD7A3"/>
<path d="M7.30347 20.9924C7.30347 21.9373 6.53769 22.7031 5.59275 22.7031C5.40164 22.7033 5.21185 22.6715 5.03125 22.609C5.70024 22.3764 6.18046 21.7405 6.18046 20.9924C6.18046 20.2448 5.70024 19.609 5.03125 19.3763C5.21185 19.3138 5.40164 19.282 5.59275 19.2822C6.53769 19.2822 7.30347 20.048 7.30347 20.9924Z" fill="#3EC3A4"/>
<path d="M4.36105 15.6596C5.30583 15.6596 6.07172 14.8937 6.07172 13.9489C6.07172 13.0042 5.30583 12.2383 4.36105 12.2383C3.41628 12.2383 2.65039 13.0042 2.65039 13.9489C2.65039 14.8937 3.41628 15.6596 4.36105 15.6596Z" fill="#6FD7A3"/>
<path d="M6.073 13.949C6.073 14.8939 5.30722 15.6597 4.36229 15.6597C4.17118 15.6599 3.98138 15.6281 3.80078 15.5656C4.46977 15.3329 4.94999 14.6971 4.94999 13.949C4.94999 13.2013 4.46977 12.5655 3.80078 12.3329C3.98138 12.2704 4.17118 12.2386 4.36229 12.2388C5.30722 12.2388 6.073 13.0046 6.073 13.949Z" fill="#3EC3A4"/>
<path d="M6.41086 9.54779C7.35563 9.54779 8.12152 8.7819 8.12152 7.83713C8.12152 6.89235 7.35563 6.12646 6.41086 6.12646C5.46609 6.12646 4.7002 6.89235 4.7002 7.83713C4.7002 8.7819 5.46609 9.54779 6.41086 9.54779Z" fill="#6FD7A3"/>
<path d="M8.12085 7.83714C8.12085 8.78207 7.35507 9.54785 6.41014 9.54785C6.21903 9.54806 6.02923 9.51624 5.84863 9.45373C6.51763 9.22111 6.99785 8.58527 6.99785 7.83714C6.99785 7.08953 6.51763 6.4537 5.84863 6.22107C6.02923 6.15857 6.21903 6.12675 6.41014 6.12695C7.35507 6.12695 8.12085 6.89274 8.12085 7.83714Z" fill="#3EC3A4"/>
<path d="M10.9753 5.72553C11.9201 5.72553 12.686 4.95964 12.686 4.01486C12.686 3.07009 11.9201 2.3042 10.9753 2.3042C10.0305 2.3042 9.26465 3.07009 9.26465 4.01486C9.26465 4.95964 10.0305 5.72553 10.9753 5.72553Z" fill="#6FD7A3"/>
<path d="M12.6863 4.01438C12.6863 4.95931 11.9205 5.7251 10.9756 5.7251C10.7845 5.7253 10.5947 5.69349 10.4141 5.63098C11.0831 5.39836 11.5633 4.76252 11.5633 4.01438C11.5633 3.26678 11.0831 2.63094 10.4141 2.39832C10.5947 2.33581 10.7845 2.304 10.9756 2.3042C11.9204 2.3042 12.6863 3.06999 12.6863 4.01438Z" fill="#3EC3A4"/>
<path d="M28.6412 18.5505C28.868 18.1388 29.0006 17.6799 29.0006 17.1794C29.0006 15.9591 28.4583 14.866 27.6017 14.1264C27.5172 14.0532 27.5 13.9269 27.5674 13.8371C27.9963 13.2654 28.2503 12.5558 28.2503 11.7863C28.2503 10.0622 26.976 8.63704 25.3182 8.39854C25.1861 8.37982 25.1043 8.24613 25.1465 8.11992C25.2685 7.75361 25.3268 7.35842 25.308 6.94665C25.2342 5.31668 23.9342 3.98297 22.3064 3.86907C21.8422 3.83644 21.3973 3.90329 20.9903 4.04875C20.8711 4.09099 20.7433 4.01987 20.7123 3.89687C20.4465 2.84124 19.4925 2.05888 18.3545 2.05567C17.0095 2.05193 15.909 3.19312 15.909 4.53859V9.81406V4.49421C15.909 3.14713 14.8175 2.05567 13.4705 2.05567C12.8892 2.05567 12.3555 2.25888 11.9367 2.599M27.3535 19.9099C26.8369 20.265 26.2466 20.5356 25.6578 20.7126C25.5075 20.7575 25.4546 20.9436 25.5605 21.0602C26.1257 21.6837 26.8434 22.6228 26.8434 23.4009C26.8434 25.2308 25.3599 26.7148 23.5299 26.7148C23.1893 26.7149 22.8508 26.6624 22.5262 26.5592C22.4757 26.5428 22.4209 26.5456 22.3723 26.5671C22.3237 26.5886 22.2848 26.6273 22.2631 26.6758C21.7433 27.8266 20.5877 28.6287 19.2443 28.6336C17.4095 28.6394 15.909 27.095 15.909 25.2608V20.8746V25.3094C15.909 26.5678 15.2101 27.663 14.1785 28.2271M21.2246 16.8762C21.892 16.9243 23.3209 17.1147 23.5872 17.8644M6.65005 6.14289C7.01209 4.96748 8.02601 4.07762 9.26934 3.8958M3.62434 12.405C3.58745 12.2045 3.56819 11.9975 3.56819 11.7863C3.56819 10.5954 4.17622 9.54721 5.0987 8.93384M3.29172 15.2826C2.98904 15.8478 2.81738 16.4933 2.81738 17.1794C2.81738 18.281 3.45857 19.18 4.34254 19.8243M5.15538 22.6458C5.04361 22.9035 4.97463 23.1597 4.97463 23.4009C4.97463 25.0463 6.17464 26.4121 7.74686 26.6704M10.6271 27.995C11.1294 28.3631 11.7257 28.5814 12.3469 28.6245" stroke="black" stroke-width="0.75" stroke-miterlimit="10" stroke-linecap="round" stroke-linejoin="round"/>
<path d="M22.0538 11.3105C22.0624 12.2314 21.2003 12.3726 20.5586 12.3501" stroke="black" stroke-width="0.75" stroke-miterlimit="10" stroke-linecap="round" stroke-linejoin="round"/>
<path d="M9.45578 28.4589C10.4006 28.4589 11.1664 27.693 11.1664 26.7483C11.1664 25.8035 10.4006 25.0376 9.45578 25.0376C8.51101 25.0376 7.74512 25.8035 7.74512 26.7483C7.74512 27.693 8.51101 28.4589 9.45578 28.4589Z" stroke="black" stroke-width="0.75" stroke-miterlimit="10" stroke-linecap="round" stroke-linejoin="round"/>
<path d="M11.6278 11.8439L7.76736 8.87863M11.1321 18.1317L7.1128 20.2071M10.408 14.7718L6.05664 14.1792M17.9156 10.1893C18.383 9.50377 19.2568 8.73425 20.8194 8.75724M13.6995 20.4151L10.3251 25.2751M13.9851 10.1578L11.7284 5.55078" stroke="black" stroke-width="0.75" stroke-miterlimit="10" stroke-linecap="round" stroke-linejoin="round"/>
<path d="M15.9083 20.8751C18.9626 20.8751 21.4386 18.3991 21.4386 15.3448C21.4386 12.2905 18.9626 9.81445 15.9083 9.81445C12.8539 9.81445 10.3779 12.2905 10.3779 15.3448C10.3779 18.3991 12.8539 20.8751 15.9083 20.8751Z" stroke="black" stroke-width="0.75" stroke-miterlimit="10" stroke-linecap="round" stroke-linejoin="round"/>
<path d="M15.9092 22.8078C15.9092 22.8078 18.2738 24.3981 19.8641 22.8078M23.677 12.1729C23.677 12.1729 24.947 12.8594 23.7185 14.5348" stroke="black" stroke-width="0.75" stroke-miterlimit="10" stroke-linecap="round" stroke-linejoin="round"/>
<path d="M18.4876 23.4918C18.6571 24.263 19.202 25.3796 20.9512 25.1378M22.7145 19.8379C22.7145 19.8379 21.2915 20.6356 22.2681 22.4549M25.3411 11.9965C25.5893 12.8938 24.7181 13.219 24.247 13.3275M13.1211 17.587L14.7805 13.23C14.8144 13.1471 14.9318 13.147 14.9659 13.2298L16.6102 17.587M13.6386 16.5019H16.101M18.054 13.1024V17.5217M15.9084 6.12113C15.9084 6.12113 18.7493 8.07624 20.1354 5.55615" stroke="black" stroke-width="0.75" stroke-miterlimit="10" stroke-linecap="round" stroke-linejoin="round"/>
<path d="M18.1902 6.84213C18.1902 6.84213 18.7195 5.43041 17.7988 4.73291M19.5893 6.27256C19.5893 6.27256 20.282 7.07652 20.854 6.90914M23.3104 17.4852C23.3104 17.4852 23.9632 16.5671 24.5491 16.8601M24.4615 23.2474C24.4615 23.2474 24.5699 24.3835 22.8501 24.3397M22.9448 8.16467C22.9448 8.16467 22.5183 9.40286 24.0753 9.97127" stroke="black" stroke-width="0.75" stroke-miterlimit="10" stroke-linecap="round" stroke-linejoin="round"/>
<path d="M5.5925 22.7026C6.53727 22.7026 7.30316 21.9367 7.30316 20.9919C7.30316 20.0471 6.53727 19.2812 5.5925 19.2812C4.64773 19.2812 3.88184 20.0471 3.88184 20.9919C3.88184 21.9367 4.64773 22.7026 5.5925 22.7026Z" stroke="black" stroke-width="0.75" stroke-miterlimit="10" stroke-linecap="round" stroke-linejoin="round"/>
<path d="M4.36105 15.6591C5.30583 15.6591 6.07172 14.8932 6.07172 13.9485C6.07172 13.0037 5.30583 12.2378 4.36105 12.2378C3.41628 12.2378 2.65039 13.0037 2.65039 13.9485C2.65039 14.8932 3.41628 15.6591 4.36105 15.6591Z" stroke="black" stroke-width="0.75" stroke-miterlimit="10" stroke-linecap="round" stroke-linejoin="round"/>
<path d="M6.41086 9.5473C7.35563 9.5473 8.12152 8.78141 8.12152 7.83664C8.12152 6.89187 7.35563 6.12598 6.41086 6.12598C5.46609 6.12598 4.7002 6.89187 4.7002 7.83664C4.7002 8.78141 5.46609 9.5473 6.41086 9.5473Z" stroke="black" stroke-width="0.75" stroke-miterlimit="10" stroke-linecap="round" stroke-linejoin="round"/>
<path d="M10.9753 5.72504C11.9201 5.72504 12.686 4.95915 12.686 4.01437C12.686 3.0696 11.9201 2.30371 10.9753 2.30371C10.0305 2.30371 9.26465 3.0696 9.26465 4.01437C9.26465 4.95915 10.0305 5.72504 10.9753 5.72504Z" stroke="black" stroke-width="0.75" stroke-miterlimit="10" stroke-linecap="round" stroke-linejoin="round"/>
</svg>
