<svg width="18" height="20" viewBox="0 0 18 20" fill="none" xmlns="http://www.w3.org/2000/svg">
<path d="M4.56045 0C4.71662 0.0988419 4.7668 0.240703 4.75554 0.421998C4.74376 0.612512 4.75708 0.804563 4.75093 0.995589C4.74479 1.1902 4.61985 1.30799 4.43756 1.30389C4.26551 1.2998 4.14569 1.18201 4.14159 0.997125C4.13596 0.767689 4.12059 0.535692 4.14876 0.309841C4.16207 0.200244 4.26704 0.102939 4.33054 0H4.56045Z" fill="white"/>
<path d="M5.12607 18.1091C4.7395 18.1485 4.37289 18.2007 4.00476 18.2187C3.75848 18.2304 3.50503 18.2187 3.26336 18.1731C2.54193 18.0363 2.20708 17.5124 2.35863 16.7949C2.36119 16.7826 2.3658 16.7703 2.3699 16.7585C2.44721 16.5414 2.45592 16.3596 2.25726 16.1711C2.08932 16.0118 2.06883 15.7681 2.17329 15.5458C2.21578 15.4562 2.20605 15.3978 2.14717 15.3266C2.10724 15.2785 2.05808 15.2175 2.05706 15.1612C2.05143 14.8862 1.87939 14.8027 1.64898 14.7172C1.28443 14.5819 1.13134 14.2204 1.25627 13.8332C1.32386 13.6248 1.43599 13.4266 1.55119 13.2381C1.69097 13.0102 1.85993 12.8002 2.00791 12.5769C2.32689 12.0965 2.49022 11.5736 2.47486 10.9893C2.45131 10.0976 2.64895 9.25569 3.09542 8.47673C3.12051 8.43319 3.12563 8.37122 3.12051 8.3195C3.09388 8.05523 3.03552 7.79148 3.03603 7.52722C3.03603 7.13543 2.92287 6.80305 2.65458 6.5183C2.50609 6.36056 2.36119 6.19719 2.23012 6.0246C1.05761 4.4805 1.95056 2.15692 3.86242 1.76974C5.41638 1.45477 6.87561 2.43501 7.15261 3.99345C7.2627 4.61365 7.17361 5.21286 6.83004 5.80489C7.70763 5.58979 8.55911 5.54165 9.43414 5.63025C9.40957 5.56931 9.39267 5.52321 9.37321 5.47815C9.27644 5.25332 9.31843 5.05153 9.4833 4.87792C9.65482 4.69713 9.83147 4.52147 10.0112 4.34939C10.2017 4.16707 10.4213 4.10868 10.6394 4.25516C10.9692 4.47742 11.2467 4.43031 11.5989 4.2823C11.9179 4.14812 12.1028 3.99192 12.1826 3.65595C12.2569 3.3415 12.4484 3.22883 12.7761 3.22729C12.9931 3.22627 13.2102 3.22473 13.4273 3.2278C13.6956 3.2319 13.9086 3.3502 13.9593 3.6073C14.0361 3.99806 14.2675 4.16246 14.6193 4.30944C14.9398 4.44311 15.1805 4.46104 15.4733 4.27615C15.7432 4.10561 15.951 4.15683 16.1804 4.38012C16.3453 4.54042 16.5091 4.70174 16.6668 4.86921C16.8522 5.06587 16.9049 5.29275 16.7585 5.51758C16.5573 5.82691 16.5721 6.08657 16.7226 6.42765C16.8681 6.75645 17.0171 6.97462 17.3842 7.05195C17.6709 7.11238 17.782 7.30853 17.7835 7.60404C17.7851 7.84014 17.7861 8.07674 17.783 8.31335C17.78 8.56277 17.6663 8.76506 17.4221 8.81576C17.0309 8.89719 16.8507 9.121 16.7058 9.48718C16.5803 9.80368 16.5598 10.0398 16.739 10.3276C16.9111 10.6036 16.8588 10.8172 16.629 11.0523C16.4774 11.2075 16.3248 11.3621 16.1681 11.5127C15.9541 11.7186 15.7375 11.7723 15.4913 11.6151C15.1881 11.4215 14.9367 11.44 14.6019 11.5788C14.2501 11.7247 14.0965 11.9275 13.9491 12.2671C13.7151 12.8043 13.3669 13.2924 13.0551 13.7938C12.9035 14.0375 12.7315 14.2685 12.559 14.498C11.8227 15.4777 11.6737 16.5486 12.0562 17.7024C12.1381 17.9503 12.2262 18.1961 12.3173 18.4409C12.5564 19.0831 12.1847 19.6306 11.5042 19.6311C9.74135 19.6322 7.979 19.6316 6.21614 19.6311C5.73485 19.6311 5.44095 19.3976 5.32677 18.9295C5.26072 18.6581 5.19263 18.3866 5.12453 18.1106L5.12607 18.1091ZM9.46947 6.27299C8.55655 6.10142 7.3139 6.24687 6.29806 6.62073C6.10145 6.69294 5.97089 6.80766 5.9417 7.00074C5.89869 7.28242 5.87565 7.56819 5.86797 7.85345C5.8521 8.43063 5.48908 8.9269 4.92177 9.04827C4.46966 9.14456 4.00936 9.15173 3.58081 8.89053C3.54446 8.96121 3.51118 9.02215 3.48148 9.08464C3.1927 9.69716 3.07852 10.343 3.09952 11.0175C3.11795 11.6059 2.97817 12.1585 2.67557 12.6624C2.4851 12.9789 2.26494 13.2775 2.06423 13.5879C1.98845 13.7047 1.92342 13.8291 1.86403 13.9551C1.80515 14.0795 1.84508 14.1697 1.98691 14.1912C2.15076 14.2158 2.31511 14.2363 2.47998 14.2485C2.63051 14.2598 2.75698 14.2998 2.81586 14.4539C2.87167 14.5994 2.81842 14.7172 2.71192 14.815C2.60235 14.9153 2.63615 14.9896 2.74674 15.0536C2.79077 15.0787 2.83993 15.0951 2.88447 15.1192C3.12256 15.2467 3.13229 15.5274 2.90393 15.6743C2.85273 15.7076 2.79999 15.7389 2.70578 15.7967C2.81535 15.8669 2.88908 15.9197 2.96793 15.9632C3.14048 16.0579 3.19936 16.1921 3.13843 16.3785C3.09696 16.5055 3.04064 16.6279 3.00428 16.7565C2.84095 17.3362 3.02732 17.6123 3.63406 17.5964C4.16706 17.5821 4.69853 17.5017 5.22898 17.4387C5.49164 17.4074 5.60941 17.4709 5.67238 17.728C5.75277 18.0558 5.83008 18.3846 5.90945 18.7124C5.97703 18.992 6.01185 19.0186 6.30011 19.0186C8.00511 19.0186 9.71012 19.0186 11.4151 19.0186C11.7699 19.0186 11.8391 18.9167 11.708 18.5874C11.4663 17.9805 11.2846 17.3577 11.239 16.7032C11.1796 15.8485 11.432 15.0782 11.9015 14.3735C12.2093 13.9116 12.5282 13.4573 12.838 12.9969C12.9066 12.895 12.9588 12.7813 13.0295 12.6522C12.9133 12.6522 12.8308 12.6532 12.7484 12.6522C12.4468 12.6486 12.2528 12.5339 12.1862 12.2363C12.1084 11.8901 11.9164 11.7339 11.5918 11.5962C11.2441 11.4487 10.9727 11.4118 10.6502 11.6238C10.4244 11.7718 10.2017 11.715 10.005 11.5265C9.83915 11.3672 9.67786 11.2034 9.51709 11.039C9.29897 10.8162 9.24367 10.6057 9.40752 10.3481C9.60208 10.0428 9.58007 9.79139 9.43875 9.4585C9.29436 9.11741 9.13359 8.89924 8.76033 8.82754C8.49869 8.77735 8.3753 8.56635 8.3666 8.30413C8.3584 8.06189 8.35789 7.81863 8.3666 7.57587C8.37632 7.31417 8.50433 7.13082 8.76136 7.04786C8.89448 7.00484 9.02914 6.96386 9.15868 6.91163C9.20476 6.89319 9.25801 6.85222 9.27593 6.80817C9.34556 6.63814 9.4024 6.46299 9.46947 6.27299ZM9.96869 5.28046C10.0424 5.4254 10.1161 5.5734 10.1924 5.71936C10.2887 5.90373 10.2754 6.08094 10.1883 6.26889C10.0655 6.53418 9.95281 6.80459 9.85195 7.07858C9.78334 7.26603 9.67223 7.39867 9.48432 7.46423C9.38806 7.49751 9.29232 7.53797 9.19299 7.55487C9.02504 7.58304 8.98716 7.67574 8.99074 7.83501C9.00047 8.25804 8.99125 8.26419 9.39165 8.3871C9.6072 8.45317 9.76388 8.5643 9.84631 8.78299C9.95384 9.06825 10.0696 9.35095 10.1955 9.62853C10.2785 9.81136 10.2861 9.98293 10.194 10.1601C10.1177 10.3066 10.044 10.4541 9.95076 10.6374C10.0025 10.6764 10.0649 10.7122 10.1146 10.7614C10.4121 11.0554 10.4152 11.0635 10.7823 10.8648C11.0255 10.7337 11.2492 10.7312 11.4858 10.8761C11.6097 10.9519 11.7449 11.0297 11.8846 11.0564C12.3695 11.1491 12.6506 11.4246 12.7243 11.9122C12.7397 12.0146 12.8027 12.0361 12.9005 12.0381C13.3848 12.0474 13.3879 12.051 13.5343 11.5962C13.6014 11.3872 13.7253 11.2474 13.9358 11.1696C14.2153 11.0661 14.4908 10.9488 14.7632 10.8269C14.9449 10.7455 15.1185 10.7373 15.2962 10.8269C15.3761 10.8669 15.461 10.8997 15.5338 10.9504C15.6838 11.0554 15.7908 11.0349 15.9183 10.8956C16.1876 10.6021 16.2045 10.6057 16.0115 10.2523C15.8758 10.0039 15.8753 9.77961 16.014 9.5302C16.1277 9.32585 16.2183 9.10359 16.2844 8.87927C16.3601 8.62115 16.4989 8.45265 16.7636 8.38966C16.8501 8.36918 16.9316 8.32667 17.0181 8.30823C17.1394 8.28314 17.1768 8.22117 17.1763 8.09621C17.1737 7.63016 17.1804 7.62555 16.7308 7.48215C16.5194 7.41506 16.3847 7.28959 16.3079 7.07961C16.205 6.79947 16.0862 6.52496 15.9644 6.2525C15.8865 6.07735 15.8799 5.91039 15.9592 5.73626C16.0319 5.57648 16.1809 5.39569 16.1487 5.25946C16.1118 5.10531 15.9106 4.99059 15.78 4.85948C15.7713 4.85078 15.7585 4.84668 15.736 4.83439C15.6065 4.89892 15.4682 4.96242 15.3356 5.03617C15.1267 5.15243 14.9311 5.13809 14.7176 5.03207C14.4734 4.9107 14.2184 4.80827 13.9603 4.71915C13.7494 4.64643 13.6091 4.52044 13.543 4.30944C13.5128 4.21214 13.4734 4.11688 13.454 4.01701C13.4258 3.87668 13.3475 3.84237 13.2113 3.84391C12.7699 3.84954 12.7653 3.84237 12.6327 4.25977C12.562 4.48152 12.4402 4.63516 12.2123 4.71608C11.9374 4.8139 11.6686 4.93016 11.4023 5.05153C11.2216 5.13399 11.0506 5.14679 10.8698 5.06075C10.7121 4.98598 10.5334 4.84207 10.3942 4.87126C10.2472 4.90199 10.1361 5.10224 10.0096 5.22873C9.99633 5.24205 9.98609 5.25844 9.9692 5.28097L9.96869 5.28046ZM4.75486 6.82866C4.93355 6.82866 5.09176 6.83224 5.24946 6.8261C5.28684 6.82456 5.34674 6.79947 5.35647 6.7713C5.49727 6.36415 5.80448 6.07633 6.07943 5.76904C6.53973 5.25434 6.65033 4.65719 6.51925 4.00267C6.29141 2.86777 5.1573 2.13899 4.00373 2.37714C2.88703 2.6076 2.13796 3.74148 2.35351 4.85538C2.43492 5.27636 2.67813 5.59235 2.93721 5.91244C3.15174 6.17773 3.33197 6.47119 3.52961 6.7503C3.55214 6.78257 3.59105 6.82354 3.62382 6.82507C3.79278 6.83276 3.96226 6.82866 4.14198 6.82866C4.14198 6.22177 4.14761 5.64101 4.13634 5.06075C4.13481 4.96652 4.079 4.85846 4.01653 4.78368C3.88495 4.62799 3.72776 4.49484 3.589 4.34529C3.45025 4.19626 3.45895 4.00984 3.59924 3.88846C3.73288 3.77272 3.89109 3.78348 4.04418 3.9279C4.1814 4.05696 4.31248 4.19216 4.46659 4.34478C4.6074 4.1937 4.72516 4.05849 4.85214 3.93353C5.01496 3.77426 5.18904 3.77016 5.32319 3.91151C5.44607 4.04159 5.43532 4.21623 5.28735 4.36988C5.14143 4.52198 4.98629 4.66538 4.84343 4.82005C4.80042 4.86665 4.75998 4.93784 4.75895 4.99827C4.75281 5.59799 4.75537 6.19822 4.75537 6.82917L4.75486 6.82866ZM5.24024 7.46064H3.65864C3.59515 8.14281 3.8189 8.45266 4.33347 8.48185C5.13528 8.52692 5.31449 8.10594 5.24024 7.46064Z" fill="white"/>
<path d="M11.2639 1.50276C11.42 1.50276 11.547 1.49866 11.6735 1.50378C11.8512 1.51147 11.9828 1.6395 11.9889 1.80133C11.9951 1.97187 11.8635 2.10657 11.673 2.11527C11.5465 2.12091 11.42 2.1163 11.2644 2.1163C11.2644 2.25048 11.2674 2.36929 11.2639 2.48759C11.2567 2.71191 11.1384 2.84301 10.9489 2.84301C10.759 2.84301 10.6453 2.71549 10.6366 2.48554C10.632 2.37134 10.6361 2.25662 10.6361 2.11476C10.4907 2.11476 10.3591 2.11834 10.2275 2.11374C10.0447 2.10759 9.92074 1.98724 9.91614 1.81875C9.91153 1.64411 10.0395 1.51095 10.228 1.50276C10.3545 1.49764 10.4809 1.50174 10.6366 1.50174C10.6366 1.36295 10.631 1.23799 10.6376 1.11303C10.6489 0.902026 10.7728 0.772969 10.9515 0.773993C11.1287 0.775017 11.2541 0.909708 11.2633 1.1161C11.2685 1.23594 11.2644 1.35629 11.2644 1.50122L11.2639 1.50276Z" fill="white"/>
<path d="M2.06292 2.31871C1.81099 2.31205 1.19243 1.70722 1.21599 1.52439C1.22879 1.42606 1.30047 1.29188 1.38138 1.25655C1.47201 1.21711 1.63433 1.23145 1.71063 1.29137C1.90418 1.44348 2.08289 1.62221 2.23446 1.81631C2.29437 1.89262 2.3041 2.05189 2.26774 2.14715C2.23497 2.23319 2.10798 2.28338 2.06241 2.31871H2.06292Z" fill="white"/>
<path d="M7.68942 1.45954C7.68327 1.70998 7.07854 2.33171 6.89727 2.30866C6.79845 2.29586 6.66531 2.22467 6.62896 2.14324C6.58902 2.05311 6.60182 1.89025 6.66173 1.81394C6.8133 1.62035 6.992 1.44162 7.18556 1.29003C7.26185 1.23011 7.42059 1.22038 7.51634 1.25623C7.60237 1.28849 7.65357 1.41448 7.68942 1.45954Z" fill="white"/>
<path d="M0.662611 4.14041C0.77731 4.14041 0.89201 4.13529 1.0062 4.14143C1.1849 4.15117 1.30216 4.27766 1.30114 4.44923C1.30012 4.6213 1.18337 4.74524 1.00057 4.75036C0.765533 4.75702 0.529989 4.75702 0.294445 4.75036C0.114203 4.74422 -0.00152105 4.61618 1.51081e-05 4.44359C0.00155126 4.27203 0.119323 4.14963 0.300078 4.14092C0.420922 4.13529 0.541766 4.1399 0.662611 4.1399V4.14041Z" fill="white"/>
<path d="M8.22701 4.74948C8.10617 4.74948 7.9843 4.75818 7.86448 4.74692C7.69601 4.73104 7.60231 4.6281 7.59104 4.4591C7.58029 4.29624 7.69294 4.15079 7.85526 4.14311C8.10924 4.13133 8.36424 4.13184 8.61822 4.14209C8.78463 4.14874 8.8937 4.28497 8.89165 4.45039C8.88961 4.61581 8.77849 4.73821 8.60849 4.74845C8.4815 4.75613 8.354 4.74999 8.22701 4.74948Z" fill="white"/>
<path d="M6.20169 11.2659C6.20169 11.4164 6.20579 11.5378 6.20067 11.6582C6.19196 11.862 6.06292 11.9962 5.88422 11.9931C5.71114 11.9905 5.5944 11.8666 5.5816 11.6674C5.5775 11.6039 5.58006 11.5399 5.57955 11.4763C5.57955 11.4139 5.57955 11.3514 5.57955 11.2659C5.43566 11.2659 5.31021 11.2689 5.18527 11.2653C4.98659 11.2597 4.86267 11.145 4.85807 10.9673C4.85295 10.7783 4.9743 10.659 5.18476 10.6513C5.30509 10.6472 5.42593 10.6508 5.58057 10.6508C5.58057 10.5146 5.57648 10.3896 5.5816 10.2651C5.58979 10.0485 5.70244 9.92612 5.88678 9.9256C6.07829 9.92458 6.19606 10.0552 6.2022 10.278C6.20528 10.3922 6.20271 10.5064 6.20271 10.6513C6.34507 10.6513 6.47615 10.6472 6.60724 10.6523C6.79977 10.66 6.93034 10.7886 6.92881 10.9591C6.92727 11.1281 6.79157 11.2582 6.60263 11.2648C6.47666 11.2694 6.3507 11.2659 6.2022 11.2659H6.20169Z" fill="white"/>
<path d="M15.2533 7.93055C15.2554 9.13458 14.283 10.1153 13.0853 10.1168C11.8769 10.1184 10.8866 9.13202 10.8901 7.93106C10.8937 6.73676 11.8815 5.75142 13.0756 5.75244C14.2753 5.75295 15.2513 6.72959 15.2533 7.93106V7.93055ZM11.52 7.92696C11.5143 8.78786 12.201 9.48795 13.0628 9.50024C13.9072 9.51253 14.6302 8.80374 14.6399 7.95411C14.6496 7.09372 13.9435 6.37725 13.0807 6.37264C12.2246 6.36803 11.5256 7.06453 11.52 7.92696Z" fill="white"/>
</svg>
