<svg width="18" height="18" viewBox="0 0 18 18" fill="none" xmlns="http://www.w3.org/2000/svg">
<path d="M6.85937 1.33461C7.04858 1.24974 7.1607 1.17499 7.28451 1.14774C7.70264 1.05508 7.89029 0.830054 7.81398 0.385451C7.76882 0.123828 7.94635 0.00625292 8.18851 0.003917C8.72032 -0.00231212 9.25213 2.37967e-05 9.78394 0.00313836C10.0915 0.00469564 10.1725 0.190791 10.1694 0.466429C10.1678 0.627608 10.1538 0.873658 10.2441 0.93517C10.4839 1.09868 10.7705 1.22093 11.0547 1.27777C11.1551 1.29802 11.3163 1.09323 11.4269 0.970988C11.6371 0.738174 11.8333 0.716373 12.0397 0.966316C12.0482 0.976438 12.0599 0.983446 12.0669 0.994347C12.6836 1.91081 13.5518 2.16698 14.6123 2.02994C15.1223 1.96375 15.6487 2.01047 16.1672 2.02059C17.1834 2.04162 17.8608 2.73772 17.8608 3.74918C17.8608 6.75862 17.8343 9.76884 17.8748 12.7775C17.8888 13.81 17.2184 14.7848 15.89 14.7514C14.6193 14.7194 13.3478 14.7444 12.0763 14.7444C11.9377 14.7444 11.7983 14.7444 11.6122 14.7444C11.8107 15.6149 11.9961 16.4293 12.1884 17.2749C12.7903 17.2749 13.3851 17.2773 13.98 17.2742C14.2035 17.2726 14.4246 17.296 14.4207 17.5794C14.4176 17.8628 14.1872 17.883 13.9699 17.883C10.6101 17.883 7.25025 17.883 3.89041 17.883C3.67006 17.883 3.44503 17.8503 3.45438 17.5654C3.46372 17.2812 3.69108 17.2734 3.90988 17.2742C4.4923 17.2773 5.07473 17.2749 5.68362 17.2749C5.87517 16.4433 6.06204 15.6297 6.26137 14.7654C6.09552 14.7576 5.96004 14.7459 5.82378 14.7459C4.5655 14.7444 3.30643 14.7124 2.04893 14.7537C0.695655 14.7973 -0.0175796 13.8583 0.000329162 12.723C0.0478262 9.80466 0.0447116 6.88476 0.00266508 3.96719C-0.014465 2.80391 0.852161 1.96609 1.96951 2.00969C2.82446 2.04317 3.68174 2.02994 4.53746 2.0058C4.73057 2.00035 4.95092 1.89991 5.10509 1.77532C5.38618 1.54796 5.62522 1.26921 5.88295 1.01459C6.20765 0.693792 6.27539 0.693792 6.60709 1.02549C6.69819 1.11659 6.77216 1.2256 6.85937 1.33383V1.33461ZM11.0274 8.86718C10.9566 8.89988 10.8787 8.9466 10.7946 8.97151C10.3586 9.10077 10.0292 9.28453 10.1367 9.84515C10.1842 10.0928 9.95602 10.1613 9.74423 10.1628C9.23811 10.1675 8.732 10.1605 8.22588 10.1659C7.91676 10.1691 7.77583 10.0328 7.78673 9.71667C7.79296 9.55394 7.81242 9.30399 7.72288 9.2417C7.48462 9.07585 7.19808 8.95205 6.91387 8.89209C6.81265 8.87107 6.6468 9.06806 6.53779 9.19031C6.31276 9.44337 6.12044 9.43325 5.8923 9.18642C5.57539 8.84382 5.23357 8.52457 4.90576 8.19132C4.59898 7.87986 4.58496 7.7436 4.90732 7.4555C5.14792 7.2406 5.22189 7.04438 5.02411 6.76641C4.95871 6.67453 4.95949 6.53515 4.89097 6.44716C4.82323 6.35995 4.71266 6.26263 4.61221 6.25172C3.94025 6.18087 3.94025 6.18788 3.89664 5.49956C3.89431 5.46452 3.86939 5.43026 3.85382 5.39288H2.91011C2.91011 6.41835 2.9031 7.41579 2.92101 8.41245C2.92256 8.509 3.06038 8.63203 3.16394 8.69354C3.65604 8.98553 3.89119 9.51267 3.74948 10.0523C3.6249 10.5241 3.15927 10.887 2.66016 10.901C2.09643 10.9166 1.65105 10.5965 1.49454 10.0639C1.34193 9.54459 1.53814 9.00032 2.03414 8.73714C2.27396 8.61022 2.32379 8.46073 2.32145 8.22013C2.31133 7.24683 2.31523 6.27353 2.31834 5.301C2.3199 4.81825 2.39543 4.74739 2.88908 4.74506C3.22001 4.7435 3.55093 4.74506 3.90443 4.74506C3.90443 4.52548 3.86005 4.35184 3.91689 4.22181C3.97606 4.08633 4.14503 3.88622 4.24236 3.89945C4.722 3.96174 4.92056 3.7445 5.05526 3.31547C5.19464 2.87165 5.06928 2.63338 4.58885 2.63105C3.73235 2.62716 2.87429 2.66764 2.02012 2.61937C1.12936 2.56954 0.582752 3.11926 0.592874 4.04194C0.620127 6.54605 0.602218 9.05016 0.602218 11.5543C0.602218 11.6921 0.602218 11.8299 0.602218 11.9724H17.2854C17.3009 11.9163 17.3134 11.8922 17.3134 11.8681C17.3149 9.15605 17.3212 6.44483 17.3118 3.73282C17.3095 3.13094 16.8314 2.65752 16.2101 2.64429C15.2243 2.62248 14.2378 2.63027 13.252 2.64117C12.8907 2.64506 12.721 2.94095 12.8611 3.26408C12.9226 3.40657 12.9553 3.56619 13.0402 3.69156C13.0994 3.77954 13.2201 3.87142 13.3205 3.88077C14.0088 3.94384 14.0088 3.93683 14.0447 4.6376C14.0462 4.67342 14.0688 4.70768 14.0937 4.77464C14.4363 4.77464 14.7851 4.78477 15.1324 4.77153C15.4781 4.75829 15.6183 4.89455 15.6121 5.25273C15.5957 6.27742 15.6113 7.30289 15.6019 8.32758C15.6004 8.51912 15.6549 8.61879 15.8324 8.71067C16.3697 8.98942 16.5963 9.52824 16.4444 10.0819C16.3128 10.5615 15.8122 10.9391 15.3115 10.9368C14.7945 10.9345 14.332 10.5794 14.1903 10.0764C14.0392 9.53759 14.2479 9.00889 14.7711 8.73247C14.9829 8.62035 15.0281 8.49031 15.0257 8.27852C15.0172 7.43526 15.0234 6.59199 15.0211 5.74872C15.0211 5.62648 15.0016 5.50345 14.9923 5.38899H14.054C14.0478 5.51435 14.04 5.61635 14.0384 5.71836C14.0306 6.18788 13.9793 6.28676 13.5323 6.2307C12.9429 6.15673 13.027 6.65895 12.837 6.92992C12.6361 7.21646 12.9133 7.3208 13.0503 7.45784C13.3003 7.70778 13.3361 7.92658 13.0542 8.17886C12.8128 8.39454 12.5933 8.63514 12.3636 8.86406C11.6963 9.52668 11.7757 9.58664 11.1092 8.91156C11.0921 8.89443 11.0648 8.88664 11.0259 8.86562L11.0274 8.86718ZM9.65313 9.60688C9.3518 8.85082 9.8618 8.70911 10.3757 8.56584C10.4621 8.5417 10.5455 8.50121 10.6272 8.46306C11.0207 8.27671 11.3799 8.33303 11.7048 8.63203C11.7204 8.64682 11.7508 8.64604 11.7695 8.65149C12.035 8.38831 12.2982 8.12747 12.5754 7.85261C12.5193 7.78954 12.4765 7.72258 12.4173 7.67819C12.0973 7.44227 12.0677 7.18765 12.2904 6.84972C12.4368 6.62781 12.5271 6.3584 12.5933 6.09833C12.6704 5.79388 12.8276 5.65451 13.1407 5.67942C13.252 5.68799 13.3657 5.67008 13.4809 5.66385V4.48655C12.8097 4.68899 12.5972 4.30045 12.4858 3.77876C12.4726 3.71647 12.4453 3.6534 12.4103 3.60123C12.1035 3.14106 11.9883 2.70658 12.5652 2.39123C12.267 2.10235 11.9945 1.83917 11.722 1.57599C11.3934 1.87343 11.0085 1.92093 10.5673 1.71848C10.5081 1.69123 10.4512 1.65463 10.3897 1.64218C9.84701 1.53161 9.41409 1.33383 9.6212 0.610478H8.44468C8.43689 0.715594 8.42132 0.780221 8.42911 0.840955C8.48283 1.24273 8.33879 1.48411 7.9152 1.5503C7.74079 1.57755 7.5726 1.66553 7.40909 1.74106C7.0042 1.92846 6.63564 1.87343 6.30342 1.57599C6.28707 1.5612 6.25592 1.56198 6.26137 1.56275C5.97873 1.82827 5.70698 2.08289 5.43835 2.33594C5.73371 2.7019 5.78588 3.10057 5.59486 3.53193C5.57928 3.56775 5.55982 3.60201 5.5497 3.63939C5.41032 4.1821 5.24291 4.68977 4.49464 4.47876V5.64438C4.59898 5.65139 4.67684 5.67008 4.75081 5.66074C5.1339 5.6109 5.36049 5.73704 5.42667 6.15206C5.46249 6.37475 5.56761 6.60289 5.6953 6.79132C5.93045 7.13704 5.90086 7.40878 5.56215 7.65328C5.50376 7.69532 5.46171 7.76151 5.39553 7.83548C5.6844 8.11657 5.96004 8.38442 6.2715 8.68731C6.62811 8.05428 7.07895 8.24271 7.5399 8.53236C7.56092 8.5456 7.58818 8.55183 7.61309 8.55728C8.15892 8.68264 8.61832 8.88041 8.41042 9.60766H9.65157L9.65313 9.60688ZM17.3118 12.6218H0.659059C0.472185 13.5227 0.974408 14.1588 1.86517 14.1596C6.58607 14.1611 11.307 14.1611 16.0279 14.1596C16.97 14.1596 17.4458 13.6036 17.3126 12.6218H17.3118ZM11.6215 17.2609C11.4588 16.4792 11.3116 15.7317 11.1388 14.9904C11.1162 14.8923 10.9589 14.756 10.8631 14.7553C9.61809 14.7397 8.37304 14.7405 7.128 14.7537C7.03923 14.7545 6.89519 14.8674 6.87338 14.9522C6.68106 15.7122 6.51132 16.4768 6.32989 17.2617H11.6223L11.6215 17.2609ZM3.21611 9.75638C3.21533 9.45271 2.94904 9.1833 2.64615 9.17863C2.34715 9.17396 2.06918 9.44026 2.0575 9.74081C2.04582 10.0523 2.33703 10.345 2.65082 10.338C2.95371 10.331 3.21689 10.0593 3.21611 9.75638ZM15.3255 10.3388C15.6253 10.3334 15.8986 10.0569 15.8994 9.7595C15.9002 9.44648 15.6012 9.16228 15.2897 9.17941C14.9853 9.19576 14.7306 9.47296 14.7415 9.77663C14.7517 10.0811 15.0257 10.3443 15.3263 10.3388H15.3255Z" fill="white"/>
<path d="M9.81473 6.59239C9.76256 6.65546 9.7065 6.78005 9.61929 6.80885C9.52819 6.83844 9.40127 6.78939 9.30161 6.74734C9.25411 6.7271 9.23465 6.643 9.20194 6.58772C9.08826 6.39384 8.99794 6.05591 8.85623 6.03255C8.41552 5.96014 7.95534 6.00063 7.50295 6.01776C7.44922 6.02009 7.39005 6.14312 7.35112 6.21942C7.28104 6.35724 7.2569 6.534 7.15412 6.63522C7.05523 6.73255 6.8816 6.75435 6.74144 6.80963C6.69628 6.67571 6.57715 6.51219 6.61764 6.41331C7.02954 5.4112 7.45857 4.41532 7.90239 3.42644C8.04177 3.11499 8.34622 3.10642 8.48248 3.41009C8.92553 4.39896 9.34443 5.39874 9.77113 6.39462C9.79137 6.44134 9.79449 6.49506 9.81473 6.59239ZM8.68103 5.39484C8.52141 5.02188 8.37347 4.67538 8.1936 4.25414C8.01374 4.6785 7.86969 5.01643 7.70929 5.39484H8.68181H8.68103Z" fill="white"/>
<path d="M10.6859 4.99307C10.6859 4.52744 10.6656 4.06026 10.6983 3.59697C10.7085 3.45759 10.8525 3.23257 10.9615 3.21544C11.2006 3.17728 11.2691 3.38829 11.2691 3.60476C11.2683 4.54925 11.2792 5.49374 11.2566 6.43667C11.2535 6.56982 11.1017 6.79017 10.9888 6.8112C10.7388 6.85869 10.6843 6.64457 10.6859 6.4281C10.6882 5.94924 10.6867 5.47116 10.6867 4.99229L10.6859 4.99307Z" fill="white"/>
</svg>
