<svg width="19" height="17" viewBox="0 0 19 17" fill="none" xmlns="http://www.w3.org/2000/svg">
<path d="M15.3519 5.0593V5.50528C15.3519 8.37926 15.3249 11.254 15.3622 14.128C15.3848 15.8804 14.0147 16.931 12.6432 16.9127C9.31882 16.8696 5.99448 16.9171 2.66941 16.9062C1.08729 16.901 0.00598577 15.7737 0.00159913 14.1864C0.000136921 13.7843 0.00671688 13.3822 0.000136921 12.9808C-0.00498083 12.673 0.133198 12.5414 0.443188 12.5451C1.1604 12.5546 1.87689 12.548 2.63651 12.548C2.64382 12.3879 2.65479 12.2475 2.65552 12.1079C2.68111 8.7587 2.70742 5.4095 2.7279 2.06103C2.73301 1.20198 3.07298 0.542526 3.86915 0.18867C4.14771 0.063651 4.48036 0.0102803 4.78815 0.00954915C8.72224 -0.00214856 12.6556 -0.00214856 16.5897 0.0044314C17.9079 0.00662472 18.7172 0.840086 18.7194 2.16631C18.7209 2.9581 18.7128 3.74989 18.723 4.54095C18.7274 4.8853 18.5805 5.02129 18.2398 5.01836C17.3142 5.01032 16.3886 5.01836 15.463 5.02202C15.4411 5.02202 15.4192 5.03664 15.3512 5.06003L15.3519 5.0593ZM15.3227 0.622217C15.0968 0.622217 14.9878 0.622217 14.8789 0.622217C11.5407 0.622217 8.20242 0.621485 4.86492 0.622217C3.82456 0.622217 3.35884 1.09012 3.35153 2.14073C3.32667 5.46653 3.30255 8.79233 3.27842 12.1181C3.27769 12.249 3.27842 12.3791 3.27842 12.548C3.44584 12.548 3.57598 12.548 3.70685 12.548C5.91187 12.548 8.11688 12.548 10.3219 12.548C10.7693 12.548 10.8308 12.6109 10.8337 13.054C10.8366 13.4926 10.8205 13.932 10.8395 14.3692C10.8987 15.7049 12.1665 16.6042 13.4042 16.1977C14.2362 15.9243 14.7429 15.1588 14.7436 14.1484C14.7458 10.2984 14.7495 6.44914 14.7407 2.59913C14.7392 1.90823 14.7488 1.23415 15.3234 0.621485L15.3227 0.622217ZM10.2415 13.176H0.604762C0.604762 13.5262 0.6033 13.8523 0.604762 14.1784C0.612804 15.4856 1.41921 16.2898 2.73082 16.2906C5.39717 16.2928 8.06424 16.2913 10.7306 16.2906C10.8329 16.2906 10.9346 16.2774 11.1173 16.2657C10.1238 15.4037 10.2086 14.2976 10.2407 13.176H10.2415ZM18.0826 4.37791C18.0826 3.49254 18.1287 2.62837 18.068 1.77152C18.0197 1.0872 17.4063 0.622217 16.7271 0.625872C16.0611 0.629528 15.4258 1.11864 15.3819 1.78102C15.3256 2.63861 15.368 3.50278 15.368 4.37791H18.0819H18.0826Z" fill="white"/>
<path d="M6.18066 4.63131C5.8809 3.5617 6.41973 3.03457 7.36724 2.72092C7.79055 2.58055 8.17 2.31297 8.586 2.14554C8.74246 2.08267 8.97275 2.07974 9.12482 2.14847C9.83327 2.46942 10.5234 2.83132 11.2268 3.16544C11.4432 3.26852 11.5353 3.41182 11.5331 3.6487C11.5258 4.29427 11.5404 4.93983 11.528 5.5854C11.5119 6.42179 11.1566 7.08271 10.4606 7.55647C10.0277 7.8511 9.59054 8.13989 9.16796 8.44842C8.9457 8.61072 8.76219 8.60341 8.54286 8.44403C8.11955 8.13696 7.68162 7.84891 7.24954 7.55427C6.55352 7.08051 6.20552 6.41813 6.18358 5.58175C6.17554 5.26518 6.18212 4.94861 6.18212 4.63204L6.18066 4.63131ZM10.9124 4.84333C10.9124 4.56331 10.8985 4.28184 10.9168 4.00329C10.9321 3.77664 10.8524 3.65235 10.6441 3.55658C10.114 3.31239 9.60004 3.03384 9.0678 2.7933C8.94717 2.7392 8.76 2.73993 8.63864 2.79404C8.09616 3.03969 7.55879 3.30069 7.03678 3.58729C6.922 3.65016 6.81453 3.83513 6.80795 3.96892C6.78236 4.51579 6.79479 5.06485 6.79844 5.61318C6.8021 6.18856 7.04263 6.65062 7.50396 6.98766C7.87682 7.2611 8.25627 7.52795 8.65107 7.76702C8.75196 7.82844 8.95374 7.82478 9.05756 7.76337C9.41288 7.55281 9.74261 7.29985 10.087 7.07101C10.6499 6.69741 10.9307 6.17979 10.9124 5.50132C10.9065 5.28199 10.9116 5.06266 10.9116 4.84333H10.9124Z" fill="white"/>
<path d="M9.00114 9.40768C10.1219 9.40768 11.242 9.40768 12.3628 9.40768C12.4724 9.40768 12.6026 9.38063 12.6852 9.42961C12.7853 9.48883 12.9045 9.61678 12.9038 9.71475C12.9038 9.80906 12.7773 9.93188 12.6764 9.98818C12.5909 10.0357 12.4629 10.0087 12.3533 10.0087C10.1124 10.0087 7.87158 10.0087 5.63001 10.0087C5.53277 10.0087 5.41652 10.0379 5.34268 9.99476C5.23155 9.93115 5.06048 9.79736 5.0751 9.72571C5.09922 9.60727 5.23667 9.49322 5.35292 9.41792C5.42237 9.37332 5.54228 9.40622 5.64024 9.40622C6.76103 9.40622 7.88109 9.40622 9.00187 9.40622L9.00114 9.40768Z" fill="white"/>
<path d="M9.03153 10.7988C10.164 10.7988 11.2965 10.7908 12.429 10.8076C12.5847 10.8098 12.7382 10.9348 12.8925 11.0028C12.8216 11.1322 12.7763 11.2938 12.6702 11.38C12.5942 11.4414 12.4363 11.4078 12.3149 11.4078C10.0989 11.4085 7.88223 11.4085 5.66624 11.4078C5.59313 11.4078 5.5054 11.4334 5.44984 11.4012C5.30873 11.3208 5.09159 11.2323 5.06893 11.1161C5.02287 10.8756 5.23197 10.7981 5.4513 10.7981C6.64446 10.7981 7.83836 10.7981 9.03153 10.7981V10.7988Z" fill="white"/>
<path d="M8.55226 5.53892C8.89076 5.1836 9.17443 4.88531 9.4581 4.58702C9.60725 4.42983 9.78344 4.33698 9.96037 4.51464C10.1388 4.69303 10.0371 4.8685 9.88653 5.0191C9.53487 5.37077 9.18394 5.72243 8.83227 6.07409C8.64146 6.26491 8.4521 6.26126 8.2642 6.06971C8.09459 5.89643 7.895 5.7429 7.76632 5.54331C7.6954 5.43364 7.74219 5.24721 7.73635 5.09514C7.88768 5.10684 8.06096 5.07686 8.18525 5.1412C8.31538 5.20773 8.39873 5.36492 8.55226 5.53965V5.53892Z" fill="white"/>
</svg>
