<svg width="19" height="17" viewBox="0 0 19 17" fill="none" xmlns="http://www.w3.org/2000/svg">
<path d="M9.30576 16.0903C6.66659 16.0903 4.02742 16.0903 1.38826 16.0903C0.529797 16.0903 0.00460294 15.5651 0.000203403 14.7045C-0.00089648 14.512 0.00295311 14.3195 0.000203403 14.127C-0.00309625 13.8774 0.117341 13.7531 0.366464 13.7525C0.439607 13.7525 0.513849 13.7454 0.586441 13.7525C0.78607 13.774 0.87571 13.6893 0.866361 13.488C0.859762 13.3511 0.866361 13.213 0.866361 13.0755C0.866361 9.61146 0.863062 6.14738 0.87351 2.6833C0.87406 2.44682 0.927955 2.1856 1.03904 1.97992C1.20897 1.66426 1.52739 1.57352 1.8843 1.57462C3.7904 1.58067 5.6965 1.57737 7.60259 1.57737C8.9406 1.57737 10.2786 1.57297 11.6166 1.58122C11.8564 1.58287 12.0192 1.51742 12.1748 1.32164C13.1422 0.105723 14.7067 -0.306184 16.2416 0.232209C17.6742 0.734856 18.6064 2.04152 18.6322 3.56101C18.6465 4.40846 18.4018 5.16353 17.9079 5.84876C17.8282 5.9593 17.771 6.11438 17.7705 6.24912C17.7622 8.65016 17.7661 11.0512 17.7617 13.4523C17.7617 13.6717 17.8299 13.7591 18.0625 13.7569C18.6069 13.752 18.63 13.7861 18.63 14.3377C18.63 14.4845 18.6317 14.6308 18.6295 14.7776C18.6168 15.547 18.0735 16.0898 17.3063 16.0903C14.6396 16.092 11.973 16.0909 9.30631 16.0909L9.30576 16.0903ZM11.5842 2.201C11.4648 2.1944 11.3658 2.1845 11.2669 2.1845C8.19763 2.18395 5.12786 2.1834 2.05863 2.1845C1.58623 2.1845 1.48615 2.28184 1.48615 2.74214C1.48505 6.28817 1.48505 9.83364 1.48615 13.3797C1.48615 13.7498 1.48944 13.7514 1.84966 13.7514C6.82498 13.7514 11.7997 13.7514 16.7751 13.7514C17.1386 13.7514 17.1435 13.7487 17.1435 13.3846C17.1446 11.2404 17.1446 9.09672 17.143 6.95249C17.143 6.859 17.1243 6.76551 17.1144 6.66927C17.0583 6.67917 17.0374 6.67697 17.0231 6.68577C15.8594 7.38805 14.6561 7.49914 13.4012 6.94425C13.3099 6.9041 13.1862 6.9206 13.08 6.93325C12.7171 6.97669 12.3557 7.03994 11.9922 7.07678C11.6172 7.11473 11.5204 7.01629 11.5512 6.64838C11.5704 6.4207 11.5979 6.19303 11.6397 5.96865C11.7096 5.59579 11.7167 5.24823 11.56 4.87592C11.3312 4.33037 11.2691 3.74304 11.3812 3.1513C11.4384 2.84828 11.5099 2.54746 11.5853 2.20045L11.5842 2.201ZM12.2254 6.4031C12.4228 6.37891 12.557 6.35471 12.6918 6.34811C13.0223 6.33161 13.3401 6.19688 13.6855 6.36241C14.814 6.9041 15.8864 6.73032 16.8543 5.98405C17.831 5.23063 18.1912 4.20444 17.9239 3.00886C17.6528 1.79459 16.8708 1.00488 15.662 0.714508C14.4692 0.427988 13.4386 0.777201 12.6725 1.7429C11.9207 2.69045 11.7294 3.75128 12.237 4.88251C12.3491 5.13219 12.3728 5.36646 12.3288 5.62549C12.2881 5.86581 12.2633 6.10943 12.2249 6.4031H12.2254ZM7.93861 15.4425C7.87756 15.1615 7.81047 14.9409 7.78627 14.7155C7.75713 14.4476 7.63064 14.3789 7.36997 14.38C5.2439 14.3905 3.11782 14.3855 0.991198 14.3861C0.936204 14.3861 0.869661 14.3679 0.828965 14.3921C0.756923 14.435 0.655184 14.4971 0.645285 14.5631C0.560594 15.1241 0.857012 15.4595 1.42565 15.4601C3.48793 15.4612 5.54966 15.4606 7.61194 15.4601C7.70928 15.4601 7.80607 15.4496 7.93916 15.4425H7.93861ZM10.6933 15.4414C10.8143 15.4491 10.9033 15.4601 10.9919 15.4601C13.0723 15.4612 15.1527 15.4617 17.2326 15.4601C17.7342 15.4601 17.9833 15.1945 17.9976 14.6979C18.0042 14.4614 17.9371 14.3784 17.6902 14.3811C16.5633 14.3927 15.436 14.3861 14.3086 14.3861C13.273 14.3861 12.2375 14.3822 11.202 14.3927C11.0964 14.3938 10.9237 14.4597 10.8995 14.534C10.8071 14.8178 10.7626 15.1169 10.6933 15.4414ZM9.32611 14.3877V14.3861C9.15233 14.3861 8.97855 14.3861 8.80477 14.3861C8.36206 14.3861 8.35052 14.3894 8.4561 14.8227C8.64473 15.5948 8.45005 15.4496 9.24747 15.4584C10.0812 15.4678 10.0817 15.4606 10.2165 14.6324C10.2181 14.6236 10.2198 14.6143 10.222 14.6055C10.2577 14.452 10.1983 14.3833 10.0399 14.3861C9.80236 14.3905 9.56424 14.3872 9.32666 14.3872L9.32611 14.3877Z" fill="white"/>
<path d="M7.25272 8.53134C7.35941 8.59074 7.42925 8.63088 7.50019 8.66938C8.68807 9.31116 9.29905 10.2978 9.28035 11.6567C9.27101 12.3221 8.71611 12.9353 8.05563 12.9457C6.67253 12.9677 5.28833 12.9716 3.90522 12.9446C3.1694 12.9303 2.59196 12.1808 2.65741 11.44C2.77014 10.1586 3.37288 9.21327 4.53161 8.63583C4.56405 8.61933 4.5954 8.59954 4.62455 8.57809C4.63775 8.56819 4.64435 8.54949 4.66744 8.51375C4.1384 8.02595 3.85078 7.42156 3.92172 6.68684C3.97287 6.1567 4.20164 5.70519 4.6031 5.34718C5.36642 4.6658 6.56034 4.65481 7.32366 5.31694C7.81971 5.74754 8.05838 6.29748 8.04683 6.94311C8.03529 7.57775 7.76087 8.10624 7.25327 8.53244L7.25272 8.53134ZM5.96421 12.3226C6.59554 12.3226 7.22687 12.3254 7.8582 12.3215C8.38285 12.3182 8.70346 11.9586 8.65947 11.4334C8.54233 10.0481 7.54969 9.03674 6.14514 8.9581C4.5679 8.86956 3.39488 9.97714 3.29094 11.457C3.25464 11.9718 3.60056 12.3204 4.1252 12.3221C4.73839 12.3243 5.35102 12.3221 5.96421 12.3221V12.3226ZM5.9862 5.46982C5.21573 5.46982 4.56295 6.1094 4.55305 6.87602C4.54316 7.64704 5.20474 8.32237 5.97685 8.33062C6.74182 8.33831 7.41275 7.65914 7.4056 6.88592C7.3979 6.10775 6.75942 5.47092 5.9862 5.47037V5.46982Z" fill="white"/>
<path d="M15.0083 4.7316C15.4571 4.7316 15.9053 4.7338 16.354 4.7305C16.5724 4.72885 16.7478 4.78605 16.7489 5.03847C16.75 5.28539 16.5823 5.36129 16.3623 5.36129C15.4378 5.36129 14.5134 5.36074 13.5889 5.36129C13.3756 5.36129 13.2227 5.2733 13.2188 5.04892C13.215 4.82179 13.3673 4.73215 13.5812 4.73215C14.0569 4.73215 14.5332 4.73215 15.0089 4.73215L15.0083 4.7316Z" fill="white"/>
<path d="M14.9809 4.00839C14.5228 4.00839 14.0647 4.00784 13.6066 4.00839C13.3899 4.00894 13.2079 3.949 13.215 3.69548C13.2216 3.4645 13.3894 3.40126 13.5984 3.40236C14.5239 3.40511 15.4495 3.40456 16.3745 3.40236C16.5834 3.40236 16.7446 3.4612 16.7484 3.70098C16.7523 3.9424 16.5906 4.00784 16.3822 4.00784C15.9147 4.00784 15.4478 4.00784 14.9804 4.00784L14.9809 4.00839Z" fill="white"/>
<path d="M14.2557 2.67312C14.0187 2.67312 13.7817 2.67312 13.5441 2.67312C13.3511 2.67312 13.2229 2.58128 13.2152 2.38495C13.2064 2.16938 13.3439 2.07369 13.5463 2.07259C14.0204 2.06929 14.495 2.06984 14.969 2.07259C15.1659 2.07369 15.2797 2.17378 15.2792 2.3745C15.2786 2.57523 15.1648 2.67257 14.9668 2.67312C14.7298 2.67422 14.4928 2.67312 14.2552 2.67312H14.2557Z" fill="white"/>
</svg>
