<svg width="18" height="24" viewBox="0 0 18 24" fill="none" xmlns="http://www.w3.org/2000/svg">
<path d="M8.35903 23.7136C7.55884 23.3894 6.7759 23.0127 5.95539 22.7539C4.6932 22.3569 3.37988 22.2784 2.0604 22.3062C1.88792 22.3099 1.70189 22.2939 1.54419 22.2303C1.23373 22.1055 1.10498 21.8418 1.1056 21.5102C1.10683 20.9699 1.1019 20.4295 1.10806 19.8892C1.10991 19.7552 1.06864 19.6916 0.94051 19.636C0.339908 19.3772 0.0189708 18.9165 0.0060347 18.2533C0.000490679 17.9834 0.0152747 17.7123 0.00233869 17.4431C-0.0284614 16.8126 0.24566 16.3482 0.78343 16.0586C1.04646 15.9171 1.12223 15.7467 1.11238 15.4577C1.08958 14.7716 1.10868 14.0843 1.10375 13.397C1.10129 13.069 1.198 12.7942 1.45918 12.5824C1.50846 12.5423 1.53618 12.4564 1.54481 12.3885C1.5639 12.236 1.55097 12.0791 1.57622 11.9284C1.6446 11.5172 1.97909 11.1905 2.38935 11.2207C3.15997 11.2775 3.84804 11.1207 4.53119 10.7378C4.94637 10.5056 5.46012 10.4408 5.93691 10.3327C6.51903 10.2006 6.83873 9.89981 6.84181 9.39775C6.84181 9.30203 6.78329 9.1742 6.70937 9.11554C6.0176 8.56839 5.61843 7.85699 5.48353 6.97328C5.41146 6.95043 5.33261 6.92697 5.25499 6.90041C4.79422 6.74541 4.49423 6.34154 4.48499 5.858C4.48006 5.59555 4.47698 5.33309 4.48745 5.07064C4.49238 4.9496 4.49792 4.8088 4.55891 4.7137C4.71969 4.46359 4.72092 4.19558 4.71537 3.91769C4.71045 3.64844 4.8472 3.49776 5.06834 3.50393C5.27717 3.51011 5.40098 3.66079 5.4053 3.91522C5.41577 4.47471 5.44718 4.50929 6.05949 4.6186C6.05949 4.30797 6.05826 4.00105 6.05949 3.69414C6.06195 3.13835 6.29727 2.74189 6.74941 2.57391C7.24037 2.39112 7.66911 2.50846 8.02515 2.89195C8.55245 3.4607 9.16537 3.88249 9.95632 3.95783C10.212 3.98191 10.4781 3.95721 10.7331 3.91583C11.1588 3.8479 11.3818 3.92324 11.6195 4.27833C11.7187 4.42654 11.8401 4.51732 12.023 4.46606C12.2004 4.41666 12.1856 4.2666 12.1856 4.12641C12.185 3.53234 12.1856 2.93765 12.1856 2.34357C12.185 1.9959 12.0932 1.89091 11.7557 1.84398C11.383 1.79211 11.1347 1.55127 11.0639 1.17333C10.9863 0.757724 10.9087 0.692882 10.4836 0.692882C9.50787 0.692882 8.53212 0.692264 7.55576 0.692882C6.49069 0.6935 5.76319 1.23632 5.45827 2.25588C5.38374 2.50537 5.22604 2.62023 5.03015 2.56897C4.8164 2.51278 4.71784 2.32566 4.78683 2.07556C5.08682 0.98992 5.79153 0.322974 6.87569 0.051256C6.92559 0.0389051 6.97302 0.0172912 7.02169 0C8.31283 0 9.60397 0 10.8951 0C11.3756 0.167971 11.6873 0.478595 11.76 1.00536C11.7674 1.06094 11.8579 1.13751 11.9201 1.14863C12.5368 1.26226 12.8762 1.65748 12.8768 2.28243C12.8774 2.91542 12.8768 3.54778 12.8768 4.18076C12.8768 4.78718 12.8799 5.39361 12.8774 6.00004C12.8762 6.44281 12.6637 6.73429 12.2522 6.90041C12.185 6.92758 12.1099 7.01404 12.0969 7.08382C11.9281 8.01384 11.4588 8.74378 10.669 9.25634C10.5107 9.35946 10.491 9.47309 10.5391 9.62316C10.6506 9.97268 10.8797 10.2092 11.2419 10.2839C11.9109 10.4223 12.599 10.5248 13.1829 10.8965C13.6098 11.1689 14.0429 11.2566 14.5283 11.2139C14.7106 11.1979 14.8997 11.1973 15.0802 11.2263C15.5287 11.2985 15.8077 11.653 15.8083 12.1545C15.8083 12.378 15.8484 12.5447 16.0233 12.7183C16.3621 13.0536 16.2771 13.5069 16.2223 13.9237C16.2007 14.0867 16.0301 14.1541 15.857 14.1306C15.6796 14.1065 15.5829 13.9898 15.5638 13.8224C15.5459 13.6699 15.5558 13.5143 15.557 13.3599C15.5582 13.2012 15.4874 13.1079 15.326 13.1067C13.4934 13.0919 11.6947 13.2704 10.0056 14.0645C9.87008 14.1281 9.81156 14.1991 9.81218 14.3572C9.81711 17.0275 9.81587 19.6977 9.81649 22.3674C9.81649 22.4205 9.82203 22.4736 9.82696 22.5619C11.6553 21.7579 13.5735 21.5763 15.5398 21.5936V19.7502C15.3704 19.7502 15.1979 19.7515 15.0248 19.7502C14.3718 19.7447 14.0453 19.4186 14.0453 18.7677C14.0453 18.4287 14.0262 18.0859 14.0644 17.7506C14.1347 17.1306 14.6053 16.7323 15.2275 16.7261C15.5878 16.7224 15.557 16.7626 15.5576 16.3865C15.5582 16.0931 15.5564 15.7998 15.5582 15.5065C15.5601 15.2416 15.6925 15.0742 15.8995 15.0662C16.1083 15.0581 16.2747 15.2255 16.2494 15.4861C16.2211 15.7776 16.3387 15.9246 16.5833 16.0598C17.1174 16.3556 17.3921 16.8175 17.3619 17.4474C17.3484 17.7321 17.3662 18.0186 17.3551 18.3039C17.3311 18.9375 17.0114 19.3791 16.4422 19.6298C16.2975 19.6934 16.2506 19.7613 16.2531 19.9151C16.2623 20.432 16.2593 20.9489 16.2556 21.4664C16.2519 22.0234 15.95 22.3266 15.3938 22.3118C13.9973 22.2754 12.615 22.376 11.2752 22.7916C10.7584 22.9522 10.2643 23.1887 9.76167 23.3937C9.50849 23.4969 9.25778 23.6074 9.00583 23.7148H8.36026L8.35903 23.7136ZM7.54652 22.5675V22.2513C7.54652 19.8212 7.54714 17.3906 7.54529 14.9606C7.54529 14.6926 7.62537 14.3486 7.49293 14.1757C7.33646 13.9713 6.99581 13.8984 6.72416 13.7971C5.24267 13.2438 3.69959 13.0925 2.13248 13.1049C1.8485 13.1073 1.80723 13.1512 1.80661 13.4482C1.80599 14.4282 1.80661 15.4077 1.80661 16.3877C1.80661 16.7656 1.78135 16.7212 2.13925 16.7249C2.81008 16.7317 3.29364 17.206 3.31766 17.889C3.32752 18.1743 3.32013 18.4596 3.31951 18.7455C3.31828 19.4266 2.99796 19.7465 2.3142 19.7496C2.14911 19.7502 1.98463 19.7496 1.82386 19.7496V21.593C3.78583 21.5769 5.70036 21.7529 7.5459 22.5675H7.54652ZM12.1869 5.17006C11.6811 5.23243 11.3004 5.07805 11.0306 4.66553C11.006 4.62786 10.9148 4.61119 10.86 4.62045C10.3937 4.69949 9.93107 4.70814 9.46783 4.59451C8.67935 4.39999 8.04979 3.95165 7.50525 3.3656C7.36788 3.21801 7.21388 3.14576 7.01245 3.22542C6.81594 3.30323 6.76605 3.46194 6.76666 3.65276C6.76789 3.98438 6.77529 4.316 6.76666 4.64762C6.75249 5.196 6.33977 5.48439 5.82356 5.31148C5.61474 5.2417 5.40838 5.16574 5.17553 5.08299C5.17553 5.29974 5.17553 5.49056 5.17553 5.68139C5.17676 6.11058 5.30797 6.2452 5.73547 6.2557C6.01021 6.26249 6.11924 6.36068 6.1562 6.63672C6.16421 6.69786 6.17283 6.759 6.179 6.82013C6.30959 8.07868 7.39991 9.07231 8.65779 9.13159C9.80417 9.18594 11.3121 8.38313 11.4353 6.70898C11.4655 6.30201 11.5197 6.26002 11.9263 6.23347C12.1056 6.22173 12.1918 6.14392 12.1881 5.95928C12.1832 5.70609 12.1869 5.45228 12.1869 5.16944V5.17006ZM8.25677 14.5703V14.8321C8.25677 17.4307 8.25677 20.0287 8.25677 22.6274C8.25677 22.9763 8.27648 22.9979 8.62884 23.017C8.68982 23.0201 8.75142 23.0127 8.81241 23.0102C9.03355 23.0003 9.11301 22.9052 9.1124 22.6638C9.10193 20.0497 9.10624 17.4363 9.10624 14.8222C9.10624 14.7327 9.10624 14.6425 9.10624 14.5703H8.25739H8.25677ZM2.2797 12.3897C2.32713 12.3953 2.36409 12.4009 2.40105 12.4033C3.13533 12.454 3.87391 12.47 4.60326 12.5614C5.89009 12.7232 7.12764 13.0666 8.2463 13.7557C8.53828 13.9355 8.81425 13.9268 9.11301 13.7613C9.47399 13.5606 9.8399 13.3599 10.2224 13.2068C11.7039 12.6151 13.2581 12.42 14.8412 12.4039C14.9219 12.4033 15.0032 12.4039 15.079 12.4039C15.1326 11.9463 15.1043 11.8951 14.6915 11.9124C14.017 11.9408 13.3406 11.9649 12.671 12.0458C11.4748 12.1909 10.3259 12.5021 9.29843 13.1722C8.89187 13.4371 8.48038 13.426 8.06273 13.1783C7.76643 13.0023 7.46706 12.8245 7.15228 12.6886C5.72254 12.0717 4.2084 11.9229 2.67333 11.9124C2.25198 11.9093 2.23042 11.9426 2.27908 12.3897H2.2797ZM4.88231 11.2955C4.95869 11.3529 4.96978 11.3665 4.98272 11.3696C5.02707 11.3801 5.07265 11.3875 5.11762 11.3949C6.2831 11.5876 7.40484 11.9056 8.40708 12.5627C8.59742 12.6874 8.77421 12.6818 8.96209 12.5577C9.68774 12.0779 10.4892 11.7796 11.33 11.5808C11.6922 11.4955 12.0587 11.4258 12.4234 11.3492L12.4333 11.28C11.9682 11.1757 11.5043 11.0664 11.0374 10.9719C10.9777 10.9595 10.8957 11.0157 10.8354 11.0571C9.58549 11.9142 8.08922 11.9408 6.84428 11.0954C6.62436 10.9459 6.44449 10.9107 6.19871 10.9799C5.78106 11.0978 5.35478 11.1837 4.88169 11.2948L4.88231 11.2955ZM1.09266 16.6878C0.849958 16.8391 0.708893 17.0269 0.703349 17.2949C0.696573 17.6259 0.694725 17.9575 0.703349 18.2891C0.713821 18.6948 1.03414 19.024 1.43393 19.0376C1.7561 19.0487 2.07827 19.0376 2.40044 19.0431C2.54704 19.0456 2.61049 18.9845 2.60803 18.8375C2.60433 18.5911 2.60803 18.3441 2.60803 18.0977C2.60803 17.5394 2.5107 17.4388 1.95876 17.427C1.47643 17.4165 1.21217 17.2004 1.09266 16.6872V16.6878ZM16.2679 16.6965C16.1465 17.2097 15.8847 17.4196 15.3827 17.4276C15.3063 17.4289 15.2287 17.4252 15.1529 17.4357C14.9065 17.469 14.7655 17.6166 14.7587 17.8655C14.7501 18.1891 14.7587 18.5127 14.7544 18.8363C14.7525 18.982 14.8129 19.0456 14.9607 19.0431C15.2829 19.0376 15.6057 19.0487 15.9272 19.0376C16.327 19.024 16.6473 18.6955 16.659 18.2897C16.6683 17.9587 16.6695 17.6265 16.6578 17.2955C16.6486 17.033 16.5278 16.8293 16.2679 16.6965ZM10.2612 10.581C10.0962 10.2728 9.93907 9.98071 9.80479 9.73061C9.41547 9.76334 9.03417 9.83127 8.65656 9.81645C8.28264 9.80163 7.91243 9.7022 7.57362 9.64539C7.44919 9.91711 7.32291 10.1925 7.19355 10.4747C7.94261 11.1349 9.3625 11.188 10.2619 10.5816L10.2612 10.581Z" fill="white"/>
<path d="M15.0538 14.7826C15.0532 14.9982 14.909 15.1198 14.6324 15.1445C14.1513 15.1877 13.6659 15.2057 13.1904 15.2866C12.5953 15.3872 12.007 15.5348 11.4188 15.6731C11.1391 15.7392 10.9494 15.6762 10.8915 15.4675C10.8305 15.2458 10.9389 15.0939 11.2179 15.0031C12.3286 14.6437 13.4744 14.4967 14.6337 14.4306C14.8862 14.4164 15.0544 14.5628 15.0538 14.7826Z" fill="white"/>
</svg>
