<svg width="30" height="31" viewBox="0 0 30 31" fill="none" xmlns="http://www.w3.org/2000/svg">
<g clip-path="url(#clip0_97_1391)">
<path d="M18.2803 1.38867C18.2803 1.38867 18.8241 3.4043 17.91 5.5418C17.7319 5.95898 17.5397 6.41367 17.3522 6.86367C16.9585 7.80586 16.4569 8.69648 16.0257 9.61992C14.0944 13.7684 17.385 19.3746 22.696 18.0715C27.7303 16.834 27.4632 11.0355 27.4632 11.0355L29.0616 8.41992H27.1866V5.60742C27.1866 5.1668 26.6897 4.66992 26.2491 4.66992H24.3741V1.38867H18.2803Z" fill="#FFD8CC"/>
<path d="M25.3119 4.66992H26.2494C26.765 4.66992 27.1869 5.0918 27.1869 5.60742V8.41992H26.7182C26.4604 8.41992 26.2494 8.20898 26.2494 7.95117V5.60742C26.2494 5.1668 25.7525 4.66992 25.3119 4.66992ZM23.4369 1.38867H24.3744V4.66992H23.4369V1.38867ZM20.7041 18.2449C21.0463 18.2168 21.3979 18.1605 21.7588 18.0715C26.7932 16.834 26.526 11.0355 26.526 11.0355L28.1244 8.41992H29.0619L27.4635 11.0355C27.4635 11.0355 27.7307 16.834 22.6963 18.0715C21.9932 18.2449 21.3275 18.2965 20.7041 18.2449Z" fill="#FFC9B9"/>
<path d="M16.0262 9.61992C16.4575 8.69648 16.959 7.80586 17.3528 6.86367C17.5403 6.41367 17.7325 5.95898 17.9106 5.5418C18.8246 3.4043 18.2809 1.38867 18.2809 1.38867H19.4528C19.4528 1.38867 19.9965 3.4043 19.0825 5.5418C18.9043 5.95898 18.7121 6.41367 18.5246 6.86367C18.1309 7.80586 17.6293 8.69648 17.1981 9.61992C15.5387 13.1824 17.7278 17.8137 21.7403 18.2355C17.0012 18.6902 14.2121 13.5152 16.0262 9.61992Z" fill="#FFC9B9"/>
<path d="M11.7188 30.451C11.7188 30.451 11.175 28.4354 12.0891 26.2979C12.2672 25.8807 12.4594 25.426 12.6469 24.976C13.0406 24.0338 13.5422 23.1432 13.9734 22.2198C15.9047 18.0713 12.6141 12.4651 7.30312 13.7682C2.26875 15.0057 2.53594 20.8041 2.53594 20.8041L0.9375 23.4198H2.8125V26.2323C2.8125 26.6729 3.30938 27.1698 3.75 27.1698H5.625V30.451H11.7188Z" fill="#FFD8CC"/>
<path d="M4.6875 27.1697H3.75C3.23438 27.1697 2.8125 26.7479 2.8125 26.2322V23.4197H3.28125C3.53906 23.4197 3.75 23.6307 3.75 23.8885V26.2322C3.75 26.6729 4.24688 27.1697 4.6875 27.1697ZM5.625 27.1697H6.5625V30.451H5.625V27.1697ZM9.29531 13.5947C8.95312 13.6229 8.60156 13.6791 8.24063 13.7682C3.20625 15.0057 3.47344 20.8041 3.47344 20.8041L1.875 23.4197H0.9375L2.53594 20.8041C2.53594 20.8041 2.26875 15.0057 7.30313 13.7682C8.00625 13.5947 8.67188 13.5432 9.29531 13.5947Z" fill="#FFC9B9"/>
<path d="M13.9729 22.2198C13.5416 23.1432 13.04 24.0339 12.6463 24.9761C12.4588 25.4261 12.2666 25.8807 12.0885 26.2979C11.1744 28.4354 11.7182 30.4511 11.7182 30.4511H10.5463C10.5463 30.4511 10.0025 28.4354 10.9166 26.2979C11.0947 25.8807 11.2869 25.4261 11.4744 24.9761C11.8682 24.0339 12.3697 23.1432 12.801 22.2198C14.4604 18.6573 12.2713 14.0261 8.25879 13.6042C12.9979 13.1495 15.7869 18.3245 13.9729 22.2198Z" fill="#FFC9B9"/>
<path d="M6.32333 17.0918C7.08271 16.4074 7.70614 16.2152 8.58271 16.1589C9.32333 16.1121 10.3827 16.3886 10.9124 16.8808C11.4843 17.4152 11.9718 18.0293 11.9718 19.2199C11.9718 20.4105 11.3155 22.0277 10.7999 22.2152C10.1671 22.4449 9.82021 21.3339 9.18271 20.9636C7.92646 20.2324 6.63271 21.2355 5.90614 20.7433C5.04833 20.1668 5.24052 18.0621 6.32333 17.0918Z" fill="#E6EDFF"/>
<path d="M7.04478 17.7433C7.56978 17.2698 8.00103 17.1339 8.61041 17.0964C9.12134 17.0636 9.85728 17.2558 10.2229 17.598C10.6213 17.9683 10.9588 18.3948 10.9588 19.2151C10.9588 20.0355 10.5042 21.1605 10.1479 21.2917C9.71197 21.4511 9.47291 20.6823 9.02759 20.4245C8.16041 19.9183 7.26041 20.612 6.75884 20.2745C6.16822 19.8761 6.29947 18.4183 7.04478 17.748V17.7433Z" fill="white"/>
<path d="M17.2733 15.9387C15.8717 14.2324 15.5436 11.7762 16.453 9.8168C16.6217 9.45117 16.8045 9.09492 16.9827 8.73867C17.2592 8.19023 17.5452 7.62773 17.7842 7.04648C17.9389 6.67148 18.0983 6.30117 18.2483 5.94961L18.342 5.7293C19.303 3.46992 18.7545 1.36055 18.7311 1.27148L17.8264 1.51523C17.8264 1.51523 18.3139 3.40898 17.4795 5.36367L17.3858 5.58398C17.2358 5.94023 17.0764 6.31523 16.917 6.69023C16.6873 7.24336 16.4108 7.7918 16.1436 8.32148C15.9561 8.68711 15.7733 9.05742 15.5998 9.42773C14.5405 11.7059 14.9202 14.5605 16.5467 16.5387C17.728 17.9777 19.3545 18.7371 21.1545 18.7371C21.6936 18.7371 22.2467 18.6668 22.8092 18.5309C27.6842 17.3355 27.928 12.1277 27.9327 11.1668L29.4608 8.66836C29.5498 8.52305 29.5545 8.34023 29.4702 8.19492C29.4298 8.12226 29.3706 8.06175 29.2989 8.0197C29.2272 7.97766 29.1455 7.95561 29.0623 7.95586H27.6561V5.61211C27.6561 4.91367 26.9483 4.20586 26.2498 4.20586H24.8436V1.38867H23.9061V4.20117H22.4998V5.13867H26.2498C26.4327 5.13867 26.7186 5.42461 26.7186 5.60742V8.41992C26.7186 8.67773 26.9295 8.88867 27.1873 8.88867H28.228L27.0655 10.7918C27.0186 10.8715 26.9952 10.9652 26.9952 11.059C27.0045 11.2793 27.178 16.4918 22.5842 17.6215C20.503 18.1324 18.567 17.523 17.2733 15.9434V15.9387ZM9.46859 21.9105C9.74515 22.2621 10.1061 22.7168 10.6217 22.7168C10.7295 22.7168 10.842 22.698 10.9592 22.6559C11.803 22.3465 12.4405 20.359 12.4405 19.2199C12.4405 17.8512 11.8592 17.1246 11.2311 16.5387C10.5655 15.9199 9.35609 15.634 8.55453 15.6902C7.64046 15.7465 6.89984 15.9434 6.00921 16.7449C5.16546 17.5043 4.84671 18.7418 4.90765 19.6277C4.95453 20.3121 5.21703 20.8465 5.64359 21.1324C6.1264 21.4559 6.69828 21.3574 7.24671 21.2543C7.8139 21.1512 8.39984 21.048 8.94359 21.3668C9.11703 21.4699 9.29515 21.6949 9.4639 21.9105H9.46859ZM7.08265 20.3355C6.69828 20.4059 6.33734 20.4715 6.16859 20.359C5.99046 20.2418 5.87328 19.9418 5.84515 19.5621C5.7889 18.784 6.11703 17.9121 6.63734 17.4434C7.33109 16.8199 7.86546 16.6746 8.61546 16.6277C9.29046 16.5809 10.1998 16.8574 10.5936 17.2277C11.053 17.6543 11.503 18.1652 11.503 19.2199C11.503 20.2746 10.903 21.6246 10.6358 21.7793C10.542 21.7605 10.3311 21.4934 10.2092 21.3293C9.99359 21.0574 9.74984 20.748 9.42172 20.5559C8.97171 20.2934 8.53109 20.2137 8.10921 20.2137C7.74359 20.2137 7.39203 20.2746 7.08265 20.3309V20.3355ZM23.9061 24.3574V20.1387H22.9686V23.8887H14.9998V24.8262H23.4373C23.6952 24.8262 23.9061 24.6152 23.9061 24.3574ZM7.03109 7.95117H14.9998V7.01367H6.56234C6.30453 7.01367 6.09359 7.22461 6.09359 7.48242V11.7012H7.03109V7.95117Z" fill="black"/>
<path d="M20.1558 14.9826V10.7639C20.1558 10.506 19.9448 10.2951 19.687 10.2951C19.4292 10.2951 19.2183 10.506 19.2183 10.7639V14.9826C19.2183 15.2404 19.4292 15.4514 19.687 15.4514C19.9448 15.4514 20.1558 15.2404 20.1558 14.9826ZM21.0933 10.2951C20.8542 10.3889 20.737 10.6654 20.8308 10.9045L22.5323 15.156C22.5669 15.2435 22.6269 15.3185 22.7047 15.3714C22.7824 15.4242 22.8743 15.4525 22.9683 15.4525C23.0623 15.4525 23.1541 15.4242 23.2319 15.3714C23.3096 15.3185 23.3697 15.2435 23.4042 15.156L25.1058 10.9045C25.1293 10.8473 25.1411 10.786 25.1406 10.7242C25.14 10.6624 25.1272 10.6013 25.1027 10.5446C25.0783 10.4878 25.0427 10.4365 24.9982 10.3937C24.9536 10.3508 24.9009 10.3173 24.8433 10.2951C24.6042 10.2014 24.3323 10.3139 24.2339 10.5576L23.7745 11.7014H22.1573L21.698 10.5576C21.5995 10.3185 21.3276 10.2014 21.0886 10.2951H21.0933ZM23.3995 12.6389L22.9683 13.7217L22.537 12.6389H23.4042H23.3995ZM0.937021 23.8889H2.34327V26.2326C2.34327 26.931 3.05108 27.6389 3.74952 27.6389H5.15577V30.4514H6.09327V27.6389H7.49952V26.7014H3.74952C3.56671 26.7014 3.28077 26.4154 3.28077 26.2326V23.4201C3.28077 23.1623 3.06983 22.9514 2.81202 22.9514H1.7714L2.9339 21.0482C2.98077 20.9685 3.00421 20.8748 3.00421 20.781C2.99483 20.5607 2.8214 15.3482 7.41515 14.2185C9.4964 13.7076 11.4323 14.317 12.7261 15.8967C14.1276 17.6029 14.4558 20.0592 13.5464 22.0185C13.3776 22.3842 13.1948 22.7404 13.0167 23.0967C12.7401 23.6451 12.4542 24.2076 12.2151 24.7889C12.0605 25.1639 11.9011 25.5342 11.7511 25.8857L11.6573 26.106C10.6964 28.3654 11.2448 30.4748 11.2683 30.5639L12.173 30.3201C12.173 30.3201 11.6855 28.4264 12.5198 26.4717L12.6136 26.2514C12.7636 25.8951 12.923 25.5201 13.0823 25.1451C13.312 24.592 13.5886 24.0435 13.8558 23.5139C14.0433 23.1482 14.2261 22.7779 14.3995 22.4076C15.4589 20.1295 15.0792 17.2748 13.4526 15.2967C11.9198 13.431 9.63702 12.7045 7.19015 13.3045C2.31515 14.4998 2.0714 19.7076 2.06671 20.6685L0.538583 23.167C0.449521 23.3123 0.444833 23.4951 0.529208 23.6404C0.613583 23.7904 0.768271 23.8795 0.937021 23.8795V23.8889Z" fill="black"/>
</g>
<defs>
<clipPath id="clip0_97_1391">
<rect width="30" height="30" fill="white" transform="translate(0 0.919922)"/>
</clipPath>
</defs>
</svg>
