<svg width="32" height="32" viewBox="0 0 32 32" fill="none" xmlns="http://www.w3.org/2000/svg">
<g clip-path="url(#clip0_38_1169)">
<path d="M31.3332 18.6667C31.332 17.9018 31.1116 17.1531 30.698 16.5095C30.2845 15.866 29.6952 15.3544 28.9998 15.0354V14.6667C28.9998 7.49875 23.1678 1.66675 15.9998 1.66675C8.83184 1.66675 2.99984 7.49875 2.99984 14.6667V15.0354C2.30451 15.3544 1.71518 15.866 1.30164 16.5095C0.888102 17.1531 0.667687 17.9018 0.666504 18.6667C0.666504 20.8721 2.4605 22.6667 4.6665 22.6667H5.99984C6.17665 22.6667 6.34622 22.5965 6.47124 22.4715C6.59627 22.3465 6.6665 22.1769 6.6665 22.0001V15.3334C6.6665 15.1566 6.59627 14.987 6.47124 14.862C6.34622 14.737 6.17665 14.6667 5.99984 14.6667H4.6665C4.55522 14.6679 4.44402 14.6735 4.33317 14.6834V14.6667C4.33317 8.23341 9.5665 3.00008 15.9998 3.00008C22.4332 3.00008 27.6665 8.23341 27.6665 14.6667V14.6834C27.5557 14.6732 27.4445 14.6677 27.3332 14.6667H25.9998C25.823 14.6667 25.6535 14.737 25.5284 14.862C25.4034 14.987 25.3332 15.1566 25.3332 15.3334V22.0001C25.3332 22.1769 25.4034 22.3465 25.5284 22.4715C25.6535 22.5965 25.823 22.6667 25.9998 22.6667H27.3332C27.4458 22.6667 27.5565 22.6587 27.6665 22.6501V23.6667C27.6665 25.8721 25.8725 27.6667 23.6665 27.6667H18.6665C18.6665 26.9314 18.0685 26.3334 17.3332 26.3334H13.9998C13.2645 26.3334 12.6665 26.9314 12.6665 27.6667V29.0001C12.6665 29.7354 13.2645 30.3334 13.9998 30.3334H17.3332C18.0685 30.3334 18.6665 29.7354 18.6665 29.0001H23.6665C26.6072 29.0001 28.9998 26.6074 28.9998 23.6667V22.2981C29.6952 21.9791 30.2845 21.4675 30.698 20.8239C31.1116 20.1804 31.332 19.4317 31.3332 18.6667ZM5.33317 16.0001V21.3334H4.6665C3.19584 21.3334 1.99984 20.1374 1.99984 18.6667C1.99984 17.1961 3.19584 16.0001 4.6665 16.0001H5.33317ZM13.9998 29.0001V27.6667H17.3332V28.3381L17.3345 29.0001H13.9998ZM27.3332 21.3334H26.6665V16.0001H27.3332C28.8038 16.0001 29.9998 17.1961 29.9998 18.6667C29.9998 20.1374 28.8038 21.3334 27.3332 21.3334ZM15.9998 23.0001C20.0432 23.0001 23.3332 19.7101 23.3332 15.6667C23.3332 11.6234 20.0432 8.33341 15.9998 8.33341C11.9565 8.33341 8.6665 11.6234 8.6665 15.6667C8.6665 16.9747 9.01717 18.2534 9.68317 19.3821L9.01184 22.8741C8.98897 22.9931 8.99896 23.1161 9.04075 23.2298C9.08254 23.3435 9.15453 23.4437 9.249 23.5196C9.34347 23.5955 9.45684 23.6442 9.57691 23.6605C9.69699 23.6768 9.81923 23.6601 9.9305 23.6121L12.9238 22.3201C13.8868 22.7699 14.937 23.0021 15.9998 23.0001ZM10.5592 21.8887L11.0412 19.3794C11.0734 19.2117 11.04 19.0379 10.9478 18.8941C10.3292 17.9313 10.0002 16.8111 9.99984 15.6667C9.99984 12.3581 12.6918 9.66675 15.9998 9.66675C19.3078 9.66675 21.9998 12.3581 21.9998 15.6667C21.9998 18.9754 19.3078 21.6667 15.9998 21.6667C15.0419 21.668 14.0978 21.4372 13.2485 20.9941C13.1608 20.9486 13.0641 20.9232 12.9654 20.9197C12.8667 20.9163 12.7685 20.9348 12.6778 20.9741L10.5592 21.8887ZM15.9998 17.6667H12.6665C12.4897 17.6667 12.3201 17.5965 12.1951 17.4715C12.0701 17.3465 11.9998 17.1769 11.9998 17.0001C11.9998 16.8233 12.0701 16.6537 12.1951 16.5287C12.3201 16.4037 12.4897 16.3334 12.6665 16.3334H15.9998C16.1766 16.3334 16.3462 16.4037 16.4712 16.5287C16.5963 16.6537 16.6665 16.8233 16.6665 17.0001C16.6665 17.1769 16.5963 17.3465 16.4712 17.4715C16.3462 17.5965 16.1766 17.6667 15.9998 17.6667ZM11.9998 14.3334C11.9998 14.1566 12.0701 13.987 12.1951 13.862C12.3201 13.737 12.4897 13.6667 12.6665 13.6667H19.3332C19.51 13.6667 19.6796 13.737 19.8046 13.862C19.9296 13.987 19.9998 14.1566 19.9998 14.3334C19.9998 14.5102 19.9296 14.6798 19.8046 14.8048C19.6796 14.9298 19.51 15.0001 19.3332 15.0001H12.6665C12.4897 15.0001 12.3201 14.9298 12.1951 14.8048C12.0701 14.6798 11.9998 14.5102 11.9998 14.3334Z" fill="#AAC191"/>
</g>
<defs>
<clipPath id="clip0_38_1169">
<rect width="32" height="32" fill="white"/>
</clipPath>
</defs>
</svg>
