<svg width="32" height="33" viewBox="0 0 32 33" fill="none" xmlns="http://www.w3.org/2000/svg">
<g clip-path="url(#clip0_48_1575)">
<g clip-path="url(#clip1_48_1575)">
<path d="M3.07308 11.6732L15.0651 5.6772C15.1484 5.63549 15.2404 5.61377 15.3336 5.61377C15.4268 5.61377 15.5187 5.63549 15.6021 5.6772L27.5931 11.6732C27.6929 11.723 27.7769 11.7996 27.8356 11.8944C27.8943 11.9893 27.9254 12.0986 27.9254 12.2102C27.9254 12.3218 27.8943 12.4311 27.8356 12.526C27.7769 12.6208 27.6929 12.6974 27.5931 12.7472L15.6021 18.7422C15.5187 18.7839 15.4268 18.8056 15.3336 18.8056C15.2404 18.8056 15.1484 18.7839 15.0651 18.7422L3.07308 12.7472C2.97324 12.6974 2.88924 12.6208 2.83053 12.526C2.77182 12.4311 2.74072 12.3218 2.74072 12.2102C2.74072 12.0986 2.77182 11.9893 2.83053 11.8944C2.88924 11.7996 2.97324 11.723 3.07308 11.6732Z" stroke="#E9A772" stroke-width="2" stroke-linecap="round" stroke-linejoin="round"/>
<path d="M30 17.543V12.877L27.333 11.543M6 14.21V21.848C6.00012 22.2262 6.10747 22.5966 6.3096 22.9163C6.51173 23.2359 6.80036 23.4917 7.142 23.654L14.475 27.136C14.7431 27.2633 15.0362 27.3294 15.333 27.3294C15.6298 27.3294 15.9229 27.2633 16.191 27.136L23.525 23.654C23.8666 23.4917 24.1553 23.2359 24.3574 22.9163C24.5595 22.5966 24.6669 22.2262 24.667 21.848V14.21" stroke="#E9A772" stroke-width="1.5" stroke-linecap="round" stroke-linejoin="round"/>
</g>
</g>
<defs>
<clipPath id="clip0_48_1575">
<rect width="32" height="32" fill="white" transform="translate(0 0.209961)"/>
</clipPath>
<clipPath id="clip1_48_1575">
<rect width="32" height="32" fill="white" transform="translate(0 0.209961)"/>
</clipPath>
</defs>
</svg>
