<svg width="20" height="21" viewBox="0 0 20 21" fill="none" xmlns="http://www.w3.org/2000/svg">
<g clip-path="url(#clip0_32_39)">
<path fill-rule="evenodd" clip-rule="evenodd" d="M3.23223 2.5407C3.70107 2.07186 4.33696 1.80847 5 1.80847H11.6667C11.8877 1.80847 12.0996 1.89627 12.2559 2.05255L17.2559 7.05255C17.4122 7.20883 17.5 7.42079 17.5 7.6418V17.6418C17.5 18.3048 17.2366 18.9407 16.7678 19.4096C16.2989 19.8784 15.663 20.1418 15 20.1418H5C4.33696 20.1418 3.70107 19.8784 3.23223 19.4096C2.76339 18.9407 2.5 18.3048 2.5 17.6418V4.30847C2.5 3.64543 2.76339 3.00955 3.23223 2.5407ZM5 3.47514C4.77899 3.47514 4.56702 3.56294 4.41074 3.71922C4.25446 3.8755 4.16667 4.08746 4.16667 4.30847V17.6418C4.16667 17.8628 4.25446 18.0748 4.41074 18.2311C4.56702 18.3873 4.77899 18.4751 5 18.4751H15C15.221 18.4751 15.433 18.3873 15.5893 18.2311C15.7455 18.0748 15.8333 17.8628 15.8333 17.6418V7.98698L11.3215 3.47514H5Z" fill="#AAC191"/>
<path fill-rule="evenodd" clip-rule="evenodd" d="M11.6666 1.80847C12.1268 1.80847 12.4999 2.18157 12.4999 2.6418V6.80847H16.6666C17.1268 6.80847 17.4999 7.18157 17.4999 7.6418C17.4999 8.10204 17.1268 8.47514 16.6666 8.47514H11.6666C11.2063 8.47514 10.8333 8.10204 10.8333 7.6418V2.6418C10.8333 2.18157 11.2063 1.80847 11.6666 1.80847Z" fill="#AAC191"/>
<path fill-rule="evenodd" clip-rule="evenodd" d="M5.83325 11.8084C5.83325 11.3482 6.20635 10.9751 6.66659 10.9751H13.3333C13.7935 10.9751 14.1666 11.3482 14.1666 11.8084C14.1666 12.2687 13.7935 12.6418 13.3333 12.6418H6.66659C6.20635 12.6418 5.83325 12.2687 5.83325 11.8084Z" fill="#AAC191"/>
<path fill-rule="evenodd" clip-rule="evenodd" d="M5.83325 15.1418C5.83325 14.6816 6.20635 14.3085 6.66659 14.3085H13.3333C13.7935 14.3085 14.1666 14.6816 14.1666 15.1418C14.1666 15.602 13.7935 15.9751 13.3333 15.9751H6.66659C6.20635 15.9751 5.83325 15.602 5.83325 15.1418Z" fill="#AAC191"/>
<path fill-rule="evenodd" clip-rule="evenodd" d="M5.83325 8.47506C5.83325 8.01482 6.20635 7.64172 6.66659 7.64172H8.33325C8.79349 7.64172 9.16659 8.01482 9.16659 8.47506C9.16659 8.93529 8.79349 9.30839 8.33325 9.30839H6.66659C6.20635 9.30839 5.83325 8.93529 5.83325 8.47506Z" fill="#AAC191"/>
</g>
<defs>
<clipPath id="clip0_32_39">
<rect width="20" height="20" fill="white" transform="translate(0 0.975098)"/>
</clipPath>
</defs>
</svg>
