<svg width="57" height="68" viewBox="0 0 57 68" fill="none" xmlns="http://www.w3.org/2000/svg">
<path d="M30.9298 20.5643C30.7249 21.0685 30.564 21.393 30.1572 21.7994C28.6524 23.3019 26.0775 22.8876 25.1622 20.9606L25.0645 20.7549C22.5185 21.4232 20.6994 22.4133 18.7203 24.1392L22.5405 27.9568L22.7186 27.8651C23.6649 27.378 24.8105 27.419 25.7271 27.9576L25.8896 28.053C28.8276 25.7175 32.2464 23.8749 35.9649 23.1799L36.6129 23.0588L36.0706 22.6839C34.4573 21.5686 32.8421 20.9451 30.9298 20.5643Z" fill="#AAC191"/>
<path d="M14.0076 32.8979L14.0438 32.6753C14.4805 29.994 15.6797 27.4824 17.4596 25.4316L17.6529 25.2089L21.4658 29.0219L21.3732 29.2004C20.88 30.1509 20.9123 31.2986 21.4598 32.2195L21.5565 32.3823C19.2301 35.3165 17.3811 38.7249 16.6859 42.4359L16.5639 43.0873C15.4953 41.5279 14.9723 40.6277 14.3946 38.7571L14.5956 38.6506C16.4375 37.6749 16.8051 35.1706 15.3323 33.6949C14.9075 33.2693 14.5419 33.0976 14.0076 32.8979Z" fill="#AAC191"/>
<path d="M22.6822 33.3949C20.3387 36.3755 18.4537 39.9367 18.0157 43.7523L17.976 44.0971C20.0019 43.8594 21.3835 43.4719 23.2675 42.6787L23.2339 42.466C23.0764 41.474 23.3862 40.4684 24.1008 39.7551C25.208 38.6501 26.9713 38.5387 28.2085 39.4926L28.3787 39.6237C29.1246 39.0315 29.6669 38.5663 30.3608 37.917L25.753 33.3093C24.6515 33.8796 23.8109 33.8977 22.6822 33.3949Z" fill="#AAC191"/>
<path d="M37.5962 24.4704L37.5564 24.8147C37.0508 29.1901 34.5765 33.4536 31.6229 36.6399L31.4288 36.8493L26.8212 32.2365C27.3805 31.1396 27.3911 30.2995 26.8981 29.1778C29.8766 26.8322 33.4382 24.9519 37.252 24.5103L37.5962 24.4704Z" fill="#AAC191"/>
<path d="M39.0068 25.4569L39.3818 25.9964C41.1875 28.5937 41.9542 31.7448 41.6645 34.8889L41.6438 35.1131C40.8148 35.2012 40.1666 35.408 39.5475 36.0287C38.3345 37.2448 38.3314 39.2213 39.5472 40.4363L39.8261 40.7196C39.1917 41.8137 38.7518 42.4046 37.9263 43.3475L32.4953 37.9173L32.6758 37.7234C35.6361 34.5399 38.0812 30.4132 38.8862 26.1027L39.0068 25.4569Z" fill="#AAC191"/>
<path d="M28.5123 44.1623C27.3061 45.3703 25.3394 45.375 24.1231 44.1839C24.0637 44.1074 23.9818 44.0851 23.8952 44.0502C22.044 44.8462 20.9 45.1433 18.9738 45.5024L19.5174 45.8775C24.7694 49.5021 31.8511 48.7853 36.6379 44.6097L36.8595 44.4164L31.4269 38.9855C30.6574 39.7113 30.0664 40.2177 29.2308 40.871L29.2858 41.0515C29.6214 42.1508 29.3267 43.3465 28.5123 44.1623Z" fill="#AAC191"/>
<path fill-rule="evenodd" clip-rule="evenodd" d="M1.7868 53.5904C1.7868 53.3362 1.99655 53.1283 2.25039 53.1283H5.8935C6.14734 53.1283 6.35709 53.3362 6.35709 53.5904V65.753C6.35709 66.0058 6.14608 66.2134 5.8935 66.2134H2.25039C1.99781 66.2134 1.7868 66.0058 1.7868 65.753V53.5904ZM50.1082 2.24735C50.1082 1.99366 50.3184 1.78613 50.5718 1.78613H54.2149C54.4683 1.78613 54.6785 1.99366 54.6785 2.24735V14.4098C54.6785 14.6621 54.4672 14.8703 54.2149 14.8703H50.5718C50.3187 14.8703 50.1082 14.6632 50.1082 14.4098V2.24735Z" fill="#E9A772"/>
<path fill-rule="evenodd" clip-rule="evenodd" d="M47.4874 49.2326C43.825 53.0369 37.9131 58.2698 33.3238 61.2442C30.5463 63.0454 27.6034 64.7434 24.8808 64.9646C22.6466 65.1468 20.1311 64.2614 17.7754 63.9204C14.7067 63.4782 11.5749 63.4356 8.14422 63.4641V54.8802C10.6058 54.297 11.2518 54.1897 13.5579 53.035C15.2182 52.2025 16.5323 51.5447 18.3027 52.0774L25.715 54.3112C26.7472 54.624 26.9079 56.0535 25.9354 56.5765C25.6442 56.7331 25.3137 56.7678 24.999 56.674L18.9008 54.8344C17.933 54.5432 17.0044 54.5739 16.0601 54.9264C15.5329 55.1254 15.2575 55.7187 15.4543 56.2522C15.6588 56.7848 16.249 57.0556 16.7841 56.8564C17.3034 56.6612 17.7677 56.6464 18.3027 56.8068L24.4009 58.6465C25.8734 59.0876 27.4464 58.4596 28.2173 57.1215C29.1222 57.0256 30.0035 56.8398 30.8376 56.5613C34.9326 55.1921 42.0225 50.897 46.7794 48.3189C47.3126 48.0301 47.9546 48.7467 47.4874 49.2326ZM6.0825 65.753C6.0825 65.8528 5.99588 65.9387 5.89362 65.9387H2.25051C2.14824 65.9387 2.06163 65.8528 2.06163 65.753V53.5903C2.06163 53.488 2.14824 53.403 2.25051 53.403H5.89362C5.99588 53.403 6.0825 53.488 6.0825 53.5903V65.753ZM48.7936 46.8666L48.7386 46.8233C47.9124 46.1113 46.7557 45.9861 45.7957 46.5062C41.0983 49.048 34.1971 53.2494 30.1764 54.6063C29.6807 54.7754 29.1535 54.9046 28.6105 54.9926C28.4216 53.7785 27.5561 52.7162 26.3051 52.3385L18.8929 50.1045C16.3434 49.3341 14.3684 50.3216 12.6295 51.1927C10.6145 52.2076 10.1114 52.2929 7.99486 52.7956C7.67226 51.9481 6.85398 51.3422 5.89393 51.3422H2.25051C1.00721 51.3422 6.10352e-05 52.351 6.10352e-05 53.5903V65.753C6.10352e-05 66.9907 1.00721 67.9987 2.25051 67.9987H5.89362C7.13691 67.9987 8.14406 66.9907 8.14406 65.753V65.5247C11.4962 65.4972 14.5491 65.5374 17.4764 65.9599C19.9707 66.3194 22.4212 67.2381 25.046 67.019C28.2249 66.7593 31.4431 64.922 34.4491 62.9722C39.2474 59.8592 45.1554 54.6065 48.9746 50.6626C50.0168 49.586 49.9259 47.8442 48.7936 46.8666ZM54.4039 14.4099C54.4039 14.509 54.3173 14.5957 54.215 14.5957H50.5719C50.4696 14.5957 50.383 14.5106 50.383 14.4099V2.24729C50.383 2.14581 50.4696 2.06078 50.5719 2.06078H54.215C54.3173 2.06078 54.4039 2.14581 54.4039 2.24729V14.4099ZM45.8507 13.7395C44.7569 14.0361 43.8206 14.5075 42.9078 14.9638C41.2475 15.7979 39.9334 16.4557 38.163 15.9229L30.7585 13.6875C29.7098 13.3712 29.5633 11.9422 30.5303 11.422C30.8215 11.2654 31.152 11.2315 31.4667 11.326L37.5649 13.1657C38.5276 13.4527 39.4532 13.4267 40.4055 13.0721C40.9406 12.873 41.2082 12.2798 41.0114 11.7463C40.8068 11.2135 40.2167 10.9429 39.6816 11.1437C39.1624 11.3373 38.698 11.3521 38.163 11.1933L32.0647 9.35363C30.5847 8.90695 29.0161 9.5463 28.2484 10.877C27.3435 10.9729 26.4622 11.1602 25.636 11.438C21.4187 12.8504 14.5047 17.0841 9.68625 19.6812C9.15706 19.9664 8.50934 19.2519 8.97798 18.7676C12.7096 14.9116 18.4638 9.78798 23.1415 6.75608C25.9192 4.95342 28.8699 3.25602 31.5846 3.03426C33.8243 2.85202 36.3366 3.74 38.69 4.0784C41.7587 4.52065 44.8905 4.56301 48.3211 4.53472V13.1186C47.5032 13.313 46.6691 13.516 45.8507 13.7395ZM54.215 0H50.5719C49.3286 0 48.3215 1.00794 48.3215 2.24729V2.47394C44.9695 2.50303 41.9164 2.4613 38.9892 2.0396C36.4835 1.67985 34.0712 0.764532 31.4195 0.980441C28.2407 1.23934 25.0224 3.0782 22.0164 5.02644C17.2443 8.12124 11.2898 13.4074 7.49096 17.3363C6.45805 18.4046 6.52396 20.1712 7.67194 21.132C8.5585 21.8741 9.65716 22.0398 10.67 21.4932C15.3468 18.97 22.2932 14.7303 26.2893 13.3924C26.7928 13.2232 27.3122 13.0957 27.8552 13.0061C28.044 14.2217 28.9096 15.2824 30.1606 15.6602L37.573 17.8948C40.1302 18.666 42.0974 17.6769 43.8364 16.8058C45.8706 15.7813 46.3405 15.7138 48.471 15.2029C48.7936 16.0504 49.6119 16.6563 50.5719 16.6563H54.215C55.4583 16.6563 56.4655 15.6475 56.4655 14.4098V2.24729C56.4655 1.00794 55.4583 0 54.215 0ZM42.5379 39.4307C42.0187 39.9493 41.1767 39.9493 40.6573 39.4307C39.8232 38.5981 40.4122 37.1607 41.6016 37.1607C42.772 37.1605 43.3772 38.5927 42.5379 39.4307ZM37.7617 43.2022C38.3596 42.5192 38.8869 41.7874 39.3355 41.0138C39.2961 40.9713 39.2411 40.9328 39.2018 40.8871C37.8798 39.566 37.8798 37.4147 39.2018 36.0912C39.7682 35.5216 40.5001 35.199 41.2398 35.1203C41.5309 31.961 40.7441 28.9111 39.005 26.4096C38.2575 30.4123 36.0227 34.6213 32.7258 38.1669L37.7617 43.2022ZM27.2885 48.1916C30.6013 48.1161 33.7723 46.8696 36.306 44.6593L31.27 39.625C30.6719 40.1892 30.0425 40.7235 29.3972 41.2279C29.7512 42.3877 29.468 43.6978 28.5552 44.613C27.2356 45.9334 25.0788 45.935 23.7553 44.613C23.7553 44.6098 23.7553 44.6075 23.7474 44.6043C22.3389 45.2102 20.9146 45.6485 19.5218 45.9081C21.7647 47.4559 24.4479 48.2569 27.2885 48.1916ZM11.6535 36.1549C11.6535 34.9565 13.0919 34.3875 13.9195 35.2139C14.4389 35.7332 14.4389 36.5766 13.9195 37.096C13.0889 37.9266 11.6535 37.3469 11.6535 36.1549ZM26.8637 18.9108C26.3443 19.4302 26.3443 20.2736 26.8637 20.7922C27.383 21.3124 28.225 21.3124 28.7442 20.7922C29.2636 20.2736 29.2636 19.4302 28.7442 18.9108C28.2249 18.3922 27.3829 18.3922 26.8637 18.9108ZM25.7147 27.9771C24.7076 27.3853 23.4643 27.3507 22.4413 27.8772L18.9713 24.4096C20.6552 22.9412 22.6302 21.8947 24.7626 21.3353C25.7474 23.4083 28.541 23.9072 30.1998 22.2505C30.5303 21.9208 30.7821 21.5416 30.9473 21.1347C32.6941 21.4825 34.3229 22.171 35.7629 23.1664C32.3952 23.7957 28.8623 25.4757 25.7147 27.9771ZM27.0053 32.4401C27.4695 31.5297 27.493 30.4493 27.084 29.5185C30.2708 27.0084 33.8432 25.4205 37.1323 25.0397C36.6837 28.9206 34.5671 33.1531 31.2702 36.7097L27.0053 32.4401ZM24.9279 31.8342C24.4085 32.352 23.5665 32.352 23.0473 31.8342C22.5279 31.3149 22.5279 30.4707 23.0473 29.9521C23.5667 29.4335 24.4085 29.4335 24.9279 29.9521C25.4473 30.4722 25.4473 31.315 24.9279 31.8342ZM15.3753 33.7573C15.0291 33.4072 14.612 33.1436 14.1634 32.9759C14.5883 30.3674 15.7529 27.899 17.5156 25.8681L20.9778 29.3304C20.4428 30.3619 20.4743 31.6107 21.0722 32.6163C18.5779 35.7622 16.8939 39.281 16.2645 42.6417C15.5327 41.5738 14.9583 40.3976 14.5728 39.1495C16.5511 38.1018 17.0014 35.3835 15.3753 33.7573ZM27.0996 43.1549C26.5802 43.6741 25.7305 43.6741 25.2111 43.1549C24.6918 42.6371 24.6918 41.7928 25.2111 41.2743C25.7305 40.7551 26.5802 40.7551 27.0996 41.2743C27.6111 41.7929 27.6111 42.6371 27.0996 43.1549ZM28.2249 39.5314C26.8951 38.5062 24.9752 38.5998 23.7554 39.817C22.9528 40.6181 22.646 41.7235 22.8112 42.7655C21.2296 43.4312 19.64 43.864 18.1372 44.0402C18.515 40.7504 20.1044 37.1811 22.6145 33.9895C23.5559 34.4089 24.6356 34.3754 25.5495 33.9021L29.8143 38.1669C29.303 38.6453 28.7678 39.1002 28.2249 39.5314ZM38.9892 23.1859C36.8253 21.0274 34.1184 19.6142 31.097 19.0673C30.5306 16.5589 27.3234 15.544 25.4079 17.4543C24.8885 17.9705 24.5818 18.6142 24.4637 19.2845C18.0193 20.8765 13.0581 26.3188 12.0862 32.8823C9.58857 33.5648 8.73995 36.7112 10.5834 38.5533C11.1263 39.1002 11.8188 39.4157 12.5269 39.511C14.429 46.0545 20.4415 50.4158 27.3358 50.2518C33.1237 50.1139 38.3615 46.8838 41.2319 41.8576C42.2223 41.9696 43.2457 41.6352 43.9938 40.8874C45.5717 39.31 45.2195 36.6487 43.2699 35.5437C43.7733 30.8979 42.2311 26.4316 38.9892 23.1859Z" fill="black"/>
</svg>
