<svg width="29" height="29" viewBox="0 0 29 29" fill="none" xmlns="http://www.w3.org/2000/svg">
<path d="M27.327 21.75C27.327 21.8979 27.2682 22.0397 27.1636 22.1443C27.0591 22.2489 26.9172 22.3076 26.7693 22.3076H22.8657C22.7178 22.3076 22.576 22.2489 22.4714 22.1443C22.3668 22.0397 22.3081 21.8979 22.3081 21.75C22.3081 21.6021 22.3668 21.4602 22.4714 21.3556C22.576 21.2511 22.7178 21.1923 22.8657 21.1923H26.1949C26.0388 18.181 24.5666 16.0898 22.0125 15.27C21.9035 15.2371 21.8074 15.1711 21.7375 15.0812C21.6675 14.9913 21.6272 14.8819 21.6222 14.7681C21.6168 14.6547 21.6459 14.5423 21.7056 14.4458C21.7653 14.3492 21.8529 14.273 21.9568 14.2272C22.6637 13.9225 23.2439 13.3834 23.5996 12.7008C23.9554 12.0181 24.0648 11.2337 23.9096 10.4797C23.7544 9.72578 23.3439 9.04841 22.7474 8.56183C22.1509 8.07525 21.4049 7.80923 20.6351 7.80861C20.3103 7.80761 19.9871 7.85459 19.676 7.94802C19.5497 7.9851 19.4144 7.97633 19.294 7.92326C19.1735 7.87019 19.0758 7.77625 19.0179 7.65804C19.0068 7.63016 18.9956 7.5967 18.9845 7.56881C18.964 7.49851 18.9575 7.42486 18.9655 7.35206C18.9734 7.27926 18.9956 7.20874 19.0309 7.14453C19.0661 7.08032 19.1136 7.02368 19.1707 6.97783C19.2278 6.93198 19.2934 6.89783 19.3637 6.87732C19.7762 6.75425 20.2046 6.69225 20.6351 6.6933C21.5596 6.69373 22.4611 6.98136 23.2151 7.51643C23.969 8.05149 24.538 8.80756 24.8436 9.6801C25.1491 10.5526 25.176 11.4986 24.9206 12.3871C24.6652 13.2756 24.1401 14.0628 23.4178 14.6399C25.9161 15.889 27.327 18.4152 27.327 21.75ZM21.1928 21.75C21.1928 21.8979 21.134 22.0397 21.0294 22.1443C20.9249 22.2489 20.783 22.3076 20.6351 22.3076H8.36674C8.21884 22.3076 8.077 22.2489 7.97241 22.1443C7.86783 22.0397 7.80908 21.8979 7.80908 21.75C7.80908 18.4152 9.21437 15.8834 11.7127 14.6399C10.9896 14.0625 10.4638 13.2746 10.208 12.3853C9.95225 11.496 9.97919 10.5491 10.2851 9.67581C10.591 8.80248 11.1607 8.04579 11.9155 7.51043C12.6703 6.97507 13.5728 6.6875 14.4981 6.6875C15.4235 6.6875 16.326 6.97507 17.0808 7.51043C17.8355 8.04579 18.4053 8.80248 18.7112 9.67581C19.0171 10.5491 19.044 11.496 18.7883 12.3853C18.5325 13.2746 18.0067 14.0625 17.2836 14.6399C19.7819 15.889 21.1928 18.4152 21.1928 21.75ZM8.94112 21.1923H20.0607C19.9046 18.181 18.4324 16.0898 15.8783 15.27C15.7693 15.2371 15.6732 15.1711 15.6033 15.0812C15.5333 14.9913 15.4931 14.8819 15.488 14.7681C15.4826 14.6547 15.5117 14.5423 15.5714 14.4458C15.6311 14.3492 15.7187 14.273 15.8226 14.2272C16.5297 13.9224 17.11 13.3831 17.4657 12.7001C17.8214 12.0172 17.9306 11.2325 17.775 10.4784C17.6194 9.72429 17.2085 9.04693 16.6115 8.56057C16.0146 8.07422 15.2681 7.80864 14.4981 7.80864C13.7281 7.80864 12.9817 8.07422 12.3848 8.56057C11.7878 9.04693 11.3769 9.72429 11.2213 10.4784C11.0656 11.2325 11.1749 12.0172 11.5306 12.7001C11.8863 13.3831 12.4666 13.9224 13.1737 14.2272C13.279 14.2716 13.3681 14.3474 13.429 14.4441C13.4898 14.5409 13.5194 14.654 13.5139 14.7681C13.5088 14.8819 13.4685 14.9913 13.3986 15.0812C13.3287 15.1711 13.2326 15.2371 13.1235 15.27C10.5695 16.0842 9.09726 18.1754 8.94112 21.1923Z" fill="black"/>
<path d="M20.0605 21.1922H8.94092C9.09706 18.1753 10.5693 16.0841 13.1233 15.2699C13.2324 15.237 13.3285 15.171 13.3984 15.0811C13.4683 14.9912 13.5086 14.8818 13.5137 14.768C13.5192 14.6539 13.4896 14.5408 13.4288 14.444C13.3679 14.3473 13.2788 14.2716 13.1735 14.2271C12.4656 13.9223 11.8845 13.3826 11.5283 12.6991C11.1721 12.0156 11.0626 11.2302 11.2182 10.4753C11.3738 9.72044 11.7851 9.04236 12.3826 8.55548C12.98 8.0686 13.7272 7.80273 14.4979 7.80273C15.2687 7.80273 16.0158 8.0686 16.6133 8.55548C17.2108 9.04236 17.6221 9.72044 17.7777 10.4753C17.9333 11.2302 17.8238 12.0156 17.4676 12.6991C17.1113 13.3826 16.5303 13.9223 15.8224 14.2271C15.7185 14.2729 15.6309 14.3492 15.5712 14.4457C15.5115 14.5423 15.4824 14.6546 15.4878 14.768C15.4928 14.8818 15.5331 14.9912 15.6031 15.0811C15.673 15.171 15.7691 15.237 15.8781 15.2699C18.4322 16.0897 19.9044 18.1809 20.0605 21.1922Z" fill="#AAC191"/>
<path d="M9.62736 6.87725C9.75671 6.91495 9.86804 6.9982 9.94076 7.11163C10.0135 7.22505 10.0427 7.36096 10.023 7.49424C10.0032 7.62753 9.93594 7.74916 9.83349 7.83667C9.73104 7.92417 9.60037 7.97162 9.46564 7.97025C9.41274 7.97109 9.36005 7.96356 9.3095 7.94794C9.00038 7.85411 8.67895 7.80712 8.35591 7.80853C7.58566 7.80787 6.83877 8.07298 6.2413 8.55911C5.64384 9.04525 5.2324 9.72263 5.07643 10.4769C4.92046 11.2312 5.02951 12.0162 5.38518 12.6995C5.74084 13.3827 6.32135 13.9223 7.0287 14.2271C7.13329 14.272 7.22153 14.348 7.2814 14.4448C7.34127 14.5415 7.36986 14.6544 7.36329 14.7681C7.35942 14.8814 7.32025 14.9906 7.25127 15.0806C7.18229 15.1706 7.08693 15.2368 6.97851 15.2699C4.42445 16.0897 2.95224 18.1809 2.79052 21.1922H6.1253C6.27319 21.1922 6.41504 21.251 6.51962 21.3556C6.6242 21.4601 6.68295 21.602 6.68295 21.7499C6.68295 21.8978 6.6242 22.0396 6.51962 22.1442C6.41504 22.2488 6.27319 22.3075 6.1253 22.3075H2.22172C2.07382 22.3075 1.93198 22.2488 1.8274 22.1442C1.72282 22.0396 1.66406 21.8978 1.66406 21.7499C1.66406 18.4151 3.06935 15.8889 5.57322 14.6398C4.76449 13.9939 4.2055 13.0869 3.99199 12.0742C3.77848 11.0615 3.92372 10.006 4.40286 9.0886C4.88199 8.17119 5.6652 7.44892 6.61833 7.04549C7.57146 6.64206 8.6352 6.58259 9.62736 6.87725Z" fill="black"/>
</svg>
