<svg width="33" height="29" viewBox="0 0 33 29" fill="none" xmlns="http://www.w3.org/2000/svg">
<path d="M13.857 2.40646C11.7566 3.64956 9.94192 4.74977 9.82761 4.8355C9.64186 4.99267 9.61328 5.74996 9.61328 9.75074V14.4802L10.4706 14.966C10.9564 15.2232 11.4279 15.3947 11.5422 15.3518C11.9423 15.2089 11.7566 14.8374 11.0421 14.3945L10.3277 13.9516V9.89363C10.3277 7.66462 10.3563 5.8357 10.3849 5.8357C10.4134 5.8357 11.9995 6.76445 13.9141 7.89324L17.4005 9.93649L17.472 11.2082C17.5291 12.3084 17.5863 12.4798 17.8149 12.5227C18.2007 12.6084 18.2864 12.3655 18.315 11.0796C18.3293 10.4366 18.3721 9.89363 18.4007 9.86505C18.4293 9.82219 19.9582 8.92201 21.7871 7.85037L25.1163 5.89285L25.2163 6.46439C25.2592 6.79303 25.3163 8.59338 25.3163 10.4937L25.3306 13.9373L24.6162 14.3802C23.8589 14.8517 23.7732 14.9803 24.1018 15.2661C24.2733 15.3947 24.4876 15.3375 25.1735 14.9518L26.0451 14.4802V9.73645V4.97839L25.5164 4.63546C24.6019 4.03535 17.872 0.120297 17.772 0.134585C17.7291 0.134585 15.9574 1.14907 13.857 2.40646ZM21.9443 3.40665C23.4874 4.30683 24.7591 5.07841 24.7591 5.12127C24.7591 5.22129 18.0006 9.02203 17.8149 9.02203C17.6291 9.02203 10.8992 5.22129 10.8992 5.12127C10.8992 5.07841 12.4567 4.13537 14.3571 3.02086L17.8149 0.991897L18.4864 1.37769C18.8436 1.59201 20.4011 2.50648 21.9443 3.40665Z" fill="black"/>
<path d="M30.2468 1.32079C30.2039 1.53512 30.0468 1.69229 29.861 1.72087C29.3895 1.79231 29.3609 2.37814 29.8039 2.49245C30.0325 2.53531 30.2039 2.70677 30.2468 2.93539C30.3754 3.39262 30.9469 3.34976 31.0184 2.87824C31.047 2.6782 31.1756 2.5496 31.3756 2.52102C31.6042 2.49245 31.69 2.37814 31.69 2.12095C31.69 1.86375 31.6042 1.74944 31.3756 1.72087C31.1756 1.69229 31.047 1.56369 31.0184 1.36366C30.9469 0.892135 30.3754 0.84927 30.2468 1.32079Z" fill="black"/>
<path d="M7.2138 6.22143C6.11359 7.60741 5.08481 10.065 4.67045 12.2083C4.21322 14.6945 4.57043 18.2095 5.51347 20.4385C5.64207 20.7385 5.71351 20.9814 5.67064 20.9814C5.62778 20.9814 5.19912 20.7528 4.7276 20.4671C3.82743 19.9527 3.47021 19.9241 3.47021 20.3813C3.47021 20.7957 6.69941 22.6389 6.98518 22.396C7.28524 22.1531 7.27095 18.6667 6.9709 18.4095C6.58511 18.0809 6.32791 18.481 6.31363 19.4669V20.3385L5.95641 19.3383C4.57043 15.4089 5.19912 10.6509 7.55672 7.10732C8.0854 6.29287 8.18542 6.07854 8.04253 5.90708C7.78534 5.59274 7.68532 5.6356 7.2138 6.22143Z" fill="black"/>
<path d="M28.6469 5.86461C28.5326 5.97892 28.4755 6.6219 28.4755 7.83642C28.4755 9.75108 28.5755 10.094 29.0756 9.82252C29.2756 9.70822 29.3328 9.50818 29.3328 8.86519C29.3471 7.80785 29.5185 8.07933 30.0044 9.95112C30.2901 11.0656 30.3616 11.7086 30.3759 13.1946C30.4044 16.2809 29.6614 18.7814 27.9325 21.3676C27.4467 22.0963 27.4324 22.1535 27.6753 22.3821C27.9039 22.6107 27.9468 22.5964 28.2612 22.2249C28.7755 21.6534 29.69 20.0245 30.1044 18.9814C30.7474 17.3811 31.076 15.8523 31.1474 14.1091C31.2475 12.0658 31.0331 10.5227 30.4187 8.65087C30.1615 7.89358 29.9758 7.26488 30.0044 7.26488C30.0472 7.26488 30.4473 7.4935 30.9188 7.76498C31.7761 8.26508 32.1905 8.29365 32.1905 7.83642C32.1905 7.65067 31.7047 7.29346 30.5902 6.66477C29.7043 6.17896 28.947 5.7503 28.9041 5.72172C28.8613 5.70744 28.747 5.76459 28.6469 5.86461Z" fill="black"/>
<path d="M16.5566 13.723C16.428 13.8945 16.328 14.2517 16.328 14.5089C16.328 14.8661 16.2708 14.9804 16.085 14.9804C15.9422 14.9804 15.5135 15.1376 15.1277 15.3376L14.4276 15.6806L13.9989 15.3234C13.4131 14.8233 13.0845 14.8947 12.3129 15.6806C11.527 16.4664 11.4556 16.7808 11.97 17.3809L12.3272 17.8096L11.97 18.5668C11.7699 18.9955 11.6128 19.4242 11.6128 19.5099C11.6128 19.6242 11.427 19.6956 11.1412 19.6956C10.884 19.6956 10.5268 19.7957 10.3554 19.9242C10.0839 20.11 10.041 20.2672 10.041 21.1102C10.041 22.2104 10.2268 22.4962 11.0126 22.5819C11.4556 22.6248 11.527 22.6962 11.8985 23.6107L12.3129 24.5966L11.97 25.011C11.7699 25.2396 11.6128 25.4968 11.6128 25.5682C11.6128 26.1255 12.7701 27.2685 13.3417 27.2685C13.5417 27.2685 13.8846 27.1399 14.0989 26.9685L14.4847 26.6684L15.0849 26.9542C15.4135 27.1114 15.8279 27.2828 16.0136 27.3257C16.2422 27.4114 16.328 27.54 16.328 27.8544C16.328 28.1116 16.4565 28.4116 16.6852 28.6259C16.9709 28.926 17.171 28.9832 17.8282 28.9832C18.4855 28.9832 18.6856 28.926 18.9713 28.6259C19.1857 28.4259 19.3285 28.1116 19.3285 27.8829C19.3285 27.5114 19.4286 27.4257 20.2573 27.0685L21.2003 26.6541L21.529 26.9685C22.0862 27.4829 22.6292 27.3686 23.3865 26.5541C23.7437 26.1683 24.0437 25.754 24.0437 25.6396C24.0437 25.5253 23.8723 25.2253 23.6722 24.9824C23.3007 24.5537 23.3007 24.5251 23.5294 24.0822C23.6437 23.825 23.8437 23.3821 23.958 23.0963C24.1295 22.6391 24.2295 22.5676 24.601 22.5819C25.344 22.6105 25.6155 22.2247 25.6155 21.1673C25.6155 20.0814 25.3297 19.6956 24.5438 19.6956C24.2438 19.6956 24.0437 19.6242 24.0437 19.5099C24.0437 19.4242 23.8866 18.9955 23.6865 18.5811L23.3436 17.8381L23.7008 17.3095C24.1438 16.6665 24.058 16.3807 23.2579 15.5805C22.5292 14.8804 22.1434 14.8233 21.6147 15.3376L21.2289 15.7091L20.4573 15.3376C20.0287 15.1519 19.6143 14.9804 19.5286 14.9804C19.4428 14.9804 19.3285 14.7089 19.2857 14.3803C19.1714 13.5802 18.8999 13.4087 17.7425 13.4087C16.8995 13.4087 16.7423 13.4516 16.5566 13.723ZM18.4998 14.7947C18.5427 15.4091 18.5855 15.4948 18.9713 15.6091C19.2142 15.6806 19.8286 15.9378 20.3716 16.1664L21.3432 16.595L21.729 16.2235C22.2291 15.7377 22.3291 15.7377 22.8292 16.2664L23.2436 16.695L22.7721 17.1809L22.2863 17.681L22.6149 18.1953C22.8006 18.4811 23.0578 19.0812 23.1864 19.5242L23.4436 20.3386L24.1295 20.4101L24.8296 20.4815V21.1245V21.7675L24.158 21.8103C23.5008 21.8532 23.4722 21.8675 23.315 22.4533C23.2293 22.7819 22.9721 23.4106 22.7435 23.8679L22.3291 24.6823L22.7864 25.1967L23.2293 25.7111L22.7864 26.1683L22.3291 26.6113L21.8433 26.1397L21.3432 25.6539L20.5145 26.0826C20.0573 26.3255 19.5 26.5684 19.2571 26.6256C18.6284 26.7684 18.4712 26.9542 18.4712 27.5686V28.1258H17.8282H17.1853V27.5686C17.1853 26.9542 17.0281 26.7684 16.3994 26.6256C16.1565 26.5684 15.5992 26.3255 15.142 26.0826L14.3133 25.6539L13.8275 26.1255L13.3274 26.6113L12.8987 26.1969C12.3843 25.6968 12.37 25.5539 12.8273 25.1253C13.2559 24.7252 13.2702 24.5109 12.913 23.925C12.7558 23.6821 12.5558 23.1963 12.4558 22.8391C12.1986 21.9389 12.0986 21.8389 11.3698 21.8389H10.7412L10.784 21.1531L10.8269 20.4815L11.4984 20.4386C12.1557 20.3958 12.1843 20.3815 12.3415 19.7957C12.4272 19.467 12.6558 18.8955 12.8416 18.524C13.2702 17.6667 13.2702 17.5809 12.7987 17.0951L12.4129 16.695L12.8701 16.2378L13.3274 15.7806L13.7274 16.1664C14.2133 16.6379 14.299 16.6379 15.1563 16.2092C15.5278 16.0235 16.085 15.7949 16.3994 15.6949C17.0852 15.4662 17.1853 15.3519 17.1853 14.6518V14.1231H17.814H18.4569L18.4998 14.7947Z" fill="black"/>
<path d="M16.6004 17.7523C14.0285 18.6668 13.3712 22.0389 15.4145 23.8392C16.1575 24.4822 16.829 24.7394 17.8292 24.7394C18.9151 24.7537 19.8439 24.325 20.544 23.5106C22.2015 21.5816 21.4013 18.5953 19.0295 17.7666C18.3007 17.5094 17.2863 17.4951 16.6004 17.7523ZM18.5436 18.4239C19.9296 18.7954 20.6869 19.8956 20.5869 21.353C20.5155 22.439 20.0439 23.1391 19.0295 23.6678C17.7721 24.325 16.3718 23.925 15.4145 22.6533C14.9715 22.0675 14.9287 20.6243 15.3144 19.867C15.6574 19.1955 16.3289 18.6382 17.0434 18.4382C17.7149 18.2381 17.8721 18.2381 18.5436 18.4239Z" fill="black"/>
<path d="M1.35497 17.5813C1.25495 17.6813 1.18351 17.867 1.18351 17.9956C1.18351 18.1528 1.05491 18.2671 0.869163 18.2957C0.654835 18.3243 0.540527 18.4386 0.540527 18.6243C0.540527 18.8101 0.654835 18.9244 0.869163 18.953C1.05491 18.9815 1.18351 19.0958 1.18351 19.253C1.18351 19.3959 1.28353 19.5959 1.39784 19.696C1.66932 19.9103 2.04082 19.6531 2.04082 19.253C2.04082 19.0958 2.16942 18.9815 2.36945 18.953C2.56949 18.9244 2.69809 18.7958 2.72667 18.5815C2.76953 18.3243 2.71238 18.2671 2.41232 18.2671C2.15513 18.2671 2.04082 18.1957 2.04082 18.0099C2.04082 17.767 1.78363 17.4098 1.61216 17.4098C1.5693 17.4098 1.45499 17.4812 1.35497 17.5813Z" fill="black"/>
</svg>
