<svg width="49" height="77" viewBox="0 0 49 77" fill="none" xmlns="http://www.w3.org/2000/svg">
<path d="M18.6511 56.2795L14.7986 58.5897L13.2562 63.21L16.3342 64.7524L13.2562 67.0625L19.4189 75.5422H23.2782L18.6511 56.2795Z" fill="#AAC191"/>
<path d="M29.4341 56.2795L33.2867 58.5897L34.829 63.21L31.7511 64.7524L34.829 67.0625L28.6663 75.5422H24.807L29.4341 56.2795Z" fill="#AAC191"/>
<path d="M46.6313 68.0953C45.9586 64.2836 43.1049 61.192 39.361 60.2204L33.4973 58.6169L33.0896 60.1049L38.967 61.7152C42.1332 62.5373 44.5453 65.1465 45.1161 68.3671L46.244 74.7744H25.7923L30.1883 56.463H30.1748C35.1892 54.1324 38.6816 49.0637 38.6816 43.1864C38.6816 35.1076 32.118 28.5372 24.0392 28.5372C15.9605 28.5372 9.40371 35.1076 9.40371 43.1796C9.40371 49.0637 12.8961 54.1324 17.9105 56.4562H17.8969L22.293 74.7744H1.84133L2.96923 68.3671C3.53998 65.1465 5.95206 62.5373 9.12513 61.7084L14.9889 60.1049L14.5812 58.6169L8.72425 60.2204C4.97364 61.192 2.11991 64.2836 1.44725 68.0953L0 76.31H48.0717L46.6245 68.0953H46.6313ZM24.8138 55.702V50.0013C26.2339 50.0829 27.6268 50.4022 28.9313 50.9254C27.6336 53.4462 25.9213 54.941 24.8138 55.6952V55.702ZM24.8138 48.4522V43.9474H30.6368C30.5553 46.1216 30.1612 47.9697 29.5768 49.4985C28.0752 48.887 26.4649 48.5405 24.8138 48.4522ZM31.1939 40.3938C30.8542 40.3938 30.5756 40.1152 30.5756 39.7755C30.5756 39.4357 30.8542 39.1572 31.1939 39.1572C31.5337 39.1572 31.8123 39.4357 31.8123 39.7755C31.8123 40.1152 31.5337 40.3938 31.1939 40.3938ZM30.6232 41.8478C30.6368 42.0313 30.6436 42.2147 30.6504 42.405H24.8138V37.9002C26.4581 37.8118 28.0616 37.4721 29.5632 36.8606C29.7059 37.2275 29.835 37.6148 29.9573 38.0157C29.407 38.4098 29.0401 39.0485 29.0401 39.7755C29.0401 40.7675 29.7127 41.5896 30.6232 41.8478ZM19.2423 32.8382C19.2423 32.4985 19.5208 32.2199 19.8606 32.2199C20.2003 32.2199 20.4789 32.4985 20.4789 32.8382C20.4789 33.1779 20.2003 33.4565 19.8606 33.4565C19.5208 33.4565 19.2423 33.1779 19.2423 32.8382ZM24.8138 36.3578V30.6707C25.9213 31.4453 27.6472 32.9469 28.9381 35.4473C27.6336 35.9705 26.2475 36.2763 24.8138 36.3578ZM26.9949 30.4261C29.0808 30.9085 30.9765 31.887 32.5529 33.2391C31.8598 33.8302 31.1192 34.3534 30.331 34.7815C29.3322 32.8178 28.0888 31.4045 26.9949 30.4261ZM20.6623 30.8406C20.4721 30.7659 20.2683 30.7251 20.0576 30.7047C20.4041 30.596 20.7507 30.5077 21.1108 30.4261C20.9613 30.5552 20.8118 30.6979 20.6623 30.8474V30.8406ZM18.128 34.1156C17.9989 34.333 17.8766 34.5572 17.761 34.7815C16.9729 34.3466 16.2323 33.8302 15.5392 33.2323C16.3478 32.5392 17.2515 31.9413 18.2163 31.4589C17.9037 31.8326 17.7067 32.3082 17.7067 32.8314C17.7067 33.3138 17.8698 33.7487 18.1348 34.1088L18.128 34.1156ZM19.4257 34.9513C19.5684 34.9785 19.7111 34.9921 19.8606 34.9921C21.0496 34.9921 22.0213 34.0273 22.0213 32.8314C22.0213 32.4917 21.9329 32.1723 21.7902 31.8802C22.3338 31.357 22.8502 30.9493 23.2715 30.6571V36.351C21.8446 36.2695 20.4517 35.9705 19.1471 35.4405C19.2355 35.2707 19.3306 35.1076 19.4257 34.9445V34.9513ZM23.2715 37.9002V42.405H17.4417C17.5164 40.3938 17.8766 38.5389 18.5288 36.8606C20.0304 37.4721 21.6272 37.8118 23.2783 37.9002H23.2715ZM23.2715 43.9474V48.4522C23.2171 48.4522 23.1627 48.4522 23.1084 48.459C22.7415 47.7931 22.0416 47.3379 21.2263 47.3379C20.112 47.3379 19.2015 48.194 19.0928 49.2811C18.9025 49.349 18.7123 49.4238 18.5288 49.4985C17.9377 47.9697 17.53 46.1216 17.4485 43.9474H23.2715ZM21.8446 49.4985C21.8446 49.8383 21.566 50.1168 21.2263 50.1168C20.8866 50.1168 20.608 49.8383 20.608 49.4985C20.608 49.1588 20.8866 48.8802 21.2263 48.8802C21.566 48.8802 21.8446 49.1588 21.8446 49.4985ZM19.5073 50.7895C19.9013 51.3127 20.5197 51.6592 21.2263 51.6592C22.1843 51.6592 22.9861 51.0273 23.2715 50.1644V55.6952C22.1707 54.9274 20.4653 53.419 19.1743 50.9254C19.2898 50.8778 19.3985 50.8371 19.5141 50.7963L19.5073 50.7895ZM21.07 55.9262C18.9977 55.4438 17.1088 54.4722 15.5392 53.1268C16.2255 52.5425 16.9593 52.0261 17.7475 51.5913C18.7395 53.5413 19.9761 54.9478 21.07 55.9194V55.9262ZM30.3378 51.5913C31.1192 52.0193 31.8598 52.5289 32.5461 53.12C30.9765 54.4654 29.0944 55.437 27.0153 55.9194C28.1092 54.9478 29.339 53.5345 30.3378 51.5913ZM33.6604 52.0465C32.8314 51.3195 31.9346 50.6876 30.9765 50.1712C31.6492 48.459 32.1112 46.4002 32.1928 43.9541H37.1052C36.9218 47.0729 35.6512 49.8926 33.6604 52.0465ZM37.1052 42.405H32.1928C32.186 42.1672 32.1724 41.9294 32.1588 41.6983C32.8654 41.345 33.3546 40.618 33.3546 39.7755C33.3546 38.6748 32.5189 37.7711 31.4521 37.642C31.3027 37.1324 31.1396 36.65 30.9629 36.1947C31.9278 35.6783 32.8246 35.0397 33.6672 34.3058C35.658 36.4665 36.9286 39.2863 37.112 42.405H37.1052ZM14.4249 34.3126C15.2606 35.0464 16.1643 35.6783 17.1224 36.2015C16.3817 38.0836 15.9673 40.1628 15.8925 42.4118H10.9801C11.1635 39.2931 12.4341 36.4733 14.4249 34.3194V34.3126ZM10.9801 43.9474H15.8925C15.9741 46.3934 16.4429 48.4522 17.1088 50.1712C16.1507 50.6876 15.2403 51.3127 14.4181 52.0329C12.4341 49.879 11.1635 47.0593 10.9801 43.9474ZM19.6499 57.1424C21.036 57.5773 22.5105 57.8151 24.046 57.8151C25.5816 57.8151 27.0492 57.5773 28.4421 57.1424L24.2091 74.7676H23.883L19.6499 57.1424Z" fill="black"/>
<path d="M31.9346 12.9097H44.8443V44.8442H36.7323H41.9844" stroke="black" stroke-miterlimit="10"/>
<path d="M13.5892 13.5892H6.11511V45.5238H10.8067" stroke="black" stroke-miterlimit="10"/>
<path d="M25.4217 0.388184H22.0524C21.8675 0.388184 21.6966 0.48683 21.6042 0.646962L19.4278 4.41649C19.3354 4.57662 19.3354 4.77392 19.4278 4.93405L20.5691 9.73869C20.6615 9.89882 20.8324 9.99747 21.0173 9.99747L25.4217 8.96235C25.6067 8.96235 25.7775 8.86371 25.8699 8.70358L28.0463 4.93405C28.1387 4.77392 28.1387 4.57662 28.0463 4.41649L25.8699 0.646962C25.7775 0.48683 25.6067 0.388184 25.4217 0.388184Z" fill="#E9A772"/>
<path d="M32.8495 4.67529H29.4802C29.2953 4.67529 29.1244 4.77394 29.032 4.93407L25.8205 8.7036C25.7281 8.86373 25.7281 9.06102 25.8205 9.22116L28.5144 13.5083C28.6069 13.6684 28.7778 13.7671 28.9626 13.7671L32.8495 13.2495C33.0345 13.2495 33.2053 13.1509 33.2978 12.9907L35.4741 9.22121C35.5665 9.06108 35.5665 8.86378 35.4741 8.70365L33.2978 4.93412C33.2053 4.77394 33.0345 4.67529 32.8495 4.67529Z" fill="#E9A772"/>
<path d="M36.4576 8.7036L34.2813 4.93407C34.1888 4.77394 34.0179 4.67529 33.8331 4.67529H32.2804C32.4653 4.67529 32.6362 4.77394 32.7286 4.93407L34.9049 8.7036C34.9974 8.86373 34.9974 9.06103 34.9049 9.22116L32.7286 12.9907C32.6362 13.1508 32.4653 13.2495 32.2804 13.2495L33.3286 13.767L33.8331 13.2495C34.018 13.2495 34.1888 13.1508 34.2813 12.9907L36.4576 9.22116C36.55 9.06103 36.55 8.86373 36.4576 8.7036Z" fill="#E9A772"/>
<path d="M32.8495 13.2495H29.4802C29.2953 13.2495 29.1244 13.3482 29.032 13.5083L25.303 17.2778C25.2105 17.438 25.2105 17.6352 25.303 17.7954L29.032 21.5649C29.1244 21.725 29.2953 21.8237 29.4802 21.8237H32.8495C33.0345 21.8237 33.2053 21.725 33.2977 21.5649L35.4741 17.7954C35.5665 17.6352 35.5665 17.438 35.4741 17.2778L33.2977 13.5083C33.2053 13.3482 33.0345 13.2495 32.8495 13.2495Z" fill="#E9A772"/>
<path d="M25.4217 17.5366L21.5348 17.019C21.3499 17.019 21.1791 17.1177 21.0866 17.2778L19.4278 21.5649C19.3354 21.725 19.3354 21.9223 19.4278 22.0825L21.6042 25.852C21.6966 26.0121 21.8675 26.1108 22.0524 26.1108H25.4217C25.6067 26.1108 25.7775 26.0121 25.8699 25.852L28.0463 22.0825C28.1387 21.9223 28.1387 21.725 28.0463 21.5649L25.8699 17.7954C25.7775 17.6352 25.6067 17.5366 25.4217 17.5366Z" fill="#E9A772"/>
<path d="M18.0018 12.7319L14.6325 13.2495C14.4475 13.2495 14.2767 13.3481 14.1843 13.5083L12.0079 17.2778C11.9155 17.4379 11.9155 17.6352 12.0079 17.7954L14.1843 21.5649C14.2767 21.725 14.4476 21.8237 14.6325 21.8237H18.0018C18.1867 21.8237 18.3576 21.725 18.45 21.5649L20.6263 17.7954C20.7188 17.6352 20.7188 17.4379 20.6263 17.2778L18.4501 13.5083C18.3576 13.3481 18.1867 12.7319 18.0018 12.7319Z" fill="#E9A772"/>
<path d="M18.0019 4.67529H14.6326C14.4477 4.67529 14.2768 4.77394 14.1844 4.93407L12.008 8.7036C11.9156 8.86373 11.9156 9.06102 12.008 9.22116L14.1843 12.9907C14.2768 13.1509 14.4477 13.2495 14.6325 13.2495H18.0019C18.1868 13.2495 18.3577 13.1509 18.4501 12.9907L20.6264 9.22121C20.7189 9.06108 20.7189 8.86378 20.6264 8.70365L18.4501 4.93412C18.3577 4.77394 18.1868 4.67529 18.0019 4.67529Z" fill="#E9A772"/>
<path d="M21.6098 17.2778L19.4335 13.5083C19.3411 13.3481 19.1702 12.7319 18.9853 12.7319L17.7747 12.9115C17.8055 12.9115 17.4935 13.2532 17.5232 13.2585V17.6301C17.5232 18.0588 17.8708 18.4064 18.2996 18.4064H19.2562C19.4554 18.4064 19.5799 18.6221 19.4803 18.7946L17.8808 21.5649C17.7884 21.7251 17.6175 21.8237 17.4326 21.8237H18.9853C19.1702 21.8237 19.3411 21.7251 19.4335 21.5649L21.6098 17.7954C21.7023 17.6352 21.7023 17.4379 21.6098 17.2778Z" fill="#E9A772"/>
<path d="M21.6098 8.7036L19.4335 4.93407C19.3411 4.77394 19.1702 4.67529 18.9853 4.67529H17.4326C17.6175 4.67529 17.7884 4.77394 17.8808 4.93407L19.4803 7.7044C19.5799 7.8769 19.4554 8.09257 19.2562 8.09257H18.2996C17.8708 8.09257 17.5232 8.44016 17.5232 8.86891V13.2405C17.4935 13.2458 17.4634 13.2495 17.4326 13.2495H18.9853C19.1702 13.2495 19.3411 13.1509 19.4335 12.9907L21.6098 9.22121C21.7023 9.06102 21.7023 8.86373 21.6098 8.7036Z" fill="#E9A772"/>
<path d="M29.0297 4.41649L26.8534 0.646962C26.761 0.48683 26.5901 0.388184 26.4052 0.388184H24.8525C25.0375 0.388184 25.2083 0.48683 25.3007 0.646962L27.4771 4.41649C27.5695 4.57662 27.5695 4.77392 27.4771 4.93405L25.3007 8.70358C25.2083 8.86371 25.0374 8.96235 24.8525 8.96235H26.4052C26.5901 8.96235 26.761 8.86371 26.8534 8.70358L29.0297 4.93405C29.1222 4.77392 29.1222 4.57662 29.0297 4.41649Z" fill="#E9A772"/>
<path d="M29.0297 21.5649L26.8534 17.7954C26.761 17.6353 26.5901 17.5366 26.4052 17.5366H24.8525C25.0375 17.5366 25.2083 17.6353 25.3007 17.7954L27.4771 21.5649C27.5695 21.7251 27.5695 21.9224 27.4771 22.0825L25.3007 25.852C25.2083 26.0121 25.0374 26.1108 24.8525 26.1108H26.4052C26.5901 26.1108 26.761 26.0121 26.8534 25.852L29.0297 22.0825C29.1222 21.9224 29.1222 21.7251 29.0297 21.5649Z" fill="#E9A772"/>
<path d="M36.4576 17.2778L34.2813 13.5083C34.1888 13.3482 34.0179 13.2495 33.8331 13.2495H32.2804C32.4653 13.2495 32.6362 13.3482 32.7286 13.5083L34.9049 17.2778C34.9974 17.438 34.9974 17.6352 34.9049 17.7954L32.7286 21.5649C32.6362 21.725 32.4653 21.8237 32.2804 21.8237H33.8331C34.018 21.8237 34.1888 21.725 34.2813 21.5649L36.4576 17.7954C36.55 17.6352 36.55 17.438 36.4576 17.2778Z" fill="#E9A772"/>
<path d="M28.0957 18.4064H19.8521C19.4234 18.4064 19.0758 18.0588 19.0758 17.6301V8.86899C19.0758 8.44024 19.4234 8.09265 19.8521 8.09265H28.0957C28.5245 8.09265 28.8721 8.44024 28.8721 8.86899V17.6302C28.872 18.0589 28.5245 18.4064 28.0957 18.4064Z" fill="#E9A772"/>
<path d="M28.6133 8.09265H27.1642C27.5929 8.09265 27.9405 8.44024 27.9405 8.86899V17.6302C27.9405 18.0589 27.5929 18.4065 27.1642 18.4065H28.6133C29.0421 18.4065 29.3897 18.0589 29.3897 17.6302V8.86899C29.3897 8.44019 29.0421 8.09265 28.6133 8.09265Z" fill="#E9A772"/>
<path d="M34.6173 13.3142C34.6044 13.2918 34.5903 13.2704 34.5757 13.2495C34.5904 13.2285 34.6044 13.2071 34.6173 13.1848L36.7938 9.4152C36.955 9.13588 36.9549 8.78885 36.7937 8.50953L34.6173 4.73995C34.4561 4.46062 34.1555 4.28709 33.833 4.28709H29.4803C29.4537 4.28709 29.4274 4.28869 29.4011 4.29102C29.3903 4.26778 29.3788 4.2448 29.3658 4.22239L27.1894 0.452759C27.0281 0.173485 26.7276 0 26.4051 0H22.0524C21.7299 0 21.4294 0.173485 21.268 0.452863L20.715 1.41081C20.6078 1.59646 20.6714 1.83386 20.857 1.94105C21.0427 2.04813 21.2801 1.98463 21.3873 1.79898L21.9402 0.841135C21.9633 0.801128 22.0063 0.776336 22.0523 0.776336H26.4051C26.4512 0.776336 26.4941 0.801127 26.5171 0.841031L28.6934 4.61051C28.7164 4.65041 28.7165 4.70004 28.6935 4.73995C28.6867 4.75164 28.6806 4.7636 28.6752 4.77566L26.9843 7.70436H21.4755L19.7943 4.79243C19.7873 4.77462 19.7793 4.75703 19.7695 4.73995C19.7643 4.73099 19.7586 4.72251 19.7532 4.71381C19.7425 4.6797 19.7457 4.64213 19.7639 4.61056L20.5457 3.25642C20.6529 3.07077 20.5893 2.83337 20.4036 2.72618C20.2179 2.619 19.9805 2.68255 19.8734 2.86825L19.0916 4.22244C19.0788 4.24459 19.0674 4.26731 19.0566 4.29024C19.0329 4.28833 19.0091 4.28709 18.9851 4.28709H14.6325C14.3099 4.28709 14.0094 4.46062 13.8481 4.73995L11.6717 8.50953C11.5105 8.7888 11.5105 9.13588 11.6717 9.41525L13.8481 13.1848C13.861 13.2071 13.8751 13.2285 13.8897 13.2495C13.8751 13.2704 13.861 13.2918 13.8481 13.3142L11.6717 17.0838C11.5105 17.3631 11.5105 17.7101 11.6717 17.9894L13.8481 21.759C14.0094 22.0384 14.3099 22.2119 14.6325 22.2119H15.7398C15.9543 22.2119 16.128 22.0381 16.128 21.8237C16.128 21.6093 15.9543 21.4355 15.7398 21.4355H14.6325C14.5863 21.4355 14.5434 21.4108 14.5204 21.3708L12.344 17.6013C12.321 17.5614 12.321 17.5117 12.344 17.4719L14.5204 13.7023C14.5434 13.6624 14.5863 13.6376 14.6325 13.6376H18.6876V17.6301C18.6876 18.2722 19.2101 18.7946 19.8521 18.7946H20.5846L19.1248 21.323C19.1129 21.338 19.1016 21.3538 19.0917 21.3709C19.0873 21.3785 19.0834 21.3864 19.0793 21.3942C19.0551 21.42 19.0213 21.4356 18.9852 21.4356H17.4325C17.2181 21.4356 17.0443 21.6093 17.0443 21.8237C17.0443 22.0382 17.2181 22.2119 17.4325 22.2119H18.9852C19.0092 22.2119 19.033 22.2107 19.0568 22.2088C19.0675 22.2317 19.0789 22.2545 19.0917 22.2766L21.2681 26.0462C21.4294 26.3255 21.73 26.499 22.0524 26.499H26.4052C26.7276 26.499 27.0282 26.3255 27.1896 26.0461L29.3659 22.2766C29.3789 22.2541 29.3904 22.2312 29.4012 22.208C29.4274 22.2103 29.4538 22.2119 29.4803 22.2119H33.833C34.1556 22.2119 34.4561 22.0384 34.6174 21.7591L36.7938 17.9895C36.955 17.7102 36.955 17.3631 36.7938 17.0838L34.6173 13.3142ZM14.6325 12.8613C14.5863 12.8613 14.5434 12.8365 14.5204 12.7966L12.3441 9.02714C12.321 8.98723 12.321 8.9376 12.344 8.8977L14.5204 5.12812C14.5434 5.08821 14.5863 5.06342 14.6325 5.06342H18.9852C19.0213 5.06342 19.0551 5.079 19.0793 5.10483C19.0835 5.11259 19.0873 5.12046 19.0917 5.12812L20.5791 7.70436H19.8521C19.21 7.70436 18.6876 8.22679 18.6876 8.86887V12.8613H14.6325ZM19.4639 17.6301V8.86887C19.4639 8.65481 19.638 8.4807 19.8521 8.4807H21.251C21.2512 8.4807 21.2515 8.48075 21.2518 8.48075C21.252 8.48075 21.2523 8.4807 21.2525 8.4807H28.6132C28.8273 8.4807 29.0014 8.65481 29.0014 8.86887V10.0775C29.0014 10.2919 29.1752 10.4657 29.3896 10.4657C29.604 10.4657 29.7778 10.2919 29.7778 10.0775V8.86887C29.7778 8.22679 29.2553 7.70436 28.6132 7.70436H27.8808L29.3682 5.12812C29.3912 5.08821 29.4341 5.06342 29.4802 5.06342H33.8329C33.879 5.06342 33.9219 5.08821 33.945 5.12812L36.1214 8.8977C36.1444 8.93755 36.1443 8.98718 36.1214 9.02709L33.945 12.7966C33.9219 12.8365 33.879 12.8613 33.8329 12.8613H29.7778V11.7637C29.7778 11.5493 29.6041 11.3756 29.3896 11.3756C29.1753 11.3756 29.0015 11.5493 29.0015 11.7637V17.6301C29.0015 17.8441 28.8274 18.0183 28.6133 18.0183H19.8521C19.6381 18.0183 19.4639 17.8441 19.4639 17.6301ZM28.6935 21.8884L26.5172 25.6578C26.4942 25.6978 26.4512 25.7226 26.4051 25.7226H22.0524C22.0063 25.7226 21.9634 25.6978 21.9403 25.6579L19.764 21.8884C19.7458 21.8568 19.7426 21.8193 19.7532 21.7851C19.7587 21.7764 19.7644 21.7679 19.7695 21.759L21.481 18.7946H26.982L28.6935 21.759C28.7166 21.7989 28.7165 21.8485 28.6935 21.8884ZM36.1214 17.6013L33.945 21.3708C33.9219 21.4108 33.879 21.4355 33.8329 21.4355H29.4802C29.4341 21.4355 29.3912 21.4108 29.3682 21.3708C29.3614 21.3591 29.3541 21.3479 29.3463 21.3371L27.8784 18.7945H28.6132C29.2553 18.7945 29.7777 18.2721 29.7777 17.63V13.6376H33.8329C33.879 13.6376 33.9219 13.6624 33.9449 13.7023L36.1212 17.4718C36.1443 17.5117 36.1444 17.5614 36.1214 17.6013Z" fill="black"/>
<path d="M23.8154 10.7692C23.8141 10.7657 23.8127 10.7622 23.8113 10.7587C23.7343 10.5714 23.5538 10.4504 23.3512 10.4504C23.351 10.4504 23.3509 10.4504 23.3507 10.4504C23.148 10.4506 22.9675 10.572 22.8907 10.7596C22.8895 10.7626 22.8883 10.7654 22.8873 10.7684L21.0767 15.5222C21.0003 15.7226 21.101 15.9469 21.3013 16.0232C21.3467 16.0405 21.3934 16.0487 21.4394 16.0487C21.5957 16.0487 21.7432 15.9535 21.8022 15.7986L22.1579 14.8646H24.5312L24.8832 15.7975C24.9589 15.998 25.1829 16.0993 25.3834 16.0236C25.584 15.9479 25.6852 15.7239 25.6095 15.5233L23.8154 10.7692ZM22.4536 14.0882L23.35 11.7347L24.2382 14.0882H22.4536Z" fill="black"/>
<path d="M27.026 10.4504C26.8116 10.4504 26.6378 10.6242 26.6378 10.8386V15.6604C26.6378 15.8748 26.8116 16.0485 27.026 16.0485C27.2404 16.0485 27.4142 15.8748 27.4142 15.6604V10.8386C27.4142 10.6242 27.2404 10.4504 27.026 10.4504Z" fill="black"/>
</svg>
