<svg width="20" height="21" viewBox="0 0 20 21" fill="none" xmlns="http://www.w3.org/2000/svg">
<g clip-path="url(#clip0_32_59)">
<path fill-rule="evenodd" clip-rule="evenodd" d="M14.1666 2.6418C14.1666 2.18157 14.5397 1.80847 14.9999 1.80847H18.3333C18.7935 1.80847 19.1666 2.18157 19.1666 2.6418V19.3085C19.1666 19.7687 18.7935 20.1418 18.3333 20.1418H14.9999C14.5397 20.1418 14.1666 19.7687 14.1666 19.3085V2.6418ZM15.8333 3.47514V18.4751H17.4999V3.47514H15.8333ZM7.49992 6.80847C7.49992 6.34823 7.87301 5.97514 8.33325 5.97514H11.6666C12.1268 5.97514 12.4999 6.34823 12.4999 6.80847V19.3085C12.4999 19.7687 12.1268 20.1418 11.6666 20.1418H8.33325C7.87301 20.1418 7.49992 19.7687 7.49992 19.3085V6.80847ZM9.16658 7.6418V18.4751H10.8333V7.6418H9.16658ZM0.833252 10.1418C0.833252 9.68157 1.20635 9.30847 1.66659 9.30847H4.99992C5.46016 9.30847 5.83325 9.68157 5.83325 10.1418V19.3085C5.83325 19.7687 5.46016 20.1418 4.99992 20.1418H1.66659C1.20635 20.1418 0.833252 19.7687 0.833252 19.3085V10.1418ZM2.49992 10.9751V18.4751H4.16658V10.9751H2.49992Z" fill="#AAC191"/>
</g>
<defs>
<clipPath id="clip0_32_59">
<rect width="20" height="20" fill="white" transform="translate(0 0.975098)"/>
</clipPath>
</defs>
</svg>
