<svg width="142" height="142" viewBox="0 0 142 142" fill="none" xmlns="http://www.w3.org/2000/svg">
<path fill-rule="evenodd" clip-rule="evenodd" d="M70.835 0C109.956 8.24653e-06 141.67 31.7139 141.67 70.835C141.67 70.9131 141.668 70.9912 141.668 71.0693H141.673V141.672H71.0703V141.668C70.9919 141.668 70.9134 141.67 70.835 141.67C31.7139 141.67 7.62939e-06 109.956 0 70.835C0 31.7139 31.7139 0 70.835 0Z" fill="#E7A572"/>
<path d="M29.9658 67.7275V50.6598H33.5785V64.6475H41.6144V67.7275H29.9658ZM43.5324 54.2957V51.2388H47.0988V54.2957H43.5324ZM43.5324 67.7275V55.6157H47.0988V67.7275H43.5324ZM50.3397 67.7275V55.6157H53.9061V57.5147L56.0135 55.6157H60.2515L62.2895 57.6768L64.5821 55.6157H68.8201L71.3907 58.2094V67.7275H67.8243V58.8347L66.9443 57.9315H65.1148L62.8221 60.0158V67.7275H59.2557V58.8347L58.3757 57.9315H56.5462L53.9061 60.3632V67.7275H50.3397ZM74.4706 54.2957V51.2388H78.037V54.2957H74.4706ZM74.4706 67.7275V55.6157H78.037V67.7275H74.4706ZM83.7558 67.7275L81.3474 65.458V58.0473H80.4442V55.6389H81.4863L82.5053 52.4198H84.9138V55.6389H86.9285V58.0473H84.9138V64.3927L85.7012 65.2033H87.4612V67.7275H83.7558ZM92.0062 67.7275L89.4356 65.157V58.2094L92.0062 55.6389H98.1663L100.76 58.2094V62.7485H93.002V64.138L93.9284 65.0643L100.552 65.0412V67.7275H92.0062ZM92.9789 60.4095H97.379V58.8347L96.4526 57.9084L93.9284 57.9315L92.9789 58.8347V60.4095ZM106.073 67.7275L103.503 65.157V58.2094L106.073 55.6157H110.404L112.164 57.2599V50.6598H115.73V67.7275H112.164V66.1065L110.404 67.7275H106.073ZM109.894 65.4117L112.164 63.2811V60.0621L109.917 57.9547L107.787 57.9315L106.999 58.7652V64.6012L107.787 65.4117H109.894ZM38.2555 95.7275V92.6706H46.9399L47.8431 91.7443V89.359L46.9399 88.4326L40.2008 88.4558L37.6302 85.8621V81.2304L40.2008 78.6598H50.5063V81.7167H42.1229L41.2198 82.643V84.5189L42.1229 85.4452H48.862L51.4326 88.0158V93.157L48.862 95.7275H38.2555ZM56.511 95.7275L53.9404 93.157V86.2094L56.511 83.6389H62.6711L65.2649 86.2094V90.7485H57.5068V92.138L58.4331 93.0643L65.0564 93.0412V95.7275H56.511ZM57.4836 88.4095H61.8837V86.8347L60.9574 85.9084L58.4331 85.9315L57.4836 86.8347V88.4095ZM69.3894 95.7275L66.8188 93.157V90.5632L69.3894 87.9926H75.2022V87.0663L74.2758 86.14H68.3473V83.6389H76.198L78.7686 86.2094V95.7275H75.2022V94.0138L73.5116 95.7275H69.3894ZM71.2884 93.458H73.0021L75.2022 91.258V90.1464H71.2884L70.3621 91.0495L70.3852 92.5548L71.2884 93.458ZM84.3325 95.7275L81.9241 93.458V86.0473H81.0209V83.6389H82.063L83.082 80.4198H85.4905V83.6389H87.5052V86.0473H85.4905V92.3927L86.2779 93.2033H88.0379V95.7275H84.3325ZM90.3829 95.7275V93.0875H96.8209L97.6083 92.3001V91.6748L96.7514 90.7948H92.1661L89.7576 88.5021V85.9084L92.1429 83.6389H99.901V86.2558H93.9724L93.2545 87.02V87.46L94.0882 88.3169H98.7199L101.128 90.5864V93.4349L98.743 95.7275H90.3829ZM104.185 91.0032L103.792 78.6598H107.497L107.127 91.0032H104.185ZM103.977 95.7275V92.4622H107.335V95.7275H103.977Z" fill="white"/>
</svg>
