<svg width="20" height="21" viewBox="0 0 20 21" fill="none" xmlns="http://www.w3.org/2000/svg">
<g clip-path="url(#clip0_48_1897)">
<g clip-path="url(#clip1_48_1897)">
<path d="M16.666 8.92248C16.666 12.6045 10 18.9225 10 18.9225C10 18.9225 3.33302 12.6045 3.33302 8.92248C3.32221 8.04015 3.48666 7.16445 3.81684 6.34616C4.14701 5.52787 4.63634 4.78326 5.25646 4.1555C5.87657 3.52775 6.61513 3.02934 7.42932 2.68916C8.24351 2.34899 9.11713 2.17383 9.99952 2.17383C10.8819 2.17383 11.7555 2.34899 12.5697 2.68916C13.3839 3.02934 14.1225 3.52775 14.7426 4.1555C15.3627 4.78326 15.852 5.52787 16.1822 6.34616C16.5124 7.16445 16.6768 8.04015 16.666 8.92248Z" stroke="#011813" stroke-width="1.5"/>
<path d="M10 9.75684C10.2211 9.75684 10.4331 9.66903 10.5894 9.51272C10.7457 9.35641 10.8335 9.1444 10.8335 8.92334C10.8335 8.70229 10.7457 8.49028 10.5894 8.33397C10.4331 8.17766 10.2211 8.08984 10 8.08984C9.77895 8.08984 9.56694 8.17766 9.41063 8.33397C9.25432 8.49028 9.1665 8.70229 9.1665 8.92334C9.1665 9.1444 9.25432 9.35641 9.41063 9.51272C9.56694 9.66903 9.77895 9.75684 10 9.75684Z" fill="#011813" stroke="#011813" stroke-width="1.5" stroke-linecap="round" stroke-linejoin="round"/>
</g>
</g>
<defs>
<clipPath id="clip0_48_1897">
<rect width="20" height="20" fill="white" transform="translate(0 0.589844)"/>
</clipPath>
<clipPath id="clip1_48_1897">
<rect width="20" height="20" fill="white" transform="translate(0 0.589844)"/>
</clipPath>
</defs>
</svg>
