<svg width="53" height="72" viewBox="0 0 53 72" fill="none" xmlns="http://www.w3.org/2000/svg">
<path d="M32.0833 43.3411C32.0833 38.6141 28.2477 34.782 23.5162 34.782C18.7847 34.782 14.949 38.614 14.949 43.3411C14.949 47.0677 17.3331 50.2374 20.6604 51.4125V56.1798H26.3718V51.4125C29.6991 50.2374 32.0833 47.0677 32.0833 43.3411Z" fill="#AAC191"/>
<path d="M22.8022 56.0605V49.8609C19.4749 48.6847 17.0908 45.5121 17.0908 41.782C17.0908 39.2709 18.1712 37.0123 19.8923 35.4453C16.9724 36.8104 14.949 39.7736 14.949 43.2098C14.949 46.9399 17.3331 50.1125 20.6604 51.2887V56.0605H22.8022Z" fill="#AAC191"/>
<path d="M24.944 61.772H22.0882C20.511 61.772 19.2325 60.4934 19.2325 58.9162V53.9187H27.7996V58.9162C27.7997 60.4934 26.5212 61.772 24.944 61.772Z" fill="#AAC191"/>
<path d="M21.3744 58.9162V53.9187H19.2326V58.9162C19.2326 60.4934 20.5112 61.772 22.0883 61.772H24.2301C22.6529 61.772 21.3744 60.4934 21.3744 58.9162Z" fill="#AAC191"/>
<path d="M24.23 38.2123L19.2326 43.9237H22.8022V48.2072L27.7997 42.4958H24.23V38.2123Z" fill="#F1F1F0"/>
<path d="M37.1147 31.7531C33.4824 28.1207 28.653 26.1202 23.5161 26.1202C18.3793 26.1202 13.5498 28.1207 9.91745 31.7531C6.32255 35.348 4.32612 40.1149 4.28533 45.1925L0.785722 52.1917C0.629321 52.5045 0.740119 52.885 1.04001 53.0649L4.2847 55.0118V65.3417C4.2847 65.7113 4.58441 66.011 4.95404 66.011H11.424V71.0532C11.424 71.4228 11.7237 71.7225 12.0933 71.7225C12.463 71.7225 12.7627 71.4228 12.7627 71.0532V65.3416C12.7627 64.972 12.463 64.6723 12.0933 64.6723H5.62329V54.6327C5.62329 54.3976 5.49993 54.1797 5.29837 54.0587L2.26013 52.2358L5.55257 45.6509C5.59906 45.558 5.62329 45.4556 5.62329 45.3516C5.62329 35.4855 13.65 27.4588 23.5161 27.4588C33.3821 27.4588 41.4088 35.4855 41.4088 45.3516C41.4088 50.8957 38.9004 56.0365 34.5266 59.4558C34.3644 59.5827 34.2695 59.7772 34.2695 59.9832V71.053C34.2695 71.4226 34.5692 71.7223 34.9388 71.7223C35.3085 71.7223 35.6082 71.4226 35.6082 71.053V60.306C40.1499 56.6324 42.7475 51.201 42.7475 45.3517C42.7475 40.2148 40.7471 35.3853 37.1147 31.7531Z" fill="black"/>
<path d="M31.0183 48.5982C31.2342 48.2981 31.166 47.8799 30.8659 47.6641C30.5659 47.4483 30.1475 47.5164 29.9318 47.8165C28.9823 49.1361 27.6741 50.1186 26.1488 50.6578C25.8813 50.7524 25.7026 51.0052 25.7026 51.2888V53.2495H21.3298V51.2888C21.3298 51.0052 21.151 50.7523 20.8835 50.6578C17.7342 49.5446 15.6184 46.5515 15.6184 43.21C15.6184 38.8551 19.1613 35.3121 23.5162 35.3121C27.871 35.3121 31.414 38.8551 31.414 43.21C31.414 43.8791 31.3303 44.5435 31.1652 45.1849C31.073 45.5429 31.2886 45.9078 31.6466 46C32.0048 46.0921 32.3695 45.8766 32.4617 45.5186C32.6549 44.7683 32.7527 43.9915 32.7527 43.2099C32.7527 38.1169 28.6093 33.9734 23.5163 33.9734C18.4233 33.9734 14.2798 38.1169 14.2798 43.2099C14.2798 46.9576 16.5559 50.3306 19.9912 51.749V53.2494H19.2326C18.863 53.2494 18.5633 53.5491 18.5633 53.9187V58.9162C18.5633 60.8599 20.1446 62.4412 22.0883 62.4412H24.944C26.8877 62.4412 28.469 60.8598 28.469 58.9162V53.9187C28.469 53.5491 28.1693 53.2494 27.7996 53.2494H27.0411V51.7491C28.6342 51.0925 30.0022 50.0105 31.0183 48.5982ZM27.1304 57.533H19.9465C19.9314 57.533 19.9166 57.5343 19.9018 57.5352V56.7298H27.1304V57.533ZM24.944 61.1026H22.0883C20.8827 61.1026 19.9018 60.1217 19.9018 58.9162V58.8694C19.9166 58.8704 19.9314 58.8716 19.9465 58.8716H27.1304V58.9162C27.1304 60.1218 26.1495 61.1026 24.944 61.1026ZM27.1304 55.3912H19.9018V54.588H20.6604H26.3718H27.1304V55.3912Z" fill="black"/>
<path d="M22.5668 48.8339C22.8251 48.9308 23.1241 48.8557 23.3059 48.6481L28.3034 42.9367C28.6748 42.5122 28.3625 41.8267 27.7997 41.8267H24.8993V38.2124C24.8993 37.6085 24.125 37.3163 23.7262 37.7716L18.7287 43.483C18.3574 43.9075 18.6696 44.5931 19.2325 44.5931H22.1328V48.2073C22.1329 48.4862 22.3058 48.7358 22.5668 48.8339ZM20.7076 43.2545L23.5608 39.9937V42.4959C23.5608 42.8655 23.8605 43.1652 24.2302 43.1652H26.3248L23.4716 46.426V43.9237C23.4716 43.5541 23.1719 43.2544 22.8022 43.2544H20.7076V43.2545Z" fill="black"/>
<path d="M24.1854 32.501V31.0731C24.1854 30.7035 23.8856 30.4038 23.516 30.4038C23.1464 30.4038 22.8467 30.7035 22.8467 31.0731V32.501C22.8467 32.8706 23.1464 33.1703 23.516 33.1703C23.8856 33.1703 24.1854 32.8706 24.1854 32.501Z" fill="black"/>
<path d="M15.4703 36.1107C15.7426 36.3829 16.2021 36.3647 16.4525 36.0723C16.6768 35.8104 16.6606 35.4078 16.4168 35.1642L15.4073 34.1546C15.1459 33.8931 14.7221 33.8931 14.4608 34.1546C14.1994 34.416 14.1994 34.8397 14.4608 35.1011L15.4703 36.1107Z" fill="black"/>
<path d="M12.8072 42.5405H11.3794C11.0097 42.5405 10.71 42.8402 10.71 43.2099C10.71 43.5795 11.0097 43.8792 11.3794 43.8792H12.8072C13.1768 43.8792 13.4765 43.5795 13.4765 43.2099C13.4765 42.8402 13.1768 42.5405 12.8072 42.5405Z" fill="black"/>
<path d="M15.4705 50.3089L14.4609 51.3185C14.2172 51.5621 14.201 51.9647 14.4253 52.2266C14.6756 52.5188 15.1352 52.5373 15.4074 52.265L16.417 51.2554C16.6784 50.994 16.6784 50.5702 16.417 50.3089C16.1557 50.0476 15.7319 50.0476 15.4705 50.3089Z" fill="black"/>
<path d="M31.5618 50.3089C31.3003 50.0474 30.8766 50.0474 30.6152 50.3089C30.3538 50.5703 30.3538 50.994 30.6152 51.2554L31.6248 52.2649C31.9051 52.5452 32.3784 52.5168 32.6182 52.2025C32.8195 51.9386 32.809 51.5561 32.5713 51.3185L31.5618 50.3089Z" fill="black"/>
<path d="M36.3222 43.2099C36.3222 42.8402 36.0225 42.5405 35.6528 42.5405H34.225C33.8554 42.5405 33.5557 42.8402 33.5557 43.2099C33.5557 43.5795 33.8554 43.8792 34.225 43.8792H35.6528C36.0225 43.8791 36.3222 43.5795 36.3222 43.2099Z" fill="black"/>
<path d="M31.6249 34.1545L30.6153 35.1641C30.3774 35.4019 30.3676 35.784 30.5685 36.0481C30.8078 36.3628 31.2819 36.3906 31.5618 36.1105L32.5714 35.1009C32.8328 34.8395 32.8328 34.4157 32.5714 34.1544C32.31 33.8932 31.8862 33.8932 31.6249 34.1545Z" fill="black"/>
<path d="M43.5307 10.5082H51.9372V60.9472H35.1241H50.6282" stroke="black" stroke-miterlimit="10"/>
<path d="M20.8438 11.1347H10.0354V32.7515" stroke="black" stroke-miterlimit="10"/>
<path d="M28.911 3.23926C30.1599 3.23926 31.1727 4.25027 31.1727 5.49805V15.2881C31.1727 16.4153 30.3458 17.3465 29.2655 17.5166C29.2483 17.5194 29.2311 17.522 29.2137 17.5244C29.173 17.5299 29.1321 17.5348 29.0907 17.5381C29.0464 17.5418 29.0019 17.5438 28.9569 17.5449C28.9417 17.5452 28.9263 17.5479 28.911 17.5479C28.9091 17.5479 28.9071 17.5469 28.9052 17.5469C28.9029 17.5469 28.9006 17.5479 28.8983 17.5479C27.6526 17.5479 26.6426 16.5387 26.6425 15.2939V15.2666C26.5196 15.2842 26.3941 15.2939 26.2665 15.2939C24.813 15.2939 23.6347 14.1164 23.6346 12.6641C23.6346 12.6284 23.6371 12.5929 23.6385 12.5576C23.6709 11.6445 24.1664 10.8499 24.8993 10.4023C24.1414 9.9408 23.6347 9.10795 23.6346 8.15625V8.13379C23.6348 6.67811 24.8163 5.49805 26.2733 5.49805C26.4012 5.49806 26.5272 5.50779 26.6503 5.52539V5.49805C26.6503 4.25035 27.6622 3.23938 28.911 3.23926Z" fill="#E9A772"/>
<path d="M34.9669 3.23926C36.2157 3.23926 37.2285 4.25027 37.2286 5.49805V5.52539C37.3517 5.50779 37.4776 5.49805 37.6055 5.49805C39.0624 5.49818 40.2431 6.67819 40.2432 8.13379C40.2432 8.13796 40.2423 8.14232 40.2422 8.14648C40.2423 8.14968 40.2432 8.15305 40.2432 8.15625C40.2432 9.10806 39.7366 9.94083 38.9786 10.4023C39.7117 10.8499 40.2079 11.6444 40.2403 12.5576C40.2417 12.5929 40.2432 12.6284 40.2432 12.6641C40.2432 14.1164 39.0649 15.2939 37.6114 15.2939C37.4838 15.2939 37.3582 15.2842 37.2354 15.2666V15.2939C37.2353 16.5387 36.2253 17.5479 34.9796 17.5479C34.9769 17.5479 34.9743 17.5469 34.9717 17.5469C34.9702 17.5469 34.9684 17.5479 34.9669 17.5479C34.9512 17.5479 34.9356 17.5452 34.92 17.5449C34.875 17.5437 34.8305 17.5419 34.7862 17.5381C34.7451 17.5348 34.7046 17.5298 34.6641 17.5244C34.6455 17.5218 34.6269 17.5197 34.6085 17.5166C33.5302 17.3447 32.7061 16.4138 32.7061 15.2881V5.49805C32.7061 4.25034 33.7181 3.23937 34.9669 3.23926Z" fill="#E9A772"/>
<path d="M43.9485 10.4298C43.9485 7.43346 42.3896 4.60789 39.6716 2.67751C39.5149 2.56642 39.2912 2.60424 39.18 2.76078C39.0687 2.91743 39.1067 3.14115 39.2633 3.25234C41.7927 5.04873 43.2434 7.66478 43.2434 10.4298C43.2434 14.4574 40.1736 18.041 35.6047 19.3471C35.4127 19.4019 35.3027 19.6139 35.3689 19.8027L36.4988 23.0233L32.2025 19.9204C32.1424 19.877 32.0702 19.8536 31.9961 19.8536C31.9964 19.8536 31.9958 19.8536 31.9961 19.8536L31.9392 19.8543C25.706 19.8543 20.6349 15.6265 20.6349 10.4299C20.6349 5.23324 25.706 1.00539 31.9392 1.00539C34.0175 1.00539 36.0492 1.48001 37.8147 2.37788C37.9881 2.46608 38.2004 2.39707 38.2887 2.22344C38.377 2.04996 38.3078 1.83768 38.1343 1.74939C36.2703 0.801417 34.128 0.300293 31.9392 0.300293C28.7428 0.300293 25.7351 1.34659 23.47 3.24638C21.1871 5.16118 19.9299 7.71231 19.9299 10.4298C19.9299 13.1474 21.1871 15.6986 23.47 17.6133C25.7218 19.502 28.7074 20.547 31.8827 20.5593L36.9971 24.253C37.131 24.3497 37.3191 24.3389 37.4411 24.2275C37.5445 24.1333 37.5825 23.9826 37.5362 23.8505L36.1564 19.9174C40.8329 18.441 43.9485 14.6684 43.9485 10.4298Z" fill="black"/>
<path d="M20.6347 10.4296C20.6349 5.23303 25.7061 1.00507 31.9392 1.00507C34.0175 1.00507 36.0493 1.48054 37.8148 2.3784C37.9665 2.45532 38.1478 2.41159 38.2499 2.28341L38.2886 2.2236C38.3658 2.072 38.3227 1.89072 38.1948 1.78849L38.1338 1.74979C36.2698 0.801895 34.128 0.300232 31.9392 0.300232C28.743 0.300232 25.7355 1.34664 23.4705 3.24626L23.0542 3.61217C21.0349 5.48013 19.9299 7.88182 19.9299 10.4296C19.9299 13.1471 21.1876 15.6981 23.4705 17.6128C25.7223 19.5015 28.7075 20.5466 31.8829 20.5589L36.9974 24.2531C37.1312 24.3496 37.3188 24.3385 37.4407 24.2273C37.5182 24.1566 37.5597 24.0543 37.5556 23.9517L37.5357 23.8509L36.1565 19.9174C40.833 18.4409 43.9485 14.6681 43.9485 10.4296C43.9484 7.62042 42.5784 4.96118 40.1674 3.04923L39.6713 2.67746C39.5147 2.5665 39.2911 2.60423 39.1799 2.76073L39.1447 2.82171C39.0795 2.971 39.1262 3.15476 39.2632 3.25213C41.7925 5.04848 43.2436 7.66461 43.2436 10.4296L43.2342 10.806C43.0498 14.679 40.0312 18.082 35.6053 19.3474L35.5373 19.3744C35.3883 19.4541 35.3106 19.6371 35.3684 19.8024L36.4989 23.0229L32.203 19.9209C32.1431 19.8776 32.0706 19.8542 31.9966 19.854H31.9392C25.706 19.854 20.6347 15.6262 20.6347 10.4296ZM44.2487 10.4296C44.2487 14.7349 41.1521 18.5341 36.54 20.105L37.8195 23.7512C37.9056 23.9969 37.8356 24.2736 37.6436 24.449C37.4167 24.6561 37.0707 24.6759 36.8215 24.4959L31.7808 20.8568C28.5789 20.8228 25.5631 19.7602 23.277 17.8427C20.9337 15.8772 19.6296 13.245 19.6296 10.4296C19.6297 7.61413 20.9336 4.98195 23.277 3.0164C25.6007 1.06746 28.6784 0 31.9392 0C34.1728 0 36.3618 0.511021 38.2698 1.48122H38.271C38.5921 1.64474 38.7195 2.03836 38.556 2.35964C38.3925 2.68091 37.9998 2.80882 37.6788 2.6458C35.9576 1.77044 33.9726 1.30531 31.9392 1.30531C25.8184 1.30531 20.9351 5.44766 20.9349 10.4296C20.9349 15.4116 25.8183 19.5538 31.9392 19.5538H31.9919L31.9955 19.745C31.9955 19.6833 31.9966 19.6185 31.9966 19.5538C32.1337 19.5539 32.2668 19.5969 32.3778 19.6769L35.8973 22.2184L35.0857 19.9021C34.9623 19.5502 35.1643 19.1613 35.522 19.0589C39.9932 17.7807 42.9434 14.2933 42.9434 10.4296C42.9433 7.77493 41.5508 5.24524 39.0896 3.49724C38.7981 3.29018 38.7278 2.87903 38.9348 2.58716C39.1421 2.29545 39.5533 2.2258 39.8449 2.43235C42.6318 4.41162 44.2486 7.32395 44.2487 10.4296Z" fill="black"/>
<path d="M23.2516 12.7062C23.2516 14.3469 24.6033 15.6817 26.2648 15.6817C26.2807 15.6817 26.2965 15.6816 26.3124 15.6813C26.4865 16.9499 27.5905 17.9309 28.9222 17.9309C30.3744 17.9309 31.5559 16.7643 31.5559 15.3302V5.5838C31.5559 4.14979 30.3744 2.98315 28.9222 2.98315C27.5905 2.98315 26.4866 3.96418 26.3124 5.23272C26.2889 5.23235 26.2652 5.23202 26.2416 5.23352C24.591 5.24797 23.2516 6.57488 23.2516 8.20783C23.2516 9.08718 23.6324 9.89704 24.2906 10.457C23.6324 11.0171 23.2516 11.8269 23.2516 12.7062ZM25.0762 10.7601C25.4342 10.5463 25.8426 10.4336 26.2648 10.4336C26.4588 10.4336 26.6208 10.2736 26.6208 10.0821C26.6208 9.89063 26.4588 9.73069 26.2648 9.73069C25.7911 9.73069 25.3307 9.83933 24.9135 10.0465C24.3155 9.61929 23.9634 8.9459 23.9634 8.20778C23.9634 6.95467 24.9958 5.93516 26.2648 5.93516C26.3786 5.93516 26.4906 5.94699 26.6033 5.95952C27.0976 6.03089 27.5523 6.25813 27.9088 6.61729C28.054 6.76367 28.302 6.75371 28.4356 6.59719C28.5521 6.46063 28.5435 6.25275 28.4172 6.12536C28.0263 5.73139 27.545 5.45865 27.0186 5.3256C27.1466 4.40088 27.9512 3.68596 28.9222 3.68596C29.982 3.68596 30.8441 4.5373 30.8441 5.58371V15.3302C30.8441 16.3766 29.9819 17.2279 28.9222 17.2279C27.951 17.2279 27.1462 16.5126 27.0185 15.5876C27.5251 15.4591 27.9912 15.2017 28.3739 14.8313C28.5124 14.6973 28.5147 14.471 28.379 14.3343C28.2432 14.1976 28.0141 14.1953 27.8757 14.3293C27.5242 14.6695 27.0807 14.8855 26.6018 14.9547C26.4898 14.9684 26.3777 14.9788 26.2648 14.9788C24.9958 14.9788 23.9633 13.9593 23.9633 12.7062C23.9634 11.9033 24.3794 11.1761 25.0762 10.7601Z" fill="black"/>
<path d="M40.6266 8.20786C40.6266 6.57454 39.2859 5.24628 37.6354 5.23346C37.6123 5.23201 37.5889 5.23239 37.5658 5.23272C37.3917 3.96417 36.2877 2.98315 34.956 2.98315C33.5038 2.98315 32.3223 4.14979 32.3223 5.58379V15.3303C32.3223 16.7643 33.5038 17.9309 34.956 17.9309C36.2877 17.9309 37.3916 16.9499 37.5658 15.6813C37.5817 15.6816 37.5975 15.6817 37.6134 15.6817C39.2749 15.6817 40.6266 14.3469 40.6266 12.7062C40.6266 11.8269 40.2458 11.017 39.5876 10.457C40.2458 9.89706 40.6266 9.08721 40.6266 8.20786ZM38.9647 10.0466C38.5475 9.8394 38.0871 9.73081 37.6134 9.73081C37.4168 9.73081 37.2575 9.88813 37.2575 10.0823C37.2575 10.2764 37.4168 10.4337 37.6134 10.4337C38.0356 10.4337 38.4441 10.5465 38.802 10.7602C39.4988 11.1761 39.9148 11.9033 39.9148 12.7063C39.9148 13.9594 38.8824 14.9789 37.6134 14.9789C37.4997 14.9789 37.3877 14.9671 37.2749 14.9545C36.7966 14.8852 36.3537 14.6693 36.0026 14.3295C35.8622 14.1936 35.6369 14.1958 35.4993 14.3344C35.3617 14.4731 35.3639 14.6955 35.5044 14.8314C35.887 15.2017 36.3531 15.4592 36.8597 15.5877C36.7321 16.5127 35.9273 17.228 34.956 17.228C33.8963 17.228 33.0342 16.3767 33.0342 15.3303V5.58374C33.0342 4.5373 33.8963 3.68601 34.956 3.68601C35.927 3.68601 36.7317 4.40093 36.8596 5.32564C36.3332 5.45874 35.8519 5.73143 35.461 6.12539C35.3344 6.25297 35.3264 6.46043 35.4426 6.59722C35.5758 6.75408 35.8244 6.76348 35.9694 6.61733C36.3259 6.25816 36.7805 6.03093 37.2748 5.95956C37.3877 5.94717 37.4996 5.93519 37.6134 5.93519C38.8824 5.93519 39.9148 6.9547 39.9148 8.20781C39.9148 8.94597 39.5627 9.61937 38.9647 10.0466Z" fill="black"/>
</svg>
