<svg width="25" height="28" viewBox="0 0 25 28" fill="none" xmlns="http://www.w3.org/2000/svg">
<path d="M9.64396 5.2301C9.64396 5.74358 9.22783 6.15947 8.71459 6.15947C8.20134 6.15947 7.78521 5.74358 7.78521 5.2301C7.78521 4.71686 8.20134 4.30073 8.71459 4.30073C9.22783 4.30073 9.64396 4.71686 9.64396 5.2301ZM9.64396 1.51262C9.64396 2.0261 9.22783 2.44199 8.71459 2.44199C8.20134 2.44199 7.78521 2.0261 7.78521 1.51262C7.78521 0.999377 8.20134 0.583252 8.71459 0.583252C9.22783 0.583252 9.64396 0.999377 9.64396 1.51262ZM7.78521 10.8063C7.78521 11.3198 7.36909 11.7357 6.85585 11.7357C6.3426 11.7357 5.92648 11.3198 5.92648 10.8063C5.92648 10.2931 6.3426 9.87695 6.85585 9.87695C7.36909 9.87695 7.78521 10.2931 7.78521 10.8063ZM12.8967 7.55353C12.8967 8.067 12.4806 8.4829 11.9674 8.4829C11.4541 8.4829 11.038 8.067 11.038 7.55353C11.038 7.04028 11.4541 6.62416 11.9674 6.62416C12.4806 6.62416 12.8967 7.04028 12.8967 7.55353ZM12.8967 13.1297C12.8967 13.6432 12.4806 14.0591 11.9674 14.0591C11.4541 14.0591 11.038 13.6432 11.038 13.1297C11.038 12.6165 11.4541 12.2004 11.9674 12.2004C12.4806 12.2004 12.8967 12.6165 12.8967 13.1297ZM4.53242 21.4941C4.53242 22.0076 4.1163 22.4234 3.60305 22.4234C3.08981 22.4234 2.67368 22.0076 2.67368 21.4941C2.67368 20.9808 3.08981 20.5647 3.60305 20.5647C4.1163 20.5647 4.53242 20.9808 4.53242 21.4941ZM7.78521 24.2822C7.78521 24.7957 7.36909 25.2116 6.85585 25.2116C6.3426 25.2116 5.92648 24.7957 5.92648 24.2822C5.92648 23.7689 6.3426 23.3528 6.85585 23.3528C7.36909 23.3528 7.78521 23.7689 7.78521 24.2822ZM12.4321 26.1409C12.4321 26.6544 12.0159 27.0703 11.5027 27.0703C10.9895 27.0703 10.5733 26.6544 10.5733 26.1409C10.5733 25.6277 10.9895 25.2116 11.5027 25.2116C12.0159 25.2116 12.4321 25.6277 12.4321 26.1409ZM4.06774 15.9179C4.06774 16.4313 3.65161 16.8472 3.13837 16.8472C2.62512 16.8472 2.209 16.4313 2.209 15.9179C2.209 15.4046 2.62512 14.9885 3.13837 14.9885C3.65161 14.9885 4.06774 15.4046 4.06774 15.9179ZM8.2499 16.8472C8.2499 17.3607 7.83378 17.7766 7.32053 17.7766C6.80729 17.7766 6.39116 17.3607 6.39116 16.8472C6.39116 16.334 6.80729 15.9179 7.32053 15.9179C7.83378 15.9179 8.2499 16.334 8.2499 16.8472ZM10.5733 20.1C10.5733 20.6135 10.1572 21.0294 9.64396 21.0294C9.13071 21.0294 8.71459 20.6135 8.71459 20.1C8.71459 19.5868 9.13071 19.1706 9.64396 19.1706C10.1572 19.1706 10.5733 19.5868 10.5733 20.1ZM4.06774 5.2301C4.06774 5.74358 3.65161 6.15947 3.13837 6.15947C2.62512 6.15947 2.209 5.74358 2.209 5.2301C2.209 4.71686 2.62512 4.30073 3.13837 4.30073C3.65161 4.30073 4.06774 4.71686 4.06774 5.2301ZM2.67368 11.271C2.67368 11.7845 2.25756 12.2004 1.74431 12.2004C1.23107 12.2004 0.814941 11.7845 0.814941 11.271C0.814941 10.7578 1.23107 10.3416 1.74431 10.3416C2.25756 10.3416 2.67368 10.7578 2.67368 11.271Z" fill="#E9A772"/>
<path d="M18.4313 24.273C18.457 24.4297 18.4712 24.5881 18.4732 24.7469C18.4732 26.2868 17.2248 27.535 15.6851 27.535C14.1451 27.535 12.897 26.2868 12.897 24.7469V3.37143C12.8976 2.05562 13.8182 0.919345 15.1054 0.645936C16.3926 0.372294 17.6956 1.03598 18.2316 2.2376C18.598 2.0658 18.9978 1.97695 19.4026 1.97737C19.8867 1.97703 20.3625 2.10284 20.7832 2.3424C21.2038 2.58197 21.5548 2.92702 21.8015 3.34355C22.0483 3.76006 22.1822 4.2337 22.1901 4.71776C22.1981 5.20182 22.0797 5.67958 21.8467 6.10395V6.10848C22.0898 6.22914 22.3202 6.37394 22.5344 6.5407C22.6041 6.59652 22.6739 6.6521 22.7389 6.71269C22.7436 6.71269 22.7482 6.71722 22.7529 6.72198C22.8181 6.78239 22.8783 6.84268 22.9342 6.89856C22.9983 6.96166 23.0587 7.02831 23.1153 7.0982C23.1666 7.15879 23.2176 7.21914 23.2641 7.28425C23.2718 7.29238 23.2782 7.30168 23.2827 7.31196C23.3369 7.38416 23.388 7.45864 23.4359 7.53518C23.5564 7.72017 23.6591 7.91617 23.7426 8.12057C23.7658 8.17639 23.7891 8.23221 23.8078 8.28785C23.8264 8.34362 23.8542 8.40873 23.8727 8.47367L23.9146 8.62702C23.9335 8.68307 23.9473 8.74069 23.9564 8.79901C23.9768 8.88015 23.9923 8.96242 24.0029 9.04541C24.0074 9.05929 24.0074 9.07788 24.0122 9.09652C24.0215 9.1707 24.0308 9.24987 24.0354 9.32886C24.0446 9.43574 24.0494 9.5378 24.0494 9.64468C24.0519 10.3116 23.8823 10.9678 23.5568 11.5499C23.6033 11.6196 23.6451 11.6846 23.6868 11.7543C23.7054 11.7915 23.7288 11.8335 23.7474 11.8705C23.7615 11.896 23.774 11.9225 23.7844 11.9497C23.8078 11.996 23.8309 12.0473 23.8495 12.0936C23.904 12.2277 23.9475 12.366 23.9798 12.5072C23.9899 12.5469 23.9979 12.5873 24.0029 12.6281C24.0122 12.6792 24.0215 12.7302 24.026 12.7861C24.1889 14.0335 23.4903 15.234 22.3254 15.7089C22.5421 16.1334 22.6552 16.6031 22.6554 17.0796C22.6573 17.7169 22.4536 18.3378 22.0745 18.8501C21.9034 19.0879 21.6983 19.2992 21.4658 19.4775C21.6379 19.8961 21.7263 20.3445 21.726 20.7971C21.7264 21.0489 21.6983 21.3 21.6422 21.5454C21.6246 21.643 21.5998 21.7394 21.5679 21.8334C21.5356 21.9389 21.4984 22.0428 21.4564 22.1449C21.4489 22.1628 21.4396 22.1798 21.4285 22.1959C21.3933 22.2857 21.3514 22.3727 21.3031 22.4562C21.255 22.5496 21.2006 22.6396 21.1404 22.7257C21.1308 22.7446 21.1182 22.7618 21.1032 22.7768C21.0501 22.8599 20.9911 22.939 20.9266 23.0137C20.8615 23.0928 20.7919 23.167 20.7222 23.2415C20.7029 23.2639 20.6809 23.2841 20.6571 23.3018C20.6014 23.3576 20.5456 23.4087 20.4853 23.4598C20.4192 23.5206 20.3476 23.575 20.2713 23.6224C20.2144 23.6675 20.1538 23.708 20.0903 23.7433C20.0435 23.7785 19.9939 23.8096 19.9414 23.8362C19.8695 23.8781 19.795 23.9154 19.7184 23.9478C19.6394 23.985 19.5604 24.0222 19.4767 24.0547C19.4382 24.0726 19.3976 24.0866 19.356 24.0964C19.2721 24.1255 19.1868 24.1505 19.1006 24.1708C19.0043 24.1976 18.9066 24.2178 18.8076 24.2312C18.7824 24.2407 18.7556 24.2455 18.7287 24.2453C18.6347 24.2594 18.5401 24.2686 18.4453 24.273C18.4435 24.2752 18.441 24.2766 18.4383 24.2766C18.4356 24.2766 18.4331 24.2752 18.4312 24.273H18.4313Z" fill="#F58F83"/>
<path d="M24.4647 12.578C24.4577 12.5185 24.4468 12.4595 24.432 12.4015V12.3945C24.3964 12.2375 24.348 12.0837 24.2875 11.9346C24.2875 11.9298 24.2834 11.9257 24.2821 11.9212C24.2723 11.8974 24.2596 11.8746 24.2484 11.8481C24.2346 11.8152 24.2226 11.7807 24.2053 11.7488C24.1951 11.7253 24.1844 11.7022 24.1727 11.6818C24.1695 11.6748 24.1663 11.6702 24.1629 11.6637L24.1034 11.5492C24.098 11.5395 24.0928 11.527 24.0874 11.5177C24.3667 10.9328 24.5124 10.2931 24.5139 9.64495C24.5139 9.52471 24.5087 9.40895 24.499 9.3012C24.4944 9.22133 24.4856 9.14553 24.4763 9.06653V9.03912C24.4754 9.02944 24.474 9.01981 24.4719 9.01031C24.4719 8.99869 24.4679 8.98283 24.4642 8.96651C24.4488 8.87369 24.4329 8.78064 24.4177 8.72871C24.4065 8.65301 24.3889 8.5784 24.3651 8.50566V8.50182C24.3558 8.46192 24.3442 8.41876 24.3242 8.35231V8.34616C24.3024 8.26995 24.2754 8.19844 24.2532 8.14129C24.2308 8.07437 24.2035 8.0074 24.1788 7.94885L24.1765 7.94252C24.0857 7.71857 23.9738 7.50379 23.8423 7.30108L23.8355 7.29086C23.8121 7.25368 23.7842 7.21668 23.7588 7.17945C23.7277 7.13298 23.6989 7.08645 23.6658 7.03993L23.6481 7.01495C23.5981 6.94254 23.5433 6.87358 23.484 6.80851L23.4776 6.80038C23.4165 6.72515 23.3516 6.6531 23.283 6.58453C23.2224 6.51744 23.1577 6.45418 23.0892 6.39512L23.0774 6.38397C23.0677 6.37467 23.0579 6.36538 23.0472 6.35696C22.9804 6.29347 22.9095 6.23449 22.8349 6.18043L22.8317 6.17753C22.8233 6.17114 22.814 6.16545 22.8056 6.15894C22.6939 6.07057 22.5779 5.9878 22.458 5.91092C22.593 5.5444 22.6598 5.1563 22.6552 4.76576C22.6532 2.97033 21.1981 1.515 19.4024 1.51296C19.0786 1.51249 18.7566 1.56106 18.4474 1.65702C17.6807 0.423857 16.1896 -0.151771 14.7932 0.246173C13.3966 0.644176 12.4332 1.91979 12.4321 3.3717V24.7472C12.4321 26.5438 13.8883 28 15.6849 28C17.4812 28 18.9377 26.5438 18.9377 24.7472C18.9377 24.7246 18.9348 24.7041 18.9343 24.6819L18.945 24.6794C19.0312 24.6662 19.1163 24.648 19.2002 24.6247C19.2145 24.6213 19.2313 24.6154 19.2467 24.6115C19.3306 24.5934 19.4133 24.57 19.4943 24.5414C19.5387 24.53 19.5821 24.5146 19.6236 24.4949H19.6281L19.6454 24.489L19.6574 24.4837C19.7394 24.4552 19.8191 24.4201 19.8954 24.3787C19.9884 24.341 20.0785 24.2963 20.1648 24.2451C20.2251 24.2131 20.2835 24.1775 20.3397 24.1386C20.4119 24.098 20.4804 24.0515 20.5446 23.9991C20.6299 23.9439 20.7106 23.8817 20.7858 23.8133C20.8482 23.76 20.9089 23.7047 20.9678 23.6474C21.002 23.6211 21.0331 23.5911 21.0607 23.5583C21.1374 23.4768 21.2142 23.3942 21.2763 23.3184L21.2793 23.3152L21.2852 23.3077C21.3539 23.2271 21.4178 23.1426 21.4767 23.0545C21.4935 23.0328 21.5091 23.0098 21.5232 22.9862L21.5282 22.9783L21.5352 22.9681C21.5491 22.9477 21.5613 22.9274 21.5747 22.9071C21.5929 22.8787 21.6119 22.851 21.6278 22.8245C21.6584 22.7743 21.6859 22.726 21.7076 22.6809C21.7596 22.5908 21.8064 22.4977 21.847 22.402C21.8615 22.3755 21.8735 22.3491 21.8869 22.3203C21.9334 22.205 21.9758 22.0879 22.007 21.9861C22.0447 21.8763 22.0742 21.7638 22.0953 21.6496V21.6424L22.0975 21.6339C22.1594 21.3594 22.1906 21.0788 22.1905 20.7974C22.1908 20.399 22.1303 20.0029 22.011 19.6227C22.1733 19.4727 22.3196 19.3064 22.4478 19.1265C22.4531 19.1195 22.4562 19.112 22.4614 19.1052C22.8845 18.6033 23.1176 17.9687 23.1199 17.3123H23.1017C23.1067 17.2346 23.1199 17.1586 23.1199 17.0799C23.1194 16.6876 23.0529 16.2982 22.9231 15.928C23.4087 15.6402 23.8108 15.2308 24.0898 14.7401C24.3688 14.2494 24.515 13.6945 24.5139 13.1301C24.5135 13.0018 24.5053 12.8737 24.4892 12.7464C24.4843 12.6898 24.4761 12.6336 24.4647 12.578ZM22.1472 15.2797C22.088 15.3043 22.0345 15.3409 21.9901 15.3872C21.9457 15.4334 21.9113 15.4884 21.8892 15.5485C21.8671 15.6088 21.8576 15.6729 21.8615 15.737C21.8654 15.801 21.8824 15.8636 21.9116 15.9207C22.0945 16.2798 22.19 16.677 22.1905 17.0799C22.191 17.6104 22.0232 18.1273 21.7112 18.5563C21.5365 18.7488 21.3236 18.9028 21.0861 19.0086C20.8486 19.1145 20.5917 19.1697 20.3317 19.171C19.4806 19.1683 18.7403 18.5878 18.5343 17.7622C20.0804 17.6094 21.2591 16.31 21.2611 14.7565H20.3318C20.3318 15.9114 19.3956 16.8476 18.2407 16.8476C17.0858 16.8476 16.1496 15.9114 16.1496 14.7565H15.2202C15.2225 16.1664 16.1988 17.3878 17.5739 17.7004C17.6279 18.1 17.7683 18.4829 17.9855 18.8226C18.2026 19.1623 18.4912 19.4506 18.8312 19.6674C19.1711 19.8841 19.5543 20.0242 19.9539 20.0777C20.3535 20.1312 20.7599 20.097 21.145 19.9774C21.2212 20.2441 21.2603 20.52 21.2611 20.7974C21.2611 21.02 21.2357 21.2416 21.1853 21.4583C21.171 21.5397 21.1504 21.6198 21.1237 21.6979C21.0966 21.7864 21.0649 21.8713 21.0306 21.9559C21.0152 21.9814 21.0022 22.0083 20.992 22.0362C20.9622 22.1098 20.9269 22.1811 20.8865 22.2495C20.8482 22.3237 20.8049 22.3951 20.757 22.4635L20.7472 22.4782C20.7322 22.4957 20.7189 22.5143 20.7073 22.534C20.6662 22.5999 20.6195 22.6621 20.5677 22.7199C20.5212 22.7784 20.4684 22.8329 20.4169 22.888C20.3996 22.9057 20.3851 22.9216 20.3665 22.9411C20.3538 22.9513 20.3415 22.9624 20.3299 22.974C20.2834 23.0205 20.2369 23.0638 20.1854 23.1061L20.1695 23.1199C20.1248 23.1608 20.0764 23.1975 20.025 23.2297C20.0125 23.2379 20.0003 23.2467 19.9887 23.256C19.9517 23.2858 19.9122 23.3123 19.8707 23.3356C19.8459 23.349 19.8226 23.3645 19.8006 23.382C19.7732 23.4017 19.7441 23.4187 19.7137 23.4333C19.6505 23.4696 19.5852 23.502 19.5181 23.5303C19.4507 23.5629 19.3825 23.5938 19.3136 23.6231L19.2095 23.6594C19.132 23.6862 19.0532 23.7089 18.9733 23.7273C18.897 23.7481 18.8194 23.7636 18.741 23.7738C18.723 23.7761 18.7054 23.7795 18.6877 23.7836L18.6584 23.7876C18.5806 23.7997 18.5021 23.8076 18.4233 23.811C18.4038 23.811 18.3845 23.8124 18.3652 23.8146C18.3237 23.8187 18.2822 23.8199 18.2407 23.8178C16.5732 23.8158 15.2223 22.4649 15.2202 20.7974H14.2909C14.2934 22.8868 15.9225 24.6129 18.0083 24.7356V24.7472C18.0083 26.0305 16.968 27.0706 15.6849 27.0706C14.4016 27.0706 13.3615 26.0305 13.3615 24.7472V3.3717C13.3624 2.27534 14.1297 1.32872 15.2023 1.1009C16.2748 0.873324 17.3608 1.42647 17.8071 2.42804C17.8322 2.48441 17.8682 2.53523 17.9131 2.57753C17.958 2.61984 18.0109 2.65278 18.0687 2.67444C18.1265 2.69603 18.188 2.7059 18.2497 2.70348C18.3113 2.70107 18.3719 2.68642 18.4278 2.66039C18.7327 2.51697 19.0655 2.44252 19.4024 2.44233C20.6848 2.4439 21.7242 3.48334 21.7258 4.76576C21.7247 5.01437 21.6831 5.26114 21.6026 5.49636C20.9361 5.2538 20.2208 5.17562 19.5176 5.26845C18.8144 5.36128 18.144 5.62238 17.5632 6.02958C16.9824 6.43672 16.5084 6.97794 16.1815 7.60733C15.8545 8.23672 15.6841 8.93569 15.6849 9.64495H16.6143C16.6135 9.05405 16.7632 8.47267 17.0492 7.95562C17.3353 7.43856 17.7483 7.00286 18.2493 6.68955C18.7503 6.37622 19.3228 6.1956 19.9129 6.16473C20.503 6.13386 21.0912 6.25374 21.6221 6.51309C21.6282 6.51623 21.6328 6.52145 21.6389 6.52465C21.8399 6.62481 22.0309 6.74369 22.2096 6.87973C22.2229 6.88995 22.2359 6.89744 22.2491 6.90813C22.3085 6.9546 22.3679 7.00089 22.4229 7.05352L22.4442 7.0717C22.4961 7.11799 22.5449 7.16882 22.5905 7.21372L22.6044 7.22778C22.6589 7.28219 22.7108 7.33922 22.7598 7.39866C22.8024 7.44949 22.8455 7.49962 22.8846 7.55433C22.8921 7.56653 22.9 7.57815 22.9089 7.58924C22.9553 7.65302 23.0019 7.7161 23.0398 7.77982L23.0427 7.78435C23.1489 7.94689 23.2392 8.11931 23.3123 8.29922C23.3308 8.34255 23.3489 8.38612 23.3638 8.43038C23.367 8.44014 23.3703 8.44757 23.374 8.45872C23.3917 8.50519 23.4098 8.55155 23.4205 8.59395L23.4697 8.77227C23.4836 8.81537 23.4938 8.85963 23.5003 8.90436C23.5163 8.97307 23.5283 9.04365 23.5403 9.11945L23.5451 9.14326L23.5487 9.16638C23.5523 9.19839 23.5553 9.23202 23.5584 9.2649C23.5616 9.298 23.5664 9.32821 23.5687 9.36771C23.5766 9.46047 23.5807 9.54986 23.5807 9.64309C23.5786 9.99974 23.522 10.354 23.4126 10.6935C22.819 10.168 22.0538 9.87773 21.2611 9.87729V10.8067C21.6366 10.8065 22.0065 10.8976 22.339 11.0721C22.6715 11.2465 22.9567 11.4991 23.17 11.8082C23.21 11.8676 23.2458 11.9243 23.2844 11.9879L23.3309 12.0786L23.3406 12.0977C23.3483 12.1179 23.3575 12.1376 23.3679 12.1567H23.3656C23.3833 12.1921 23.401 12.2311 23.4148 12.2667V12.2724C23.4606 12.3854 23.4969 12.5019 23.5235 12.6209C23.5315 12.6513 23.5371 12.6824 23.5403 12.7137C23.5469 12.75 23.5535 12.7886 23.5572 12.8249C23.5572 12.8324 23.5572 12.8374 23.5598 12.8458C23.5736 12.9399 23.5818 13.035 23.5846 13.1301C23.5849 13.5905 23.4485 14.0406 23.1926 14.4234C22.9366 14.8061 22.5728 15.1041 22.1472 15.2797Z" fill="#DA655F"/>
<path d="M11.9675 11.7359C11.685 11.7359 11.4093 11.8221 11.1774 11.9833L8.21324 10.5014C8.16906 10.3087 8.08433 10.1277 7.96469 9.97032C7.84505 9.81296 7.69325 9.68291 7.51941 9.58881L9.01941 6.58834C9.34052 6.51515 9.62523 6.33037 9.82285 6.06691L10.7127 6.95678C10.6217 7.14268 10.5741 7.34681 10.5734 7.55378C10.5734 8.32388 11.1974 8.94784 11.9675 8.94784C12.7374 8.94784 13.3615 8.32388 13.3615 7.55378C13.3615 6.78392 12.7374 6.15973 11.9675 6.15973C11.7604 6.16059 11.5563 6.20829 11.3703 6.29925L10.0867 5.01568C10.0479 4.76856 9.94316 4.5365 9.78347 4.34398C9.62377 4.15145 9.41507 4.0056 9.17938 3.92181V2.82161C9.36484 2.75597 9.53433 2.65184 9.6767 2.51607C9.81907 2.38029 9.93112 2.21594 10.0055 2.03379L12.8308 2.43772L12.9628 1.51764L10.0391 1.09943C9.85044 0.483254 9.26233 0.0780491 8.61961 0.121323C7.9766 0.16448 7.44814 0.64479 7.34376 1.2806L4.03811 4.17326C3.78812 3.95707 3.46897 3.83755 3.13847 3.83636C2.48658 3.83433 1.92048 4.28513 1.77706 4.92094C1.70731 5.22961 1.74492 5.55283 1.88369 5.83724C2.02246 6.12164 2.25409 6.35021 2.54031 6.48518L1.39254 9.92896C1.09024 10.0068 0.822978 10.1842 0.633883 10.4326C0.444788 10.6809 0.344889 10.9858 0.350307 11.2979C0.361169 11.9404 0.811565 12.4914 1.43895 12.6302L2.47427 14.7013C2.23377 14.8301 2.03675 15.0272 1.90799 15.2677C1.77923 15.5082 1.7245 15.7814 1.75067 16.053C1.77684 16.3246 1.88275 16.5823 2.05507 16.7938C2.22739 17.0053 2.45843 17.1611 2.7191 17.2417L3.09096 20.2022C2.41891 20.4606 2.05541 21.1894 2.25325 21.8815C2.45132 22.5737 3.14498 23.0003 3.852 22.8644L5.48542 24.4978C5.52052 24.734 5.6162 24.9572 5.76316 25.1455C5.91012 25.3338 6.10334 25.4809 6.32401 25.5723C6.54471 25.6638 6.78536 25.6966 7.02247 25.6673C7.25959 25.6381 7.4851 25.548 7.677 25.4056L10.1504 26.4666C10.3084 27.136 10.9307 27.59 11.6162 27.5362C12.3016 27.4824 12.8457 26.9367 12.8973 26.251C12.949 25.5656 12.4929 24.9446 11.8233 24.7887L10.2865 21.3315C10.597 21.1688 10.8347 20.8951 10.9525 20.565H12.8968V19.6357H10.9525C10.8708 19.4056 10.7302 19.2011 10.5447 19.0425C10.3592 18.8839 10.1352 18.7768 9.89534 18.7319L8.68716 17.121V17.0989L12.1444 14.5062C12.8741 14.4152 13.4069 13.7717 13.3599 13.0377C13.3129 12.3039 12.7028 11.7335 11.9674 11.736L11.9675 11.7359ZM10.2694 25.5056L8.20348 24.6203C8.23299 24.51 8.24862 24.3966 8.24995 24.2824C8.24971 24.1889 8.24022 24.0955 8.2216 24.0038L9.56216 21.9921L10.8604 24.9137C10.6073 25.0456 10.4009 25.2523 10.2694 25.5056ZM7.66729 23.1548C7.05565 22.7069 6.19703 22.8373 5.74617 23.4465L4.67414 22.3744C4.88125 22.1278 4.99556 21.8164 4.99727 21.4943C4.99727 21.4637 4.99024 21.4349 4.98798 21.4042L8.36577 20.6539C8.48044 20.9154 8.67266 21.1353 8.91643 21.284L7.66729 23.1548ZM8.3099 19.7161L4.60967 20.5382C4.44714 20.3692 4.24463 20.2438 4.02085 20.1738L3.64899 17.2132C3.96425 17.0863 4.22224 16.8485 4.37436 16.5446L5.97305 17.1803C6.02634 17.4045 6.13482 17.6117 6.28861 17.7832C6.44241 17.9548 6.63665 18.0851 6.85367 18.1625C7.07068 18.2398 7.30359 18.2617 7.53121 18.2261C7.75882 18.1905 7.97393 18.0985 8.15696 17.9586L8.88849 18.9344C8.60886 19.1169 8.40402 19.3936 8.31123 19.7143L8.3099 19.7161ZM3.44366 14.5604L2.40822 12.4892C2.57331 12.3991 2.71844 12.2766 2.83488 12.1289C2.95132 11.9813 3.03665 11.8115 3.08573 11.63L5.56256 11.3207C5.63923 11.5109 5.7569 11.6818 5.90719 11.8213C6.05748 11.9608 6.23669 12.0655 6.43205 12.1278L6.81251 15.5525C6.49472 15.6787 6.23444 15.9174 6.08121 16.2231L4.48595 15.5855C4.42411 15.3349 4.29393 15.1063 4.10989 14.9253C3.92586 14.7444 3.69526 14.618 3.44366 14.5604ZM2.3423 10.0167L3.49013 6.57289C3.54693 6.55911 3.6028 6.54175 3.65741 6.52091L6.08678 9.64487C5.823 9.82242 5.62775 10.0847 5.53335 10.3884L3.01435 10.7035C2.87849 10.4024 2.64041 10.1591 2.3423 10.0167ZM8.25001 2.82161V3.92181C7.99614 4.01016 7.7735 4.17053 7.60926 4.38333C7.44503 4.59612 7.34631 4.85214 7.32517 5.12011C7.304 5.38803 7.36133 5.65632 7.49014 5.89219C7.61896 6.12805 7.81369 6.3213 8.05054 6.4483L6.76993 9.01022L4.35351 5.90195C4.51452 5.62959 4.57005 5.30764 4.50959 4.99709L7.57656 2.31313C7.74314 2.54811 7.9784 2.72574 8.25001 2.82161ZM7.32064 10.8066C7.32064 11.0634 7.11258 11.2713 6.85595 11.2713C6.59933 11.2713 6.39127 11.0634 6.39127 10.8066C6.39127 10.6833 6.44023 10.5651 6.52737 10.478C6.61452 10.3909 6.73271 10.3419 6.85595 10.3419C6.9792 10.3419 7.09739 10.3909 7.18454 10.478C7.27168 10.5651 7.32064 10.6833 7.32064 10.8066ZM7.78532 16.8475C7.78532 17.1043 7.57726 17.3122 7.32064 17.3122C7.06402 17.3122 6.85595 17.1043 6.85595 16.8475C6.85595 16.7242 6.90491 16.606 6.99206 16.5189C7.0792 16.4318 7.1974 16.3828 7.32064 16.3828C7.44388 16.3828 7.56208 16.4318 7.64922 16.5189C7.73637 16.606 7.78532 16.7242 7.78532 16.8475ZM7.74426 15.5265L7.36374 12.1017C7.66704 11.981 7.91835 11.7577 8.07389 11.4707L10.6329 12.7499C10.5555 13.0011 10.5535 13.2694 10.6271 13.5217C10.7007 13.7739 10.8467 13.9991 11.047 14.1692L8.48735 16.0887C8.31149 15.8216 8.04912 15.6231 7.74426 15.5265ZM8.71469 5.69504C8.59145 5.69504 8.47326 5.64609 8.38611 5.55894C8.29897 5.4718 8.25001 5.3536 8.25001 5.23036C8.25001 5.10712 8.29897 4.98892 8.38611 4.90178C8.47326 4.81463 8.59145 4.76567 8.71469 4.76567C8.83794 4.76567 8.95613 4.81463 9.04328 4.90178C9.13042 4.98892 9.17938 5.10712 9.17938 5.23036C9.17938 5.3536 9.13042 5.4718 9.04328 5.55894C8.95613 5.64609 8.83794 5.69504 8.71469 5.69504ZM12.4322 7.55378C12.4322 7.81064 12.2241 8.01847 11.9675 8.01847C11.7109 8.01847 11.5028 7.81064 11.5028 7.55378C11.5028 7.43054 11.5518 7.31235 11.6389 7.2252C11.7261 7.13806 11.8442 7.0891 11.9675 7.0891C12.0907 7.0891 12.2089 7.13806 12.2961 7.2252C12.3832 7.31235 12.4322 7.43054 12.4322 7.55378ZM8.71469 1.0482C8.77572 1.0482 8.83614 1.06022 8.89252 1.08358C8.9489 1.10693 9.00012 1.14117 9.04327 1.18432C9.08641 1.22747 9.12064 1.2787 9.14399 1.33508C9.16734 1.39146 9.17935 1.45189 9.17935 1.51291C9.17935 1.57393 9.16732 1.63436 9.14397 1.69073C9.12061 1.74711 9.08638 1.79834 9.04323 1.84148C9.00007 1.88463 8.94885 1.91885 8.89247 1.9422C8.83609 1.96555 8.77566 1.97757 8.71464 1.97756C8.59139 1.97756 8.4732 1.92861 8.38605 1.84146C8.29891 1.75432 8.24995 1.63612 8.24995 1.51288C8.24995 1.38964 8.29891 1.27144 8.38605 1.1843C8.4732 1.09715 8.59145 1.0482 8.71469 1.0482ZM3.13847 4.76567C3.26172 4.76568 3.37991 4.81465 3.46705 4.9018C3.55419 4.98895 3.60314 5.10715 3.60313 5.23039C3.60312 5.35363 3.55416 5.47182 3.46701 5.55896C3.37986 5.6461 3.26166 5.69505 3.13842 5.69504C3.01517 5.69504 2.89698 5.64609 2.80983 5.55894C2.72269 5.4718 2.67373 5.3536 2.67373 5.23036C2.67373 5.10712 2.72269 4.98892 2.80983 4.90178C2.89698 4.81463 3.01523 4.76567 3.13847 4.76567ZM1.74442 10.8066C1.80544 10.8066 1.86587 10.8186 1.92224 10.842C1.97862 10.8653 2.02985 10.8996 2.07299 10.9427C2.11614 10.9859 2.15037 11.0371 2.17371 11.0935C2.19706 11.1498 2.20908 11.2103 2.20908 11.2713C2.20907 11.3323 2.19705 11.3927 2.17369 11.4491C2.15034 11.5055 2.1161 11.5567 2.07295 11.5999C2.0298 11.643 1.97857 11.6772 1.92219 11.7006C1.86581 11.7239 1.80539 11.736 1.74436 11.7359C1.62112 11.7359 1.50293 11.687 1.41578 11.5998C1.32863 11.5127 1.27968 11.3945 1.27968 11.2713C1.27968 11.148 1.32863 11.0298 1.41578 10.9427C1.50293 10.8555 1.62118 10.8066 1.74442 10.8066ZM3.13847 15.4534C3.1995 15.4534 3.25992 15.4655 3.3163 15.4888C3.37268 15.5122 3.4239 15.5464 3.46705 15.5896C3.5102 15.6327 3.54442 15.6839 3.56777 15.7403C3.59112 15.7967 3.60313 15.8571 3.60313 15.9181C3.60313 15.9792 3.5911 16.0396 3.56775 16.096C3.54439 16.1523 3.51016 16.2036 3.46701 16.2467C3.42385 16.2899 3.37263 16.3241 3.31625 16.3474C3.25987 16.3708 3.19944 16.3828 3.13842 16.3828C3.01517 16.3828 2.89698 16.3338 2.80983 16.2467C2.72269 16.1595 2.67373 16.0414 2.67373 15.9181C2.67373 15.7949 2.72269 15.6767 2.80983 15.5895C2.89698 15.5024 3.01523 15.4534 3.13847 15.4534ZM3.13847 21.4943C3.13847 21.3711 3.18743 21.2529 3.27458 21.1658C3.36172 21.0786 3.47992 21.0296 3.60316 21.0296C3.7264 21.0296 3.8446 21.0786 3.93174 21.1658C4.01889 21.2529 4.06785 21.3711 4.06785 21.4943C4.06785 21.6176 4.01889 21.7358 3.93174 21.8229C3.8446 21.9101 3.7264 21.959 3.60316 21.959C3.47992 21.959 3.36172 21.9101 3.27458 21.8229C3.18743 21.7358 3.13847 21.6176 3.13847 21.4943ZM6.39127 24.2824C6.39127 24.1592 6.44023 24.041 6.52737 23.9539C6.61452 23.8667 6.73271 23.8178 6.85595 23.8178C6.9792 23.8178 7.09739 23.8667 7.18454 23.9539C7.27168 24.041 7.32064 24.1592 7.32064 24.2824C7.32064 24.4057 7.27168 24.5239 7.18454 24.611C7.09739 24.6982 6.9792 24.7471 6.85595 24.7471C6.73271 24.7471 6.61452 24.6982 6.52737 24.611C6.44023 24.5239 6.39127 24.4057 6.39127 24.2824ZM11.5028 26.6059C11.3796 26.6059 11.2614 26.5569 11.1742 26.4698C11.0871 26.3826 11.0381 26.2644 11.0381 26.1412C11.0381 26.0179 11.0871 25.8997 11.1742 25.8126C11.2614 25.7255 11.3796 25.6765 11.5028 25.6765C11.626 25.6765 11.7442 25.7255 11.8314 25.8126C11.9185 25.8997 11.9675 26.0179 11.9675 26.1412C11.9675 26.2644 11.9185 26.3826 11.8314 26.4698C11.7442 26.5569 11.626 26.6059 11.5028 26.6059ZM9.64406 20.565C9.52082 20.565 9.40263 20.516 9.31548 20.4289C9.22834 20.3417 9.17938 20.2235 9.17938 20.1003C9.17938 19.977 9.22834 19.8588 9.31548 19.7717C9.40263 19.6845 9.52082 19.6356 9.64406 19.6356C9.76731 19.6356 9.8855 19.6845 9.97265 19.7717C10.0598 19.8588 10.1087 19.977 10.1087 20.1003C10.1087 20.2235 10.0598 20.3417 9.97265 20.4289C9.8855 20.516 9.76731 20.565 9.64406 20.565ZM11.9675 13.5947C11.8442 13.5947 11.7261 13.5457 11.6389 13.4586C11.5518 13.3714 11.5028 13.2532 11.5028 13.13C11.5028 13.0068 11.5518 12.8886 11.6389 12.8014C11.7261 12.7143 11.8442 12.6653 11.9675 12.6653C12.0907 12.6653 12.2089 12.7143 12.2961 12.8014C12.3832 12.8886 12.4322 13.0068 12.4322 13.13C12.4322 13.2532 12.3832 13.3714 12.2961 13.4586C12.2089 13.5457 12.0907 13.5947 11.9675 13.5947Z" fill="#4E4E4E"/>
<path d="M1.43901 12.6292L2.47432 14.7003C2.23383 14.8291 2.03681 15.0262 1.90805 15.2667C1.7793 15.5072 1.72457 15.7804 1.75075 16.052C1.77689 16.3236 1.88278 16.5813 2.05511 16.7929C2.22743 17.0044 2.45847 17.1602 2.71915 17.2407L3.09102 20.2012C2.41897 20.4597 2.05547 21.1882 2.25331 21.8805C2.45138 22.5728 3.14504 22.9993 3.85206 22.8634L5.48548 24.4968C5.52058 24.7331 5.61626 24.9563 5.76322 25.1446C5.91018 25.3329 6.1034 25.48 6.32407 25.5714C6.54479 25.6628 6.78542 25.6955 7.02253 25.6663C7.25964 25.6371 7.48514 25.5469 7.67705 25.4047L10.1505 26.4665C10.3032 27.1105 10.8886 27.5573 11.5497 27.5347C12.2112 27.5121 12.7648 27.0263 12.873 26.3735C13.6086 27.6477 15.1084 28.2688 16.5295 27.8876C17.9505 27.5067 18.9384 26.2186 18.9377 24.7471V24.6822C19.0454 24.6626 19.1522 24.6383 19.2579 24.6096L19.2926 24.6008C19.3867 24.5746 19.4797 24.5447 19.5714 24.5111L19.644 24.4846C19.7258 24.4533 19.8066 24.4194 19.8862 24.3829C19.9195 24.3679 19.9522 24.3519 19.9846 24.3365C20.0552 24.3016 20.1249 24.2649 20.1936 24.2264C20.2342 24.2034 20.2728 24.1799 20.3123 24.1542C20.3722 24.1171 20.4321 24.0805 20.4897 24.0403C20.5362 24.007 20.5828 23.9706 20.629 23.935C20.6755 23.8992 20.722 23.8652 20.7686 23.827C20.8484 23.7608 20.9256 23.6877 21.0009 23.6167C21.0166 23.6013 21.0324 23.5865 21.0474 23.5702C21.1261 23.4909 21.2012 23.4082 21.2727 23.3224C21.2959 23.2945 21.3168 23.2648 21.3392 23.2364C21.3917 23.1702 21.4433 23.1032 21.491 23.0334C21.5158 22.9982 21.5375 22.9615 21.5609 22.9252C21.6035 22.8596 21.6442 22.7929 21.683 22.725C21.7054 22.6844 21.7267 22.6436 21.7477 22.6023C21.7827 22.5355 21.8155 22.4676 21.8461 22.3987C21.8656 22.3545 21.8842 22.3104 21.9024 22.2653C21.9303 22.1959 21.956 22.126 21.9795 22.0552C21.9954 22.0089 22.0106 21.9624 22.026 21.9159C22.0478 21.8424 22.066 21.7682 22.0837 21.6933C22.0943 21.6468 22.1059 21.6003 22.1152 21.554C22.1315 21.4716 22.1427 21.3879 22.1538 21.3039C22.1588 21.2631 22.1663 21.2225 22.1701 21.1812C22.1821 21.0553 22.1896 20.9279 22.1896 20.7989C22.1899 20.4012 22.1297 20.0058 22.0111 19.6263C22.1933 19.4563 22.357 19.2674 22.4991 19.0626C22.9011 18.5678 23.1203 17.9497 23.1199 17.3122H23.1077C23.1129 17.235 23.1199 17.1581 23.1199 17.0798C23.1204 16.6869 23.0535 16.2968 22.9223 15.9265C24.0323 15.2742 24.648 14.0244 24.4892 12.7468C24.4847 12.7087 24.4776 12.671 24.4715 12.6329C24.4584 12.5436 24.4411 12.4549 24.4196 12.3672C24.4102 12.3265 24.3998 12.286 24.3885 12.2458C24.3615 12.1515 24.3305 12.0585 24.2955 11.967C24.2852 11.9401 24.2769 11.9122 24.2657 11.8856C24.2179 11.7707 24.1634 11.6587 24.1026 11.5501C24.0986 11.5422 24.0958 11.534 24.091 11.5265C24.3687 10.938 24.5131 10.2956 24.514 9.64487C24.5131 9.47275 24.5022 9.30084 24.4813 9.13C24.4745 9.07104 24.4639 9.01342 24.4546 8.95533C24.4378 8.84759 24.4171 8.74049 24.3926 8.63424C24.3767 8.56488 24.3589 8.49596 24.3393 8.42757C24.3131 8.33451 24.283 8.24808 24.2514 8.15979C24.2258 8.08742 24.2015 8.01435 24.1723 7.94383C24.1353 7.85647 24.0924 7.77224 24.0502 7.68767C23.9865 7.55903 23.9164 7.4337 23.8401 7.31215C23.8033 7.2536 23.7677 7.19412 23.7287 7.13743C23.6767 7.06347 23.6224 6.99112 23.566 6.92048C23.5195 6.85925 23.4675 6.79977 23.4158 6.74099C23.3643 6.6825 23.3103 6.62029 23.2538 6.56267C23.1492 6.45538 23.0394 6.35332 22.9248 6.25685L22.8881 6.22618C22.7559 6.11943 22.6176 6.0205 22.4739 5.92988C22.4646 5.92373 22.4567 5.91623 22.447 5.91037C22.632 5.41819 22.6949 4.8885 22.6303 4.36668C22.5658 3.84486 22.3757 3.34646 22.0764 2.9142C21.7771 2.4819 21.3775 2.1286 20.9118 1.88454C20.4461 1.64049 19.9282 1.51296 19.4025 1.51288C19.0786 1.51267 18.7567 1.5614 18.4474 1.6574C17.8596 0.707581 16.8249 0.126551 15.7079 0.119058C14.5908 0.111564 13.5482 0.678771 12.9479 1.62086L12.9628 1.51764L10.039 1.09943C9.8505 0.483254 9.26244 0.0780491 8.61961 0.121323C7.9766 0.16448 7.44814 0.64479 7.34376 1.2806L4.03811 4.17326C3.78812 3.95707 3.46898 3.83755 3.13847 3.83636C2.48658 3.83433 1.92048 4.28513 1.77706 4.92094C1.70731 5.22961 1.74492 5.55283 1.88369 5.83724C2.02246 6.12164 2.25409 6.35021 2.54031 6.48518L1.39254 9.92896C1.09024 10.0068 0.822978 10.1842 0.633883 10.4326C0.444788 10.6809 0.344889 10.9858 0.350307 11.2979C0.361169 11.9404 0.811565 12.4914 1.43895 12.6302L1.43901 12.6292ZM2.34224 10.0167L3.49013 6.57289C3.54693 6.55911 3.6028 6.54175 3.65741 6.52091L6.08679 9.64487C5.823 9.82242 5.62775 10.0847 5.53335 10.3884L3.01435 10.7035C2.87849 10.4024 2.64035 10.1591 2.34224 10.0167ZM8.25007 2.82161V3.92181C7.9962 4.01016 7.77355 4.17053 7.60932 4.38333C7.44508 4.59612 7.34637 4.85214 7.32523 5.12011C7.30406 5.38803 7.36138 5.65632 7.4902 5.89219C7.61902 6.12805 7.81375 6.3213 8.0506 6.4483L6.76999 9.01022L4.35351 5.90195C4.51452 5.62959 4.57005 5.30764 4.50959 4.99709L7.57657 2.31313C7.74314 2.54811 7.9784 2.72574 8.25001 2.82161H8.25007ZM9.82291 6.06691L10.7128 6.95678C10.6218 7.14268 10.5742 7.34681 10.5735 7.55378C10.5735 8.32388 11.1974 8.94784 11.9675 8.94784C12.1262 8.94638 12.2834 8.91751 12.4322 8.86251V11.8215C12.2257 11.7444 12.0035 11.7188 11.7848 11.747C11.5662 11.7752 11.3577 11.8563 11.1775 11.9833L8.2133 10.5014C8.16912 10.3087 8.08438 10.1277 7.96475 9.97032C7.84511 9.81296 7.69331 9.68291 7.51947 9.58881L9.01947 6.58834C9.34058 6.51515 9.62529 6.33037 9.82291 6.06691ZM11.9675 7.0891C12.0908 7.08911 12.209 7.13807 12.2961 7.22522C12.3833 7.31237 12.4322 7.43057 12.4322 7.55381C12.4322 7.67706 12.3832 7.79525 12.2961 7.88239C12.2089 7.96953 12.0907 8.01848 11.9675 8.01847C11.8442 8.01847 11.7261 7.96951 11.6389 7.88237C11.5518 7.79522 11.5028 7.67703 11.5028 7.55378C11.5028 7.43054 11.5518 7.31235 11.6389 7.2252C11.7261 7.13806 11.8442 7.0891 11.9675 7.0891H11.9675ZM10.9526 19.6356C10.8709 19.4056 10.7303 19.2011 10.5448 19.0425C10.3593 18.8839 10.1354 18.7768 9.89546 18.7318L8.68728 17.1209V17.0988L12.1445 14.5061C12.2425 14.4938 12.339 14.4712 12.4322 14.4387V19.6356H10.9526ZM10.2694 25.5056L8.20348 24.6203C8.23299 24.51 8.24862 24.3966 8.24995 24.2824C8.24971 24.1889 8.24022 24.0955 8.22161 24.0038L9.56216 21.9921L10.8604 24.9137C10.6073 25.0456 10.4009 25.2523 10.2694 25.5056ZM5.74757 23.4461L4.67571 22.374C4.88198 22.1271 4.99568 21.816 4.99722 21.4943C4.99722 21.4637 4.99019 21.4349 4.98792 21.4042L8.36572 20.6539C8.48039 20.9154 8.6726 21.1353 8.91637 21.284L7.66869 23.1548C7.05699 22.7069 6.1986 22.8373 5.74757 23.4465V23.4461ZM4.02126 20.172L3.64963 17.2114C3.9648 17.0844 4.2227 16.8466 4.37483 16.5428L5.97311 17.1803C6.0264 17.4044 6.13488 17.6117 6.28867 17.7832C6.44247 17.9547 6.6367 18.0851 6.8537 18.1624C7.07071 18.2398 7.30361 18.2616 7.53122 18.226C7.75883 18.1904 7.97393 18.0985 8.15696 17.9586L8.88849 18.9344C8.60992 19.1177 8.40625 19.3947 8.31443 19.7152L4.6142 20.5373C4.45063 20.3673 4.24659 20.2416 4.02126 20.172ZM6.85596 10.3419C6.91698 10.3419 6.9774 10.3539 7.03378 10.3773C7.09016 10.4006 7.14138 10.4349 7.18453 10.478C7.22768 10.5212 7.2619 10.5724 7.28525 10.6288C7.3086 10.6852 7.32061 10.7456 7.32061 10.8066C7.32061 10.8676 7.30858 10.9281 7.28523 10.9844C7.26187 11.0408 7.22764 11.092 7.18449 11.1352C7.14133 11.1783 7.09011 11.2126 7.03373 11.2359C6.97735 11.2593 6.91692 11.2713 6.8559 11.2713C6.73266 11.2713 6.61446 11.2223 6.52732 11.1352C6.44017 11.048 6.39121 10.9298 6.39121 10.8066C6.39121 10.6833 6.44017 10.5651 6.52732 10.478C6.61446 10.3909 6.73271 10.3419 6.85596 10.3419ZM8.07389 11.4707L10.6329 12.7499C10.5555 13.0011 10.5535 13.2694 10.6271 13.5217C10.7007 13.7739 10.8467 13.9991 11.047 14.1692L8.48735 16.0887C8.31142 15.8215 8.04886 15.6229 7.74379 15.5264L7.36333 12.1017C7.66678 11.9811 7.91825 11.7577 8.07389 11.4707ZM7.32064 16.3828C7.38166 16.3828 7.44209 16.3948 7.49847 16.4182C7.55484 16.4415 7.60607 16.4758 7.64921 16.5189C7.69236 16.5621 7.72659 16.6133 7.74994 16.6697C7.77328 16.7261 7.7853 16.7865 7.7853 16.8475C7.78529 16.9085 7.77327 16.969 7.74991 17.0253C7.72656 17.0817 7.69233 17.1329 7.64917 17.1761C7.60602 17.2192 7.55479 17.2535 7.49841 17.2768C7.44203 17.3002 7.38161 17.3122 7.32058 17.3122C7.19734 17.3122 7.07915 17.2632 6.992 17.1761C6.90485 17.0889 6.8559 16.9707 6.8559 16.8475C6.8559 16.7242 6.90485 16.606 6.992 16.5189C7.07915 16.4318 7.1974 16.3828 7.32064 16.3828ZM9.64406 20.565C9.52082 20.565 9.40263 20.516 9.31548 20.4289C9.22834 20.3417 9.17938 20.2235 9.17938 20.1003C9.17938 19.977 9.22834 19.8588 9.31548 19.7717C9.40263 19.6845 9.52082 19.6356 9.64406 19.6356C9.76731 19.6356 9.8855 19.6845 9.97265 19.7717C10.0598 19.8588 10.1087 19.977 10.1087 20.1003C10.1087 20.2235 10.0598 20.3417 9.97265 20.4289C9.8855 20.516 9.76731 20.565 9.64406 20.565ZM11.9675 13.5947C11.8442 13.5947 11.7261 13.5457 11.6389 13.4586C11.5518 13.3714 11.5028 13.2532 11.5028 13.13C11.5028 13.0068 11.5518 12.8886 11.6389 12.8014C11.7261 12.7143 11.8442 12.6653 11.9675 12.6653C12.0907 12.6653 12.2089 12.7143 12.2961 12.8014C12.3832 12.8886 12.4322 13.0068 12.4322 13.13C12.4322 13.2532 12.3832 13.3714 12.2961 13.4586C12.2089 13.5457 12.0907 13.5947 11.9675 13.5947ZM8.71469 4.76567C8.83794 4.76568 8.95613 4.81465 9.04327 4.9018C9.13041 4.98895 9.17936 5.10715 9.17935 5.23039C9.17934 5.35363 9.13038 5.47182 9.04323 5.55896C8.95608 5.6461 8.83788 5.69505 8.71464 5.69504C8.59139 5.69504 8.4732 5.64609 8.38605 5.55894C8.29891 5.4718 8.24995 5.3536 8.24995 5.23036C8.24995 5.10712 8.29891 4.98892 8.38605 4.90178C8.4732 4.81463 8.59145 4.76567 8.71469 4.76567ZM3.08579 11.6299L5.56262 11.3207C5.63929 11.5109 5.75695 11.6818 5.90724 11.8213C6.05753 11.9608 6.23674 12.0655 6.4321 12.1278L6.81257 15.5525C6.49478 15.6787 6.2345 15.9174 6.08127 16.2231L4.486 15.5855C4.42407 15.3346 4.29362 15.1059 4.10923 14.9249C3.92484 14.7439 3.69376 14.6177 3.4418 14.5604L2.40828 12.4892C2.57337 12.3991 2.71851 12.2766 2.83495 12.1289C2.95139 11.9812 3.03672 11.8115 3.08579 11.6299ZM3.13847 15.4534C3.1995 15.4534 3.25992 15.4655 3.3163 15.4888C3.37268 15.5122 3.4239 15.5464 3.46705 15.5896C3.5102 15.6327 3.54442 15.6839 3.56777 15.7403C3.59112 15.7967 3.60313 15.8571 3.60313 15.9181C3.60313 15.9792 3.5911 16.0396 3.56775 16.096C3.54439 16.1523 3.51016 16.2036 3.46701 16.2467C3.42385 16.2899 3.37263 16.3241 3.31625 16.3474C3.25987 16.3708 3.19944 16.3828 3.13842 16.3828C3.01517 16.3828 2.89698 16.3338 2.80983 16.2467C2.72269 16.1595 2.67373 16.0414 2.67373 15.9181C2.67373 15.7949 2.72269 15.6767 2.80983 15.5895C2.89698 15.5024 3.01523 15.4534 3.13847 15.4534ZM3.13847 21.4943C3.13847 21.3711 3.18743 21.2529 3.27458 21.1658C3.36172 21.0786 3.47992 21.0296 3.60316 21.0296C3.7264 21.0296 3.8446 21.0786 3.93174 21.1658C4.01889 21.2529 4.06785 21.3711 4.06785 21.4943C4.06785 21.6176 4.01889 21.7358 3.93174 21.8229C3.8446 21.9101 3.7264 21.959 3.60316 21.959C3.47992 21.959 3.36172 21.9101 3.27458 21.8229C3.18743 21.7358 3.13847 21.6176 3.13847 21.4943ZM6.39127 24.2824C6.39127 24.1592 6.44023 24.041 6.52737 23.9539C6.61452 23.8667 6.73271 23.8178 6.85596 23.8178C6.9792 23.8178 7.09739 23.8667 7.18454 23.9539C7.27168 24.041 7.32064 24.1592 7.32064 24.2824C7.32064 24.4057 7.27168 24.5239 7.18454 24.611C7.09739 24.6982 6.9792 24.7471 6.85596 24.7471C6.73271 24.7471 6.61452 24.6982 6.52737 24.611C6.44023 24.5239 6.39127 24.4057 6.39127 24.2824ZM11.5028 26.6059C11.3796 26.6059 11.2614 26.5569 11.1742 26.4698C11.0871 26.3826 11.0381 26.2644 11.0381 26.1412C11.0381 26.0179 11.0871 25.8997 11.1742 25.8126C11.2614 25.7255 11.3796 25.6765 11.5028 25.6765C11.626 25.6765 11.7442 25.7255 11.8314 25.8126C11.9185 25.8997 11.9675 26.0179 11.9675 26.1412C11.9675 26.2644 11.9185 26.3826 11.8314 26.4698C11.7442 26.5569 11.626 26.6059 11.5028 26.6059ZM11.8229 24.7877L10.2861 21.3302C10.5966 21.168 10.8345 20.8947 10.9526 20.565H12.4322V24.7471C12.4328 24.8753 12.441 25.0031 12.4567 25.1301C12.2791 24.9624 12.0606 24.8443 11.823 24.7877H11.8229ZM13.3615 3.37156C13.3631 2.27589 14.1302 1.3302 15.2021 1.10262C16.274 0.874809 17.3592 1.42709 17.8062 2.4275C17.8313 2.4838 17.8673 2.53456 17.9122 2.57682C17.957 2.61908 18.0099 2.652 18.0676 2.67366C18.1254 2.69523 18.1868 2.70512 18.2485 2.70274C18.3101 2.70037 18.3706 2.68579 18.4266 2.65984C18.7319 2.5166 19.0651 2.44232 19.4024 2.44225C19.771 2.4403 20.1347 2.52653 20.4632 2.69376C20.7917 2.86099 21.0754 3.10436 21.2907 3.40356C21.506 3.70277 21.6466 4.04912 21.7008 4.41372C21.7549 4.77832 21.7211 5.1506 21.6022 5.49947C20.9359 5.25525 20.2205 5.17569 19.5169 5.26758C18.8133 5.35948 18.1424 5.6201 17.5612 6.02723C16.9801 6.43437 16.506 6.97596 16.1793 7.60586C15.8526 8.23576 15.683 8.93529 15.685 9.64487H16.6143C16.6129 9.05156 16.7634 8.46776 17.0513 7.94903C17.3393 7.43029 17.7552 6.99389 18.2596 6.68134C18.7639 6.3688 19.3398 6.19049 19.9325 6.16336C20.5252 6.13623 21.115 6.2612 21.6458 6.52637C21.9196 6.66326 22.1746 6.83509 22.4043 7.03758C22.434 7.06412 22.4633 7.0902 22.4921 7.11744C22.5736 7.19451 22.6511 7.27562 22.7244 7.36048C22.7599 7.40108 22.7941 7.44191 22.8276 7.48362C22.8943 7.56746 22.9571 7.65431 23.0158 7.7439C23.0487 7.79475 23.0798 7.84683 23.1088 7.90003C23.1508 7.97278 23.1902 8.04702 23.2268 8.12262C23.2509 8.17181 23.2765 8.2202 23.2983 8.27097C23.3503 8.39213 23.3951 8.51624 23.4326 8.64266C23.4455 8.68442 23.4548 8.72816 23.4659 8.77132C23.492 8.87227 23.5138 8.97462 23.531 9.07801C23.5381 9.12157 23.5455 9.16543 23.551 9.2101C23.6203 9.71102 23.5726 10.2212 23.4117 10.7006C22.8201 10.1717 22.0547 9.87862 21.2612 9.87721V10.8066C21.64 10.8069 22.013 10.8999 22.3476 11.0774C22.6822 11.2549 22.9684 11.5115 23.1812 11.8249C23.1923 11.841 23.1997 11.8587 23.2104 11.875C23.274 11.9735 23.33 12.0767 23.3781 12.1836C23.3954 12.2222 23.4099 12.2621 23.4246 12.3016C23.4602 12.395 23.4899 12.4905 23.5133 12.5877C23.5231 12.6283 23.5338 12.6687 23.5417 12.7095C23.7527 13.7891 23.1678 14.8666 22.1476 15.2782C22.0885 15.3028 22.0351 15.3393 21.9907 15.3855C21.9464 15.4317 21.912 15.4865 21.8899 15.5466C21.8677 15.6067 21.8582 15.6707 21.862 15.7347C21.8657 15.7986 21.8827 15.861 21.9117 15.9181C22.1148 16.3135 22.2108 16.7553 22.19 17.1993C22.1692 17.6434 22.0324 18.0742 21.7932 18.4489C21.5812 18.7248 21.2955 18.9352 20.9691 19.0558C20.6427 19.1764 20.2889 19.2023 19.9484 19.1305C19.6079 19.0585 19.2947 18.8918 19.0449 18.6495C18.7951 18.4073 18.6189 18.0993 18.5366 17.7612C20.0813 17.6074 21.2587 16.3088 21.2612 14.7564H20.3318C20.3318 15.9113 19.3957 16.8475 18.2407 16.8475C17.0858 16.8475 16.1497 15.9113 16.1497 14.7564H15.2203C15.2226 16.1663 16.1989 17.3877 17.5739 17.7004C17.6296 18.0991 17.7712 18.4811 17.9888 18.8198C18.2065 19.1586 18.495 19.4461 18.8345 19.6626C19.1741 19.879 19.5565 20.0193 19.9555 20.0736C20.3544 20.1279 20.7604 20.0951 21.1455 19.9773C21.222 20.2439 21.2609 20.5199 21.2612 20.7973C21.2612 20.8996 21.2555 21.0004 21.2457 21.0999C21.2425 21.1338 21.2355 21.1664 21.231 21.1998C21.2226 21.2654 21.2142 21.3309 21.2012 21.3945C21.1933 21.4331 21.1827 21.4703 21.1734 21.5079C21.1593 21.5655 21.1464 21.6232 21.1291 21.6788C21.1171 21.719 21.1012 21.7575 21.0879 21.797C21.0692 21.8489 21.0515 21.9014 21.0306 21.9522C21.0143 21.9917 20.9948 22.0298 20.9766 22.0688C20.954 22.1153 20.9303 22.1655 20.9074 22.2124C20.8865 22.2515 20.861 22.2891 20.8401 22.3277C20.8192 22.366 20.7895 22.415 20.7615 22.4572C20.7337 22.4994 20.7073 22.5339 20.6799 22.5716C20.6524 22.6093 20.6241 22.6488 20.5943 22.686C20.5646 22.723 20.5293 22.7625 20.4959 22.7996C20.4623 22.8369 20.4382 22.8653 20.408 22.8963C20.3695 22.9356 20.3297 22.9737 20.289 23.0107C20.261 23.0367 20.2338 23.0626 20.205 23.0874C20.1585 23.1273 20.112 23.1649 20.0609 23.2022C20.0362 23.2208 20.0121 23.2398 19.9869 23.2575C19.9303 23.2974 19.8723 23.3353 19.8131 23.3712L19.755 23.4066C19.6882 23.4454 19.6198 23.4815 19.5502 23.5148L19.5111 23.5339C19.433 23.5697 19.3536 23.6025 19.2731 23.6323L19.2557 23.6385C18.9816 23.7358 18.6951 23.7932 18.4047 23.8091H18.4023C18.3485 23.8123 18.2949 23.8172 18.2407 23.8172C16.5735 23.8153 15.2226 22.4645 15.2203 20.7973H14.2909C14.2934 22.8868 15.9225 24.6128 18.0084 24.7355V24.7471C18.0084 26.0304 16.9681 27.0706 15.685 27.0706C14.4016 27.0706 13.3615 26.0304 13.3615 24.7471V3.37156ZM12.4322 3.37156V6.24523C12.261 6.18064 12.0783 6.15213 11.8955 6.16151C11.7128 6.17089 11.5339 6.21794 11.3703 6.29972L10.0867 5.01614C10.048 4.76894 9.9433 4.53677 9.7836 4.34415C9.62389 4.15154 9.41514 4.00562 9.17938 3.92181V2.82161C9.36484 2.75597 9.53433 2.65184 9.6767 2.51607C9.81907 2.38029 9.93112 2.21594 10.0055 2.03379L12.5798 2.40182C12.4818 2.71575 12.432 3.04268 12.4322 3.37156ZM8.71469 1.04814C8.83795 1.04814 8.95616 1.09712 9.04331 1.18428C9.13046 1.27144 9.17942 1.38965 9.17941 1.51291C9.1794 1.63617 9.13043 1.75437 9.04327 1.84152C8.95611 1.92867 8.83789 1.97763 8.71464 1.97762C8.59139 1.97762 8.47318 1.92866 8.38603 1.84151C8.29888 1.75436 8.24992 1.63616 8.24992 1.51291C8.24992 1.38966 8.29888 1.27146 8.38603 1.18431C8.47318 1.09716 8.59139 1.0482 8.71464 1.0482L8.71469 1.04814ZM3.13847 4.76562C3.26173 4.76562 3.37994 4.8146 3.46709 4.90176C3.55424 4.98892 3.6032 5.10713 3.60319 5.23039C3.60318 5.35365 3.55421 5.47185 3.46705 5.559C3.37989 5.64615 3.26167 5.69511 3.13842 5.6951C3.01517 5.6951 2.89697 5.64614 2.80981 5.55899C2.72266 5.47184 2.6737 5.35364 2.6737 5.23039C2.6737 5.10714 2.72266 4.98894 2.80981 4.90179C2.89697 4.81464 3.01517 4.76567 3.13842 4.76567L3.13847 4.76562ZM1.74442 10.8065C1.80545 10.8065 1.86588 10.8185 1.92227 10.8419C1.97865 10.8653 2.02988 10.8995 2.07303 10.9427C2.11619 10.9858 2.15042 11.0371 2.17377 11.0934C2.19712 11.1498 2.20914 11.2103 2.20913 11.2713C2.20913 11.3323 2.19711 11.3928 2.17375 11.4491C2.15039 11.5055 2.11615 11.5568 2.07299 11.5999C2.02984 11.6431 1.9786 11.6773 1.92221 11.7006C1.86583 11.724 1.80539 11.736 1.74436 11.736C1.62111 11.736 1.50291 11.687 1.41576 11.5999C1.32861 11.5127 1.27965 11.3945 1.27965 11.2713C1.27965 11.148 1.32861 11.0298 1.41576 10.9427C1.50291 10.8555 1.62111 10.8066 1.74436 10.8066L1.74442 10.8065Z" fill="black"/>
</svg>
