<svg width="34" height="32" viewBox="0 0 34 32" fill="none" xmlns="http://www.w3.org/2000/svg">
<g clip-path="url(#clip0_38_1149)">
<path d="M13.5366 20.4333H18.466M16.0006 17.9687V22.898M8.24197 8.14867H23.7573M11.6246 4H20.3733M27.4 23.5793V16.7033C27.3999 16.1232 27.2855 15.5488 27.0635 15.0129C26.8414 14.477 26.5159 13.9901 26.1057 13.58C25.6954 13.1699 25.2084 12.8446 24.6725 12.6227C24.1365 12.4008 23.5621 12.2866 22.982 12.2867H9.0173C8.43715 12.2865 7.86265 12.4006 7.3266 12.6225C6.79056 12.8443 6.30347 13.1696 5.89315 13.5798C5.48283 13.9899 5.15732 14.4768 4.9352 15.0128C4.71309 15.5487 4.59872 16.1232 4.59863 16.7033V23.58C4.59881 24.7518 5.06442 25.8755 5.89307 26.704C6.72171 27.5326 7.84551 27.998 9.0173 27.998H22.982C24.1537 27.998 25.2774 27.5325 26.106 26.704C26.9345 25.8755 27.4 24.7511 27.4 23.5793Z" stroke="#E9A772" stroke-width="1.33333" stroke-linecap="round" stroke-linejoin="round"/>
</g>
<defs>
<clipPath id="clip0_38_1149">
<rect width="32" height="32" fill="white"/>
</clipPath>
</defs>
</svg>
