<svg width="20" height="21" viewBox="0 0 20 21" fill="none" xmlns="http://www.w3.org/2000/svg">
<g clip-path="url(#clip0_32_72)">
<path fill-rule="evenodd" clip-rule="evenodd" d="M5.83325 3.89176C5.83325 2.28153 7.13968 0.975098 8.74992 0.975098C10.3602 0.975098 11.6666 2.28153 11.6666 3.89176V4.30843H14.1666C15.5435 4.30843 16.6666 5.43153 16.6666 6.80843V9.30843H17.0833C18.6935 9.30843 19.9999 10.6149 19.9999 12.2251C19.9999 13.8353 18.6935 15.1418 17.0833 15.1418H16.6666V17.6418C16.6666 19.0187 15.5435 20.1418 14.1666 20.1418H10.1666V18.0584C10.1666 17.277 9.53135 16.6418 8.74992 16.6418C7.96849 16.6418 7.33325 17.277 7.33325 18.0584V20.1418H3.33325C1.95635 20.1418 0.833252 19.0187 0.833252 17.6418V13.6418H2.91659C3.69801 13.6418 4.33325 13.0065 4.33325 12.2251C4.33325 11.4437 3.69801 10.8084 2.91659 10.8084H0.841585V6.80843C0.841585 5.43697 1.95092 4.30843 3.33325 4.30843H5.83325V3.89176ZM8.74992 2.64176C8.06016 2.64176 7.49992 3.202 7.49992 3.89176V5.9751H3.33325C2.88225 5.9751 2.50825 6.34655 2.50825 6.80843V9.14176H2.91659C4.61849 9.14176 5.99992 10.5232 5.99992 12.2251C5.99992 13.927 4.61849 15.3084 2.91659 15.3084H2.49992V17.6418C2.49992 18.0982 2.87682 18.4751 3.33325 18.4751H5.66659V18.0584C5.66659 16.3565 7.04801 14.9751 8.74992 14.9751C10.4518 14.9751 11.8333 16.3565 11.8333 18.0584V18.4751H14.1666C14.623 18.4751 14.9999 18.0982 14.9999 17.6418V13.4751H17.0833C17.773 13.4751 18.3333 12.9149 18.3333 12.2251C18.3333 11.5353 17.773 10.9751 17.0833 10.9751H14.9999V6.80843C14.9999 6.352 14.623 5.9751 14.1666 5.9751H9.99992V3.89176C9.99992 3.202 9.43968 2.64176 8.74992 2.64176Z" fill="#AAC191"/>
</g>
<defs>
<clipPath id="clip0_32_72">
<rect width="20" height="20" fill="white" transform="translate(0 0.975098)"/>
</clipPath>
</defs>
</svg>
