<svg width="82" height="61" viewBox="0 0 82 61" fill="none" xmlns="http://www.w3.org/2000/svg">
<path d="M50.918 37.7051C50.918 26.8197 53.5319 18.2975 58.7598 12.1387C64.0592 5.97982 71.4714 1.93359 80.9961 0V11.1719C73.763 13.3919 68.8932 17.4023 66.3867 23.2031C64.9544 26.2826 64.3815 29.2546 64.668 32.1191H81.5332V60.3711H50.918V37.7051ZM0 37.7051C0 26.9629 2.54232 18.4766 7.62695 12.2461C12.7832 6.01562 20.2669 1.93359 30.0781 0V11.1719C22.7734 13.4635 17.8678 17.4023 15.3613 22.9883C14.0723 25.9245 13.5352 28.9681 13.75 32.1191H30.6152V60.3711H0V37.7051Z" fill="#E7A572"/>
</svg>
