<svg width="256" height="41" viewBox="0 0 256 41" fill="none" xmlns="http://www.w3.org/2000/svg">
<g clip-path="url(#clip0_48_1826)">
<g clip-path="url(#clip1_48_1826)">
<g clip-path="url(#clip2_48_1826)">
<path d="M27.98 15.9904C27.38 16.2504 26.76 16.4304 26.1 16.5104C26.7908 16.1053 27.3046 15.4559 27.54 14.6904C26.9 15.0704 26.2 15.3304 25.46 15.4904C25.0104 15.0093 24.4264 14.6745 23.784 14.5296C23.1416 14.3848 22.4705 14.4365 21.8579 14.6781C21.2453 14.9197 20.7195 15.3399 20.349 15.8843C19.9784 16.4287 19.7801 17.0719 19.78 17.7304C19.78 17.9904 19.8 18.2304 19.86 18.4704C17.14 18.3504 14.74 17.0304 13.12 15.0504C11.96 17.1304 13.26 18.8504 14.12 19.4304C13.6 19.4304 13.08 19.2704 12.64 19.0304C12.64 20.6504 13.78 21.9904 15.26 22.2904C14.94 22.3904 14.22 22.4504 13.78 22.3504C14.2 23.6504 15.42 24.6104 16.84 24.6304C15.72 25.5104 14.08 26.2104 11.98 25.9904C13.44 26.9304 15.16 27.4704 17.02 27.4704C23.06 27.4704 26.34 22.4704 26.34 18.1504C26.34 18.0104 26.34 17.8704 26.32 17.7304C26.9766 17.2586 27.5395 16.6685 27.98 15.9904Z" fill="#011813"/>
</g>
</g>
<rect x="0.5" y="1.4502" width="39" height="39" rx="19.5" stroke="#011813"/>
</g>
<g clip-path="url(#clip3_48_1826)">
<g clip-path="url(#clip4_48_1826)">
<g clip-path="url(#clip5_48_1826)">
<path d="M66.0802 21.9897H64.1002C63.7802 21.9897 63.6802 21.8697 63.6802 21.5697V19.1497C63.6802 18.8297 63.8002 18.7297 64.1002 18.7297H66.0802V16.9697C66.0802 16.1697 66.2202 15.4097 66.6202 14.7097C67.0402 13.9897 67.6402 13.5097 68.4002 13.2297C68.9002 13.0497 69.4002 12.9697 69.9402 12.9697H71.9002C72.1802 12.9697 72.3002 13.0897 72.3002 13.3697V15.6497C72.3002 15.9297 72.1802 16.0497 71.9002 16.0497C71.3602 16.0497 70.8202 16.0497 70.2802 16.0697C69.7402 16.0697 69.4602 16.3297 69.4602 16.8897C69.4402 17.4897 69.4602 18.0697 69.4602 18.6897H71.7802C72.1002 18.6897 72.2202 18.8097 72.2202 19.1297V21.5497C72.2202 21.8697 72.1202 21.9697 71.7802 21.9697H69.4602V28.4897C69.4602 28.8297 69.3602 28.9497 69.0002 28.9497H66.5002C66.2002 28.9497 66.0802 28.8297 66.0802 28.5297V21.9897Z" fill="#011813"/>
</g>
</g>
<rect x="48.5" y="1.4502" width="39" height="39" rx="19.5" stroke="#011813"/>
</g>
<g clip-path="url(#clip6_48_1826)">
<g clip-path="url(#clip7_48_1826)">
<g clip-path="url(#clip8_48_1826)">
<path d="M124 28.9502V23.0902C124 20.2102 123.38 18.0102 120.02 18.0102C118.4 18.0102 117.32 18.8902 116.88 19.7302H116.84V18.2702H113.66V28.9502H116.98V23.6502C116.98 22.2502 117.24 20.9102 118.96 20.9102C120.66 20.9102 120.68 22.4902 120.68 23.7302V28.9302H124V28.9502ZM108.26 18.2702H111.58V28.9502H108.26V18.2702ZM109.92 12.9502C108.86 12.9502 108 13.8102 108 14.8702C108 15.9302 108.86 16.8102 109.92 16.8102C110.98 16.8102 111.84 15.9302 111.84 14.8702C111.84 13.8102 110.98 12.9502 109.92 12.9502Z" fill="#011813"/>
</g>
</g>
<rect x="96.5" y="1.4502" width="39" height="39" rx="19.5" stroke="#011813"/>
</g>
<g clip-path="url(#clip9_48_1826)">
<g clip-path="url(#clip10_48_1826)">
<g clip-path="url(#clip11_48_1826)">
<path d="M168.45 15.5002C168.185 15.5002 167.93 15.6055 167.743 15.7931C167.555 15.9806 167.45 16.235 167.45 16.5002C167.45 16.7654 167.555 17.0198 167.743 17.2073C167.93 17.3948 168.185 17.5002 168.45 17.5002C168.715 17.5002 168.97 17.3948 169.157 17.2073C169.345 17.0198 169.45 16.7654 169.45 16.5002C169.45 16.235 169.345 15.9806 169.157 15.7931C168.97 15.6055 168.715 15.5002 168.45 15.5002ZM172.283 17.5172C172.267 16.8258 172.138 16.1417 171.9 15.4922C171.688 14.9364 171.358 14.4332 170.933 14.0172C170.52 13.5898 170.016 13.2619 169.458 13.0582C168.81 12.8136 168.125 12.6813 167.433 12.6672C166.55 12.6172 166.267 12.6172 164 12.6172C161.733 12.6172 161.45 12.6172 160.566 12.6672C159.874 12.6814 159.19 12.8137 158.542 13.0582C157.985 13.2639 157.481 13.5916 157.067 14.0172C156.64 14.4298 156.312 14.9342 156.108 15.4922C155.863 16.14 155.73 16.8248 155.716 17.5172C155.666 18.4002 155.666 18.6832 155.666 20.9502C155.666 23.2172 155.666 23.5002 155.716 24.3832C155.731 25.0762 155.863 25.7602 156.108 26.4082C156.312 26.9662 156.639 27.4712 157.066 27.8832C157.481 28.3092 157.985 28.6362 158.542 28.8422C159.19 29.0867 159.874 29.219 160.566 29.2332C161.45 29.2832 161.733 29.2832 164 29.2832C166.267 29.2832 166.55 29.2832 167.433 29.2332C168.125 29.2191 168.81 29.0869 169.458 28.8422C170.016 28.6385 170.52 28.3105 170.933 27.8832C171.36 27.4692 171.69 26.9652 171.9 26.4082C172.138 25.7582 172.267 25.0752 172.283 24.3832C172.283 23.5002 172.333 23.2172 172.333 20.9502C172.333 18.6832 172.333 18.4002 172.283 17.5172ZM170.783 24.2832C170.777 24.8121 170.681 25.3363 170.5 25.8332C170.367 26.1959 170.153 26.5238 169.875 26.7922C169.605 27.0672 169.277 27.2802 168.916 27.4172C168.419 27.5985 167.895 27.6942 167.366 27.7002C166.533 27.7422 166.225 27.7502 164.033 27.7502C161.842 27.7502 161.533 27.7502 160.7 27.7002C160.151 27.7105 159.604 27.6259 159.083 27.4502C158.738 27.3069 158.426 27.0942 158.166 26.8252C157.89 26.5575 157.679 26.2297 157.55 25.8672C157.347 25.3629 157.234 24.8267 157.217 24.2832C157.217 23.4502 157.167 23.1422 157.167 20.9502C157.167 18.7582 157.167 18.4502 157.217 17.6172C157.22 17.0762 157.319 16.54 157.508 16.0332C157.655 15.6816 157.88 15.3683 158.167 15.1172C158.42 14.8302 158.733 14.6032 159.083 14.4502C159.591 14.267 160.126 14.1714 160.666 14.1672C161.5 14.1672 161.808 14.1172 164 14.1172C166.191 14.1172 166.5 14.1172 167.333 14.1672C167.862 14.1731 168.386 14.2688 168.883 14.4502C169.262 14.5902 169.602 14.8192 169.875 15.1172C170.148 15.3732 170.361 15.6862 170.5 16.0332C170.685 16.541 170.78 17.0768 170.783 17.6172C170.825 18.4502 170.833 18.7582 170.833 20.9502C170.833 23.1422 170.825 23.4502 170.783 24.2832ZM164 16.6752C163.155 16.6768 162.329 16.9288 161.627 17.3995C160.925 17.8702 160.378 18.5385 160.056 19.3198C159.734 20.101 159.65 20.9604 159.816 21.7891C159.982 22.6178 160.39 23.3788 160.988 23.9759C161.586 24.573 162.348 24.9793 163.177 25.1436C164.006 25.3079 164.865 25.2228 165.646 24.899C166.427 24.5752 167.094 24.0273 167.563 23.3244C168.032 22.6216 168.283 21.7954 168.283 20.9502C168.284 20.3878 168.174 19.8307 167.959 19.311C167.744 18.7912 167.429 18.3191 167.031 17.9218C166.633 17.5245 166.16 17.2098 165.64 16.9959C165.12 16.7819 164.562 16.6729 164 16.6752ZM164 23.7252C163.636 23.7252 163.275 23.6534 162.938 23.514C162.601 23.3745 162.295 23.1701 162.038 22.9124C161.78 22.6547 161.576 22.3488 161.436 22.0121C161.297 21.6755 161.225 21.3146 161.225 20.9502C161.225 20.5858 161.297 20.2249 161.436 19.8882C161.576 19.5516 161.78 19.2456 162.038 18.988C162.295 18.7303 162.601 18.5259 162.938 18.3864C163.275 18.247 163.636 18.1752 164 18.1752C164.736 18.1752 165.442 18.4676 165.962 18.988C166.483 19.5084 166.775 20.2142 166.775 20.9502C166.775 21.6862 166.483 22.392 165.962 22.9124C165.442 23.4328 164.736 23.7252 164 23.7252Z" fill="#011813"/>
</g>
</g>
<rect x="144.5" y="1.4502" width="39" height="39" rx="19.5" stroke="#011813"/>
</g>
<defs>
<clipPath id="clip0_48_1826">
<rect y="0.950195" width="40" height="40" rx="20" fill="white"/>
</clipPath>
<clipPath id="clip1_48_1826">
<rect width="20" height="20" fill="white" transform="translate(10 10.9502)"/>
</clipPath>
<clipPath id="clip2_48_1826">
<rect width="20" height="20" fill="white" transform="translate(10 10.9502)"/>
</clipPath>
<clipPath id="clip3_48_1826">
<rect x="48" y="0.950195" width="40" height="40" rx="20" fill="white"/>
</clipPath>
<clipPath id="clip4_48_1826">
<rect width="20" height="20" fill="white" transform="translate(58 10.9502)"/>
</clipPath>
<clipPath id="clip5_48_1826">
<rect width="20" height="20" fill="white" transform="translate(58 10.9502)"/>
</clipPath>
<clipPath id="clip6_48_1826">
<rect x="96" y="0.950195" width="40" height="40" rx="20" fill="white"/>
</clipPath>
<clipPath id="clip7_48_1826">
<rect width="20" height="20" fill="white" transform="translate(106 10.9502)"/>
</clipPath>
<clipPath id="clip8_48_1826">
<rect width="20" height="20" fill="white" transform="translate(106 10.9502)"/>
</clipPath>
<clipPath id="clip9_48_1826">
<rect x="144" y="0.950195" width="40" height="40" rx="20" fill="white"/>
</clipPath>
<clipPath id="clip10_48_1826">
<rect width="20" height="20" fill="white" transform="translate(154 10.9502)"/>
</clipPath>
<clipPath id="clip11_48_1826">
<rect width="20" height="20" fill="white" transform="translate(154 10.9502)"/>
</clipPath>
</defs>
</svg>
