<svg width="76" height="13" viewBox="0 0 76 13" fill="none" xmlns="http://www.w3.org/2000/svg">
<path d="M2.828 12.3376L4.326 7.88561L0.714 5.46361H5.138L6.72 0.689609L8.33 5.46361H12.726L9.114 7.88561L10.64 12.3376L6.72 9.49561L2.828 12.3376ZM18.5075 12.3376L20.0055 7.88561L16.3935 5.46361H20.8175L22.3995 0.689609L24.0095 5.46361H28.4055L24.7935 7.88561L26.3195 12.3376L22.3995 9.49561L18.5075 12.3376ZM34.1869 12.3376L35.6849 7.88561L32.0729 5.46361H36.4969L38.0789 0.689609L39.6889 5.46361H44.0849L40.4729 7.88561L41.9989 12.3376L38.0789 9.49561L34.1869 12.3376ZM49.8664 12.3376L51.3644 7.88561L47.7524 5.46361H52.1764L53.7584 0.689609L55.3684 5.46361H59.7644L56.1524 7.88561L57.6784 12.3376L53.7584 9.49561L49.8664 12.3376ZM65.5458 12.3376L67.0438 7.88561L63.4318 5.46361H67.8558L69.4378 0.689609L71.0478 5.46361H75.4438L71.8318 7.88561L73.3578 12.3376L69.4378 9.49561L65.5458 12.3376Z" fill="#E9A772"/>
</svg>
