<svg width="20" height="21" viewBox="0 0 20 21" fill="none" xmlns="http://www.w3.org/2000/svg">
<g clip-path="url(#clip0_32_92)">
<path d="M19.0416 6.05C18.9534 5.71996 18.741 5.50789 18.4234 5.40022C17.8209 5.1961 17.2167 4.99685 16.6132 4.79597C14.5195 4.09905 12.4257 3.40285 10.3324 2.70485C10.084 2.62193 9.83706 2.61651 9.58868 2.696C9.3085 2.78577 9.02905 2.87754 8.74977 2.97039C6.76866 3.62992 4.78737 4.28873 2.80698 4.95024C2.31761 5.11372 1.82934 5.28082 1.34413 5.45586C1.06774 5.55576 0.902998 5.76313 0.856031 6.05379C0.836341 6.17464 0.832186 6.29928 0.832006 6.4223C0.830741 8.62723 0.831102 10.8322 0.831102 13.0371C0.831102 13.0792 0.831102 13.1215 0.83309 13.1634C0.85278 13.5178 1.09213 13.8247 1.43788 13.9398C1.77424 14.0516 2.15142 13.9445 2.37813 13.6755C2.54468 13.4779 2.59472 13.2448 2.59436 12.995C2.59346 12.4234 2.59129 11.8521 2.59111 11.2805C2.59057 10.0442 2.59093 8.80787 2.59111 7.57155C2.59111 7.54048 2.59454 7.50923 2.59707 7.4675C3.40039 7.73522 4.19052 7.99877 4.99005 8.26522C4.29529 9.53171 4.08358 10.8614 4.39447 12.2654C4.70554 13.6699 5.44545 14.7976 6.61855 15.6546C6.58639 15.6696 6.57302 15.6761 6.5593 15.6821C5.17485 16.2912 4.03138 17.2011 3.13936 18.4244C2.99448 18.6233 2.83769 18.8164 2.77536 19.0621C2.68884 19.4033 2.76326 19.703 3.0326 19.9362C3.28749 20.157 3.58157 20.2298 3.90547 20.1078C4.13109 20.0227 4.2868 19.8509 4.42012 19.6577C4.75304 19.1753 5.1286 18.729 5.58075 18.3554C7.22894 16.9926 9.10419 16.4641 11.2177 16.8611C12.805 17.1594 14.1022 17.9528 15.1209 19.2028C15.2992 19.4217 15.4515 19.6627 15.6379 19.8739C16.0288 20.3166 16.7512 20.235 17.0351 19.7214C17.2254 19.3773 17.1719 19.0424 16.9596 18.7266C16.0859 17.426 14.9437 16.437 13.5227 15.7728C13.4427 15.7354 13.3625 15.6983 13.2693 15.6552C14.4391 14.7978 15.176 13.673 15.4896 12.2715C15.8044 10.8647 15.5889 9.53478 14.9034 8.271C14.9292 8.26143 14.9428 8.25583 14.9567 8.25131C15.6057 8.03382 16.2551 7.81687 16.904 7.59865C17.4163 7.4265 17.9288 7.25416 18.44 7.07858C18.6996 6.98952 18.897 6.82532 18.9993 6.56555C19.03 6.48751 19.0484 6.41562 19.1644 6.45265C19.12 6.30795 19.0762 6.18024 19.0416 6.05ZM12.7118 13.8292C12.0415 14.509 11.224 14.8811 10.2697 14.9515C9.13147 15.0357 8.13215 14.6977 7.28205 13.9441C6.79341 13.5111 6.48053 12.9511 6.24931 12.3461C6.08818 11.9241 6.00382 11.4863 6.00653 11.0164C6.004 10.3283 6.22059 9.68634 6.56652 9.08173C6.61385 8.99936 6.64944 8.87941 6.72043 8.85033C6.78654 8.82323 6.8933 8.89296 6.98128 8.92258C7.82344 9.20547 8.66523 9.48872 9.50721 9.77197C9.79895 9.87006 10.0907 9.87168 10.3831 9.77377C11.2824 9.47246 12.182 9.17259 13.0805 8.86875C13.1585 8.84238 13.1988 8.85123 13.2471 8.92385C13.617 9.48023 13.8271 10.0917 13.856 10.757C13.9075 11.9393 13.5505 12.9784 12.7118 13.8292ZM14.9695 6.38942C13.3493 6.92792 11.7286 7.46552 10.1088 8.00528C10.0009 8.04122 9.90065 8.04068 9.79263 8.00474C8.06405 7.42921 6.33494 6.85566 4.60582 6.28158C4.578 6.27237 4.55109 6.26099 4.50683 6.24401C4.55163 6.22775 4.58017 6.21655 4.60907 6.20679C6.34866 5.62765 8.08826 5.04761 9.8293 4.47226C9.90029 4.44878 9.99278 4.44878 10.0638 4.47244C11.8104 5.05032 13.5554 5.63289 15.3006 6.21474C15.3221 6.22197 15.3431 6.23046 15.3852 6.24635C15.2338 6.29856 15.1021 6.34553 14.9695 6.38942Z" fill="#AAC191"/>
</g>
<defs>
<clipPath id="clip0_32_92">
<rect width="20" height="20" fill="white" transform="translate(0 0.975098)"/>
</clipPath>
</defs>
</svg>
