<svg width="31" height="31" viewBox="0 0 31 31" fill="none" xmlns="http://www.w3.org/2000/svg">
<path d="M10.5552 7.79385C10.3281 7.79385 10.1437 7.97933 10.1437 8.20643C10.1437 8.43404 10.3281 8.61798 10.5552 8.61798C10.7823 8.61798 10.9668 8.43404 10.9668 8.20643V8.20386C10.9668 7.97625 10.7823 7.79385 10.5552 7.79385ZM10.5552 3.95324C9.79171 3.95324 9.17105 4.57339 9.17105 5.33586C9.17098 5.38988 9.18156 5.44338 9.20219 5.49331C9.22282 5.54324 9.25308 5.58861 9.29126 5.62684C9.32943 5.66506 9.37477 5.69538 9.42467 5.71607C9.47457 5.73676 9.52807 5.74741 9.58209 5.74741C9.8097 5.74741 9.99364 5.56347 9.99364 5.33586C9.99364 5.02707 10.2454 4.77582 10.5552 4.77582C10.864 4.77582 11.1153 5.02707 11.1153 5.33586C11.1153 5.55473 10.9868 5.75511 10.7874 5.84606C10.3903 6.02743 10.1437 6.41123 10.1437 6.84796V7.03703C10.1437 7.26413 10.3281 7.44858 10.5552 7.44858C10.7823 7.44858 10.9668 7.26413 10.9668 7.03703V6.84796C10.9668 6.73235 11.0243 6.64244 11.1296 6.59414C11.6208 6.37013 11.9378 5.87637 11.9378 5.33586C11.9378 4.57339 11.3177 3.95324 10.5552 3.95324ZM21.0952 10.1167C20.8681 10.1167 20.6837 10.3022 20.6837 10.5298C20.6837 10.7569 20.8681 10.9408 21.0952 10.9408C21.3223 10.9408 21.5068 10.7569 21.5068 10.5298V10.5267C21.5068 10.2996 21.3223 10.1167 21.0952 10.1167ZM21.0952 6.2761C20.3327 6.2761 19.7126 6.89625 19.7126 7.65924C19.7126 7.88634 19.8965 8.07028 20.1236 8.07028C20.1776 8.07034 20.2311 8.05976 20.2811 8.03913C20.331 8.01851 20.3764 7.98824 20.4146 7.95007C20.4528 7.91189 20.4831 7.86656 20.5038 7.81665C20.5245 7.76675 20.5352 7.71326 20.5352 7.65924C20.5352 7.35045 20.7864 7.0992 21.0952 7.0992C21.405 7.0992 21.6568 7.35045 21.6568 7.65924C21.6568 7.87812 21.5278 8.07798 21.3269 8.16944C20.9303 8.35132 20.6837 8.73513 20.6837 9.17082V9.3599C20.6837 9.58751 20.8681 9.77145 21.0952 9.77145C21.3223 9.77145 21.5068 9.58751 21.5068 9.3599V9.17082C21.5068 9.05728 21.5664 8.96479 21.6691 8.91752C22.1613 8.69402 22.4794 8.19975 22.4794 7.65924C22.4794 6.89625 21.8587 6.2761 21.0952 6.2761ZM21.0952 6.2761C20.3327 6.2761 19.7126 6.89625 19.7126 7.65924C19.7126 7.88634 19.8965 8.07028 20.1236 8.07028C20.1776 8.07034 20.2311 8.05976 20.2811 8.03913C20.331 8.01851 20.3764 7.98824 20.4146 7.95007C20.4528 7.91189 20.4831 7.86656 20.5038 7.81665C20.5245 7.76675 20.5352 7.71326 20.5352 7.65924C20.5352 7.35045 20.7864 7.0992 21.0952 7.0992C21.405 7.0992 21.6568 7.35045 21.6568 7.65924C21.6568 7.87812 21.5278 8.07798 21.3269 8.16944C20.9303 8.35132 20.6837 8.73513 20.6837 9.17082V9.3599C20.6837 9.58751 20.8681 9.77145 21.0952 9.77145C21.3223 9.77145 21.5068 9.58751 21.5068 9.3599V9.17082C21.5068 9.05728 21.5664 8.96479 21.6691 8.91752C22.1613 8.69402 22.4794 8.19975 22.4794 7.65924C22.4794 6.89625 21.8587 6.2761 21.0952 6.2761ZM21.0952 10.1167C20.8681 10.1167 20.6837 10.3022 20.6837 10.5298C20.6837 10.7569 20.8681 10.9408 21.0952 10.9408C21.3223 10.9408 21.5068 10.7569 21.5068 10.5298V10.5267C21.5068 10.2996 21.3223 10.1167 21.0952 10.1167ZM10.5552 3.95324C9.79171 3.95324 9.17105 4.57339 9.17105 5.33586C9.17098 5.38988 9.18156 5.44338 9.20219 5.49331C9.22282 5.54324 9.25308 5.58861 9.29126 5.62684C9.32943 5.66506 9.37477 5.69538 9.42467 5.71607C9.47457 5.73676 9.52807 5.74741 9.58209 5.74741C9.8097 5.74741 9.99364 5.56347 9.99364 5.33586C9.99364 5.02707 10.2454 4.77582 10.5552 4.77582C10.864 4.77582 11.1153 5.02707 11.1153 5.33586C11.1153 5.55473 10.9868 5.75511 10.7874 5.84606C10.3903 6.02743 10.1437 6.41123 10.1437 6.84796V7.03703C10.1437 7.26413 10.3281 7.44858 10.5552 7.44858C10.7823 7.44858 10.9668 7.26413 10.9668 7.03703V6.84796C10.9668 6.73235 11.0243 6.64244 11.1296 6.59414C11.6208 6.37013 11.9378 5.87637 11.9378 5.33586C11.9378 4.57339 11.3177 3.95324 10.5552 3.95324ZM10.5552 7.79385C10.3281 7.79385 10.1437 7.97933 10.1437 8.20643C10.1437 8.43404 10.3281 8.61798 10.5552 8.61798C10.7823 8.61798 10.9668 8.43404 10.9668 8.20643V8.20386C10.9668 7.97625 10.7823 7.79385 10.5552 7.79385ZM27.1924 11.2507V5.9668C27.1924 5.16579 26.5409 4.51379 25.7399 4.51379H16.6509V3.64342C16.6509 2.84241 15.9999 2.19092 15.1994 2.19092H5.91051C5.1095 2.19092 4.45801 2.84241 4.45801 3.64342V8.9278C4.45801 9.72881 5.1095 10.3803 5.91051 10.3803H10.7345C9.374 11.6561 8.58687 13.442 8.45071 15.5779C8.44968 15.5902 8.44968 15.6025 8.4502 15.6148C8.51391 17.9819 9.49731 19.3527 10.3651 20.5617C11.5448 22.2063 12.4768 23.5047 11.0783 26.8906C10.9272 27.2544 10.9657 27.6515 11.1851 27.9834C11.4061 28.3107 11.758 28.4983 12.1516 28.4983H19.9679C20.5054 28.4983 20.9698 28.1335 21.0978 27.6099L21.423 26.2648C23.4751 26.644 24.5962 26.5155 25.1393 25.8502C25.5169 25.3877 25.5514 24.7321 25.242 23.8525C25.5483 23.6419 25.7373 23.3367 25.7471 23.0078C25.7528 22.8116 25.6937 22.6271 25.5791 22.4673C25.7271 22.3224 25.8432 22.1426 25.8884 21.935C25.9074 21.8477 25.9192 21.7244 25.8925 21.581C26.3051 21.5199 26.7295 21.3704 26.9381 20.9835C27.1518 20.5863 27.0676 20.0885 26.6796 19.4611C26.6719 19.4483 26.6632 19.4365 26.6545 19.4246C25.2282 17.5935 25.2313 16.8587 25.2354 16.0079C25.2364 15.7664 25.2374 15.5172 25.2117 15.2316C25.13 14.334 24.8834 13.4867 24.478 12.7032H25.7399C26.5409 12.7032 27.1924 12.0517 27.1924 11.2507ZM5.91051 9.55771C5.56318 9.55771 5.28059 9.27512 5.28059 8.9278V3.64342C5.28059 3.29609 5.56318 3.0135 5.91051 3.0135H15.1994C15.5462 3.0135 15.8283 3.29609 15.8283 3.64342V8.9278C15.8283 9.23042 15.614 9.48373 15.3299 9.54384C15.3279 9.54384 15.3263 9.54435 15.3243 9.54487C15.2842 9.55309 15.2426 9.55771 15.1994 9.55771H13.36C13.1802 9.55771 13.0163 9.6317 12.8986 9.76734C12.781 9.90195 12.7286 10.0808 12.7548 10.2524L12.9274 11.504L11.3495 9.75861C11.3485 9.75706 11.347 9.75552 11.3454 9.75398C11.2278 9.62707 11.068 9.55771 10.8959 9.55771H5.91051ZM25.9912 19.9122C26.2953 20.4111 26.2229 20.5755 26.2136 20.5925C26.1129 20.7795 25.4429 20.7985 25.2225 20.8047L25.1845 20.8057C25.0149 20.8103 24.8654 20.9193 24.8089 21.0796C24.7812 21.1577 24.7777 21.2424 24.799 21.3226C24.8202 21.4027 24.8653 21.4745 24.9281 21.5286C25.0355 21.6211 25.0951 21.7095 25.0843 21.7603C25.0643 21.8523 24.8942 21.9895 24.7467 22.0321C24.5787 22.081 24.4601 22.231 24.4508 22.4057C24.4416 22.5804 24.5443 22.7422 24.7062 22.808C24.8577 22.8701 24.9255 22.9426 24.9245 22.9837C24.9225 23.052 24.8151 23.1892 24.5911 23.2653C24.5374 23.2835 24.4881 23.3126 24.4461 23.3508C24.4042 23.389 24.3707 23.4354 24.3475 23.4872C24.3244 23.5389 24.3122 23.5948 24.3118 23.6514C24.3113 23.708 24.3226 23.764 24.345 23.816C24.5628 24.3278 24.7668 25.0055 24.5017 25.3297C24.1646 25.7428 23.0528 25.7608 21.198 25.3826C21.0936 25.3612 20.985 25.3812 20.8951 25.4383C20.8052 25.4954 20.741 25.5853 20.716 25.6888L20.2978 27.4157C20.2593 27.5734 20.1298 27.6757 19.9679 27.6757H12.1516C12.0313 27.6757 11.9358 27.6243 11.8695 27.5262C11.8027 27.4249 11.7919 27.317 11.8382 27.2055C12.5513 25.4802 12.7558 24.1007 12.4814 22.865C12.2358 21.7573 11.6517 20.9434 11.0336 20.0823C10.1986 18.918 9.33495 17.7142 9.2733 15.6112C9.39969 13.6855 10.1062 12.0856 11.3233 10.9563L12.7748 12.5629C12.8935 12.696 13.0595 12.7669 13.23 12.7669C13.3148 12.7669 13.4011 12.7494 13.4828 12.7129C13.4854 12.7114 13.488 12.7104 13.491 12.7088C13.7325 12.5948 13.8712 12.3394 13.8363 12.0712L13.603 10.3803H14.9995V11.2507C14.9995 12.0517 15.6505 12.7032 16.4505 12.7032H18.0479L17.8136 14.3966C17.7792 14.6623 17.9179 14.9176 18.162 15.0332C18.2457 15.0723 18.3341 15.0908 18.4214 15.0908C18.591 15.0908 18.7559 15.0204 18.8736 14.8878L20.8491 12.7032H23.5342C24.0187 13.4949 24.3075 14.3689 24.3922 15.3055C24.4143 15.5522 24.4133 15.7818 24.4123 16.0043C24.4082 16.9636 24.404 17.8694 25.9912 19.9122ZM20.7546 11.8806C20.5794 11.8806 20.418 11.9525 20.3009 12.083L18.723 13.8273L18.8951 12.5804C18.9219 12.4005 18.871 12.2269 18.7518 12.0902C18.6341 11.9551 18.4702 11.8806 18.2904 11.8806H16.4505C16.1042 11.8806 15.8221 11.598 15.8221 11.2507V10.2395C16.3118 10.0057 16.6509 9.50582 16.6509 8.9278V5.33689H25.7399C26.0872 5.33689 26.3698 5.61947 26.3698 5.9668V11.2507C26.3698 11.598 26.0872 11.8806 25.7399 11.8806H20.7546ZM21.0952 6.2761C20.3327 6.2761 19.7126 6.89625 19.7126 7.65924C19.7126 7.88634 19.8965 8.07028 20.1236 8.07028C20.1776 8.07034 20.2311 8.05976 20.2811 8.03913C20.331 8.01851 20.3764 7.98824 20.4146 7.95007C20.4528 7.91189 20.4831 7.86656 20.5038 7.81665C20.5245 7.76675 20.5352 7.71326 20.5352 7.65924C20.5352 7.35045 20.7864 7.0992 21.0952 7.0992C21.405 7.0992 21.6568 7.35045 21.6568 7.65924C21.6568 7.87812 21.5278 8.07798 21.3269 8.16944C20.9303 8.35132 20.6837 8.73513 20.6837 9.17082V9.3599C20.6837 9.58751 20.8681 9.77145 21.0952 9.77145C21.3223 9.77145 21.5068 9.58751 21.5068 9.3599V9.17082C21.5068 9.05728 21.5664 8.96479 21.6691 8.91752C22.1613 8.69402 22.4794 8.19975 22.4794 7.65924C22.4794 6.89625 21.8587 6.2761 21.0952 6.2761ZM21.0952 10.1167C20.8681 10.1167 20.6837 10.3022 20.6837 10.5298C20.6837 10.7569 20.8681 10.9408 21.0952 10.9408C21.3223 10.9408 21.5068 10.7569 21.5068 10.5298V10.5267C21.5068 10.2996 21.3223 10.1167 21.0952 10.1167ZM10.5552 4.77582C10.864 4.77582 11.1153 5.02707 11.1153 5.33586C11.1153 5.55473 10.9868 5.75511 10.7874 5.84606C10.3903 6.02743 10.1437 6.41123 10.1437 6.84796V7.03703C10.1437 7.26413 10.3281 7.44858 10.5552 7.44858C10.7823 7.44858 10.9668 7.26413 10.9668 7.03703V6.84796C10.9668 6.73235 11.0243 6.64244 11.1296 6.59414C11.6208 6.37013 11.9378 5.87637 11.9378 5.33586C11.9378 4.57339 11.3177 3.95324 10.5552 3.95324C9.79171 3.95324 9.17105 4.57339 9.17105 5.33586C9.17098 5.38988 9.18156 5.44338 9.20219 5.49331C9.22282 5.54324 9.25308 5.58861 9.29126 5.62684C9.32943 5.66506 9.37477 5.69538 9.42467 5.71607C9.47457 5.73676 9.52807 5.74741 9.58209 5.74741C9.8097 5.74741 9.99364 5.56347 9.99364 5.33586C9.99364 5.02707 10.2454 4.77582 10.5552 4.77582ZM10.9668 8.20386C10.9668 7.97625 10.7823 7.79385 10.5552 7.79385C10.3281 7.79385 10.1437 7.97933 10.1437 8.20643C10.1437 8.43404 10.3281 8.61798 10.5552 8.61798C10.7823 8.61798 10.9668 8.43404 10.9668 8.20643V8.20386ZM21.0952 10.1167C20.8681 10.1167 20.6837 10.3022 20.6837 10.5298C20.6837 10.7569 20.8681 10.9408 21.0952 10.9408C21.3223 10.9408 21.5068 10.7569 21.5068 10.5298V10.5267C21.5068 10.2996 21.3223 10.1167 21.0952 10.1167ZM21.0952 6.2761C20.3327 6.2761 19.7126 6.89625 19.7126 7.65924C19.7126 7.88634 19.8965 8.07028 20.1236 8.07028C20.1776 8.07034 20.2311 8.05976 20.2811 8.03913C20.331 8.01851 20.3764 7.98824 20.4146 7.95007C20.4528 7.91189 20.4831 7.86656 20.5038 7.81665C20.5245 7.76675 20.5352 7.71326 20.5352 7.65924C20.5352 7.35045 20.7864 7.0992 21.0952 7.0992C21.405 7.0992 21.6568 7.35045 21.6568 7.65924C21.6568 7.87812 21.5278 8.07798 21.3269 8.16944C20.9303 8.35132 20.6837 8.73513 20.6837 9.17082V9.3599C20.6837 9.58751 20.8681 9.77145 21.0952 9.77145C21.3223 9.77145 21.5068 9.58751 21.5068 9.3599V9.17082C21.5068 9.05728 21.5664 8.96479 21.6691 8.91752C22.1613 8.69402 22.4794 8.19975 22.4794 7.65924C22.4794 6.89625 21.8587 6.2761 21.0952 6.2761ZM10.5552 7.79385C10.3281 7.79385 10.1437 7.97933 10.1437 8.20643C10.1437 8.43404 10.3281 8.61798 10.5552 8.61798C10.7823 8.61798 10.9668 8.43404 10.9668 8.20643V8.20386C10.9668 7.97625 10.7823 7.79385 10.5552 7.79385ZM10.5552 3.95324C9.79171 3.95324 9.17105 4.57339 9.17105 5.33586C9.17098 5.38988 9.18156 5.44338 9.20219 5.49331C9.22282 5.54324 9.25308 5.58861 9.29126 5.62684C9.32943 5.66506 9.37477 5.69538 9.42467 5.71607C9.47457 5.73676 9.52807 5.74741 9.58209 5.74741C9.8097 5.74741 9.99364 5.56347 9.99364 5.33586C9.99364 5.02707 10.2454 4.77582 10.5552 4.77582C10.864 4.77582 11.1153 5.02707 11.1153 5.33586C11.1153 5.55473 10.9868 5.75511 10.7874 5.84606C10.3903 6.02743 10.1437 6.41123 10.1437 6.84796V7.03703C10.1437 7.26413 10.3281 7.44858 10.5552 7.44858C10.7823 7.44858 10.9668 7.26413 10.9668 7.03703V6.84796C10.9668 6.73235 11.0243 6.64244 11.1296 6.59414C11.6208 6.37013 11.9378 5.87637 11.9378 5.33586C11.9378 4.57339 11.3177 3.95324 10.5552 3.95324ZM10.5552 3.95324C9.79171 3.95324 9.17105 4.57339 9.17105 5.33586C9.17098 5.38988 9.18156 5.44338 9.20219 5.49331C9.22282 5.54324 9.25308 5.58861 9.29126 5.62684C9.32943 5.66506 9.37477 5.69538 9.42467 5.71607C9.47457 5.73676 9.52807 5.74741 9.58209 5.74741C9.8097 5.74741 9.99364 5.56347 9.99364 5.33586C9.99364 5.02707 10.2454 4.77582 10.5552 4.77582C10.864 4.77582 11.1153 5.02707 11.1153 5.33586C11.1153 5.55473 10.9868 5.75511 10.7874 5.84606C10.3903 6.02743 10.1437 6.41123 10.1437 6.84796V7.03703C10.1437 7.26413 10.3281 7.44858 10.5552 7.44858C10.7823 7.44858 10.9668 7.26413 10.9668 7.03703V6.84796C10.9668 6.73235 11.0243 6.64244 11.1296 6.59414C11.6208 6.37013 11.9378 5.87637 11.9378 5.33586C11.9378 4.57339 11.3177 3.95324 10.5552 3.95324ZM10.5552 7.79385C10.3281 7.79385 10.1437 7.97933 10.1437 8.20643C10.1437 8.43404 10.3281 8.61798 10.5552 8.61798C10.7823 8.61798 10.9668 8.43404 10.9668 8.20643V8.20386C10.9668 7.97625 10.7823 7.79385 10.5552 7.79385ZM21.0952 6.2761C20.3327 6.2761 19.7126 6.89625 19.7126 7.65924C19.7126 7.88634 19.8965 8.07028 20.1236 8.07028C20.1776 8.07034 20.2311 8.05976 20.2811 8.03913C20.331 8.01851 20.3764 7.98824 20.4146 7.95007C20.4528 7.91189 20.4831 7.86656 20.5038 7.81665C20.5245 7.76675 20.5352 7.71326 20.5352 7.65924C20.5352 7.35045 20.7864 7.0992 21.0952 7.0992C21.405 7.0992 21.6568 7.35045 21.6568 7.65924C21.6568 7.87812 21.5278 8.07798 21.3269 8.16944C20.9303 8.35132 20.6837 8.73513 20.6837 9.17082V9.3599C20.6837 9.58751 20.8681 9.77145 21.0952 9.77145C21.3223 9.77145 21.5068 9.58751 21.5068 9.3599V9.17082C21.5068 9.05728 21.5664 8.96479 21.6691 8.91752C22.1613 8.69402 22.4794 8.19975 22.4794 7.65924C22.4794 6.89625 21.8587 6.2761 21.0952 6.2761ZM21.0952 10.1167C20.8681 10.1167 20.6837 10.3022 20.6837 10.5298C20.6837 10.7569 20.8681 10.9408 21.0952 10.9408C21.3223 10.9408 21.5068 10.7569 21.5068 10.5298V10.5267C21.5068 10.2996 21.3223 10.1167 21.0952 10.1167Z" fill="black"/>
<path fill-rule="evenodd" clip-rule="evenodd" d="M16.6506 5.33705H25.7396C26.0869 5.33705 26.3695 5.61964 26.3695 5.96697V11.2508C26.3695 11.5982 26.0869 11.8807 25.7396 11.8807H20.7542C20.579 11.8807 20.4177 11.9527 20.3006 12.0832L18.7227 13.8275L18.8948 12.5805C18.9215 12.4007 18.8707 12.227 18.7515 12.0904C18.6338 11.9552 18.4699 11.8807 18.2901 11.8807H16.4502C16.1039 11.8807 15.8218 11.5982 15.8218 11.2508V10.2397C16.3115 10.0059 16.6506 9.50599 16.6506 8.92797V5.33705ZM21.0949 10.941C21.322 10.941 21.5064 10.7571 21.5064 10.53V10.5269C21.5064 10.2998 21.322 10.1169 21.0949 10.1169C20.8678 10.1169 20.6833 10.3024 20.6833 10.53C20.6833 10.7571 20.8678 10.941 21.0949 10.941ZM21.5064 9.17099C21.5064 9.05744 21.566 8.96496 21.6688 8.91769C22.161 8.69419 22.479 8.19992 22.479 7.65941C22.479 6.89642 21.8584 6.27627 21.0949 6.27627C20.3324 6.27627 19.7123 6.89642 19.7123 7.65941C19.7123 7.8865 19.8962 8.07044 20.1233 8.07044C20.1773 8.07051 20.2308 8.05993 20.2808 8.0393C20.3307 8.01868 20.3761 7.98841 20.4143 7.95023C20.4525 7.91206 20.4828 7.86672 20.5035 7.81682C20.5242 7.76692 20.5349 7.71343 20.5349 7.65941C20.5349 7.35062 20.7861 7.09937 21.0949 7.09937C21.4047 7.09937 21.6565 7.35062 21.6565 7.65941C21.6565 7.87828 21.5275 8.07815 21.3266 8.16961C20.93 8.35149 20.6833 8.73529 20.6833 9.17099V9.36007C20.6833 9.58768 20.8678 9.77162 21.0949 9.77162C21.322 9.77162 21.5064 9.58768 21.5064 9.36007V9.17099Z" fill="#E9A772"/>
<path fill-rule="evenodd" clip-rule="evenodd" d="M15.828 3.64358C15.828 3.29626 15.5459 3.01367 15.1991 3.01367H5.91019C5.56286 3.01367 5.28027 3.29626 5.28027 3.64358V8.92797C5.28027 9.27529 5.56286 9.55788 5.91019 9.55788H10.8955C10.981 9.55751 11.0657 9.57521 11.1439 9.60983C11.222 9.64445 11.292 9.69521 11.3492 9.75877L12.9271 11.5041L12.7545 10.2525C12.7282 10.0809 12.7807 9.90212 12.8983 9.76751C13.016 9.63187 13.1799 9.55788 13.3597 9.55788H15.1991C15.2422 9.55788 15.2839 9.55326 15.3239 9.54503C15.326 9.54452 15.3275 9.54401 15.3296 9.54401C15.6137 9.48389 15.828 9.23059 15.828 8.92797V3.64358ZM10.5549 8.61815C10.782 8.61815 10.9664 8.43421 10.9664 8.2066V8.20403C10.9664 7.97642 10.782 7.79402 10.5549 7.79402C10.3278 7.79402 10.1433 7.9795 10.1433 8.2066C10.1433 8.43421 10.3278 8.61815 10.5549 8.61815ZM10.9664 6.84812C10.9664 6.73252 11.024 6.64261 11.1293 6.59431C11.6205 6.3703 11.9375 5.87654 11.9375 5.33603C11.9375 4.57355 11.3174 3.9534 10.5549 3.9534C9.79139 3.9534 9.17073 4.57355 9.17073 5.33603C9.17066 5.39005 9.18124 5.44355 9.20187 5.49348C9.2225 5.54341 9.25276 5.58878 9.29094 5.627C9.32911 5.66523 9.37445 5.69555 9.42435 5.71624C9.47425 5.73693 9.52774 5.74758 9.58177 5.74758C9.80938 5.74758 9.99332 5.56364 9.99332 5.33603C9.99332 5.02723 10.2451 4.77599 10.5549 4.77599C10.8637 4.77599 11.1149 5.02723 11.1149 5.33603C11.1149 5.5549 10.9865 5.75528 10.7871 5.84622C10.39 6.02759 10.1433 6.4114 10.1433 6.84812V7.0372C10.1433 7.2643 10.3278 7.44875 10.5549 7.44875C10.782 7.44875 10.9664 7.2643 10.9664 7.0372V6.84812Z" fill="#AAC191"/>
</svg>
