<svg width="20" height="21" viewBox="0 0 20 21" fill="none" xmlns="http://www.w3.org/2000/svg">
<g clip-path="url(#clip0_32_24)">
<path fill-rule="evenodd" clip-rule="evenodd" d="M9.99992 3.47514C5.85778 3.47514 2.49992 6.833 2.49992 10.9751C2.49992 15.1173 5.85778 18.4751 9.99992 18.4751C14.1421 18.4751 17.4999 15.1173 17.4999 10.9751C17.4999 6.833 14.1421 3.47514 9.99992 3.47514ZM0.833252 10.9751C0.833252 5.91253 4.93731 1.80847 9.99992 1.80847C15.0625 1.80847 19.1666 5.91253 19.1666 10.9751C19.1666 16.0377 15.0625 20.1418 9.99992 20.1418C4.93731 20.1418 0.833252 16.0377 0.833252 10.9751Z" fill="#AAC191"/>
<path fill-rule="evenodd" clip-rule="evenodd" d="M10.0001 5.14172C10.4603 5.14172 10.8334 5.51482 10.8334 5.97506V10.46L13.7061 11.8964C14.1177 12.1022 14.2846 12.6028 14.0788 13.0144C13.8729 13.4261 13.3724 13.5929 12.9607 13.3871L9.6274 11.7204C9.34508 11.5793 9.16675 11.2907 9.16675 10.9751V5.97506C9.16675 5.51482 9.53984 5.14172 10.0001 5.14172Z" fill="#AAC191"/>
</g>
<defs>
<clipPath id="clip0_32_24">
<rect width="20" height="20" fill="white" transform="translate(0 0.975098)"/>
</clipPath>
</defs>
</svg>
