<svg width="158" height="142" viewBox="0 0 158 142" fill="none" xmlns="http://www.w3.org/2000/svg">
<path d="M128.805 42.4483V46.1901C128.805 70.3032 128.578 94.4224 128.891 118.536C129.081 133.239 117.586 142.054 106.078 141.9C78.1863 141.538 50.2946 141.937 22.3967 141.845C9.12254 141.802 0.0502215 132.343 0.013417 119.026C0.00114878 115.652 0.0563556 112.279 0.00114878 108.911C-0.0417898 106.329 1.11755 105.225 3.71841 105.255C9.73595 105.335 15.7474 105.28 22.1207 105.28C22.182 103.936 22.274 102.759 22.2802 101.587C22.4949 73.4868 22.7157 45.3865 22.8874 17.2924C22.9304 10.0848 25.7827 4.55187 32.4627 1.58297C34.7998 0.534041 37.5909 0.0862528 40.1733 0.0801187C73.1808 -0.0180267 106.182 -0.0180267 139.19 0.0371801C150.25 0.0555824 157.04 7.04844 157.058 18.1757C157.071 24.8189 157.003 31.4621 157.089 38.0992C157.126 40.9884 155.893 42.1293 153.034 42.1048C145.269 42.0373 137.503 42.1048 129.737 42.1354C129.553 42.1354 129.369 42.2581 128.799 42.4544L128.805 42.4483ZM128.559 5.22049C126.664 5.22049 125.75 5.22049 124.836 5.22049C96.8278 5.22049 68.8195 5.21435 40.8174 5.22049C32.0886 5.22049 28.1812 9.1463 28.1198 17.961C27.9113 45.865 27.7088 73.7689 27.5064 101.673C27.5003 102.771 27.5064 103.863 27.5064 105.28C28.9111 105.28 30.003 105.28 31.101 105.28C49.6014 105.28 68.1018 105.28 86.6022 105.28C90.3563 105.28 90.8716 105.807 90.8961 109.525C90.9206 113.205 90.7857 116.892 90.9452 120.56C91.442 131.767 102.079 139.312 112.464 135.901C119.444 133.607 123.695 127.185 123.701 118.707C123.72 86.4052 123.75 54.1092 123.677 21.8071C123.664 16.0103 123.744 10.3547 128.566 5.21435L128.559 5.22049ZM85.9275 110.549H5.07404C5.07404 113.487 5.06177 116.223 5.07404 118.959C5.14152 129.927 11.9074 136.674 22.912 136.68C45.283 136.699 67.6602 136.686 90.0312 136.68C90.89 136.68 91.7426 136.57 93.2761 136.472C84.9399 129.24 85.6514 119.959 85.9213 110.549H85.9275ZM151.716 36.7313C151.716 29.3029 152.102 22.0524 151.593 14.8633C151.188 9.12177 146.042 5.22049 140.343 5.25116C134.755 5.28183 129.424 9.38553 129.056 14.943C128.584 22.1383 128.94 29.3888 128.94 36.7313H151.709H151.716Z" fill="white"/>
<path d="M51.8019 38.8661C49.2869 29.8919 53.8077 25.4692 61.7575 22.8377C65.3091 21.66 68.4927 19.4149 71.983 18.0102C73.2957 17.4826 75.228 17.4581 76.5038 18.0347C82.4478 20.7276 88.2383 23.764 94.1393 26.5672C95.955 27.4321 96.7279 28.6344 96.7095 30.6219C96.6482 36.0383 96.7709 41.4547 96.6666 46.8711C96.5316 53.8885 93.5505 59.4337 87.7108 63.4086C84.0794 65.8806 80.4113 68.3036 76.8658 70.8922C75.001 72.2539 73.4613 72.1926 71.6211 70.8554C68.0695 68.279 64.3952 65.8622 60.7699 63.3902C54.9302 59.4153 52.0104 53.8578 51.8264 46.8404C51.7589 44.1843 51.8141 41.5283 51.8141 38.8722L51.8019 38.8661ZM91.5017 40.645C91.5017 38.2956 91.3851 35.934 91.5385 33.5969C91.6673 31.6953 90.9987 30.6525 89.2505 29.849C84.8033 27.8002 80.491 25.4631 76.0254 23.445C75.0133 22.9911 73.4429 22.9972 72.4247 23.4511C67.8732 25.5122 63.3646 27.702 58.9849 30.1066C58.0218 30.6341 57.1201 32.1861 57.0649 33.3086C56.8502 37.8969 56.9545 42.5036 56.9852 47.1042C57.0158 51.9317 59.034 55.8084 62.9046 58.6363C66.0329 60.9304 69.2165 63.1693 72.5289 65.1752C73.3755 65.6905 75.0685 65.6598 75.9395 65.1445C78.9207 63.3779 81.6871 61.2555 84.5763 59.3355C89.2995 56.201 91.655 51.8581 91.5017 46.1657C91.4526 44.3254 91.4956 42.4852 91.4956 40.645H91.5017Z" fill="white"/>
<path d="M75.4787 78.8972C84.8822 78.8972 94.2797 78.8972 103.683 78.8972C104.603 78.8972 105.695 78.6702 106.388 79.0812C107.229 79.5781 108.229 80.6515 108.222 81.4735C108.222 82.2648 107.161 83.2953 106.315 83.7677C105.597 84.1664 104.524 83.9394 103.603 83.9394C84.8025 83.9394 66.0015 83.9394 47.1944 83.9394C46.3786 83.9394 45.4032 84.1848 44.7837 83.8229C43.8513 83.2892 42.4159 82.1667 42.5386 81.5655C42.7411 80.5718 43.8943 79.6149 44.8696 78.9831C45.4523 78.6089 46.4583 78.8849 47.2803 78.8849C56.6838 78.8849 66.0813 78.8849 75.4848 78.8849L75.4787 78.8972Z" fill="white"/>
<path d="M75.7597 90.6133C85.2614 90.6133 94.7631 90.5458 104.265 90.6869C105.571 90.7053 106.86 91.7542 108.154 92.3247C107.559 93.4104 107.178 94.7661 106.289 95.4899C105.651 96.0052 104.326 95.723 103.308 95.723C84.7155 95.7291 66.1169 95.7291 47.5245 95.723C46.9111 95.723 46.175 95.9377 45.7088 95.6678C44.5249 94.993 42.7031 94.2508 42.5129 93.2755C42.1265 91.2574 43.8808 90.6072 45.7211 90.6072C55.7319 90.6072 65.7489 90.6072 75.7597 90.6072V90.6133Z" fill="white"/>
<path d="M71.7617 46.4169C74.6018 43.4358 76.9818 40.933 79.3618 38.4303C80.6132 37.1115 82.0915 36.3325 83.576 37.8231C85.0727 39.3198 84.22 40.792 82.9564 42.0556C80.0059 45.0061 77.0616 47.9566 74.1111 50.9071C72.5101 52.5081 70.9213 52.4774 69.3449 50.8703C67.9218 49.4165 66.2472 48.1283 65.1676 46.4537C64.5726 45.5336 64.9651 43.9694 64.9161 42.6935C66.1858 42.7917 67.6396 42.5402 68.6824 43.08C69.7743 43.6382 70.4736 44.957 71.7617 46.4231V46.4169Z" fill="white"/>
</svg>
