<svg width="49" height="58" viewBox="0 0 49 58" fill="none" xmlns="http://www.w3.org/2000/svg">
<path fill-rule="evenodd" clip-rule="evenodd" d="M23.2362 35.8775C23.2362 35.3601 22.8927 34.9042 22.3946 34.7624L6.15262 30.1238C5.80303 30.0239 5.4256 30.0935 5.13582 30.3129C4.84501 30.5323 4.67383 30.8749 4.67383 31.2388V49.7933C4.67383 50.3106 5.01724 50.7665 5.51533 50.9083L21.7574 55.5469C22.107 55.6468 22.4844 55.5773 22.7742 55.3578C23.065 55.1384 23.2362 54.7958 23.2362 54.4319V35.8775Z" fill="#E9A772"/>
<path fill-rule="evenodd" clip-rule="evenodd" d="M26.3615 34.844C25.8639 34.9867 25.5205 35.4426 25.5205 35.9599V54.5199C25.5205 54.8842 25.691 55.2264 25.9822 55.4456C26.2722 55.6648 26.6492 55.7356 26.9995 55.6359L43.2395 50.9958C43.7372 50.8532 44.0805 50.3973 44.0805 49.8799V31.3199C44.0805 30.9557 43.91 30.6135 43.6188 30.3942C43.3288 30.175 42.9518 30.1042 42.6015 30.204L26.3615 34.844Z" fill="#E9A772"/>
<path fill-rule="evenodd" clip-rule="evenodd" d="M4.63965 46.5132H8.69965C10.9408 46.5132 12.7596 44.6946 12.7596 42.4548C12.7596 40.215 10.9408 38.3964 8.69965 38.3964H4.63965V46.5132Z" fill="#AAC191"/>
<path fill-rule="evenodd" clip-rule="evenodd" d="M44.0801 46.5132H40.0201C37.779 46.5132 35.9601 44.6946 35.9601 42.4548C35.9601 40.215 37.779 38.3964 40.0201 38.3964H44.0801V46.5132Z" fill="#AAC191"/>
<path fill-rule="evenodd" clip-rule="evenodd" d="M22.04 34.8003H26.68V55.6803H22.04V34.8003Z" fill="#E9A772"/>
<path fill-rule="evenodd" clip-rule="evenodd" d="M22.04 34.8003H24.36V55.6803H22.04V34.8003Z" fill="#E9A772"/>
<path fill-rule="evenodd" clip-rule="evenodd" d="M42.601 30.2041C42.9513 30.1043 43.3283 30.1751 43.6183 30.3943C43.9095 30.6136 44.08 30.9558 44.08 31.32V49.88C44.08 50.3974 43.7366 50.8532 43.239 50.9959L27.0245 55.6278C26.9271 55.658 26.8238 55.6765 26.7171 55.68H26.6835H47.56C48.2003 55.68 48.72 56.1997 48.72 56.84C48.72 57.4803 48.2003 58 47.56 58H1.16C0.51968 58 0 57.4803 0 56.84C0 56.1997 0.51968 55.68 1.16 55.68H22.0365H22.0029C21.8962 55.6765 21.7929 55.658 21.6955 55.6278L5.481 50.9959C4.98336 50.8532 4.64 50.3974 4.64 49.88V31.32C4.64 30.9558 4.81052 30.6136 5.10168 30.3943C5.39168 30.1751 5.76868 30.1043 6.119 30.2041C6.119 30.2041 9.28928 31.1274 9.42964 30.965C13.6822 26.0374 19.0948 23.2 24.36 23.2C29.6252 23.2 35.1677 26.1812 39.4203 31.1089M23.2 37.12V53.36H25.52V37.12H23.2ZM41.76 38.28V32.8582L27.84 36.8346V52.9818L41.76 49.0054V46.4H38.86C36.6189 46.4 34.8 44.5811 34.8 42.34C34.8 40.0989 36.6189 38.28 38.86 38.28H41.76ZM6.96 38.28H8.7C10.9411 38.28 12.76 40.0989 12.76 42.34C12.76 44.5811 10.9411 46.4 8.7 46.4H6.96V49.0054L20.88 52.9818V36.8346L6.96 32.8582V38.28ZM41.76 40.6H38.86C37.8995 40.6 37.12 41.3795 37.12 42.34C37.12 43.3005 37.8995 44.08 38.86 44.08H41.76V40.6ZM6.96 44.08H8.7C9.66048 44.08 10.44 43.3005 10.44 42.34C10.44 41.3795 9.66048 40.6 8.7 40.6H6.96V44.08ZM37.1293 31.7678C33.4231 27.6208 28.8991 25.52 24.36 25.52C19.8209 25.52 15.2969 27.6208 11.5907 31.7678L22.2024 34.8H26.5176L37.1293 31.7678ZM18.27 5.07152C19.7583 3.38488 21.9356 2.32 24.36 2.32C28.8411 2.32 32.48 5.95892 32.48 10.44C32.48 14.9211 28.8411 18.56 24.36 18.56C19.8789 18.56 16.24 14.9211 16.24 10.44C16.24 9.73936 16.3293 9.05844 16.4964 8.41C16.6564 7.7894 16.2829 7.15604 15.6623 6.99712C15.0429 6.83704 14.4095 7.21056 14.2494 7.83C14.0348 8.6652 13.92 9.53868 13.92 10.44C13.92 16.2017 18.5983 20.88 24.36 20.88C30.1217 20.88 34.8 16.2017 34.8 10.44C34.8 4.67828 30.1217 0 24.36 0C21.2431 0 18.444 1.3688 16.53 3.53684C16.1066 4.01708 16.153 4.7502 16.6321 5.17476C17.1123 5.59816 17.8466 5.55176 18.27 5.07152Z" fill="#404040"/>
</svg>
