<svg width="20" height="21" viewBox="0 0 20 21" fill="none" xmlns="http://www.w3.org/2000/svg">
<g clip-path="url(#clip0_32_53)">
<path fill-rule="evenodd" clip-rule="evenodd" d="M9.99992 3.47514C5.85778 3.47514 2.49992 6.833 2.49992 10.9751C2.49992 15.1173 5.85778 18.4751 9.99992 18.4751C14.1421 18.4751 17.4999 15.1173 17.4999 10.9751C17.4999 6.833 14.1421 3.47514 9.99992 3.47514ZM0.833252 10.9751C0.833252 5.91253 4.93731 1.80847 9.99992 1.80847C15.0625 1.80847 19.1666 5.91253 19.1666 10.9751C19.1666 16.0377 15.0625 20.1418 9.99992 20.1418C4.93731 20.1418 0.833252 16.0377 0.833252 10.9751Z" fill="#AAC191"/>
<path fill-rule="evenodd" clip-rule="evenodd" d="M0.833252 10.9751C0.833252 10.5148 1.20635 10.1417 1.66659 10.1417H18.3333C18.7935 10.1417 19.1666 10.5148 19.1666 10.9751C19.1666 11.4353 18.7935 11.8084 18.3333 11.8084H1.66659C1.20635 11.8084 0.833252 11.4353 0.833252 10.9751Z" fill="#AAC191"/>
<path fill-rule="evenodd" clip-rule="evenodd" d="M9.99992 1.80847C10.234 1.80847 10.4573 1.90694 10.6152 2.07979C12.8358 4.51089 14.0978 7.66585 14.1664 10.9578C14.1666 10.9694 14.1666 10.9809 14.1664 10.9925C14.0978 14.2844 12.8358 17.4394 10.6152 19.8705C10.4573 20.0433 10.234 20.1418 9.99992 20.1418C9.76582 20.1418 9.54251 20.0433 9.38463 19.8705C7.164 17.4394 5.90201 14.2844 5.83343 10.9925C5.83319 10.9809 5.83319 10.9694 5.83343 10.9578C5.90201 7.66585 7.164 4.51089 9.38463 2.07979C9.54251 1.90694 9.76582 1.80847 9.99992 1.80847ZM7.50011 10.9751C7.55722 13.5375 8.43846 16.0044 9.99992 18.0161C11.5614 16.0044 12.4426 13.5375 12.4997 10.9751C12.4426 8.41277 11.5614 5.94584 9.99992 3.93414C8.43846 5.94584 7.55722 8.41277 7.50011 10.9751Z" fill="#AAC191"/>
</g>
<defs>
<clipPath id="clip0_32_53">
<rect width="20" height="20" fill="white" transform="translate(0 0.975098)"/>
</clipPath>
</defs>
</svg>
