<svg width="59" height="59" viewBox="0 0 59 59" fill="none" xmlns="http://www.w3.org/2000/svg">
<path d="M20.083 11.845L21.46 14.5999C21.9472 15.5725 22.9264 16.1777 24.0141 16.1777H24.7412C25.2664 16.1777 25.6928 16.604 25.6928 17.1293C25.6928 18.7033 26.9736 19.9842 28.5476 19.9842H30.329C29.8009 18.4939 29.4992 16.8971 29.4992 15.2261C29.4992 12.2561 30.4109 9.50404 31.9639 7.22303C29.425 6.24857 26.671 5.70996 23.7895 5.70996C23.7895 10.468 20.083 11.845 20.083 11.845Z" fill="#E9A772"/>
<path d="M39.9675 38.0649H37.8768C36.5664 38.0649 35.2969 38.4494 34.2064 39.1764C33.4289 39.6941 32.5249 39.9682 31.5904 39.9682H30.8948C29.1276 39.9682 27.4652 40.6571 26.2157 41.9066L25.7285 42.3938C24.8387 43.2836 23.654 43.7746 22.3303 43.7746C20.5631 43.7746 18.9007 44.4636 17.6512 45.7131L14.5527 48.8115L14.6603 49.4843C17.4571 50.7062 20.5431 51.3875 23.79 51.3875C30.1116 51.3875 35.8318 48.8191 39.9675 44.6691V38.0649Z" fill="#E9A772"/>
<path d="M28.5736 29.3245C28.1683 28.5166 27.4736 27.9161 26.6143 27.6325C25.755 27.3499 24.8405 27.4174 23.9774 27.8542C23.7889 27.9513 23.571 27.9675 23.3645 27.9009C23.1618 27.8333 22.9962 27.6906 22.9011 27.4983L22.0932 25.8853C21.959 25.6122 21.8867 25.3077 21.8867 25.0032V24.8081C21.8867 22.6727 20.149 20.9351 18.0136 20.9351C17.2456 20.9351 16.5034 21.1596 15.8649 21.586C14.6354 22.4053 13.2041 22.8383 11.7272 22.8383H1.90279L0.616211 30.3912L6.79694 32.7094C7.85608 33.1052 8.96566 33.306 10.0943 33.306C13.3221 33.306 16.177 35.3644 17.1981 38.4286L17.4988 39.3307C18.005 40.8504 19.4277 41.8705 21.0949 41.8705C23.1057 41.8705 24.7415 40.2347 24.7415 38.1535C24.7415 37.1229 25.1431 36.1542 25.8711 35.4272L27.9541 33.3469C29.0047 32.3021 29.2636 30.7053 28.5736 29.3245Z" fill="#AAC191"/>
<path d="M13.3222 5.70996H11.4189V7.61319H13.3222V5.70996Z" fill="#333333"/>
<path d="M19.0321 5.70996H17.1289V7.61319H19.0321V5.70996Z" fill="#333333"/>
<path d="M7.61319 5.70996H5.70996V7.61319H7.61319V5.70996Z" fill="#333333"/>
<path d="M59 15.2258C59 6.83068 52.1693 0 43.7742 0C38.8125 0 34.4113 2.39616 31.6297 6.08081C29.3278 5.27669 26.9249 4.84276 24.465 4.77424C23.6495 2.01837 21.0982 0 18.0806 0H6.66129C2.98806 0 0 2.98806 0 6.66129C0 9.97005 2.42756 12.7155 5.59358 13.2284C1.97555 17.5116 0 22.8758 0 28.5484C0 41.6664 10.6723 52.3387 23.7903 52.3387C29.4182 52.3387 34.7481 50.3927 39.0161 46.8251V54.2419C39.0161 56.8655 41.1506 59 43.7742 59C46.3978 59 48.5323 56.8655 48.5323 54.2419V34.2581H50.4355V32.3548H48.5323V29.6799C54.6026 27.6758 59 21.9585 59 15.2258ZM43.7742 1.90323C51.1206 1.90323 57.0968 7.87935 57.0968 15.2258C57.0968 22.5723 51.1206 28.5484 43.7742 28.5484C36.4277 28.5484 30.4516 22.5723 30.4516 15.2258C30.4516 7.87935 36.4277 1.90323 43.7742 1.90323ZM1.90323 6.66129C1.90323 4.03769 4.03769 1.90323 6.66129 1.90323H18.0806C20.7042 1.90323 22.8387 4.03769 22.8387 6.66129C22.8387 8.98989 21.1715 10.9607 18.8743 11.347L18.0806 11.4803V15.7825L13.7165 11.4194H6.66129C4.03769 11.4194 1.90323 9.28489 1.90323 6.66129ZM23.7903 50.4355C11.722 50.4355 1.90323 40.6167 1.90323 28.5484C1.90323 22.814 4.10431 17.4278 8.08871 13.3226H12.9286L19.9839 20.3778V13.0409C22.7692 12.2178 24.7181 9.67315 24.7381 6.70602C26.7213 6.79071 28.6607 7.13234 30.5315 7.73852C29.2754 9.95292 28.5484 12.5042 28.5484 15.2258C28.5484 21.9585 32.9458 27.6758 39.0161 29.6799V32.3548H37.1129V34.2581H39.0161V44.2538C34.9109 48.2363 29.5209 50.4355 23.7903 50.4355ZM46.629 54.2419C46.629 55.8159 45.3482 57.0968 43.7742 57.0968C42.2002 57.0968 40.9194 55.8159 40.9194 54.2419V34.2581H46.629V54.2419ZM46.629 32.3548H40.9194V30.1737C41.8453 30.3507 42.7978 30.4516 43.7742 30.4516C44.7505 30.4516 45.7031 30.3507 46.629 30.1737V32.3548Z" fill="#333333"/>
<path d="M43.7739 24.7422C49.0211 24.7422 53.2901 20.4733 53.2901 15.2261C53.2901 9.9789 49.0211 5.70996 43.7739 5.70996C38.5267 5.70996 34.2578 9.9789 34.2578 15.2261C34.2578 20.4733 38.5267 24.7422 43.7739 24.7422ZM43.7739 7.61319C47.9715 7.61319 51.3868 11.0285 51.3868 15.2261C51.3868 19.4237 47.9715 22.839 43.7739 22.839C39.5764 22.839 36.161 19.4237 36.161 15.2261C36.161 11.0285 39.5764 7.61319 43.7739 7.61319Z" fill="#333333"/>
</svg>
