<svg width="108" height="108" viewBox="0 0 108 108" fill="none" xmlns="http://www.w3.org/2000/svg">
<path d="M53.5518 0C83.1273 0.000169053 107.103 23.9762 107.103 53.5518C107.103 53.8816 107.099 54.2107 107.093 54.5391V107.093H54.5391C54.2107 107.099 53.8816 107.103 53.5518 107.103C23.9762 107.103 0.000169075 83.1273 0 53.5518C0 23.9761 23.9761 0 53.5518 0Z" fill="#E7A572"/>
<path d="M81.569 67.5181L69.9638 62.5445C69.4681 62.3332 68.9171 62.2887 68.3938 62.4176C67.8706 62.5465 67.4034 62.842 67.0625 63.2594L61.9231 69.5386C53.8573 65.7357 47.3661 59.2445 43.5632 51.1787L49.8424 46.0392C50.2607 45.699 50.5567 45.2318 50.6857 44.7083C50.8147 44.1848 50.7697 43.6336 50.5573 43.138L45.5837 31.5328C45.3507 30.9986 44.9386 30.5624 44.4184 30.2995C43.8982 30.0365 43.3026 29.9634 42.7342 30.0925L31.958 32.5794C31.4101 32.7059 30.9212 33.0144 30.5712 33.4546C30.2211 33.8948 30.0306 34.4406 30.0308 35.003C30.0308 61.5808 51.5728 83.0814 78.1092 83.0814C78.6717 83.0818 79.2178 82.8914 79.6582 82.5413C80.0986 82.1913 80.4073 81.7023 80.5338 81.1541L83.0206 70.3779C83.149 69.8068 83.0743 69.2088 82.8093 68.6868C82.5444 68.1649 82.1058 67.7516 81.569 67.5181Z" fill="white"/>
</svg>
