<svg width="33" height="33" viewBox="0 0 33 33" fill="none" xmlns="http://www.w3.org/2000/svg">
<path d="M16.4102 2.86924e-06C25.473 0.000122252 32.8203 7.36514 32.8203 16.4502C32.8203 16.5209 32.8183 16.5916 32.8174 16.6621L32.8174 32.9004L16.4609 32.8994C16.444 32.8995 16.4271 32.9004 16.4102 32.9004C7.34723 32.9004 5.51799e-05 25.5353 -2.87624e-06 16.4502C-1.28775e-06 7.36506 7.3472 1.28462e-06 16.4102 2.86924e-06Z" fill="#E7A572"/>
<path d="M22.3988 13.0515V13.4975C22.3988 16.3714 22.3717 19.2462 22.409 22.1201C22.4317 23.8726 21.0616 24.9232 19.69 24.9049C16.3657 24.8618 13.0414 24.9093 9.71628 24.8983C8.13417 24.8932 7.05286 23.7659 7.04847 22.1786C7.04701 21.7765 7.05359 21.3744 7.04701 20.973C7.04189 20.6652 7.18007 20.5336 7.49006 20.5373C8.20728 20.5468 8.92376 20.5402 9.68338 20.5402C9.69069 20.3801 9.70166 20.2397 9.70239 20.1001C9.72798 16.7509 9.7543 13.4017 9.77477 10.0532C9.77989 9.19417 10.1199 8.53471 10.916 8.18086C11.1946 8.05584 11.5272 8.00247 11.835 8.00174C15.7691 7.99004 19.7025 7.99004 23.6366 7.99662C24.9547 7.99881 25.7641 8.83227 25.7663 10.1585C25.7677 10.9503 25.7597 11.7421 25.7699 12.5331C25.7743 12.8775 25.6274 13.0135 25.2867 13.0105C24.3611 13.0025 23.4355 13.0105 22.5099 13.0142C22.488 13.0142 22.4661 13.0288 22.3981 13.0522L22.3988 13.0515ZM22.3695 8.6144C22.1436 8.6144 22.0347 8.6144 21.9258 8.6144C18.5875 8.6144 15.2493 8.61367 11.9118 8.6144C10.8714 8.6144 10.4057 9.08231 10.3984 10.1329C10.3735 13.4587 10.3494 16.7845 10.3253 20.1103C10.3246 20.2412 10.3253 20.3713 10.3253 20.5402C10.4927 20.5402 10.6229 20.5402 10.7537 20.5402C12.9587 20.5402 15.1638 20.5402 17.3688 20.5402C17.8162 20.5402 17.8776 20.6031 17.8806 21.0461C17.8835 21.4848 17.8674 21.9242 17.8864 22.3614C17.9456 23.6971 19.2134 24.5964 20.4511 24.1899C21.2831 23.9165 21.7898 23.151 21.7905 22.1406C21.7927 18.2906 21.7964 14.4413 21.7876 10.5913C21.7861 9.90042 21.7956 9.22634 22.3703 8.61367L22.3695 8.6144ZM17.2884 21.1682H7.65164C7.65164 21.5184 7.65017 21.8445 7.65164 22.1706C7.65968 23.4778 8.46609 24.282 9.7777 24.2828C12.444 24.2849 15.1111 24.2835 17.7775 24.2828C17.8798 24.2828 17.9814 24.2696 18.1642 24.2579C17.1706 23.3959 17.2555 22.2898 17.2876 21.1682H17.2884ZM25.1295 12.3701C25.1295 11.4847 25.1755 10.6206 25.1149 9.7637C25.0666 9.07939 24.4532 8.6144 23.774 8.61806C23.108 8.62172 22.4726 9.11083 22.4288 9.77321C22.3725 10.6308 22.4149 11.495 22.4149 12.3701H25.1287H25.1295Z" fill="white"/>
<path d="M13.2275 12.6235C12.9278 11.5539 13.4666 11.0268 14.4141 10.7131C14.8374 10.5727 15.2169 10.3052 15.6329 10.1377C15.7893 10.0749 16.0196 10.0719 16.1717 10.1407C16.8801 10.4616 17.5703 10.8235 18.2736 11.1576C18.49 11.2607 18.5822 11.404 18.58 11.6409C18.5727 12.2865 18.5873 12.932 18.5748 13.5776C18.5588 14.414 18.2034 15.0749 17.5074 15.5487C17.0746 15.8433 16.6374 16.1321 16.2148 16.4406C15.9926 16.6029 15.8091 16.5956 15.5897 16.4362C15.1664 16.1292 14.7285 15.8411 14.2964 15.5465C13.6004 15.0727 13.2524 14.4103 13.2305 13.5739C13.2224 13.2574 13.229 12.9408 13.229 12.6242L13.2275 12.6235ZM17.9593 12.8355C17.9593 12.5555 17.9454 12.274 17.9636 11.9955C17.979 11.7688 17.8993 11.6445 17.6909 11.5488C17.1609 11.3046 16.6469 11.026 16.1147 10.7855C15.994 10.7314 15.8069 10.7321 15.6855 10.7862C15.143 11.0319 14.6057 11.2929 14.0837 11.5795C13.9689 11.6423 13.8614 11.8273 13.8548 11.9611C13.8292 12.508 13.8417 13.057 13.8453 13.6054C13.849 14.1808 14.0895 14.6428 14.5508 14.9799C14.9237 15.2533 15.3031 15.5201 15.6979 15.7592C15.7988 15.8206 16.0006 15.817 16.1044 15.7556C16.4598 15.545 16.7895 15.292 17.1338 15.0632C17.6968 14.6896 17.9775 14.172 17.9593 13.4935C17.9534 13.2742 17.9585 13.0548 17.9585 12.8355H17.9593Z" fill="white"/>
<path d="M16.048 17.3999C17.1688 17.3999 18.2889 17.3999 19.4096 17.3999C19.5193 17.3999 19.6494 17.3728 19.7321 17.4218C19.8322 17.481 19.9514 17.609 19.9507 17.7069C19.9507 17.8012 19.8242 17.9241 19.7233 17.9804C19.6378 18.0279 19.5098 18.0008 19.4001 18.0008C17.1593 18.0008 14.9185 18.0008 12.6769 18.0008C12.5796 18.0008 12.4634 18.0301 12.3896 17.9869C12.2784 17.9233 12.1074 17.7895 12.122 17.7179C12.1461 17.5995 12.2835 17.4854 12.3998 17.4101C12.4692 17.3655 12.5892 17.3984 12.6871 17.3984C13.8079 17.3984 14.928 17.3984 16.0487 17.3984L16.048 17.3999Z" fill="white"/>
<path d="M16.0784 18.791C17.2109 18.791 18.3434 18.7829 19.4759 18.7998C19.6316 18.802 19.7851 18.927 19.9394 18.995C19.8685 19.1244 19.8231 19.2859 19.7171 19.3722C19.6411 19.4336 19.4832 19.4 19.3618 19.4C17.1458 19.4007 14.9291 19.4007 12.7131 19.4C12.64 19.4 12.5523 19.4256 12.4967 19.3934C12.3556 19.313 12.1385 19.2245 12.1158 19.1083C12.0697 18.8678 12.2788 18.7903 12.4982 18.7903C13.6913 18.7903 14.8852 18.7903 16.0784 18.7903V18.791Z" fill="white"/>
<path d="M15.5991 13.5311C15.9376 13.1758 16.2213 12.8775 16.505 12.5792C16.6541 12.422 16.8303 12.3292 17.0072 12.5068C17.1856 12.6852 17.084 12.8607 16.9334 13.0113C16.5817 13.363 16.2308 13.7146 15.8791 14.0663C15.6883 14.2571 15.499 14.2534 15.3111 14.0619C15.1415 13.8886 14.9419 13.7351 14.8132 13.5355C14.7423 13.4258 14.7891 13.2394 14.7832 13.0873C14.9346 13.099 15.1078 13.0691 15.2321 13.1334C15.3623 13.1999 15.4456 13.3571 15.5991 13.5318V13.5311Z" fill="white"/>
</svg>
