<svg width="33" height="33" viewBox="0 0 33 33" fill="none" xmlns="http://www.w3.org/2000/svg">
<path d="M16.4102 2.86924e-06C25.473 0.000122252 32.8203 7.36514 32.8203 16.4502C32.8203 16.5209 32.8183 16.5916 32.8174 16.6621L32.8174 32.9004L16.4609 32.8994C16.444 32.8995 16.4271 32.9004 16.4102 32.9004C7.34723 32.9004 5.51799e-05 25.5353 -2.87624e-06 16.4502C-1.28775e-06 7.36506 7.3472 1.28462e-06 16.4102 2.86924e-06Z" fill="#E7A572"/>
<path d="M12.5458 6.8797C12.702 6.97854 12.7522 7.1204 12.7409 7.3017C12.7291 7.49221 12.7424 7.68426 12.7363 7.87529C12.7301 8.0699 12.6052 8.18769 12.4229 8.18359C12.2509 8.1795 12.131 8.0617 12.1269 7.87682C12.1213 7.64739 12.1059 7.41539 12.1341 7.18954C12.1474 7.07994 12.2524 6.98264 12.3159 6.8797H12.5458Z" fill="white"/>
<path d="M13.1114 24.9888C12.7248 25.0282 12.3582 25.0804 11.9901 25.0984C11.7438 25.1101 11.4904 25.0984 11.2487 25.0528C10.5273 24.916 10.1924 24.3921 10.344 23.6746C10.3465 23.6623 10.3512 23.65 10.3553 23.6382C10.4326 23.4211 10.4413 23.2393 10.2426 23.0508C10.0747 22.8915 10.0542 22.6478 10.1586 22.4255C10.2011 22.3359 10.1914 22.2775 10.1325 22.2063C10.0926 22.1582 10.0434 22.0972 10.0424 22.0409C10.0368 21.7659 9.86474 21.6824 9.63434 21.5969C9.26978 21.4616 9.11669 21.1001 9.24162 20.7129C9.30921 20.5045 9.42134 20.3063 9.53654 20.1178C9.67632 19.8899 9.84528 19.6799 9.99326 19.4566C10.3122 18.9762 10.4756 18.4533 10.4602 17.869C10.4367 16.9773 10.6343 16.1354 11.0808 15.3564C11.1059 15.3129 11.111 15.2509 11.1059 15.1992C11.0792 14.9349 11.0209 14.6712 11.0214 14.4069C11.0214 14.0151 10.9082 13.6828 10.6399 13.398C10.4914 13.2403 10.3465 13.0769 10.2155 12.9043C9.04296 11.3602 9.93591 9.03662 11.8478 8.64944C13.4017 8.33447 14.861 9.31471 15.138 10.8732C15.248 11.4934 15.159 12.0926 14.8154 12.6846C15.693 12.4695 16.5445 12.4214 17.4195 12.51C17.3949 12.449 17.378 12.4029 17.3586 12.3578C17.2618 12.133 17.3038 11.9312 17.4686 11.7576C17.6402 11.5768 17.8168 11.4012 17.9965 11.2291C18.187 11.0468 18.4067 10.9884 18.6248 11.1349C18.9545 11.3571 19.232 11.31 19.5843 11.162C19.9033 11.0278 20.0881 10.8716 20.168 10.5357C20.2422 10.2212 20.4337 10.1085 20.7614 10.107C20.9785 10.106 21.1956 10.1044 21.4127 10.1075C21.681 10.1116 21.894 10.2299 21.9447 10.487C22.0215 10.8778 22.2529 11.0422 22.6047 11.1891C22.9252 11.3228 23.1658 11.3407 23.4587 11.1559C23.7285 10.9853 23.9364 11.0365 24.1658 11.2598C24.3306 11.4201 24.4945 11.5814 24.6522 11.7489C24.8375 11.9456 24.8903 12.1725 24.7438 12.3973C24.5426 12.7066 24.5575 12.9663 24.708 13.3074C24.8534 13.6361 25.0024 13.8543 25.3695 13.9317C25.6562 13.9921 25.7674 14.1882 25.7689 14.4837C25.7704 14.7198 25.7715 14.9564 25.7684 15.1931C25.7653 15.4425 25.6516 15.6448 25.4074 15.6955C25.0162 15.7769 24.836 16.0007 24.6911 16.3669C24.5657 16.6834 24.5452 16.9195 24.7244 17.2073C24.8964 17.4833 24.8442 17.6969 24.6143 17.932C24.4627 18.0872 24.3102 18.2418 24.1535 18.3924C23.9395 18.5983 23.7229 18.652 23.4766 18.4948C23.1735 18.3012 22.9221 18.3197 22.5872 18.4585C22.2355 18.6044 22.0819 18.8072 21.9344 19.1468C21.7004 19.684 21.3523 20.1721 21.0405 20.6735C20.8889 20.9172 20.7169 21.1482 20.5443 21.3777C19.808 22.3574 19.659 23.4283 20.0415 24.5821C20.1234 24.83 20.2115 25.0758 20.3026 25.3206C20.5418 25.9628 20.17 26.5103 19.4896 26.5108C17.7267 26.5119 15.9644 26.5113 14.2015 26.5108C13.7202 26.5108 13.4263 26.2773 13.3121 25.8092C13.2461 25.5378 13.178 25.2663 13.1099 24.9903L13.1114 24.9888ZM17.4548 13.1527C16.5419 12.9811 15.2992 13.1266 14.2834 13.5004C14.0868 13.5726 13.9562 13.6874 13.9271 13.8804C13.884 14.1621 13.861 14.4479 13.8533 14.7332C13.8375 15.3103 13.4744 15.8066 12.9071 15.928C12.455 16.0243 11.9947 16.0314 11.5662 15.7702C11.5298 15.8409 11.4965 15.9019 11.4668 15.9643C11.1781 16.5769 11.0639 17.2227 11.0849 17.8972C11.1033 18.4856 10.9635 19.0382 10.6609 19.5421C10.4705 19.8586 10.2503 20.1572 10.0496 20.4676C9.9738 20.5844 9.90877 20.7088 9.84938 20.8348C9.7905 20.9592 9.83044 21.0494 9.97226 21.0709C10.1361 21.0955 10.3005 21.116 10.4653 21.1282C10.6159 21.1395 10.7423 21.1795 10.8012 21.3336C10.857 21.4791 10.8038 21.5969 10.6973 21.6947C10.5877 21.795 10.6215 21.8693 10.7321 21.9333C10.7761 21.9584 10.8253 21.9748 10.8698 21.9989C11.1079 22.1264 11.1176 22.4071 10.8893 22.554C10.8381 22.5873 10.7853 22.6186 10.6911 22.6764C10.8007 22.7466 10.8744 22.7994 10.9533 22.8429C11.1258 22.9376 11.1847 23.0718 11.1238 23.2582C11.0823 23.3852 11.026 23.5076 10.9896 23.6362C10.8263 24.2159 11.0127 24.492 11.6194 24.4761C12.1524 24.4618 12.6839 24.3814 13.2143 24.3184C13.477 24.2871 13.5948 24.3506 13.6577 24.6077C13.7381 24.9355 13.8154 25.2643 13.8948 25.5921C13.9624 25.8717 13.9972 25.8983 14.2855 25.8983C15.9905 25.8983 17.6955 25.8983 19.4005 25.8983C19.7553 25.8983 19.8244 25.7964 19.6933 25.4671C19.4517 24.8602 19.2699 24.2374 19.2243 23.5829C19.1649 22.7282 19.4174 21.9579 19.8869 21.2532C20.1946 20.7913 20.5136 20.337 20.8234 19.8766C20.892 19.7747 20.9442 19.661 21.0149 19.5319C20.8986 19.5319 20.8162 19.5329 20.7338 19.5319C20.4322 19.5283 20.2381 19.4136 20.1716 19.116C20.0937 18.7698 19.9017 18.6136 19.5771 18.4759C19.2295 18.3284 18.9581 18.2915 18.6355 18.5035C18.4097 18.6515 18.187 18.5947 17.9904 18.4062C17.8245 18.2469 17.6632 18.0831 17.5024 17.9187C17.2843 17.6959 17.229 17.4854 17.3929 17.2278C17.5874 16.9225 17.5654 16.6711 17.4241 16.3382C17.2797 15.9971 17.1189 15.7789 16.7457 15.7072C16.484 15.6571 16.3607 15.446 16.3519 15.1838C16.3438 14.9416 16.3432 14.6983 16.3519 14.4556C16.3617 14.1939 16.4897 14.0105 16.7467 13.9276C16.8798 13.8845 17.0145 13.8436 17.144 13.7913C17.1901 13.7729 17.2434 13.7319 17.2613 13.6879C17.3309 13.5178 17.3877 13.3427 17.4548 13.1527ZM17.954 12.1602C18.0278 12.3051 18.1015 12.4531 18.1778 12.5991C18.274 12.7834 18.2607 12.9606 18.1737 13.1486C18.0508 13.4139 17.9382 13.6843 17.8373 13.9583C17.7687 14.1457 17.6576 14.2784 17.4697 14.3439C17.3734 14.3772 17.2777 14.4177 17.1783 14.4346C17.0104 14.4627 16.9725 14.5554 16.9761 14.7147C16.9858 15.1377 16.9766 15.1439 17.377 15.2668C17.5926 15.3329 17.7492 15.444 17.8317 15.6627C17.9392 15.9479 18.0549 16.2306 18.1809 16.5082C18.2638 16.6911 18.2715 16.8626 18.1793 17.0398C18.103 17.1863 18.0293 17.3338 17.9361 17.5171C17.9878 17.5561 18.0503 17.5919 18.1 17.6411C18.3974 17.9351 18.4005 17.9432 18.7676 17.7445C19.0108 17.6134 19.2346 17.6109 19.4711 17.7558C19.595 17.8316 19.7302 17.9094 19.87 17.9361C20.3549 18.0288 20.636 18.3043 20.7097 18.7919C20.7251 18.8943 20.788 18.9158 20.8858 18.9178C21.3702 18.9271 21.3733 18.9306 21.5197 18.4759C21.5868 18.2669 21.7107 18.1271 21.9211 18.0493C22.2007 17.9458 22.4761 17.8285 22.7485 17.7066C22.9303 17.6252 23.1039 17.617 23.2815 17.7066C23.3614 17.7466 23.4464 17.7794 23.5191 17.8301C23.6691 17.9351 23.7761 17.9146 23.9036 17.7753C24.1729 17.4818 24.1898 17.4854 23.9968 17.132C23.8611 16.8836 23.8606 16.6593 23.9994 16.4099C24.113 16.2056 24.2037 15.9833 24.2697 15.759C24.3455 15.5008 24.4843 15.3324 24.749 15.2694C24.8355 15.2489 24.9169 15.2064 25.0034 15.1879C25.1248 15.1628 25.1622 15.1009 25.1616 14.9759C25.1591 14.5099 25.1657 14.5052 24.7162 14.3618C24.5047 14.2948 24.3701 14.1693 24.2933 13.9593C24.1904 13.6792 24.0716 13.4047 23.9497 13.1322C23.8719 12.957 23.8652 12.7901 23.9446 12.616C24.0173 12.4562 24.1663 12.2754 24.134 12.1392C24.0972 11.985 23.8959 11.8703 23.7654 11.7392C23.7567 11.7305 23.7439 11.7264 23.7214 11.7141C23.5918 11.7786 23.4536 11.8421 23.321 11.9159C23.1121 12.0321 22.9165 12.0178 22.703 11.9118C22.4587 11.7904 22.2037 11.688 21.9457 11.5989C21.7347 11.5261 21.5944 11.4001 21.5284 11.1891C21.4982 11.0918 21.4588 10.9966 21.4393 10.8967C21.4111 10.7564 21.3328 10.7221 21.1966 10.7236C20.7553 10.7292 20.7507 10.7221 20.618 11.1395C20.5474 11.3612 20.4255 11.5149 20.1977 11.5958C19.9227 11.6936 19.6539 11.8099 19.3877 11.9312C19.2069 12.0137 19.0359 12.0265 18.8552 11.9405C18.6975 11.8657 18.5188 11.7218 18.3795 11.751C18.2326 11.7817 18.1215 11.9819 17.995 12.1084C17.9817 12.1217 17.9714 12.1381 17.9545 12.1607L17.954 12.1602ZM12.7402 13.7084C12.9189 13.7084 13.0771 13.7119 13.2348 13.7058C13.2722 13.7043 13.3321 13.6792 13.3418 13.651C13.4826 13.2438 13.7898 12.956 14.0648 12.6487C14.5251 12.134 14.6357 11.5369 14.5046 10.8824C14.2768 9.74747 13.1426 9.01869 11.9891 9.25684C10.8724 9.4873 10.1233 10.6212 10.3389 11.7351C10.4203 12.1561 10.6635 12.4721 10.9226 12.7921C11.1371 13.0574 11.3173 13.3509 11.515 13.63C11.5375 13.6623 11.5764 13.7032 11.6092 13.7048C11.7781 13.7125 11.9476 13.7084 12.1273 13.7084C12.1273 13.1015 12.133 12.5207 12.1217 11.9405C12.1202 11.8462 12.0643 11.7382 12.0019 11.6634C11.8703 11.5077 11.7131 11.3745 11.5744 11.225C11.4356 11.076 11.4443 10.8895 11.5846 10.7682C11.7182 10.6524 11.8764 10.6632 12.0295 10.8076C12.1668 10.9367 12.2978 11.0719 12.4519 11.2245C12.5927 11.0734 12.7105 10.9382 12.8375 10.8132C13.0003 10.654 13.1744 10.6499 13.3085 10.7912C13.4314 10.9213 13.4207 11.0959 13.2727 11.2496C13.1268 11.4017 12.9716 11.5451 12.8288 11.6997C12.7858 11.7464 12.7453 11.8175 12.7443 11.878C12.7382 12.4777 12.7407 13.0779 12.7407 13.7089L12.7402 13.7084ZM13.2256 14.3403H11.644C11.5805 15.0225 11.8042 15.3324 12.3188 15.3615C13.1206 15.4066 13.2998 14.9856 13.2256 14.3403Z" fill="white"/>
<path d="M19.2492 8.38246C19.4054 8.38246 19.5324 8.37836 19.6588 8.38348C19.8365 8.39117 19.9681 8.5192 19.9743 8.68103C19.9804 8.85157 19.8488 8.98627 19.6583 8.99497C19.5319 9.0006 19.4054 8.996 19.2497 8.996C19.2497 9.13017 19.2528 9.24899 19.2492 9.36729C19.242 9.59161 19.1238 9.72271 18.9343 9.72271C18.7443 9.72271 18.6306 9.59519 18.6219 9.36524C18.6173 9.25104 18.6214 9.13632 18.6214 8.99446C18.476 8.99446 18.3444 8.99804 18.2128 8.99344C18.03 8.98729 17.9061 8.86694 17.9015 8.69845C17.8969 8.52381 18.0249 8.39065 18.2133 8.38246C18.3398 8.37734 18.4663 8.38143 18.6219 8.38143C18.6219 8.24265 18.6163 8.11769 18.623 7.99273C18.6342 7.78173 18.7582 7.65267 18.9369 7.65369C19.114 7.65472 19.2395 7.78941 19.2487 7.9958C19.2538 8.11564 19.2497 8.23599 19.2497 8.38092L19.2492 8.38246Z" fill="white"/>
<path d="M10.0483 9.19841C9.79634 9.19175 9.17778 8.58692 9.20134 8.40409C9.21414 8.30576 9.28583 8.17158 9.36673 8.13625C9.45736 8.09681 9.61968 8.11115 9.69598 8.17107C9.88954 8.32318 10.0682 8.50191 10.2198 8.69601C10.2797 8.77232 10.2894 8.93159 10.2531 9.02685C10.2203 9.11289 10.0933 9.16308 10.0478 9.19841H10.0483Z" fill="white"/>
<path d="M15.6748 8.33924C15.6686 8.58968 15.0639 9.21141 14.8826 9.18836C14.7838 9.17556 14.6507 9.10437 14.6143 9.02294C14.5744 8.93281 14.5872 8.76995 14.6471 8.69364C14.7986 8.50005 14.9774 8.32132 15.1709 8.16973C15.2472 8.10981 15.4059 8.10008 15.5017 8.13593C15.5877 8.16819 15.6389 8.29418 15.6748 8.33924Z" fill="white"/>
<path d="M8.64796 11.0201C8.76266 11.0201 8.87736 11.015 8.99155 11.0211C9.17026 11.0309 9.28752 11.1574 9.28649 11.3289C9.28547 11.501 9.16872 11.6249 8.98592 11.6301C8.75088 11.6367 8.51534 11.6367 8.2798 11.6301C8.09955 11.6239 7.98383 11.4959 7.98537 11.3233C7.9869 11.1517 8.10467 11.0293 8.28543 11.0206C8.40627 11.015 8.52712 11.0196 8.64796 11.0196V11.0201Z" fill="white"/>
<path d="M16.2124 11.6292C16.0915 11.6292 15.9696 11.6379 15.8498 11.6266C15.6814 11.6107 15.5877 11.5078 15.5764 11.3388C15.5656 11.1759 15.6783 11.0305 15.8406 11.0228C16.0946 11.011 16.3496 11.0115 16.6036 11.0218C16.77 11.0284 16.8791 11.1647 16.877 11.3301C16.875 11.4955 16.7638 11.6179 16.5938 11.6282C16.4669 11.6358 16.3394 11.6297 16.2124 11.6292Z" fill="white"/>
<path d="M14.187 18.1456C14.187 18.2961 14.1911 18.4175 14.186 18.5379C14.1773 18.7417 14.0483 18.8759 13.8696 18.8728C13.6965 18.8702 13.5797 18.7463 13.5669 18.5471C13.5629 18.4836 13.5654 18.4196 13.5649 18.356C13.5649 18.2936 13.5649 18.2311 13.5649 18.1456C13.421 18.1456 13.2956 18.1486 13.1706 18.145C12.9719 18.1394 12.848 18.0247 12.8434 17.847C12.8383 17.658 12.9597 17.5387 13.1701 17.531C13.2904 17.5269 13.4113 17.5305 13.5659 17.5305C13.5659 17.3943 13.5618 17.2693 13.5669 17.1448C13.5751 16.9282 13.6878 16.8058 13.8721 16.8053C14.0636 16.8043 14.1814 16.9349 14.1876 17.1577C14.1906 17.2719 14.1881 17.3861 14.1881 17.531C14.3304 17.531 14.4615 17.5269 14.5926 17.532C14.7851 17.5397 14.9157 17.6683 14.9142 17.8388C14.9126 18.0078 14.7769 18.1379 14.588 18.1445C14.462 18.1491 14.336 18.1456 14.1876 18.1456H14.187Z" fill="white"/>
<path d="M23.2387 14.8102C23.2407 16.0143 22.2684 16.995 21.0707 16.9965C19.8622 16.9981 18.8719 16.0117 18.8755 14.8108C18.8791 13.6165 19.8668 12.6311 21.0609 12.6321C22.2607 12.6327 23.2366 13.6093 23.2387 14.8108V14.8102ZM19.5053 14.8067C19.4997 15.6676 20.1864 16.3676 21.0481 16.3799C21.8925 16.3922 22.6155 15.6834 22.6253 14.8338C22.635 13.9734 21.9289 13.2569 21.0661 13.2523C20.2099 13.2477 19.511 13.9442 19.5053 14.8067Z" fill="white"/>
</svg>
