<svg width="80" height="84" viewBox="0 0 80 84" fill="none" xmlns="http://www.w3.org/2000/svg">
<g filter="url(#filter0_d_88_8)">
<circle cx="40" cy="40" r="40" transform="matrix(-1 0 0 1 80 0)" fill="#E7A572"/>
</g>
<path d="M42.1904 27.6322L40.7382 26.1799C40.1232 25.565 39.1289 25.565 38.5205 26.1799L25.8035 38.8905C25.1886 39.5054 25.1886 40.4997 25.8035 41.1081L38.5205 53.8251C39.1354 54.4401 40.1298 54.4401 40.7382 53.8251L42.1904 52.3729C42.8119 51.7514 42.7988 50.7375 42.1643 50.1291L34.2815 42.6192H53.0823C53.9524 42.6192 54.6523 41.9193 54.6523 41.0492V38.9559C54.6523 38.0858 53.9524 37.3859 53.0823 37.3859H34.2815L42.1643 29.876C42.8053 29.2676 42.8184 28.2537 42.1904 27.6322Z" fill="white"/>
<defs>
<filter id="filter0_d_88_8" x="0" y="0" width="80" height="84" filterUnits="userSpaceOnUse" color-interpolation-filters="sRGB">
<feFlood flood-opacity="0" result="BackgroundImageFix"/>
<feColorMatrix in="SourceAlpha" type="matrix" values="0 0 0 0 0 0 0 0 0 0 0 0 0 0 0 0 0 0 127 0" result="hardAlpha"/>
<feOffset dy="4"/>
<feComposite in2="hardAlpha" operator="out"/>
<feColorMatrix type="matrix" values="0 0 0 0 0 0 0 0 0 0 0 0 0 0 0 0 0 0 0.06 0"/>
<feBlend mode="normal" in2="BackgroundImageFix" result="effect1_dropShadow_88_8"/>
<feBlend mode="normal" in="SourceGraphic" in2="effect1_dropShadow_88_8" result="shape"/>
</filter>
</defs>
</svg>
