<svg width="33" height="33" viewBox="0 0 33 33" fill="none" xmlns="http://www.w3.org/2000/svg">
<path d="M16.4102 2.86924e-06C25.473 0.000122252 32.8203 7.36514 32.8203 16.4502C32.8203 16.5209 32.8183 16.5916 32.8174 16.6621L32.8174 32.9004L16.4609 32.8994C16.444 32.8995 16.4271 32.9004 16.4102 32.9004C7.34723 32.9004 5.51799e-05 25.5353 -2.87624e-06 16.4502C-1.28775e-06 7.36506 7.3472 1.28462e-06 16.4102 2.86924e-06Z" fill="#E7A572"/>
<path d="M16.8565 24.4927C14.2174 24.4927 11.5782 24.4927 8.93904 24.4927C8.08058 24.4927 7.55538 23.9675 7.55098 23.1068C7.54988 22.9143 7.55373 22.7219 7.55098 22.5294C7.54769 22.2797 7.66812 22.1554 7.91725 22.1549C7.99039 22.1549 8.06463 22.1477 8.13722 22.1549C8.33685 22.1763 8.42649 22.0916 8.41714 21.8903C8.41054 21.7534 8.41714 21.6154 8.41714 21.4779C8.41714 18.0138 8.41384 14.5497 8.42429 11.0856C8.42484 10.8492 8.47874 10.5879 8.58982 10.3823C8.75976 10.0666 9.07817 9.97586 9.43508 9.97696C11.3412 9.98301 13.2473 9.97971 15.1534 9.97971C16.4914 9.97971 17.8294 9.97531 19.1674 9.98356C19.4072 9.98521 19.57 9.91977 19.7256 9.72399C20.6929 8.50807 22.2575 8.09616 23.7924 8.63455C25.225 9.1372 26.1572 10.4439 26.183 11.9633C26.1973 12.8108 25.9526 13.5659 25.4587 14.2511C25.379 14.3616 25.3218 14.5167 25.3212 14.6515C25.313 17.0525 25.3168 19.4536 25.3124 21.8546C25.3124 22.074 25.3806 22.1615 25.6133 22.1593C26.1577 22.1543 26.1808 22.1884 26.1808 22.74C26.1808 22.8868 26.1825 23.0331 26.1803 23.18C26.1676 23.9493 25.6243 24.4921 24.8571 24.4927C22.1904 24.4943 19.5238 24.4932 16.8571 24.4932L16.8565 24.4927ZM19.135 10.6033C19.0156 10.5967 18.9166 10.5868 18.8176 10.5868C15.7484 10.5863 12.6786 10.5857 9.60942 10.5868C9.13702 10.5868 9.03693 10.6842 9.03693 11.1445C9.03583 14.6905 9.03583 18.236 9.03693 21.782C9.03693 22.1521 9.04023 22.1538 9.40044 22.1538C14.3758 22.1538 19.3505 22.1538 24.3259 22.1538C24.6894 22.1538 24.6943 22.151 24.6943 21.787C24.6954 19.6427 24.6954 17.4991 24.6938 15.3548C24.6938 15.2613 24.6751 15.1679 24.6652 15.0716C24.6091 15.0815 24.5882 15.0793 24.5739 15.0881C23.4102 15.7904 22.2069 15.9015 20.952 15.3466C20.8607 15.3064 20.7369 15.3229 20.6308 15.3356C20.2678 15.379 19.9065 15.4423 19.543 15.4791C19.1679 15.5171 19.0712 15.4186 19.102 15.0507C19.1212 14.823 19.1487 14.5954 19.1905 14.371C19.2603 13.9981 19.2675 13.6506 19.1108 13.2783C18.882 12.7327 18.8198 12.1454 18.932 11.5536C18.9892 11.2506 19.0607 10.9498 19.1361 10.6028L19.135 10.6033ZM19.7762 14.8054C19.9736 14.7812 20.1078 14.7571 20.2425 14.7505C20.573 14.734 20.8909 14.5992 21.2363 14.7648C22.3648 15.3064 23.4371 15.1327 24.405 14.3864C25.3817 13.633 25.7419 12.6068 25.4747 11.4112C25.2036 10.1969 24.4215 9.40722 23.2128 9.11685C22.0199 8.83033 20.9894 9.17954 20.2233 10.1452C19.4715 11.0928 19.2801 12.1536 19.7877 13.2849C19.8999 13.5345 19.9236 13.7688 19.8796 14.0278C19.8389 14.2682 19.8141 14.5118 19.7756 14.8054H19.7762ZM15.4894 23.8448C15.4283 23.5638 15.3613 23.3433 15.3371 23.1178C15.3079 22.85 15.1814 22.7812 14.9208 22.7823C12.7947 22.7928 10.6686 22.7878 8.54198 22.7884C8.48699 22.7884 8.42044 22.7703 8.37975 22.7944C8.3077 22.8373 8.20596 22.8995 8.19607 22.9655C8.11138 23.5264 8.40779 23.8619 8.97643 23.8624C11.0387 23.8635 13.1004 23.863 15.1627 23.8624C15.2601 23.8624 15.3569 23.852 15.4899 23.8448H15.4894ZM18.244 23.8437C18.365 23.8514 18.4541 23.8624 18.5427 23.8624C20.6231 23.8635 22.7035 23.8641 24.7834 23.8624C25.2849 23.8624 25.5341 23.5968 25.5484 23.1002C25.555 22.8637 25.4879 22.7807 25.241 22.7834C24.1141 22.795 22.9867 22.7884 21.8594 22.7884C20.8238 22.7884 19.7883 22.7845 18.7527 22.795C18.6472 22.7961 18.4745 22.8621 18.4503 22.9363C18.3579 23.2201 18.3133 23.5193 18.244 23.8437ZM16.8769 22.79V22.7884C16.7031 22.7884 16.5293 22.7884 16.3555 22.7884C15.9128 22.7884 15.9013 22.7917 16.0069 23.2251C16.1955 23.9972 16.0008 23.852 16.7983 23.8608C17.632 23.8701 17.6325 23.863 17.7672 23.0348C17.7689 23.026 17.7705 23.0166 17.7727 23.0078C17.8085 22.8544 17.7491 22.7856 17.5907 22.7884C17.3531 22.7928 17.115 22.7895 16.8774 22.7895L16.8769 22.79Z" fill="white"/>
<path d="M14.8035 16.9337C14.9102 16.9931 14.98 17.0332 15.051 17.0717C16.2388 17.7135 16.8498 18.7001 16.8311 20.059C16.8218 20.7244 16.2669 21.3376 15.6064 21.3481C14.2233 21.3701 12.8391 21.3739 11.456 21.347C10.7202 21.3327 10.1427 20.5831 10.2082 19.8423C10.3209 18.561 10.9237 17.6156 12.0824 17.0382C12.1148 17.0217 12.1462 17.0019 12.1753 16.9804C12.1885 16.9705 12.1951 16.9518 12.2182 16.9161C11.6892 16.4283 11.4016 15.8239 11.4725 15.0892C11.5236 14.559 11.7524 14.1075 12.1539 13.7495C12.9172 13.0681 14.1111 13.0571 14.8744 13.7193C15.3705 14.1499 15.6092 14.6998 15.5976 15.3455C15.5861 15.9801 15.3116 16.5086 14.8041 16.9348L14.8035 16.9337ZM13.515 20.725C14.1463 20.725 14.7777 20.7277 15.409 20.7239C15.9336 20.7206 16.2542 20.3609 16.2103 19.8357C16.0931 18.4504 15.1005 17.4391 13.6959 17.3604C12.1187 17.2719 10.9457 18.3795 10.8417 19.8594C10.8054 20.3741 11.1513 20.7228 11.676 20.7244C12.2892 20.7266 12.9018 20.7244 13.515 20.7244V20.725ZM13.537 13.8722C12.7665 13.8722 12.1137 14.5117 12.1038 15.2784C12.0939 16.0494 12.7555 16.7247 13.5276 16.733C14.2926 16.7407 14.9635 16.0615 14.9564 15.2883C14.9487 14.5101 14.3102 13.8733 13.537 13.8727V13.8722Z" fill="white"/>
<path d="M22.5591 13.1339C23.0079 13.1339 23.4561 13.1361 23.9048 13.1328C24.1231 13.1312 24.2986 13.1884 24.2997 13.4408C24.3008 13.6877 24.133 13.7636 23.9131 13.7636C22.9886 13.7636 22.0642 13.7631 21.1397 13.7636C20.9263 13.7636 20.7735 13.6756 20.7696 13.4513C20.7658 13.2241 20.9181 13.1345 21.132 13.1345C21.6077 13.1345 22.084 13.1345 22.5597 13.1345L22.5591 13.1339Z" fill="white"/>
<path d="M22.5317 12.4107C22.0736 12.4107 21.6155 12.4102 21.1574 12.4107C20.9407 12.4113 20.7587 12.3513 20.7658 12.0978C20.7724 11.8668 20.9402 11.8036 21.1491 11.8047C22.0747 11.8075 23.0002 11.8069 23.9252 11.8047C24.1342 11.8047 24.2954 11.8635 24.2992 12.1033C24.3031 12.3447 24.1414 12.4102 23.9329 12.4102C23.4655 12.4102 22.9986 12.4102 22.5311 12.4102L22.5317 12.4107Z" fill="white"/>
<path d="M21.8065 11.0755C21.5695 11.0755 21.3325 11.0755 21.0949 11.0755C20.9019 11.0755 20.7737 10.9836 20.766 10.7873C20.7572 10.5717 20.8947 10.476 21.0971 10.4749C21.5711 10.4716 22.0457 10.4722 22.5198 10.4749C22.7167 10.476 22.8305 10.5761 22.83 10.7768C22.8294 10.9776 22.7156 11.0749 22.5176 11.0755C22.2806 11.0766 22.0435 11.0755 21.806 11.0755H21.8065Z" fill="white"/>
</svg>
