<svg width="33" height="33" viewBox="0 0 33 33" fill="none" xmlns="http://www.w3.org/2000/svg">
<path d="M16.4102 2.86924e-06C25.473 0.000122252 32.8203 7.36514 32.8203 16.4502C32.8203 16.5209 32.8183 16.5916 32.8174 16.6621L32.8174 32.9004L16.4609 32.8994C16.444 32.8995 16.4271 32.9004 16.4102 32.9004C7.34723 32.9004 5.51799e-05 25.5353 -2.87624e-06 16.4502C-1.28775e-06 7.36506 7.3472 1.28462e-06 16.4102 2.86924e-06Z" fill="#E7A572"/>
<path d="M14.7539 9.58852C14.9431 9.50365 15.0552 9.4289 15.179 9.40165C15.5972 9.30899 15.7848 9.08396 15.7085 8.63936C15.6634 8.37773 15.8409 8.26016 16.083 8.25782C16.6149 8.25159 17.1467 8.25393 17.6785 8.25704C17.986 8.2586 18.067 8.4447 18.0639 8.72034C18.0623 8.88151 18.0483 9.12756 18.1386 9.18908C18.3785 9.35259 18.665 9.47484 18.9492 9.53168C19.0497 9.55192 19.2108 9.34714 19.3214 9.22489C19.5316 8.99208 19.7279 8.97028 19.9342 9.22022C19.9428 9.23034 19.9544 9.23735 19.9614 9.24825C20.5781 10.1647 21.4463 10.4209 22.5068 10.2838C23.0168 10.2177 23.5432 10.2644 24.0618 10.2745C25.0779 10.2955 25.7553 10.9916 25.7553 12.0031C25.7553 15.0125 25.7288 18.0227 25.7693 21.0314C25.7833 22.0639 25.1129 23.0387 23.7846 23.0053C22.5138 22.9733 21.2423 22.9983 19.9708 22.9983C19.8322 22.9983 19.6928 22.9983 19.5067 22.9983C19.7053 23.8688 19.8906 24.6832 20.0829 25.5288C20.6848 25.5288 21.2797 25.5312 21.8746 25.5281C22.098 25.5265 22.3192 25.5499 22.3153 25.8333C22.3122 26.1167 22.0817 26.137 21.8644 26.137C18.5046 26.137 15.1448 26.137 11.7849 26.137C11.5646 26.137 11.3396 26.1043 11.3489 25.8193C11.3583 25.5351 11.5856 25.5273 11.8044 25.5281C12.3868 25.5312 12.9693 25.5288 13.5782 25.5288C13.7697 24.6972 13.9566 23.8836 14.1559 23.0193C13.9901 23.0115 13.8546 22.9998 13.7183 22.9998C12.46 22.9983 11.201 22.9663 9.94346 23.0076C8.59019 23.0512 7.87695 22.1122 7.89486 20.9769C7.94236 18.0586 7.93924 15.1387 7.8972 12.2211C7.88007 11.0578 8.74669 10.22 9.86404 10.2636C10.719 10.2971 11.5763 10.2838 12.432 10.2597C12.6251 10.2543 12.8455 10.1538 12.9996 10.0292C13.2807 9.80187 13.5198 9.52311 13.7775 9.2685C14.1022 8.9477 14.1699 8.9477 14.5016 9.2794C14.5927 9.3705 14.6667 9.47951 14.7539 9.58774V9.58852ZM18.922 17.1211C18.8511 17.1538 18.7732 17.2005 18.6891 17.2254C18.2531 17.3547 17.9237 17.5384 18.0312 18.0991C18.0787 18.3467 17.8506 18.4152 17.6388 18.4167C17.1326 18.4214 16.6265 18.4144 16.1204 18.4199C15.8113 18.423 15.6704 18.2867 15.6813 17.9706C15.6875 17.8078 15.707 17.5579 15.6174 17.4956C15.3791 17.3298 15.0926 17.206 14.8084 17.146C14.7072 17.125 14.5413 17.322 14.4323 17.4442C14.2073 17.6973 14.015 17.6872 13.7868 17.4403C13.4699 17.0977 13.1281 16.7785 12.8003 16.4452C12.4935 16.1338 12.4795 15.9975 12.8018 15.7094C13.0424 15.4945 13.1164 15.2983 12.9186 15.0203C12.8532 14.9284 12.854 14.7891 12.7855 14.7011C12.7178 14.6139 12.6072 14.5165 12.5067 14.5056C11.8348 14.4348 11.8348 14.4418 11.7912 13.7535C11.7888 13.7184 11.7639 13.6842 11.7483 13.6468H10.8046C10.8046 14.6723 10.7976 15.6697 10.8155 16.6664C10.8171 16.7629 10.9549 16.8859 11.0585 16.9474C11.5506 17.2394 11.7857 17.7666 11.644 18.3062C11.5194 18.778 11.0538 19.1409 10.5547 19.1549C9.99096 19.1705 9.54558 18.8504 9.38907 18.3179C9.23646 17.7985 9.43267 17.2542 9.92867 16.991C10.1685 16.8641 10.2183 16.7146 10.216 16.474C10.2059 15.5007 10.2098 14.5274 10.2129 13.5549C10.2144 13.0722 10.29 13.0013 10.7836 12.999C11.1145 12.9974 11.4455 12.999 11.799 12.999C11.799 12.7794 11.7546 12.6057 11.8114 12.4757C11.8706 12.3402 12.0396 12.1401 12.1369 12.1534C12.6165 12.2157 12.8151 11.9984 12.9498 11.5694C13.0892 11.1256 12.9638 10.8873 12.4834 10.885C11.6269 10.8811 10.7688 10.9216 9.91465 10.8733C9.02389 10.8234 8.47728 11.3732 8.48741 12.2959C8.51466 14.8 8.49675 17.3041 8.49675 19.8082C8.49675 19.946 8.49675 20.0838 8.49675 20.2263H25.1799C25.1955 20.1702 25.2079 20.1461 25.2079 20.122C25.2095 17.41 25.2157 14.6987 25.2064 11.9867C25.204 11.3848 24.7259 10.9114 24.1046 10.8982C23.1188 10.8764 22.1323 10.8842 21.1465 10.8951C20.7852 10.899 20.6155 11.1949 20.7557 11.518C20.8172 11.6605 20.8499 11.8201 20.9347 11.9455C20.9939 12.0334 21.1146 12.1253 21.2151 12.1347C21.9034 12.1977 21.9034 12.1907 21.9392 12.8915C21.9407 12.9273 21.9633 12.9616 21.9882 13.0286C22.3308 13.0286 22.6797 13.0387 23.0269 13.0254C23.3727 13.0122 23.5128 13.1485 23.5066 13.5066C23.4902 14.5313 23.5058 15.5568 23.4965 16.5815C23.4949 16.773 23.5494 16.8727 23.7269 16.9646C24.2642 17.2433 24.4908 17.7821 24.339 18.3358C24.2074 18.8154 23.7067 19.193 23.206 19.1907C22.689 19.1884 22.2265 18.8333 22.0848 18.3303C21.9337 17.7915 22.1424 17.2628 22.6657 16.9864C22.8775 16.8743 22.9226 16.7442 22.9203 16.5324C22.9117 15.6892 22.9179 14.8459 22.9156 14.0026C22.9156 13.8804 22.8961 13.7574 22.8868 13.6429H21.9485C21.9423 13.7683 21.9345 13.8703 21.933 13.9723C21.9252 14.4418 21.8738 14.5407 21.4268 14.4846C20.8374 14.4106 20.9215 14.9129 20.7315 15.1838C20.5306 15.4704 20.8078 15.5747 20.9449 15.7117C21.1948 15.9617 21.2306 16.1805 20.9488 16.4328C20.7074 16.6484 20.4878 16.889 20.2581 17.118C19.5908 17.7806 19.6702 17.8405 19.0037 17.1655C18.9866 17.1483 18.9593 17.1405 18.9204 17.1195L18.922 17.1211ZM17.5477 17.8608C17.2463 17.1047 17.7563 16.963 18.2702 16.8197C18.3567 16.7956 18.44 16.7551 18.5217 16.717C18.9152 16.5306 19.2744 16.5869 19.5994 16.8859C19.615 16.9007 19.6453 16.8999 19.664 16.9054C19.9295 16.6422 20.1927 16.3814 20.4699 16.1065C20.4138 16.0434 20.371 15.9765 20.3118 15.9321C19.9918 15.6962 19.9622 15.4416 20.1849 15.1036C20.3313 14.8817 20.4216 14.6123 20.4878 14.3522C20.5649 14.0478 20.7222 13.9084 21.0352 13.9333C21.1465 13.9419 21.2602 13.924 21.3755 13.9178V12.7405C20.7043 12.9429 20.4917 12.5544 20.3804 12.0327C20.3671 11.9704 20.3399 11.9073 20.3048 11.8551C19.998 11.395 19.8828 10.9605 20.4598 10.6451C20.1616 10.3563 19.889 10.0931 19.6165 9.8299C19.2879 10.1273 18.903 10.1748 18.4618 9.97239C18.4026 9.94514 18.3458 9.90854 18.2843 9.89608C17.7415 9.78551 17.3086 9.58774 17.5157 8.86438H16.3392C16.3314 8.9695 16.3159 9.03413 16.3236 9.09486C16.3774 9.49664 16.2333 9.73802 15.8097 9.8042C15.6353 9.83145 15.4671 9.91944 15.3036 9.99497C14.8987 10.1824 14.5302 10.1273 14.198 9.8299C14.1816 9.8151 14.1505 9.81588 14.1559 9.81666C13.8733 10.0822 13.6015 10.3368 13.3329 10.5898C13.6282 10.9558 13.6804 11.3545 13.4894 11.7858C13.4738 11.8217 13.4543 11.8559 13.4442 11.8933C13.3049 12.436 13.1374 12.9437 12.3892 12.7327V13.8983C12.4935 13.9053 12.5714 13.924 12.6453 13.9146C13.0284 13.8648 13.255 13.9909 13.3212 14.406C13.357 14.6287 13.4621 14.8568 13.5898 15.0452C13.825 15.3909 13.7954 15.6627 13.4567 15.9072C13.3983 15.9492 13.3562 16.0154 13.2901 16.0894C13.5789 16.3705 13.8546 16.6383 14.166 16.9412C14.5226 16.3082 14.9735 16.4966 15.4344 16.7863C15.4555 16.7995 15.4827 16.8057 15.5076 16.8112C16.0534 16.9365 16.5128 17.1343 16.305 17.8616H17.5461L17.5477 17.8608ZM25.2064 20.8757H8.55359C8.36672 21.7766 8.86894 22.4127 9.7597 22.4135C14.4806 22.4151 19.2015 22.4151 23.9224 22.4135C24.8645 22.4135 25.3403 21.8575 25.2071 20.8757H25.2064ZM19.5161 25.5148C19.3533 24.7331 19.2062 23.9856 19.0333 23.2443C19.0107 23.1462 18.8534 23.0099 18.7577 23.0092C17.5126 22.9936 16.2676 22.9944 15.0225 23.0076C14.9338 23.0084 14.7897 23.1213 14.7679 23.2062C14.5756 23.9661 14.4058 24.7307 14.2244 25.5156H19.5168L19.5161 25.5148ZM11.1106 18.0103C11.1099 17.7066 10.8436 17.4372 10.5407 17.4325C10.2417 17.4279 9.96371 17.6942 9.95203 17.9947C9.94035 18.3062 10.2316 18.5989 10.5454 18.5919C10.8482 18.5849 11.1114 18.3132 11.1106 18.0103ZM23.2201 18.5927C23.5198 18.5873 23.7931 18.3108 23.7939 18.0134C23.7947 17.7004 23.4957 17.4162 23.1842 17.4333C22.8798 17.4497 22.6252 17.7269 22.6361 18.0305C22.6462 18.335 22.9203 18.5982 23.2208 18.5927H23.2201Z" fill="white"/>
<path d="M17.7093 14.8463C17.6571 14.9094 17.601 15.034 17.5138 15.0628C17.4227 15.0923 17.2958 15.0433 17.1961 15.0012C17.1486 14.981 17.1292 14.8969 17.0965 14.8416C16.9828 14.6477 16.8925 14.3098 16.7508 14.2865C16.31 14.214 15.8499 14.2545 15.3975 14.2717C15.3438 14.274 15.2846 14.397 15.2456 14.4733C15.1756 14.6111 15.1514 14.7879 15.0487 14.8891C14.9498 14.9865 14.7761 15.0083 14.636 15.0635C14.5908 14.9296 14.4717 14.7661 14.5122 14.6672C14.9241 13.6651 15.3531 12.6692 15.7969 11.6803C15.9363 11.3689 16.2407 11.3603 16.377 11.664C16.8201 12.6529 17.239 13.6526 17.6657 14.6485C17.6859 14.6952 17.689 14.749 17.7093 14.8463ZM16.5756 13.6488C16.4159 13.2758 16.268 12.9293 16.0881 12.508C15.9083 12.9324 15.7642 13.2703 15.6038 13.6488H16.5763H16.5756Z" fill="white"/>
<path d="M18.5804 13.247C18.5804 12.7814 18.5602 12.3142 18.5929 11.8509C18.603 11.7115 18.747 11.4865 18.8561 11.4693C19.0951 11.4312 19.1636 11.6422 19.1636 11.8587C19.1628 12.8032 19.1737 13.7476 19.1512 14.6906C19.148 14.8237 18.9962 15.0441 18.8833 15.0651C18.6334 15.1126 18.5789 14.8985 18.5804 14.682C18.5827 14.2031 18.5812 13.7251 18.5812 13.2462L18.5804 13.247Z" fill="white"/>
</svg>
