<svg width="108" height="108" viewBox="0 0 108 108" fill="none" xmlns="http://www.w3.org/2000/svg">
<path d="M53.5518 0C83.1273 0.000169053 107.103 23.9762 107.103 53.5518C107.103 53.8816 107.099 54.2107 107.093 54.5391V107.093H54.5615C54.2257 107.099 53.8891 107.103 53.5518 107.103C23.9762 107.103 0.000107552 83.1273 0 53.5518C0 23.9761 23.9761 0 53.5518 0Z" fill="#E7A572"/>
<path d="M82.0768 48.9306C82.4809 48.6154 83.0819 48.9103 83.0819 49.4084V70.198C83.0819 72.892 80.8542 75.0777 78.1084 75.0777H35.0043C32.2585 75.0777 30.0308 72.892 30.0308 70.198V49.4186C30.0308 48.9103 30.6214 48.6256 31.0358 48.9408C33.3568 50.7096 36.4342 52.9563 47.003 60.4894C49.1893 62.055 52.878 65.3488 56.5563 65.3284C60.2554 65.3589 64.0166 61.994 66.12 60.4894C76.6888 52.9563 79.7558 50.6995 82.0768 48.9306ZM56.5563 62.0651C58.9602 62.1058 62.421 59.0966 64.1617 57.8564C77.9115 48.0665 78.958 47.2125 82.1286 44.7727C82.7296 44.3152 83.0819 43.6036 83.0819 42.8513V40.9197C83.0819 38.2257 80.8542 36.04 78.1084 36.04H35.0043C32.2585 36.04 30.0308 38.2257 30.0308 40.9197V42.8513C30.0308 43.6036 30.3831 44.305 30.984 44.7727C34.1547 47.2024 35.2012 48.0665 48.951 57.8564C50.6917 59.0966 54.1525 62.1058 56.5563 62.0651Z" fill="white"/>
</svg>
