<svg width="80" height="84" viewBox="0 0 80 84" fill="none" xmlns="http://www.w3.org/2000/svg">
<g filter="url(#filter0_d_88_9)">
<circle cx="40" cy="40" r="40" fill="#E7A572"/>
</g>
<path d="M37.8096 27.6322L39.2618 26.1799C39.8768 25.565 40.8711 25.565 41.4795 26.1799L54.1965 38.8905C54.8114 39.5054 54.8114 40.4997 54.1965 41.1081L41.4795 53.8251C40.8646 54.4401 39.8702 54.4401 39.2618 53.8251L37.8096 52.3729C37.1881 51.7514 37.2012 50.7375 37.8357 50.1291L45.7185 42.6192H26.9177C26.0476 42.6192 25.3477 41.9193 25.3477 41.0492V38.9559C25.3477 38.0858 26.0476 37.3859 26.9177 37.3859H45.7185L37.8357 29.876C37.1947 29.2676 37.1816 28.2537 37.8096 27.6322Z" fill="white"/>
<defs>
<filter id="filter0_d_88_9" x="0" y="0" width="80" height="84" filterUnits="userSpaceOnUse" color-interpolation-filters="sRGB">
<feFlood flood-opacity="0" result="BackgroundImageFix"/>
<feColorMatrix in="SourceAlpha" type="matrix" values="0 0 0 0 0 0 0 0 0 0 0 0 0 0 0 0 0 0 127 0" result="hardAlpha"/>
<feOffset dy="4"/>
<feComposite in2="hardAlpha" operator="out"/>
<feColorMatrix type="matrix" values="0 0 0 0 0 0 0 0 0 0 0 0 0 0 0 0 0 0 0.06 0"/>
<feBlend mode="normal" in2="BackgroundImageFix" result="effect1_dropShadow_88_9"/>
<feBlend mode="normal" in="SourceGraphic" in2="effect1_dropShadow_88_9" result="shape"/>
</filter>
</defs>
</svg>
