<svg width="33" height="33" viewBox="0 0 33 33" fill="none" xmlns="http://www.w3.org/2000/svg">
<path d="M16.4102 2.86924e-06C25.473 0.000122252 32.8203 7.36514 32.8203 16.4502C32.8203 16.5209 32.8183 16.5916 32.8174 16.6621L32.8174 32.9004L16.4609 32.8994C16.444 32.8995 16.4271 32.9004 16.4102 32.9004C7.34723 32.9004 5.51799e-05 25.5353 -2.87624e-06 16.4502C-1.28775e-06 7.36506 7.3472 1.28462e-06 16.4102 2.86924e-06Z" fill="#E7A572"/>
<path d="M16.0856 28.3074C15.2854 27.9831 14.5025 27.6064 13.6819 27.3477C12.4198 26.9506 11.1064 26.8722 9.78697 26.9C9.61448 26.9037 9.42845 26.8876 9.27076 26.824C8.96029 26.6993 8.83155 26.4356 8.83216 26.104C8.83339 25.5636 8.82847 25.0233 8.83463 24.4829C8.83647 24.3489 8.7952 24.2853 8.66707 24.2297C8.06647 23.971 7.74553 23.5103 7.7326 22.8471C7.72705 22.5772 7.74184 22.3061 7.7289 22.0368C7.6981 21.4063 7.97222 20.9419 8.50999 20.6523C8.77303 20.5109 8.84879 20.3405 8.83894 20.0514C8.81615 19.3654 8.83524 18.678 8.83031 17.9907C8.82785 17.6628 8.92456 17.388 9.18575 17.1762C9.23503 17.136 9.26275 17.0502 9.27137 16.9823C9.29047 16.8297 9.27753 16.6729 9.30279 16.5222C9.37116 16.1109 9.70565 15.7842 10.1159 15.8145C10.8865 15.8713 11.5746 15.7144 12.2578 15.3316C12.6729 15.0994 13.1867 15.0345 13.6635 14.9265C14.2456 14.7943 14.5653 14.4936 14.5684 13.9915C14.5684 13.8958 14.5099 13.768 14.4359 13.7093C13.7442 13.1621 13.345 12.4507 13.2101 11.567C13.138 11.5442 13.0592 11.5207 12.9816 11.4942C12.5208 11.3392 12.2208 10.9353 12.2116 10.4518C12.2066 10.1893 12.2035 9.92684 12.214 9.66439C12.2189 9.54335 12.2245 9.40255 12.2855 9.30745C12.4462 9.05734 12.4475 8.78933 12.4419 8.51144C12.437 8.24219 12.5738 8.09151 12.7949 8.09768C13.0037 8.10386 13.1275 8.25454 13.1319 8.50897C13.1423 9.06846 13.1737 9.10304 13.7861 9.21235C13.7861 8.90172 13.7848 8.5948 13.7861 8.28789C13.7885 7.7321 14.0238 7.33564 14.476 7.16766C14.9669 6.98487 15.3957 7.10221 15.7517 7.4857C16.279 8.05445 16.8919 8.47624 17.6829 8.55158C17.9385 8.57566 18.2046 8.55096 18.4597 8.50958C18.8853 8.44165 19.1083 8.51699 19.3461 8.87208C19.4453 9.02029 19.5666 9.11107 19.7496 9.05981C19.927 9.01041 19.9122 8.86035 19.9122 8.72016C19.9116 8.12609 19.9122 7.5314 19.9122 6.93732C19.9116 6.58965 19.8198 6.48466 19.4822 6.43773C19.1095 6.38586 18.8613 6.14502 18.7905 5.76708C18.7128 5.35147 18.6352 5.28663 18.2102 5.28663C17.2344 5.28663 16.2587 5.28601 15.2823 5.28663C14.2173 5.28725 13.4898 5.83007 13.1848 6.84963C13.1103 7.09912 12.9526 7.21398 12.7567 7.16272C12.543 7.10653 12.4444 6.91941 12.5134 6.66931C12.8134 5.58367 13.5181 4.91672 14.6023 4.64501C14.6522 4.63266 14.6996 4.61104 14.7482 4.59375C16.0394 4.59375 17.3305 4.59375 18.6217 4.59375C19.1022 4.76172 19.4139 5.07235 19.4865 5.59911C19.4939 5.65469 19.5845 5.73126 19.6467 5.74238C20.2633 5.85601 20.6027 6.25123 20.6034 6.87618C20.604 7.50917 20.6034 8.14153 20.6034 8.77451C20.6034 9.38093 20.6064 9.98736 20.604 10.5938C20.6027 11.0366 20.3902 11.328 19.9787 11.4942C19.9116 11.5213 19.8364 11.6078 19.8235 11.6776C19.6547 12.6076 19.1853 13.3375 18.3956 13.8501C18.2373 13.9532 18.2176 14.0668 18.2656 14.2169C18.3771 14.5664 18.6063 14.803 18.9685 14.8777C19.6375 15.016 20.3255 15.1185 20.9095 15.4903C21.3364 15.7626 21.7694 15.8503 22.2549 15.8077C22.4372 15.7916 22.6263 15.791 22.8068 15.82C23.2552 15.8923 23.5343 16.2468 23.5349 16.7482C23.5349 16.9718 23.5749 17.1385 23.7499 17.312C24.0887 17.6474 24.0037 18.1006 23.9489 18.5175C23.9273 18.6805 23.7567 18.7478 23.5836 18.7243C23.4062 18.7003 23.3095 18.5835 23.2904 18.4162C23.2725 18.2637 23.2823 18.108 23.2836 17.9537C23.2848 17.7949 23.214 17.7017 23.0526 17.7005C21.22 17.6856 19.4212 17.8641 17.7322 18.6583C17.5966 18.7219 17.5381 18.7929 17.5387 18.951C17.5437 21.6212 17.5424 24.2915 17.5431 26.9611C17.5431 27.0142 17.5486 27.0673 17.5535 27.1556C19.3818 26.3516 21.3 26.17 23.2663 26.1873V24.344C23.0969 24.344 22.9244 24.3452 22.7514 24.344C22.0984 24.3384 21.7719 24.0124 21.7719 23.3615C21.7719 23.0224 21.7528 22.6797 21.791 22.3444C21.8612 21.7244 22.3319 21.326 22.954 21.3199C23.3144 21.3162 23.2836 21.3563 23.2842 20.9802C23.2848 20.6869 23.283 20.3936 23.2848 20.1002C23.2867 19.8353 23.4191 19.6679 23.6261 19.6599C23.8349 19.6519 24.0012 19.8192 23.976 20.0798C23.9476 20.3713 24.0653 20.5183 24.3098 20.6535C24.8439 20.9493 25.1186 21.4113 25.0885 22.0412C25.0749 22.3258 25.0928 22.6124 25.0817 22.8977C25.0577 23.5313 24.738 23.9728 24.1688 24.2236C24.024 24.2872 23.9772 24.3551 23.9797 24.5089C23.9889 25.0257 23.9858 25.5426 23.9821 26.0601C23.9784 26.6171 23.6766 26.9204 23.1203 26.9055C21.7239 26.8691 20.3416 26.9698 19.0017 27.3854C18.4849 27.5459 17.9909 27.7824 17.4882 27.9875C17.2351 28.0906 16.9843 28.2011 16.7324 28.3086H16.0868L16.0856 28.3074ZM15.2731 27.1612V26.845C15.2731 24.415 15.2737 21.9843 15.2719 19.5543C15.2719 19.2863 15.3519 18.9423 15.2195 18.7694C15.063 18.565 14.7224 18.4921 14.4507 18.3909C12.9692 17.8376 11.4261 17.6863 9.85904 17.6986C9.57506 17.7011 9.53379 17.7449 9.53317 18.042C9.53256 19.022 9.53317 20.0014 9.53317 20.9815C9.53317 21.3594 9.50792 21.3149 9.86581 21.3186C10.5366 21.3254 11.0202 21.7997 11.0442 22.4827C11.0541 22.768 11.0467 23.0533 11.0461 23.3392C11.0448 24.0204 10.7245 24.3403 10.0408 24.3434C9.87567 24.344 9.7112 24.3434 9.55042 24.3434V26.1867C11.5124 26.1707 13.4269 26.3467 15.2725 27.1612H15.2731ZM19.9134 9.76381C19.4077 9.82618 19.027 9.6718 18.7572 9.25928C18.7326 9.22161 18.6414 9.20494 18.5866 9.2142C18.1202 9.29324 17.6576 9.30189 17.1944 9.18826C16.4059 8.99374 15.7764 8.5454 15.2318 7.95935C15.0944 7.81176 14.9404 7.73951 14.739 7.81917C14.5425 7.89698 14.4926 8.05569 14.4932 8.24651C14.4945 8.57813 14.5018 8.90975 14.4932 9.24137C14.4791 9.78975 14.0663 10.0781 13.5501 9.90523C13.3413 9.83545 13.1349 9.75949 12.9021 9.67674C12.9021 9.89349 12.9021 10.0843 12.9021 10.2751C12.9033 10.7043 13.0345 10.839 13.462 10.8494C13.7368 10.8562 13.8458 10.9544 13.8828 11.2305C13.8908 11.2916 13.8994 11.3527 13.9056 11.4139C14.0361 12.6724 15.1265 13.6661 16.3844 13.7253C17.5307 13.7797 19.0387 12.9769 19.1619 11.3027C19.1921 10.8958 19.2463 10.8538 19.6529 10.8272C19.8321 10.8155 19.9184 10.7377 19.9147 10.553C19.9097 10.2998 19.9134 10.046 19.9134 9.76319V9.76381ZM15.9833 19.164V19.4259C15.9833 22.0245 15.9833 24.6225 15.9833 27.2211C15.9833 27.57 16.003 27.5916 16.3554 27.6108C16.4164 27.6139 16.478 27.6064 16.539 27.604C16.7601 27.5941 16.8396 27.499 16.839 27.2575C16.8285 24.6435 16.8328 22.03 16.8328 19.416C16.8328 19.3264 16.8328 19.2363 16.8328 19.164H15.9839H15.9833ZM10.0063 16.9835C10.0537 16.9891 10.0907 16.9946 10.1276 16.9971C10.8619 17.0477 11.6005 17.0638 12.3298 17.1552C13.6167 17.317 14.8542 17.6603 15.9729 18.3495C16.2648 18.5292 16.5408 18.5206 16.8396 18.3551C17.2006 18.1544 17.5665 17.9537 17.949 17.8005C19.4305 17.2089 20.9847 17.0138 22.5678 16.9977C22.6485 16.9971 22.7298 16.9977 22.8056 16.9977C22.8592 16.5401 22.8308 16.4888 22.4181 16.5061C21.7436 16.5345 21.0672 16.5586 20.3976 16.6395C19.2013 16.7846 18.0525 17.0959 17.025 17.7659C16.6184 18.0308 16.2069 18.0197 15.7893 17.7721C15.493 17.5961 15.1936 17.4182 14.8788 17.2824C13.4491 16.6655 11.935 16.5166 10.3999 16.5061C9.97854 16.503 9.95698 16.5364 10.0056 16.9835H10.0063ZM12.6089 15.8892C12.6853 15.9466 12.6963 15.9602 12.7093 15.9633C12.7536 15.9738 12.7992 15.9812 12.8442 15.9886C14.0097 16.1813 15.1314 16.4993 16.1336 17.1564C16.324 17.2811 16.5008 17.2756 16.6887 17.1515C17.4143 16.6716 18.2157 16.3734 19.0566 16.1745C19.4188 16.0893 19.7853 16.0195 20.15 15.9429L20.1598 15.8738C19.6947 15.7694 19.2309 15.6601 18.764 15.5656C18.7042 15.5533 18.6223 15.6095 18.5619 15.6508C17.3121 16.508 15.8158 16.5345 14.5708 15.6891C14.3509 15.5397 14.1711 15.5045 13.9253 15.5736C13.5076 15.6916 13.0813 15.7774 12.6083 15.8886L12.6089 15.8892ZM8.81923 21.2816C8.57652 21.4329 8.43546 21.6206 8.42991 21.8886C8.42314 22.2196 8.42129 22.5513 8.42991 22.8829C8.44038 23.2886 8.76071 23.6177 9.16049 23.6313C9.48266 23.6424 9.80483 23.6313 10.127 23.6369C10.2736 23.6394 10.3371 23.5782 10.3346 23.4312C10.3309 23.1848 10.3346 22.9378 10.3346 22.6914C10.3346 22.1332 10.2373 22.0325 9.68532 22.0208C9.203 22.0103 8.93873 21.7941 8.81923 21.281V21.2816ZM23.9944 21.2902C23.8731 21.8034 23.6113 22.0134 23.1093 22.0214C23.0329 22.0226 22.9552 22.0189 22.8795 22.0294C22.6331 22.0628 22.492 22.2104 22.4852 22.4592C22.4766 22.7828 22.4852 23.1064 22.4809 23.43C22.4791 23.5758 22.5394 23.6394 22.6873 23.6369C23.0095 23.6313 23.3322 23.6424 23.6538 23.6313C24.0536 23.6177 24.3739 23.2892 24.3856 22.8835C24.3948 22.5525 24.3961 22.2202 24.3844 21.8892C24.3751 21.6268 24.2544 21.423 23.9944 21.2902ZM17.9878 15.1747C17.8227 14.8666 17.6656 14.5745 17.5313 14.3244C17.142 14.3571 16.7607 14.425 16.3831 14.4102C16.0092 14.3954 15.639 14.296 15.3002 14.2391C15.1758 14.5109 15.0495 14.7863 14.9201 15.0685C15.6692 15.7286 17.0891 15.7818 17.9884 15.1753L17.9878 15.1747Z" fill="white"/>
<path d="M22.7803 19.3764C22.7797 19.5919 22.6356 19.7136 22.359 19.7383C21.8779 19.7815 21.3925 19.7994 20.9169 19.8803C20.3219 19.981 19.7336 20.1286 19.1453 20.2669C18.8657 20.333 18.6759 20.27 18.618 20.0612C18.557 19.8395 18.6655 19.6876 18.9445 19.5968C20.0552 19.2374 21.2009 19.0905 22.3602 19.0244C22.6128 19.0102 22.781 19.1565 22.7803 19.3764Z" fill="white"/>
</svg>
