<svg width="74" height="81" viewBox="0 0 74 81" fill="none" xmlns="http://www.w3.org/2000/svg">
<path d="M18.8043 0C19.4482 0.407552 19.6551 0.992483 19.6087 1.74001C19.5601 2.52555 19.615 3.31743 19.5897 4.10508C19.5643 4.90751 19.0492 5.3932 18.2976 5.3763C17.5882 5.35941 17.0942 4.87373 17.0773 4.11142C17.054 3.16539 16.9907 2.2088 17.1068 1.27756C17.1617 0.825662 17.5945 0.424445 17.8563 0H18.8043Z" fill="white"/>
<path d="M21.1365 74.6686C19.5426 74.8312 18.0311 75.0466 16.5132 75.1205C15.4978 75.169 14.4528 75.1205 13.4563 74.9325C10.4818 74.3687 9.10109 72.2084 9.72598 69.25C9.73653 69.1993 9.75553 69.1486 9.77242 69.1C10.0912 68.2047 10.1271 67.455 9.30798 66.6779C8.61553 66.0212 8.53109 65.016 8.96175 64.0995C9.13698 63.73 9.09687 63.4893 8.85409 63.1957C8.68942 62.9972 8.48675 62.746 8.48253 62.5137C8.45931 61.3797 7.74998 61.0355 6.79998 60.6828C5.29686 60.1253 4.66564 58.6345 5.18075 57.038C5.45942 56.1786 5.92175 55.3614 6.39675 54.5843C6.97309 53.6446 7.66975 52.7788 8.27987 51.8581C9.59509 49.8773 10.2685 47.7213 10.2052 45.3118C10.1081 41.6354 10.923 38.1637 12.7639 34.9519C12.8673 34.7724 12.8884 34.5169 12.8673 34.3036C12.7575 33.2139 12.5169 32.1264 12.519 31.0368C12.519 29.4213 12.0524 28.0509 10.9462 26.8768C10.334 26.2264 9.73653 25.5527 9.19609 24.8411C4.36164 18.4743 8.04342 8.89359 15.9263 7.29715C22.3335 5.99846 28.3502 10.0402 29.4923 16.4661C29.9462 19.0234 29.5789 21.4941 28.1623 23.9352C31.7808 23.0483 35.2915 22.8498 38.8994 23.2151C38.7981 22.9638 38.7284 22.7737 38.6482 22.5879C38.2492 21.6609 38.4223 20.8289 39.1021 20.113C39.8093 19.3676 40.5377 18.6433 41.2787 17.9337C42.064 17.182 42.9697 16.9412 43.869 17.5452C45.2286 18.4617 46.3728 18.2674 47.8252 17.6571C49.1404 17.1038 49.9026 16.4598 50.2319 15.0745C50.538 13.7779 51.3276 13.3134 52.6787 13.307C53.5738 13.3028 54.4689 13.2965 55.364 13.3091C56.4702 13.326 57.3484 13.8138 57.5574 14.8739C57.8741 16.4851 58.8283 17.163 60.2787 17.769C61.6002 18.3202 62.5924 18.3941 63.8 17.6318C64.9126 16.9286 65.7697 17.1397 66.7155 18.0604C67.3952 18.7214 68.0708 19.3866 68.721 20.0771C69.4852 20.888 69.7027 21.8235 69.0989 22.7505C68.2692 24.026 68.3304 25.0966 68.9511 26.503C69.5507 27.8587 70.165 28.7583 71.6787 29.0771C72.8609 29.3263 73.319 30.1351 73.3253 31.3535C73.3317 32.327 73.3359 33.3026 73.3232 34.2782C73.3106 35.3066 72.8419 36.1407 71.8349 36.3498C70.222 36.6856 69.4789 37.6084 68.8815 39.1182C68.3642 40.4233 68.2798 41.3967 69.0187 42.5835C69.728 43.7217 69.5127 44.6023 68.5648 45.5716C67.9399 46.2114 67.3108 46.8491 66.6648 47.47C65.7823 48.3189 64.8893 48.5406 63.8739 47.8923C62.6241 47.0941 61.5876 47.1701 60.2069 47.7424C58.7566 48.3442 58.1232 49.1804 57.5152 50.5805C56.5504 52.7957 55.1149 54.8081 53.8292 56.8754C53.2043 57.8806 52.495 58.833 51.7836 59.779C48.7478 63.8187 48.1334 68.2342 49.7104 72.9919C50.0482 74.0139 50.4113 75.0275 50.7871 76.0369C51.773 78.685 50.2403 80.9424 47.4347 80.9445C40.1661 80.9487 32.8997 80.9466 25.6311 80.9445C23.6467 80.9445 22.4349 79.9816 21.9641 78.0515C21.6918 76.9323 21.411 75.8131 21.1302 74.6749L21.1365 74.6686ZM39.0451 25.8653C35.281 25.1578 30.1573 25.7576 25.9689 27.2991C25.1582 27.5968 24.6199 28.0699 24.4995 28.866C24.3222 30.0274 24.2272 31.2057 24.1955 32.3819C24.1301 34.7618 22.6333 36.808 20.2942 37.3085C18.4301 37.7055 16.5322 37.7351 14.7652 36.6581C14.6153 36.9495 14.4781 37.2008 14.3556 37.4584C13.165 39.984 12.6942 42.6469 12.7808 45.428C12.8568 47.8543 12.2804 50.1328 11.0328 52.2107C10.2474 53.5157 9.33964 54.7469 8.51209 56.0266C8.19964 56.508 7.93153 57.0212 7.68664 57.5406C7.44386 58.0538 7.60853 58.4254 8.19331 58.5141C8.86887 58.6155 9.54653 58.7 10.2263 58.7506C10.847 58.7971 11.3684 58.9618 11.6112 59.5974C11.8413 60.1971 11.6218 60.6828 11.1826 61.0862C10.7309 61.5001 10.8702 61.8062 11.3262 62.0702C11.5078 62.1737 11.7104 62.2413 11.8941 62.3405C12.8758 62.8663 12.9159 64.0235 11.9743 64.6296C11.7632 64.7668 11.5458 64.8957 11.1573 65.1343C11.6091 65.4236 11.9131 65.6411 12.2382 65.8206C12.9496 66.2112 13.1924 66.7645 12.9412 67.5332C12.7702 68.0569 12.538 68.5616 12.3881 69.0916C11.7146 71.482 12.4831 72.6202 14.9848 72.5548C17.1824 72.4956 19.3738 72.1641 21.5609 71.9044C22.6439 71.7755 23.1294 72.0374 23.3891 73.0975C23.7205 74.4489 24.0393 75.8047 24.3665 77.1561C24.6452 78.3091 24.7888 78.4189 25.9773 78.4189C33.0073 78.4189 40.0373 78.4189 47.0673 78.4189C48.5303 78.4189 48.8153 77.9987 48.2749 76.6409C47.2784 74.1385 46.529 71.5707 46.3411 68.872C46.0962 65.3476 47.137 62.1716 49.0729 59.2659C50.3417 57.3611 51.6569 55.4881 52.9341 53.5897C53.217 53.1694 53.4323 52.7006 53.7237 52.1685C53.2444 52.1685 52.9046 52.1727 52.5647 52.1685C51.3212 52.1537 50.5211 51.6807 50.2467 50.4538C49.9258 49.0263 49.1341 48.3822 47.7957 47.8142C46.3622 47.206 45.2433 47.054 43.9133 47.9282C42.9823 48.5385 42.064 48.3041 41.2533 47.527C40.5693 46.8703 39.9043 46.1945 39.2414 45.5167C38.3421 44.5981 38.1141 43.7302 38.7897 42.668C39.5919 41.4094 39.5011 40.3726 38.9184 39C38.3231 37.5936 37.6602 36.694 36.1212 36.3984C35.0424 36.1914 34.5337 35.3214 34.4978 34.2402C34.464 33.2414 34.4619 32.2383 34.4978 31.2374C34.5379 30.1583 35.0657 29.4023 36.1254 29.0602C36.6743 28.8829 37.2295 28.7139 37.7637 28.4985C37.9537 28.4225 38.1732 28.2536 38.2471 28.072C38.5342 27.3709 38.7685 26.6487 39.0451 25.8653ZM41.1034 21.7728C41.4074 22.3704 41.7114 22.9807 42.026 23.5825C42.4229 24.3427 42.368 25.0734 42.0091 25.8484C41.5024 26.9422 41.038 28.0572 40.6221 29.1869C40.3392 29.9598 39.8811 30.5068 39.1063 30.7771C38.7094 30.9143 38.3147 31.0811 37.9051 31.1508C37.2127 31.267 37.0564 31.6492 37.0712 32.3059C37.1113 34.0502 37.0733 34.0755 38.7242 34.5823C39.613 34.8547 40.259 35.313 40.5989 36.2147C41.0422 37.3909 41.5193 38.5565 42.0387 39.7011C42.3807 40.4549 42.4123 41.1623 42.0323 41.893C41.7178 42.4969 41.4138 43.1051 41.0295 43.8611C41.2428 44.0216 41.5003 44.1694 41.7051 44.3721C42.9317 45.5842 42.9443 45.618 44.458 44.7987C45.4608 44.2581 46.3833 44.2475 47.3587 44.8451C47.8696 45.1577 48.4269 45.4786 49.0032 45.5885C51.0024 45.9707 52.1614 47.1068 52.4654 49.1171C52.5288 49.5394 52.7884 49.6281 53.1917 49.6366C55.1888 49.6746 55.2014 49.6894 55.8052 47.8142C56.0818 46.9526 56.5927 46.3761 57.4603 46.0551C58.613 45.6286 59.7488 45.145 60.8719 44.6424C61.6213 44.3067 62.337 44.2729 63.0696 44.6424C63.3989 44.8071 63.7493 44.9423 64.0491 45.1513C64.6677 45.5842 65.1089 45.4998 65.6346 44.9254C66.745 43.7154 66.8147 43.7302 66.0188 42.2731C65.4593 41.2489 65.4572 40.324 66.0293 39.2956C66.498 38.453 66.8717 37.5366 67.144 36.6117C67.4564 35.5474 68.0286 34.8526 69.12 34.5929C69.4768 34.5084 69.8125 34.3331 70.1692 34.2571C70.6696 34.1536 70.8237 33.8981 70.8216 33.3829C70.811 31.4612 70.8384 31.4422 68.9849 30.851C68.113 30.5743 67.5578 30.057 67.2411 29.1912C66.8168 28.0361 66.327 26.9042 65.8246 25.7808C65.5037 25.0586 65.4762 24.3702 65.8035 23.6522C66.1032 22.9934 66.7176 22.2479 66.5846 21.6862C66.4326 21.0506 65.6029 20.5776 65.0646 20.037C65.0287 20.0011 64.9759 19.9842 64.883 19.9335C64.3489 20.1996 63.7789 20.4614 63.2321 20.7655C62.3708 21.2449 61.5643 21.1857 60.684 20.7486C59.677 20.2482 58.6257 19.8258 57.5617 19.4584C56.6919 19.1585 56.1134 18.639 55.8411 17.769C55.7166 17.3678 55.554 16.975 55.4738 16.5633C55.3577 15.9846 55.0347 15.8432 54.4731 15.8495C52.6533 15.8727 52.6343 15.8432 52.0876 17.5642C51.7962 18.4786 51.2938 19.1121 50.3543 19.4457C49.2207 19.849 48.1123 20.3284 47.0146 20.8289C46.2693 21.1689 45.5642 21.2216 44.819 20.8669C44.1688 20.5586 43.432 19.9652 42.8578 20.0856C42.2519 20.2123 41.7938 21.0379 41.2723 21.5595C41.2174 21.6144 41.1752 21.682 41.1055 21.7749L41.1034 21.7728ZM19.606 28.1564C20.3428 28.1564 20.9951 28.1712 21.6453 28.1459C21.7994 28.1395 22.0464 28.0361 22.0865 27.9199C22.6671 26.2411 23.9338 25.0544 25.0674 23.7873C26.9653 21.6651 27.4213 19.2029 26.8809 16.5041C25.9414 11.8246 21.2653 8.81968 16.509 9.80162C11.9046 10.7519 8.81609 15.4272 9.70487 20.0201C10.0405 21.7559 11.0433 23.0588 12.1115 24.3786C12.9961 25.4725 13.7392 26.6825 14.5541 27.8334C14.647 27.9664 14.8074 28.1353 14.9425 28.1417C15.6392 28.1733 16.338 28.1564 17.079 28.1564C17.079 25.6541 17.1022 23.2594 17.0558 20.8669C17.0494 20.4783 16.8193 20.0328 16.5618 19.7245C16.0192 19.0825 15.3711 18.5335 14.799 17.9168C14.2269 17.3023 14.2628 16.5337 14.8412 16.0332C15.3922 15.556 16.0445 15.6003 16.6758 16.1958C17.2415 16.728 17.782 17.2855 18.4174 17.9147C18.998 17.2918 19.4835 16.7343 20.0071 16.219C20.6784 15.5623 21.3962 15.5454 21.9493 16.1282C22.456 16.6646 22.4117 17.3847 21.8015 18.0182C21.1999 18.6454 20.5602 19.2367 19.9712 19.8744C19.7939 20.0665 19.6271 20.3601 19.6229 20.6093C19.5975 23.082 19.6081 25.5569 19.6081 28.1586L19.606 28.1564ZM21.6073 30.7623H15.0861C14.8243 33.575 15.7469 34.8526 17.8685 34.973C21.1745 35.1588 21.9134 33.423 21.6073 30.7623Z" fill="white"/>
<path d="M46.4441 6.19633C47.088 6.19633 47.6116 6.17944 48.1331 6.20056C48.8657 6.23223 49.4083 6.76015 49.4336 7.42743C49.459 8.13062 48.9164 8.68599 48.131 8.72189C47.6095 8.74511 47.088 8.72611 46.4462 8.72611C46.4462 9.27937 46.4589 9.76927 46.4441 10.2571C46.4145 11.182 45.9268 11.7226 45.1457 11.7226C44.3624 11.7226 43.8937 11.1968 43.8578 10.2486C43.8388 9.77772 43.8557 9.30471 43.8557 8.71978C43.2561 8.71978 42.7135 8.73456 42.1709 8.71555C41.4171 8.69021 40.9062 8.19397 40.8872 7.49923C40.8682 6.77915 41.396 6.23012 42.173 6.19633C42.6945 6.17522 43.2159 6.19211 43.8578 6.19211C43.8578 5.61985 43.8346 5.1046 43.862 4.58935C43.9084 3.71935 44.4194 3.18721 45.1562 3.19143C45.8867 3.19565 46.404 3.75102 46.442 4.60202C46.4631 5.09615 46.4462 5.5924 46.4462 6.19L46.4441 6.19633Z" fill="white"/>
<path d="M8.50646 9.56061C7.46772 9.53316 4.9173 7.03928 5.01442 6.28541C5.0672 5.87997 5.36278 5.32672 5.69636 5.18101C6.07005 5.01841 6.73933 5.07754 7.05391 5.32461C7.85197 5.95177 8.5888 6.68874 9.21374 7.48906C9.46076 7.8037 9.50087 8.46043 9.35097 8.8532C9.21585 9.20796 8.69225 9.4149 8.50435 9.56061H8.50646Z" fill="white"/>
<path d="M31.7056 6.01815C31.6802 7.05076 29.1868 9.61432 28.4394 9.5193C28.0319 9.46651 27.483 9.17298 27.3331 8.83723C27.1684 8.46558 27.2212 7.79407 27.4682 7.47943C28.0932 6.68122 28.83 5.94425 29.6281 5.31919C29.9426 5.07213 30.5971 5.03201 30.9919 5.17982C31.3466 5.31286 31.5578 5.83233 31.7056 6.01815Z" fill="white"/>
<path d="M2.73205 17.0719C3.20497 17.0719 3.6779 17.0508 4.14871 17.0762C4.88555 17.1163 5.36903 17.6379 5.36481 18.3453C5.36058 19.0548 4.87921 19.5658 4.12549 19.5869C3.15642 19.6144 2.18523 19.6144 1.21404 19.5869C0.470876 19.5616 -0.00627153 19.0337 6.22931e-05 18.322C0.00639611 17.6146 0.491989 17.1099 1.23727 17.074C1.73553 17.0508 2.23379 17.0698 2.73205 17.0698V17.0719Z" fill="white"/>
<path d="M33.922 19.5833C33.4237 19.5833 32.9213 19.6192 32.4272 19.5727C31.7326 19.5072 31.3462 19.0828 31.2998 18.3859C31.2555 17.7144 31.7199 17.1147 32.3892 17.083C33.4364 17.0345 34.4878 17.0366 35.535 17.0788C36.2212 17.1063 36.6709 17.668 36.6624 18.35C36.654 19.0321 36.1958 19.5368 35.4949 19.579C34.9713 19.6107 34.4456 19.5854 33.922 19.5833Z" fill="white"/>
<path d="M25.5719 46.452C25.5719 47.0729 25.5888 47.5733 25.5676 48.0696C25.5318 48.91 24.9997 49.4633 24.2629 49.4506C23.5493 49.4401 23.0679 48.929 23.0151 48.1076C22.9982 47.8457 23.0088 47.5818 23.0067 47.3199C23.0067 47.0623 23.0067 46.8047 23.0067 46.452C22.4134 46.452 21.8961 46.4647 21.381 46.4499C20.5618 46.4267 20.0509 45.9537 20.0319 45.2209C20.0108 44.4417 20.5112 43.9497 21.3789 43.918C21.875 43.9011 22.3733 43.9159 23.0109 43.9159C23.0109 43.3542 22.994 42.839 23.0151 42.3258C23.0489 41.4326 23.5134 40.9279 24.2734 40.9258C25.0631 40.9216 25.5486 41.4601 25.574 42.3786C25.5867 42.8495 25.5761 43.3204 25.5761 43.918C26.163 43.918 26.7035 43.9011 27.244 43.9223C28.0378 43.9539 28.5762 44.484 28.5699 45.1872C28.5635 45.884 28.0041 46.4204 27.225 46.4478C26.7056 46.4668 26.1863 46.452 25.574 46.452H25.5719Z" fill="white"/>
<path d="M62.8925 32.6997C62.901 37.6642 58.8917 41.7081 53.9534 41.7144C48.9708 41.7207 44.8876 37.6536 44.9024 32.7018C44.9172 27.7774 48.9898 23.7145 53.9133 23.7188C58.86 23.7209 62.8841 27.7478 62.8925 32.7018V32.6997ZM47.4992 32.6849C47.476 36.2346 50.3072 39.1213 53.8605 39.1719C57.342 39.2226 60.3231 36.3001 60.3632 32.7968C60.4034 29.2492 57.4919 26.295 53.9344 26.276C50.4044 26.257 47.5225 29.1288 47.4992 32.6849Z" fill="white"/>
</svg>
