<svg width="81" height="81" viewBox="0 0 81 81" fill="none" xmlns="http://www.w3.org/2000/svg">
<path d="M38.9507 19.6611C35.9864 19.8454 33.2017 20.6619 30.5756 22.0546C30.3191 22.1899 30.0695 22.3439 29.8083 22.4675C29.0363 22.8314 28.304 22.6378 27.9075 21.9776C27.5041 21.3081 27.679 20.4239 28.4486 20.032C29.9179 19.2832 31.3942 18.497 32.9522 17.9745C46.836 13.3112 61.5595 22.0616 63.8637 36.5367C65.4357 46.4115 61.8347 54.3127 53.7441 60.1564C53.2357 60.5227 52.9465 60.8656 53.0608 61.4885C53.0701 61.5445 53.0608 61.6051 53.0608 61.6635C53.0608 64.0593 53.0118 64.1106 50.5886 64.2319C50.507 64.2365 50.4277 64.2692 50.3134 64.2995C50.2994 64.4162 50.2714 64.5258 50.2714 64.6355C50.2667 65.389 50.2714 66.1425 50.2714 67.0289C50.7589 67.0289 51.2113 67.0103 51.6614 67.0336C52.4964 67.0732 53.0444 67.6215 53.0584 68.3983C53.0724 69.2171 52.5104 69.7793 51.6288 69.812C51.223 69.826 50.8148 69.8143 50.2691 69.8143C50.2691 70.9597 50.2691 72.0795 50.2691 73.1992C50.2691 75.1261 50.0032 75.3897 48.0534 75.4014C47.8505 75.4014 47.65 75.4014 47.3864 75.4014C46.9013 77.3096 45.9055 78.8656 44.2332 79.9247C42.9412 80.7435 41.5232 81.0585 39.9955 80.9931C37.0849 80.8695 34.825 78.9356 33.5679 75.4037C33.1551 75.4037 32.7213 75.4107 32.2898 75.4037C31.2333 75.3874 30.7365 74.9068 30.7272 73.8617C30.7132 72.5554 30.7249 71.249 30.7249 69.8166C30.2304 69.8166 29.778 69.833 29.3255 69.8143C28.4929 69.7793 27.9448 69.2334 27.9332 68.4519C27.9215 67.6681 28.4579 67.0896 29.2789 67.0383C29.7127 67.0126 30.1512 67.0336 30.6549 67.0336V64.2295C30.2538 64.2295 29.8316 64.2412 29.4095 64.2295C28.4673 64.2016 27.8329 63.6837 27.9635 62.7739C28.1967 61.1386 27.4108 60.3081 26.1793 59.3586C19.3878 54.1238 16.3303 47.1067 16.8154 38.5826C17.0183 35.0274 18.1308 31.6961 19.9289 28.6098C20.5003 27.6277 21.5498 27.3921 22.2425 28.0872C22.8256 28.6704 22.7813 29.319 22.3894 29.9978C21.2023 32.053 20.3954 34.2529 19.9686 36.5857C19.824 37.3765 19.7563 38.1813 19.6467 39.0445H25.1368C25.1368 38.5732 25.1322 38.1183 25.1368 37.6611C25.1625 35.333 26.984 33.5134 29.2929 33.5064C31.6554 33.4994 33.4839 35.312 33.5072 37.6891C33.5119 38.1207 33.5072 38.5523 33.5072 39.0935H39.1C39.1 36.9006 39.1 34.7848 39.1 32.6689C39.1 31.0942 39.4801 30.7117 41.0404 30.7117C41.7377 30.7117 42.4374 30.7303 43.1347 30.7047C44.0583 30.672 44.7043 30.0515 44.674 29.2653C44.6437 28.5002 44.028 27.9426 43.1324 27.9169C42.2905 27.8936 41.4439 27.9239 40.6019 27.9076C39.6177 27.889 39.1116 27.3804 39.1023 26.3866C39.0813 24.2054 39.0813 22.0243 39.0696 19.8431C39.0696 19.8197 39.037 19.7964 38.9484 19.6704L38.9507 19.6611ZM39.0603 41.8718C38.7361 41.8718 38.4539 41.8718 38.1717 41.8718C36.194 41.8718 34.2139 41.8812 32.2362 41.8672C31.245 41.8602 30.7435 41.3493 30.7249 40.3578C30.7086 39.5134 30.7412 38.6689 30.7132 37.8267C30.6852 36.9333 30.1162 36.3174 29.3559 36.2941C28.5652 36.2708 27.9565 36.91 27.9262 37.8431C27.9029 38.5709 27.9215 39.2988 27.9192 40.0266C27.9169 41.4589 27.4971 41.8695 26.0371 41.8718C23.9497 41.8718 21.86 41.8718 19.747 41.8718C19.726 42.0608 19.705 42.1704 19.7074 42.2801C19.7074 42.483 19.7074 42.6883 19.7377 42.889C20.6076 49.1876 23.5696 54.2474 28.8638 57.798C30.1955 58.6914 31.0047 59.5802 30.7365 61.2132C30.7295 61.2575 30.7832 61.3112 30.8158 61.3765H39.0347V55.8384C38.5052 55.8384 38.0411 55.8454 37.577 55.8384C35.3194 55.7964 33.5212 53.9512 33.5142 51.6767C33.5072 49.3509 35.3077 47.5009 37.6143 47.4659C38.0948 47.4589 38.5775 47.4659 39.058 47.4659V41.8718H39.0603ZM47.4307 41.9348H41.9453C41.9196 42.0538 41.8963 42.1098 41.8963 42.1658C41.8917 44.2606 41.8917 46.3555 41.887 48.4527C41.8847 49.8244 41.4485 50.2513 40.0515 50.2537C39.3239 50.2537 38.5962 50.2373 37.8685 50.2583C36.931 50.2886 36.2943 50.8858 36.3129 51.679C36.3316 52.4418 36.9473 53.0157 37.8359 53.046C38.6498 53.074 39.4661 53.046 40.2801 53.0554C41.3856 53.067 41.88 53.5499 41.8847 54.6463C41.894 56.6246 41.887 58.6051 41.887 60.5834C41.887 60.8586 41.887 61.1339 41.887 61.3835H50.2411C50.2528 61.1969 50.2924 61.0523 50.2691 60.917C50.0335 59.5126 50.6982 58.7218 51.869 57.9776C56.0437 55.3205 58.8471 51.546 60.377 46.8477C60.8948 45.2614 61.2819 43.6331 61.2703 41.9278H55.8385C55.9038 43.2925 55.9341 44.6106 55.0735 45.728C54.2036 46.8571 53.0771 47.4706 51.6311 47.4613C48.9863 47.4449 47.7456 45.833 47.4307 41.9372V41.9348ZM61.2609 39.0841C60.9018 28.6028 51.6124 19.9247 41.9523 19.7264V25.1152C42.4794 25.1152 42.9412 25.1082 43.403 25.1152C45.6582 25.1549 47.4657 26.9978 47.4727 29.2653C47.482 31.5911 45.6862 33.4481 43.3866 33.4877C42.9039 33.497 42.4211 33.4877 41.9523 33.4877V39.0818C44.1376 39.0818 46.26 39.0818 48.38 39.0818C49.8679 39.0818 50.2644 39.4877 50.2667 41.0064C50.2667 41.7039 50.2504 42.4037 50.2714 43.1012C50.3017 44.0367 50.9011 44.6759 51.6917 44.6596C52.4521 44.6432 53.0281 44.025 53.0584 43.1386C53.0864 42.3827 53.0631 41.6269 53.0654 40.8711C53.0701 39.532 53.5039 39.0888 54.8263 39.0865C56.9463 39.0841 59.064 39.0865 61.2586 39.0865L61.2609 39.0841ZM33.5749 64.2575V66.9799H47.4307V64.2575H33.5749ZM33.5469 72.5484H47.4097V69.8563H33.5469V72.5484ZM44.3032 75.3991C42.0059 75.3991 39.7273 75.3991 37.4487 75.3991C37.1992 75.3991 36.9473 75.4224 36.6908 75.4341C37.0149 77.0437 38.8877 78.1891 40.497 78.1938C42.2415 78.1961 43.8997 77.004 44.3032 75.3991Z" fill="white"/>
<path d="M15.3039 24.9168C15.2806 26.16 14.203 26.8901 13.305 26.3956C10.7907 25.0124 8.31137 23.564 5.84136 22.1038C5.18129 21.7143 5.04601 20.9049 5.4052 20.2658C5.76905 19.622 6.52242 19.3188 7.19881 19.6966C9.70381 21.0961 12.1902 22.5283 14.6508 24.0025C14.9984 24.2101 15.1663 24.7162 15.3039 24.9168Z" fill="white"/>
<path d="M67.2557 26.5387C66.437 26.5037 65.9775 26.1678 65.7723 25.5101C65.56 24.829 65.8236 24.2925 66.3904 23.9449C67.5286 23.2475 68.6924 22.5991 69.8493 21.9296C71.0528 21.2322 72.254 20.5278 73.4645 19.8444C74.3625 19.3382 75.1485 19.4968 75.5823 20.2409C76.0138 20.985 75.7666 21.7594 74.878 22.2795C72.5992 23.609 70.3111 24.9223 68.0184 26.2285C67.7501 26.3824 67.4399 26.4641 67.2557 26.5387Z" fill="white"/>
<path d="M15.3034 56.1603C15.1284 56.3772 14.8905 56.8881 14.4917 57.1283C12.1313 58.5465 9.74291 59.918 7.3452 61.2709C6.58018 61.7024 5.78716 61.4435 5.39998 60.7367C5.0268 60.0533 5.20639 59.2882 5.93643 58.859C8.33414 57.4455 10.7388 56.046 13.1669 54.6862C14.1581 54.131 15.3034 54.8121 15.3034 56.1603Z" fill="white"/>
<path d="M21.2548 5.24219C21.4274 5.37747 21.9125 5.59207 22.1364 5.96527C23.5545 8.32578 24.926 10.7143 26.2881 13.1098C26.7313 13.8888 26.519 14.6726 25.838 15.0878C25.1219 15.5239 24.3336 15.3187 23.8438 14.4883C22.4606 12.1395 21.0915 9.78361 19.7574 7.4091C19.165 6.35713 19.8157 5.22586 21.2548 5.24452V5.24219Z" fill="white"/>
<path d="M67.2688 54.4711C67.4484 54.5457 67.7796 54.6484 68.0735 54.814C70.3126 56.0945 72.5493 57.3797 74.7791 58.6766C75.7447 59.2388 76.0176 59.9805 75.5838 60.7502C75.1453 61.527 74.3546 61.6762 73.4007 61.1304C71.1126 59.8196 68.8292 58.497 66.5481 57.1721C65.916 56.8059 65.5405 56.2858 65.7644 55.516C65.9556 54.8583 66.4105 54.5107 67.2688 54.4688V54.4711Z" fill="white"/>
<path d="M56.162 15.316C54.7765 15.323 54.1281 14.1497 54.7089 13.1071C55.6838 11.36 56.7031 9.63865 57.7037 7.90792C58.0676 7.28047 58.4174 6.64602 58.7999 6.03024C59.2827 5.25351 60.0151 5.03192 60.7242 5.41212C61.4635 5.81098 61.6968 6.61337 61.2326 7.43208C59.8868 9.80192 58.5317 12.1671 57.1276 14.502C56.8874 14.9031 56.3789 15.1434 56.1643 15.3183L56.162 15.316Z" fill="white"/>
<path d="M41.88 5.58693C41.88 6.92114 41.887 8.25534 41.8776 9.58954C41.8706 10.5645 41.3622 11.143 40.5249 11.164C39.6455 11.185 39.0998 10.5949 39.0951 9.58021C39.0881 6.91181 39.0881 4.2434 39.0951 1.575C39.0974 0.597669 39.6082 0.0215365 40.4456 0.000543839C41.3249 -0.0204489 41.8683 0.567347 41.8753 1.58433C41.8846 2.91853 41.8776 4.25273 41.8776 5.58693H41.88Z" fill="white"/>
<path d="M5.52323 41.8975C4.1891 41.8975 2.85497 41.9068 1.52084 41.8928C0.566885 41.8835 -0.00921798 41.3354 0.000111614 40.4887C0.00710881 39.6489 0.587876 39.1171 1.54883 39.1125C4.24508 39.1031 6.94367 39.1031 9.63992 39.1125C10.5915 39.1171 11.17 39.6699 11.163 40.5143C11.156 41.354 10.5752 41.8835 9.61426 41.8905C8.25214 41.9022 6.88769 41.8928 5.52557 41.8928L5.52323 41.8975Z" fill="white"/>
<path d="M75.3654 41.8928C74.0569 41.8928 72.7461 41.8998 71.4376 41.8928C70.4067 41.8858 69.8166 41.3587 69.8283 40.4793C69.84 39.6373 70.4184 39.1148 71.3933 39.1125C74.0709 39.1031 76.7462 39.1031 79.4238 39.1125C80.3964 39.1148 80.9772 39.6396 80.9888 40.4817C81.0005 41.3564 80.4057 41.8882 79.3795 41.8952C78.0407 41.9045 76.7019 41.8952 75.3631 41.8952L75.3654 41.8928Z" fill="white"/>
<path d="M26.1104 24.694C26.1104 25.4241 25.4713 26.0819 24.7343 26.1075C23.9762 26.1355 23.2695 25.4521 23.2695 24.6917C23.2695 23.9336 23.9786 23.2502 24.7343 23.2782C25.469 23.3062 26.1081 23.9639 26.1081 24.694H26.1104Z" fill="white"/>
</svg>
