<svg width="80" height="81" viewBox="0 0 80 81" fill="none" xmlns="http://www.w3.org/2000/svg">
<path d="M38.271 0C38.7966 0.144259 39.3302 0.270733 39.8499 0.43673C43.6955 1.6659 46.2211 4.90284 46.5116 8.95989C46.5254 9.16541 46.5649 9.36895 46.6044 9.66143C47.4107 9.66143 48.1952 9.697 48.9739 9.63574C49.1695 9.61993 49.3967 9.32153 49.5133 9.10217C50.2821 7.64575 51.8768 6.69917 53.3787 6.8375C55.1849 7.00547 56.6058 8.15559 57.0603 9.81952C57.5879 11.7443 56.6077 13.7679 54.7581 14.5741C52.9005 15.3824 50.6575 14.6986 49.7031 12.9063C49.3276 12.2008 48.9047 12.0368 48.1794 12.0585C46.5511 12.1079 46.5491 12.0743 46.5491 13.677C46.5491 15.4417 46.5491 17.2064 46.5491 18.9711V19.9137C47.3376 19.9137 48.0411 19.9137 48.7426 19.9137C51.0864 19.9137 53.4321 19.9374 55.7758 19.892C56.2086 19.8841 56.7441 19.7201 57.0484 19.4335C58.4436 18.1134 59.7735 16.7222 61.1687 15.3152C60.6134 14.3034 60.3565 13.2047 60.6905 12.0289C61.3051 9.86299 63.463 8.61209 65.6071 9.17924C67.688 9.73059 69.0219 11.8905 68.5358 13.924C68.0121 16.1156 65.9214 17.5028 63.7575 17.0068C63.1923 16.8764 62.8899 17.0226 62.5323 17.3882C61.2972 18.649 60.0304 19.8801 58.7894 21.133C58.0069 21.9235 57.0879 22.3068 55.9615 22.295C53.1435 22.2673 50.3236 22.2851 47.5056 22.2851C47.219 22.2851 46.9345 22.2851 46.6005 22.2851V27.1959C47.142 27.1959 47.638 27.1959 48.134 27.1959C51.7958 27.1959 55.4576 27.2097 59.1194 27.188C60.2162 27.18 61.1193 27.5476 61.8821 28.3124C62.5718 29.0021 63.2753 29.6759 63.9511 30.3775C64.546 30.996 64.5815 31.7035 64.0855 32.1995C63.5776 32.7074 62.9038 32.6817 62.2655 32.0789C61.5758 31.4268 60.9434 30.7134 60.232 30.0909C59.9395 29.834 59.5048 29.5949 59.1333 29.591C55.0248 29.5593 50.9144 29.5751 46.806 29.5811C46.7566 29.5811 46.7092 29.6127 46.6064 29.6502V36.383C47.4819 36.383 48.3217 36.4245 49.1537 36.3553C49.3651 36.3376 49.6023 35.9977 49.7347 35.7546C50.6477 34.0808 52.5131 33.2389 54.351 33.6994C56.0959 34.1361 57.3765 35.7664 57.3903 37.5687C57.4041 39.4065 56.1374 41.0448 54.3411 41.5131C52.5349 41.9834 50.6062 41.1376 49.7544 39.4243C49.5173 38.9481 49.2723 38.7583 48.7486 38.7939C48.0688 38.8394 47.383 38.8058 46.6262 38.8058V47.3882C46.887 47.4001 47.142 47.4238 47.3969 47.4238C50.954 47.4258 54.5091 47.4159 58.0661 47.4356C58.5878 47.4376 58.8922 47.3388 59.151 46.8053C59.9712 45.1018 61.892 44.2343 63.6409 44.6769C65.5301 45.1552 66.7889 46.7341 66.779 48.6213C66.7711 50.5165 65.5123 52.0737 63.6132 52.542C61.8564 52.9748 59.9889 52.0895 59.1254 50.3959C58.9534 50.058 58.8447 49.7833 58.3527 49.7873C54.5328 49.813 50.7129 49.8031 46.893 49.807C46.8159 49.807 46.7388 49.8327 46.6064 49.8545V57.6781C46.8633 57.6939 47.0926 57.7176 47.3218 57.7176C50.2465 57.7196 53.1692 57.7097 56.0939 57.7275C56.584 57.7314 56.8706 57.6405 57.1136 57.1346C57.9495 55.3936 59.8229 54.5577 61.6647 55.0122C63.4769 55.4588 64.7673 57.0734 64.7772 58.9092C64.787 60.7411 63.4472 62.4149 61.6133 62.8576C59.8486 63.2844 57.9397 62.411 57.1156 60.7233C56.8804 60.2411 56.6275 60.089 56.1097 60.0929C52.9775 60.1166 49.8434 60.1048 46.6301 60.1048V66.4166C48.2308 66.4166 49.8355 66.5055 51.4263 66.3929C53.3194 66.2585 54.8331 66.8277 56.0149 68.3078C56.1947 68.5331 56.4398 68.705 56.6255 68.9263C57.3587 69.8057 58.078 70.2563 59.4139 69.9836C61.5027 69.5567 63.4848 71.5072 63.6606 73.7976C63.8148 75.8172 62.0758 77.8013 60.0285 77.9416C56.8192 78.1609 54.7205 75.2817 55.9556 72.3372C56.1097 71.9676 56.0801 71.7384 55.7797 71.4578C55.0485 70.776 54.3747 70.029 53.6356 69.3571C53.3609 69.1081 52.9657 68.8512 52.6199 68.8433C50.6477 68.7939 48.6735 68.8196 46.5531 68.8196C46.5531 69.614 46.5531 70.367 46.5531 71.1179C46.5432 74.9101 44.9464 77.8348 41.6443 79.7082C40.6167 80.2912 39.4014 80.5422 38.273 80.9453H35.5854C34.5835 80.5837 33.544 80.2971 32.5856 79.8406C30.8505 79.0146 29.5403 77.6965 28.6333 75.999C28.4297 75.6156 28.2183 75.4279 27.7302 75.4378C21.9638 75.5405 17.7506 70.9104 17.551 66.0451C17.5471 65.972 17.5016 65.9008 17.4739 65.8238C16.7862 65.8238 16.1064 65.8593 15.4306 65.8139C14.6125 65.7605 14.1421 65.2685 14.1639 64.5867C14.1856 63.9247 14.7211 63.401 15.5136 63.4366C17.549 63.5235 19.3394 62.9248 20.9757 61.7351C21.6733 61.2292 22.3946 61.3557 22.7779 61.9367C23.1613 62.5177 22.9953 63.2212 22.3037 63.6994C21.7207 64.1006 21.1219 64.4918 20.4895 64.8001C20.037 65.0215 19.8769 65.2902 19.9204 65.7763C20.1971 68.8394 21.6831 71.1159 24.4814 72.3728C27.2223 73.6039 29.8704 73.2245 32.305 71.4519C32.4967 71.3135 32.6627 71.1416 32.8504 70.9973C33.5401 70.4677 34.2179 70.4776 34.6803 71.0171C35.1388 71.5527 35.0835 72.3075 34.3977 72.8075C33.4472 73.4992 32.4196 74.0861 31.4197 74.7086C31.2458 74.8173 31.0442 74.8825 30.7912 74.9951C32.2793 77.3606 34.3918 78.5621 37.111 78.5482C39.8875 78.5364 42.498 76.7756 43.4248 74.3667C42.9189 74.3667 42.4565 74.3924 41.998 74.3608C41.2016 74.3074 40.6878 73.8134 40.6977 73.1553C40.7096 72.4913 41.2273 72.0032 42.0296 71.9657C42.6857 71.9341 43.3458 71.9597 44.071 71.9597V63.2054C42.5494 63.2785 41.0198 63.2311 39.5278 63.4563C38.1089 63.6698 37.026 65.0748 36.8521 66.5312C36.8304 66.715 36.8403 66.9028 36.8047 67.0806C36.6703 67.7466 36.1308 68.1774 35.5202 68.122C34.8918 68.0647 34.4728 67.5687 34.459 66.8711C34.4076 64.4583 36.115 62.0157 38.4587 61.2766C39.2235 61.0355 40.0535 60.9427 40.8598 60.8952C41.9071 60.832 42.9624 60.8794 44.075 60.8794V44.6117C43.739 44.6117 43.4307 44.6117 43.1225 44.6117C37.273 44.6117 31.4236 44.6117 25.5742 44.6117C24.3253 44.6117 23.7146 44.2027 23.7403 43.3964C23.768 42.6079 24.3589 42.2245 25.5604 42.2245C31.4098 42.2245 37.2592 42.2245 43.1086 42.2245C43.4189 42.2245 43.7311 42.2245 44.0888 42.2245V22.2871C43.7766 22.2871 43.4959 22.2871 43.2134 22.2871C40.342 22.2871 37.4687 22.3128 34.5973 22.2792C31.1351 22.2377 28.3942 19.5936 28.3033 16.2657C28.2796 15.3705 28.6609 14.8745 29.4 14.8429C30.1312 14.8113 30.5818 15.2737 30.6707 16.1472C30.892 18.3526 32.2971 19.8189 34.5242 19.8821C37.6821 19.971 40.842 19.9038 44.069 19.9038V12.0111C43.405 12.0111 42.7292 12.021 42.0534 12.0091C41.2115 11.9933 40.672 11.5032 40.6957 10.7957C40.7195 10.1159 41.2372 9.66735 42.0415 9.64957C42.6739 9.63574 43.3062 9.63771 43.9386 9.62981C43.9841 9.62981 44.0295 9.58633 44.075 9.56262C44.3259 6.56084 42.1067 3.64206 38.8283 2.66386C35.8127 1.76471 32.3247 3.19742 30.8268 5.97985C31.5185 6.33951 32.2398 6.64976 32.8939 7.06871C35.8759 8.97175 37.4825 11.6909 37.6386 15.2401C37.6781 16.1491 37.2394 16.7183 36.5181 16.742C35.8028 16.7657 35.3285 16.2381 35.2712 15.3152C35.1447 13.2896 34.4412 11.5111 32.9433 10.1179C30.7972 8.12002 28.2756 7.40861 25.4378 8.26033C22.5191 9.13774 20.7326 11.1475 20.0825 14.1157C19.9224 14.8488 19.9481 15.6314 19.958 16.3902C19.9757 17.6866 19.4264 18.1727 18.1616 17.8882C14.9445 17.1609 12.1976 17.9573 10.1029 20.5382C8.41326 22.6211 7.99827 25.0043 8.80849 27.6148C9.7195 27.4093 10.5989 27.1781 11.4901 27.02C12.1344 26.9054 12.7964 26.8599 13.4525 26.8342C14.3259 26.8006 14.8437 27.2393 14.8654 27.9646C14.8871 28.6879 14.4089 29.1325 13.5414 29.2313C12.7351 29.3222 11.917 29.3795 11.1265 29.5534C3.40371 31.2569 -0.188945 40.3037 4.42143 46.9317C5.30477 48.2024 6.41141 49.2339 7.61489 49.9513C8.80256 48.977 9.91514 48.0364 11.0613 47.1412C11.5316 46.7756 12.085 46.7262 12.5928 47.1293C13.2687 47.6649 13.162 48.6332 12.3063 49.1589C10.8499 50.056 9.70567 51.2259 9.04761 52.8088C7.96665 55.4154 8.27098 57.8954 9.85585 60.2233C10.0041 60.4407 10.172 60.6443 10.3143 60.8656C10.7352 61.5158 10.6799 62.156 10.176 62.569C9.65429 62.9979 8.93299 62.9168 8.42512 62.324C7.25523 60.9565 6.50825 59.3835 6.1802 57.6089C5.84031 55.7809 6.04385 54.0024 6.65448 52.2713C-2.27972 46.829 -2.12953 33.9879 6.57346 28.7353C4.04991 21.0223 10.3795 14.3548 17.4542 15.2638C17.5767 14.5544 17.6498 13.8291 17.8316 13.1316C19.0134 8.58837 22.8985 5.57276 27.5919 5.53719C27.993 5.53521 28.3151 5.54905 28.5602 5.0886C29.9968 2.38917 32.2576 0.776629 35.2435 0.162045C35.3621 0.138331 35.4708 0.0573085 35.5834 0.00197616C36.4786 0.00197616 37.3758 0.00197616 38.271 0.00197616V0ZM53.3076 35.9996C52.4203 36.0154 51.7069 36.7249 51.7029 37.5964C51.699 38.4876 52.4756 39.2386 53.3787 39.2188C54.2482 39.199 54.9873 38.458 54.9893 37.6023C54.9893 36.717 54.2205 35.9838 53.3076 35.9996ZM62.718 50.2378C63.5757 50.2536 64.3385 49.5244 64.3681 48.6609C64.3997 47.7696 63.6468 46.9772 62.7556 46.9653C61.9058 46.9535 61.145 47.6846 61.1114 48.5462C61.0758 49.4316 61.8287 50.224 62.718 50.2398V50.2378ZM62.3327 58.9309C62.3386 58.018 61.5956 57.2749 60.6905 57.2927C59.8111 57.3085 59.1056 58.0239 59.0997 58.9013C59.0937 59.8064 59.8506 60.5652 60.7419 60.5474C61.6094 60.5297 62.3287 59.8004 62.3346 58.9309H62.3327ZM53.2008 9.26619C52.274 9.24643 51.5349 9.9618 51.533 10.8748C51.533 11.7542 52.2345 12.4735 53.1178 12.4952C54.0209 12.5189 54.7857 11.7779 54.7877 10.8768C54.7877 10.0033 54.0802 9.28398 53.1989 9.26619H53.2008ZM66.2356 13.0822C66.2435 12.2403 65.4985 11.4874 64.6309 11.4617C63.7278 11.434 62.9433 12.1751 62.9334 13.0644C62.9255 13.9062 63.6725 14.673 64.5321 14.7046C65.4095 14.7362 66.2277 13.9576 66.2336 13.0841L66.2356 13.0822ZM59.6194 72.3471C58.7104 72.3411 58.0128 73.0071 57.993 73.9003C57.9713 74.8232 58.6827 75.5642 59.5957 75.5722C60.5067 75.5801 61.2379 74.841 61.226 73.924C61.2161 73.0328 60.5225 72.353 59.6194 72.3471Z" fill="white"/>
<path d="M16.162 35.3643C15.7866 35.2873 15.2965 35.3307 15.0633 35.1055C14.7688 34.8229 14.5277 34.317 14.5436 33.9178C14.5712 33.1846 15.2194 33.0562 15.836 32.8902C16.7568 32.6432 17.7588 32.4475 18.5314 31.9377C20.2408 30.8053 20.8929 28.7047 20.3475 26.7878C19.7982 24.8532 18.1738 23.4916 16.1363 23.2584C15.9012 23.2307 15.6561 23.2465 15.4308 23.1853C14.7965 23.0114 14.425 22.5806 14.4922 21.9166C14.5594 21.2625 14.9665 20.8653 15.6542 20.8633C17.7983 20.8593 19.646 21.632 21.0332 23.2505C24.7484 27.5842 22.7387 33.7676 17.1995 35.1568C16.8715 35.2398 16.5237 35.2477 16.1857 35.2892L16.164 35.3643H16.162Z" fill="white"/>
<path d="M23.889 53.4192C22.3358 53.4192 20.7845 53.4073 19.2312 53.4231C17.1523 53.4429 15.7038 54.7649 15.4825 56.8142C15.4647 56.9703 15.437 57.1264 15.3955 57.2766C15.1999 57.9821 14.7276 58.3101 14.0636 58.2074C13.368 58.0987 13.0814 57.6303 13.0676 56.9881C13.0024 54.0416 15.5813 51.1762 18.5258 51.0912C22.0216 50.9905 25.5233 51.026 29.0231 51.0241C29.9124 51.0241 30.4222 51.4707 30.4459 52.1702C30.4696 52.8856 29.9025 53.4053 29.0191 53.4152C27.3098 53.431 25.5984 53.4192 23.8871 53.4211L23.889 53.4192Z" fill="white"/>
<path d="M30.5338 62.0964C30.3717 65.3076 27.6841 68.0664 24.5658 68.0999C23.8741 68.1079 23.3425 67.6988 23.2576 67.0921C23.1607 66.4005 23.5243 65.9084 24.2693 65.7483C24.6547 65.6653 25.0539 65.6436 25.4313 65.5329C26.9431 65.0942 28.0161 63.6121 27.945 62.0964C27.8659 60.4265 26.7198 59.0827 25.0993 58.7685C24.8405 58.7191 24.5796 58.6875 24.3207 58.6421C23.5836 58.5136 23.1864 58.0235 23.2556 57.3358C23.3188 56.7133 23.8188 56.2608 24.5164 56.2904C26.6309 56.3833 28.3541 57.2706 29.4192 59.1104C29.9429 60.0155 30.1721 61.0925 30.5357 62.0924L30.5338 62.0964Z" fill="white"/>
<path d="M41.7539 33.6012C41.744 36.3698 39.5979 38.6147 36.8273 38.753C35.9459 38.7965 35.4262 38.4111 35.3768 37.6799C35.3294 36.9587 35.7859 36.4607 36.6573 36.3856C37.847 36.2848 38.6987 35.7097 39.1592 34.6307C39.8785 32.949 38.7501 31.0578 36.9261 30.8069C36.6158 30.7634 36.2858 30.7318 36.0111 30.5994C35.4321 30.3188 35.2661 29.801 35.4321 29.2042C35.608 28.5718 36.1119 28.3604 36.7107 28.3802C39.5346 28.4711 41.7618 30.7851 41.7539 33.6012Z" fill="white"/>
<path d="M23.692 37.7644C23.277 37.6438 22.7948 37.6201 22.4628 37.383C21.7277 36.8632 21.9193 35.7289 22.779 35.4246C23.19 35.2784 23.6544 35.2882 24.0951 35.225C26.8301 34.8377 28.9624 32.6382 29.2865 29.8736C29.3161 29.6127 29.3675 29.3538 29.403 29.095C29.4999 28.3954 29.8912 28.0022 30.6026 27.9923C31.2587 27.9844 31.7566 28.4982 31.7606 29.2274C31.7705 30.8419 31.3417 32.3537 30.4445 33.6895C28.8438 36.0708 26.6325 37.4679 23.692 37.7624V37.7644Z" fill="white"/>
<path d="M15.7213 44.6049C13.9883 44.7412 12.1129 44.429 10.5478 43.0299C9.22374 41.8481 8.53406 40.362 8.40759 38.6092C8.35028 37.8128 8.76725 37.2516 9.43124 37.1646C10.1446 37.0718 10.6861 37.5085 10.7651 38.3721C11.0201 41.1367 13.1444 42.3975 15.334 42.2315C16.1976 42.1663 17.0711 42.2058 17.9386 42.2256C18.7844 42.2453 19.2962 42.7295 19.2844 43.4508C19.2725 44.1444 18.7923 44.5772 17.9663 44.6009C17.3082 44.6207 16.6501 44.6049 15.7194 44.6049H15.7213Z" fill="white"/>
<path d="M22.793 14.891C22.9708 12.1678 25.8422 9.69366 28.4151 10.0691C29.091 10.1679 29.4763 10.579 29.4882 11.2272C29.5 11.8378 29.1503 12.2607 28.5199 12.3931C28.3657 12.4247 28.2096 12.4484 28.0535 12.4603C26.4666 12.5907 25.6584 13.3337 25.2889 14.8929C25.1999 15.2684 24.9766 15.7288 24.6723 15.9047C24.3739 16.0766 23.8186 16.0687 23.5162 15.8948C23.1902 15.7071 23.0262 15.2348 22.793 14.887V14.891Z" fill="white"/>
<path d="M36.4625 53.4189C35.7016 53.4189 34.9388 53.4367 34.178 53.415C33.3421 53.3893 32.8105 52.8933 32.8165 52.1977C32.8244 51.508 33.2967 51.0456 34.1247 51.0317C35.672 51.0041 37.2233 51.006 38.7706 51.0317C39.5868 51.0456 40.0887 51.5179 40.1065 52.1858C40.1243 52.8676 39.571 53.3893 38.7469 53.417C37.9861 53.4426 37.2253 53.4229 36.4625 53.4229V53.4189Z" fill="white"/>
<path d="M76.9143 41.0566C76.8056 43.2581 75.029 44.9892 72.8731 44.9872C70.7526 44.9872 68.9484 43.2976 68.8378 41.1337C68.8101 40.6002 69.0433 40.0607 69.0927 39.5172C69.1164 39.2544 69.0729 38.9046 68.9148 38.7228C68.4168 38.1477 67.8457 37.6359 67.3082 37.0945C66.5533 36.3317 66.4466 35.6637 66.9861 35.1064C67.5098 34.5669 68.2528 34.6638 68.9761 35.3752C69.482 35.8732 70.0136 36.3494 70.476 36.887C70.8277 37.296 71.1479 37.3099 71.636 37.1399C74.2366 36.2269 77.0467 38.3296 76.9123 41.0586L76.9143 41.0566ZM74.4896 41.0566C74.5409 40.1476 73.9125 39.4105 73.0272 39.3453C72.0688 39.2742 71.3178 39.9065 71.2625 40.8294C71.2072 41.7384 71.8336 42.4735 72.7209 42.5407C73.6655 42.6139 74.4362 41.9657 74.4876 41.0547L74.4896 41.0566Z" fill="white"/>
<path d="M75.426 24.7933C75.4339 27.0362 73.602 28.874 71.3788 28.8543C69.1715 28.8345 67.3692 27.0303 67.3633 24.8328C67.3554 22.6017 69.209 20.7421 71.4184 20.7658C73.6257 20.7896 75.4181 22.5898 75.426 24.7933ZM71.4085 26.4236C72.28 26.4196 73.027 25.6983 73.0467 24.8407C73.0685 23.9593 72.3017 23.2024 71.3887 23.2044C70.5173 23.2084 69.7663 23.9297 69.7465 24.7794C69.7268 25.6529 70.5093 26.4256 71.4085 26.4236Z" fill="white"/>
<path d="M79.389 55.1863C79.3772 57.4035 77.5986 59.1742 75.3715 59.1821C73.1286 59.19 71.3066 57.364 71.3204 55.127C71.3342 52.9433 73.1661 51.1154 75.3537 51.1055C77.567 51.0956 79.4009 52.9512 79.389 55.1882V55.1863ZM75.3794 56.7692C76.2529 56.7613 76.992 56.038 77.0058 55.1784C77.0196 54.2891 76.2588 53.5421 75.3438 53.548C74.4704 53.5559 73.7293 54.2753 73.7135 55.1329C73.6957 56.0163 74.4724 56.7771 75.3794 56.7692Z" fill="white"/>
<path d="M70.1905 63.5273C72.4294 63.5254 74.3009 65.3869 74.2594 67.5785C74.2198 69.7621 72.3702 71.5881 70.1984 71.5901C67.9969 71.592 66.0919 69.6791 66.1295 67.5073C66.169 65.3019 67.9752 63.5313 70.1905 63.5293V63.5273ZM70.1569 69.1416C71.0698 69.1574 71.7753 68.5073 71.8089 67.616C71.8425 66.6872 71.1509 65.9442 70.232 65.9224C69.315 65.9007 68.5759 66.624 68.5759 67.5409C68.5759 68.4401 69.2538 69.1258 70.1569 69.1416Z" fill="white"/>
</svg>
