<svg width="81" height="81" viewBox="0 0 81 81" fill="none" xmlns="http://www.w3.org/2000/svg">
<path d="M31.066 6.04445C31.923 5.66007 32.4308 5.32153 32.9915 5.1981C34.8852 4.77845 35.7351 3.75931 35.3895 1.7457C35.1849 0.560814 35.989 0.0283194 37.0857 0.01774C39.4943 -0.0104716 41.9028 0.000107775 44.3114 0.0142136C45.7043 0.0212665 46.0711 0.864089 46.057 2.11245C46.0499 2.84243 45.9865 3.95679 46.3955 4.23538C47.4817 4.97594 48.7794 5.52959 50.0666 5.78702C50.5215 5.87871 51.2514 4.95125 51.7522 4.3976C52.7043 3.34319 53.593 3.24445 54.5275 4.37644C54.5663 4.42228 54.6192 4.45402 54.651 4.50339C57.4439 8.65403 61.3759 9.81423 66.1789 9.19357C68.4888 8.89383 70.8726 9.10541 73.2213 9.15126C77.8233 9.24647 80.8913 12.3991 80.8913 16.98C80.8913 30.6097 80.7714 44.243 80.9548 57.8692C81.0182 62.5453 77.982 66.9604 71.9658 66.8088C66.2107 66.6642 60.452 66.7771 54.6933 66.7771C54.0656 66.7771 53.4343 66.7771 52.5915 66.7771C53.4907 70.7196 54.33 74.4083 55.2011 78.238C57.927 78.238 60.6212 78.2486 63.3154 78.2345C64.3275 78.2275 65.3291 78.3332 65.3114 79.6169C65.2973 80.9005 64.2535 80.9922 63.2696 80.9922C48.053 80.9922 32.8363 80.9922 17.6197 80.9922C16.6217 80.9922 15.6025 80.8441 15.6448 79.5534C15.6872 78.2662 16.7169 78.231 17.7078 78.2345C20.3456 78.2486 22.9834 78.238 25.7411 78.238C26.6086 74.4718 27.4549 70.7866 28.3577 66.8723C27.6066 66.837 26.993 66.7841 26.3758 66.7841C20.6771 66.7771 14.9748 66.6325 9.27959 66.8194C3.15061 67.0169 -0.0796177 62.764 0.00149077 57.6224C0.216604 44.4052 0.202499 31.181 0.0120701 17.9674C-0.0655119 12.6989 3.85943 8.90441 8.91989 9.10189C12.7919 9.25352 16.6746 9.19357 20.5501 9.08425C21.4247 9.05957 22.4227 8.60466 23.1209 8.04042C24.394 7.0107 25.4766 5.74823 26.6439 4.59508C28.1144 3.14218 28.4212 3.14218 29.9235 4.64445C30.3361 5.05704 30.6711 5.55075 31.066 6.04092V6.04445ZM49.9431 40.1594C49.6222 40.3075 49.2696 40.5191 48.8887 40.6319C46.9139 41.2173 45.4222 42.0495 45.9089 44.5886C46.124 45.71 45.0907 46.0203 44.1315 46.0274C41.8393 46.0486 39.5471 46.0168 37.255 46.0415C35.8549 46.0556 35.2167 45.4385 35.266 44.0067C35.2942 43.2697 35.3824 42.1377 34.9769 41.8556C33.8978 41.1045 32.6 40.5438 31.3129 40.2722C30.8544 40.177 30.1033 41.0692 29.6096 41.6229C28.5905 42.7689 27.7194 42.7231 26.6862 41.6052C25.2509 40.0536 23.7028 38.6077 22.2182 37.0984C20.8287 35.6878 20.7653 35.0707 22.2252 33.7659C23.3149 32.7926 23.6499 31.9039 22.7542 30.645C22.458 30.2289 22.4615 29.5976 22.1511 29.1992C21.8443 28.8042 21.3436 28.3634 20.8887 28.314C17.8453 27.9931 17.8454 28.0248 17.6479 24.9075C17.6373 24.7488 17.5244 24.5936 17.4539 24.4243H13.1798C13.1798 29.0687 13.1481 33.5861 13.2292 38.0999C13.2363 38.5372 13.8605 39.0944 14.3295 39.373C16.5582 40.6954 17.6232 43.0828 16.9814 45.5266C16.4171 47.6637 14.3083 49.307 12.0479 49.3705C9.49471 49.441 7.47757 47.9916 6.76876 45.5795C6.07757 43.2274 6.96624 40.7624 9.21259 39.5705C10.2987 38.9956 10.5244 38.3186 10.5139 37.2289C10.468 32.8208 10.4856 28.4128 10.4997 24.0082C10.5068 21.8218 10.8489 21.5009 13.0846 21.4903C14.5834 21.4833 16.0821 21.4903 17.6831 21.4903C17.6831 20.4959 17.4821 19.7095 17.7396 19.1205C18.0076 18.5069 18.7728 17.6006 19.2136 17.6606C21.3859 17.9427 22.2852 16.9588 22.8952 15.0158C23.5265 13.0057 22.9587 11.9266 20.7829 11.916C16.9038 11.8984 13.0176 12.0817 9.14911 11.8631C5.11485 11.6374 2.63928 14.1271 2.68512 18.3059C2.80855 29.647 2.72744 40.9881 2.72744 52.3292C2.72744 52.9534 2.72744 53.5775 2.72744 54.2229H78.2852C78.3558 53.969 78.4122 53.8596 78.4122 53.7503C78.4193 41.4677 78.4475 29.1886 78.4052 16.9059C78.3946 14.18 76.2293 12.0359 73.4152 11.9759C68.9507 11.8772 64.4827 11.9125 60.0182 11.9618C58.3819 11.9795 57.6132 13.3195 58.2479 14.783C58.5265 15.4283 58.6746 16.1513 59.059 16.719C59.327 17.1175 59.8736 17.5336 60.3285 17.576C63.4459 17.8616 63.4459 17.8299 63.6081 21.0037C63.6152 21.1659 63.7175 21.3211 63.8303 21.6243C65.382 21.6243 66.9618 21.6702 68.5346 21.6102C70.1003 21.5503 70.7351 22.1674 70.7069 23.7896C70.6328 28.4304 70.7034 33.0747 70.6611 37.7155C70.654 38.583 70.9009 39.0344 71.7049 39.4506C74.1381 40.713 75.1643 43.1533 74.4767 45.6606C73.8807 47.8329 71.6132 49.5433 69.3457 49.5327C67.0041 49.5221 64.9094 47.914 64.2676 45.636C63.5835 43.1957 64.5285 40.8012 66.8983 39.5493C67.8575 39.0415 68.0621 38.4526 68.0515 37.4934C68.0127 33.6742 68.0409 29.8551 68.0303 26.0359C68.0303 25.4823 67.9422 24.9251 67.8998 24.4067H63.6505C63.6223 24.9745 63.587 25.4364 63.5799 25.8984C63.5447 28.0248 63.3119 28.4727 61.2877 28.2188C58.6182 27.8838 58.9991 30.1583 58.1386 31.3856C57.2288 32.6833 58.4842 33.1558 59.1049 33.7765C60.2369 34.9085 60.3991 35.8994 59.1225 37.042C58.0293 38.0188 57.0348 39.1085 55.9945 40.1453C52.9724 43.1463 53.3321 43.4178 50.3134 40.3604C50.2358 40.2828 50.1124 40.2475 49.9361 40.1523L49.9431 40.1594ZM43.7189 43.5095C42.3542 40.0853 44.664 39.4435 46.9915 38.7946C47.3829 38.6853 47.7603 38.5019 48.1305 38.3291C49.9126 37.4851 51.5394 37.7402 53.0112 39.0944C53.0817 39.1614 53.2192 39.1579 53.3038 39.1825C54.5064 37.9906 55.6983 36.8092 56.9537 35.5644C56.6998 35.2788 56.5059 34.9755 56.2379 34.7745C54.7885 33.706 54.6545 32.5528 55.663 31.0223C56.326 30.0173 56.7351 28.7971 57.0348 27.6193C57.384 26.2405 58.0963 25.6092 59.5139 25.7221C60.0182 25.7609 60.5331 25.6797 61.055 25.6515V20.3195C58.0152 21.2364 57.0525 19.4767 56.5482 17.114C56.4882 16.8319 56.3648 16.5462 56.2061 16.31C54.8167 14.2258 54.2948 12.2581 56.9079 10.8298C55.5573 9.52153 54.323 8.32959 53.0887 7.13765C51.6006 8.48476 49.8573 8.69987 47.859 7.78299C47.591 7.65957 47.3336 7.49382 47.055 7.4374C44.597 6.93664 42.6363 6.04092 43.5744 2.76485H38.2459C38.2106 3.24092 38.1401 3.53362 38.1754 3.80868C38.4187 5.62833 37.7663 6.72153 35.8479 7.02128C35.058 7.1447 34.2963 7.54319 33.5557 7.88526C31.7219 8.73396 30.0528 8.48476 28.5481 7.13765C28.4741 7.07065 28.333 7.07418 28.3577 7.0777C27.0776 8.28022 25.8469 9.43337 24.6302 10.5795C25.9679 12.2369 26.2042 14.0424 25.3391 15.9961C25.2685 16.1583 25.1804 16.3135 25.1345 16.4828C24.5033 18.9407 23.7451 21.2399 20.3562 20.2843V25.5634C20.8287 25.5951 21.1814 25.6797 21.5164 25.6374C23.2514 25.4117 24.2776 25.983 24.5774 27.8626C24.7396 28.8712 25.2156 29.9044 25.794 30.7578C26.859 32.3236 26.725 33.5543 25.191 34.6616C24.9265 34.8521 24.736 35.1518 24.4363 35.4868C25.7446 36.7599 26.993 37.973 28.4036 39.3448C30.0187 36.4778 32.0605 37.3312 34.1481 38.643C34.2434 38.7029 34.3668 38.7312 34.4796 38.7558C36.9517 39.3236 39.0323 40.2193 38.0907 43.513H43.7119L43.7189 43.5095ZM78.4052 57.1639H2.98487C2.13852 61.244 4.41309 64.1252 8.44735 64.1287C29.8282 64.1357 51.2091 64.1357 72.59 64.1287C76.857 64.1287 79.0117 61.6108 78.4087 57.1639H78.4052ZM52.6338 78.1746C51.8968 74.634 51.2303 71.2486 50.4474 67.8914C50.3452 67.4471 49.6328 66.8299 49.1991 66.8264C43.5603 66.7559 37.9215 66.7594 32.2827 66.8194C31.8806 66.8229 31.2282 67.3342 31.1295 67.7186C30.2585 71.1604 29.4897 74.6234 28.668 78.1781H52.6373L52.6338 78.1746ZM14.5657 44.1866C14.5622 42.8113 13.3562 41.5911 11.9844 41.57C10.6302 41.5488 9.37128 42.7548 9.31838 44.1161C9.26549 45.5266 10.5844 46.8526 12.0055 46.8208C13.3773 46.7891 14.5693 45.5584 14.5657 44.1866ZM69.4092 46.8244C70.7669 46.7997 72.0046 45.5478 72.0082 44.2007C72.0117 42.7831 70.6575 41.4959 69.2469 41.5735C67.8681 41.6475 66.715 42.903 66.7643 44.2783C66.8102 45.6571 68.0515 46.8491 69.4127 46.8244H69.4092Z" fill="white"/>
<path d="M44.4116 29.8778C44.1753 30.1634 43.9214 30.7276 43.5264 30.8581C43.1138 30.9921 42.539 30.77 42.0876 30.5795C41.8725 30.4878 41.7844 30.107 41.6363 29.8566C41.1214 28.9785 40.7123 27.448 40.0705 27.3422C38.0745 27.0143 35.9904 27.1977 33.9415 27.2752C33.6982 27.2858 33.4302 27.843 33.2539 28.1886C32.9365 28.8128 32.8272 29.6133 32.3617 30.0717C31.9138 30.5125 31.1274 30.6113 30.4927 30.8617C30.2881 30.2551 29.7486 29.5145 29.9319 29.0667C31.7974 24.5281 33.7405 20.0178 35.7506 15.5392C36.3818 14.1286 37.7607 14.0898 38.3778 15.4651C40.3844 19.9437 42.2816 24.4717 44.2141 28.982C44.3058 29.1936 44.3199 29.437 44.4116 29.8778ZM39.2771 24.4541C38.5541 22.7649 37.8841 21.1956 37.0695 19.2878C36.2549 21.2097 35.6025 22.7402 34.876 24.4541H39.2806H39.2771Z" fill="white"/>
<path d="M48.3874 22.6494C48.3874 20.5406 48.2957 18.4247 48.4439 16.3265C48.4897 15.6952 49.1421 14.6761 49.6358 14.5985C50.7184 14.4257 51.0287 15.3814 51.0287 16.3617C51.0252 20.6393 51.0746 24.9169 50.9723 29.1874C50.9582 29.7905 50.2706 30.7884 49.7592 30.8837C48.6272 31.0988 48.3804 30.129 48.3874 29.1486C48.398 26.9799 48.391 24.8146 48.391 22.6459L48.3874 22.6494Z" fill="white"/>
</svg>
