<svg width="76" height="81" viewBox="0 0 76 81" fill="none" xmlns="http://www.w3.org/2000/svg">
<path d="M46.7148 57.6054C44.012 58.011 41.5586 58.38 38.8625 58.7856C38.8625 59.6832 38.8625 60.604 38.8625 61.5249C38.8625 63.9085 38.9124 66.2921 38.8459 68.6724C38.8027 70.2049 38.8891 71.4117 40.5314 72.3292C42.3033 73.3166 42.7986 75.7201 42.1138 77.6449C41.3991 79.6562 39.4642 81.0126 37.4031 80.9427C35.3121 80.8729 33.4437 79.4235 32.852 77.4089C32.2769 75.4542 32.9285 73.147 34.727 72.163C36.0567 71.4316 36.2296 70.5274 36.2063 69.2309C36.1465 65.7535 36.1864 62.2762 36.1864 58.7756C33.6399 58.4199 31.2929 58.0941 28.6932 57.7317C28.6932 58.5097 28.6932 59.2543 28.6932 59.999C28.6932 62.9909 28.6732 65.9829 28.6998 68.9749C28.7131 70.2847 28.1546 70.9496 26.8282 70.9363C26.4392 70.933 26.0503 70.9596 25.6646 70.9363C24.0357 70.8266 22.7757 70.9728 21.6986 72.6916C20.2292 75.032 16.6854 75.0153 14.6775 73.0539C12.6729 71.0925 12.756 67.8047 14.857 65.9497C16.968 64.0847 20.4453 64.2509 21.8582 66.6544C22.9419 68.4995 24.2252 68.3865 26.0137 68.1205C26.0137 64.5401 26.0237 61.0129 25.9938 57.4857C25.9938 57.2198 25.791 56.8076 25.5716 56.7111C23.1181 55.6108 20.6448 54.5603 17.9786 53.41C17.9786 55.6839 17.9919 57.8315 17.9753 59.9757C17.9587 61.9005 17.6595 62.1931 15.7579 62.2197C14.7606 62.233 13.7599 62.2696 12.7659 62.213C10.9708 62.1067 9.56786 62.2164 8.36443 64.1079C6.88174 66.4417 3.31465 66.3021 1.35325 64.2775C-0.544983 62.3194 -0.431953 59.108 1.60258 57.2863C3.68699 55.4146 7.16432 55.5875 8.61376 57.9545C9.51467 59.4239 10.5353 59.6466 11.9747 59.5602C13.0119 59.497 14.0558 59.5469 15.2892 59.5469C15.2892 56.884 15.3357 54.4007 15.2426 51.9273C15.226 51.5217 14.611 51.1029 14.2154 50.7538C10.9774 47.9015 7.68292 45.1123 4.50147 42.2001C3.01546 40.8404 3.01546 40.0891 4.49149 38.7328C7.62641 35.8505 10.8212 33.0314 14.099 30.312C14.97 29.5906 15.3623 28.9457 15.3224 27.842C15.2493 25.7543 15.3025 23.6599 15.3025 21.4059C13.4907 21.4059 11.8883 21.3428 10.2992 21.4492C9.89033 21.4758 9.40164 21.9611 9.14234 22.3634C7.78598 24.4578 5.63841 25.372 3.45428 24.7071C1.36323 24.0622 -0.0263751 22.144 0.0101933 19.9432C0.0500862 17.7558 1.51615 15.8841 3.63047 15.319C5.76142 14.7505 7.81922 15.7079 9.16561 17.7192C9.48808 18.1979 10.2194 18.6301 10.7912 18.6733C12.4435 18.7996 14.1123 18.7065 15.7745 18.7232C17.6694 18.7431 17.962 19.039 17.9753 20.9804C17.9919 23.118 17.9786 25.2589 17.9786 27.5528C20.7611 26.3028 23.3176 25.1559 25.9505 23.9724V12.8788C24.3249 12.5796 22.9486 12.2838 21.9214 14.2286C20.9473 16.0736 18.4706 16.6387 16.4926 15.9373C14.5312 15.2392 13.2147 13.4307 13.1948 11.3928C13.1715 9.30843 14.5545 7.40022 16.5691 6.73202C18.567 6.07046 20.9373 6.7154 21.9779 8.54382C22.666 9.7539 23.4473 10.0564 24.7305 10.0365C28.6832 9.96999 28.6832 10.0165 28.6832 14.0391C28.6832 17.0742 28.6832 20.1061 28.6832 23.1745C31.3793 22.8055 33.8892 22.4631 36.5255 22.1008C36.5255 18.1281 36.5654 14.1986 36.469 10.2758C36.459 9.83037 35.7143 9.32506 35.219 8.97932C33.4371 7.74264 32.5993 5.62167 33.1678 3.60043C33.7596 1.51935 35.7143 0.0133931 37.8486 9.55185e-05C39.9396 -0.0132021 41.8279 1.3631 42.4961 3.39099C43.2175 5.56848 42.3299 7.79583 40.2953 9.13889C39.8532 9.42811 39.2814 9.96334 39.2748 10.3988C39.195 14.2684 39.2282 18.1381 39.2282 22.1373C41.7115 22.5296 44.0918 22.9053 46.7148 23.3175C46.7148 21.6553 46.7148 20.023 46.7148 18.3907C46.7148 16.2864 46.758 14.1787 46.7015 12.0743C46.6616 10.575 47.3331 9.92345 48.7959 9.99326C49.1815 10.0132 49.5738 9.96667 49.9594 9.99991C51.5019 10.1395 52.6322 9.88023 53.6229 8.32441C55.1122 5.9807 58.6029 5.88762 60.6474 7.80248C62.7384 9.76055 62.6752 13.1514 60.5111 15.0231C58.3834 16.8648 54.9194 16.6587 53.5132 14.2452C52.4261 12.3802 51.1263 12.563 49.3942 12.8489C49.3942 16.4393 49.3743 19.9731 49.4242 23.507C49.4275 23.8294 49.8031 24.3015 50.1223 24.4445C52.4394 25.4717 54.7831 26.4325 57.4227 27.5395C57.4227 25.4451 57.4227 23.4405 57.4227 21.4392C57.426 18.8794 57.5823 18.7265 60.1653 18.7198C60.9399 18.7198 61.7178 18.6932 62.4924 18.7265C64.3109 18.8029 65.8102 18.793 67.0535 16.8183C68.4896 14.5344 71.9803 14.6441 73.9483 16.5656C75.9064 18.4771 75.8864 21.6786 73.9084 23.5602C71.9304 25.4418 68.4065 25.5016 67.0169 23.2111C65.8534 21.2929 64.4339 21.3561 62.7417 21.396C61.9239 21.4126 61.1061 21.396 60.1088 21.396C60.1088 23.9724 60.0423 26.3427 60.162 28.7063C60.1886 29.205 60.8568 29.7336 61.3222 30.1358C64.5835 32.9549 67.9345 35.6743 71.1259 38.5699C72.7615 40.0525 72.7648 40.8338 71.1425 42.3098C67.9544 45.2087 64.6466 47.9846 61.3089 50.7073C60.5044 51.3622 60.029 51.9041 60.0756 52.9945C60.1653 55.0855 60.1022 57.1832 60.1022 59.5169C61.9539 59.5169 63.6493 59.5701 65.3381 59.4704C65.6805 59.4505 66.0562 58.8953 66.2989 58.5163C67.5821 56.505 69.7097 55.5975 71.8606 56.1925C73.9383 56.7677 75.3944 58.7025 75.3978 60.8866C75.3978 63.084 73.9882 64.9623 71.8672 65.5807C69.7363 66.2023 67.4724 65.3446 66.3587 63.2569C65.86 62.3227 65.265 62.1864 64.3807 62.2064C62.7185 62.243 61.0563 62.1765 59.3941 62.2263C57.9646 62.2662 57.3961 61.6013 57.416 60.2184C57.4526 58.0077 57.426 55.7969 57.426 53.3003C55.5477 54.148 53.8888 54.9392 52.1934 55.6507C49.4009 56.8242 49.3909 56.8009 49.3909 59.8261C49.3909 62.5388 49.3909 65.2515 49.3909 68.074C51.0232 68.3233 52.4128 68.7355 53.4467 66.7608C54.4274 64.8892 56.8509 64.2974 58.8489 64.979C60.8801 65.6704 62.2398 67.562 62.2065 69.6464C62.1733 71.6909 60.8502 73.5027 58.8921 74.1809C56.9074 74.8724 54.4972 74.2673 53.4633 72.4422C52.6921 71.0792 51.7513 70.7701 50.3916 70.9363C50.0093 70.9828 49.617 70.9463 49.228 70.9429C47.0173 70.9263 46.7214 70.6437 46.7181 68.4629C46.7115 64.8692 46.7181 61.2756 46.7181 57.6121L46.7148 57.6054ZM54.4906 40.4681C54.3742 39.4807 54.341 38.4768 54.1315 37.5127C52.3729 29.4144 44.5539 24.0854 35.9038 25.0628C28.1712 25.9338 21.928 31.9011 21.3828 38.9422C20.7013 47.7785 27.1639 55.0988 36.3526 55.9C46.0698 56.7444 54.4041 49.6302 54.4872 40.4747L54.4906 40.4681ZM23.2478 28.2243C16.7652 30.9969 11.4229 35.302 6.53933 40.4581C11.4794 45.6475 16.8284 49.9493 23.5636 52.9645C16.9214 42.4661 16.9181 37.526 23.2478 28.2243ZM52.7419 52.3495C59.0683 49.5038 64.5004 45.4913 69.2277 40.4947C65.0788 35.6909 55.8303 29.1418 52.7153 28.7263C58.4433 35.6577 58.7525 44.8862 52.7386 52.3495H52.7419ZM39.697 76.0924C39.7236 74.8657 38.7628 73.8485 37.5361 73.895C36.2628 73.9415 35.4883 74.623 35.3752 75.9162C35.2722 77.123 36.2429 78.1768 37.443 78.23C38.6298 78.2832 39.6737 77.2925 39.697 76.0924ZM20.2459 11.3097C20.2326 10.073 19.2519 9.12892 18.0052 9.19873C16.6921 9.27186 16.0139 10.0697 15.9108 11.3097C15.8144 12.4932 16.8782 13.5238 18.0783 13.5271C19.2884 13.5271 20.2592 12.5364 20.2425 11.3097H20.2459ZM59.5071 11.2865C59.4705 10.0764 58.4433 9.11562 57.2199 9.19873C55.9167 9.29181 55.2319 10.0631 55.1721 11.333C55.1156 12.5531 56.1361 13.5404 57.3462 13.5271C58.5397 13.5105 59.5437 12.4733 59.5071 11.2865ZM15.8975 69.5035C15.8543 70.6969 16.8383 71.7441 18.0484 71.7308C19.3516 71.7175 20.0863 70.9961 20.2259 69.7328C20.3589 68.5194 19.4048 67.4689 18.1947 67.4058C17.0012 67.3426 15.9374 68.3133 15.8942 69.5035H15.8975ZM59.5071 69.6464C59.547 68.4596 58.5497 67.3891 57.3529 67.4157C56.063 67.4423 55.3117 68.1538 55.1787 69.4303C55.0491 70.6537 55.9932 71.6843 57.2132 71.7408C58.4267 71.7973 59.4639 70.8498 59.5071 69.6464ZM40.0394 4.94016C40.0759 3.7334 39.0986 2.69286 37.9084 2.67624C36.7216 2.65962 35.6777 3.67689 35.7143 4.877C35.7542 6.17684 36.4889 6.90156 37.7588 7.01792C38.9822 7.12762 39.9995 6.16354 40.036 4.94016H40.0394ZM7.03134 19.9565C6.98812 18.7564 5.93761 17.799 4.7375 17.8621C3.51079 17.9253 2.59991 18.9426 2.71626 20.1892C2.83926 21.4824 3.60055 22.1672 4.89042 22.1872C6.1138 22.2071 7.07456 21.1699 7.03134 19.9565ZM72.705 19.9964C72.6917 18.7597 71.7077 17.7823 70.4776 17.8655C69.1911 17.9552 68.4763 18.7198 68.3799 19.9798C68.2902 21.1799 69.3207 22.1872 70.5375 22.1905C71.7775 22.1938 72.715 21.2431 72.7017 19.9931L72.705 19.9964ZM7.03466 60.9298C7.05461 59.7197 6.07059 58.7058 4.85053 58.7457C3.55733 58.7856 2.81599 59.4937 2.71626 60.7835C2.61985 62.0269 3.55733 63.0275 4.78072 63.0707C5.9775 63.1106 7.01472 62.1266 7.03466 60.9298ZM70.5674 58.7357C69.3473 58.7257 68.3533 59.7131 68.37 60.9198C68.3866 62.1133 69.4271 63.1405 70.6173 63.0608C71.9005 62.9743 72.6285 62.2463 72.695 60.9564C72.7615 59.7098 71.8074 58.749 70.5674 58.739V58.7357Z" fill="white"/>
<path d="M37.5448 49.4538C32.2856 49.4638 28.0237 45.398 28.047 40.3948C28.0702 35.4713 32.2989 31.4754 37.4983 31.4688C42.7674 31.4621 47.036 35.5212 47.0094 40.5145C46.9795 45.4246 42.7242 49.4471 37.5481 49.4538H37.5448ZM37.4052 46.7876C41.2249 46.8308 44.3332 43.9885 44.3299 40.4513C44.3299 37.0371 41.3745 34.218 37.7177 34.1482C33.878 34.0718 30.753 36.8609 30.7165 40.3915C30.6799 43.8788 33.6752 46.7444 37.4052 46.7843V46.7876Z" fill="white"/>
</svg>
