<svg width="87" height="81" viewBox="0 0 87 81" fill="none" xmlns="http://www.w3.org/2000/svg">
<path d="M0.00224548 30.8927C0.790411 29.2064 2.15342 28.5934 3.94756 28.7596C4.22376 28.7843 4.50669 28.7551 4.78737 28.7461C4.83902 28.7461 4.89067 28.7146 5.00968 28.6765C5.18258 27.3112 4.68633 25.7664 5.90113 24.5875C7.08226 23.4401 8.56877 23.8038 10.0912 23.6848C10.0912 23.0471 10.089 22.4161 10.0912 21.7852C10.1024 19.9933 11.2544 18.6932 13.0373 18.6932C19.2258 18.6932 25.4211 18.6281 31.603 18.8526C35.3305 18.9873 38.7032 20.5053 41.7728 22.634C43.0145 23.4962 43.0415 23.5052 44.2675 22.6497C48.2308 19.8833 52.6342 18.6281 57.453 18.6662C62.4671 18.7066 67.4813 18.7201 72.4955 18.6528C74.5456 18.6258 76.1893 19.9125 75.9805 22.1759C75.9378 22.6429 75.9737 23.119 75.9737 23.6691C77.4198 23.8375 78.949 23.4109 80.1436 24.5628C81.3674 25.7439 80.8846 27.2798 81.0643 28.7573C81.7132 28.7573 82.324 28.7483 82.9325 28.7573C84.8614 28.7955 86.0582 30.008 86.0582 31.9369C86.0605 40.537 86.056 49.1371 86.0672 57.7349C86.0672 58.4602 85.8673 59.0261 85.1421 59.2394C84.5425 59.4168 83.9991 59.2124 83.7229 58.6398C83.5747 58.3322 83.5522 57.9415 83.5522 57.5867C83.5433 49.3504 83.5455 41.1163 83.5455 32.88C83.5455 31.2004 83.7072 31.3486 82.0118 31.3441C81.711 31.3441 81.4101 31.3441 81.0193 31.3441C81.0193 31.7527 81.0193 32.0806 81.0193 32.4084C81.0193 44.2846 80.9789 56.1631 81.0508 68.0393C81.0665 70.5789 79.5104 71.7174 77.33 71.7061C67.8339 71.6522 58.3377 71.6837 48.8415 71.6837H47.6941C47.6941 72.7458 47.6941 73.7697 47.6941 74.7914C47.6896 76.3295 47.2944 76.7225 45.7428 76.7247C43.8655 76.727 41.9883 76.7337 40.1133 76.7225C38.8402 76.7157 38.3911 76.2622 38.3798 74.9957C38.3708 73.9359 38.3798 72.8738 38.3798 71.6837H37.2683C27.716 71.6837 18.1637 71.6792 8.61143 71.6882C7.43929 71.6882 6.33002 71.4973 5.65413 70.4532C5.32404 69.9412 5.08378 69.2676 5.07929 68.668C5.03887 61.9743 5.05234 55.2784 5.05459 48.5847C5.05459 47.6146 5.53512 47.0331 6.31206 47.0353C7.08675 47.0353 7.56728 47.6169 7.56728 48.5892C7.56953 55.0875 7.58076 61.5859 7.55381 68.0865C7.55157 68.8522 7.76713 69.1104 8.54856 69.1081C18.2401 69.0879 27.9338 69.0947 37.6253 69.0924C37.8364 69.0924 38.0475 69.0632 38.2586 69.0475L38.3304 68.7983C37.1089 68.3222 35.921 67.6913 34.6546 67.4061C32.9211 67.0154 31.1336 66.71 29.362 66.6786C24.0694 66.5865 18.7745 66.6426 13.4796 66.6471C12.2603 66.6471 11.1601 66.335 10.5538 65.2055C10.2641 64.6666 10.1137 63.9885 10.1114 63.3755C10.0867 51.387 10.0935 39.3963 10.0935 27.4078V26.3075C9.50738 26.3075 8.98194 26.3434 8.46323 26.2985C7.7559 26.2379 7.54932 26.5298 7.55381 27.2192C7.57851 31.2251 7.56728 35.231 7.56504 39.2368C7.56504 40.2451 7.57402 41.2533 7.56279 42.2615C7.55156 43.1754 7.07103 43.6918 6.27388 43.6739C5.52165 43.6581 5.05683 43.1484 5.05459 42.2772C5.0456 38.9719 5.0501 35.6666 5.0501 32.3613C5.0501 32.0581 5.0501 31.7572 5.0501 31.3531C4.34726 31.3531 3.7073 31.3059 3.08305 31.38C2.87871 31.4047 2.66539 31.7123 2.54189 31.9391C2.45881 32.0896 2.52393 32.3231 2.52393 32.5184C2.52393 45.9912 2.52393 59.4662 2.52393 72.9389C2.52393 73.7368 2.92736 74.1365 3.73424 74.138C14.0702 74.138 24.4062 74.138 34.7444 74.138C36.3252 74.138 36.5902 74.367 36.8013 75.9006C36.9764 77.1716 38.0475 78.2674 39.3386 78.2943C41.8019 78.3482 44.2675 78.3504 46.7308 78.2943C48.0556 78.2629 49.1132 77.1469 49.2772 75.8131C49.4456 74.4389 49.7779 74.138 51.1611 74.138C61.5532 74.138 71.9453 74.138 82.3397 74.138C83.1451 74.138 83.5478 73.7375 83.5478 72.9366C83.5478 69.9682 83.5545 66.9974 83.5433 64.0289C83.541 63.3485 83.8374 62.7939 84.4729 62.731C84.9153 62.6861 85.4317 62.9938 85.8449 63.2542C86.0133 63.3598 86.0492 63.7595 86.0515 64.0267C86.0649 67.305 86.0739 70.5812 86.0515 73.8595C86.0402 75.355 84.9467 76.48 83.3614 76.691C83.0021 76.7382 82.6338 76.7292 82.2701 76.7292C72.4101 76.7292 62.5502 76.736 52.6881 76.7202C52.0369 76.7202 51.6843 76.837 51.3991 77.5398C50.5391 79.6528 48.8505 80.8115 46.5938 80.8878C44.0497 80.9731 41.4943 80.9754 38.9569 80.8047C36.8215 80.661 35.3462 79.3631 34.5805 77.3804C34.3335 76.7404 33.9697 76.727 33.442 76.727C23.6382 76.736 13.8344 76.709 4.0284 76.7539C2.22078 76.7629 0.799393 76.325 0 74.5893V30.8927H0.00224548ZM64.2276 42.5601C64.6857 43.0406 65.0472 43.3887 65.3728 43.7682C65.7994 44.2622 66.1924 44.462 66.9312 44.2397C68.5547 43.7502 70.2635 44.5473 71.1033 45.9957C71.9296 47.4193 71.7365 49.2291 70.6317 50.4417C69.4843 51.6991 67.7014 52.0494 66.1834 51.3152C64.6745 50.5854 63.7089 48.9237 64.1131 47.298C64.3331 46.4156 63.9784 46.0361 63.4911 45.4568C62.4649 44.2375 61.2703 43.7727 59.685 43.9366C58.3669 44.0736 57.0241 43.9635 55.6903 43.9635V49.0517C56.9432 49.0517 58.1446 49.0787 59.3437 49.0405C60.0308 49.0181 60.5046 49.2718 60.9133 49.8085C61.8317 51.0098 62.795 52.1774 63.7246 53.3675C64.3691 54.1938 64.908 55.1931 66.244 54.6564C66.2665 54.6474 66.3002 54.6564 66.3271 54.6609C68.0741 54.7934 69.4551 55.9632 69.8548 57.6451C70.2096 59.1473 69.5225 60.8 68.1842 61.6487C66.7762 62.5447 65.0045 62.4391 63.7246 61.3838C62.4312 60.3194 61.9978 58.5882 62.6782 56.9782C62.8601 56.5493 62.8107 56.2888 62.5255 55.9408C61.4589 54.6429 60.4305 53.3136 59.3796 52.0045C59.2471 51.8383 59.0607 51.6026 58.8923 51.5958C57.8145 51.5577 56.7367 51.5779 55.6701 51.5779C55.5219 54.2298 54.4373 55.2649 51.9179 55.2649C49.9284 55.2649 47.9411 55.2649 45.9516 55.2649C45.4284 55.2649 44.9075 55.2649 44.4022 55.2649V67.8933C44.6829 67.7339 44.8783 67.6329 45.0624 67.5161C47.6896 65.8343 50.5234 64.6105 53.6334 64.35C56.584 64.1008 59.5592 64.1367 62.5233 64.0738C63.5158 64.0536 64.0749 64.5364 64.0974 65.3178C64.1198 66.1329 63.5405 66.6404 62.5143 66.6539C61.1985 66.6718 59.8803 66.6651 58.5645 66.6561C56.4066 66.6404 54.2532 66.6202 52.1446 67.1928C50.6222 67.6059 49.1379 68.1022 47.8041 68.9936C48.0848 69.0812 48.352 69.1081 48.617 69.1081C58.1962 69.1081 67.7777 69.1081 77.357 69.1081C78.4999 69.1081 78.5022 69.1059 78.5022 67.927C78.5022 54.4543 78.5022 40.9793 78.5022 27.5066C78.5022 27.282 78.5673 27.0261 78.4797 26.8419C78.3809 26.6354 78.1541 26.3659 77.961 26.3457C77.33 26.2828 76.69 26.3232 75.9737 26.3232V27.3943C75.9737 39.3828 75.9737 51.3713 75.9737 63.362C75.9737 65.4031 74.8083 66.6112 72.7784 66.6516C71.5187 66.6763 70.2567 66.6718 68.997 66.6516C68.0539 66.6359 67.4409 66.0947 67.4454 65.347C67.4499 64.5948 68.0629 64.0806 69.0105 64.0693C70.131 64.0559 71.2537 64.0177 72.372 64.0806C73.214 64.1277 73.4768 63.8538 73.4768 62.9938C73.4521 49.4357 73.4543 35.8776 73.4745 22.3218C73.4745 21.5292 73.2702 21.2552 72.4416 21.2597C67.4836 21.2934 62.5233 21.3653 57.5675 21.2508C52.8026 21.1407 48.6035 22.5778 44.8109 25.3712C44.6088 25.5194 44.3618 25.7798 44.3551 25.9954C44.3124 27.327 44.3349 28.6608 44.3349 30.0327C44.6021 30.0462 44.766 30.0597 44.9299 30.0619C45.2106 30.0664 45.4913 30.0597 45.7697 30.0619C46.6881 30.0776 47.227 30.5402 47.2315 31.3104C47.236 32.0828 46.6949 32.5723 45.7854 32.5723C41.9187 32.5791 38.0542 32.5723 34.1875 32.5768C33.0535 32.5768 32.948 32.6846 32.948 33.8365C32.948 39.7196 32.948 45.6005 32.948 51.4836C32.948 52.6647 33.0401 52.7522 34.2616 52.7522C40.1156 52.7522 45.9696 52.7522 51.8258 52.7522C53.0339 52.7522 53.1237 52.6647 53.1237 51.4701C53.1237 45.7285 53.1237 39.9846 53.1237 34.243C53.1237 32.7654 53.1237 32.7722 51.7045 32.5656C51.078 32.4735 50.6918 32.0985 50.6155 31.4676C50.5324 30.7872 50.8647 30.2416 51.4957 30.1203C53.8041 29.6735 55.4455 31.005 55.6364 32.9428C55.6566 33.1562 55.6746 33.3695 55.7015 33.6434C56.7277 33.6434 57.7045 33.6726 58.6768 33.6232C58.9328 33.6097 59.2426 33.4076 59.4155 33.1988C60.4821 31.9009 61.533 30.5896 62.5412 29.2468C62.7097 29.0223 62.6917 28.6181 62.676 28.3015C62.6356 27.4796 62.3526 26.6196 62.5165 25.8517C62.9499 23.8353 64.9821 22.6295 66.9312 23.0651C68.9476 23.5164 70.2725 25.5014 69.8862 27.4909C69.4978 29.4938 67.5801 30.8591 65.5233 30.511C65.0135 30.4257 64.7688 30.5469 64.4858 30.9129C63.3541 32.3725 62.173 33.7961 61.0592 35.2714C60.5383 35.963 59.9275 36.2841 59.0607 36.2504C57.9515 36.2055 56.8377 36.2392 55.697 36.2392V41.379C56.9253 41.379 58.1131 41.26 59.2673 41.406C61.1603 41.644 62.6086 41.0691 63.7785 39.5647C64.1288 39.1133 64.3444 38.8214 64.1602 38.2062C63.6999 36.6613 64.4679 34.9503 65.8848 34.0925C67.3062 33.2325 69.1677 33.4256 70.4027 34.5596C71.6085 35.6666 71.9611 37.4584 71.2672 38.9472C70.5733 40.4314 68.8825 41.5115 67.3668 41.0646C66.2306 40.7301 65.6625 41.15 65.0337 41.8685C64.8159 42.1178 64.533 42.3131 64.2366 42.5691L64.2276 42.5601ZM41.7301 30.0552C41.7301 28.6361 41.7436 27.3 41.7144 25.964C41.7099 25.7866 41.5302 25.5665 41.3708 25.4475C37.787 22.8091 33.8462 21.2238 29.3171 21.2597C24.1075 21.3024 18.898 21.2867 13.6885 21.2508C12.8487 21.244 12.5882 21.4708 12.5882 22.3331C12.6129 35.8889 12.6129 49.4447 12.5882 63.0005C12.5882 63.8785 12.8846 64.0806 13.7042 64.0761C18.8576 64.0446 24.011 64.0514 29.1644 64.0626C33.3769 64.0716 37.284 65.1606 40.8544 67.4151C41.1036 67.5723 41.3618 67.7182 41.6784 67.9068V55.2604C41.3192 55.2604 41.016 55.2604 40.7129 55.2604C38.3327 55.2604 35.9525 55.2694 33.57 55.2559C32.0723 55.2492 30.8485 54.3016 30.5049 52.8735C30.4084 52.4761 30.4196 52.0517 30.3747 51.5622C29.326 51.5622 28.2954 51.5397 27.2669 51.5801C27.0693 51.5891 26.838 51.8092 26.6943 51.9865C25.621 53.3136 24.5476 54.6429 23.5215 56.0082C23.3553 56.2305 23.3081 56.6751 23.4069 56.9423C24.0424 58.6511 23.5978 60.4272 22.2146 61.4691C20.8156 62.5222 18.9047 62.4998 17.544 61.413C16.2191 60.3554 15.7633 58.5029 16.4459 56.9423C17.1488 55.33 18.7565 54.4453 20.5439 54.7395C21.0335 54.8203 21.3052 54.6744 21.5948 54.2994C22.758 52.7927 23.975 51.3264 25.1337 49.8174C25.5693 49.2516 26.0678 49.0091 26.7797 49.0338C27.972 49.0742 29.1688 49.045 30.3792 49.045V43.9433C29.1666 43.9433 27.9832 44.0578 26.8313 43.9164C24.9137 43.6806 23.4294 44.2532 22.2393 45.7756C21.9182 46.1865 21.7543 46.456 21.9002 47.0039C22.6053 49.6378 20.1892 52.1684 17.5507 51.6093C15.3793 51.149 14.0275 49.0944 14.5373 47.0331C15.0807 44.8415 17.2094 43.6537 19.4212 44.2869C19.6502 44.352 20.0095 44.3677 20.1577 44.2375C20.7168 43.7435 21.2131 43.1776 21.752 42.6185C21.276 42.1312 20.7887 41.6732 20.3508 41.1724C20.0432 40.8221 19.758 40.8154 19.3269 40.9434C17.6652 41.4374 15.9923 40.8087 15.0672 39.4053C14.1421 38.0041 14.2566 36.1718 15.3479 34.8784C16.4078 33.6232 18.1839 33.1921 19.6951 33.8275C21.24 34.4765 22.3291 36.0528 21.9451 37.7234C21.6734 38.9068 22.1697 39.4569 22.8792 40.0901C23.2138 40.3888 23.5102 40.7278 23.8448 41.0242C24.0042 41.1634 24.2131 41.3408 24.3994 41.3431C26.38 41.3655 28.3605 41.3566 30.3702 41.3566V36.2234C29.1711 36.2234 28.0259 36.201 26.8829 36.2324C26.1127 36.2549 25.5559 35.9652 25.0888 35.3567C23.9459 33.8702 22.7557 32.4196 21.6105 30.9332C21.3074 30.5402 21.0469 30.4055 20.5058 30.4975C18.7498 30.7984 17.1061 29.8396 16.428 28.2364C15.7543 26.6443 16.2169 24.8682 17.5821 23.7836C18.916 22.726 20.8291 22.7036 22.1831 23.7297C23.5888 24.7941 24.0828 26.559 23.3867 28.2296C23.2116 28.6473 23.2295 28.9212 23.5192 29.2738C24.5679 30.5514 25.5761 31.8583 26.6112 33.1449C26.7594 33.3291 26.975 33.5828 27.1681 33.5918C28.2437 33.6344 29.3238 33.612 30.3881 33.612C30.5364 31.124 31.6703 30.0462 34.0146 30.0462C34.9106 30.0462 35.8065 30.0462 36.7024 30.0462C38.3484 30.0462 39.9921 30.0462 41.7234 30.0462L41.7301 30.0552ZM45.0467 74.0975V70.6059H41.034V74.0975H45.0467ZM21.1727 26.8127C21.1974 26.1728 20.6315 25.5598 19.9803 25.5239C19.3404 25.4857 18.7229 26.0381 18.6712 26.6937C18.6196 27.3584 19.2281 28.0186 19.9017 28.0298C20.5395 28.041 21.148 27.4572 21.1727 26.8127ZM66.1295 28.0298C66.7673 28.0365 67.3735 27.4527 67.396 26.8083C67.4162 26.1705 66.8458 25.5575 66.1969 25.5239C65.53 25.4879 64.8833 26.1122 64.8878 26.7836C64.8923 27.4145 65.4986 28.023 66.1295 28.0298ZM19.4908 37.3147C19.4773 36.6613 18.898 36.0977 18.2401 36.0977C17.5462 36.0977 16.9467 36.7174 16.9871 37.3956C17.0253 38.0468 17.6338 38.6059 18.2782 38.5812C18.9294 38.5565 19.5043 37.9569 19.4908 37.3147ZM67.8204 38.5834C68.4648 38.5834 69.0644 37.9996 69.0779 37.3574C69.0913 36.7107 68.5255 36.1224 67.8653 36.0999C67.1737 36.0752 66.5539 36.6725 66.5674 37.3552C66.5786 37.9996 67.1759 38.5857 67.8204 38.5857V38.5834ZM19.4908 47.8594C19.4684 47.2082 18.8913 46.6671 18.2244 46.6738C17.526 46.6805 16.9399 47.2958 16.9893 47.9717C17.0387 48.6296 17.6248 49.1438 18.2962 49.1169C18.9609 49.0877 19.5155 48.5061 19.4908 47.8594ZM67.863 46.676C67.1939 46.6581 66.6123 47.179 66.5741 47.8369C66.5337 48.5128 67.131 49.1258 67.8271 49.1236C68.4895 49.1236 69.0666 48.5645 69.0779 47.9155C69.0891 47.2666 68.53 46.6963 67.863 46.6783V46.676ZM18.669 58.3928C18.6285 59.035 19.1742 59.6301 19.8344 59.6683C20.517 59.7064 21.1008 59.2236 21.1682 58.5657C21.2333 57.928 20.7034 57.3083 20.0477 57.2521C19.3314 57.1915 18.7116 57.7057 18.669 58.3951V58.3928ZM67.396 58.4355C67.3825 57.7843 66.8144 57.2432 66.143 57.2432C65.4716 57.2432 64.9057 57.7821 64.8923 58.4355C64.8788 59.1181 65.4761 59.6885 66.1857 59.6683C66.8526 59.6503 67.4095 59.0844 67.396 58.4355Z" fill="white"/>
<path d="M0 8.86617C0.453647 8.26206 1.05102 8.03973 1.80785 8.06892C2.924 8.11159 4.0424 8.06892 5.15855 8.08464C6.29042 8.10036 6.71711 8.54278 6.7216 9.67239C6.7261 10.9278 6.73283 12.1854 6.71936 13.4408C6.71038 14.3166 6.28368 14.8219 5.41007 14.8534C4.04464 14.9028 2.67023 14.9297 1.30929 14.8287C0.85564 14.795 0.43568 14.3391 0 14.0763V8.86617ZM4.15019 12.237V10.7391H2.56243V12.237H4.15019Z" fill="white"/>
<path d="M30.9264 11.9158C30.9264 13.1193 30.9331 14.3229 30.9264 15.5265C30.9197 16.5145 30.4975 17.0354 29.5454 17.0489C27.0552 17.0826 24.5627 17.0826 22.0702 17.0489C21.1136 17.0354 20.687 16.5189 20.6847 15.5309C20.678 13.0946 20.678 10.6583 20.6847 8.22424C20.687 7.24746 21.1316 6.7602 22.1061 6.75122C24.5694 6.72876 27.0327 6.72876 29.4983 6.75122C30.4751 6.7602 30.9197 7.24746 30.9264 8.21974C30.9354 9.4525 30.9286 10.683 30.9286 11.9158H30.9264ZM28.3621 14.4307V9.39187H23.2558V14.4307H28.3621Z" fill="white"/>
<path d="M55.1362 11.8709C55.1362 10.6381 55.1272 9.40764 55.1385 8.17488C55.1474 7.24975 55.5898 6.75575 56.5194 6.74677C59.0119 6.71983 61.5022 6.71983 63.9946 6.74677C64.9243 6.75575 65.3734 7.24975 65.3779 8.17488C65.3869 10.6381 65.3869 13.1014 65.3779 15.5669C65.3756 16.5033 64.949 17.0287 64.0373 17.0422C61.5179 17.0804 58.9984 17.0804 56.479 17.0422C55.5651 17.0287 55.1452 16.5055 55.1385 15.5692C55.1295 14.3364 55.1362 13.1059 55.1362 11.8731V11.8709ZM57.6961 9.36722V14.4128H62.809V9.36722H57.6961Z" fill="white"/>
<path d="M17.1473 4.21501C17.1473 5.13789 17.1541 6.06302 17.1473 6.9859C17.1383 7.9245 16.7229 8.44545 15.8113 8.46566C13.9093 8.50832 12.0029 8.50832 10.101 8.46566C9.18483 8.44545 8.75819 7.92899 8.7537 6.99937C8.74471 5.15136 8.74247 3.30335 8.7537 1.45759C8.75819 0.527971 9.20055 0.0384612 10.1279 0.022743C12.0029 -0.00869335 13.8801 -0.00644789 15.7551 0.022743C16.7162 0.0384612 17.1383 0.532462 17.1473 1.5272C17.1541 2.42314 17.1473 3.31907 17.1473 4.21501ZM11.3001 5.85419H14.5852V2.66115H11.3001V5.85195V5.85419Z" fill="white"/>
<path d="M77.3161 4.24808C77.3161 5.17096 77.3251 6.09609 77.3139 7.01897C77.3026 7.9441 76.8715 8.45606 75.9509 8.47403C74.0489 8.5122 72.1425 8.5122 70.2406 8.46954C69.3626 8.44933 68.927 7.93512 68.9225 7.06164C68.9113 5.18668 68.9113 3.30948 68.9225 1.43453C68.927 0.552061 69.3671 0.0468337 70.2406 0.0333609C72.1717 -0.000320894 74.1051 -0.00256635 76.0339 0.0378518C76.8648 0.0558155 77.2959 0.561043 77.3116 1.39411C77.3273 2.34618 77.3161 3.29825 77.3161 4.25033V4.24808ZM71.4823 5.84235H74.7405V2.65156H71.4823V5.84235Z" fill="white"/>
<path d="M38.8399 12.9631C38.8399 12.0402 38.8309 11.1151 38.8422 10.1922C38.8534 9.29625 39.2711 8.78878 40.1401 8.77082C42.0712 8.73264 44.0023 8.73264 45.9334 8.77082C46.8024 8.78878 47.2268 9.2985 47.2336 10.1922C47.2448 12.0402 47.2425 13.8882 47.2336 15.734C47.2291 16.6703 46.8047 17.189 45.893 17.2092C43.9911 17.2519 42.0847 17.2519 40.1827 17.2092C39.2688 17.189 38.8512 16.6726 38.8399 15.7362C38.8309 14.8133 38.8399 13.8882 38.8399 12.9653V12.9631ZM44.6535 14.6023V11.3935H41.4088V14.6023H44.6535Z" fill="white"/>
<path d="M39.0062 3.44783C39.0062 4.09236 39.0152 4.73465 39.004 5.37918C38.986 6.25502 38.5638 6.75807 37.6857 6.78952C36.345 6.83892 34.9975 6.83668 33.6568 6.79401C32.736 6.76481 32.3003 6.26401 32.2936 5.33876C32.2823 4.05194 32.2823 2.76287 32.2936 1.47605C32.3003 0.539571 32.7338 0.0499961 33.6545 0.0252928C34.9683 -0.0106393 36.2866 -0.00614782 37.6003 0.0252928C38.5683 0.0477504 38.995 0.528342 39.0084 1.51648C39.0152 2.16101 39.0084 2.8033 39.0084 3.44783H39.0062ZM34.8538 2.65283V4.15749H36.4258V2.65283H34.8538Z" fill="white"/>
<path d="M53.7936 3.4436C53.7936 4.08813 53.8026 4.73042 53.7914 5.37495C53.7734 6.25079 53.3512 6.75609 52.4731 6.78753C51.1324 6.83694 49.7849 6.83469 48.4442 6.79202C47.5212 6.76283 47.0877 6.26202 47.0787 5.33902C47.0675 4.0522 47.0675 2.76313 47.0787 1.47631C47.0877 0.508392 47.5346 0.0412742 48.5205 0.0210624C49.8074 -0.0058867 51.0964 -0.00813246 52.3833 0.0210624C53.3512 0.04352 53.7801 0.524112 53.7914 1.51C53.7981 2.15453 53.7914 2.79682 53.7914 3.44135L53.7936 3.4436ZM51.2424 2.6733H49.6344V4.16224H51.2424V2.6733Z" fill="white"/>
<path d="M86.0592 11.5279C86.0592 12.1433 86.066 12.7586 86.0592 13.3762C86.0458 14.3463 85.6123 14.8427 84.6444 14.8696C83.3306 14.9055 82.0123 14.91 80.6986 14.8651C79.7823 14.8337 79.3533 14.3306 79.3444 13.4009C79.3331 12.1141 79.3331 10.825 79.3444 9.53818C79.3533 8.60619 79.789 8.12111 80.7143 8.09865C82.0281 8.06496 83.3463 8.06721 84.6601 8.09865C85.6213 8.12111 86.0458 8.60844 86.057 9.59881C86.0637 10.2433 86.057 10.8856 86.057 11.5302L86.0592 11.5279ZM83.4901 12.2421V10.7442H81.8978V12.2421H83.4901Z" fill="white"/>
<path d="M45.993 48.0333C45.6225 48.397 45.3104 48.8753 44.8703 49.0931C44.2955 49.376 43.761 49.0392 43.4601 48.5093C43.2131 48.0759 43.0447 47.5909 42.901 47.1126C42.764 46.6568 42.5125 46.5221 42.0477 46.5355C40.9003 46.5692 39.7506 46.5647 38.6031 46.5355C38.1675 46.5243 37.934 46.6635 37.815 47.0834C37.7094 47.4584 37.5545 47.8199 37.4018 48.1815C37.0538 49.0011 36.4452 49.3356 35.7671 49.0976C34.9991 48.8259 34.7005 48.1253 35.0328 47.2451C36.1578 44.2654 37.3008 41.2946 38.437 38.3194C38.5964 37.9018 38.657 37.3898 38.9422 37.0912C39.3352 36.6802 39.8921 36.202 40.3928 36.184C40.8531 36.1683 41.5941 36.6196 41.7648 37.044C43.1547 40.5177 44.4414 44.0341 45.7573 47.537C45.7954 47.6403 45.8134 47.7526 45.8426 47.8604L45.9953 48.031L45.993 48.0333ZM40.4669 40.6816L40.2738 40.6592C39.8629 41.7482 39.4519 42.835 39.032 43.951H41.6997C41.273 42.8148 40.8711 41.7482 40.4691 40.6816H40.4669Z" fill="white"/>
<path d="M50.2252 42.6374C50.2252 44.2609 50.232 45.8821 50.223 47.5055C50.2163 48.5317 49.7335 49.1537 48.9588 49.1739C48.1572 49.1964 47.6362 48.5519 47.634 47.4831C47.6272 44.2384 47.6272 40.9915 47.634 37.7468C47.6362 36.8015 48.0561 36.2311 48.7702 36.1301C49.5696 36.0155 50.2073 36.6757 50.2185 37.6862C50.2365 39.3366 50.223 40.987 50.223 42.6374H50.2252Z" fill="white"/>
</svg>
